<svg xmlns="http://www.w3.org/2000/svg" width="117" height="138" viewBox="0 0 117 138">
  <g fill="none" fill-rule="evenodd" transform="translate(-11 -1)">
    <rect width="140" height="140"/>
    <g transform="translate(11 1)">
      <path fill="#FFF" fill-opacity=".3" fill-rule="nonzero" d="M50.0139182,134.322581 L50.0139182,79.5052655 L97.1144146,22.1999113 C97.6044459,21.6037092 97.5187928,20.7228013 96.9231031,20.2323485 C96.3274134,19.7418957 95.4472627,19.8276225 94.9572314,20.4238246 L48.676087,76.7323049 L2.50581426,20.5587178 C2.01578299,19.9625157 1.13563227,19.8767889 0.539942583,20.3672417 C-0.0557471001,20.8576945 -0.141400174,21.7386024 0.348631088,22.3348045 L47.2206221,79.3621451 L47.2206221,134.322581 L35.1955307,134.322581 C34.4241833,134.322581 33.7988827,134.948419 33.7988827,135.72043 C33.7988827,136.492441 34.4241833,137.11828 35.1955307,137.11828 L62.4310106,137.11828 C63.202358,137.11828 63.8276587,136.492441 63.8276587,135.72043 C63.8276587,134.948419 63.202358,134.322581 62.4310106,134.322581 L50.0139182,134.322581 Z"/>
      <path fill="#FFF" fill-opacity=".3" fill-rule="nonzero" d="M91.7908709,36.9619887 C93.7712959,37.6464765 95.862244,38 98,38 C108.49341,38 117,29.4934102 117,19 C117,8.50658975 108.49341,0 98,0 C87.5065898,0 79,8.50658975 79,19 C79,20.8182011 79.2557033,22.6033219 79.7541694,24.3167121 C79.9084461,24.8470113 80.4634044,25.1518377 80.9937035,24.997561 C81.5240026,24.8432844 81.828829,24.288326 81.6745524,23.7580269 C81.228763,22.2257036 81,20.6286591 81,19 C81,9.61115925 88.6111593,2 98,2 C107.388841,2 115,9.61115925 115,19 C115,28.3888407 107.388841,36 98,36 C96.0853564,36 94.2151635,35.6838003 92.4442022,35.0717087 C91.9222158,34.8912963 91.352809,35.1681967 91.1723966,35.690183 C90.9919841,36.2121694 91.2688845,36.7815762 91.7908709,36.9619887 Z"/>
      <path fill="#FFF" d="M98,4 C98.5522847,4 99,4.44771525 99,5 L99,16 L99,16 C99,16.5522847 98.5522847,17 98,17 C97.4477153,17 97,16.5522847 97,16 L97,5 C97,4.44771525 97.4477153,4 98,4 Z M109.697016,9.60975414 C110.04458,10.03896 109.978397,10.6686564 109.549191,11.0162205 L101.000585,17.9387448 L101.000585,17.9387448 C100.571379,18.2863089 99.9416829,18.2201251 99.5941189,17.7909192 C99.2465548,17.3617134 99.3127386,16.7320169 99.7419444,16.3844529 L108.29055,9.46192857 C108.719756,9.11436452 109.349452,9.18054828 109.697016,9.60975414 Z M112.620293,22.3536098 C112.496056,22.8917395 111.959101,23.2272658 111.420972,23.1030288 L100.702901,20.6285672 L100.702901,20.6285672 C100.164771,20.5043302 99.8292448,19.9673758 99.9534818,19.4292461 C100.077719,18.8911164 100.614673,18.55559 101.152803,18.6798271 L111.870874,21.1542887 C112.409003,21.2785257 112.74453,21.8154801 112.620293,22.3536098 Z M83.2249511,22.3987338 L83.2249511,22.3987338 C83.100714,21.860604 83.4362403,21.3236497 83.9743701,21.1994127 L83.9743701,21.1994127 L94.8079313,18.698288 C95.3118494,18.5819493 95.8299021,18.8257523 96.0614332,19.2882039 L96.0616978,19.2887881 C96.0673797,19.3001368 96.0725941,19.3117136 96.077328,19.3234893 C96.1730359,19.5615642 96.0576245,19.8321486 95.8195496,19.9278564 C95.1262479,20.0706336 94.9130411,20.5000191 94.6738414,20.7818533 C94.6848228,20.7977076 91.2685103,21.5872411 84.4249135,23.1504955 C83.8860756,23.2735766 83.3492852,22.9372839 83.2249511,22.3987338 L83.2249511,22.3987338 Z M104.537424,32.5003967 C104.041034,32.7425024 103.442365,32.536364 103.200259,32.0399738 L98.3781764,22.1532393 L98.3781764,22.1532393 C98.1360707,21.656849 98.3422091,21.0581798 98.8385993,20.8160741 C99.3349896,20.5739684 99.9336588,20.7801067 100.175765,21.276497 L104.997847,31.1632315 C105.239953,31.6596217 105.033814,32.258291 104.537424,32.5003967 Z M91.8385993,32.5003967 C91.3422091,32.258291 91.1360707,31.6596217 91.3781764,31.1632315 L93.8583045,26.0782154 C96.0528034,23.4844736 97.1628262,22.1631991 97.1883731,22.1143919 C97.2266933,22.0411811 98.0255801,20.7792082 96.618355,20.0671185 C96.9427,19.8435976 97.361813,19.8105884 97.7171507,19.9805775 C98.2651319,20.2427248 98.496846,20.8994637 98.2346986,21.4474449 L98.2346987,21.4474449 L93.1689418,32.0366781 C93.1678601,32.0389393 93.1667698,32.0411963 93.165671,32.0434493 C92.9253928,32.5360925 92.3312426,32.7406749 91.8385993,32.5003967 Z M86.3029836,9.60975414 L86.3029836,9.60975414 C86.6505477,9.18054828 87.2802441,9.11436452 87.70945,9.46192857 L96.2580556,16.3844529 C96.6872614,16.7320169 96.7534452,17.3617134 96.4058811,17.7909192 C96.0583171,18.2201251 95.4286207,18.2863089 94.9994148,17.9387448 L86.4508092,11.0162205 L86.4508092,11.0162205 C86.0216034,10.6686564 85.9554196,10.03896 86.3029836,9.60975414 L86.3029836,9.60975414 Z" opacity=".1"/>
      <g fill="#D8D8D8" fill-opacity=".1" transform="translate(18 19.398)">
        <path d="M0,6.8407919 L30.1644137,45 L61,6.8407919 C46.4949852,6.8407919 34.5476405,5.13059393 25.1579661,1.71019798 C15.7682916,-1.71019798 7.38230295,1.32338585e-13 0,6.8407919 Z"/>
        <path d="M0,6.83840086 L30.8344973,45 L61,6.83840086 C46.4949852,6.83840086 34.5476405,5.12880065 25.1579661,1.70960022 C15.7682916,-1.70960022 7.38230295,1.31450406e-13 0,6.83840086 Z" transform="matrix(-1 0 0 1 61 0)"/>
      </g>
    </g>
  </g>
</svg>
