<svg xmlns="http://www.w3.org/2000/svg" width="60" height="60" viewBox="0 0 60 60">
  <g fill="#FFFFFF" fill-rule="evenodd">
    <path d="M0,26 L22,26 L22,30 L0,30 L0,26 Z M11.0732357,22 C4.56990679,22 0,16.9123253 0,10.9860229 C0,5.05972046 4.51131824,0 11.0146471,0 C17.5472703,0 22,5.11562897 22,11.0139771 C22,16.8564168 17.6058589,22 11.0732357,22 Z M11.0466045,18 C15.2037284,18 18,14.7268107 18,11.0088945 C18,7.25540025 15.1664447,4 11.0093209,4 C6.87083888,4 4,7.21982211 4,10.9911055 C4,14.7623888 6.9081225,18 11.0466045,18 Z" transform="translate(19 15)" opacity=".5"/>
    <g transform="translate(19 10)">
      <path d="M13,5.16403406 C12.362954,5.05634766 11.7002554,5 11.0146471,5 C4.51131824,5 0,10.0597205 0,15.9860229 C0,21.9123253 4.56990679,27 11.0732357,27 C17.6058589,27 22,21.8564168 22,16.0139771 C22,16.0093176 21.9999972,16.0046586 21.9999917,16 L17.999995,16 C17.9999982,16.0029645 18,16.0059294 18,16.0088945 C18,19.7268107 15.2037284,23 11.0466045,23 C6.9081225,23 4,19.7623888 4,15.9911055 C4,12.2198221 6.87083888,9 11.0093209,9 C11.7132783,9 12.379282,9.09334933 13,9.26665908 L13,5.16403406 Z M0,31 L22,31 L22,35 L0,35 L0,31 Z" opacity=".5"/>
      <path d="M27-1L27 .4408921e-16 24 3 27 3 27 5 22 5 22 3 22.0787402 3 25.0314961 0 22 0 22-2 27-2 27-1zM27 8L27 9 24 12 27 12 27 14 22 14 22 12 22.0787402 12 25.0314961 9 22 9 22 7 27 7 27 8zM20 2L20 3 17 6 20 6 20 8 15 8 15 6 15.0787402 6 18.0314961 3 15 3 15 1 20 1 20 2z"/>
    </g>
  </g>
</svg>
