<svg xmlns="http://www.w3.org/2000/svg" width="18" height="18" viewBox="0 0 18 18">
  <path fill="#FFFFFF" fill-rule="evenodd" d="M10,6 L8,8 L8,8.5 L8,9 L11,9 L11,8 L9,8 L11,6 L11,5.5 L11,5 L8,5 L8,6 L10,6 Z M8,11 L6,13 L6,13.5 L6,14 L9,14 L9,13 L7,13 L9,11 L9,10.5 L9,10 L6,10 L6,11 L8,11 Z M6.59209646,15.8970341 C3.07871053,15.5977225 0.749933089,14.7489524 0.749933089,14.7489524 C0.337229012,14.5988571 0,14.1333333 0,13.7142857 C0,13.2952381 0.361316799,12.952381 0.80292622,12.952381 L1.10402355,12.952381 L3.1113391,10.6666667 L4.19288072,5.33333333 C4.51886877,3.46666667 6.0235525,1.98628571 7.94334909,1.56266667 L7.64787225,0.723047619 C7.50896601,0.325333333 7.75546436,0 8.19707378,0 L9.80292622,0 C10.2445356,0 10.491034,0.325333333 10.3521278,0.723047619 C10.3521278,0.723047619 10.0478187,1.57638095 10.044607,1.584 C11.9764475,1.98628571 13.4811312,3.46666667 13.8175573,5.33333333 L14.8886609,10.6666667 L16.8959764,12.952381 L17.1970738,12.952381 C17.6386832,12.952381 18,13.2952381 18,13.7142857 C18,14.1333333 17.662771,14.5988571 17.2500669,14.7489524 C17.2500669,14.7489524 14.9213425,15.5977031 11.4080236,15.8970238 C10.8217227,17.1839483 9.96303661,18 9.00113507,18 C8.03862785,18 7.1787411,17.1842669 6.59209646,15.8970341 Z"/>
</svg>
