<svg xmlns="http://www.w3.org/2000/svg" width="20" height="20" viewBox="0 0 20 20">
  <path fill="#000000" fill-rule="evenodd" d="M11.4782488,10 L13.6961839,7.78206486 C14.0947311,7.38351766 14.1002834,6.71613085 13.6920763,6.30792371 C13.2810232,5.89687064 12.6238737,5.89787752 12.2179351,6.30381607 L10,8.5217512 L7.78206486,6.30381607 C7.37612632,5.89787752 6.71897679,5.89687064 6.30792371,6.30792371 C5.89971658,6.71613085 5.90526886,7.38351766 6.30381607,7.78206486 L8.5217512,10 L6.30381607,12.2179351 C5.90526886,12.6164823 5.89971658,13.2838692 6.30792371,13.6920763 C6.71897679,14.1031294 7.37612632,14.1021225 7.78206486,13.6961839 L10,11.4782488 L12.2179351,13.6961839 C12.6238737,14.1021225 13.2810232,14.1031294 13.6920763,13.6920763 C14.1002834,13.2838692 14.0947311,12.6164823 13.6961839,12.2179351 L11.4782488,10 Z"/>
</svg>
