<svg xmlns="http://www.w3.org/2000/svg" width="60" height="60" viewBox="0 0 60 60">
  <path fill="#FFFFFF" fill-rule="evenodd" d="M33.9932499,37.4861347 C26.9488805,37.4861347 21.431923,32.6039734 21.431923,26.3691916 C21.431923,25.4087421 21.5776259,24.4823302 21.8258149,23.5988351 C17.8288607,24.9218579 15,28.1702192 15,31.9750197 C15,34.3028886 16.0643727,36.4161733 17.7992262,38.0144559 L16.7620184,42.5754808 C16.678054,42.9469335 16.8410438,43.1052818 17.1250412,42.926215 L21.4393316,40.218014 C22.7765887,40.7122977 24.2509055,40.9905172 25.8079519,40.9905172 C29.2912414,40.9905172 32.3781692,39.6097787 34.3538031,37.4742956 C34.2327955,37.4772554 34.1142575,37.4861347 33.9932499,37.4861347 L33.9932499,37.4861347 Z M43.262677,36.3451386 C43.3466414,36.7121516 43.1836516,36.8675402 42.9033586,36.6914331 L38.6495719,34.0187495 C37.3320711,34.5056337 35.8750412,34.7808935 34.3402206,34.7808935 C28.4540665,34.7808935 23.681676,30.799986 23.681676,25.8911867 C23.681676,20.9809075 28.4540665,17 34.3402206,17 C40.2276095,17 45,20.9809075 45,25.8911867 C45,28.186498 43.9492097,30.268705 42.2378169,31.8462691 L43.262677,36.3451386 Z"/>
</svg>
