<svg xmlns="http://www.w3.org/2000/svg" width="42" height="42" viewBox="0 0 42 42">
  <path d="M1.8125,0 C1.78125,0.0078125 1.75,0.0195313 1.71875,0.03125 C1.6875,0.0390625 1.65625,0.0507813 1.625,0.0625 C1.59375,0.0703125 1.5625,0.0820313 1.53125,0.09375 C1.519531,0.105469 1.511719,0.113281 1.5,0.125 C1.480469,0.132813 1.457031,0.144531 1.4375,0.15625 C1.425781,0.167969 1.417969,0.175781 1.40625,0.1875 C1.386719,0.195313 1.363281,0.207031 1.34375,0.21875 C1.34375,0.230469 1.34375,0.238281 1.34375,0.25 C1.324219,0.257813 1.300781,0.269531 1.28125,0.28125 C1.269531,0.292969 1.261719,0.300781 1.25,0.3125 C1.238281,0.324219 1.230469,0.332031 1.21875,0.34375 C1.207031,0.363281 1.195313,0.386719 1.1875,0.40625 C1.175781,0.417969 1.167969,0.425781 1.15625,0.4375 C1.15625,0.449219 1.15625,0.457031 1.15625,0.46875 C1.132813,0.488281 1.113281,0.507813 1.09375,0.53125 C1.09375,0.542969 1.09375,0.550781 1.09375,0.5625 C1.0820313,0.574219 1.0742188,0.582031 1.0625,0.59375 C1.0625,0.613281 1.0625,0.636719 1.0625,0.65625 C1.0507813,0.667969 1.0429688,0.675781 1.03125,0.6875 C1.03125,0.707031 1.03125,0.730469 1.03125,0.75 C1.0195313,0.761719 1.0117188,0.769531 1,0.78125 C1,0.800781 1,0.824219 1,0.84375 C0.9804687,0.957031 0.9804687,1.074219 1,1.1875 L1,18 C1,18.242188 1.0898438,18.476563 1.25,18.65625 L7.1875,25.5625 C7.238281,25.644531 7.300781,25.71875 7.375,25.78125 C7.386719,25.78125 7.394531,25.78125 7.40625,25.78125 C7.445313,25.828125 7.484375,25.867188 7.53125,25.90625 C7.542969,25.90625 7.550781,25.90625 7.5625,25.90625 C7.582031,25.917969 7.605469,25.929688 7.625,25.9375 C7.636719,25.9375 7.644531,25.9375 7.65625,25.9375 C7.675781,25.949219 7.699219,25.960938 7.71875,25.96875 C7.730469,25.96875 7.738281,25.96875 7.75,25.96875 C7.8125,25.984375 7.875,25.996094 7.9375,26 C7.957031,26 7.980469,26 8,26 C8.019531,26 8.042969,26 8.0625,26 L26,26 C26.550781,26 27,25.550781 27,25 L27,7.0625 C27,7.042969 27,7.019531 27,7 C27,6.988281 27,6.980469 27,6.96875 C27,6.949219 27,6.925781 27,6.90625 C27,6.894531 27,6.886719 27,6.875 C26.992188,6.855469 26.980469,6.832031 26.96875,6.8125 C26.96875,6.800781 26.96875,6.792969 26.96875,6.78125 C26.960938,6.75 26.949219,6.71875 26.9375,6.6875 C26.9375,6.675781 26.9375,6.667969 26.9375,6.65625 C26.925781,6.644531 26.917969,6.636719 26.90625,6.625 C26.90625,6.613281 26.90625,6.605469 26.90625,6.59375 C26.886719,6.550781 26.867188,6.507813 26.84375,6.46875 C26.835938,6.449219 26.824219,6.425781 26.8125,6.40625 C26.792969,6.382813 26.773438,6.363281 26.75,6.34375 C26.730469,6.320313 26.710938,6.300781 26.6875,6.28125 C26.675781,6.269531 26.667969,6.261719 26.65625,6.25 L26.59375,6.1875 C26.554688,6.152344 26.511719,6.121094 26.46875,6.09375 L19.65625,0.25 C19.476563,0.0898438 19.242188,0 19,0 L2,0 C1.96875,0 1.9375,0 1.90625,0 C1.875,0 1.84375,0 1.8125,0 Z M4.4375,2 L18.625,2 L23.3125,6 L8.4375,6 L4.4375,2 Z M3,3.4375 L7,7.4375 L7,22.3125 L3,17.625 L3,3.4375 Z M9,8 L25,8 L25,24 L9,24 L9,8 Z" transform="translate(8 8)"/>
</svg>
