<svg xmlns="http://www.w3.org/2000/svg" width="42" height="42" viewBox="0 0 42 42">
  <path d="M3,0 C1.34375,0 0,1.34375 0,3 L0,19 C0,20.65625 1.34375,22 3,22 L23,22 C24.65625,22 26,20.65625 26,19 L26,3 C26,1.34375 24.65625,0 23,0 L3,0 Z M2,5 L24,5 L24,19 C24,19.550781 23.550781,20 23,20 L3,20 C2.449219,20 2,19.550781 2,19 L2,5 Z M4.40625,8 L7.90625,11.5 L4.40625,15 L6.9375,15 L10.4375,11.5 L6.9375,8 L4.40625,8 Z M13,13 C12.449219,13 12,13.449219 12,14 C12,14.550781 12.449219,15 13,15 L18,15 C18.550781,15 19,14.550781 19,14 C19,13.449219 18.550781,13 18,13 L13,13 Z" transform="translate(8 10)"/>
</svg>
