<svg xmlns="http://www.w3.org/2000/svg" width="42" height="42" viewBox="0 0 42 42">
  <path d="M1.00013051,0 C0.39856851,0 0.000130509784,0.5 0.000130509784,1 L0.000130509784,11 C0.000130509784,11.601563 0.39856851,12 1.00013051,12 L11.0001305,12 C11.6016935,12 12.0001305,11.601563 12.0001305,11 L12.0001305,1 C12.0001305,0.5 11.6016935,0 11.0001305,0 L1.00013051,0 Z M14.8126305,0 C14.3360685,0.0898438 13.9923185,0.511719 14.0001305,1 L14.0001305,11 C14.0001305,11.550781 14.4493495,12 15.0001305,12 L25.0001305,12 C25.5509115,12 26.0001305,11.550781 26.0001305,11 L26.0001305,1 C26.0001305,0.449219 25.5509115,0 25.0001305,0 L15.0001305,0 C14.9688805,0 14.9376305,0 14.9063805,0 C14.8751305,0 14.8438805,0 14.8126305,0 Z M16.0001305,2 L24.0001305,2 L24.0001305,10 L16.0001305,10 L16.0001305,2 Z M0.81263051,14 C0.33606851,14.089844 -0.00768199022,14.511719 0.000130509784,15 L0.000130509784,25 C0.000130509784,25.550781 0.44934951,26 1.00013051,26 L11.0001305,26 C11.5509115,26 12.0001305,25.550781 12.0001305,25 L12.0001305,15 C12.0001305,14.449219 11.5509115,14 11.0001305,14 L1.00013051,14 C0.96888051,14 0.93763051,14 0.90638051,14 C0.87513051,14 0.84388051,14 0.81263051,14 Z M14.8126305,14 C14.3360685,14.089844 13.9923185,14.511719 14.0001305,15 L14.0001305,19.8125 C13.9727865,19.945313 13.9727865,20.085938 14.0001305,20.21875 L14.0001305,25 C14.0001305,25.550781 14.4493495,26 15.0001305,26 L25.0001305,26 C25.5509115,26 26.0001305,25.550781 26.0001305,25 L26.0001305,15 C26.0001305,14.449219 25.5509115,14 25.0001305,14 L15.0001305,14 C14.9688805,14 14.9376305,14 14.9063805,14 C14.8751305,14 14.8438805,14 14.8126305,14 Z M4.71888051,16 L7.28138051,16 C7.10950551,16.292969 7.00013051,16.636719 7.00013051,17 C7.00013051,18.105469 7.89466151,19 9.00013051,19 C9.36341151,19 9.70716151,18.890625 10.0001305,18.71875 L10.0001305,21.28125 C9.70716151,21.109375 9.36341151,21 9.00013051,21 C7.89466151,21 7.00013051,21.894531 7.00013051,23 C7.00013051,23.363281 7.10950551,23.707031 7.28138051,24 L4.71888051,24 C4.89075551,23.707031 5.00013051,23.363281 5.00013051,23 C5.00013051,21.894531 4.10559951,21 3.00013051,21 C2.63684951,21 2.29309951,21.109375 2.00013051,21.28125 L2.00013051,18.71875 C2.29309951,18.890625 2.63684951,19 3.00013051,19 C4.10559951,19 5.00013051,18.105469 5.00013051,17 C5.00013051,16.636719 4.89075551,16.292969 4.71888051,16 Z M16.0001305,16 L17.5938805,16 L16.0001305,17.5625 L16.0001305,16 Z M20.4063805,16 L22.5626305,16 L16.0001305,22.5625 L16.0001305,20.4375 L20.4063805,16 Z M24.0001305,17.4375 L24.0001305,19.59375 L19.5626305,24 L17.4376305,24 L24.0001305,17.4375 Z M6.00013051,18 C4.89466151,18 4.00013051,18.894531 4.00013051,20 C4.00013051,21.105469 4.89466151,22 6.00013051,22 C7.10559951,22 8.00013051,21.105469 8.00013051,20 C8.00013051,18.894531 7.10559951,18 6.00013051,18 Z M24.0001305,22.40625 L24.0001305,24 L22.4376305,24 L24.0001305,22.40625 Z" transform="translate(8 8)"/>
</svg>
