<svg xmlns="http://www.w3.org/2000/svg" width="42" height="42" viewBox="0 0 42 42">
  <path d="M19.53125,0 L12.875,7.6875 L18.15625,13 L25.90625,6.4375 L19.53125,0 Z M12.375,9.3125 C10.269531,11.417969 7.898438,11.9375 3.84375,11.9375 C3.105469,15.625 0.964844,22.15625 0,25 L6.6875,18.3125 C6.648438,18.179688 6.59375,18.050781 6.59375,17.90625 C6.59375,17.136719 7.230469,16.5 8,16.5 C8.769531,16.5 9.40625,17.136719 9.40625,17.90625 C9.40625,18.675781 8.769531,19.3125 8,19.3125 C7.855469,19.3125 7.726563,19.257813 7.59375,19.21875 L0.90625,25.90625 C3.75,24.941406 10.28125,22.800781 13.96875,22.0625 C13.96875,18.007813 14.488281,15.636719 16.59375,13.53125 L12.375,9.3125 Z" transform="translate(8 8)"/>
</svg>
