<svg xmlns="http://www.w3.org/2000/svg" width="42" height="42" viewBox="0 0 42 42">
  <path d="M23,14 C22.199219,14 21.800781,14.199219 21,14.800781 C19.898438,15.601563 19.300781,16.101563 19,15 C18.699219,14 18.101563,10 18,9.199219 C17.898438,8.5 17.5,8.101563 17,8 C17,8 13.101563,7.199219 12,7 C11,6.800781 10.398438,6.300781 11.199219,5 C11.800781,4.101563 12,3.800781 12,3 C12,1.300781 10.699219,0 9,0 C7.300781,0 6,1.300781 6,3 C6,3.800781 6.300781,4.300781 6.800781,5 C7.699219,6.300781 7.101563,6.800781 6,7 C4.800781,7.300781 1,8 1,8 C0.398438,8.101563 0,8.601563 0,9.199219 C0,9.199219 0,10.800781 0,14.898438 C0,14.898438 0,15 0,15 C0.300781,16 1.101563,15.5 2,14.800781 C2.601563,14.300781 3.300781,14 4,14 C5.699219,14 7,15.300781 7,17 C7,18.699219 5.699219,20 4,20 C3.199219,20 2.699219,19.699219 1.898438,19.199219 C1.300781,18.601563 0.199219,17.898438 0,19 C0,19.101563 0,19.101563 0,19.199219 C0,23.5 0,25 0,25 C0,25.601563 0.398438,26 1,26 L17,26 C17.601563,26 17.898438,25.601563 18,25 C18,25 18.800781,20.101563 19,19 C19.199219,17.898438 19.800781,18.300781 20.898438,19.199219 C21.5,19.601563 22.199219,20 23,20 C24.699219,20 26,18.699219 26,17 C26,15.300781 24.699219,14 23,14 Z" transform="translate(8 8)"/>
</svg>
