<svg xmlns="http://www.w3.org/2000/svg" width="42" height="42" viewBox="0 0 42 42">
  <path d="M21.5,0 C19.566406,0 18,0.671875 18,1.5 C18,2.328125 19.566406,3 21.5,3 C23.433594,3 25,2.328125 25,1.5 C25,0.671875 23.433594,0 21.5,0 Z M18,2.5 L18,4.5 C18,5.300781 19.601563,6 21.5,6 C23.398438,6 25,5.300781 25,4.5 L25,2.5 C25,3.300781 23.398438,4 21.5,4 C19.601563,4 18,3.300781 18,2.5 Z M18,5.5 L18,7.5 C18,8.300781 19.601563,9 21.5,9 C23.398438,9 25,8.300781 25,7.5 L25,5.5 C25,6.300781 23.398438,7 21.5,7 C19.601563,7 18,6.300781 18,5.5 Z M3.5,6 C1.566406,6 0,6.671875 0,7.5 C0,8.328125 1.566406,9 3.5,9 C5.433594,9 7,8.328125 7,7.5 C7,6.671875 5.433594,6 3.5,6 Z M0,8.5 L0,10.5 C0,11.300781 1.601563,12 3.5,12 C5.398438,12 7,11.300781 7,10.5 L7,8.5 C7,9.300781 5.398438,10 3.5,10 C1.601563,10 0,9.300781 0,8.5 Z M18,8.5 L18,10.5 C18,11.300781 19.601563,12 21.5,12 C23.398438,12 25,11.300781 25,10.5 L25,8.5 C25,9.300781 23.398438,10 21.5,10 C19.601563,10 18,9.300781 18,8.5 Z M0,11.5 L0,13.5 C0,14.300781 1.601563,15 3.5,15 C5.398438,15 7,14.300781 7,13.5 L7,11.5 C7,12.300781 5.398438,13 3.5,13 C1.601563,13 0,12.300781 0,11.5 Z M18,11.5 L18,13.5 C18,14.300781 19.601563,15 21.5,15 C23.398438,15 25,14.300781 25,13.5 L25,11.5 C25,12.300781 23.398438,13 21.5,13 C19.601563,13 18,12.300781 18,11.5 Z M12.5,12 C10.566406,12 9,12.671875 9,13.5 C9,14.328125 10.566406,15 12.5,15 C14.433594,15 16,14.328125 16,13.5 C16,12.671875 14.433594,12 12.5,12 Z M0,14.5 L0,16.5 C0,17.300781 1.601563,18 3.5,18 C5.398438,18 7,17.300781 7,16.5 L7,14.5 C7,15.300781 5.398438,16 3.5,16 C1.601563,16 0,15.300781 0,14.5 Z M9,14.5 L9,16.5 C9,17.300781 10.601563,18 12.5,18 C14.398438,18 16,17.300781 16,16.5 L16,14.5 C16,15.300781 14.398438,16 12.5,16 C10.601563,16 9,15.300781 9,14.5 Z M18,14.5 L18,16.5 C18,17.300781 19.601563,18 21.5,18 C23.398438,18 25,17.300781 25,16.5 L25,14.5 C25,15.300781 23.398438,16 21.5,16 C19.601563,16 18,15.300781 18,14.5 Z M0,17.5 L0,19.5 C0,20.300781 1.601563,21 3.5,21 C5.398438,21 7,20.300781 7,19.5 L7,17.5 C7,18.300781 5.398438,19 3.5,19 C1.601563,19 0,18.300781 0,17.5 Z M9,17.5 L9,19.5 C9,20.300781 10.601563,21 12.5,21 C14.398438,21 16,20.300781 16,19.5 L16,17.5 C16,18.300781 14.398438,19 12.5,19 C10.601563,19 9,18.300781 9,17.5 Z M18,17.5 L18,19.5 C18,20.300781 19.601563,21 21.5,21 C23.398438,21 25,20.300781 25,19.5 L25,17.5 C25,18.300781 23.398438,19 21.5,19 C19.601563,19 18,18.300781 18,17.5 Z M0,20.5 L0,22.5 C0,23.300781 1.601563,24 3.5,24 C5.398438,24 7,23.300781 7,22.5 L7,20.5 C7,21.300781 5.398438,22 3.5,22 C1.601563,22 0,21.300781 0,20.5 Z M9,20.5 L9,22.5 C9,23.300781 10.601563,24 12.5,24 C14.398438,24 16,23.300781 16,22.5 L16,20.5 C16,21.300781 14.398438,22 12.5,22 C10.601563,22 9,21.300781 9,20.5 Z M18,20.5 L18,22.5 C18,23.300781 19.601563,24 21.5,24 C23.398438,24 25,23.300781 25,22.5 L25,20.5 C25,21.300781 23.398438,22 21.5,22 C19.601563,22 18,21.300781 18,20.5 Z" transform="translate(9 9)"/>
</svg>
