<svg xmlns="http://www.w3.org/2000/svg" width="42" height="42" viewBox="0 0 42 42">
  <path d="M4,0 C1.804688,0 0,1.800781 0,4 L0,14 C0,16.195313 1.804688,18 4,18 L6.3125,18 L8.0625,22.375 C8.207031,22.765625 8.582031,23.027344 9,23.027344 C9.417969,23.027344 9.792969,22.765625 9.9375,22.375 L11.6875,18 L22,18 C24.195313,18 26,16.195313 26,14 L26,4 C26,1.800781 24.195313,0 22,0 L4,0 Z M4,2 L22,2 C23.117188,2 24,2.882813 24,4 L24,14 C24,15.113281 23.113281,16 22,16 L11,16 C10.589844,15.996094 10.214844,16.242188 10.0625,16.625 L9,19.28125 L7.9375,16.625 C7.785156,16.242188 7.410156,15.996094 7,16 L4,16 C2.886719,16 2,15.113281 2,14 L2,4 C2,2.882813 2.882813,2 4,2 Z" transform="translate(8 9)"/>
</svg>
