<svg xmlns="http://www.w3.org/2000/svg" width="42" height="42" viewBox="0 0 42 42">
  <path d="M21.2088648,17.8362295 C19.6619898,16.5120105 18.0877708,15.7073235 16.5604268,17.0315415 L15.6463648,17.8284165 C14.9783958,18.4104485 13.7362088,21.1213855 8.93542676,15.5940415 C4.13464576,10.0784165 6.99011476,9.21904146 7.66198976,8.64482346 L8.57995876,7.84404146 C10.0994898,6.51982346 9.52527076,4.85185446 8.42761476,3.13310446 L7.76745876,2.09404146 C6.66589576,0.383104457 5.46277076,-0.741895543 3.93933376,0.578416457 L3.11511476,1.30107346 C2.43933376,1.78935446 0.556520762,3.38701046 0.0994897619,6.41826046 C-0.451291238,10.0549795 1.28698976,14.2229485 5.25964576,18.7932605 C9.22839576,23.3674795 13.1190208,25.6643545 16.7987088,25.6252915 C19.8573018,25.5901355 21.7088648,23.9495105 22.2869898,23.3518545 L23.1112088,22.6291985 C24.6346458,21.3088855 23.6893338,19.9612295 22.1385518,18.6370105 L21.2088648,17.8362295 Z" transform="translate(9 8)"/>
</svg>
