<svg xmlns="http://www.w3.org/2000/svg" width="42" height="42" viewBox="0 0 42 42">
  <path d="M10,0 C4.546875,0 0,3.75 0,8.5 C0,10.929688 1.328125,13.046875 3.21875,14.59375 C3.066406,15.574219 2.667969,16.3125 2.25,16.84375 C2.011719,17.144531 1.796875,17.398438 1.59375,17.625 C1.492188,17.738281 1.394531,17.847656 1.28125,18.03125 C1.222656,18.125 1.136719,18.226563 1.09375,18.4375 C1.050781,18.648438 1.109375,18.992188 1.28125,19.25 L1.40625,19.46875 L1.65625,19.59375 C2.53125,20.03125 3.476563,19.953125 4.34375,19.71875 C5.210938,19.484375 6.046875,19.078125 6.84375,18.65625 C7.640625,18.234375 8.402344,17.792969 9,17.46875 C9.082031,17.421875 9.136719,17.414063 9.21875,17.375 C10.796875,19.542969 13.683594,21 16.90625,21 C16.9375,21.003906 16.964844,21 17,21 C18.300781,21 22.5,25.292969 25,23.59375 C25.101563,23.195313 22.800781,22.195313 22.6875,19.21875 C24.644531,17.835938 25.90625,15.777344 25.90625,13.5 C25.90625,10.128906 23.230469,7.339844 19.65625,6.34375 C18.527344,2.664063 14.59375,0 10,0 Z M10,2 C14.546875,2 18,5.050781 18,8.5 C18,11.949219 14.546875,15 10,15 C9.1875,15 8.722656,15.332031 8.0625,15.6875 C7.402344,16.042969 6.644531,16.484375 5.90625,16.875 C5.265625,17.214844 4.65625,17.472656 4.09375,17.65625 C4.640625,16.867188 5.210938,15.828125 5.3125,14.375 L5.34375,13.8125 L4.875,13.46875 C3.09375,12.222656 2,10.421875 2,8.5 C2,5.050781 5.453125,2 10,2 Z" transform="translate(8 9)"/>
</svg>
