<svg xmlns="http://www.w3.org/2000/svg" width="42" height="42" viewBox="0 0 42 42">
  <path d="M7.88968194,0.0089548721 C7.63186994,0.0441111721 7.39358794,0.176923872 7.23343194,0.383954872 L3.82718194,4.66520487 L1.57718194,3.16520487 C1.11233794,2.85270487 0.48343194,2.98161087 0.17093194,3.44645487 C-0.14156806,3.91129887 -0.0126618597,4.54020487 0.45218194,4.85270487 L3.45218194,6.85270487 C3.88968194,7.14176787 4.47561994,7.04801787 4.79593194,6.63395487 L8.79593194,1.63395487 C9.05765094,1.31754887 9.09671294,0.872235872 8.89749494,0.512860872 C8.69436994,0.153485872 8.29593194,-0.0457326279 7.88968194,0.0089548721 Z M12.0146819,3.00895487 L12.0146819,5.00895487 L26.0146819,5.00895487 L26.0146819,3.00895487 L12.0146819,3.00895487 Z M7.88968194,9.00895487 C7.63186994,9.04411087 7.39358794,9.17692387 7.23343194,9.38395487 L3.82718194,13.6652049 L1.57718194,12.1652049 C1.11233794,11.8527049 0.48343194,11.9816109 0.17093194,12.4464549 C-0.14156806,12.9112989 -0.0126618597,13.5402049 0.45218194,13.8527049 L3.45218194,15.8527049 C3.88968194,16.1417679 4.47561994,16.0480179 4.79593194,15.6339549 L8.79593194,10.6339549 C9.05765094,10.3175489 9.09671294,9.87223587 8.89749494,9.51286087 C8.69436994,9.15348587 8.29593194,8.95426787 7.88968194,9.00895487 Z M12.0146819,12.0089549 L12.0146819,14.0089549 L26.0146819,14.0089549 L26.0146819,12.0089549 L12.0146819,12.0089549 Z M7.88968194,18.0089549 C7.63186994,18.0441109 7.39358794,18.1769239 7.23343194,18.3839549 L3.82718194,22.6652049 L1.57718194,21.1652049 C1.11233794,20.8527049 0.48343194,20.9816109 0.17093194,21.4464549 C-0.14156806,21.9112989 -0.0126618597,22.5402049 0.45218194,22.8527049 L3.45218194,24.8527049 C3.88968194,25.1417679 4.47561994,25.0480179 4.79593194,24.6339549 L8.79593194,19.6339549 C9.05765094,19.3175489 9.09671294,18.8722359 8.89749494,18.5128609 C8.69436994,18.1534859 8.29593194,17.9542679 7.88968194,18.0089549 Z M12.0146819,21.0089549 L12.0146819,23.0089549 L26.0146819,23.0089549 L26.0146819,21.0089549 L12.0146819,21.0089549 Z" transform="translate(8 8)"/>
</svg>
