<svg xmlns="http://www.w3.org/2000/svg" width="42" height="42" viewBox="0 0 42 42">
  <path d="M24.9388382,0.00223144182 C24.9075882,0.0100444418 24.8763382,0.0217624418 24.8450882,0.0334814418 C19.8724322,0.814731442 17.3568072,4.68191944 16.6888382,5.78348144 C15.9388382,5.44363744 14.7786822,5.00223144 13.0013382,5.00223144 C11.1849322,5.00223144 10.0169632,5.47488744 9.28258817,5.81473144 C8.60680717,4.77566944 6.26305717,1.47098144 1.09508817,1.00223144 C0.770869169,0.970981442 0.450557169,1.09988744 0.239619169,1.34988744 C0.024775669,1.59988744 -0.049443131,1.93582544 0.032588169,2.25223144 C0.411494169,3.67410644 1.66149417,7.68191944 5.34508817,9.62723144 C5.20446317,10.0373874 4.95446317,10.4983254 4.90758817,10.8147314 C4.82555717,11.3772314 4.80211917,11.6858254 4.72008817,11.8459814 C4.70836917,11.8655124 4.69665117,11.8889504 4.68883817,11.9084814 C3.80993217,13.9983254 3.87243217,15.7600444 4.50133817,17.0334814 C5.13024417,18.3069194 6.22399417,19.0256694 7.18883817,19.3459814 L7.81383817,17.4709814 C8.16930717,16.9358254 8.15368217,16.0412944 7.72008817,15.2522314 C7.32946317,14.5412944 6.68493217,14.1077004 6.09508817,14.0334814 C6.17321317,13.6467624 6.30211917,13.2327004 6.50133817,12.7522314 C6.51305717,12.7248874 6.52086917,12.7170754 6.53258817,12.6897314 C6.81774417,12.0842624 6.80993217,11.5373874 6.87633817,11.0959814 C6.94274417,10.6350444 7.03258817,10.2248874 7.34508817,9.72098144 C7.49352617,9.46707544 7.52477617,9.16238744 7.42711917,8.88504444 C7.32946317,8.61160644 7.11852617,8.38895044 6.84508817,8.28348144 C5.21618217,7.65848144 4.22008817,6.55691944 3.53258817,5.37723144 L4.50133817,4.31473144 C6.91540117,5.62332544 8.12633817,7.50223144 8.12633817,7.50223144 C8.26305717,7.74051244 8.48961917,7.90848144 8.75524417,7.97488744 C9.02086917,8.04129444 9.30211917,7.99441944 9.53258817,7.84598144 C9.53258817,7.84598144 10.8802442,7.00223144 13.0013382,7.00223144 C15.1224322,7.00223144 16.4700882,7.84598144 16.4700882,7.84598144 C16.7005572,7.99441944 16.9818072,8.04129444 17.2474322,7.97488744 C17.5130572,7.90848144 17.7396192,7.74051244 17.8763382,7.50223144 C17.8763382,7.50223144 19.4622762,5.02957544 22.0638382,3.40848144 L22.9388382,4.34598144 C22.1693072,5.74441944 20.9388382,7.04910644 19.0325882,7.78348144 C18.7474322,7.89285644 18.5247762,8.12723144 18.4349322,8.42020044 C18.3411822,8.71316944 18.3919632,9.02957544 18.5638382,9.28348144 C18.8919632,9.75613744 19.0560262,10.2912944 19.1575882,10.8772314 C19.2591512,11.4631694 19.2552442,12.0686374 19.5950882,12.7522314 C19.6068072,12.7639504 19.6146192,12.7717624 19.6263382,12.7834814 C19.8450882,13.1858254 19.9505572,13.5998874 20.0013382,14.0022314 C19.2630572,13.8967624 18.4388382,14.5256694 18.0950882,15.5334814 C17.8489942,16.2600444 17.9232132,16.9827004 18.2200882,17.4709814 C18.2005572,17.4827004 18.1771192,17.4905124 18.1575882,17.5022314 L19.0638382,19.3147314 C21.5638382,18.0647314 22.9505572,14.7483254 21.3763382,11.8459814 L21.4075882,11.8459814 C21.3489942,11.7287944 21.2474322,11.2209814 21.1263382,10.5334814 C21.0560262,10.1311374 20.7786822,9.60770044 20.5950882,9.12723144 C24.2239942,7.28348144 25.7943072,3.78348144 26.0013382,1.09598144 C26.0286822,0.803012442 25.9271192,0.513950442 25.7239942,0.303012442 C25.5169632,0.0920754418 25.2318072,-0.0172995582 24.9388382,0.00223144182 Z M10.0013382,11.9084814 C9.45055717,11.9084814 9.00133817,12.3577004 9.00133817,12.9084814 C9.00133817,13.4592624 9.45055717,13.9084814 10.0013382,13.9084814 C10.5521192,13.9084814 11.0013382,13.4592624 11.0013382,12.9084814 C11.0013382,12.3577004 10.5521192,11.9084814 10.0013382,11.9084814 Z M16.0013382,11.9084814 C15.4505572,11.9084814 15.0013382,12.3577004 15.0013382,12.9084814 C15.0013382,13.4592624 15.4505572,13.9084814 16.0013382,13.9084814 C16.5521192,13.9084814 17.0013382,13.4592624 17.0013382,12.9084814 C17.0013382,12.3577004 16.5521192,11.9084814 16.0013382,11.9084814 Z M13.0013382,13.9084814 C12.4505572,13.9084814 12.0013382,14.1311374 12.0013382,14.4084814 C12.0013382,14.6858254 12.4505572,14.9084814 13.0013382,14.9084814 C13.5521192,14.9084814 14.0013382,14.6858254 14.0013382,14.4084814 C14.0013382,14.1311374 13.5521192,13.9084814 13.0013382,13.9084814 Z" transform="translate(8 11)"/>
</svg>
