<svg xmlns="http://www.w3.org/2000/svg" width="42" height="42" viewBox="0 0 42 42">
  <path d="M5.78125,0.00885769744 C5.621094,0.0362016974 5.472656,0.0987016974 5.34375,0.196357697 C2.132813,2.3057327 0,5.9190137 0,10.0401077 C0,16.2119827 4.769531,21.2822957 10.8125,21.7901077 L10.8125,22.9776077 C8.800781,23.2080767 7.34375,24.0401077 7.34375,24.0401077 C6.984375,24.2588577 6.8125,24.6846387 6.921875,25.0908887 C7.027344,25.4971387 7.394531,25.7822957 7.8125,25.7901077 L15.8125,25.7901077 C16.230469,25.7822957 16.597656,25.4971387 16.703125,25.0908887 C16.8125,24.6846387 16.640625,24.2588577 16.28125,24.0401077 C16.28125,24.0401077 14.824219,23.2080767 12.8125,22.9776077 L12.8125,21.8213577 C14.816406,21.6494827 16.6875,20.9619827 18.28125,19.9151077 C18.628906,19.7432327 18.84375,19.3877637 18.835938,19.0010457 C18.832031,18.6143267 18.601563,18.2666707 18.246094,18.1065137 C17.894531,17.9463577 17.480469,18.0088577 17.1875,18.2588577 C15.695313,19.2432327 13.917969,19.8174517 12,19.8526077 C11.875,19.8291707 11.75,19.8291707 11.625,19.8526077 C6.289063,19.7510457 2,15.4033887 2,10.0401077 C2,6.6065137 3.769531,3.6026077 6.4375,1.8526077 C6.839844,1.6065137 7.015625,1.1104207 6.855469,0.665107697 C6.699219,0.219795697 6.25,-0.0536423026 5.78125,0.00885769744 Z M11.8125,1.0401077 C10.207031,1.0401077 8.707031,1.4697957 7.40625,2.2276077 C7.277344,2.2862017 7.152344,2.3682327 7.03125,2.4463577 C6.871094,2.5518267 6.726563,2.6612017 6.59375,2.7901077 C4.429688,4.3994827 3,6.9619827 3,9.8526077 C3,11.5635457 3.492188,13.1533887 4.34375,14.5088577 C4.375,14.5752637 4.417969,14.6416707 4.46875,14.6963577 C6.050781,17.0752637 8.753906,18.6651077 11.8125,18.6651077 C13.574219,18.6651077 15.214844,18.1572957 16.59375,17.2588577 C16.640625,17.2315137 16.675781,17.1963577 16.71875,17.1651077 C19.0625,15.5791707 20.625,12.8838577 20.625,9.8526077 C20.625,8.1807327 20.160156,6.6260457 19.34375,5.2901077 C19.300781,5.1572957 19.226563,5.0401077 19.125,4.9463577 C19.117188,4.9346387 19.101563,4.9268267 19.09375,4.9151077 C19.074219,4.8916707 19.054688,4.8721387 19.03125,4.8526077 C17.4375,2.5674517 14.796875,1.0401077 11.8125,1.0401077 Z M11.8125,2.6651077 C12.46875,2.6651077 13.117188,2.7510457 13.71875,2.9151077 L12.625,3.6338577 C12.265625,3.3526077 11.894531,3.0987017 11.53125,2.8838577 C11.414063,2.8135457 11.304688,2.7588577 11.1875,2.6963577 C11.390625,2.6807327 11.605469,2.6651077 11.8125,2.6651077 Z M8.71875,3.5713577 C9.253906,3.5635457 9.9375,3.7627637 10.71875,4.2276077 C10.867188,4.3174517 11.035156,4.4346387 11.1875,4.5401077 L7.25,7.0713577 C7.21875,6.8916707 7.175781,6.7119827 7.15625,6.5401077 C7,5.0908887 7.371094,4.1533887 7.9375,3.7901077 C7.945313,3.7862017 7.960938,3.7940137 7.96875,3.7901077 C8.175781,3.6651077 8.410156,3.5752637 8.71875,3.5713577 Z M15.46875,3.6963577 C15.480469,3.6963577 15.488281,3.6963577 15.5,3.6963577 C16.226563,4.1299517 16.875,4.6651077 17.40625,5.3213577 L15.40625,6.6026077 C14.917969,5.9190137 14.417969,5.2744827 13.875,4.7276077 L15.46875,3.6963577 Z M12.46875,5.6338577 C13.007813,6.1612017 13.535156,6.7862017 14.03125,7.4776077 L8.75,10.8838577 C8.324219,10.1455767 7.976563,9.4033887 7.71875,8.6963577 L12.46875,5.6338577 Z M5.5625,6.2901077 C5.570313,6.4268267 5.578125,6.5596387 5.59375,6.6963577 C5.636719,7.1104207 5.742188,7.5401077 5.84375,7.9776077 L4.71875,8.6963577 C4.855469,7.8291707 5.148438,7.0244827 5.5625,6.2901077 Z M18.25,6.6651077 C18.609375,7.3994827 18.875,8.1885457 18.96875,9.0401077 C18.945313,9.0596387 18.925781,9.0791707 18.90625,9.1026077 L17.3125,10.1338577 C17.042969,9.4151077 16.699219,8.6729207 16.28125,7.9463577 L18.25,6.6651077 Z M14.90625,8.8213577 C15.332031,9.5635457 15.679688,10.2979207 15.9375,11.0088577 L11.15625,14.0713577 C10.617188,13.5440137 10.089844,12.9190137 9.59375,12.2276077 L14.90625,8.8213577 Z M6.3125,9.5713577 C6.585938,10.2940137 6.953125,11.0283887 7.375,11.7588577 L5.375,13.0401077 C5.011719,12.2979207 4.746094,11.4932327 4.65625,10.6338577 L6.3125,9.5713577 Z M18.90625,11.0088577 C18.769531,11.8760457 18.476563,12.6807327 18.0625,13.4151077 C18.054688,13.2705767 18.046875,13.1260457 18.03125,12.9776077 C17.988281,12.5752637 17.910156,12.1533887 17.8125,11.7276077 L18.90625,11.0088577 Z M16.375,12.6338577 C16.40625,12.8096387 16.449219,13.0010457 16.46875,13.1651077 C16.625,14.6143267 16.253906,15.5205767 15.6875,15.8838577 C15.121094,16.2471387 14.160156,16.2197957 12.90625,15.4776077 C12.757813,15.3877637 12.589844,15.2705767 12.4375,15.1651077 L16.375,12.6338577 Z M8.21875,13.1026077 C8.710938,13.7901077 9.234375,14.4268267 9.78125,14.9776077 L8.125,16.0401077 C7.398438,15.6104207 6.75,15.0674517 6.21875,14.4151077 L8.21875,13.1026077 Z M11.03125,16.0713577 C11.378906,16.3408887 11.742188,16.5830767 12.09375,16.7901077 C12.230469,16.8721387 12.359375,16.9346387 12.5,17.0088577 C12.277344,17.0283887 12.039063,17.0401077 11.8125,17.0401077 C11.15625,17.0401077 10.507813,16.9541707 9.90625,16.7901077 L11.03125,16.0713577 Z" transform="translate(11 8)"/>
</svg>
