<svg xmlns="http://www.w3.org/2000/svg" width="42" height="42" viewBox="0 0 42 42">
  <path d="M13,0 C6,0 0.1875,5.0625 0.1875,11.4375 C0.1875,14.433594 1.59375,17.070313 3.6875,19.09375 C3.605469,20.253906 3.023438,20.945313 2.21875,21.625 C1.785156,21.988281 1.308594,22.328125 0.875,22.75 C0.441406,23.171875 0,23.742188 0,24.53125 C0,24.988281 0.308594,25.386719 0.75,25.5 C2.628906,26.003906 4.648438,25.632813 6.5,24.96875 C8.164063,24.371094 9.574219,23.484375 10.6875,22.625 C11.441406,22.75 12.203125,22.84375 13,22.84375 C20,22.84375 25.8125,17.808594 25.8125,11.4375 C25.8125,5.066406 20,0 13,0 Z M13,2 C19.046875,2 23.8125,6.289063 23.8125,11.4375 C23.8125,16.585938 19.046875,20.84375 13,20.84375 C12.214844,20.84375 11.460938,20.796875 10.71875,20.65625 C10.421875,20.585938 10.113281,20.65625 9.875,20.84375 C8.972656,21.601563 7.457031,22.515625 5.84375,23.09375 C4.851563,23.449219 3.84375,23.613281 2.90625,23.65625 C3.117188,23.488281 3.28125,23.367188 3.53125,23.15625 C4.539063,22.308594 5.75,20.941406 5.75,18.875 C5.75,18.585938 5.625,18.3125 5.40625,18.125 C3.40625,16.398438 2.1875,14.046875 2.1875,11.4375 C2.1875,6.289063 6.953125,2 13,2 Z" transform="translate(8 8)"/>
</svg>
