<svg xmlns="http://www.w3.org/2000/svg" width="42" height="42" viewBox="0 0 42 42">
  <path d="M15.2949219,0 C14.9941409,0 14.6777349,0.199219 14.5761719,0.5 L8.98242188,17.3125 C8.88085988,17.710938 9.18164087,18 9.48242188,18 L10.3886719,18 C10.6894529,18 10.9746099,17.800781 11.0761719,17.5 L16.6699219,0.6875 C16.7714849,0.289063 16.4707029,0 16.1699219,0 L15.2949219,0 Z M5.04492188,3 C4.90820287,3.023438 4.77148487,3.085938 4.66992188,3.1875 L0.076171875,8.6875 C-0.025390625,8.886719 -0.025390625,9.113281 0.076171875,9.3125 L4.66992188,14.8125 C4.86914088,15.011719 5.18164088,15.105469 5.48242188,14.90625 L6.07617188,14.40625 C6.27539088,14.207031 6.36914087,13.792969 6.16992188,13.59375 L2.29492188,9 L6.07617188,4.40625 C6.27539088,4.207031 6.28320287,3.792969 5.98242188,3.59375 L5.48242188,3.09375 C5.33398487,2.992188 5.18164088,2.976563 5.04492188,3 Z M20.7011719,3 C20.6269529,3.015625 20.5566409,3.042969 20.4824219,3.09375 L19.8886719,3.59375 C19.6894529,3.792969 19.5957029,4.207031 19.7949219,4.40625 L23.5761719,9 L19.7949219,13.59375 C19.5957029,13.792969 19.5878909,14.207031 19.8886719,14.40625 L20.4824219,14.90625 C20.6816409,15.105469 21.0957029,15.113281 21.2949219,14.8125 L25.8886719,9.3125 C25.9902349,9.113281 25.9902349,8.886719 25.8886719,8.6875 L21.2949219,3.1875 C21.1464849,3.039063 20.9199219,2.953125 20.7011719,3 Z" transform="translate(8 12)"/>
</svg>
