<svg xmlns="http://www.w3.org/2000/svg" width="42" height="42" viewBox="0 0 42 42">
  <path d="M0.869408874,0 C0.318627874,0.078125 -0.068091126,0.589844 0.010033874,1.140625 C0.088158874,1.691406 0.599877874,2.078125 1.15065887,2 L4.61940887,2 C5.19362787,2 5.37722187,2.113281 5.52565887,2.25 C5.67409687,2.386719 5.86159687,2.65625 6.02565887,3.21875 C6.36159687,4.355469 10.7131589,19.15625 10.7131589,19.15625 C10.7209719,19.1875 10.7326899,19.21875 10.7444089,19.25 C10.7444089,19.25 11.8537839,22.0000599 14.6506589,22.0000599 L22.4944089,22.0000599 C22.8537839,22.003906 23.1897219,21.816406 23.3733149,21.503906 C23.5530029,21.191406 23.5530029,20.808594 23.3733149,20.496094 C23.1897219,20.183594 22.8537839,19.996094 22.4944089,20 L14.6506589,20 C13.1740969,20 12.5881589,18.5 12.5881589,18.5 C12.5881589,18.496094 12.4436279,18.035156 12.4319089,18 L20.5569089,18 C21.5881589,18 22.0530029,17.136719 22.1506589,16.8125 L25.7444089,9.09375 C26.2990969,7.757813 26.0100339,6 23.9631589,6 L9.46315887,6 C9.29518987,6 9.11159687,6.042969 8.93190887,6.09375 C8.57253387,4.871094 8.00612787,2.902344 7.93190887,2.65625 C7.72097187,1.941406 7.44362787,1.269531 6.86940887,0.75 C6.29518987,0.230469 5.50222187,0 4.61940887,0 L1.15065887,0 C1.11940887,0 1.08815887,0 1.05690887,0 C1.02565887,0 0.994408874,0 0.963158874,0 C0.931908874,0 0.900658874,0 0.869408874,0 Z M9.77565887,8.0625 L13.9944089,8.0625 L13.9944089,9.84375 L10.3381589,9.84375 L9.86940887,8.34375 C9.83815887,8.234375 9.78737787,8.136719 9.77565887,8.0625 Z M15.3069089,8.0625 L17.9944089,8.0625 L17.9944089,9.84375 L15.3069089,9.84375 L15.3069089,8.0625 Z M19.3069089,8.0625 L23.9319089,8.0625 C23.9201899,8.132813 23.9006589,8.195313 23.8694089,8.28125 L23.1506589,9.84375 L19.3069089,9.84375 L19.3069089,8.0625 Z M10.7444089,11.15625 L13.9944089,11.15625 L13.9944089,12.84375 L11.2756589,12.84375 L10.7444089,11.15625 Z M15.3069089,11.15625 L17.9944089,11.15625 L17.9944089,12.84375 L15.3069089,12.84375 L15.3069089,11.15625 Z M19.3069089,11.15625 L22.5256589,11.15625 L21.7444089,12.84375 L19.3069089,12.84375 L19.3069089,11.15625 Z M11.6819089,14.15625 L13.9944089,14.15625 L13.9944089,15.9375 L12.3381589,15.9375 C12.2990969,15.9375 12.2756589,15.925781 12.2444089,15.90625 L11.6819089,14.15625 Z M15.3069089,14.15625 L17.9944089,14.15625 L17.9944089,15.9375 L15.3069089,15.9375 L15.3069089,14.15625 Z M19.3069089,14.15625 L21.1506589,14.15625 L20.3069089,15.9375 L19.3069089,15.9375 L19.3069089,14.15625 Z M14.1506589,22.1875 C13.1506589,22.1875 12.3381589,23 12.3381589,24 C12.3381589,25 13.1506589,25.8125 14.1506589,25.8125 C15.1506589,25.8125 15.9631589,25 15.9631589,24 C15.9631589,23 15.1506589,22.1875 14.1506589,22.1875 Z M20.1506589,22.1875 C19.1506589,22.1875 18.3381589,23 18.3381589,24 C18.3381589,25 19.1506589,25.8125 20.1506589,25.8125 C21.1506589,25.8125 21.9631589,25 21.9631589,24 C21.9631589,23 21.1506589,22.1875 20.1506589,22.1875 Z" transform="translate(8 8)"/>
</svg>
