<svg xmlns="http://www.w3.org/2000/svg" width="42" height="42" viewBox="0 0 42 42">
  <path d="M19.9801316,5.18142302e-05 C19.3863816,-0.00380094295 18.8043506,0.207136057 18.3551316,0.656355057 L17.3551316,1.68760506 L23.9488816,8.31260506 L24.9488816,7.28135506 C25.8512256,6.37901106 25.8590376,4.91416806 24.9488816,4.00010506 L21.6363816,0.687605057 C21.1793506,0.230574057 20.5738816,0.00401105705 19.9801316,5.18142302e-05 Z M16.2301316,2.59385506 L14.6676316,4.09385506 L21.5426316,10.9688551 L23.1363816,9.50010506 L16.2301316,2.59385506 Z M13.6676316,5.18760506 L2.85513159,15.9063551 C2.60513159,16.0352611 2.42544459,16.2618241 2.35513159,16.5313551 L0.0426315898,24.3751051 C-0.0628371102,24.7188551 0.0309125898,25.0977611 0.28481959,25.3516681 C0.53872559,25.6055741 0.91763159,25.6993241 1.26138159,25.5938551 L9.10513159,23.2813551 C9.46841259,23.2266681 9.76919459,22.9727611 9.88638159,22.6251051 L20.5426316,12.0626051 L17.8863816,9.40635506 L17.8551316,9.40635506 L16.0738816,7.59385506 L13.6676316,5.18760506 Z M4.04263159,17.6876051 L4.57388159,18.2188551 L7.16763159,18.4376051 L7.29263159,20.9688551 L7.94888159,21.6251051 L3.73013159,22.8438551 L2.79263159,21.9063551 L4.04263159,17.6876051 Z" transform="translate(8 8)"/>
</svg>
