<svg xmlns="http://www.w3.org/2000/svg" width="42" height="42" viewBox="0 0 42 42">
  <path d="M7,0 C6.398438,0 6,0.398438 6,1 L6,4 C6,4.601563 6.398438,5 7,5 C7.601563,5 8,4.601563 8,4 L8,1 C8,0.398438 7.601563,0 7,0 Z M19,0 C18.398438,0 18,0.398438 18,1 L18,4 C18,4.601563 18.398438,5 19,5 C19.601563,5 20,4.601563 20,4 L20,1 C20,0.398438 19.601563,0 19,0 Z M3,2 C1.300781,2 0,3.300781 0,5 L0,23 C0,24.699219 1.300781,26 3,26 L23,26 C24.699219,26 26,24.699219 26,23 L26,5 C26,3.300781 24.699219,2 23,2 L21,2 L21,4 C21,5.101563 20.101563,6 19,6 C17.898438,6 17,5.101563 17,4 L17,2 L9,2 L9,4 C9,5.101563 8.101563,6 7,6 C5.898438,6 5,5.101563 5,4 L5,2 L3,2 Z M2,9 L24,9 L24,23 C24,23.601563 23.601563,24 23,24 L3,24 C2.398438,24 2,23.601563 2,23 L2,9 Z M9.1875,12.40625 L7,13.40625 L7.3125,14.90625 L8.90625,14.09375 L8.90625,20.90625 L10.8125,20.90625 L10.8125,12.40625 L9.1875,12.40625 Z M16.5,12.40625 L13.3125,17.5 L13.3125,18.8125 L17,18.8125 L17,20.90625 L18.90625,20.90625 L18.90625,18.90625 L19.90625,18.90625 L19.90625,17.40625 L18.90625,17.40625 L18.90625,12.40625 L16.5,12.40625 Z M17.09375,13.8125 C16.992188,14.414063 17,14.90625 17,15.40625 L17,17.1875 L15.1875,17.1875 L16.3125,15.40625 C16.613281,14.804688 16.792969,14.3125 17.09375,13.8125 Z" transform="translate(8 8)"/>
</svg>
