<svg xmlns="http://www.w3.org/2000/svg" width="42" height="42" viewBox="0 0 42 42">
  <path d="M3,0 C1.34375,0 0,1.34375 0,3 L0,26 L24,26 L24,3 C24,1.34375 22.65625,0 21,0 L3,0 Z M3,2 L21,2 C21.550781,2 22,2.449219 22,3 L22,24 L14,24 L14,19 L10,19 L10,24 L2,24 L2,3 C2,2.449219 2.449219,2 3,2 Z M4,4 L4,7 L8,7 L8,4 L4,4 Z M10,4 L10,7 L14,7 L14,4 L10,4 Z M16,4 L16,7 L20,7 L20,4 L16,4 Z M4,9 L4,12 L8,12 L8,9 L4,9 Z M10,9 L10,12 L14,12 L14,9 L10,9 Z M16,9 L16,12 L20,12 L20,9 L16,9 Z M4,14 L4,17 L8,17 L8,14 L4,14 Z M10,14 L10,17 L14,17 L14,14 L10,14 Z M16,14 L16,17 L20,17 L20,14 L16,14 Z M4,19 L4,22 L8,22 L8,19 L4,19 Z M16,19 L16,22 L20,22 L20,19 L16,19 Z" transform="translate(9 8)"/>
</svg>
