<svg xmlns="http://www.w3.org/2000/svg" width="42" height="42" viewBox="0 0 42 42">
  <path d="M16.3157778,0 L6.37827785,9.9375 C6.37827785,9.9375 8.44859085,14.679688 7.40952785,15.71875 C5.44859085,17.683594 3.44468385,17.589844 2.22202785,18.8125 C0.257183847,20.777344 -0.707660153,23.878906 0.597027847,25.1875 C1.90562185,26.496094 5.00718385,25.523438 6.97202785,23.5625 C8.19468385,22.335938 8.84312185,19.597656 10.0657778,18.375 C11.2884338,17.152344 15.8470278,19.40625 15.8470278,19.40625 L25.7845278,9.46875 L16.3157778,0 Z M16.3157778,2.375 L23.4095278,9.46875 C23.4095278,9.46875 21.5267158,11.386719 20.7845278,12.125 C19.7298408,13.179688 18.9603088,13.238281 18.5657778,12.84375 C18.1712468,12.449219 19.2103088,10.863281 18.5970278,10.25 C17.9837468,9.636719 16.5814028,10.828125 16.0345278,10.28125 C15.7142158,9.960938 15.6907778,9.464844 16.0032778,8.8125 C16.3157778,8.160156 16.9485908,6.882813 16.5970278,6.53125 C16.2454658,6.179688 15.2806218,6.703125 14.5657778,7.1875 C14.1126528,7.496094 13.0345278,8.0625 12.5657778,7.59375 C12.1946838,7.222656 12.1868718,6.472656 12.8782778,5.78125 L16.3157778,2.375 Z M9.65952785,8.0625 L17.7220278,16.125 L15.8470278,18 L7.78452785,9.9375 L9.65952785,8.0625 Z M2.97202785,21.5 C3.30796585,21.5 3.65171585,21.617188 3.90952785,21.875 C4.42515285,22.390625 4.42515285,23.234375 3.90952785,23.75 C3.39390285,24.265625 2.55015285,24.265625 2.03452785,23.75 C1.51890285,23.234375 1.51890285,22.390625 2.03452785,21.875 C2.29234085,21.617188 2.63609085,21.5 2.97202785,21.5 Z" transform="translate(8 8)"/>
</svg>
