<svg xmlns="http://www.w3.org/2000/svg" width="42" height="42" viewBox="0 0 42 42">
  <path d="M18.9042969,0 C18.8417969,0.0039063 18.7792969,0.0117188 18.7167969,0.03125 C18.5722659,0.066406 18.4433599,0.144531 18.3417969,0.25 L0.216796875,18.375 C-0.072265625,18.683594 -0.072265625,19.160156 0.216796875,19.46875 L6.37304688,25.625 C6.54882787,25.792969 6.78710988,25.875 7.02929688,25.84375 C7.19335987,25.816406 7.34570287,25.742188 7.46679688,25.625 L25.5917969,7.5 C25.8808599,7.191406 25.8808599,6.714844 25.5917969,6.40625 L19.4355469,0.25 C19.4160159,0.226563 19.3964849,0.207031 19.3730469,0.1875 C19.3613279,0.175781 19.3535159,0.167969 19.3417969,0.15625 C19.2558599,0.097656 19.1621099,0.054688 19.0605469,0.03125 C19.0097659,0.015625 18.9589849,0.0039063 18.9042969,0 Z M18.8730469,1.96875 L23.8730469,6.9375 L6.90429688,23.90625 L1.90429688,18.9375 L3.12304688,17.71875 L4.65429688,19.25 C4.84179688,19.480469 5.14257787,19.589844 5.43554688,19.53125 C5.49023488,19.515625 5.54101587,19.496094 5.59179688,19.46875 C5.61132787,19.460938 5.63476588,19.449219 5.65429688,19.4375 C5.70898487,19.414063 5.76367188,19.378906 5.81054688,19.34375 C5.82226587,19.332031 5.83007787,19.324219 5.84179688,19.3125 C5.88867188,19.277344 5.93164088,19.234375 5.96679688,19.1875 C6.18945287,18.839844 6.10742188,18.378906 5.77929688,18.125 L4.24804688,16.59375 L5.24804688,15.59375 L6.77929688,17.125 C6.96679688,17.355469 7.26757787,17.464844 7.56054688,17.40625 C7.61523487,17.390625 7.66601588,17.371094 7.71679688,17.34375 C7.73632787,17.335938 7.75976588,17.324219 7.77929688,17.3125 C7.83398487,17.289063 7.88867188,17.253906 7.93554687,17.21875 C7.94726587,17.207031 7.95507787,17.199219 7.96679688,17.1875 C8.01367188,17.152344 8.05664087,17.109375 8.09179688,17.0625 C8.31445288,16.714844 8.23242188,16.253906 7.90429688,16 L6.37304688,14.46875 L7.37304688,13.46875 L10.2792969,16.40625 C10.3339849,16.46875 10.3964849,16.519531 10.4667969,16.5625 C10.4863279,16.574219 10.5097659,16.585938 10.5292969,16.59375 C10.5800779,16.621094 10.6308599,16.640625 10.6855469,16.65625 C10.7050779,16.667969 10.7285159,16.679688 10.7480469,16.6875 C10.8496099,16.707031 10.9589849,16.707031 11.0605469,16.6875 C11.1152349,16.671875 11.1660159,16.652344 11.2167969,16.625 C11.2363279,16.617188 11.2597659,16.605469 11.2792969,16.59375 C11.3339849,16.570313 11.3886719,16.535156 11.4355469,16.5 C11.4472659,16.488281 11.4550779,16.480469 11.4667969,16.46875 C11.5136719,16.433594 11.5566409,16.390625 11.5917969,16.34375 C11.8144529,15.996094 11.7324219,15.535156 11.4042969,15.28125 L8.49804688,12.34375 L9.46679688,11.375 L10.9980469,12.875 C11.2050779,13.09375 11.5214849,13.179688 11.8105469,13.09375 C11.9707029,13.042969 12.1152349,12.945313 12.2167969,12.8125 C12.4667969,12.492188 12.4394529,12.039063 12.1542969,11.75 L10.6230469,10.21875 L11.5917969,9.25 L13.1230469,10.75 C13.3300779,10.96875 13.6464849,11.054688 13.9355469,10.96875 C14.0957029,10.917969 14.2402349,10.820313 14.3417969,10.6875 C14.5917969,10.367188 14.5644529,9.914063 14.2792969,9.625 L12.7480469,8.09375 L13.7167969,7.125 L16.6542969,10.03125 C16.7597659,10.152344 16.9042969,10.242188 17.0605469,10.28125 C17.0800779,10.292969 17.1035159,10.304688 17.1230469,10.3125 C17.2246099,10.332031 17.3339849,10.332031 17.4355469,10.3125 C17.4902349,10.296875 17.5410159,10.277344 17.5917969,10.25 C17.6113279,10.242188 17.6347659,10.230469 17.6542969,10.21875 C17.7089849,10.195313 17.7636719,10.160156 17.8105469,10.125 C17.8222659,10.113281 17.8300779,10.105469 17.8417969,10.09375 C17.8886719,10.058594 17.9316409,10.015625 17.9667969,9.96875 C18.1894529,9.621094 18.1074219,9.160156 17.7792969,8.90625 L14.8417969,6 L15.8417969,5 L17.3730469,6.53125 C17.5683599,6.726563 17.8535159,6.8125 18.1230469,6.75 C18.1777349,6.734375 18.2285159,6.714844 18.2792969,6.6875 C18.2988279,6.679688 18.3222659,6.667969 18.3417969,6.65625 C18.3847659,6.628906 18.4277349,6.597656 18.4667969,6.5625 C18.6386719,6.414063 18.7363279,6.203125 18.7441409,5.976563 C18.7480469,5.75 18.6621099,5.53125 18.4980469,5.375 L16.9667969,3.875 L18.8730469,1.96875 Z" transform="translate(8 8)"/>
</svg>
