<svg xmlns="http://www.w3.org/2000/svg" width="42" height="42" viewBox="0 0 42 42">
  <path d="M3,0 C1.300781,0 0,1.300781 0,3 L0,19 C0,20.699219 1.300781,22 3,22 L23,22 C24.699219,22 26,20.699219 26,19 L26,3 C26,1.300781 24.699219,0 23,0 L3,0 Z M2,5 L24,5 L24,19 C24,19.601563 23.601563,20 23,20 L3,20 C2.398438,20 2,19.601563 2,19 L2,5 Z M14,7 L10,18 L12,18 L16,7 L14,7 Z M7.25,8.34375 L3.6875,12.5 L7.25,16.65625 L8.75,15.34375 L6.3125,12.5 L8.75,9.65625 L7.25,8.34375 Z M18.75,8.34375 L17.25,9.65625 L19.6875,12.5 L17.25,15.34375 L18.75,16.65625 L22.3125,12.5 L18.75,8.34375 Z" transform="translate(8 10)"/>
</svg>
