<svg xmlns="http://www.w3.org/2000/svg" width="42" height="42" viewBox="0 0 42 42">
  <path d="M5,0 C2.238281,0 0,2.238281 0,5 C0,7.761719 2.238281,10 5,10 C7.761719,10 10,7.761719 10,5 C10,2.238281 7.761719,0 5,0 Z M15.8125,0 C15.335938,0.089844 14.992188,0.511719 15,1 L15,8 C15,8.550781 15.449219,9 16,9 L23,9 C23.550781,9 24,8.550781 24,8 L24,1 C24,0.449219 23.550781,0 23,0 L16,0 C15.96875,0 15.9375,0 15.90625,0 C15.875,0 15.84375,0 15.8125,0 Z M17,2 L22,2 L22,7 L17,7 L17,2 Z M5,14 C2.238281,14 0,16.238281 0,19 C0,21.761719 2.238281,24 5,24 C7.761719,24 10,21.761719 10,19 C10,16.238281 7.761719,14 5,14 Z M19,14 C16.238281,14 14,16.238281 14,19 C14,21.761719 16.238281,24 19,24 C21.761719,24 24,21.761719 24,19 C24,16.238281 21.761719,14 19,14 Z" transform="translate(9 9)"/>
</svg>
