<svg xmlns="http://www.w3.org/2000/svg" width="42" height="42" viewBox="0 0 42 42">
  <path d="M10,0 C9.300781,0 8.792969,0.292969 8.59375,0.59375 C8.492188,0.695313 8.414063,0.898438 8.3125,1 L7,1 C5.898438,1 5,1.898438 5,3 L3,3 C1.300781,3 0,4.300781 0,6 L0,23 C0,24.699219 1.300781,26 3,26 L17,26 C18.699219,26 20,24.699219 20,23 L20,6 C20,4.300781 18.699219,3 17,3 L15,3 C15,1.898438 14.101563,1 13,1 L11.6875,1 C11.585938,0.898438 11.507813,0.695313 11.40625,0.59375 C11.207031,0.292969 10.699219,0 10,0 Z M7,3 L13,3 L13,5 L7,5 L7,3 Z M3,6 L5.3125,6 C5.613281,6.601563 6.300781,7 7,7 L13,7 C13.699219,7 14.386719,6.601563 14.6875,6 L17,6 L17,23 L3,23 L3,6 Z M13.5625,10.6875 C13.375,10.6875 13.195313,10.757813 13.09375,10.90625 L8.6875,15.59375 L7,14 C6.699219,13.699219 6.199219,13.699219 6,14 L5.3125,14.6875 C5.011719,14.988281 5.011719,15.488281 5.3125,15.6875 L8.09375,18.3125 C8.492188,18.710938 9.101563,18.585938 9.5,18.1875 L14.90625,12.40625 C15.105469,12.207031 15.113281,11.800781 14.8125,11.5 L14.09375,10.90625 C13.945313,10.757813 13.75,10.6875 13.5625,10.6875 Z" transform="translate(11 8)"/>
</svg>
