<svg xmlns="http://www.w3.org/2000/svg" width="42" height="42" viewBox="0 0 42 42">
  <path d="M2,2 L15.160156,14.328125 L9.785156,14.8125 L8.808594,14.902344 L9.214844,15.796875 L12.476563,22.941406 L10.070313,24 L6.957031,16.777344 L6.566406,15.867188 L5.84375,16.546875 L2.027344,20.128906 L2,2 M2,0 C1.730469,0 1.460938,0.0507813 1.203125,0.164063 C0.472656,0.480469 0,1.203125 0,2 L0.027344,20.128906 C0.027344,20.925781 0.503906,21.644531 1.230469,21.960938 C1.488281,22.070313 1.757813,22.125 2.023438,22.125 C2.523438,22.125 3.015625,21.9375 3.394531,21.585938 L5.855469,19.273438 L8.234375,24.789063 C8.445313,25.28125 8.84375,25.664063 9.339844,25.859375 C9.574219,25.953125 9.820313,26 10.070313,26 C10.34375,26 10.617188,25.941406 10.875,25.828125 L13.28125,24.769531 C13.769531,24.554688 14.15625,24.152344 14.34375,23.652344 C14.535156,23.152344 14.519531,22.597656 14.296875,22.109375 L11.796875,16.640625 L15.339844,16.316406 C16.125,16.246094 16.796875,15.722656 17.050781,14.976563 C17.308594,14.230469 17.101563,13.40625 16.527344,12.867188 L3.367188,0.539063 C2.988281,0.183594 2.496094,0 2,0 Z" transform="translate(12 8)"/>
</svg>
