<svg xmlns="http://www.w3.org/2000/svg" width="60" height="60" viewBox="0 0 60 60">
  <g fill="#FFFFFF" transform="translate(15 16)">
    <path d="M21.1677019,18.5426573 C20.7950311,17.7594406 20.3478261,16.9762238 19.826087,16.1734266 C19.4534161,15.6055944 19.0621118,15.0377622 18.6335404,14.4895105 C18.4658385,14.2741259 18.5403727,14 18.6708075,13.8629371 L19.0621118,13.4517483 C20.8509317,11.5328671 22.6956522,9.55524476 24.1118012,7.42097902 C25.621118,5.14965035 26.4596273,2.9958042 26.6645963,0.763636364 C26.6832298,0.548251748 26.5900621,0.313286713 26.4223602,0.176223776 C26.310559,0.0783216783 26.1801242,0.0391608392 26.0310559,0.0391608392 C25.9565217,0.0391608392 25.8819876,0.0587412587 25.8074534,0.0783216783 C24.4285714,0.626573427 23.0496894,1.05734266 21.7639752,1.35104895 C21.5031056,1.40979021 21.2981366,1.62517483 21.2049689,1.86013986 C20.2732919,4.52307692 17.9068323,7.06853147 15.4285714,9.73146853 C15.3354037,9.82937063 15.1863354,9.96643357 14.9627329,9.96643357 C14.7391304,9.96643357 14.5900621,9.84895105 14.4968944,9.73146853 C12.0186335,7.06853147 9.65217391,4.54265734 8.72049689,1.86013986 C8.62732919,1.62517483 8.42236025,1.40979021 8.16149068,1.35104895 C6.89440994,1.03776224 5.49689441,0.587412587 4.11801242,0.0391608392 C4.04347826,0 3.9689441,0 3.89440994,0 C3.76397516,0 3.61490683,0.0391608392 3.50310559,0.137062937 C3.33540373,0.274125874 3.24223602,0.509090909 3.26086957,0.724475524 C3.46583851,2.93706294 4.30434783,5.13006993 5.8136646,7.4013986 C7.22981366,9.53566434 9.07453416,11.5132867 10.863354,13.4321678 C14.1614907,16.9566434 17.2546584,20.2853147 17.5341615,24.1426573 C17.5539165,24.494956 17.8318589,24.7698418 18.1677019,24.7692308 L22.0248447,24.7692308 C22.1925466,24.7692308 22.3602484,24.6909091 22.4906832,24.5538462 C22.6024845,24.4167832 22.6770186,24.2405594 22.6583851,24.0643357 C22.621118,23.3398601 22.5279503,22.6153846 22.3602484,21.8713287 L22.3602484,21.8125874 C22.3602484,21.6559441 22.4720497,21.5384615 22.621118,21.5384615 L22.6583851,21.5384615 C25.8074534,22.027972 27.8012422,22.7916084 27.8198758,23.6531469 C27.8198758,24.4559441 26.0310559,25.6699301 23.1055901,26.5706294 C22.8447205,26.648951 22.6583851,26.9034965 22.6583851,27.1776224 C22.6583851,27.5300699 22.9378882,27.8237762 23.2732919,27.8237762 C23.3291925,27.8237762 23.3664596,27.8237762 23.4037267,27.8041958 C27.3167702,26.8447552 29.9254658,25.2587413 29.9254658,23.4377622 C29.9068323,21.3230769 26.4037267,19.4237762 21.1677019,18.5426573 L21.1677019,18.5426573 Z M10.8074534,16.4671329 C10.7329193,16.3888112 10.5652174,16.2713287 10.3602484,16.2713287 C10.0807453,16.2713287 9.89440994,16.4671329 9.83850932,16.565035 C9.40993789,17.2307692 9.05590062,17.8965035 8.73913043,18.5622378 C3.50310559,19.4237762 0,21.3426573 0,23.4769231 C0,25.2783217 2.57142857,26.8839161 6.50310559,27.8433566 C6.54037267,27.8629371 6.59627329,27.8629371 6.65217391,27.8629371 C6.98757764,27.8629371 7.26708075,27.5692308 7.26708075,27.2167832 C7.26708075,26.9230769 7.08074534,26.6881119 6.81987578,26.6097902 C3.91304348,25.7090909 2.1242236,24.4951049 2.1242236,23.6923077 C2.1242236,22.8307692 4.11801242,22.0671329 7.26708075,21.5776224 L7.30434783,21.5776224 C7.45341615,21.5776224 7.56521739,21.6951049 7.56521739,21.8517483 L7.56521739,21.9104895 C7.39751553,22.634965 7.30434783,23.3594406 7.26708075,24.0839161 C7.26708075,24.2601399 7.32298137,24.4559441 7.43478261,24.5734266 C7.54658385,24.7104895 7.71428571,24.7888112 7.90062112,24.7888112 L11.7391304,24.7888112 C12.0745342,24.7888112 12.3540373,24.5146853 12.3726708,24.1622378 C12.4658385,22.9678322 12.8012422,21.793007 13.4534161,20.5398601 C13.6770186,20.1090909 13.5093168,19.6979021 13.378882,19.5216783 C12.7453416,18.6601399 11.9627329,17.7202797 10.8074534,16.4671329 Z"/>
    <path d="M14.515528,6.42237762 C14.6645963,6.57902098 14.8322981,6.5986014 14.9627329,6.5986014 C15.0745342,6.5986014 15.2608696,6.57902098 15.4099379,6.42237762 C16.7701863,5.03216783 17.4968944,3.40699301 17.6645963,2.95664336 C17.6832298,2.8979021 17.7204969,2.81958042 17.7204969,2.7020979 C17.7204969,2.34965035 17.4409938,2.07552448 17.1428571,2.07552448 C16.9006211,2.07552448 16.1925466,2.15384615 14.9813665,2.15384615 C13.7701863,2.15384615 13.0621118,2.07552448 12.8198758,2.07552448 C12.5217391,2.07552448 12.242236,2.33006993 12.242236,2.7020979 C12.242236,2.8 12.2608696,2.87832168 12.2981366,2.95664336 C12.4099379,3.40699301 13.1552795,5.03216783 14.515528,6.42237762 L14.515528,6.42237762 Z"/>
  </g>
</svg>
