<svg xmlns="http://www.w3.org/2000/svg" width="60" height="60" viewBox="0 0 60 60">
  <path fill="#FFFFFF" d="M40,33.0181269 L40,15 L35.0012248,16.9997123 L35.0012248,26.341102 C33.4821635,25.4601265 31.7562978,24.9970696 29.9995677,24.9991368 C24.4768807,24.9985614 20,29.475615 20,34.9994245 C20,40.5226586 24.4768807,45 29.9995677,45 C35.0461809,45 39.2170142,41.259531 39.8985605,36.4000863 L40,33.0181269 Z M32.2770565,39.4505826 C31.572785,39.8119485 30.7922617,40.000164 30.0004323,39.9995684 C27.239377,39.9995684 25.0007925,37.7610416 25.0007925,34.9994245 C25.0007925,32.2380952 27.239377,29.9992807 30.0001441,29.9992807 C32.7609112,29.9992807 34.9992075,32.2378075 34.9992075,34.9994245 C34.9992075,36.0979715 34.6441694,37.1136527 34.0436017,37.9388577 C34.1332257,38.53388 34.4643449,39.1956553 35.342142,39.7808948 C35.7666316,40.0640196 34.1041195,40.5166163 32.2770565,39.4505826 L32.2770565,39.4505826 Z"/>
</svg>
