<svg xmlns="http://www.w3.org/2000/svg" width="60" height="60" viewBox="0 0 60 60">
  <path fill="#FFFFFF" d="M19.5969702,20.8105414 L22.5154171,20.8105414 C22.6825436,20.8105414 22.8169412,20.6791449 22.8172626,20.5190491 C22.8172626,20.5180149 22.7818554,18.1049434 22.7818554,17.4338959 L22.7818554,17.4259325 C22.7818554,16.8748017 22.9016829,16.3943076 23.1103768,15.9916377 L23.2101171,15.810806 C23.1972807,15.8131357 23.1855615,15.8193906 23.1766918,15.8286462 L17.509817,21.2534937 C17.4994349,21.2617223 17.4920109,21.2729069 17.4886048,21.2854508 C17.6058077,21.2294483 17.7660777,21.1529167 17.7887362,21.1432986 C18.2822416,20.9283379 18.8806295,20.8105414 19.5969702,20.8105414 L19.5969702,20.8105414 Z M42.2912523,20.219852 C42.0595785,19.02265 41.3222398,18.432633 40.6556085,18.2006596 C39.9363753,17.9497084 38.4780356,17.6897596 36.6456433,17.4812628 C35.1714481,17.313669 33.4387424,17.3270103 32.3921126,17.3582434 C32.2664463,16.527669 31.6630231,15.7688688 30.9877677,15.5061793 C29.1885864,14.8071048 26.4089295,14.9759913 25.6951599,15.1690784 C25.1280546,15.3220899 24.5003124,15.6356625 24.1509537,16.1188973 C23.9166552,16.4416744 23.7650629,16.8552035 23.7638844,17.4329134 C23.7638844,17.7598791 23.773312,18.5301073 23.7819362,19.2144444 C23.7905068,19.9009015 23.7998273,20.5148606 23.7998273,20.5190491 C23.7995059,21.1302158 23.2863953,21.6276193 22.6505111,21.628395 L19.7335104,21.628395 C19.1112855,21.628395 18.6358856,21.7293339 18.2727068,21.8886023 C17.9089923,22.0480259 17.6513925,22.2629348 17.4556616,22.5171954 C17.0660747,23.022097 16.9984206,23.6451571 17.0000276,24.2809897 C17.0000276,24.2809897 17.0057592,24.800577 17.1354429,25.8062433 C17.2432717,26.5843832 18.1174184,32.0202968 18.9476944,33.6735856 C19.2696272,34.3167611 19.4840527,34.5846733 20.1165087,34.8682538 C21.5256746,35.4506695 24.7444136,36.0986023 26.2529983,36.2841397 C27.7588511,36.4701424 28.703973,36.8611257 29.2672215,35.7210638 C29.2690964,35.718168 29.3799784,35.4374316 29.532642,35.0255055 C30.0216478,33.5950373 30.0896233,32.3258026 30.0896233,31.4073202 C30.0896233,31.3138793 30.2315737,31.3096391 30.2315737,31.4073202 C30.2315737,32.0557185 30.1032291,34.3504247 31.8988751,34.9659867 C32.6076629,35.2086642 34.0782156,35.425021 35.5723375,35.5940627 C36.9233304,35.7438681 37.9036989,36.2571468 37.9036989,39.6031279 C37.9036989,41.6387643 37.4607601,41.9179494 35.1453078,41.9179494 C33.2683484,41.9179494 32.5529719,41.9648509 32.5529719,40.5253333 C32.5529719,39.3618983 33.7449268,39.48378 34.6283405,39.48378 C35.022909,39.48378 34.7365442,39.200458 34.7365442,38.482716 C34.7365442,37.7686454 35.1991418,37.3559437 34.7616131,37.3454981 C31.7068938,37.2643643 29.9094266,37.342137 29.9094266,41.0301832 C29.9094266,44.3782844 31.2366898,45 35.5722839,45 C38.9715946,45 40.1698703,44.8925972 41.5734117,40.6883249 C41.8513131,39.858371 42.5229796,37.3255896 42.9294399,33.0728645 C43.1866112,30.383969 42.6873207,22.2682093 42.2912523,20.219852 L42.2912523,20.219852 Z M36.3655992,29.190335 C35.9456403,29.1761663 35.5416976,29.201763 35.1650201,29.2601959 C35.2710276,28.4337066 35.6244038,27.4195599 36.8762458,27.4620142 C38.2620032,27.5080366 38.4561806,28.7724106 38.4611087,29.6288402 C37.8768087,29.3773203 37.1534508,29.2170693 36.3655992,29.190335 L36.3655992,29.190335 Z"/>
</svg>
