<svg xmlns="http://www.w3.org/2000/svg" width="60" height="60" viewBox="0 0 60 60">
  <g fill="#FFFFFF" fill-rule="evenodd" transform="translate(15 18)">
    <path d="M6.66474545 22.1857636C6.02056364 22.6434 5.38129091 23.0977636 4.76383636 23.5363091-1.06816364 18.8121273-2.02652727 7.06358182 4.59638182.5454 5.26510909.939218182 5.99874545 1.37067273 6.75747273 1.8174 1.57674545 8.34103636 1.34601818 15.4237636 6.66474545 22.1857636M25.0598182 23.5840909C24.3649091 23.0937273 23.7801818 22.6813636 23.0438182 22.1615455 25.4689091 19.1615455 27.0545455 15.9291818 27.024 12.0259091 26.994 8.20881818 25.5654545 5.001 23.0269091 2.02827273 23.7174545 1.48881818 24.3283636 1.01209091 24.9065455.560454545 30.9692727 5.11390909 31.7154545 17.7128182 25.0598182 23.5840909"/>
    <path d="M9.19609091 3.52456364C9.45245455 3.68001818 9.75736364 3.84910909 10.0459091 4.04329091 10.4157273 4.29256364 10.7719091 4.56147273 11.3102727 4.94874545 9.29427273 6.93147273 7.73045455 9.03474545 7.77518182 11.9943818 7.81772727 14.8269273 8.92663636 17.0556545 11.2824545 19.0056545 10.4768182 19.5854727 9.80372727 20.0687455 9.21409091 20.4931091 3.98045455 17.5651091 3.28063636 7.35747273 9.19609091 3.52456364M18.4332545 4.90058182C18.8156182 4.65785455 19.0398 4.5144 19.2650727 4.37312727 19.7205273 4.08785455 20.1770727 3.80312727 20.6123455 3.53094545 26.0947091 7.0044 26.2507091 16.7593091 20.7148909 20.4902182 20.1225273 20.1411273 19.4565273 19.7489455 18.5827091 19.2345818 23.0805273 14.5300364 23.3870727 9.86258182 18.4332545 4.90058182"/>
    <path d="M14.9968364,8.54770909 C17.0057455,8.61370909 18.4975636,10.2740727 18.3753818,12.3075273 C18.2608364,14.2117091 16.7357455,15.5557091 14.7595636,15.4924364 C12.8472,15.4313455 11.2970182,13.9002545 11.2921091,12.0680727 C11.2877455,10.1535273 13.0446545,8.48389091 14.9968364,8.54770909"/>
  </g>
</svg>
