<svg width="60" height="60" viewBox="0 0 60 60" xmlns="http://www.w3.org/2000/svg">
    <rect fill="transparent" x="0" y="0" width="60" height="60" rx="4.8"></rect>

    <g width="30" height="30" viewBox="0 0 30 30" transform="translate(15, 15)" fill="#FFFFFF">
        <path d="M 207.500 51.326 C 205.850 51.972, 199.325 55.049, 193 58.164 C 179.676 64.724, 177.764 65.567, 165 70.506 C 159.775 72.528, 154.600 74.593, 153.500 75.096 C 152.400 75.598, 142.852 78.865, 132.282 82.356 C 121.712 85.847, 112.374 89.274, 111.532 89.974 C 109.936 91.298, 109.415 98.545, 110.765 100.639 C 111.169 101.266, 113.525 102.318, 116 102.978 C 132.210 107.295, 136.859 109.800, 140.952 116.423 C 146.174 124.871, 146.048 120.722, 145.977 282.798 C 145.941 365.580, 146.283 433.683, 146.738 434.138 C 147.193 434.593, 149.623 435.584, 152.139 436.341 C 157.108 437.837, 159.947 437.022, 166.821 432.127 C 168.464 430.957, 170.108 430, 170.474 430 C 170.840 430, 173.102 428.650, 175.500 427 C 179.736 424.086, 184.617 423.131, 186.550 424.840 C 187.742 425.893, 205.811 431.500, 212.500 432.892 C 225.094 435.514, 230.480 436, 246.917 436 C 270.274 436, 278.985 434.210, 297 425.708 C 332.786 408.819, 361.569 370.941, 368.536 331.568 C 370.213 322.090, 370.455 297.455, 368.947 289.826 C 365.461 272.197, 365.218 271.372, 359.895 259 C 355.578 248.966, 351.039 242.174, 342.915 233.591 C 329.759 219.694, 315.020 211.312, 296.097 206.968 C 288.271 205.171, 262.885 205.418, 256 207.358 C 252.975 208.211, 249.375 209.192, 248 209.538 C 241.237 211.240, 228.466 217.774, 221.198 223.250 C 217.731 225.862, 214.541 228, 214.109 228 C 213.677 228, 213.473 218.888, 213.656 207.750 C 214.458 158.765, 215.122 131.042, 215.975 111 C 216.478 99.175, 217.201 82.241, 217.583 73.368 C 217.964 64.496, 218 56.135, 217.662 54.790 C 217.324 53.444, 215.891 51.816, 214.477 51.171 C 211.463 49.798, 211.400 49.800, 207.500 51.326 M 239.500 243.678 C 233.343 244.205, 227.105 246.011, 220.250 249.253 L 214 252.209 214.017 310.855 C 214.036 371.938, 214.460 379.509, 218.538 391.500 C 221.166 399.227, 226.497 406.482, 232.308 410.241 C 240.245 415.374, 242.385 416, 252 416 C 260.274 416, 262.281 415.605, 269 412.652 C 274.281 410.332, 282.962 403.873, 284.658 401.002 C 285.633 399.351, 286.704 398, 287.038 398 C 288.130 398, 294.438 383.480, 296.161 377 C 299.485 364.501, 300 359.669, 300.001 341 C 300.003 308.287, 296.766 290.072, 287.753 272.081 C 277.701 252.017, 260.485 241.883, 239.500 243.678 " stroke="none" fill="white" fill-rule="evenodd" transform="scale(0.06198347107438017) translate(0 -3)"></path>
    </g>
</svg>