<svg xmlns="http://www.w3.org/2000/svg" width="60" height="60" viewBox="0 0 60 60">
  <path fill="#FFFFFF" fill-rule="evenodd" d="M2.73149474,29.7952418 L2.71015385,29.7952418 C0.857523391,29.1692317 -0.0212929439,27.9515408 0.000419003766,26.0593123 C0.000139984137,26.0398172 0,26.0202878 0,26.0007252 L0,3.9992748 C0,1.79053632 1.78679466,0 3.9992748,0 L26.0007252,0 C28.2094637,0 30,1.78679466 30,3.9992748 L30,26.0007252 C30,28.2094637 28.2132053,30 26.0007252,30 L3.9992748,30 C3.55615558,30 3.12986847,29.9280837 2.73149474,29.7952418 Z M2.73339038,29.7952418 C3.13206965,29.9280639 3.5588765,30 4.00286311,30 L14.5782857,30 C14.0257582,25.0410989 15.5432308,18.7476593 18.0826813,16.5810659 C18.2982857,16.9713956 18.4914725,17.3587582 18.7189451,17.725022 C19.1132308,18.3596374 19.4033407,19.2935934 20.3208132,19.1274396 C21.207956,18.9665604 21.2715824,18.0217253 21.411033,17.273044 C21.8923516,14.6841429 22.3568571,12.0922747 22.825978,9.5013956 C23.0053187,8.50875824 23.1797143,7.51546154 23.3732308,6.42754945 C22.9133407,6.45095604 22.641033,6.43579121 22.3802637,6.48293407 C19.8975165,6.93293407 17.4160879,7.39117582 14.9353187,7.85172527 C13.911033,8.04194505 12.8682857,8.1748022 11.874989,8.47117582 C11.4078462,8.61062637 10.8325714,8.99502198 10.6707033,9.41040659 C10.4046593,10.0921648 11.0597143,10.4613956 11.5865275,10.7696374 C12.1374066,11.0917253 12.7014725,11.3907363 13.4583956,11.8100769 C9.29334066,14.635022 4.75912088,15.2854945 0,15 L0,25.9999798 C0,26.0196456 0.00014165819,26.0392783 0.000424015245,26.0588769 C0.00182734257,25.9373414 0.00694522308,25.8130234 0.0157582418,25.6859011 C0.124879121,24.1120549 0.0371868132,22.525022 0.0371868132,20.7728242 C3.42389011,20.574033 6.75982418,20.6426044 10.2358681,19.4373297 C9.1983956,22.9826044 9.03685714,26.3841429 8.97389011,29.7952418 L2.73339038,29.7952418 Z" transform="translate(15 15)"/>
</svg>
