<svg xmlns="http://www.w3.org/2000/svg" width="60" height="60" viewBox="0 0 60 60">
  <path fill="#FFFFFF" d="M30.1653433,23.8902338 C30.1653433,25.0357227 30.934963,25.4174539 32.747792,26.2355338 L33.8469087,26.726795 C36.42906,27.8722839 40,29.7269131 40,35.1818611 C40,43.9091285 33.4615041,45 28.7914473,45 C25.769471,45 22.582746,44.2908597 20.4398251,43.6369273 L20.4398251,36.1634979 C22.3076694,36.6553496 25.5500045,37.4179263 26.9780236,37.4179263 C28.5713861,37.4179263 29.7802361,37.2003425 29.7802361,35.7817667 C29.7802361,34.6908951 29.0109138,34.2002244 27.3078181,33.4367619 L25.9889375,32.8365612 C23.5168168,31.690777 20,29.7277988 20,24.4364077 C20,16.6904818 26.0986707,15 31.20885,15 C35.055164,15 37.5825973,15.872402 38.9008832,16.3636632 L38.9008832,23.6183278 C37.3622387,23.1276571 34.2311238,22.4728389 32.3629821,22.4728389 C31.0994142,22.4722485 30.1653433,22.7990671 30.1653433,23.8902338 L30.1653433,23.8902338 Z"/>
</svg>
