<svg xmlns="http://www.w3.org/2000/svg" width="60" height="60" viewBox="0 0 60 60">
  <path fill="#FFFFFF" d="M42.7979737,25.5825681 C42.3379295,23.1001467 41.2396214,20.9318589 39.5046965,19.0814541 C38.7750987,18.3029551 37.9490563,17.6187912 37.0461861,17.04521 C35.3591927,15.9719068 33.5214867,15.3142966 31.5286208,15.0813454 C31.2856687,15.0528175 31.0392576,15.0565669 30.7997645,15 L29.0803226,15 C29.06171,15.0428734 29.0218494,15.0272238 28.9902244,15.0301581 C28.5474752,15.0687931 28.1068671,15.1186763 27.6698828,15.2006738 C24.4765865,15.7992719 21.8541864,17.3510297 19.8244247,19.8575776 C18.154891,21.9189263 17.2354614,24.2836494 17.0368172,26.9202847 C16.9400088,28.1913913 17.0343746,29.4696797 17.3168298,30.713362 C17.5255347,31.6417726 17.8430555,32.5428907 18.2629429,33.3984133 C18.3000034,33.4714449 18.3365697,33.5444764 18.374289,33.617508 C19.0675672,34.9685921 19.9593249,36.1726349 21.0769045,37.2125197 C21.6652603,37.7599304 22.2941356,38.2551758 22.9748956,38.6830951 C25.0608245,39.993425 27.3378209,40.6805412 29.8114848,40.7111884 C29.9633505,40.7133076 30.0046935,40.7503124 30.0037052,40.9038744 C29.9967873,42.2142042 29.9997521,43.5246971 30.0000815,44.8351899 C30.0002463,44.8860512 30.0041994,44.9367494 30.0071642,45 C30.0499897,44.9827202 30.0768379,44.9729392 30.1026979,44.9608759 C32.5893743,43.8045971 34.8726297,42.3434766 36.9081564,40.5119817 C37.3128325,40.1472834 37.7016335,39.7656955 38.0735028,39.3682552 C38.23311,39.1982285 38.3913994,39.0252676 38.551336,38.855404 C38.7984059,38.5939249 39.0122038,38.3017986 39.2451083,38.0264631 C39.5140851,37.7089062 39.7555548,37.3712982 39.9937302,37.0315709 C40.5203185,36.2807151 40.9905749,35.4974189 41.3858868,34.6699451 C41.5858487,34.2516438 41.7762573,33.8300821 41.9447589,33.3985763 C41.9503592,33.3904255 41.957936,33.3832527 41.9615597,33.3744498 C42.4207803,32.1929033 42.7151229,30.9702766 42.8717653,29.7158615 C42.9264501,29.2789763 42.9618634,28.8393197 42.9842644,28.3999891 C43.0324343,27.4568791 42.9699197,26.5114221 42.7979737,25.5825681 L42.7979737,25.5825681 Z M26.054375,33.4698147 C25.8311885,33.5298049 25.6035548,33.5642015 25.3760857,33.5971309 C25.2001719,33.6225615 25.0855315,33.5258925 25.0199756,33.3689072 L25.0217875,31.9167527 C25.0303526,31.7742759 24.9723735,31.6215291 25.0876728,31.4958431 C25.1448283,31.4335706 25.2095606,31.3908602 25.2970234,31.369342 C25.5531525,31.3054393 25.8127406,31.254415 26.0459746,31.1166658 C26.4755468,30.8628484 26.7428765,30.4965495 26.8614701,30.019073 C26.8799179,29.9439222 26.8975423,29.8682823 26.9151666,29.7928055 C25.883732,29.7908493 24.8526269,29.7890561 23.8211924,29.787752 C23.7319178,29.787589 23.6439609,29.7844917 23.5569923,29.7606912 C23.2941099,29.6886377 23.0928303,29.4512851 23.0925009,29.1827963 C23.0905243,27.6393523 23.0936538,26.0957453 23.0948068,24.5523013 C23.0732294,24.3056567 23.0949716,24.0744987 23.3044868,23.8982775 C23.4183037,23.8029126 23.5433211,23.7452046 23.6928808,23.7452046 C25.2093959,23.7448786 26.725911,23.7460197 28.2424262,23.7443895 C28.6438324,23.7437374 28.9760591,24.14427 28.8475827,24.5358365 C28.8785488,24.6098462 28.8727839,24.6880943 28.8727839,24.7653643 C28.8731133,26.4472097 28.8826667,28.1297071 28.8696543,29.8115525 C28.8612539,30.9277292 28.4221284,31.8663805 27.5965854,32.6275064 C27.5534305,32.6671195 27.5117581,32.7083628 27.4695915,32.748791 C27.0419958,33.0731946 26.5791515,33.3292941 26.054375,33.4698147 L26.054375,33.4698147 Z M34.4442105,33.3625496 C34.4252684,33.3676031 34.405997,33.3729827 34.3863961,33.3785252 L34.3536182,33.3969462 C34.0600991,33.4791067 33.7639446,33.5472477 33.4612016,33.5909363 C33.2302736,33.6245177 33.0556775,33.4954084 33.0528774,33.2655545 C33.0505714,33.1044938 33.0494184,32.9431071 33.0481007,32.7818834 L33.0565011,31.9159376 C33.0551834,31.852198 33.0528774,31.7889475 33.0530421,31.7255339 C33.0533716,31.5038309 33.1395166,31.4102592 33.4180467,31.3473347 C33.771192,31.2672934 34.1034187,31.1544857 34.3783252,30.9019725 C34.7082458,30.5987611 34.874771,30.2202358 34.9505391,29.7924795 L32.0924343,29.7870999 C31.9888296,29.7869369 31.8850603,29.7884041 31.7812909,29.7866109 C31.3922382,29.7802532 31.1258968,29.5140466 31.1258968,29.1268815 C31.1263909,27.6025105 31.1285322,26.0783025 31.1295205,24.5537684 C31.1295205,24.5390969 31.1278733,24.5244254 31.1268851,24.5097538 C31.0969073,24.2244743 31.179758,23.990708 31.4358872,23.8322556 C31.535374,23.7703092 31.6435906,23.7448786 31.7580663,23.7448786 C33.264534,23.7440635 34.7708369,23.7453676 36.2774692,23.7435744 C36.6787108,23.7430854 37.0107727,24.1436179 36.8824611,24.5351845 C36.9130978,24.6091942 36.9074975,24.6872792 36.9074975,24.7645493 C36.9074975,26.4493289 36.9084858,28.1341086 36.9070034,29.8190512 C36.9056857,31.3241863 35.9526547,32.7326523 34.5479798,33.3108732 C34.5125665,33.3258708 34.4788003,33.3452698 34.4442105,33.3625496 L34.4442105,33.3625496 Z"/>
</svg>
