<svg xmlns="http://www.w3.org/2000/svg" width="60" height="60" viewBox="0 0 60 60">
  <path fill="#FFFFFF" d="M24.2461693,43.0943326 L15.7728916,34.0980929 C14.7423695,33.0113181 14.7423695,30.6565959 15.7728916,29.6301901 L27.9103643,16.7698043 C28.8836421,15.7433986 31.0591751,15.7433986 32.0325144,16.7698043 L44.2271084,29.6301901 C45.2576305,30.716965 45.2576305,33.0717521 44.2271084,34.0980929 L35.7538307,43.0943326 C35.2385696,43.6377201 34.437025,44 33.6354804,44 L26.2500308,44 C25.5057306,44 24.7614304,43.6377201 24.2461693,43.0943326 Z M31.9752085,39.5924664 C32.1470032,39.4113589 32.1470032,39.0490789 31.9752085,38.8679714 L30.3148749,37.1170058 C30.1431418,36.9358334 29.7996754,36.9358334 29.6278807,37.1170058 L27.9675471,38.8679714 C27.795814,39.0490789 27.795814,39.4113589 27.9675471,39.5924664 L29.2843528,40.9207829 L30.6584028,40.9207829 L31.9752085,39.5924664 Z M31.9752085,32.1660848 C32.0896972,32.0453464 32.0896972,31.7434357 31.9752085,31.6226973 L30.2003861,29.7509934 C30.0859589,29.6302551 29.7996754,29.6302551 29.6851866,29.7509934 L24.5324529,35.1849327 C24.3607197,35.3661052 24.3607197,35.7887543 24.5324529,35.9698618 L25.7347697,37.2378091 L27.1088197,37.2378091 L31.9752085,32.1660848 L31.9752085,32.1660848 Z M31.9752085,24.8000074 C32.0896972,24.6792691 32.1470032,24.3169891 31.9752085,24.1962508 L30.2576305,22.3849161 C30.1431418,22.2641777 29.7996754,22.2641777 29.6278807,22.3849161 L20.9828082,31.5018941 C20.868381,31.6226324 20.811075,31.9849123 20.9255638,32.1056507 L22.2996139,33.4944012 L23.6164195,33.4944012 L31.9752085,24.8000074 L31.9752085,24.8000074 Z"/>
</svg>
