<svg xmlns="http://www.w3.org/2000/svg" width="60" height="60" viewBox="0 0 60 60">
  <path fill="#FFFFFF" d="M17.6242004,17 C15.9896303,17.1025548 15,18.0009141 15,19.5987464 L15,29.1677835 C15,36.9399723 23.0292236,43.0479469 29.9749512,42.9997163 C37.7849303,42.9454569 45,36.5962646 45,29.1677835 L45,19.5987464 C45,17.9948853 43.947815,17.0904323 42.3006532,17 L17.6242004,17 L17.6242004,17 Z M23.9499024,24.7842464 L29.9749512,30.2953029 L36.0062622,24.7842464 C38.705609,23.6929 39.8830382,26.6594694 38.7744933,27.5277494 L30.9206787,34.7451569 C30.6639284,34.9803458 29.2923035,34.9803458 29.0355532,34.7451569 L21.1816713,27.5276846 C20.1231567,26.5689722 21.5010437,23.5541723 23.9499024,24.7842464 Z"/>
</svg>
