<svg xmlns="http://www.w3.org/2000/svg" width="60" height="60" viewBox="0 0 60 60">
  <path fill="#FFFFFF" fill-rule="evenodd" d="M29.7003167,15 L31.9051621,15 C35.949331,15.3750336 39.7823562,17.6138797 41.9343406,21.0600054 C45.0438304,25.7663038 44.6143346,32.490014 40.8377746,36.7050333 C39.7898648,37.9200825 37.6453891,37.6125848 37.0047495,36.1390463 C35.9454265,33.8398362 35.1086605,31.4438047 34.1139121,29.1188951 C33.1717244,31.3649132 32.334658,33.6602385 31.3585311,35.8949009 C30.9329397,37.0878366 29.4891729,37.8564314 28.2907894,37.3050871 C27.3822405,36.9674074 26.9563488,36.0413284 26.6133529,35.2126685 C25.271704,31.8487215 23.8961159,28.496429 22.5355451,25.1363668 C23.6360156,25.132482 24.7364861,25.1363668 25.840861,25.132482 C26.9413315,27.83631 28.0342933,30.5476088 29.1425728,33.2475521 C29.9715298,31.2187846 30.7821657,29.1825462 31.5922008,27.1463079 C31.9580232,26.2312857 32.4364755,25.2039027 33.4654635,24.8925202 C34.5998731,24.4687771 35.8285916,25.2714387 36.2583878,26.3137632 C37.3474451,28.7662739 38.255994,31.2976761 39.3150166,33.7615424 C40.3854524,31.9461406 41.0600312,29.8725483 40.9431963,27.7463617 C40.830266,23.0738313 37.023371,18.8136885 32.3685972,18.16881 C26.8320053,17.3362652 21.1935959,21.1125997 19.5993554,26.4001255 C18.0351495,31.0801267 19.8141033,36.5627895 23.771472,39.5101653 C26.6322747,41.8013069 30.5635132,42.5403174 34.0835771,41.5236924 C34.0799729,42.5699017 34.0760684,43.6164098 34.0799729,44.6590332 C33.4204115,44.7749798 32.7644542,44.8986961 32.1048927,45 L29.8510908,45 C26.055609,44.6402068 22.3847711,42.9186381 19.8594557,40.0501539 C17.612862,37.6089988 16.3505046,34.4025361 16,31.1327211 L16,28.9838233 C16.3090568,25.6688847 17.5942405,22.4175972 19.8630598,19.9426741 C22.354436,17.111245 25.9691091,15.4162724 29.7003167,15"/>
</svg>
