<svg xmlns="http://www.w3.org/2000/svg" width="60" height="60" viewBox="0 0 60 60">
  <g fill="#FEFEFE" fill-rule="evenodd" transform="translate(15 17)">
    <path d="M11.8027088,17.329712 L22.720798,25.7238322 C24.541957,26.520767 25.2042417,24.8604529 25.2042417,24.8604529 L29.9393742,0.919234483 C29.9393742,-0.674635249 27.7539437,0.288261303 27.7539437,0.288261303 L1.16450662,10.7480314 C1.16450662,10.7480314 -0.093705298,11.1797709 0.00563245033,11.9767057 C0.104970199,12.7736406 1.13142715,13.138836 1.13142715,13.138836 L7.82013576,15.3968513 L23.8797715,5.16950728 C23.8797715,5.16950728 24.8068907,4.60507816 24.7738113,5.16950728 C24.7738113,5.16950728 24.9394073,5.26912414 24.4427185,5.73403602 C23.9460298,6.19894789 11.8268245,17.1234307 11.8268245,17.1234307 L11.8027088,17.329712 Z"/>
    <path d="M10.953745,24.5916069 C10.953745,24.5916069 10.6347715,24.5616222 10.2374205,23.2996759 C9.84006954,22.0379287 7.82013576,15.3968713 7.82013576,15.3968713 L23.8797715,5.16950728 C23.8797715,5.16950728 24.8068907,4.60507816 24.7738113,5.16950728 C24.7738113,5.16950728 24.9394073,5.26912414 24.4427185,5.73403602 C23.9460298,6.19894789 11.8268245,17.1234307 11.8268245,17.1234307" opacity=".5"/>
    <path d="M15.983394,20.543895 L11.6612086,24.4956958 C11.6612086,24.4956958 11.3233609,24.7527073 10.9537252,24.5916268 L11.7813079,17.251259" opacity=".2"/>
  </g>
</svg>
