<svg xmlns="http://www.w3.org/2000/svg" width="60" height="60" viewBox="0 0 60 60">
  <path fill="#FEFEFE" d="M37.3479859,30.5766167 C37.6434573,34.2978018 31.3694059,35.8533792 32.5890111,37.3418533 C32.5890111,37.3418533 42.4087187,28.7404253 41.968655,36.0607896 C41.968655,36.0607896 41.0570944,34.322203 35.9712151,36.713522 C32.2243869,38.4765097 30.2566734,39.5989656 30.2566734,39.5989656 C29.225667,38.2996009 30.8853358,37.6041663 30.4767053,36.8050266 C30.0240683,35.9265829 29.4016925,36.7318229 29.4016925,36.7318229 C29.4016925,36.7318229 26.2395203,44.369403 18.6641377,44.9672327 C18.3058001,44.9977342 17.8845962,45.0892388 18.0291886,44.7232206 C18.0291886,44.7232206 18.6955708,44.7659227 21.2227939,43.7288711 C27.7545968,41.0447375 27.3773993,35.828978 27.7734567,34.7797258 C27.7734567,34.7797258 26.9561955,32.6690208 28.2072338,29.9726866 C29.0496415,27.8131792 31.2373868,25.6353708 32.7336035,24.4214104 C33.6514507,23.6771734 35.638024,19.608271 34.9527819,19.1019458 C33.1233742,17.7537787 27.6917306,20.7612283 28.5152784,18.6749245 C29.3325396,16.6008213 34.8459093,17.9306875 35.8203361,18.1869002 C36.2101069,18.2906054 36.6690305,17.7415781 37.3857057,17.7720796 C38.6618904,17.820882 39.2402599,18.6139215 39.2402599,18.6139215 C39.2402599,18.6139215 40.6358906,18.6749245 41.4217186,18.7969306 C42.6287506,18.9799397 41.7109034,20.2305019 40.5981708,20.2610034 C37.530298,20.3464077 36.8387693,21.7128757 36.8387693,21.7128757 C36.8387693,21.7128757 33.7520367,26.0135897 37.2599732,27.0018388 C38.2406866,27.2824528 39.2088268,26.9469361 39.9820816,27.2641519 C40.7553364,27.5813677 40.5730243,28.1669968 40.1581071,28.3012035 C39.7683364,28.4293098 39.7369032,28.1242947 38.9259287,28.0449907 C38.1149541,27.9656868 36.2666865,27.8314801 36.2352534,29.0820423 C36.2038202,30.3326045 37.2914063,29.8689815 37.3479859,30.5766167 Z M32.0986544,39.3183516 C32.1489474,39.3183516 33.2931131,38.6900204 34.3115462,38.3240022 C34.3115462,38.3240022 34.4184189,39.0499383 36.1158075,39.0072362 C36.4615718,38.9706343 43.810636,36.9758351 41.5788842,41.9719837 C41.5788842,41.9719837 42.5973174,40.3615035 32.6518774,39.7819747 C31.8346162,39.7392726 32.0986544,39.3183516 32.0986544,39.3183516 Z M33.6200175,17.1010462 C33.0667946,16.0944961 31.4259856,16.2897058 31.4196989,16.2836055 C30.7910365,16.2836055 30.4767053,16.0944961 30.6024377,15.7589794 C30.76589,15.3380585 31.2122403,15.106247 31.7717499,15.026943 C34.0726545,14.6975266 35.4494253,17.4975659 35.4494253,17.4975659 L33.6200175,17.1010462 Z M37.1531005,26.1919756 C37.1090942,25.918872 37.4171388,24.8016301 39.2088268,24.6899059 C40.3341326,24.6154231 40.6484638,25.4347338 39.6866103,25.4968028 C38.7184701,25.5588718 37.9955082,26.2726653 37.9955082,26.2726653 C37.5428713,26.533355 37.1845337,26.409217 37.1531005,26.1919756 Z M34.2298201,43.4648084 C34.1669539,43.4648084 34.1040876,43.4461877 34.047508,43.4027394 C32.9473487,42.5586011 31.3631193,42.5586011 30.112081,43.4027394 C29.961202,43.5020498 29.7663167,43.4710153 29.6783039,43.3344635 C29.5902912,43.1979118 29.6342976,42.999291 29.7851765,42.8999806 C31.2751066,41.8944629 33.1548073,41.8944629 34.4624252,42.8999806 C34.5944443,42.999291 34.6070176,43.1979118 34.4938584,43.3344635 C34.4309921,43.4213601 34.3304061,43.4648084 34.2298201,43.4648084 Z M33.0353615,44.7459765 C32.9724952,44.7459765 32.909629,44.7273558 32.8530493,44.6839075 C32.356406,44.2990797 31.6397308,44.2990797 31.067648,44.6839075 C30.916769,44.7832179 30.7218836,44.7521834 30.6338709,44.6156316 C30.5458581,44.4790798 30.5898645,44.280459 30.7407435,44.1811486 C31.5454314,43.6411484 32.557578,43.6411484 33.2616799,44.1811486 C33.3936991,44.280459 33.4062723,44.4790798 33.2931131,44.6156316 C33.2365334,44.7025282 33.1359474,44.7459765 33.0353615,44.7459765 Z"/>
</svg>
