<svg xmlns="http://www.w3.org/2000/svg" width="360" height="360" viewBox="0 0 360 360">
  <path fill="#FFF" fill-rule="evenodd" d="M229.202872,64.4885403 C290.236666,91.6625361 317.685456,163.169078 290.51146,224.202872 C272.863401,263.84106 236.516725,289.313736 196.483921,294.858146 L100.262258,315.356709 C99.6648943,315.483973 99.0493193,315.501146 98.4457894,315.407383 C95.778547,314.993007 93.9301079,312.549698 94.2275221,309.892682 L94.2563654,309.676815 L100.946303,266.607539 C61.5835778,232.665037 47.2584441,175.726742 69.4885403,125.797128 C96.6625361,64.7633342 168.169078,37.3145445 229.202872,64.4885403 Z M210.875,222.904762 L150.125,222.904762 L150.125,233 L210.875,233 L210.875,222.904762 Z M180.5,127 C158.132468,127 140,145.079168 140,167.380952 C140,189.682737 158.132468,207.761905 180.5,207.761905 C202.867532,207.761905 221,189.682737 221,167.380952 C221,145.079168 202.867532,127 180.5,127 Z M180.5,139.114286 C196.157273,139.114286 208.85,151.769703 208.85,167.380952 C208.85,182.992201 196.157273,195.647619 180.5,195.647619 C164.842727,195.647619 152.15,182.992201 152.15,167.380952 C152.15,151.769703 164.842727,139.114286 180.5,139.114286 Z"/>
</svg>
