<svg xmlns="http://www.w3.org/2000/svg" width="60" height="60" viewBox="0 0 60 60">
  <g fill="#FEFEFE" fill-rule="evenodd" transform="translate(15 17)">
    <path d="M8.4852449 7.89051382C8.48514286 7.8884 8.48504082 7.88639187 8.48493878 7.88438374 7.50146939 7.94124553 6.51810204 7.99842439 5.53473469 8.05486341 4.10004082 8.13730244 4.29279592 7.92021301 4.26963265 9.49247317 4.26402041 9.87866829 4.40402041 10.0400585 4.77912245 10.0167008 5.32146939 9.98298537 5.86493878 9.96987967 6.40810204 9.95096098 7.12473469 9.9259122 7.12636735 9.92718049 7.12667347 10.6533837 7.1274898 12.7290504 7.13667347 14.8047171 7.11963265 16.880278 7.1157551 17.3516602 7.26657143 17.5655789 7.73197959 17.5516276 8.07055102 17.5413756 8.41034694 17.5787902 8.74963265 17.5943268 9.37861224 17.6232862 9.40902041 17.5960179 9.40953061 16.9318553 9.41116327 14.7682537 9.418 12.6045463 9.40371429 10.4410504 9.40085714 9.99757073 9.5302449 9.80278211 9.98340816 9.80996911 10.6449388 9.82053821 11.3072857 9.75701789 11.9691224 9.75934309 12.3940204 9.76071707 12.6073878 9.61465203 12.570449 9.14485528 12.5470816 8.84786341 12.5498367 8.54600976 12.5698367 8.24838374 12.5996327 7.80353008 12.4114694 7.65852195 11.9949388 7.68737561 10.8258571 7.76854634 9.6552449 7.8245626 8.4852449 7.89051382M17.4772857 13.0071236C17.4772857 17.0757008 17.4775918 21.144278 17.4768776 25.212961 17.4766735 25.9476195 17.4563673 25.9660098 16.7518776 25.858839 11.402898 25.045335 6.05493878 24.2242211.703612245 23.4265707.181979592 23.3487821-.00159183673 23.1588553.0000408163265 22.5945707.0183061224 16.1659122.0166734694 9.73714797.00228571429 3.30848943.00106122449 2.79155447.127387755 2.56209919.656877551 2.48726992 3.06555102 2.14641626 5.46820408 1.75979837 7.8735102 1.39347317 10.8500408.940058537 13.8270816.489814634 16.8041224.0399934959 17.4392245-.0559739837 17.4762653-.0235268293 17.4765714.642855285 17.477898 4.76427805 17.4772857 8.88570081 17.4772857 13.0071236M18.5073163 15.9698447C18.5074184 14.4208366 18.5179286 12.8718285 18.5008878 11.3230317 18.4957857 10.8663407 18.6528265 10.7003 19.096398 10.7073813 20.3877245 10.7279911 21.6795612 10.7252431 22.9708878 10.7076984 23.3929286 10.7019911 23.5399694 10.8721537 23.5381327 11.3000967 23.5272143 13.8171293 23.5420102 16.3341618 23.5275204 18.8511943 23.5208878 20.0117878 22.9577245 20.8195846 21.7543571 21.1085439 20.8779286 21.3189748 19.944051 21.2874789 19.0342551 21.3279585 18.6348673 21.3458203 18.496602 21.081487 18.5008878 20.6693976 18.5170102 19.1030561 18.5073163 17.5362919 18.5073163 15.9698447M24.5939898 15.6414203C24.5937857 14.6387293 24.6055204 13.6357211 24.5879694 12.6334528 24.5809286 12.2255911 24.719602 12.0755098 25.1209286 12.0804772 26.564398 12.098339 28.0081735 12.0955911 29.4516429 12.0815341 29.8281735 12.077835 29.9622551 12.2262252 29.9586837 12.6095667 29.9458265 13.9991927 29.9503163 15.3890301 29.9529694 16.7787618 29.9545 17.6370789 29.5035816 18.1992496 28.821949 18.5817455 27.589398 19.2732821 26.2379694 19.2503472 24.894398 19.1973959 24.7884796 19.1931683 24.6123571 18.8770463 24.6076633 18.7019163 24.5801122 17.682526 24.5941939 16.6616561 24.5939898 15.6414203M27.3973265 5.78536992C27.5141633 5.80323171 27.7698776 5.82024797 28.0144694 5.88387398 29.2504898 6.20602033 30.0224286 7.18239431 29.9445714 8.30652439 29.868551 9.40581707 28.9367143 10.3235325 27.721 10.4738252 26.7633469 10.5923049 25.8946735 10.3809228 25.198551 9.64415041 24.3778367 8.7755813 24.3948776 7.47357317 25.2323265 6.62318293 25.7943673 6.05245122 26.4812041 5.7997439 27.3973265 5.78536992M18.5087143 6.78318862C18.5088163 6.2728065 18.4711633 5.75809106 18.5265714 5.25426179 18.5499388 5.04066016 18.7268776 4.74028618 18.9056531 4.66714797 19.9950408 4.22113171 21.0507551 4.32016423 21.9700408 5.11200163 23.0592245 6.05011545 23.0075918 7.64393659 21.8664694 8.52381463 20.9636122 9.22010732 19.9551429 9.32611545 18.9240204 8.88792033 18.7348367 8.80748943 18.5557551 8.48861951 18.5271837 8.25905854 18.4665714 7.77435935 18.5087143 7.27602602 18.5087143 6.78318862"/>
  </g>
</svg>
