<svg xmlns="http://www.w3.org/2000/svg" width="360" height="360" viewBox="0 0 360 360">
  <path fill="#FFF" d="M161.020202 73.7262745C155.502525 73.7262745 152.239899 71.812549 152.239899 63.774902L152.239899 27.7490196 167.305556 26.505098 167.305556 15.9796078 152.239899 15.9796078 152.239899.334901961 135.926768.334901961 135.926768 15.9796078 126.906566 15.9796078 126.906566 26.4572549 135.926768 27.7011765 135.926768 67.3631373C135.926768 82.96 144.419192 88.174902 156.414141 88.174902 160.300505 88.174902 165.290404 87.1223529 169.416667 85.6392157L169.416667 73.0086275C167.113636 73.4392157 165.098485 73.7262745 161.020202 73.7262745zM250.022727 14.64C231.118687 14.64 215.045455 28.4188235 215.045455 51.5270588 215.045455 74.4439216 231.166667 88.2705882 250.022727 88.2705882 268.878788 88.2705882 285 74.8745098 285 51.5270588 285 28.1796078 268.926768 14.64 250.022727 14.64zM250.022727 74.3482353C238.267677 74.3482353 230.590909 64.2054902 230.590909 51.4792157 230.590909 38.6094118 238.267677 28.5145098 250.022727 28.5145098 261.777778 28.5145098 269.454545 38.5615686 269.454545 51.4792157 269.454545 64.4447059 261.777778 74.3482353 250.022727 74.3482353zM29.1717172 14.64C19.479798 14.64 11.1792929 18.2282353 5.32575758 21.2423529L8.01262626 32.8203922C13.0505051 30.6196078 19.1919192 28.1796078 27.2045455 28.1796078 40.3030303 28.1796078 47.260101 34.4470588 47.260101 46.5992157 42.7020202 44.9247059 35.9848485 43.1066667 27.3484848 43.1066667 12.0429293 43.1066667 0 51.0486275 0 66.3584314 0 80.5678431 11.6111111 88.2227451 23.7979798 88.2227451 35.6969697 88.2227451 43.1338384 84.8258824 47.2121212 80.185098L49.3712121 86.8352941 62.9496293 86.8352941 62.9496293 44.6376471C62.9974747 25.6917647 50.1868687 14.64 29.1717172 14.64zM47.260101 59.5168627C47.260101 69.5160784 41.3585859 76.1662745 28.4040404 76.1662745 20.7272727 76.1662745 14.6818182 72.2909804 14.6818182 65.545098 14.6818182 58.2729412 20.7752525 54.1105882 30.9949495 54.1105882 37.0883838 54.1105882 42.7979798 55.4023529 47.3080808 57.3160784L47.3080808 59.5168627 47.260101 59.5168627zM116.494949 31.5764706C113.376263 30.332549 106.035354 28.0360784 99.1742424 28.0360784 93.0808081 28.0360784 90.010101 31.385098 90.010101 34.6862745 90.010101 37.8439216 91.6414141 39.8054902 97.1111111 42.0541176L110.401515 47.3647059C118.078283 50.4266667 124.123737 56.454902 124.123737 65.8321569 124.123737 80.9505882 110.977273 88.2227451 96.1994949 88.2227451 88.6666667 88.2227451 77.1515152 85.3043137 70.7222222 80.854902L73.5530303 68.9898039C82.5732323 72.7694118 91.5934343 74.9223529 96.6792929 74.9223529 103.060606 74.9223529 107.378788 72.0517647 107.378788 67.3152941 107.378788 63.2486275 104.40404 61.0478431 98.4545455 58.7992157L87.0353535 54.4454902C78.7828283 51.3356863 72.1136364 45.0682353 72.1136364 35.2603922 72.1136364 21.0988235 85.4520202 14.5921569 98.3106061 14.5921569 106.707071 14.5921569 115.679293 17.414902 119.517677 18.8980392L116.494949 31.5764706zM194.462121 27.4619608L194.462121 15.9796078 178.868687 15.9796078 178.868687 86.8352941 195.133838 86.8352941 195.133838 54.5890196C195.133838 35.9780392 204.633838 29.5670588 215.909091 29.5670588L215.909091 14.64C208.280303 14.64 198.780303 18.2760784 194.462121 27.4619608zM283.992424 91.4282353C282.984848 93.1984314 267.247475 121.904314 206.169192 121.904314 163.755051 121.904314 111.265152 108.173333 60.790404 108.173333 37.0883838 108.173333 17.8484848 109.273725 2.20707071 113.818824 1.15151515 114.105882 0 113.818824 0 112.957647 0 112.096471 1.05555556 111.522353 1.96717172 110.996078 14.0580808 104.776471 38.479798 96.4517647 70.0025253 96.4517647 127.482323 96.4517647 172.631313 107.36 215.093434 107.36 261.29798 107.36 280.873737 90.3756863 282.409091 89.0839216 284.376263 87.4572549 284.95202 88.5576471 284.95202 89.0839216 285 89.7537255 284.472222 90.7105882 283.992424 91.4282353z" transform="translate(38 119)"/>
</svg>
