<svg xmlns="http://www.w3.org/2000/svg" width="360" height="360" viewBox="0 0 360 360">
  <g fill="#FFF" transform="translate(107 72)">
    <path d="M104.904634,72.9902117 C102.040529,59.818447 96.3080815,50.0815058 87.4276606,50.0815058 C81.6952131,50.0815058 80.2673973,54.0880942 80.2673973,57.239153 C80.2673973,64.1130353 86.5675815,72.9902117 101.464318,72.9902117 L104.904634,72.9902117 Z M107.768739,92.7520942 L102.328634,92.7520942 C78.5472394,92.7520942 59.3501079,78.7248 59.3501079,56.6673883 C59.3501079,41.7760942 69.9506869,29.4598589 85.4193973,29.4598589 C106.336687,29.4598589 118.369318,46.0749178 124.673739,66.1163294 C133.151661,63.2702117 141.811766,55.4518589 147.586582,47.7266822 C148.446661,45.1516236 149.594845,44.0038589 151.026897,44.0038589 C155.039187,44.0038589 160.195424,51.7332706 160.195424,59.471153 C160.195424,66.6245647 145.404608,79.9572706 129.258003,87.5977411 C130.40195,95.6193883 130.973924,103.3488 130.973924,110.222682 C130.973924,182.675859 99.4602921,215.613741 65.9383973,215.613741 C24.1122921,215.613741 2.33916053,173.514918 2.33916053,122.250918 C2.33916053,24.8815058 60.2101869,2.54032942 62.5023185,1.68056471 C63.3623973,1.3968 64.5063448,1.1088 65.6545291,1.1088 C71.95895,1.1088 75.6831342,9.69797647 75.6831342,16.0000941 C75.6831342,19.7271529 74.53495,22.5902118 71.95895,22.5902118 C71.3827394,22.5902118 71.0988709,22.5902118 70.5226606,22.3022118 C60.4982921,28.0283294 25.2562394,46.0749178 25.2562394,119.387859 C25.2562394,171.223624 46.4616342,194.136565 66.7984764,194.136565 C90.5798709,194.136565 108.340713,163.782212 108.628818,110.222682 C108.628818,104.784565 108.340713,98.7662117 107.768739,92.7520942 L107.768739,92.7520942 Z"/>
    <path d="M41.5229874 143.084435C39.5317665 143.349948 38.1387486 145.268496 38.5068734 147.281258 43.2130152 173.078873 54.8465979 184.8 66.120422 184.8 79.3101687 184.8 89.4409757 171.323059 93.661862 143.084435 94.0216203 140.690533 92.5710305 136.519405 90.2284178 136.814895 74.7253409 138.784833 57.0595304 141.045978 41.5229874 143.084435M52.8656716 118.797451C52.8656716 123.437208 49.0981996 127.2 44.4526714 127.2 39.8071433 127.2 36.0447761 123.437208 36.0447761 118.797451 36.0447761 114.157693 39.8071433 110.4 44.4526714 110.4 49.0981996 110.4 52.8656716 114.157693 52.8656716 118.797451M98.5223881 114C98.5223881 118.641166 94.7560588 122.4 90.1119403 122.4 85.4678218 122.4 81.7014925 118.641166 81.7014925 114 81.7014925 109.358834 85.4678218 105.6 90.1119403 105.6 94.7560588 105.6 98.5223881 109.358834 98.5223881 114"/>
  </g>
</svg>
