<svg xmlns="http://www.w3.org/2000/svg" width="360" height="360" viewBox="0 0 360 360">
  <path fill="#FFF" fill-rule="evenodd" d="M219.455995,194.858925 C222.153178,194.858925 224.85036,194.318601 227.277825,192.967789 C238.336273,187.564544 251.552467,192.157303 256.946832,202.963794 C262.341197,214.040447 257.755987,227.278399 246.967257,232.681645 C235.908809,238.08489 222.692614,233.492132 217.298249,222.68564 C215.949658,219.984017 215.140503,217.282395 215.140503,214.31061 C214.870785,211.608987 214.06163,208.907364 212.713039,206.475903 C208.667265,199.451684 199.496845,197.020224 192.48417,201.072658 C185.471496,205.125092 183.044031,214.31061 187.089805,221.334829 C188.438396,223.766289 190.326424,225.657425 192.48417,227.278399 C202.733464,234.032456 205.430646,247.810732 198.68769,258.076899 C191.944734,268.343066 178.189103,271.044688 167.939809,264.290631 C157.690516,257.536574 154.993333,243.758298 161.73629,233.492132 C163.354599,231.060671 165.512345,228.899373 167.939809,227.278399 C170.097555,225.657425 171.985583,223.766289 173.334174,221.334829 C177.379948,214.31061 174.952484,205.125092 167.939809,201.072658 C160.927135,197.020224 151.756714,199.451684 147.71094,206.475903 C146.362349,208.907364 145.553194,211.608987 145.283476,214.31061 C144.474321,226.467912 133.685591,235.65343 121.54827,234.842943 C109.410949,234.032456 100.240528,223.225965 101.049683,211.068662 C101.858838,198.91136 112.647568,189.725842 124.784889,190.536329 C127.75179,190.806491 130.448972,191.616978 133.146155,192.967789 C135.573619,194.048439 138.270802,194.858925 140.967984,194.858925 C149.059532,194.858925 155.802488,188.104868 155.802488,180 C155.802488,171.895132 149.059532,165.141075 140.967984,165.141075 C138.270802,165.141075 135.573619,165.681399 133.146155,167.032211 C122.087707,172.435456 108.871512,167.842697 103.477147,157.036206 C98.0827821,146.229715 102.667992,132.721601 113.456722,127.318355 C124.245453,121.91511 137.731365,126.507868 143.12573,137.31436 C144.474321,140.015983 145.283476,142.717605 145.283476,145.68939 C145.553194,148.391013 146.362349,151.092636 147.71094,153.524097 C151.756714,160.548316 160.927135,162.979776 167.939809,158.927342 C174.952484,154.874908 177.379948,145.68939 173.334174,138.665171 L173.334174,138.665171 C171.985583,136.233711 170.097555,134.342575 167.939809,132.721601 C157.690516,125.967544 154.993333,112.189268 161.73629,101.923101 C168.479246,91.6569343 182.234877,88.9553115 192.48417,95.7093685 C202.733464,102.463426 205.430646,116.241702 198.68769,126.507868 C197.06938,128.939329 194.911634,131.100627 192.48417,132.721601 C190.326424,134.342575 188.438396,136.233711 187.089805,138.665171 C183.044031,145.959553 185.471496,155.14507 192.753888,159.197504 C200.036281,163.249939 209.206702,160.818478 213.252476,153.524097 C214.601067,151.092636 215.410222,148.391013 215.67994,145.68939 C216.758813,133.532088 227.277825,124.34657 239.684864,125.427219 C251.822186,126.507868 260.992606,137.044197 259.913733,149.471662 C258.83486,161.628965 248.315848,170.814482 235.908809,169.733833 C232.941908,169.463671 229.975007,168.653184 227.547543,167.302373 C225.120079,166.221724 222.422896,165.411237 219.725714,165.411237 C211.634166,165.411237 204.89121,172.165294 204.89121,180.270162 C204.89121,188.375031 211.364448,194.858925 219.455995,194.858925 L219.455995,194.858925 Z"/>
</svg>
