<svg xmlns="http://www.w3.org/2000/svg" width="360" height="360" viewBox="0 0 360 360">
  <defs>
    <linearGradient id="google-play-console-white-a" x1="50.011%" x2="50.011%" y1="99.977%" y2="-.007%">
      <stop offset="0%" stop-color="#FFF" stop-opacity="0"/>
      <stop offset="100%" stop-color="#FFF" stop-opacity=".1"/>
    </linearGradient>
  </defs>
  <g fill="none" fill-rule="evenodd" transform="translate(87 81)">
    <g fill-rule="nonzero">
      <path fill="#37474F" d="M172.975,88.3175227 L20.0785256,2.76555891 C13.5455128,-0.901812689 7.73173077,-0.541087613 4.07564103,2.94592145 C1.61826923,5.29063444 0.119871795,9.07824773 0.119871795,14.1283988 L0.119871795,184.931722 C0.119871795,189.981873 1.61826923,193.709366 4.07564103,196.114199 C7.73173077,199.601208 13.5455128,199.961934 20.0785256,196.294562 L172.975,110.742598 C183.883333,104.49003 183.883333,94.4498489 172.975,88.3175227 Z"/>
      <path fill="url(#google-play-console-white-a)" d="M172.975,88.3175227 L20.0785256,2.76555891 C13.5455128,-0.901812689 7.73173077,-0.541087613 4.07564103,2.94592145 C1.61826923,5.29063444 0.119871795,9.07824773 0.119871795,14.1283988 L0.119871795,184.931722 C0.119871795,189.981873 1.61826923,193.709366 4.07564103,196.114199 C7.73173077,199.601208 13.5455128,199.961934 20.0785256,196.294562 L172.975,110.742598 C183.883333,104.49003 183.883333,94.4498489 172.975,88.3175227 Z"/>
      <path fill="#FFF" d="M173.034936,89.4598187 L20.0785256,3.90785498 C9.11025641,-2.2244713 0.119871795,2.8858006 0.119871795,15.2706949 L0.119871795,14.1283988 C0.119871795,1.74350453 9.05032051,-3.30664653 20.0785256,2.76555891 L173.034936,88.3175227 C178.788782,91.5640483 181.485897,95.8326284 181.246154,100.041088 C180.946474,96.1933535 178.249359,92.3456193 173.034936,89.4598187 Z" opacity=".1"/>
    </g>
    <path fill="#FFF" fill-rule="nonzero" d="M20.0785256,2.76555891 C13.5455128,-0.901812689 7.73173077,-0.541087613 4.07564103,2.94592145 C1.61826923,5.29063444 0.119871795,9.07824773 0.119871795,14.1283988 L0.119871795,184.931722 C0.119871795,189.981873 1.61826923,193.709366 4.07564103,196.114199 C7.73173077,199.601208 13.5455128,199.961934 20.0785256,196.294562 L172.975,110.742598 C191.734936,100.041088 191.734936,86.8746224 182.744551,80.6821752 C182.344979,80.4016113 128.12297,54.4294058 20.0785256,2.76555891 Z"/>
    <g transform="translate(26 27)">
      <path fill="#7DA1B3" fill-rule="nonzero" d="M0.0599358974,0.480966767 L0.0599358974,120.482175 C0.0599358974,124.209668 3.17660256,127.275831 7.0125,127.275831 L69.0461538,127.275831 L133.956731,91.0229607 L133.956731,0.480966767 L0.0599358974,0.480966767 L0.0599358974,0.480966767 Z"/>
      <polygon fill="#FFF" fill-opacity=".623" fill-rule="nonzero" points=".06 .481 133.897 .481 133.897 25.852 .06 25.852"/>
      <path fill="#FFF" fill-opacity=".639" fill-rule="nonzero" d="M0.0599358974,120.482175 L0.0599358974,0.480966767 L133.956731,0.480966767 L133.956731,91.0229607 L69.0461538,127.275831 L7.0125,127.275831 C3.17660256,127.275831 0.0599358974,124.209668 0.0599358974,120.482175 Z M105.335542,40.6933958 C100.24099,40.6933958 96.0454776,44.6613716 96.0454776,49.591281 C96.0454776,50.7936979 96.2852212,51.9961148 96.7647083,53.07829 L81.1214391,68.1085015 C78.7839391,67.146568 76.2066955,67.146568 73.8691955,68.1085015 L67.5159904,61.9761752 C67.9954776,60.894 68.2352212,59.7517039 68.2352212,58.4891662 C68.2352212,53.5592568 64.0996442,49.591281 58.9451571,49.591281 C53.8506058,49.591281 49.6550929,53.5592568 49.6550929,58.4891662 C49.6550929,59.6915831 49.8948365,60.894 50.3743237,61.9761752 L34.7310545,77.0063867 C33.5922724,76.5254199 32.3336186,76.2849366 31.1349006,76.2849366 C26.0403494,76.2849366 21.8448365,80.2529124 21.8448365,85.1828218 C21.8448365,90.1127311 25.9804135,94.0807069 31.1349006,94.0807069 C36.2294519,94.0807069 40.4249647,90.1127311 40.4249647,85.1828218 C40.4249647,83.9804048 40.1852212,82.7779879 39.705734,81.6958127 L55.3490032,66.6656012 C57.6865032,67.6275347 60.2637468,67.6275347 62.6012468,66.6656012 L68.9544519,72.7979275 C68.4749647,73.8801027 68.2352212,75.0223988 68.2352212,76.2849366 C68.2352212,81.2148459 72.3707981,85.1828218 77.5252853,85.1828218 C82.6198365,85.1828218 86.8153494,81.2148459 86.8153494,76.2849366 C86.8153494,75.0825196 86.5756058,73.8801027 86.0961186,72.7979275 L101.739388,57.767716 C102.87817,58.2486828 104.076888,58.4891662 105.335542,58.4891662 C110.430093,58.4891662 114.625606,54.5211903 114.625606,49.591281 C114.625606,44.6613716 110.490029,40.6933958 105.335542,40.6933958 Z"/>
      <polygon fill="#FFF" fill-rule="nonzero" points=".06 .481 133.897 .481 133.897 3.968 .06 3.968" opacity=".15"/>
    </g>
  </g>
</svg>
