<svg xmlns="http://www.w3.org/2000/svg" width="60" height="60" viewBox="0 0 60 60">
  <path fill="#FFFFFF" d="M25.6842187,0 L17.3545313,0 C17.2682813,0 17.1850781,0.0322304147 17.1201562,0.0903410138 L15.234375,1.45947465 C15.1002261,1.57964006 14.8997739,1.57964006 14.765625,1.45947465 L12.8800781,0.0903410138 C12.8152689,0.0321376 12.7319637,2.71958012e-05 12.6457031,-4.03322679e-17 L4.31601562,-4.03322679e-17 C4.21757812,-4.03322679e-17 4.12265625,0.0413364055 4.05539062,0.11478341 C1.55308594,2.84334562 0.0158203125,6.50802765 0.0001171875,10.5395853 C-0.0319921875,18.9081106 6.6009375,25.819318 14.7853125,25.9364977 C23.1678516,26.0561935 30,19.1446267 30,10.60153 C30,6.54529032 28.4595703,2.85736406 25.9444922,0.11478341 C25.8769727,0.041397362 25.7827616,-0.000150742053 25.6842187,0 Z M22.4513672,3.947447 C23.9724609,5.72599078 24.8958984,8.05293088 24.8958984,10.60153 C24.8958984,16.3713733 20.1718359,21.0129124 14.4631641,20.7045069 C9.37265625,20.42953 5.28691406,16.1693641 5.11042969,10.9606175 C5.01925781,8.272553 5.95605469,5.8102212 7.5478125,3.94804608 C7.66992188,3.80510599 7.66101562,3.58967742 7.53011719,3.45548387 L4.46707031,0.313677419 L14.5543359,7.71445161 C14.8146491,7.92838607 15.185468,7.92838607 15.4457813,7.71445161 L25.52625,0.320626728 L22.47,3.45512442 C22.3394531,3.58931797 22.3296094,3.80486636 22.4513672,3.94756682 L22.4513672,3.947447 Z" transform="translate(15 17)"/>
</svg>
