<svg xmlns="http://www.w3.org/2000/svg" width="360" height="360" viewBox="0 0 360 360">
  <path fill="#FFF" fill-rule="evenodd" d="M211.229,161.682 C206.649,158.41 203.586,152.704 203.586,146.489 C203.586,144.62 204.606,140.961 205.297,138.602 C205.64,137.433 205.708,136.849 207.034,136.578 C213.502,135.265 216.336,135.469 216.87,134.695 C218.62,131.776 219.323,127.883 219.323,127.883 L169.425,111.952 C169.425,111.952 172.565,120.06 174.214,120.774 L196.899,130.847 C196.899,130.847 185.234,133.404 178.803,135.349 L177.281,135.824 C177.281,135.824 179.757,139.975 183.572,142.311 C187.787,141.105 195.534,139.114 195.534,139.114 C184.591,160.645 162.089,174.719 137.63,174.719 C136.506,174.719 131.839,174.657 128.909,174.901 C126.371,175.118 125.146,177.215 127.639,178.321 C132.106,180.721 135.342,184.731 136.787,189.422 C137.697,192.338 136.098,194.093 134.092,195.692 C129.697,199.081 118.48,207.465 107.443,215.683 C106.147,213.234 104.937,210.76 103.843,208.286 C93.896,185.798 89.061,154.56 89.061,112.788 L89.061,112.416 L175.21,84.766 L261.354,112.402 L261.354,112.788 C261.354,127.94 260.694,141.957 259.394,154.451 L259.278,155.554 L273.397,155.554 L273.488,154.654 C274.766,141.929 275.414,127.844 275.414,112.789 L275.414,102.146 L175.21,70 L75,102.161 L75,112.789 C75,156.557 80.229,189.654 90.985,213.974 C92.505,217.408 94.201,220.824 96.036,224.167 C87.277,230.675 80.559,235.652 80.559,235.652 C82.562,239.148 84.831,242.513 84.831,242.513 L139.918,203.134 C169.579,183.17 204.231,172.619 240.137,172.619 L256.865,172.619 C254.442,186.314 250.988,198.299 246.571,208.286 C241.544,219.65 234.798,230.151 226.521,239.498 C219.841,247.047 212.137,253.882 203.621,259.816 C189.141,269.907 176.7,274.207 175.31,274.672 L175.208,274.707 L174.942,274.615 C173.587,274.164 161.28,269.921 146.749,259.788 C138.241,253.856 130.544,247.022 123.872,239.477 C121.764,237.094 119.66,234.487 117.443,231.504 L116.856,230.715 L105.432,238.906 L106.036,239.722 C108.551,243.115 110.94,246.082 113.34,248.793 C120.753,257.173 129.288,264.753 138.708,271.322 C154.525,282.349 167.968,287.113 170.489,287.951 C170.595,287.988 173.089,288.854 174.338,289.203 C174.661,289.294 174.99,289.368 174.99,289.368 L175.202,289.414 L175.416,289.369 C175.416,289.369 175.763,289.295 176.09,289.203 C177.337,288.853 179.831,287.985 179.923,287.953 C182.448,287.114 195.845,282.37 211.659,271.35 C221.091,264.779 229.634,257.198 237.051,248.818 C246.288,238.384 253.817,226.661 259.429,213.974 C264.643,202.186 268.482,188.621 271.133,172.619 L283.115,172.619 C283.59,169.6 284.386,164.594 284.386,164.594 L240.137,164.594 C221.271,164.237 215.81,164.954 211.229,161.682"/>
</svg>
