<svg xmlns="http://www.w3.org/2000/svg" width="360" height="360" viewBox="0 0 360 360">
  <path fill="#FFF" d="M267.708441,205.715734 C267.902634,208.224061 268.000742,210.751771 268.000004,213.293546 L268.000004,213.283597 C268.009544,246.149081 251.493141,276.663081 224.422169,293.33028 C196.984512,310.22324 163.015488,310.22324 135.577831,293.33028 C108.506859,276.663081 91.9904557,246.149081 92.0000041,213.293546 C91.9904557,180.428062 108.506859,149.914062 135.577831,133.246864 C163.015488,116.353903 196.984512,116.353903 224.422169,133.246864 C227.577688,135.189671 230.589799,137.320618 233.449045,139.621501 L233.411506,54.0150091 L267.641913,54 L267.708441,205.715734 Z M233.76922,213.521469 L233.48145,213.521595 L233.478672,207.187031 C231.679478,188.460286 221.645116,171.734176 206.475294,162.39434 C190.042851,152.277127 169.957149,152.277127 153.524706,162.39434 C136.72558,172.737314 126.224296,192.138402 126.230439,213.293546 C126.224296,234.438741 136.72558,253.839829 153.524706,264.182803 C169.957149,274.300016 190.042851,274.300016 206.475294,264.182803 C223.214043,253.877002 233.700139,234.578081 233.76922,213.521469 Z"/>
</svg>
