<svg xmlns="http://www.w3.org/2000/svg" width="360" height="360" viewBox="0 0 360 360">
  <path fill="#FFF" d="M151.166394,38.5863984 C154.208179,42.9938784 155.943942,48.1705258 156.173994,53.5207979 C166.91426,57.3222456 173.358229,68.3037959 171.438578,79.5340784 C169.518926,90.7643609 159.793149,98.9819309 148.399994,99.0000244 L31.3999987,99.0000244 C23.1753352,99.0110642 15.2812573,95.7633112 9.44559947,89.9675965 L59.0847976,50.676398 C60.9047976,51.6487979 62.9847975,52.1999979 65.1999974,52.1999979 C67.1165533,52.2027999 69.0098304,51.7800982 70.7431972,50.9623979 L94.4031964,71.6635972 C92.6773485,77.1116656 94.7118765,83.0479201 99.4167724,86.2919846 C104.121668,89.5360491 110.393409,89.3270354 114.871881,85.7769236 C119.350352,82.2268119 120.985139,76.1682729 118.900395,70.8471972 L151.166394,38.5863984 L151.166394,38.5863984 Z M143.813595,31.2335987 L111.552796,63.4943975 C110.038624,62.9008922 108.426329,62.5974844 106.799996,62.5999975 C104.88344,62.5971955 102.990163,63.0198972 101.256796,63.8375975 L77.596797,43.1363982 C79.265778,37.8647568 77.4173888,32.1142382 72.9894023,28.8023451 C68.5614158,25.490452 62.5229573,25.3420375 57.9376148,28.4323991 C53.3522723,31.5227607 51.2236107,37.1755305 52.6315979,42.5227983 L3.36159969,81.5175968 C-1.3989549,71.7941977 -0.778640158,60.2979571 5.00053964,51.1432615 C10.7797194,41.9885659 20.8915832,36.4841541 31.7171987,36.5999985 C34.1734027,17.010109 50.0593561,1.84411747 69.7420313,0.298476353 C89.4247064,-1.24716476 107.483246,11.2532336 112.967196,30.2195987 C117.391206,27.5803171 122.44853,26.1910807 127.599995,26.1999989 C133.616395,26.1999989 139.201195,28.0615988 143.813595,31.2335987 Z" transform="translate(94 131)"/>
</svg>
