<svg xmlns="http://www.w3.org/2000/svg" width="360" height="360" viewBox="0 0 360 360">
  <path fill="#FFF" d="M192.825782,93 C217.471418,93 234.835389,101.392283 251.639231,115.379421 C253.319616,117.057878 253.879744,120.414791 251.639231,122.093248 C249.398719,124.33119 246.598079,126.569132 244.917694,128.807074 C242.677182,131.045016 241.556926,131.045016 238.756285,128.807074 C226.433467,118.176849 209.069496,109.784566 192.825782,109.784566 C154.737072,109.784566 125.610411,141.675241 125.610411,179.160772 C125.610411,216.646302 154.737072,249.096463 192.825782,249.096463 C219.71193,249.096463 236.515773,239.025723 236.515773,239.025723 L236.515773,204.897106 L208.509368,204.897106 C205.708728,204.897106 204.028344,203.21865 204.028344,200.421222 L204.028344,191.469453 C204.028344,188.672026 205.708728,186.993569 208.509368,186.993569 L250.518975,186.993569 C252.759488,186.993569 255,189.231511 255,191.469453 L255,246.858521 C255,247.977492 253.879744,250.215434 253.319616,250.77492 C253.319616,250.77492 228.67398,267 193.38591,267 C145.214894,267 106.005928,228.395498 106.005928,180.279743 C105.4458,131.604502 144.654766,93 192.825782,93 Z"/>
</svg>
