<svg xmlns="http://www.w3.org/2000/svg" width="360" height="360" viewBox="0 0 360 360">
  <defs>
    <linearGradient id="klaviyo-white-a" x1="50%" x2="50%" y1="100%" y2="0%">
      <stop offset="0%" stop-color="#FFF" stop-opacity=".443"/>
      <stop offset="100%" stop-color="#FFF"/>
    </linearGradient>
  </defs>
  <path fill="url(#klaviyo-white-a)" d="M4.71149368,70.9813649 L109.061192,1.97174017 C113.175962,-0.657246723 119.59481,-0.657246723 123.70958,1.97174017 L228.059279,70.9813649 C234.31357,75.0891213 234.31357,81.8258646 228.059279,85.9333363 L214.069116,95.1345057 C193.49555,62.7655673 157.28597,41.4054047 116.303108,41.4054047 C75.1556894,41.4054047 39.110666,62.9298434 18.5370993,95.1345057 L4.54693709,85.9330516 C-1.54279758,81.8255799 -1.54279758,74.9245605 4.71149368,70.9813649 Z M116.303108,70.1596997 C85.1956378,70.1596997 58.0383815,86.5904407 42.56721,110.908142 L66.5973206,126.846055 C76.8018257,110.086477 95.0713148,98.91371 116.138836,98.91371 C137.041801,98.91371 155.475562,110.086762 165.680352,126.846055 L189.710463,110.908142 C174.732391,86.5904407 147.410578,70.1596997 116.303108,70.1596997 Z M116.303108,127.831996 C105.440091,127.831996 95.8940978,133.911351 90.7917027,142.783968 L106.921386,153.299631 C109.554862,155.435789 112.682007,156.749998 116.303108,156.749998 C119.924208,156.749998 123.215911,155.435505 125.68483,153.299631 L141.814513,142.783968 C137.041231,134.075911 127.330396,127.831996 116.303108,127.831996 Z" transform="translate(64 102)"/>
</svg>
