<svg xmlns="http://www.w3.org/2000/svg" width="360" height="360" viewBox="0 0 360 360">
  <g fill="#FFF" transform="translate(99 108)">
    <path d="M0,70.6479833 C0,66.9337638 2.94749512,63.9232135 6.75093102,63.9232135 L18.9440623,63.9232135 C22.6730394,63.9232135 25.6956641,66.9807198 25.6956641,70.6479833 L25.6956641,144.419211 L0,144.419211 L0,70.6486541 L0,70.6479833 Z"/>
    <path d="M44.3834808,37.5460166 C44.3834808,33.8083191 47.3309759,30.7776448 51.1344118,30.7776448 L63.3275431,30.7776448 C67.0565202,30.7776448 70.0791449,33.8177103 70.0791449,37.5460166 L70.0791449,144.419211 L44.3834808,144.419211 L44.3834808,37.5460166 Z" opacity=".696"/>
    <path d="M91.1026872,49.2950783 C91.1026872,45.6056784 94.0501823,42.6152521 97.8536182,42.6152521 L110.046749,42.6152521 C113.775727,42.6152521 116.798351,45.6620256 116.798351,49.2950783 L116.798351,144.419211 L91.1026872,144.419211 L91.1026872,49.2950783 L91.1026872,49.2950783 Z"/>
    <path d="M135.485497,6.77172582 C135.485497,3.03201592 138.433663,0 142.237099,0 L154.43023,0 C158.158537,0 161.181161,3.01658752 161.181161,6.77172582 L161.181161,144.419882 L135.485497,144.419882 L135.485497,6.77172582 L135.485497,6.77172582 Z" opacity=".641"/>
  </g>
</svg>
