<svg xmlns="http://www.w3.org/2000/svg" width="360" height="360" viewBox="0 0 360 360">
  <g fill="none" fill-rule="evenodd">
    <polygon fill="#FFF" points="149.648 135 229 179.537 149 223"/>
    <path fill="#FFF" fill-rule="nonzero" d="M181,273 C231.810197,273 273,231.810197 273,181 C273,130.189803 231.810197,89 181,89 C130.189803,89 89,130.189803 89,181 C89,231.810197 130.189803,273 181,273 Z M181,262.176471 C136.167473,262.176471 99.8235294,225.832527 99.8235294,181 C99.8235294,136.167473 136.167473,99.8235294 181,99.8235294 C225.832527,99.8235294 262.176471,136.167473 262.176471,181 C262.176471,225.832527 225.832527,262.176471 181,262.176471 Z"/>
  </g>
</svg>
