<svg xmlns="http://www.w3.org/2000/svg" width="360" height="360" viewBox="0 0 360 360">
  <path fill="#FFF" d="M171.509434,28.8724805 C171.509434,28.8724805 170.74717,28.1126784 169.984906,28.1126784 C169.222642,28.1126784 169.222642,28.1126784 168.460377,28.8724805 L57.1698113,187.671123 C57.1698113,187.671123 57.1698113,188.430925 57.1698113,189.190727 C57.1698113,189.950529 57.9320755,189.950529 57.9320755,189.950529 C71.6528302,196.788749 86.1358491,199.827957 101.381132,199.827957 C157.026415,199.827957 202,154.999632 202,99.5340774 C202,73.7008054 191.328302,47.8675334 171.509434,28.8724805 L171.509434,28.8724805 Z M95.2830189,85.8576393 L96.8075472,83.578233 L146.354717,12.916636 C147.116981,12.1568339 146.354717,10.6372296 146.354717,10.6372296 L146.354717,10.6372296 C132.633962,3.79901059 117.388679,0 101.381132,0 C82.3245283,0 64.0301887,5.31861482 48.0226415,15.1960424 C47.2603774,15.9558445 47.2603774,16.7156466 47.2603774,17.4754487 C47.2603774,17.4754487 47.2603774,17.4754487 47.2603774,17.4754487 L58.6943396,33.4312932 L95.2830189,85.8576393 Z M60.9811321,134.484975 L78.5132075,110.171307 L53.3584906,74.4606075 L26.6792453,36.4705017 C26.6792453,35.7106995 25.9169811,35.7106995 25.154717,35.7106995 L25.154717,35.7106995 C24.3924528,35.7106995 24.3924528,35.7106995 23.6301887,36.4705017 C8.38490566,54.7057525 0,77.499816 0,100.29388 C0,127.646756 11.4339623,154.23983 31.2528302,172.475081 C32.0150943,173.234883 32.7773585,173.234883 33.5396226,172.475081 L33.5396226,172.475081 L60.9811321,134.484975 L60.9811321,134.484975 Z" transform="translate(79 80)"/>
</svg>
