<svg xmlns="http://www.w3.org/2000/svg" width="360" height="360" viewBox="0 0 360 360">
  <path fill="#FFF" d="M83.3134083,41.8690301 L74.9474231,41.8690301 C74.2546942,45.2583917 73.7469154,48.6828763 73.4263349,52.1273224 L67.341982,88.9811874 L77.6093275,88.9811874 C90.9188494,88.9811874 100.805923,77.9630216 100.805923,61.2458045 C100.805923,49.4677651 93.9610258,41.8690301 83.3134083,41.8690301 L83.3134083,41.8690301 Z M83.3134083,41.8690301 L74.9474231,41.8690301 C74.2546942,45.2583917 73.7469154,48.6828763 73.4263349,52.1273224 L67.341982,88.9811874 L77.6093275,88.9811874 C90.9188494,88.9811874 100.805923,77.9630216 100.805923,61.2458045 C100.805923,49.4677651 93.9610258,41.8690301 83.3134083,41.8690301 L83.3134083,41.8690301 Z M83.3134083,41.8690301 L74.9474231,41.8690301 C74.2546942,45.2583917 73.7469154,48.6828763 73.4263349,52.1273224 L67.341982,88.9811874 L77.6093275,88.9811874 C90.9188494,88.9811874 100.805923,77.9630216 100.805923,61.2458045 C100.805923,49.4677651 93.9610258,41.8690301 83.3134083,41.8690301 L83.3134083,41.8690301 Z M167.885913,160.105347 C166.060607,160.105347 144.765372,157.44579 135.67687,106.534265 C135.67687,106.534265 160.470608,77.1651544 160.280472,52.0513351 C156.858024,21.0105024 129.478436,0 90.9188494,0 C90.9188494,0 42.6242985,1.89968376 33.8780413,3.79936752 C23.6399831,6.04092811 16.5481605,15.3809969 17.1460709,25.8356992 C17.2380689,33.4775116 16.6014076,41.1107099 15.2447106,48.6319043 L1.1746446,139.132839 C0.0338284398,144.451953 -2.62807594,160.789234 7.63926952,172.94721 C13.9283377,180.153031 23.1806549,184.074795 32.7372251,183.585439 C44.9850901,183.660024 57.1289545,181.336653 68.4827982,176.746577 C71.9600136,175.114391 74.9684239,172.631374 77.2290554,169.527779 C85.6085052,179.170645 97.9221063,184.483193 110.692996,183.965375 C124.311082,183.889039 137.723182,180.636545 149.861018,174.466957 C149.861018,174.466957 167.353532,167.47612 168,160.143341 L167.885913,160.105347 Z M133.661428,158.88955 C126.313444,161.348687 118.59185,162.505905 110.845105,162.308981 C103.239664,162.308981 92.9723185,160.409297 86.5076936,141.792396 L75.479804,109.877709 L64.2998056,109.877709 L59.3562689,140.272649 C58.6014178,143.640066 58.2188542,147.080103 58.2154527,150.530941 L58.2154527,151.290815 C58.2252332,153.246135 58.6125872,155.181197 59.3562689,156.989866 C54.9142013,158.85261 50.2483694,160.129793 45.4763389,160.789234 C41.2633388,161.467941 37.0045377,161.823587 32.7372251,161.853056 C27.0331443,161.853056 21.7093355,159.953373 21.3290635,150.075017 C21.3938449,147.400863 21.6479946,144.734643 22.0896076,142.096345 L36.1596736,51.7473857 C37.3582269,44.8447404 37.9941009,37.8562934 38.0610339,30.8508643 L38.0610339,23.632066 C49.8641322,21.5748879 61.8253142,20.5578125 73.8066069,20.592572 L90.1583053,20.592572 C99.9677535,20.3866381 109.703109,22.3319925 118.678709,26.2916233 C121.091258,27.4584345 123.383803,28.8581991 125.523606,30.4709275 C127.518498,32.1411199 129.422576,33.9166928 131.227687,35.7900421 C133.57189,38.8069493 135.491114,42.1306718 136.931768,45.6683976 C138.147839,49.4781955 138.788669,53.447836 138.833128,57.4464369 L138.833128,60.8658677 C137.692312,77.5830848 127.044695,91.2608079 110.692996,99.9993532 L125.523606,139.132839 C129.706599,149.771068 132.368503,153.950372 136.931768,157.369803 C135.867168,158.032803 134.715269,158.544306 133.509319,158.88955 L133.661428,158.88955 Z M83.3134083,41.8690301 L74.9474231,41.8690301 C74.2546942,45.2583917 73.7469154,48.6828763 73.4263349,52.1273224 L67.341982,88.9811874 L77.6093275,88.9811874 C90.9188494,88.9811874 100.805923,77.9630216 100.805923,61.2458045 C100.805923,49.4677651 93.9610258,41.8690301 83.3134083,41.8690301 L83.3134083,41.8690301 Z M83.3134083,41.8690301 L74.9474231,41.8690301 C74.2546942,45.2583917 73.7469154,48.6828763 73.4263349,52.1273224 L67.341982,88.9811874 L77.6093275,88.9811874 C90.9188494,88.9811874 100.805923,77.9630216 100.805923,61.2458045 C100.805923,49.4677651 93.9610258,41.8690301 83.3134083,41.8690301 L83.3134083,41.8690301 Z M83.3134083,41.8690301 L74.9474231,41.8690301 C74.2546942,45.2583917 73.7469154,48.6828763 73.4263349,52.1273224 L67.341982,88.9811874 L77.6093275,88.9811874 C90.9188494,88.9811874 100.805923,77.9630216 100.805923,61.2458045 C100.805923,49.4677651 93.9610258,41.8690301 83.3134083,41.8690301 L83.3134083,41.8690301 Z M83.3134083,41.8690301 L74.9474231,41.8690301 C74.2546942,45.2583917 73.7469154,48.6828763 73.4263349,52.1273224 L67.341982,88.9811874 L77.6093275,88.9811874 C90.9188494,88.9811874 100.805923,77.9630216 100.805923,61.2458045 C100.805923,49.4677651 93.9610258,41.8690301 83.3134083,41.8690301 L83.3134083,41.8690301 Z" transform="translate(96 88)"/>
</svg>
