<svg xmlns="http://www.w3.org/2000/svg" width="360" height="360" viewBox="0 0 360 360">
  <g fill="#FFF" transform="translate(105 103)">
    <circle cx="116.048" cy="120.096" r="34.64"/>
    <path fill-opacity=".729" d="M51.9520585,19.4240003 L51.9520585,5.95200009 C51.9610176,4.63881986 50.9129499,3.56223332 49.6000007,3.53600005 L2.83200004,3.53600005 C1.49768007,3.53600005 0.416000006,4.61768011 0.416000006,5.95200009 L0.416000006,115.616002 C0.426887884,76.9510416 19.7675836,40.8516121 51.9520585,19.4240003 Z"/>
    <path d="M0.416000006,115.616002 L0.416000006,152.320002 C0.424726115,153.650691 1.5013113,154.727276 2.83200004,154.736002 L49.6000007,154.736002 C50.9343207,154.736002 52.0160008,153.654322 52.0160008,152.320002 L52.0160008,19.4240003 C19.8072167,40.8369279 0.441141665,76.9388947 0.416000006,115.616002 Z"/>
    <path fill-opacity=".563" d="M51.9520008,19.4240003 L51.9520008,115.616002 C52.0296284,81.1785231 79.2678116,52.9377939 113.680002,51.6160008 C114.989341,51.5900093 116.039587,50.5255711 116.048002,49.2160007 L116.048002,2.43200004 C116.048002,1.78421175 115.789593,1.16318587 115.330038,0.706634653 C114.870483,0.250083438 114.247776,-0.00426176519 113.600002,-5.2706054e-05 C91.6154813,0.442982874 70.2196422,7.18436587 51.9520008,19.4240003 Z"/>
  </g>
</svg>
