<svg xmlns="http://www.w3.org/2000/svg" width="360" height="360" viewBox="0 0 360 360">
  <path fill="#FFF" d="M110,131.560354 C110,148.963207 105.353962,162.187187 96.0622242,171.232327 C86.7702768,180.277399 73.5018726,184.800004 56.2569698,184.800004 C42.1901226,184.800004 30.8033354,181.472479 22.0965723,174.817568 C12.3882662,167.308581 7.3655101,156.643998 7.02828878,142.82379 L12.0561595,142.82379 C12.5568836,155.107842 17.0763422,164.491425 25.6145489,170.974567 C33.3147128,176.77548 43.4445349,179.675956 56.0040427,179.675999 C88.6544501,179.675956 104.979683,163.637424 104.979795,131.560354 L104.979795,91.3728591 L104.473944,91.3728591 C101.965008,102.636327 95.8130266,111.680131 86.0179787,118.504299 C76.222746,125.328506 65.464442,128.740598 53.743032,128.74059 C36.4980072,128.740598 23.0188298,122.343411 13.3054631,109.549012 C4.43514313,97.9471394 0,83.1010832 0,65.0107972 C0,46.5821778 4.60376059,31.3976463 13.8113158,19.4571565 C24.0254248,6.48584909 37.9210352,0 55.4981886,0 C67.050976,0 77.4324459,3.58407292 86.6426299,10.7518174 C95.8526257,17.9198105 101.796392,27.1328538 104.473944,38.3909722 L104.979795,38.3909722 L104.979795,3.06971554 L110,3.06971554 L110,131.560354 Z M104.726868,65.0107972 C104.726868,48.8004957 100.623733,35.0662004 92.4177845,23.8078724 C83.2101484,11.3520839 70.9036304,5.12400496 55.4981886,5.12400496 C39.4283745,5.12400496 26.7871744,11.1802443 17.5745543,23.2923464 C9.20497319,34.212199 5.02020649,48.1183374 5.02020649,65.0107972 C5.02020649,81.5649236 8.95460171,95.1299794 16.8234396,105.706007 C25.6988254,117.651619 37.9210352,123.6244 53.4901084,123.6244 C69.3962911,123.6244 82.1218005,117.823462 91.666668,106.221533 C100.373361,95.3018226 104.726868,81.5649236 104.726868,65.0107972 Z" transform="translate(125 88)"/>
</svg>
