<svg xmlns="http://www.w3.org/2000/svg" width="60" height="60" viewBox="0 0 60 60">
  <g fill="#FFFFFF" fill-rule="evenodd" transform="translate(20 15)">
    <path d="M12.8953396 29.9068537L12.8953396 11.9372195C14.781566 12.5370366 16.646283 12.5478293 18.5638302 11.9180122 18.5813774 12.2390488 18.6040189 12.4589268 18.6042075 12.6788049 18.6060943 18.1629512 18.5938302 23.6469146 18.6211887 29.130878 18.6243962 29.7780732 18.4206226 29.936122 17.7860943 29.9202073 16.1668491 29.8799634 14.545717 29.9068537 12.8953396 29.9068537M7.45715094 29.8681098L1.85922642 29.8681098 1.85922642 11.9506098C3.72658491 12.5220732 5.57243396 12.5731098 7.45715094 11.9101829L7.45715094 29.8681098zM8.698 4.64851829C7.56932075 3.8044939 6.63158491 3.01260366 5.59441509 2.37162805 5.17724528 2.11388415 4.51988679 2.05553049 4.01120755 2.13693293 2.91177358 2.31309146 2.24913208 3.05284756 2.01743396 4.09388415 1.79158491 5.1087622 2.09479245 6.00821341 2.95479245 6.6415061 3.79554717 7.26071341 4.75158491 7.47693293 5.68818868 6.85059146 6.66630189 6.19662805 7.58950943 5.46492073 8.698 4.64851829M11.4159245 4.49998171C11.9363019 4.98729878 12.2842264 5.35882317 12.6806415 5.67290854 13.2078113 6.09034756 13.7472453 6.50394512 14.3272453 6.84583537 15.3768679 7.4644939 16.6398868 7.22229878 17.4272453 6.30894512 18.2453585 5.36010366 18.2936604 3.97004268 17.5319623 3.02870122 16.9096981 2.25967683 15.5038491 1.62601829 14.3981887 2.35754268 13.4136604 3.00894512 12.4793208 3.7315061 11.4159245 4.49998171M9.89498113 3.25296951C11.1666792 2.35534756 12.2981887 1.35656707 13.6055472.67479878 16.4206415-.793006098 19.8081887 1.20309146 19.9496981 4.30790854 20.0708302 6.96894512 18.277434 8.95242073 15.5713962 9.09034756 14.5217736 9.14394512 13.5930943 8.70071341 12.7770566 8.11296951 11.8361132 7.43540854 10.9602642 6.67296951 10.0746038 5.96229878 9.0589434 6.73040854 8.04120755 7.57388415 6.94781132 8.31162805 4.50101887 9.96309146 1.63498113 8.70601829.596867925 6.79571341-.261622642 5.21595732-.192754717 3.62229878.795169811 2.1394939 1.78950943.647176829 3.31724528-.0373353659 5.10007547.245469512 6.00101887.388335366 6.87762264.925408537 7.6634717 1.43248171 8.49856604 1.97156707 9.21328302 2.6862622 9.89498113 3.25296951"/>
  </g>
</svg>
