<svg xmlns="http://www.w3.org/2000/svg" width="60" height="60" viewBox="0 0 60 60">
  <path fill="#FFFFFF" fill-rule="evenodd" d="M6.3967037,27.5802975 L14.6262407,27.5802975 L14.6262407,25.5768595 L6.3967037,25.5768595 L6.3967037,27.5802975 Z M6.39916667,23.3696529 L14.600963,23.3696529 L14.600963,21.3478347 L6.39916667,21.3478347 L6.39916667,23.3696529 Z M14.6008333,19.1349421 C14.7403148,18.6282314 14.5012778,18.1022149 15.0966667,17.6786777 C17.9041852,15.6811901 19.1217963,12.9080331 18.6632963,9.42267769 C18.0453519,4.72555372 13.3321481,1.36171901 8.82051852,2.4454876 C5.38364815,3.27100826 3.14559259,5.47186777 2.41642593,8.99795041 C1.70838889,12.421686 2.85522222,15.2829091 5.55138889,17.4386777 C6.10607407,17.882314 6.49133333,18.2840331 6.3782963,19.0283636 C6.37388889,19.0574545 6.42288889,19.0950083 6.45140741,19.1349421 L14.6008333,19.1349421 Z M16.727537,29.7529917 L14.6608519,29.7529917 L14.6608519,31.8265124 C14.5082778,31.8480661 14.4266111,31.8696198 14.3450741,31.8696198 C11.7121667,31.8713388 9.07912963,31.8710744 6.37116667,31.8710744 L6.37116667,29.7856529 L4.27246296,29.7856529 L4.27246296,29.0425124 C4.27246296,25.9804298 4.26248148,22.9182149 4.28309259,19.8562645 C4.2862037,19.3941157 4.158,19.088 3.80566667,18.7956364 C-0.516703704,15.2078017 -1.13775926,8.40528926 2.44364815,4.01877686 C6.47085185,-0.913719008 13.5952963,-1.22922314 17.9828704,3.33077686 C22.1333519,7.64429752 21.7833519,14.9358017 17.2292037,18.7666777 C16.8649444,19.0731901 16.711463,19.3823471 16.7150926,19.8762314 C16.7392037,23.1349421 16.727537,26.3940496 16.727537,29.7529917 L16.727537,29.7529917 Z" transform="translate(19 14)"/>
</svg>
