<svg xmlns="http://www.w3.org/2000/svg" width="60" height="60" viewBox="0 0 60 60">
  <path fill="#FFFFFF" d="M25.4884986,0.500000008 L3.9917827,0.500000008 C2.02125041,0.500000008 0.408996719,2.12038193 0.408996719,4.10084873 L0.408996719,8.73154018 C0.408996719,8.73154018 5.00929393,11.4177733 5.30308238,11.590614 C5.67569211,11.806665 6.13428873,11.7994633 6.49973289,11.590614 C6.80785249,11.4105716 16.0801026,6.05971043 16.2162485,5.98049175 C16.5530304,5.78604592 16.911309,5.8508612 17.111945,5.97329005 C17.3054154,6.08851721 17.8356677,6.3909885 18.115125,6.54942585 C18.3945824,6.70786319 18.3802513,7.15436844 18.1294563,7.29840239 C17.8786611,7.44243633 7.03715079,13.7151147 6.52839518,14.0103844 C6.11279201,14.2480404 5.7043544,14.2552421 5.27442009,14.0103844 C4.55786289,13.5998876 1.5913161,11.8714802 0.401831148,11.1729156 L0.401831148,13.5998876 C0.401831148,13.5998876 5.00212835,16.2861207 5.2959168,16.4589615 C5.66852655,16.6750124 6.12712315,16.6678108 6.49256733,16.4589615 C6.80068691,16.2789191 16.072937,10.9280579 16.2090829,10.8488392 C16.5458647,10.6543934 16.9041434,10.7192087 17.1047794,10.8416375 C17.2982499,10.9568647 17.8285021,11.259336 18.1079595,11.4177733 C18.3874167,11.5762107 18.3730856,12.0227159 18.1222906,12.1667499 C17.8714956,12.3107838 7.02998523,18.5834623 6.52122961,18.8787319 C6.10562644,19.1163879 5.69718884,19.1235895 5.26725451,18.8787319 C4.55069731,18.4682351 1.58415053,16.7398277 0.394665575,16.041263 L0.394665575,18.4682351 C0.394665575,18.4682351 4.99496278,21.1544683 5.28875123,21.327309 C5.66136098,21.5433599 6.11995758,21.5361583 6.48540175,21.327309 C6.79352135,21.1472665 16.0657715,15.7964054 16.2019174,15.7171866 C16.5386993,15.5227409 16.8969779,15.5875561 17.0976139,15.709985 C17.2910842,15.8252121 17.8213366,16.1276834 18.1007939,16.2861207 C18.3802513,16.4445581 18.3659201,16.8910634 18.115125,17.0350972 C17.86433,17.1791313 7.02281965,23.4518098 6.51406404,23.7470793 C6.09846086,23.9847354 5.69002326,23.991937 5.26008894,23.7470793 C4.54353175,23.3365825 1.57698495,21.6081751 0.387500003,20.9096105 L0.387500003,25.7491513 C0.387500003,27.729618 1.9997537,29.3499999 3.97028599,29.3499999 L25.4670019,29.3499999 C27.4375342,29.3499999 29.0497879,27.729618 29.0497879,25.7491513 L29.0497879,4.14405891 C29.0712846,2.12038193 27.4590309,0.500000008 25.4884986,0.500000008 L25.4884986,0.500000008 Z" transform="translate(15 15)"/>
</svg>
