<svg xmlns="http://www.w3.org/2000/svg" width="60" height="60" viewBox="0 0 60 60">
  <path fill="#FFFFFF" d="M17.9407031,19.3399611 L10.5830859,17.8084436 C10.5522774,17.8677872 10.5179998,17.925279 10.4804297,17.9806226 L17.1785156,27.713463 L17.5825781,27.3114397 L18.7221094,20.2526848 C18.3315744,20.0883474 18.0418936,19.7499416 17.9407031,19.3398444 L17.9407031,19.3399611 Z M15.2566406,9.75933852 C14.9810156,10.1805058 14.5052344,10.4592607 13.9633594,10.4592607 C13.8799219,10.4592607 13.7988281,10.450856 13.7191406,10.438249 L10.3637109,15.6679377 L19.3283203,11.8251362 C19.3255078,11.7891829 19.3175391,11.7555642 19.3175391,11.718677 C19.3175391,11.6435019 19.3278516,11.5706615 19.3400391,11.4987549 L15.2566406,9.75945525 L15.2566406,9.75933852 Z M15.5003906,8.80634241 L19.8439453,10.6563035 C19.9823514,10.5485344 20.1406605,10.4688946 20.3098828,10.4219066 L21.0237891,6.00011673 L18.3039844,3.29089494 L15.2425781,8.06264591 C15.3926132,8.2837223 15.4815343,8.54026816 15.5003906,8.80645914 L15.5003906,8.80634241 Z M24.6017578,9.56416342 L21.8759766,6.8485214 L21.2834766,10.5148249 C21.4336769,10.5900544 21.5686047,10.692321 21.6814453,10.8164591 L24.6017578,9.56416342 Z M18.0710156,18.3742412 C18.2877222,17.9823629 18.6882672,17.7258246 19.1361328,17.6920623 L19.9189453,12.8421012 C19.8575391,12.8014786 19.8026953,12.7529183 19.7487891,12.7029572 L10.7326172,16.5681712 C10.7555859,16.6620233 10.7715234,16.7577432 10.7790234,16.8571984 L18.0710156,18.3742412 L18.0710156,18.3742412 Z M25.3442578,10.3042412 L22.1905078,11.6559922 L29.971875,14.9698833 L30,14.9418677 L25.3442578,10.3042412 Z M19.7084766,20.2672763 L18.7606641,26.1370039 L24.2642578,20.6548249 L20.3000391,19.8302335 C20.1480097,20.0284039 19.9429831,20.1798763 19.7084766,20.2672763 L19.7084766,20.2672763 Z M9.01089844,18.7581712 C8.81167969,18.7581712 8.62089844,18.7240856 8.44230469,18.6637354 L6.61417969,21.5135019 L5.90777344,20.8103113 L7.63933594,18.1114786 C7.59651182,18.0585413 7.55660916,18.0033236 7.51980469,17.94607 L4.38292969,19.2914008 L3.639375,18.5507393 L7.07296875,17.0785214 L0.865429688,15.7879377 L0.01640625,14.9418677 L0.285,14.6743191 L7.44339844,16.1628794 C7.52571907,16.0073207 7.63112336,15.8650197 7.75605469,15.7407782 L4.28167969,10.6927237 L4.98339844,9.99373541 L8.61328125,15.268249 C8.74363146,15.2380964 8.87696365,15.222591 9.01078125,15.2220233 C9.1640625,15.2220233 9.31265625,15.2435019 9.4546875,15.2799222 L12.8513672,9.98579767 C12.5748324,9.70005371 12.4203993,9.31857001 12.4205859,8.92167315 C12.4205859,8.80027237 12.4360547,8.682607 12.4627734,8.56961089 L8.22527344,6.76494163 L8.96859375,6.02439689 L12.9834375,7.73474708 C13.3974655,7.39483314 13.9594351,7.29449425 14.4662109,7.47 L17.5979297,2.58770428 L15.0002344,0 L0,14.9418677 L15.0002344,29.8837354 L16.4763281,28.4133852 L9.72808594,18.6067704 C9.5022365,18.7064979 9.25794374,18.758069 9.01089844,18.7581712 L9.01089844,18.7581712 Z M20.8737891,13.0511673 L20.0773828,17.9815564 C20.3585791,18.2066375 20.5360273,18.5357624 20.5691016,18.8935798 L25.0892578,19.8335019 L29.2283203,15.7105447 L21.7573828,12.5287938 C21.5436135,12.8122843 21.2260001,13.0000967 20.8737891,13.051284 L20.8737891,13.0511673 Z" transform="translate(15 15)"/>
</svg>
