<svg xmlns="http://www.w3.org/2000/svg" width="60" height="60" viewBox="0 0 60 60" xmlns:xlink="http://www.w3.org/1999/xlink">
  <defs>
    <path id="a" d="M15.7769564,29.9793103 L14.1885297,29.9793103 C6.28293447,29.5664254 0,23.0256445 0,15.0172414 C0,6.74275862 6.70793103,0.0348275862 14.9827586,0.0348275862 C23.2572414,0.0348275862 29.9655172,6.74275862 29.9655172,15.0172414 C29.9655172,23.0256445 23.6822598,29.5664254 15.7769564,29.9793103 L15.7769564,29.9793103 Z M22.2517241,17.2337931 L22.2517241,8.03448276 C22.2517241,7.41862069 21.7524138,6.91931034 21.1365517,6.91931034 L8.67586207,7.36517241 C8.06,7.36517241 7.56068966,7.86448276 7.56068966,8.48034483 L7.56068966,16.7875862 C7.56068966,17.4034483 8.06,17.9027586 8.67586207,17.9027586 L17.0924138,18.3489655 L18.3851724,20.5789655 L19.612069,18.3489655 L21.1365517,18.3489655 C21.7524138,18.3489655 22.2517241,17.8496552 22.2517241,17.2337931 Z M18.3734483,24.9551724 C19.0241379,24.9551724 19.5517241,24.4141379 19.5517241,23.7465517 C19.5517241,23.0786207 19.0241379,22.5375862 18.3734483,22.5375862 C17.7227586,22.5375862 17.1951724,23.0786207 17.1951724,23.7465517 C17.1951724,24.4141379 17.7227586,24.9551724 18.3734483,24.9551724 Z"/>
  </defs>
  <g fill="none" fill-rule="evenodd" transform="translate(15 15)">
    <use fill="#FFFFFF" xlink:href="#a"/>
  </g>
</svg>
