<svg xmlns="http://www.w3.org/2000/svg" width="60" height="60" viewBox="0 0 60 60">
  <path fill="#FFFFFF" fill-rule="evenodd" d="M5.67127358,4.73251989 C4.58985581,6.99355811 5.120307,8.82816908 6.73281706,10.5128642 C6.20685362,10.3726865 5.68076195,10.2325088 5.07337803,10.0706766 C5.19339309,12.2080663 6.35110249,13.4885012 8.18184508,14.3623696 L6.60972469,14.3623696 C6.94592073,15.2848004 7.40328583,16.0154158 8.14286583,16.4599098 C8.84987764,16.8850558 9.65279892,17.1509321 10.4305888,17.4942009 C8.72742637,18.7914213 6.71961028,19.2464223 4.39547244,19.2159266 C4.67268672,19.3917253 4.78693182,19.4734743 4.90938309,19.5404879 C7.39328457,20.9012624 10.0529773,21.3640795 12.8349932,20.9335519 C18.8792133,19.9980515 23.1878309,14.963058 23.2341188,8.82714402 C23.2374526,8.37278374 23.383753,8.09934752 23.7221288,7.81130411 C24.2571959,7.35553436 24.7236647,6.81942511 25.2192397,6.31727115 C25.1774396,6.26665854 25.1357677,6.21604593 25.0939676,6.16556146 C24.4970978,6.30138263 23.900228,6.43733195 23.3033583,6.57315312 C23.9310011,5.89750683 24.4747873,5.25453449 24.7666188,4.38310069 C24.0447334,4.64859265 23.4017039,4.8734664 22.7679064,5.12204478 C22.3273383,5.29489645 22.003708,5.21148174 21.6135308,4.90652476 C20.241692,3.83404998 18.7113717,3.60751051 17.1089911,4.33889474 C15.5118676,5.06784444 14.6634278,6.34392285 14.5552091,8.09806618 C14.5332832,8.45209818 14.5520035,8.80856471 14.5520035,9.22679143 C10.9832223,9.00089262 8.09452643,7.4711105 5.67127358,4.73251989 M15.000906,30 C13.5340553,28.5276215 12.1470863,27.1077777 10.7197277,25.7295771 C10.4767485,25.4949653 10.0633633,25.3259576 9.72485924,25.3190384 C7.82397965,25.2800859 5.92207429,25.3036624 4.02042537,25.2991778 C1.44471749,25.2930274 0.000818328666,23.8544761 0.000561886225,21.2993722 C-7.92198767e-05,15.5130056 -0.000335662318,9.72676713 0.000690107446,3.94040053 C0.00120299233,1.47550241 1.47933722,0.00120195403 3.95208346,0.000817554467 C11.3233932,-0.000335644217 18.6947029,-0.00020751103 26.0661409,0.000817554467 C28.5379896,0.00107382084 29.9985575,1.46883948 29.9990704,3.95282945 C30.0002244,9.76046615 30.0004808,15.5681029 29.998814,21.3757396 C29.9981728,23.824621 28.559659,25.2784202 26.1011453,25.2968714 C24.2423223,25.3107097 22.3828581,25.3271108 20.5249326,25.2848268 C19.9103683,25.2708603 19.4901874,25.467801 19.0747506,25.8980723 C17.7568929,27.2630751 16.4031333,28.5936101 15.000906,30" transform="translate(15 15)"/>
</svg>
