<svg xmlns="http://www.w3.org/2000/svg" width="60" height="60" viewBox="0 0 60 60">
  <path fill="#FFFFFF" fill-rule="evenodd" d="M26.6368361,23.9111825 L31.9768687,23.2522046 L35.5030339,19.4823229 L25.7853382,20.7941695 L25.5879801,20.9403127 L26.6368361,23.9111825 Z M25.3808654,24.0661734 L24.548899,21.7097497 L20.5639462,24.6605974 L25.3808654,24.0661734 Z M27.9665341,31.3897033 L26.5748976,27.4480956 L17.6204265,28.2207105 L19.1680443,32.2873632 L27.9665341,31.3897033 Z M29.8608493,33.341949 L32.2806002,41.0983575 L36.4003462,41.0983575 L33.8574769,33.2896598 L29.8608493,33.341949 Z M33.455319,32.0547047 L31.8081545,26.9965566 L27.8467878,27.3383536 L29.5299553,32.1059017 L33.455319,32.0547047 Z M39.6281258,42.3333229 L39.5696783,42.8423616 L32.8708941,42.9905194 L33.1858197,44 L20.9177183,44 L15.9952131,32.6110691 L17.5706921,32.4503319 L15,26.9004787 L17.5243531,25.0356933 L18.0671627,24.9687088 L23.6890719,20.805236 L15.6300003,21.7001764 L21.6551736,18.0801209 L31.9594617,16 L28.9774887,19.1117433 L39.2315609,17.7283654 L40.3825874,24.225576 L42.8930807,21.4596456 L45,31.8925002 L42.8257959,38.6125808 L41.3920571,33.3965238 L39.7585367,42.6243067 L39.6281258,42.3333229 Z M37.2050863,31.331819 L40.3818879,31.3071807 L39.5917293,26.8467861 L39.2225421,25.5036533 L39.3323598,25.3826619 L38.5840183,21.1583222 L35.2564188,25.3094818 L37.2050863,31.331819 Z M37.7179728,32.577521 L39.4638504,37.0556409 L40.2750101,32.5483819 L37.7179728,32.577521 Z"/>
</svg>
