<svg xmlns="http://www.w3.org/2000/svg" width="60" height="60" viewBox="0 0 60 60">
  <path fill="#FFFFFF" d="M12.48672,2.41255143 C13.45329,1.35749429 14.79894,0.70312 16.28718,0.70312 C18.26556,0.70312 19.99158,1.85881143 20.91078,3.57446571 C21.70956,3.20059143 22.59372,2.99259714 23.52396,2.99259714 C27.09216,2.99259714 29.985,6.04959143 29.985,9.82036 C29.985,13.5915686 27.09216,16.6485629 23.52396,16.6485629 C23.096574,16.648824 22.6702337,16.6043199 22.2513,16.5157143 C21.44187,18.0283086 19.89939,19.0503029 18.12894,19.0503029 C17.38779,19.0503029 16.68678,18.8709714 16.06263,18.5520657 C15.24207,20.5740857 13.33032,21.99186 11.10219,21.99186 C8.78187,21.99186 6.80436,20.4537771 6.0453,18.2966771 C5.71359,18.3704714 5.36991,18.40894 5.01726,18.40894 C2.25465,18.4089714 0.015,16.0385343 0.015,13.1139486 C0.015,11.1540943 1.02126,9.44287143 2.51634,8.52735714 C2.20854,7.78539143 2.03733,6.96645714 2.03733,6.10547143 C2.03733,2.74214286 4.6437,0.0157142857 7.85844,0.0157142857 C9.74586,0.0157142857 11.42325,0.955837143 12.48672,2.41255143" transform="translate(15 19)"/>
</svg>
