<svg xmlns="http://www.w3.org/2000/svg" width="60" height="60" viewBox="0 0 60 60">
  <path fill="#FFFFFF" d="M1.86521739,17.4610778 L11.0217391,8.73053892 C12.2086957,7.61676647 12.9434783,6.05389222 12.9434783,4.34730539 C12.9434783,2.65868263 12.2275362,1.11377246 11.0782609,0 L1.92173913,8.73053892 C0.734782609,9.84431138 0,11.4071856 0,13.1137725 C0,14.8203593 0.715942029,16.3473054 1.86521739,17.4610778 Z M24.0405797,12.3592814 L14.884058,21.0898204 C13.6971014,22.2035928 12.9623188,23.7664671 12.9623188,25.4730539 C12.9623188,27.1616766 13.6782609,28.7065868 14.8275362,29.8203593 L23.984058,21.0898204 C25.1710145,19.9760479 25.9057971,18.4131737 25.9057971,16.7065868 C25.9057971,15 25.1898551,13.4730539 24.0405797,12.3592814 Z M23.984058,8.74850299 C25.1710145,7.63473054 25.9057971,6.07185629 25.9057971,4.36526946 C25.9057971,2.67664671 25.1898551,1.13173653 24.0405797,0.0179640719 L1.92173913,21.0898204 C0.734782609,22.2215569 0,23.7664671 0,25.491018 C0,27.1796407 0.715942029,28.7245509 1.86521739,29.8383234 L23.984058,8.74850299 Z" transform="translate(17 15)"/>
</svg>
