<svg xmlns="http://www.w3.org/2000/svg" width="60" height="60" viewBox="0 0 60 60">
  <path fill="#FFFFFF" fill-rule="evenodd" d="M21.8636364,18.7555228 L18,18.7555228 L18,15 L31.6818182,15 C40.2272727,15 42,20.4786451 42,24.2783505 C42,27.3269514 40.7272727,29.6686303 39.4090909,30.9499264 C37.2727273,33.0265096 34.3636364,33.5125184 29.9545455,33.5125184 L26.5,33.5125184 L26.5,41.2444772 L30.5454545,41.2444772 L30.5454545,45 L18,45 L18,41.2444772 L21.8636364,41.2444772 L21.8636364,18.7555228 Z M37.2727273,24.2341679 C37.2727273,20.6995582 35.2272727,18.7555228 31.8181818,18.7555228 L26.5,18.7555228 L26.5,29.8895434 L30.3636364,29.8895434 C36.0454545,29.8895434 37.2727273,27.3269514 37.2727273,24.2341679 Z"/>
</svg>
