<svg xmlns="http://www.w3.org/2000/svg" width="60" height="60" viewBox="0 0 60 60">
  <path fill="#FFFFFF" fill-rule="evenodd" d="M19.6597586,36.2762817 C17.9910673,34.0887022 17,31.3563141 17,28.3933532 L17,28.0066468 C17,20.8232741 22.8187196,15 30,15 C37.1797017,15 43,20.8262742 43,28.0066468 L43,28.3933532 C43,32.2579429 41.315863,35.7288734 38.6414711,38.1111701 C40.1064492,41.2823235 41.4235636,44.1344147 41.8181818,45 L40.6363636,45 C40.0751715,44.3155346 38.1892566,42.2559009 36.0215048,39.9239556 C34.221426,40.8667607 32.1730981,41.4 30,41.4 C27.689365,41.4 25.5195287,40.7965507 23.639186,39.7387233 C22.1514769,41.1838038 20.7986249,42.4723371 20.3764545,42.8412 L20.0875,42.5358 C20.1374406,42.4191636 20.1873812,42.3025265 20.2373214,42.1858895 L24.8987026,32.2169882 C26.2481671,33.1733765 27.401826,33.9914562 28.5339545,34.7934 C28.3841112,35.0067236 27.7137993,35.7052002 26.814142,36.6096693 C27.8028413,36.9909532 28.8770329,37.2 30,37.2 C31.0488811,37.2 32.055955,37.0169762 32.9908235,36.6810461 C30.7003603,34.2421108 28.6162539,32.0490735 27.9016818,31.332 C26.6755455,30.1014 26.0751818,28.6914 26.7009545,27.006 C27.2239091,25.5954 28.3023182,24.7356 29.831,24.6468 C31.7739091,24.5334 32.9226364,25.6398 33.6730909,27.3324 C33.8800126,27.7991005 35.2226708,30.7096637 36.7677101,34.0549849 C38.0745582,32.5104027 38.8636364,30.5130831 38.8636364,28.3318317 L38.8636364,28.0681683 C38.8636364,23.1724597 34.8952512,19.2 30,19.2 C25.1147097,19.2 21.1363636,23.1704142 21.1363636,28.0681683 L21.1363636,28.3318317 C21.1363636,29.5690379 21.3897988,30.747282 21.8475816,31.8173527 L19.6597586,36.2762817 Z"/>
</svg>
