<svg xmlns="http://www.w3.org/2000/svg" width="60" height="60" viewBox="0 0 60 60">
  <g fill="#FFFFFF" transform="translate(16 15)">
    <path d="M12.568 21.3610345C12.3996364 21.3693103 12.2265455 21.3437931 12.06 21.2803448L1.70472727 17.3206897C.667272727 16.9237931-.00181818182 15.982069-.23516474e-22 14.9217241.00218181818 13.8610345.674909091 12.9217241 1.71345455 12.5282759L12.0836364 8.60413793C12.6974545 8.37413793 13.388 8.65586207 13.6312727 9.23413793 13.8749091 9.81344828 13.5774545 10.4703448 12.9665455 10.7017241L2.59636364 14.6258621C2.41927273 14.6931034 2.38181818 14.8258621 2.38145455 14.9255172 2.38145455 15.0255172 2.41854545 15.1586207 2.59527273 15.2268966L12.9505455 19.1858621C13.5603636 19.4189655 13.8552727 20.0768966 13.6098182 20.6551724 13.4305455 21.0755172 13.0152727 21.3382759 12.568 21.3610345M24.8669091 14.3965517C24.7865455 14.4 24.7043636 14.3951724 24.6218182 14.3824138 23.9727273 14.2824138 23.5323636 13.702069 23.6381818 13.0865517L25.4356364 2.6362069C25.4661818 2.45793103 25.3647273 2.35896552 25.2749091 2.30724138 25.1843636 2.25551724 25.0458182 2.21758621 24.8938182 2.32586207L15.9781818 8.70172414C15.452 9.07758621 14.7058182 8.97758621 14.3105455 8.47965517 13.9145455 7.98206897 14.0192727 7.2737931 14.5443636 6.89827586L23.4596364.523103448C24.3527273-.114827586 25.548-.174482759 26.5054545.373793103 27.4632727.921724138 27.9658182 1.95275862 27.7858182 2.99965517L25.9883636 13.45C25.896 13.9872414 25.4178182 14.3734483 24.8669091 14.3965517M25.2338182 29.752069C24.6196364 29.7775862 24.0018182 29.6041379 23.484 29.2368966L14.5476364 22.8886207C14.0210909 22.5144828 13.9141818 21.8072414 14.3087273 21.307931 14.7018182 20.8082759 15.4483636 20.7062069 15.9752727 21.0813793L24.912 27.4296552C25.064 27.5375862 25.2029091 27.4989655 25.2934545 27.4472414 25.3832727 27.3951724 25.484 27.2962069 25.4527273 27.1175862L23.62 16.6731034C23.5123636 16.057931 23.9505455 15.4762069 24.5996364 15.3737931 25.2410909 15.2717241 25.8614545 15.6872414 25.9694545 16.3024138L27.8021818 26.7468966C27.9854545 27.7931034 27.4861818 28.8255172 26.5305455 29.3765517 26.1272727 29.6093103 25.6818182 29.7337931 25.2338182 29.752069"/>
  </g>
</svg>
