<svg xmlns="http://www.w3.org/2000/svg" width="60" height="60" viewBox="0 0 60 60">
  <path fill="#FFFFFF" fill-rule="evenodd" d="M8.90909091,30 C8.65454545,30 8.4,29.8285714 8.4,29.5714286 L8.4,0.428571429 C8.4,0.171428571 8.65454545,0 8.90909091,0 L27.4909091,3 C27.6606061,3.08571429 27.830303,3.25714286 27.830303,3.51428571 L27.830303,26.3142857 C27.830303,26.4857143 27.6606061,26.6571429 27.4909091,26.7428571 L8.90909091,30 Z M25.4545455,5.82857143 C25.4545455,5.65714286 25.2848485,5.48571429 25.1151515,5.4 L12.0484848,3.77142857 C11.7090909,3.77142857 11.5393939,3.94285714 11.5393939,4.2 L11.5393939,26.0571429 C11.5393939,26.3142857 11.7090909,26.5714286 12.0484848,26.4857143 L25.1151515,24.6 C25.369697,24.6 25.4545455,24.4285714 25.4545455,24.1714286 L25.4545455,5.82857143 Z M4.75151515,27.5142857 C4.41212121,27.6 4.24242424,27.3428571 4.24242424,27.0857143 L4.24242424,2.65714286 C4.24242424,2.4 4.41212121,2.14285714 4.75151515,2.22857143 L6.19393939,2.4 C6.36363636,2.4 6.53333333,2.65714286 6.53333333,2.82857143 L6.53333333,26.9142857 C6.53333333,27.0857143 6.36363636,27.2571429 6.10909091,27.3428571 L4.75151515,27.5142857 Z M0.509090909,25.2 C0.254545455,25.2857143 0,25.0285714 0,24.7714286 L0,4.88571429 C0,4.54285714 0.254545455,4.37142857 0.509090909,4.37142857 L1.95151515,4.54285714 C2.12121212,4.54285714 2.37575758,4.8 2.37575758,4.97142857 L2.37575758,24.6 C2.37575758,24.8571429 2.12121212,25.0285714 1.95151515,25.0285714 L0.509090909,25.2 Z" transform="translate(16 15)"/>
</svg>
