<svg xmlns="http://www.w3.org/2000/svg" width="60" height="60" viewBox="0 0 60 60">
  <path fill="#FFFFFF" d="M1.22886139,0.987036391 L1.22886139,5.45534091 L28.7713006,5.45534091 L28.7713006,0.987036391 C28.7713006,0.442033552 28.3129081,0 27.7474115,0 L2.25275052,0 C1.68725391,0 1.22886139,0.442033552 1.22886139,0.987036391 Z M22.3834575,1.32813192 C23.0098786,1.32813192 23.5176913,1.81782197 23.5176913,2.42188761 C23.5176913,3.02595326 23.0098786,3.51564331 22.3834575,3.51564331 C21.7570363,3.51564331 21.2492236,3.02595326 21.2492236,2.42188761 C21.2492236,1.81782197 21.7570363,1.32813192 22.3834575,1.32813192 Z M7.61670456,1.32813192 C8.24312573,1.32813192 8.75093844,1.81782197 8.75093844,2.42188761 C8.75093844,3.02595326 8.24312573,3.51564331 7.61670456,3.51564331 C6.9902834,3.51564331 6.48247069,3.02595326 6.48247069,2.42188761 C6.48247069,1.81782197 6.99012136,1.32813192 7.61670456,1.32813192 Z M0,8.78613951 L1.22869936,16.6289929 L1.22869936,16.8264939 L1.22869936,23.0888703 L1.22869936,29.0129636 C1.22869936,29.5579664 1.68709188,30 2.25258848,30 L27.7474115,30 C28.3129081,30 28.7713006,29.5579664 28.7713006,29.0129636 L28.7713006,23.0888703 L28.7713006,16.8264939 L28.7713006,16.6289929 L30,8.78613951 C30,8.24113667 29.5414454,7.79910312 28.9761109,7.79910312 L1.02405116,7.79910312 C0.458554554,7.79910312 0,8.24113667 0,8.78613951 Z M17.5884027,13.057568 L22.0704089,12.6044406 L22.0704089,24.999974 L20.3471836,24.999974 L20.3471836,14.3080433 L17.5884027,14.3331997 L17.5884027,13.057568 Z M6.90116502,21.8276137 L6.9185026,21.7773009 L8.55471598,21.7773009 C8.55471598,22.370429 8.77670176,22.8696504 9.22051127,23.2754337 C9.66432078,23.6810608 10.2372709,23.8838744 10.9393617,23.8838744 C11.6356193,23.8838744 12.1839403,23.6754358 12.5841629,23.2587149 C12.9845474,22.8418377 13.1846587,22.2977724 13.1846587,21.6263626 C13.1846587,20.8599524 13.0004267,20.2865119 12.6319627,19.9058849 C12.2634987,19.5254142 11.6847154,19.335257 10.8957747,19.335257 L9.485922,19.335257 L9.485922,18.0511878 L10.8957747,18.0511878 C11.6617066,18.0511878 12.2025742,17.8679056 12.5188634,17.5014974 C12.8349906,17.134933 12.9931352,16.6216491 12.9931352,15.9614894 C12.9931352,15.3461737 12.8204076,14.8496086 12.4752764,14.4717941 C12.1299832,14.0942922 11.6179576,13.9053849 10.9391997,13.9053849 C10.2777793,13.9053849 9.73091651,14.1025735 9.29877341,14.4971068 C8.86646827,14.8913276 8.6503157,15.3853926 8.6503157,15.9783645 L7.01426434,15.9783645 L6.98817696,15.9280517 C6.95901095,15.0105469 7.31888715,14.2272616 8.06731948,13.5781957 C8.81575181,12.9292861 9.7730452,12.6047531 10.9393617,12.6047531 C12.1171826,12.6047531 13.0396388,12.8914734 13.7068924,13.4649139 C14.3739839,14.0385106 14.7077727,14.8819525 14.7077727,15.9952396 C14.7077727,16.5658675 14.5525447,17.0861827 14.2422508,17.5561852 C13.9317947,18.0261876 13.4981933,18.392752 12.9411225,18.6555659 C13.57921,18.9018172 14.0651482,19.2752566 14.3989371,19.7758842 C14.7325639,20.2766681 14.8992962,20.8824525 14.8992962,21.592925 C14.8992962,22.7119933 14.5322906,23.5888729 13.7982792,24.2238762 C13.0642679,24.8588795 12.1111873,25.1765374 10.9393617,25.1765374 C9.86021918,25.1765374 8.91005525,24.8702858 8.08919399,24.2574701 C7.26800866,23.6446544 6.87199901,22.8348064 6.90116502,21.8276137 Z" transform="translate(15 15)"/>
</svg>
