<svg xmlns="http://www.w3.org/2000/svg" width="60" height="60" viewBox="0 0 60 60">
  <path fill="#FFFFFF" fill-rule="evenodd" d="M28,28 L28,24 L32,24 L32,30 L31,31 L32,32 L32,36 L28,36 L28,30 L29,29 L28,28 Z M15,30 C15,21.7157288 21.7139073,15 30,15 C38.2842712,15 45,21.7139073 45,30 C45,38.2842712 38.2860927,45 30,45 C21.7157288,45 15,38.2860927 15,30 Z M17,30 C17,37.1812804 22.8202983,43 30,43 C37.1812804,43 43,37.1797017 43,30 C43,22.8187196 37.1797017,17 30,17 C22.8187196,17 17,22.8202983 17,30 Z M19,30 C19,23.9248678 23.923532,19 30,19 C36.0751322,19 41,23.923532 41,30 C41,36.0751322 36.076468,41 30,41 C23.9248678,41 19,36.076468 19,30 Z M21,30 C21,34.9716556 25.0294373,39 30,39 C34.9716556,39 39,34.9705627 39,30 C39,25.0283444 34.9705627,21 30,21 C25.0283444,21 21,25.0294373 21,30 Z"/>
</svg>
