<svg xmlns="http://www.w3.org/2000/svg" width="60" height="60" viewBox="0 0 60 60">
  <path fill="#FEFEFE" fill-rule="evenodd" d="M12,30.4349459 L14.3878435,30.2115224 C14.5357594,31.0101296 14.8273126,31.5974779 15.2671892,31.9741755 C15.7091033,32.3466156 16.3050454,32.5331397 17.054812,32.5331397 C17.8467529,32.5331397 18.4451399,32.3634433 18.8503806,32.0331739 C19.2527689,31.6945921 19.4518238,31.30796 19.4518238,30.8651679 C19.4518238,30.5784884 19.3660488,30.3278973 19.1993888,30.1271811 C19.0296726,29.929506 18.7350632,29.7500779 18.3149495,29.6085629 C18.0254337,29.4988786 17.3702029,29.3228971 16.3466086,29.0650072 C15.0279974,28.7410229 14.1030137,28.3377658 13.5761397,27.8625348 C12.8280031,27.187804 12.4531198,26.3658813 12.4531198,25.4024436 C12.4531198,24.7822508 12.6248734,24.1967272 12.9824387,23.6620923 C13.332873,23.1197531 13.8428365,22.7061561 14.5078469,22.4204903 C15.1718385,22.1451644 15.9656131,22 16.9115821,22 C18.4400464,22 19.59159,22.3381764 20.3682504,23.0058111 C21.1424658,23.6888544 21.5462803,24.5835621 21.5843799,25.7067618 L19.1119839,25.7884674 C19.0017601,25.1759789 18.7833498,24.7240634 18.4339342,24.4475211 C18.089612,24.1719925 17.5702765,24.0351405 16.8830584,24.0351405 C16.1689465,24.0351405 15.608659,24.1807105 15.2068819,24.4789463 C14.9436487,24.6705391 14.813662,24.9160616 14.813662,25.2295033 C14.813662,25.5216568 14.9344803,25.7633272 15.1803956,25.9695175 C15.4882481,26.2349089 16.2445344,26.5057744 17.440901,26.7843441 C18.6386938,27.0673742 19.5225219,27.3615552 20.0934039,27.6654679 C20.6679533,27.9687724 21.1169982,28.3825722 21.4415575,28.9105166 C21.7630606,29.4260936 21.9297207,30.0846049 21.9297207,30.8574636 C21.9297207,31.5551045 21.733722,32.2152377 21.3455955,32.8212384 C20.9574691,33.4278473 20.4063499,33.8868589 19.6961091,34.1844866 C18.9846459,34.4752209 18.0991879,34.6305225 17.0385127,34.6305225 C15.4947678,34.6305225 14.3047172,34.2714636 13.4797702,33.5537511 C12.6542121,32.8384716 12.1605478,31.7977886 12,30.4349459 Z M21.6173248,25.5661388 L24.0966479,25.5661388 L26.2143309,31.8402431 L28.2788375,25.5661388 L30.6956122,25.5661388 L27.5893783,34.0623133 L27.0205337,35.6135048 C26.8153666,36.1307037 26.620794,36.5230127 26.4347786,36.7938782 C26.2503931,37.070826 26.0356501,37.2938439 25.7952359,37.45908 C25.5495243,37.6249243 25.253285,37.7567076 24.9069255,37.8517944 C24.5524163,37.9468812 24.1545103,38 23.7101514,38 C23.2631438,38 22.8202111,37.9468812 22.385428,37.8517944 L22.1922816,36.0159509 C22.554533,36.0921825 22.8845932,36.1307037 23.1773689,36.1307037 C23.7176898,36.1307037 24.1190594,35.9709418 24.3780141,35.6550672 C24.6392099,35.3310829 24.8378573,34.9201215 24.9753824,34.4276573 L21.6173248,25.5661388 Z M38.82463,34.4044431 L36.4905742,34.4044431 L36.4905742,29.9051565 C36.4905742,28.9579383 36.4418801,28.346869 36.3377685,28.0646499 C36.2361018,27.7852692 36.0782026,27.567928 35.8479753,27.4126264 C35.6220267,27.2589467 35.3451428,27.1806877 35.0291406,27.1806877 C34.6181952,27.1806877 34.2545177,27.2938186 33.9258836,27.5162284 C33.5986757,27.7362052 33.3778205,28.0277505 33.2567984,28.3862013 C33.1394437,28.7558029 33.0764877,29.4260733 33.0764877,30.4162732 L33.0764877,34.4044431 L30.7469142,34.4044431 L30.7469142,25.5662401 L32.9047341,25.5662401 L32.9047341,26.86015 C33.680987,25.8815065 34.6567022,25.3983684 35.8322873,25.3983684 C36.3544752,25.3983684 36.8277654,25.4934552 37.2586774,25.6718696 C37.6877557,25.8624486 38.017001,26.0919544 38.2339851,26.3841079 C38.4517841,26.6732204 38.6056085,26.9992321 38.6930134,27.361535 C38.7800108,27.7199857 38.82463,28.250363 38.82463,28.9285405 L38.82463,34.4044431 Z M38.8373638,29.8924445 C38.8373638,29.1086376 39.0323439,28.3645685 39.415988,27.6336777 C39.7998359,26.9102885 40.3444353,26.3537572 41.0499901,25.969558 C41.7545262,25.5853589 42.5423923,25.3984292 43.4101248,25.3984292 C44.7556298,25.3984292 45.8544045,25.8310841 46.71032,26.6994351 C47.5692917,27.5677861 48,28.6642236 48,29.9881395 C48,31.325031 47.5652169,32.4279563 46.6991143,33.3090801 C45.8336229,34.1845271 44.7403492,34.6303604 43.4258128,34.6303604 C42.6141091,34.6303604 41.8394861,34.4434307 41.0982767,34.0784922 C40.3603271,33.7119317 39.7998359,33.1756748 39.415988,32.4658694 C39.0323439,31.7633627 38.8373638,30.9039325 38.8373638,29.8924445 Z M41.2278559,30.0098331 C41.2278559,30.8923761 41.4356716,31.5656877 41.8576191,32.024091 C42.2767141,32.4942535 42.7923824,32.7302471 43.4080874,32.7302471 C44.0241999,32.7302471 44.5396644,32.4942535 44.9593707,32.024091 C45.3723535,31.5656877 45.579558,30.8838608 45.579558,29.9992904 C45.579558,29.1246544 45.3723535,28.4584388 44.9593707,27.9955751 C44.5396644,27.5335224 44.0241999,27.2938794 43.4080874,27.2938794 C42.7923824,27.2938794 42.2767141,27.5335224 41.8576191,27.9955751 C41.4356716,28.4584388 41.2278559,29.1323586 41.2278559,30.0098331 Z"/>
</svg>
