<svg xmlns="http://www.w3.org/2000/svg" width="60" height="60" viewBox="0 0 60 60">
  <g fill="#FFFFFF" fill-rule="evenodd" transform="translate(15 15)">
    <path d="M0,15 C0,6.71572875 6.71390727,0 15,0 C23.2842712,0 30,6.71390727 30,15 C30,23.2842712 23.2860927,30 15,30 C6.71572875,30 0,23.2860927 0,15 Z M1,15 C1,22.7336865 7.2680135,29 15,29 C22.7336865,29 29,22.7319865 29,15 C29,7.26631345 22.7319865,1 15,1 C7.26631345,1 1,7.2680135 1,15 Z"/>
    <path d="M18.5836839 11.5922922L20.0881355 11.5922922 20.0881355 12.6615779C20.0881355 16.4832662 20.088329 20.3047597 20.0881355 24.1264481 20.0881355 25.5315779 20.0732323 25.5491104 18.5836839 25.863526L18.5836839 11.5922922zM15.5890452 26.6407987C14.1651097 26.8338506 14.1186581 26.7948896 14.1184645 25.4295 14.1178839 22.2208636 14.118271 19.0120325 14.118271 15.8033961L14.118271 14.6902792 15.5890452 14.6902792 15.5890452 26.6407987zM9.70145806 15.3686688L11.1910065 15.3686688 11.1910065 25.8934091C9.81468387 25.7097078 9.70184516 25.5922403 9.70165161 24.3421753 9.70107097 21.7200974 9.70145806 19.0980195 9.70145806 16.4761364L9.70145806 15.3686688M22.9348065 23.0689091L22.9348065 13.4985195 24.4564839 13.4985195 24.4564839 15.1007922C24.4564839 16.7217662 24.3697742 18.348974 24.4833871 19.9621558 24.5776452 21.302026 23.8789355 22.1153377 22.9348065 23.0689091M6.84822581 23.0386364C4.97506452 21.8836364 5.23229032 20.1625325 5.3666129 18.4085065L6.84822581 18.4085065 6.84822581 23.0386364z"/>
    <polygon points="19.893 7 12.292 12.608 9.142 11.085 5.315 15.532 3 15.895 3.156 16.883 5.832 16.463 9.399 12.32 12.4 13.771 19.785 8.321 23.373 11.995 25.189 10.377 24.524 9.63 23.421 10.614"/>
  </g>
</svg>
