<svg xmlns="http://www.w3.org/2000/svg" width="60" height="60" viewBox="0 0 60 60">
  <g fill="#FFFFFF" transform="translate(15 17)">
    <g transform="translate(.403 .456)">
      <polygon points="0 12.554 4.164 12.554 4.164 8.369 0 8.369" opacity=".8"/>
      <polygon points="4.164 16.738 8.328 16.738 8.328 12.554 4.164 12.554" opacity=".4"/>
      <polygon points="20.82 25.107 24.984 25.107 24.984 20.923 20.82 20.923" opacity=".65"/>
      <polygon points="4.164 4.185 8.328 4.185 8.328 0 4.164 0" opacity=".75"/>
      <polygon points="12.492 16.738 16.656 16.738 16.656 12.555 12.492 12.555" opacity=".6"/>
      <polygon points="16.656 12.554 20.82 12.554 20.82 8.369 16.656 8.369" opacity=".7"/>
      <polygon points="8.328 25.107 12.492 25.107 12.492 20.923 8.328 20.923" opacity=".3"/>
      <polygon points="24.963 4.185 29.127 4.185 29.127 0 24.963 0" opacity=".4"/>
      <polygon points="24.963 8.369 29.127 8.369 29.127 4.185 24.963 4.185" opacity=".8"/>
      <polygon points="20.799 4.185 24.963 4.185 24.963 0 20.799 0" opacity=".85"/>
    </g>
    <polygon points="17.059 17.194 12.895 17.194 12.895 13.009 12.895 8.825 12.895 4.64 8.731 4.64 8.731 8.825 8.731 13.009 8.731 17.194 8.731 21.378 12.895 21.378 17.059 21.378 21.223 21.378 21.223 17.194"/>
  </g>
</svg>
