<svg xmlns="http://www.w3.org/2000/svg" width="60" height="60" viewBox="0 0 60 60">
  <path fill="#FFFFFF" fill-rule="evenodd" d="M29.0862947,16 L29.3237042,16 C29.5011018,16.0707865 29.6788291,16.1412453 29.8987626,16.2287453 L29.8987626,16.7134363 L29.8987626,37.3585206 C29.8987626,38.135206 29.8987626,38.135206 29.1054193,38.231882 C29.0790405,38.2351592 29.0526617,38.2367978 29.0266126,38.2394195 C26.162861,38.5189607 23.4066031,39.2242041 20.7819096,40.3898876 C19.5885973,40.9194757 18.4437561,41.5572097 17.2771524,42.1461142 C17.2985852,42.1890449 17.320018,42.2319757 17.3417805,42.2752341 C17.4410309,42.2283708 17.5432489,42.1867509 17.6395316,42.1339888 C19.7561029,40.9683052 21.988741,40.0965824 24.3328297,39.4991573 C26.1354929,39.0397004 27.9628863,38.7513109 29.8192964,38.6277622 C30.4075443,38.588764 30.4105119,38.5654963 30.4105119,37.9998596 C30.4108416,36.046676 30.4058956,34.0934925 30.419085,32.140309 C30.4200742,31.9656367 30.4909673,31.747706 30.6083531,31.6238296 C32.9158412,29.1970974 34.7910462,26.4721442 36.3012342,23.496161 C36.7381335,22.6355805 37.133816,21.7543539 37.5473041,20.8845974 C38.1794068,20.992088 38.1794068,20.992088 38.1794068,21.5727996 L38.1794068,39.8193352 L38.1794068,40.3410581 C37.8048274,40.3764513 37.4375022,40.4957397 37.1084263,40.4285581 C34.5137388,39.8986423 31.8969589,39.7138109 29.2528111,39.8062266 C26.0059069,39.9192884 22.8457232,40.4777154 19.7976495,41.6024345 C18.8186652,41.9639045 17.8677084,42.3994382 16.903892,42.8012172 C16.9167517,42.8346442 16.9299411,42.8680712 16.9428008,42.9011704 C17.0123749,42.8808521 17.084587,42.8667603 17.1511935,42.8392322 C20.6536425,41.3976124 24.2949101,40.5301498 28.0713693,40.2007959 C30.1552967,40.0192416 32.2319701,40.0883895 34.2980918,40.3613764 C35.53394,40.5245787 36.75495,40.800515 37.9818953,41.0282772 C38.473201,41.1197097 38.6842316,40.9548689 38.6842316,40.4691948 C38.6845614,37.4542135 38.6868695,34.4395599 38.6799451,31.4245787 C38.6792856,31.1699438 38.7551247,31.0014981 38.9480199,30.8192884 C40.7523318,29.1141854 42.5421354,27.3936798 44.3335876,25.6751404 C44.5301099,25.4863764 44.9129326,25.5515918 44.9801987,25.8065543 C45.0095451,25.9176498 44.9910799,26.0411985 44.9910799,26.159176 C44.9914097,31.8348783 44.9871231,37.5109082 44.9999828,43.1866105 C45.000972,43.5870787 44.9607443,43.8928371 44.5179097,44 L44.2013637,44 C44.1364059,43.9636236 44.0757346,43.9157772 44.0064901,43.8921816 C41.4246622,43.0155431 38.7765575,42.4125468 36.0776736,42.0382959 C32.9517824,41.6050562 29.8117125,41.5110019 26.6607614,41.7069757 C23.5797141,41.8986891 20.5468083,42.3728933 17.567979,43.1780899 C16.7076994,43.4107678 15.8556633,43.6729401 15,43.9213483 L15,41.5617978 C15.0817744,41.505103 15.1764084,41.460206 15.2436744,41.3897472 C17.7275709,38.7952247 19.9641659,36.0053839 21.916529,32.9946629 C24.8162217,28.5233146 27.1642673,23.796676 28.555091,18.6377809 C28.7882139,17.7735955 28.9121944,16.8799157 29.0862947,16"/>
</svg>
