<svg xmlns="http://www.w3.org/2000/svg" width="60" height="60" viewBox="0 0 60 60">
  <path fill="#FFFFFF" fill-rule="evenodd" d="M29.7088634,38.8035899 L29.7088634,33.6181235 C29.6929765,32.897304 29.529871,32.186281 29.2290791,31.5273344 C28.7424106,30.3007038 28.2769245,29.0668546 27.7976699,27.8402239 C27.425387,26.8646942 27.0817005,25.881946 26.6808211,24.8991978 C26.6135666,24.7496716 26.5272478,24.6089107 26.4229239,24.48104 C26.4229239,24.48104 26.2656436,24.48104 26.2582297,24.5161013 C25.9505535,25.9866144 25.3775662,27.3875204 25.0344092,28.8513306 C24.8125223,29.7850961 24.4762496,30.6982373 24.189756,31.6392213 C23.7888766,32.9493804 23.3594009,34.2461337 23.0088301,35.5702142 C22.9516373,35.8862817 22.7292207,36.1502728 22.4220741,36.2673158 C21.6060172,36.5880237 20.7973743,36.9644173 19.9739035,37.2361426 C19.7377184,37.319671 19.6233327,37.1175528 19.558726,36.9226531 C19.3871476,36.4415912 19.2150395,35.9610448 19.0503454,35.4799828 C18.4704737,33.7516659 17.9477948,31.9949906 17.303846,30.2945165 C16.544982,28.2872558 15.8724368,26.2382309 15.1564674,24.2170488 C14.905984,23.5828514 14.9128683,23.5967728 15.5001539,23.3456719 C16.5020874,22.901218 17.5273217,22.508325 18.5710907,22.1680239 C18.8215741,22.0911984 18.8215741,22.1680239 18.8787669,22.3144565 C19.0863557,22.948654 19.3299547,23.5761485 19.5158314,24.2170488 C19.8235076,25.2487798 20.0957031,26.3078379 20.3821968,27.3117261 C20.6686904,28.3156142 20.9546545,29.3262053 21.2411482,30.3295778 C21.2411482,30.4342462 21.3486495,30.5456174 21.4058424,30.5456174 C21.4789221,30.5270555 21.5377036,30.4749792 21.5631226,30.4064033 C21.7860687,29.8737806 21.977241,29.3292989 22.1355804,28.7755363 C22.3505831,27.7438053 22.7297503,26.7682756 23.0231283,25.7643875 C23.4669022,24.2727345 23.9392726,22.7955185 24.3904604,21.3038655 C24.5191443,20.8924105 24.6340595,20.4814712 24.7341469,20.0633134 C24.768039,19.8730542 24.9136688,19.7199187 25.1064298,19.6729984 C25.9367849,19.3894142 26.7650217,19.0970646 27.5906107,18.7949185 C28.2350891,18.557739 28.3065801,18.5716604 28.506755,19.1434693 C29.2868015,21.380691 30.1462825,23.5761485 31.055013,25.7649031 C31.197995,26.1134538 31.3054963,26.4620046 31.4341802,26.8244768 C31.4643653,26.8827405 31.5030234,26.9368793 31.5485658,26.9848308 C31.6057587,26.9291452 31.7058461,26.8801625 31.7275582,26.8105554 C31.8911932,26.3377432 32.0156405,25.853072 32.0998411,25.3606666 C32.2216406,24.2526258 32.6368182,23.2208948 32.8158105,22.1334782 C32.9948029,21.0460616 33.3596719,19.9452393 33.6392812,18.8578227 C33.8558726,18.1952668 34.0184485,17.5172427 34.1259498,16.8294221 C34.1259498,16.4643719 34.3838471,16.1467575 34.7487161,16.0627135 C35.2856931,15.8678138 35.8438527,15.7074598 36.3882437,15.5120445 C36.8034212,15.3656119 37.1968866,15.1707122 37.6120642,15.0242796 C37.841365,14.9407512 37.9340386,15.0799652 37.8699614,15.3310662 C37.547987,16.5509939 37.2397813,17.7704061 36.9035086,18.9903338 C36.6027168,20.0777504 36.2590303,21.15073 35.9587679,22.2314437 C35.5796007,23.6251312 35.2427985,24.9775701 34.8493331,26.3506334 C34.5485412,27.4658928 34.2768753,28.5878551 33.9331888,29.6891931 C33.4290447,31.0787557 33.2172194,32.5533937 33.3104225,34.0244224 C33.3294868,34.091967 33.360731,34.1559023 33.4036256,34.2126192 C33.4242786,34.1646677 33.4481089,34.118263 33.4751167,34.0734051 C34.4484538,32.7142633 35.4006084,31.3484186 36.4099558,30.009901 C37.4193032,28.6713835 38.4429488,27.347303 39.3590931,25.9536155 C39.5391446,25.733451 39.7922758,25.5808311 40.0750625,25.5215362 C41.4206825,25.0265529 42.7308218,24.4552596 44.0552593,23.918512 C44.2586116,24.0004936 44.2167761,24.0556636 44.1770588,24.1206302 C43.8333723,24.6156136 43.503984,25.1172998 43.1459993,25.5983618 C41.8501582,27.3684429 40.5474328,29.1318212 39.2590056,30.9091208 C38.6288255,31.7732793 38.0351851,32.6585777 37.4118893,33.5227361 C37.2975036,33.6830901 37.2471951,33.8016799 37.4118893,33.9408939 C37.5718174,34.0991855 37.7418071,34.2481961 37.9202699,34.3868946 L43.7687656,38.3039661 C43.9117477,38.394713 44.0123647,38.5411456 44.1479329,38.6452984 C44.4270126,38.8546351 44.7135063,39.0495348 45,39.251653 C44.6764369,39.484192 44.3094496,39.6522801 43.9191616,39.7466363 C42.816611,40.1787156 41.7071762,40.5690306 40.5977413,40.973267 C40.4383428,41.0119376 40.2826513,41.0629827 40.1322553,41.1264025 C40.0358748,41.215087 39.8849493,41.215087 39.7885688,41.1264025 C37.9414525,39.7327149 36.0874518,38.4014159 34.2334511,37.0283527 C34.0041503,36.8612958 33.8182736,36.6380377 33.5963866,36.4637623 C33.5963866,36.4637623 33.3602014,36.5194479 33.3602014,36.5684306 C33.3448441,36.8004541 33.3448441,37.0335088 33.3602014,37.2655322 L33.3602014,43.3708427 C33.3602014,43.6497864 33.3030086,43.7472363 32.966736,43.8519046 C32.0219953,44.1447698 31.1196197,44.5490062 30.2034754,44.9393212 C29.8672028,45.0718324 29.7454032,44.9950068 29.7454032,44.6325347 C29.7448737,42.70674 29.7088634,38.8035899 29.7088634,38.8035899 Z"/>
</svg>
