<svg xmlns="http://www.w3.org/2000/svg" width="60" height="60" viewBox="0 0 60 60">
  <path fill="#FFFFFF" d="M21.2075912,20.7172471 C20.7894072,20.2959569 20.220948,20.0590983 19.6280384,20.0590983 C19.0351289,20.0590983 18.4666697,20.2959569 18.0484857,20.7172471 L17.654004,21.1148175 C16.7815923,21.9919707 16.7824051,23.416598 17.654004,24.294566 L18.0742246,24.7173919 C18.9680736,23.2748959 20.1044687,21.9985014 21.4330093,20.9448181 L21.2075912,20.7172471 L21.2075912,20.7172471 Z M34.852705,18.5167601 C34.8556853,18.46815 34.8662518,18.4222556 34.8662518,18.3728309 L34.8662518,17.2485539 C34.8662518,16.0075042 33.8665006,15.0008147 32.6334741,15 L28.7241488,15 C27.4913933,15.0008147 26.4916421,16.0069611 26.4916421,17.2485539 L26.4916421,18.3532782 C29.2334809,17.5779227 32.143121,17.6348142 34.852705,18.5167601 Z M18.1170324,32.5294874 C18.1170324,39.4163627 23.6861072,45 30.5583807,45 C37.4303833,45 43,39.4160911 43,32.5297589 C43,25.6428837 37.4303833,20.0592463 30.5586516,20.0592463 C23.6861072,20.0592463 18.1167614,25.6431552 18.1167614,32.5294874 L18.1170324,32.5294874 Z M30.5583807,23.6221723 C35.4582454,23.6221723 39.445329,27.6179721 39.445329,32.5294874 C39.445329,37.4410026 35.4582454,41.437074 30.5586516,41.437074 C25.6582451,41.437074 21.6717033,37.4410026 21.6717033,32.5297589 C21.6717033,27.6179721 25.6582451,23.6221723 30.5583807,23.6221723 Z M32.6350997,25.5692897 L30.6106712,32.7597741 L37.1307289,29.1783817 C36.1743004,27.4209187 34.5550433,26.1209788 32.6350997,25.5692897 L32.6350997,25.5692897 Z"/>
</svg>
