<svg xmlns="http://www.w3.org/2000/svg" width="60" height="60" viewBox="0 0 60 60">
  <path fill="#FFFFFF" fill-rule="evenodd" d="M18,2.34367254 C18,1.04929794 19.0439292,0 20.3422077,0 L27.6577923,0 C28.9513579,0 30,1.04980469 30,2.34367254 L30,13.6563275 C30,14.9507021 28.9560708,16 27.6577923,16 L20.3422077,16 C19.0486421,16 18,14.9501953 18,13.6563275 L18,2.34367254 Z M0,2.35318318 C0,1.053556 1.04392916,0 2.34220773,0 L9.65779227,0 C10.9513579,0 12,1.05143285 12,2.35318318 L12,23.6468168 C12,24.946444 10.9560708,26 9.65779227,26 L2.34220773,26 C1.04864212,26 0,24.9485672 0,23.6468168 L0,2.35318318 Z" transform="translate(15 17)"/>
</svg>
