<svg xmlns="http://www.w3.org/2000/svg" width="60" height="60" viewBox="0 0 60 60">
  <path fill="#FFFFFF" d="M16.0567445,36.1575797 L12.1633333,24.8137953 C12.0810336,24.589682 12,24.2248463 12,23.9401441 C12,23.1225213 12.6299096,22.3589723 13.6168735,22.3589723 L31.7399113,22.3589723 C32.6464747,22.3589723 33.3023403,23.0932041 33.3023403,23.9401441 C33.3023403,24.1948776 33.2187744,24.5362596 33.1681284,24.7043446 L29.2196397,36.1575797 C28.8613193,37.1999674 28.1756991,37.6788143 27.3837223,37.6788143 L27.2710349,37.6788143 C26.4512028,37.6788143 25.7643164,37.1999674 25.4604404,36.217517 L23.7144196,30.7345576 C23.7144196,30.7345576 23.5074041,29.9547213 22.6400914,29.9547213 C21.7689802,29.9547213 21.5486701,30.7345576 21.5486701,30.7345576 L19.7887216,36.217517 C19.4835795,37.1999674 18.8017577,37.6788143 18.0040832,37.6788143 L17.8945612,37.6788143 C17.0709307,37.6794658 16.3859435,37.1993159 16.0567445,36.1575797 L16.0567445,36.1575797 Z M46.3842019,33.5822305 C45.954344,33.5138239 45.6859202,33.5985179 45.3750804,33.7757238 C44.6761656,34.224602 43.5404291,34.7646891 42.171721,34.7646891 C39.97685,34.7646891 38.0345759,33.3874343 37.7344983,30.7436785 C37.7344983,30.7436785 39.6875347,31.6583737 42.7934006,31.550226 C44.5710752,31.4883342 46.0455068,31.083106 46.9830909,30.4576734 C47.9365018,29.8218168 48.1061659,28.8765015 47.9478972,27.7963272 C47.448401,24.3785985 45.1781941,22 41.4728062,22 C37.0178575,22 33.93225,25.2958997 33.93225,30.0003257 C33.93225,34.3444766 36.9893691,38 41.9096279,38 C44.2387108,38 45.9859978,37.1009406 46.9463725,36.471599 C47.2686077,36.2298954 47.5446284,35.8598477 47.6167989,35.3849098 C47.7529101,34.4956228 47.2185948,33.716438 46.3842019,33.5822305 L46.3842019,33.5822305 Z"/>
</svg>
