<svg xmlns="http://www.w3.org/2000/svg" width="60" height="60" viewBox="0 0 60 60">
  <path fill="#FFFFFF" fill-rule="evenodd" d="M13.734806,15.9366 C13.4242388,16.3936909 13.1158209,16.8202364 12.8364179,17.2653273 C12.5548657,17.7142364 12.2598806,18.1620545 12.0465672,18.6447818 C11.7112836,19.4051455 11.5463284,20.1856909 12.2598806,20.8549636 C12.7993433,21.3611455 14.3156418,21.4566 15.0012537,21.0360545 C15.6895522,20.6133273 15.9098507,19.6620545 15.3951045,18.6382364 C14.9217313,17.6946 14.2930746,16.8316909 13.734806,15.9366 M8.38101493,10.4493273 C7.24298507,12.1293273 6.09367164,13.8071455 4.96477612,15.4991455 C4.27808955,16.5284182 3.57313433,17.5500545 2.96758209,18.6284182 C2.18847761,20.0166 2.78328358,21.1926 4.31731343,21.2580545 C6.06197015,21.3327818 7.812,21.2755091 9.45026866,21.2755091 C8.60185075,17.7906 11.2717612,15.8809636 12.2244179,13.3004182 C11.0272836,12.2924182 10.9053134,9.73041818 8.38101493,10.4493273 M18.1773134,21.2831455 C21.8767164,21.2831455 25.1747463,21.2836909 28.4733134,21.2831455 C29.5441791,21.2826 30.617194,21.3273273 31.6842985,21.2662364 C33.1259104,21.1838727 33.7486567,20.2320545 33.2457313,18.8607818 C33.0340299,18.2847818 32.6364179,17.7775091 32.3124179,17.2456909 C29.7752239,13.0811455 27.2111642,8.93296364 24.704597,4.74932727 C23.112,2.09132727 22.1029254,2.06950909 20.4592836,4.76623636 C20.2749851,5.06896364 20.1368955,5.40114545 19.9520597,5.70332727 C18.3814925,8.27732727 16.8055522,10.8475091 15.2097313,13.4536909 C16.3085373,15.8995091 18.9730746,17.7687818 18.1773134,21.2831455 M32.238806,24.0000545 L3.76119403,24.0000545 C2.18095522,23.2958727 0.929014925,22.2022364 0,20.7273273 L0,19.0909636 C1.09289552,17.2135091 2.13850746,15.3049636 3.29426866,13.4684182 C4.24262687,11.9613273 5.19528358,10.4226 6.37092537,9.10587273 C8.62871642,6.57823636 11.2905672,7.58896364 12.7348657,9.51332727 C13.0658507,9.9546 13.3613731,10.4236909 13.7638209,11.0138727 C15.3558806,8.45569091 16.9511642,6.1926 18.2186866,3.75441818 C19.1229851,2.01550909 20.3555821,0.829145455 22.0298507,5.45454545e-05 L23.641791,5.45454545e-05 C24.5401791,0.915872727 25.6325373,1.70514545 26.3036418,2.76823636 C29.5973731,7.98714545 32.778806,13.2791455 36,18.5455091 L36,21.2727818 C35.0768955,22.4149636 34.1081194,23.4796909 32.5133731,23.5986 C32.4128955,23.6056909 32.3301493,23.8604182 32.238806,24.0000545" transform="translate(12 18)"/>
</svg>
