<svg xmlns="http://www.w3.org/2000/svg" width="60" height="60" viewBox="0 0 60 60">
  <path fill="#FFFFFF" d="M18.4679688,13.6462222 C19.7798047,13.8498428 20.6880781,14.460878 21.1927031,15.2756206 C21.6972422,16.0902764 22,17.5160542 22,19.3490732 C22,23.0151978 20.8899453,26.070374 18.66975,28.4126179 C16.4495547,30.7549485 13.6238437,31.9768455 10.1927031,31.9768455 C8.88069531,31.9768455 7.56877344,31.7732249 6.25685156,31.264 C4.94492969,30.7549485 3.93576562,30.0420163 3.02749219,29.2273604 C2.01832812,28.3107209 1.21103125,27.1905474 0.70640625,26.1721843 C0.302757813,25.0520108 0,23.9317507 0,22.8115772 C0,21.5895068 0.302757813,20.5711436 0.807296875,19.8582981 C1.31192187,19.1454526 2.22010938,18.7380379 3.33025,18.432607 C3.12846875,17.9233821 2.92660156,17.5159675 2.82571094,17.1086396 C2.72473438,16.803122 2.62384375,16.4976911 2.62384375,16.2939837 C2.62384375,15.6829485 2.92660156,14.970103 3.63300781,14.2572575 C4.33941406,13.5444119 4.94492969,13.2388943 5.55044531,13.2388943 C5.85320313,13.2388943 6.05507031,13.2388943 6.35782813,13.3407046 C6.66058594,13.4425149 6.96334375,13.5443252 7.36699219,13.8498428 C6.45871875,10.7947534 5.55044531,8.24880217 5.04582031,6.5175935 C4.54128125,4.78638482 4.33941406,3.66621138 4.33941406,2.95327913 C4.33941406,2.03672629 4.54128125,1.32388076 5.04582031,0.814742547 C5.44964062,0.305430894 6.15604688,0 6.96342969,0 C8.27535156,0 9.99092187,3.05517615 12.1102266,9.26716531 C12.513875,10.2856152 12.7156562,11.100271 12.9175234,11.7113062 C13.1193906,11.3039783 13.3211719,10.5910461 13.6239297,9.77639024 C15.7430625,3.66612466 17.5596094,0.61103523 18.9725078,0.61103523 C19.6789141,0.61103523 20.2844297,0.814655827 20.7889687,1.32388076 C21.1927031,1.83310569 21.495375,2.54595122 21.495375,3.36060705 C21.495375,3.97164228 21.2935937,5.19371274 20.7889687,6.92492141 C20.1834531,8.6562168 19.4770469,10.8965637 18.4678828,13.6462222 L18.4679688,13.6462222 Z M2.92651562,22.6079566 C3.12838281,22.8115772 3.43114062,23.2189051 3.73389844,23.7281301 C4.64217187,25.0519241 5.55044531,25.7647696 6.35782812,25.7647696 C6.66058594,25.7647696 6.86236719,25.6629593 7.06423437,25.459252 C7.26601562,25.2555447 7.36699219,25.0519241 7.36699219,24.9500271 C7.36699219,24.7464065 7.26601562,24.3390786 6.96334375,23.8298537 C6.66058594,23.3206287 6.2569375,22.7096802 5.7523125,22.098645 C5.14679687,21.3857995 4.64217187,20.7747642 4.3395,20.4691599 C3.93576562,20.163729 3.63309375,19.9601084 3.43114062,19.9601084 C2.92660156,19.9601084 2.42197656,20.2655393 2.01832812,20.7747642 C1.61467969,21.2839024 1.4128125,21.996748 1.4128125,22.7096802 C1.4128125,23.3206287 1.51378906,23.931664 1.81654687,24.7464065 C2.11930469,25.459252 2.52295312,26.2739079 3.12846875,26.9868401 C4.03665625,28.0052033 5.04590625,28.9217561 6.35782812,29.5327046 C7.66975,30.1437398 8.98167187,30.4493442 10.5962656,30.4493442 C13.4219766,30.4493442 15.7430625,29.4308943 17.6605859,27.2923577 C19.5780234,25.1537344 20.4862109,22.5059729 20.4862109,19.2471762 C20.4862109,18.228813 20.3853203,17.5159675 20.2844297,16.9048455 C20.1834531,16.293897 19.8806953,15.8865691 19.5780234,15.6828618 C18.9725078,15.1736369 17.8623672,14.7663089 16.1467969,14.358981 C14.4312266,13.9516531 12.6146797,13.7479458 10.7981328,13.7479458 C10.2935937,13.7479458 9.88994531,13.8497561 9.68807812,14.0534634 C9.48621094,14.2571707 9.38532031,14.5626883 9.38532031,14.9700163 C9.38532031,15.9883794 9.88994531,16.7012249 11,17.1085528 C12.1100547,17.5159675 13.9266016,17.8213984 16.3486641,17.8213984 L17.2568516,17.8213984 C17.4587187,17.8213984 17.6605859,17.9232954 17.7614766,18.0251924 C17.8623672,18.228813 17.9633437,18.4324336 17.9633437,18.7380379 C17.7613906,18.9416585 17.2569375,19.2471762 16.4495547,19.5526938 C15.6421719,19.8582114 15.1376328,20.163729 14.7339844,20.4692466 C13.825625,21.0802818 13.1192187,21.8949377 12.6146797,22.8114905 C12.1100547,23.7280434 11.8072969,24.5426992 11.8072969,25.3574417 C11.8072969,25.8665799 11.9082734,26.3758049 12.1100547,27.0886504 C12.3120078,27.8014959 12.4128125,28.2088238 12.4128125,28.3107209 L12.4128125,28.7180488 C11.8072969,28.7180488 11.3027578,28.3107209 10.8991094,27.5978753 C10.495375,26.8850298 10.3944844,25.9683902 10.3944844,24.7464065 L10.3944844,24.5426992 C10.2935937,24.6445095 10.1927031,24.7464065 10.0917266,24.7464065 C9.99083594,24.7464065 9.88994531,24.8482168 9.68807812,24.8482168 L9.28442969,24.8482168 C9.18345312,24.8482168 9.0825625,24.7464065 8.88069531,24.7464065 C8.88069531,24.9500271 8.98167187,25.0519241 8.98167187,25.2555447 L8.98167187,25.6629593 C8.98167187,26.1720976 8.77980469,26.6813225 8.37615625,27.0886504 C7.97250781,27.4959783 7.46788281,27.6996856 6.86236719,27.6996856 C5.95409375,27.6996856 5.04590625,27.2923577 4.03674219,26.3758049 C3.12838281,25.459252 2.62392969,24.6445095 2.62392969,23.7280434 C2.62392969,23.524336 2.62392969,23.4225257 2.72473437,23.3206287 C2.72473437,22.8114905 2.82571094,22.7096802 2.92660156,22.6077832 L2.92651562,22.6079566 Z M9.486125,23.1170081 C9.68799219,23.1170081 9.99075,23.0151978 10.1925313,22.8115772 C10.3944844,22.6078699 10.4952891,22.3023523 10.4952891,22.0987317 C10.4952891,21.7932141 10.2935078,21.1820921 9.88985938,20.1638157 C9.486125,19.1454526 8.9815,18.1270894 8.37607031,17.2105366 C7.97242188,16.4976911 7.46779687,15.8866558 7.06414844,15.5810515 C6.6605,15.1737236 6.25676562,15.072 5.85311719,15.072 C5.55035937,15.072 5.24760156,15.2756206 4.84395312,15.6829485 C4.44030469,16.0902764 4.33932812,16.395794 4.33932812,16.803122 C4.33932812,17.1086396 4.54119531,17.7197615 4.84395312,18.432607 C5.24760156,19.1454526 5.65125,19.8582981 6.25676562,20.6729539 C6.86236719,21.4876965 7.46796875,22.200542 8.07339844,22.7097669 C8.67891406,22.9133875 9.0825625,23.1170949 9.48621094,23.1170949 L9.486125,23.1170081 Z M11.6053438,12.5259621 L9.18336719,5.70285095 C8.5779375,3.97164228 8.17420313,2.74957182 7.77055469,2.2404336 C7.46779688,1.73120867 7.16503906,1.42569106 6.76139063,1.42569106 C6.45863281,1.42569106 6.25676563,1.52758808 6.05498438,1.73120867 C5.75222656,2.03672629 5.65125,2.3422439 5.65125,2.74957182 C5.65125,3.46241734 5.95400781,4.58267751 6.45863281,6.21207588 C6.96325781,7.84147425 7.77055469,10.0819079 8.77980469,12.7296694 C8.88060938,12.5259621 8.98158594,12.4241518 9.18336719,12.4241518 C9.38523438,12.3223415 9.58710156,12.3223415 9.78888281,12.3223415 L10.2935078,12.3223415 C10.5962656,12.4241518 10.9999141,12.4241518 11.6054297,12.5259621 L11.6053438,12.5259621 Z M14.0274062,19.1453659 C13.4218906,19.1453659 12.8164609,19.0435556 12.2109453,18.9417453 C11.6054297,18.839935 11.1008047,18.7380379 10.5961797,18.5344173 C10.7981328,19.0435556 10.9999141,19.4509702 11.2017812,19.9601084 C11.4035625,20.4693333 11.5045391,20.8766612 11.6054297,21.3857995 C11.9081875,20.9784715 12.3118359,20.5711436 12.7154844,20.1638157 C13.2201094,19.7564878 13.6238437,19.4509702 14.0274062,19.1454526 L14.0274062,19.1453659 Z M16.9540078,13.2388076 C17.9632578,10.5910461 18.6696641,8.35069919 19.2751797,6.61940379 C19.7797188,4.88819512 20.0824766,3.86983198 20.0824766,3.46250407 C20.0824766,3.05508943 19.9815859,2.74965854 19.7797188,2.4440542 C19.5779375,2.2404336 19.3760703,2.13862331 19.0733125,2.13862331 C18.6696641,2.13862331 18.2659297,2.4440542 17.8622813,3.15698645 C17.4586328,3.86983198 16.9540078,4.88819512 16.4494688,6.4157832 L14.2292734,12.7296694 L16.9540078,13.2388943 L16.9540078,13.2388076 Z" transform="translate(19 15)"/>
</svg>
