<svg xmlns="http://www.w3.org/2000/svg" width="60" height="60" viewBox="0 0 60 60">
  <g fill="#FFFFFF" fill-rule="evenodd" transform="rotate(45 2.686 41.314)">
    <path d="M10.5,17.5 L17.5,17.5 L17.5,28 L1.17539797,28 C0.848888685,28 0.553474007,27.8682715 0.340476246,27.6554947 C0.130757921,27.4482148 0,27.1558503 0,26.8325229 L0,1.16747707 C0,0.522697289 0.520696633,0 1.16380209,0 L10.5,0 L10.5,17.5 Z M12.8333333,11.0833333 L10.5,11.0833333 L10.5,16.3379901 C10.5,16.9748972 11.0202496,17.5 11.6620099,17.5 L13.4143383,17.5 L10.5,17.5 L10.5,11.0833333 L12.8333333,11.0833333 Z" opacity=".8"/>
    <path d="M21,17.5 L28,17.5 L28,28 L11.675398,28 C11.3488887,28 11.053474,27.8682715 10.8404762,27.6554947 C10.6307579,27.4482148 10.5,27.1558503 10.5,26.8325229 L10.5,1.16747707 C10.5,0.522697289 11.0206966,0 11.6638021,0 L21,0 L21,17.5 Z M23.3333333,11.0833333 L21,11.0833333 L21,16.3379901 C21,16.9748972 21.5202496,17.5 22.1620099,17.5 L23.9143383,17.5 L21,17.5 L21,11.0833333 L23.3333333,11.0833333 Z" transform="rotate(180 19.25 14)"/>
  </g>
</svg>
