<svg xmlns="http://www.w3.org/2000/svg" width="200" height="200" viewBox="0 0 200 200">
  <g fill="#FFF" fill-rule="evenodd" transform="translate(44 44)">
    <path d="M23.8451613 11.9225806C23.8451613 18.3354839 18.6064516 23.5741935 12.1935484 23.5741935 5.78064516 23.5741935.541935484 18.3354839.541935484 11.9225806.541935484 5.50967742 5.78064516.270967742 12.1935484.270967742L23.8451613.270967742 23.8451613 11.9225806zM29.716129 11.9225806C29.716129 5.50967742 34.9548387.270967742 41.3677419.270967742 47.7806452.270967742 53.0193548 5.50967742 53.0193548 11.9225806L53.0193548 41.0967742C53.0193548 47.5096774 47.7806452 52.7483871 41.3677419 52.7483871 34.9548387 52.7483871 29.716129 47.5096774 29.716129 41.0967742 29.716129 41.0967742 29.716129 11.9225806 29.716129 11.9225806z" transform="translate(0 58.71)"/>
    <path d="M41.3677419 23.8451613C34.9548387 23.8451613 29.716129 18.6064516 29.716129 12.1935484 29.716129 5.78064516 34.9548387.541935484 41.3677419.541935484 47.7806452.541935484 53.0193548 5.78064516 53.0193548 12.1935484L53.0193548 23.8451613 41.3677419 23.8451613zM41.3677419 29.716129C47.7806452 29.716129 53.0193548 34.9548387 53.0193548 41.3677419 53.0193548 47.7806452 47.7806452 53.0193548 41.3677419 53.0193548L12.1935484 53.0193548C5.78064516 53.0193548.541935484 47.7806452.541935484 41.3677419.541935484 34.9548387 5.78064516 29.716129 12.1935484 29.716129 12.1935484 29.716129 41.3677419 29.716129 41.3677419 29.716129z"/>
    <path d="M29.4451613 41.3677419C29.4451613 34.9548387 34.683871 29.716129 41.0967742 29.716129 47.5096774 29.716129 52.7483871 34.9548387 52.7483871 41.3677419 52.7483871 47.7806452 47.5096774 53.0193548 41.0967742 53.0193548L29.4451613 53.0193548 29.4451613 41.3677419zM23.5741935 41.3677419C23.5741935 47.7806452 18.3354839 53.0193548 11.9225806 53.0193548 5.50967742 53.0193548.270967742 47.7806452.270967742 41.3677419L.270967742 12.1935484C.270967742 5.78064516 5.50967742.541935484 11.9225806.541935484 18.3354839.541935484 23.5741935 5.78064516 23.5741935 12.1935484L23.5741935 41.3677419z" transform="translate(58.71)"/>
    <path d="M11.9225806 29.4451613C18.3354839 29.4451613 23.5741935 34.683871 23.5741935 41.0967742 23.5741935 47.5096774 18.3354839 52.7483871 11.9225806 52.7483871 5.50967742 52.7483871.270967742 47.5096774.270967742 41.0967742L.270967742 29.4451613 11.9225806 29.4451613zM11.9225806 23.5741935C5.50967742 23.5741935.270967742 18.3354839.270967742 11.9225806.270967742 5.50967742 5.50967742.270967742 11.9225806.270967742L41.0967742.270967742C47.5096774.270967742 52.7483871 5.50967742 52.7483871 11.9225806 52.7483871 18.3354839 47.5096774 23.5741935 41.0967742 23.5741935L11.9225806 23.5741935z" transform="translate(58.71 58.71)"/>
  </g>
</svg>
