<svg xmlns="http://www.w3.org/2000/svg" width="60" height="60" viewBox="0 0 60 60">
  <path fill="#FFFFFF" d="M18.7826087,9.76153846 C18.3913043,10.4538462 17.9347826,11.2153846 17.4130435,11.9769231 C17.4130435,11.9769231 16.8913043,12.7384615 15.9130435,13.7769231 C6.32608696,23.6769231 0.326086957,11.0769231 0.130434783,2.07692308 L0.130434783,1.24615385 L0.130434783,1.10769231 L3.65217391,1.10769231 C3.97826087,5.60769231 4.76086957,13.2923077 9.58695652,14.1230769 C11.0217391,14.4 12.5869565,13.7769231 14.3478261,12.0461538 C15.1956522,11.2846154 15.8478261,10.1769231 15.8478261,10.1769231 C21.4565217,1.52307692 10.1086957,1.93846154 15.5869565,9.69230769 C15.326087,10.6615385 14.2173913,11.7692308 14.2173913,11.7692308 C12.1304348,9.13846154 11.3478261,6.92307692 11.3478261,5.19230769 C11.2826087,0.692307692 16.2391304,-0.553846154 18.7826087,1.73076923 C19.6304348,2.49230769 20.2173913,3.6 20.2173913,5.12307692 C20.2173913,6.36923077 19.7608696,7.96153846 18.7826087,9.76153846 Z M27,5.46923077 L29.5434783,5.60769231 C29.0217391,12.4615385 24.1304348,17.8615385 18.7826087,15.6461538 C18.326087,15.4384615 17.8043478,15.2307692 17.3478261,14.8846154 C17.4130435,14.8846154 17.4130435,14.8846154 17.4130435,14.8846154 C17.8695652,14.5384615 18.326087,14.0538462 18.7826087,13.5 C18.8478261,13.4307692 18.9782609,13.2923077 19.0434783,13.1538462 C23.4130435,15.5769231 26.2826087,11.1461538 26.9347826,5.81538462 C26.9347826,5.67692308 27,5.60769231 27,5.46923077 Z" transform="translate(15 21)"/>
</svg>
