<svg xmlns="http://www.w3.org/2000/svg" width="60" height="60" viewBox="0 0 60 60">
  <g fill="#FFFFFF" fill-rule="evenodd" transform="translate(14 14)">
    <path d="M27.4365925,27.1894836 C24.5319878,30.1578291 20.4811249,32 16,32 C11.581722,32 7.581722,30.209139 4.6862915,27.3137085 C1.790861,24.418278 5.41083001e-16,20.418278 0,16 L0,16 L0,16 C-1.07587359e-15,7.21482543 7.08038044,0.0833623277 15.8460265,0.000725510693 L15.8460265,10.17418 C12.6985838,10.255812 10.1721854,12.83287 10.1721854,16 L10.1721854,16 L10.1721854,16 C10.1721854,19.2186131 12.7813869,21.8278146 16,21.8278146 C17.6029262,21.8278146 19.0547052,21.1806762 20.1083246,20.1334119 L27.4365925,27.1894836 Z"/>
    <path d="M27.4365925,27.1894836 C30.2597242,24.3043989 32,20.3554311 32,16 L32,16 C32,7.163444 24.836556,-1.623249e-15 16,0 L16,0 L16,0 C15.9486186,9.43861578e-18 15.8972937,0.000242196686 15.8460265,0.000725510693 L15.8460265,10.17418 C15.8971896,10.172853 15.9485168,10.1721854 16,10.1721854 L16,10.1721854 L16,10.1721854 L16,10.1721854 C19.2186131,10.1721854 21.8278146,12.7813869 21.8278146,16 L21.8278146,16 C21.8278146,17.6156869 21.1703317,19.0778104 20.1083246,20.1334119 L27.4365925,27.1894836 Z" opacity=".5"/>
  </g>
</svg>
