<svg xmlns="http://www.w3.org/2000/svg" width="60" height="60" viewBox="0 0 60 60">
  <g fill="#FFFFFE" transform="translate(15 14)">
    <path d="M16.0723982,5.80945455 C10.4745799,5.80945455 5.93665158,10.3680098 5.93665158,15.9912727 C5.93665158,21.6145356 10.4745799,26.1730909 16.0723982,26.1730909 C21.6702165,26.1730909 26.2081448,21.6145356 26.2081448,15.9912727 C26.2081448,10.3680098 21.6702165,5.80945455 16.0723982,5.80945455 Z M16.0723982,21.8094545 C12.8736449,21.8094545 10.280543,19.2045658 10.280543,15.9912727 C10.280543,12.7779796 12.8736449,10.1730909 16.0723982,10.1730909 C19.2711515,10.1730909 21.8642534,12.7779796 21.8642534,15.9912727 C21.8642534,19.2045658 19.2711515,21.8094545 16.0723982,21.8094545 Z"/>
    <path d="M4.48868778,15.9912727 C4.48915944,9.81650453 9.29074316,4.71728965 15.4280543,4.37381818 L15.4280543,0.00581818182 C9.95992409,0.227702439 4.98810365,3.25408636 2.26129705,8.02052084 C-0.465509553,12.7869553 -0.565406571,18.6258899 1.99674208,23.4836364 L5.76144796,21.3018182 C4.92174967,19.6589008 4.48535898,17.8380765 4.48868778,15.9912727 Z M16.0723982,27.6276364 C12.1403283,27.6291694 8.47659117,25.6246221 6.34497738,22.3054545 L2.58027149,24.4872727 C5.49048694,29.1518389 10.5834384,31.9859512 16.0634978,31.990383 C21.5435573,31.9948149 26.6410448,29.1689439 29.558733,24.5090909 L25.7940271,22.3272727 C23.6584344,25.6363785 19.9982161,27.631979 16.0723982,27.6276364 Z M16.5864253,0 L16.5864253,4.36363636 C20.5124657,4.53943815 24.0820116,6.70285833 26.0673935,10.1098345 C28.0527754,13.5168107 28.1831793,17.7026178 26.4137557,21.2276364 L30.1784615,23.4094545 C32.7190383,18.5320963 32.5853252,12.685284 29.8244618,7.93027123 C27.0635984,3.17525843 22.0633143,0.179828635 16.5864253,0 Z"/>
  </g>
</svg>
