<svg xmlns="http://www.w3.org/2000/svg" width="60" height="60" viewBox="0 0 60 60">
  <path fill="#FFFFFE" d="M46,30.2119874 C46,21.2479495 38.8268991,14 30,14 C21.1731009,14 14,21.2479495 14,30.2119874 C14,33.1394322 14.7571606,35.8851735 16.0921544,38.2473186 C17.0087173,35.9659306 18.3437111,33.2605678 19.2204234,32.5943218 C19.2204234,32.5943218 21.252802,30.7369085 23.3449564,31.4233438 C23.3449564,31.4233438 32.4109589,34.7141956 34.8418431,37.7022082 C34.8418431,37.7022082 36.117061,39.5798107 35.5790785,41.4776025 C35.3599004,42.2851735 34.5628892,44.2233438 33.6662516,46 C40.739726,44.3242902 46,37.8839117 46,30.2119874 Z M36.4557908,34.1085174 C36.3163138,34.2094637 36.1768369,34.2902208 36.0373599,34.3507886 C35.5193026,34.5324921 34.9215442,34.3709779 34.5429639,33.9066246 C33.128269,32.1501577 27.6687422,29.3236593 25.6762142,29.3236593 C24.9190535,29.3236593 24.3212951,28.7179811 24.3013699,27.9507886 C24.3013699,27.1835962 24.8991283,26.577918 25.6562889,26.5577287 C28.6650062,26.5375394 34.8816936,29.9293375 36.6550436,32.1501577 C37.1332503,32.7760252 37.0535492,33.644164 36.4557908,34.1085174 Z M40.3013699,32.4933754 C36.615193,27.8902208 27.50934,23.8321767 22.9265255,23.8523659 C22.249066,23.8523659 21.6911582,23.3072555 21.6911582,22.6208202 C21.6911582,21.9343849 22.2291407,21.3690852 22.9066002,21.3690852 C28.1469489,21.3488959 37.9302615,25.6088328 42.1942715,30.918612 C42.6127024,31.4435331 42.5330012,32.2309148 42.014944,32.6548896 C41.8953923,32.755836 41.7758406,32.8164038 41.6363636,32.8769716 C41.1780822,33.0586751 40.6400996,32.9173502 40.3013699,32.4933754 Z"/>
</svg>
