<svg xmlns="http://www.w3.org/2000/svg" width="360" height="360" viewBox="0 0 360 360">
  <g fill="#FFF" fill-rule="evenodd" transform="translate(80 67)">
    <path fill-rule="nonzero" d="M77.3562987,226.904296 L77.3562987,197.822797 C41.5991705,189.18555 13.4377676,161.669749 3.97371506,126.122513 C-5.49033753,90.5752775 5.2612462,52.6993304 31.9900392,27.4259082 C58.7188322,2.15248595 97.1368245,-6.46388164 132.099098,4.97349992 C133.441698,5.36549991 134.828398,5.8897999 136.175898,6.39939989 L137.391098,6.85509988 C138.199598,7.16869988 138.816998,7.40879987 139.434398,7.67339987 C141.139598,8.34469986 143.055498,9.20709984 145.353598,10.3340998 C147.277664,11.2977665 149.160897,12.3316665 151.003297,13.4357998 C182.328997,31.8401995 201.737897,69.8739988 199.302597,108.084198 C195.563897,166.884197 146.764798,216.481996 83.2754986,226.012496 L77.3562987,226.904296 Z M100.876298,10.2545858 L100.748898,10.2545858 C54.2355625,10.0262048 15.2113285,45.2803545 10.7301016,91.5778887 C6.24887462,137.875423 37.7873959,179.959477 83.4812986,188.654897 L87.6462985,189.463397 L87.6462985,214.845396 C143.467098,203.947797 185.690397,159.612597 189.007697,107.427598 C191.202897,72.9658988 173.817697,38.7393993 145.740698,22.2508996 L145.701498,22.2263996 C144.079598,21.2463996 142.413598,20.3398997 140.752498,19.5068997 C138.748398,18.5268997 137.067698,17.7673997 135.504598,17.1499997 C134.872498,16.8804997 134.348198,16.6599997 133.818998,16.4737997 L132.495998,15.9837997 C131.285698,15.5231997 130.139098,15.0870997 129.026798,14.7636997 C119.944393,11.7806428 110.445842,10.2590222 100.886098,10.2545858 L100.876298,10.2545858 Z"/>
    <path d="M81.6633986,51.8419991 C84.5840893,51.4786723 87.4935562,52.5961429 89.4200985,54.8211991 C90.8897163,56.4283598 92.0938772,58.2594122 92.9872984,60.245499 C96.1477984,67.2132989 98.0195983,77.2043987 94.1142984,82.8099986 C85.8003389,80.6817154 78.7387286,75.2059076 74.6073987,67.6836988 C73.5743683,65.6447763 72.9943527,63.4066182 72.9070988,61.122599 C73.0456434,56.2543327 76.8114001,52.2630942 81.6633986,51.8419991 L81.6633986,51.8419991 Z M53.8166991,91.1644984 C55.6909662,92.5490066 57.6888103,93.7578827 59.784899,94.7757984 C67.4696697,98.09124 76.2263417,97.8437649 83.7115986,94.0995984 C80.7833622,86.4643668 74.8622093,80.3573481 67.3210989,77.1945987 C65.0970545,76.1959993 62.6929297,75.6608231 60.255299,75.6216987 C59.7352026,75.5775086 59.2122954,75.5775086 58.692199,75.6216987 C55.0430604,75.7699532 51.8798573,78.1932536 50.78676,81.6779818 C49.6936628,85.1627099 50.9060322,88.9585496 53.8166991,91.1644984 Z M83.7066986,107.986198 C79.8993986,105.447998 72.0495988,106.472098 67.4778989,106.555398 C64.6706384,106.595294 61.8979697,107.181116 59.314499,108.280198 C57.0982942,109.063843 55.0668477,110.294719 53.3462991,111.896398 C50.4149021,114.466184 49.4961871,118.644154 51.0791316,122.206621 C52.662076,125.769089 56.3785111,127.887479 60.250399,127.434298 C62.6942657,127.450695 65.1100591,126.912921 67.3161989,125.861398 C74.3525987,122.823398 82.7070986,114.493398 83.7115986,107.986198 L83.7066986,107.986198 Z M96.4956984,117.786198 C88.3381288,120.805971 81.7538751,127.004787 78.2480987,134.965598 C77.2548744,136.969351 76.7177143,139.168193 76.6751987,141.404198 C76.5854136,145.280001 78.8981964,148.808692 82.4879194,150.272864 C86.0776423,151.737036 90.1986278,150.832542 92.8451984,147.999597 C94.1746585,146.123119 95.323135,144.12477 96.2751984,142.031398 C99.3180983,135.499698 100.518598,123.803398 96.5005984,117.786198 L96.4956984,117.786198 Z M109.024998,82.6678986 C117.008324,80.3237509 123.607054,74.6755952 127.154998,67.1495989 C128.144296,65.0891321 128.677457,62.8394962 128.718098,60.554199 C128.8306,55.5213524 124.951622,51.2964236 119.927498,50.9795991 C116.954094,50.6550409 114.014356,51.8327733 112.087498,54.1204991 C110.748561,55.9953468 109.591806,57.993826 108.632998,60.088699 C105.594998,67.1152989 104.507198,77.1406987 109.029898,82.6433986 L109.024998,82.6678986 Z M129.644198,142.031398 C129.599639,139.747053 129.063153,137.499159 128.071298,135.440898 C124.833563,127.850219 118.490947,122.016226 110.656698,119.422798 C106.759079,126.538197 106.350702,135.050873 109.549298,142.506698 C110.391649,144.509247 111.549685,146.363759 112.979298,147.999597 C118.530998,154.026597 130.153798,149.567597 129.649098,142.031398 L129.644198,142.031398 Z M150.224197,111.259398 C148.348582,109.931292 146.35199,108.782882 144.260898,107.829398 C141.677088,106.731391 138.904633,106.145614 136.097498,106.104598 C130.743445,105.658007 125.364441,106.59444 120.476298,108.824098 C123.365687,116.363114 129.247677,122.369272 136.724698,125.415498 C138.949443,126.411368 141.353336,126.944825 143.790498,126.983498 C147.718159,127.433091 151.46521,125.214298 152.959354,121.554217 C154.453497,117.894136 153.329709,113.686936 150.209497,111.259398 L150.224197,111.259398 Z"/>
  </g>
</svg>
