<svg xmlns="http://www.w3.org/2000/svg" width="60" height="60" viewBox="0 0 60 60">
  <g fill="none" fill-rule="evenodd" transform="translate(5 5)">
    <rect width="48" height="48" x="1" y="1" stroke="#FFFFFF" stroke-opacity=".2" stroke-width="2" opacity="0" rx="4"/>
    <path fill="#FFFFFF" d="M39.4736842,26.9736842 C39.4736842,27.7192982 38.9035088,28.2894737 38.1578947,28.2894737 C37.4122807,28.2894737 36.8421053,27.7192982 36.8421053,26.9736842 L36.8421053,15.1315789 C36.8421053,14.3859649 37.4122807,13.8157895 38.1578947,13.8157895 C38.9035088,13.8157895 39.4736842,14.3859649 39.4736842,15.1315789 L39.4736842,26.9736842 Z M39.0350877,35.2192982 C38.8157895,35.3947368 33.9473684,39.4736842 25,39.4736842 C16.0526316,39.4736842 11.1842105,35.3947368 10.9649123,35.2192982 C10.3947368,34.7368421 10.3508772,33.9035088 10.8333333,33.377193 C11.3157895,32.8070175 12.1491228,32.7631579 12.6754386,33.245614 C12.7631579,33.245614 17.1052632,36.8421053 25,36.8421053 C32.9824561,36.8421053 37.2807018,33.245614 37.2807018,33.2017544 C37.8508772,32.7192982 38.6842105,32.8070175 39.122807,33.3333333 C39.6491228,33.9035088 39.5614035,34.7368421 39.0350877,35.2192982 Z M10.5263158,15.1315789 C10.5263158,14.3859649 11.0964912,13.8157895 11.8421053,13.8157895 C12.5877193,13.8157895 13.1578947,14.3859649 13.1578947,15.1315789 L13.1578947,26.9736842 C13.1578947,27.7192982 12.5877193,28.2894737 11.8421053,28.2894737 C11.0964912,28.2894737 10.5263158,27.7192982 10.5263158,26.9736842 L10.5263158,15.1315789 Z M17.1052632,12.5 C17.1052632,11.754386 17.6754386,11.1842105 18.4210526,11.1842105 C19.1666667,11.1842105 19.7368421,11.754386 19.7368421,12.5 L19.7368421,30.0877193 C19.7368421,30.8333333 19.1666667,31.4035088 18.4210526,31.4035088 C17.6754386,31.4035088 17.1052632,30.8333333 17.1052632,30.0877193 L17.1052632,12.5 Z M23.6842105,11.8421053 C23.6842105,11.0964912 24.254386,10.5263158 25,10.5263158 C25.745614,10.5263158 26.3157895,11.0964912 26.3157895,11.8421053 L26.3157895,30.9210526 C26.3157895,31.6666667 25.745614,32.2368421 25,32.2368421 C24.254386,32.2368421 23.6842105,31.6666667 23.6842105,30.9210526 L23.6842105,11.8421053 Z M30.2631579,12.5 C30.2631579,11.754386 30.8333333,11.1842105 31.5789474,11.1842105 C32.3245614,11.1842105 32.8947368,11.754386 32.8947368,12.5 L32.8947368,30.0877193 C32.8947368,30.8333333 32.3245614,31.4035088 31.5789474,31.4035088 C30.8333333,31.4035088 30.2631579,30.8333333 30.2631579,30.0877193 L30.2631579,12.5 Z"/>
  </g>
</svg>
