<svg xmlns="http://www.w3.org/2000/svg" width="60" height="60" viewBox="0 0 60 60">
  <path fill="#FFFFFE" d="M30.042987,15 C21.1974941,15 14,22.3234976 14,31.3235612 C14,37.0588871 16.9484976,42.0882035 21.2843691,45 L22.0648684,44.4706518 C22.2382433,44.3823847 22.4984931,44.2058506 22.671868,44.1177107 C22.9319927,44.0294436 23.1922425,43.8529094 23.3656174,43.7647695 C23.6257422,43.6765024 23.885992,43.5882353 24.1461168,43.4118283 C24.3194916,43.3235612 24.5797414,43.2352941 24.7531163,43.147027 C25.013241,43.0588871 25.3601158,42.97062 25.6203656,42.8823529 C25.8803653,42.7940859 26.0538652,42.7940859 26.314115,42.7059459 C26.5741148,42.6176789 26.7476146,42.6176789 27.0078644,42.5294118 C27.2678642,42.4411447 27.528114,42.4411447 27.7882388,42.4411447 C28.0484886,42.4411447 28.3953633,42.3530048 28.6554881,42.3530048 L28.6554881,32.6470588 L27.7882388,32.6470588 L27.7882388,30.8823529 L32.1242353,30.8823529 L32.1242353,42.5294118 C34.5523583,42.8823529 36.7203565,43.7647695 38.7148549,45 C43.1374763,42.0882035 45.999224,37.0588871 45.999224,31.3235612 C46.0859739,22.3233704 38.8882298,15 30.042987,15 Z M34.8124831,31.3235612 C34.8124831,28.6764388 32.6444848,26.4706518 30.042987,26.4706518 C27.4413641,26.4706518 25.2734908,28.6764388 25.2734908,31.3235612 C25.2734908,33.1765342 26.314115,34.852973 27.8749887,35.6471224 L27.8749887,36.6175517 C25.8804903,35.7352623 24.4062415,33.7058824 24.4062415,31.3235612 C24.4062415,28.1470906 26.9211145,25.5882353 30.042987,25.5882353 C33.1648594,25.5882353 35.6797324,28.1470906 35.6797324,31.3235612 C35.6797324,33.3529412 34.6391082,35.1176471 33.0781095,36.1764706 L33.0781095,35.1176471 C34.1187336,34.1470906 34.8124831,32.823593 34.8124831,31.3235612 L34.8124831,31.3235612 Z M33.0781095,40.9412401 L33.0781095,39.9705564 C36.6336066,38.7353259 39.1484796,35.2941812 39.1484796,31.2352941 C39.1484796,26.2058506 35.0726079,22.0588235 30.042987,22.0588235 C25.013241,22.0588235 20.9374944,26.2058506 20.9374944,31.3235612 C20.9374944,35.6471224 23.885992,39.3529412 27.8749887,40.3234976 L27.8749887,41.2059141 C23.4523673,40.2353577 20.0703701,36.1764706 20.0703701,31.3235612 C20.0703701,25.6765024 24.4928665,21.1765342 30.042862,21.1765342 C35.5928574,21.1765342 40.0156039,25.6763752 40.0156039,31.323434 C40.0156039,35.8235294 37.0672312,39.7058824 33.0781095,40.9412401 Z"/>
</svg>
