<svg xmlns="http://www.w3.org/2000/svg" width="60" height="60" viewBox="0 0 60 60">
  <path fill="#FFFFFF" d="M37.4375,37.7975376 L37.4375,25.7647059 C37.4375,25.5348837 37.359375,25.3378933 37.203125,25.1737346 C37.046875,25.0095759 36.8645833,24.9274966 36.65625,24.9274966 L35.203125,24.9274966 C34.9947917,24.9274966 34.8125,25.0095759 34.65625,25.1737346 C34.5,25.3378933 34.421875,25.5348837 34.421875,25.7647059 L34.421875,37.7975376 C34.421875,38.0164159 34.5,38.2079343 34.65625,38.372093 C34.8125,38.5362517 34.9947917,38.6183311 35.203125,38.6183311 L36.65625,38.6183311 C36.8645833,38.6183311 37.046875,38.5362517 37.203125,38.372093 C37.359375,38.2079343 37.4375,38.0164159 37.4375,37.7975376 Z M33,37.7975376 L33,29.0807114 C33,28.8618331 32.921875,28.6703146 32.765625,28.506156 C32.609375,28.3419973 32.4270833,28.2599179 32.21875,28.2599179 L30.640625,28.2599179 C30.4322917,28.2599179 30.25,28.3419973 30.09375,28.506156 C29.9375,28.6703146 29.859375,28.8618331 29.859375,29.0807114 L29.859375,37.7975376 C29.859375,38.0164159 29.9375,38.2079343 30.09375,38.372093 C30.25,38.5362517 30.4322917,38.6183311 30.640625,38.6183311 L32.21875,38.6183311 C32.4270833,38.6183311 32.609375,38.5362517 32.765625,38.372093 C32.921875,38.2079343 33,38.0164159 33,37.7975376 Z M28.4375,37.7975376 L28.4375,30.75513 C28.4375,30.5362517 28.359375,30.3447332 28.203125,30.1805746 C28.046875,30.0164159 27.8645833,29.9343365 27.65625,29.9343365 L26.078125,29.9343365 C25.8697917,29.9343365 25.6875,30.0164159 25.53125,30.1805746 C25.375,30.3447332 25.296875,30.5362517 25.296875,30.75513 L25.296875,37.7975376 C25.296875,38.0164159 25.375,38.2079343 25.53125,38.372093 C25.6875,38.5362517 25.8697917,38.6183311 26.078125,38.6183311 L27.65625,38.6183311 C27.8645833,38.6183311 28.046875,38.5362517 28.203125,38.372093 C28.359375,38.2079343 28.4375,38.0164159 28.4375,37.7975376 Z M23.875,37.7975376 L23.875,31.8549932 C23.875,31.6361149 23.796875,31.4445964 23.640625,31.2804378 C23.484375,31.1162791 23.3020833,31.0341997 23.09375,31.0341997 L21.515625,31.0341997 C21.3072917,31.0341997 21.125,31.1162791 20.96875,31.2804378 C20.8125,31.4445964 20.734375,31.6361149 20.734375,31.8549932 L20.734375,37.7975376 C20.734375,38.0164159 20.8125,38.2079343 20.96875,38.372093 C21.125,38.5362517 21.3072917,38.6183311 21.515625,38.6183311 L23.09375,38.6183311 C23.3020833,38.6183311 23.484375,38.5362517 23.640625,38.372093 C23.796875,38.2079343 23.875,38.0164159 23.875,37.7975376 Z M46,35.4008208 C46,37.2175103 45.3854167,38.7715458 44.15625,40.0629275 C42.9270833,41.3543092 41.4479167,42 39.71875,42 L20.28125,42 C18.5520833,42 17.0729167,41.3543092 15.84375,40.0629275 C14.6145833,38.7715458 14,37.2175103 14,35.4008208 C14,34.1313269 14.328125,32.9575923 14.984375,31.879617 C15.640625,30.8016416 16.515625,29.9890561 17.609375,29.4418605 C17.5052083,29.0697674 17.453125,28.6703146 17.453125,28.2435021 C17.453125,27.0068399 17.8723958,25.9480164 18.7109375,25.0670315 C19.5494792,24.1860465 20.5572917,23.745554 21.734375,23.745554 C22.796875,23.745554 23.734375,24.1121751 24.546875,24.8454172 C25.015625,22.8426813 26.0260417,21.2010944 27.578125,19.9206566 C29.1302083,18.6402189 30.890625,18 32.859375,18 C34.4114583,18 35.84375,18.4021888 37.15625,19.2065663 C38.46875,20.0109439 39.5078125,21.1025992 40.2734375,22.4815321 C41.0390625,23.8604651 41.421875,25.3652531 41.421875,26.995896 C41.421875,27.7181943 41.3489583,28.3857729 41.203125,28.998632 C42.609375,29.3597811 43.7604167,30.1395349 44.65625,31.3378933 C45.5520833,32.5362517 46,33.8905609 46,35.4008208 Z"/>
</svg>
