<svg xmlns="http://www.w3.org/2000/svg" width="60" height="60" viewBox="0 0 60 60">
  <path fill="#FFFFFF" fill-rule="evenodd" d="M19.5130441,46 C18.3480743,45.6397521 17.2460588,45.1938466 16.4569062,44.228528 C15.1030741,42.5718736 14.9905197,40.3198685 16.1993665,38.6018565 C17.410757,36.880807 19.6624807,36.1104961 21.7520498,36.7028093 C23.8015571,37.2841875 25.2774822,39.1674397 25.2908361,41.2177545 C25.30419,43.2808269 23.9001217,45.113049 21.808009,45.7685422 C21.5981618,45.8341523 21.3965814,45.9222399 21.1918214,46 L19.5130441,46 Z M45,30.3992606 C44.9459485,30.5280507 44.8747276,30.6531959 44.8410249,30.7874535 C44.3551969,32.7211283 42.4055259,34.0849673 40.4501319,33.8541171 C38.2346545,33.5916768 36.6887804,31.9350224 36.7237549,29.8598 C36.7574576,27.9060777 38.3421217,26.2020383 40.2835259,26.0313306 C42.5460599,25.8326778 44.373638,27.0725868 44.8480198,29.1229016 C44.8798148,29.2608043 44.9484921,29.3908094 45,29.5244596 L45,30.3992606 Z M39.6842533,14.0000223 C42.4268922,14.0079198 44.6957852,16.1918848 44.6550876,18.7840903 C44.6143899,21.3726507 42.3664816,23.4982957 39.6740789,23.4946507 C36.9295323,23.4916132 34.6987933,21.3295182 34.7267729,18.7008627 C34.7541167,16.0861797 36.9625991,13.9921248 39.6842533,14.0000223 Z M32.0463251,36.2343048 C34.3495568,36.2336973 36.1472475,37.9498868 36.1478834,40.1496468 C36.1485193,42.3409018 34.3304797,44.0905038 32.0526841,44.0911113 C29.7965091,44.0917188 27.9256898,42.3080968 27.9237821,40.1557218 C27.9225103,37.9845143 29.7621705,36.2349123 32.0463251,36.2343048 Z M32.0270573,19.8282017 C32.0296009,22.0091292 30.2058383,23.7739187 27.9394889,23.7830312 C25.6922165,23.7915363 23.8086792,22.0018392 23.8023202,19.8512867 C23.7959612,17.6843317 25.6368931,15.9225797 27.9153247,15.9152897 C30.2052024,15.9073922 32.0245137,17.6387692 32.0270573,19.8282017 Z M19.1416782,33.9098856 C16.8556159,33.9153531 15.0127762,32.1791161 15.0000582,30.0085161 C14.9879761,27.8622162 16.8594313,26.0579391 19.1086114,26.0470041 C21.3654223,26.0360691 23.2222517,27.8032886 23.2368774,29.9763186 C23.2515032,32.1566386 21.4315559,33.9044181 19.1416782,33.9098856 Z M18.241879,17.9804883 C19.8430764,17.9902083 21.1511238,19.2386223 21.1466725,20.7519065 C21.1422212,22.2603307 19.8182763,23.5257547 18.2348841,23.5342597 C16.6222404,23.5433722 15.2607774,22.2354232 15.2925724,20.708774 C15.3250033,19.1833397 16.6355943,17.9707683 18.241879,17.9804883 Z M38.8825735,39.2379705 C38.885753,37.6821612 40.1429283,36.4738423 41.7651105,36.4683748 C43.4038261,36.4635148 44.7061504,37.7210412 44.6851657,39.2890005 C44.6660886,40.8028923 43.3275181,42.0567737 41.7498489,42.0397637 C40.157554,42.0227537 38.879394,40.7737323 38.8825735,39.2379705 Z"/>
</svg>
