<svg xmlns="http://www.w3.org/2000/svg" width="60" height="60" viewBox="0 0 60 60">
  <g fill="#FFFFFF" fill-rule="evenodd" transform="translate(14 14)">
    <path d="M19.7752809 32L12.2247191 32C10.7796854 31.6730435 9.34723596 31.277913 7.88782022 31.032 4.1585618 30.4041739 1.42022472 28.7053913.468853933 24.9311304.386157303 24.6031304.159640449 24.3095652 0 24L0 22.6086957 5.84377528 22.6086957C6.68332584 25.4198261 7.30319101 26.3196522 9.27137079 26.688 13.7229663 27.5210435 18.1950562 27.4782609 22.6308315 26.5033043 24.4814382 26.0966957 25.4637303 24.8292174 25.8031461 23.1113043 25.9811236 22.2107826 26.016 21.2664348 25.9789663 20.3467826 25.8337079 16.7255652 24.2329888 15.2486957 20.5004944 15.1669565 17.7481348 15.1064348 14.9860674 15.1293913 12.2477303 14.8973913 9.87649438 14.6963478 7.49698876 14.3290435 5.18759551 13.7749565 3.19244944 13.2963478 1.39038202 12.1036522 1.13653933 10.0153043.71694382 6.56765217-.424269663 2.8866087 2.87640449 0L4.6741573 0C6.72719101 1.5666087 6.92170787 3.69565217 6.82714607 6.03026087 6.70310112 9.096 7.58004494 9.92347826 10.7430112 10.114087 14.7962247 10.357913 18.8580674 10.4921739 22.904809 10.8090435 27.4854831 11.1676522 30.0918652 13.3001739 31.4153708 17.5116522 31.587236 18.058087 31.8040449 18.5913043 32 19.1304348L32 23.3043478C31.8723596 23.5530435 31.6778427 23.789913 31.6271461 24.0521739 30.7919101 28.3961739 27.8673258 30.4751304 23.5599101 31.1356522 22.2835056 31.3311304 21.0362247 31.7067826 19.7752809 32M29.4831461 0C31.6645393 1.57286957 31.8277753 3.78086957 31.6807191 6.16313043 31.5588315 8.14365217 31.6559101 10.1370435 31.6559101 12.3593043 29.6345169 11.1902609 27.9424719 10.2226087 26.2676854 9.22713043 26.0886292 9.12069565 25.8941124 8.84973913 25.9027416 8.66365217 26.044764 5.64591304 24.529618 2.23547826 28.0449438 0L29.4831461 0z"/>
  </g>
</svg>
