<svg xmlns="http://www.w3.org/2000/svg" width="60" height="60" viewBox="0 0 60 60">
  <path fill="#FFFFFF" d="M40.611446,18.2625235 C37.7830988,15.5138466 34.0230156,14 30.0113785,14 C21.7425761,14.0053688 15.0107115,20.5530604 15.0046863,28.5947502 L15,31.0657123 L16.9756086,29.7568572 C18.3195714,28.8667708 19.8760913,28.3962662 21.477633,28.3962662 C21.9556352,28.3962662 22.4383238,28.4387287 22.9119744,28.5226777 C24.4052293,28.7870517 25.7438363,29.4441637 26.8277097,30.4317026 C27.0760834,29.8997006 27.3684749,29.3826662 27.713587,28.8897103 C27.8551802,28.6874844 28.0048069,28.4929052 28.1596221,28.3030439 C26.7940688,27.1820978 25.1538651,26.4276963 23.3635325,26.1107727 C22.7394183,26.0004677 22.1039231,25.9446645 21.474453,25.9446645 C20.1706585,25.9446645 18.9005048,26.177151 17.6904362,26.6361044 C18.6702068,20.8011653 23.8838788,16.4556691 30.0222574,16.4512764 C33.3493604,16.4512764 36.4766264,17.7103477 38.828645,19.9960039 C40.7050046,21.8197782 41.9053659,24.1005537 42.3194336,26.616256 C41.1090302,26.1566518 39.8336882,25.9213996 38.5221946,25.9163562 L38.338425,25.9155427 C38.2040286,25.9181458 38.0706365,25.9209115 37.9399224,25.9282327 C37.710796,25.9396211 37.4831758,25.9597948 37.2577316,25.9851747 C37.1904498,25.9923332 37.1243395,26.0025827 37.0577271,26.0115308 C36.8962173,26.0326807 36.7353768,26.0564337 36.5762102,26.084254 C36.5055809,26.0967813 36.4352865,26.1106101 36.3653268,26.1242762 C36.2031475,26.1563264 36.0423071,26.1919559 35.8831405,26.2310019 C35.8255659,26.2453188 35.7679914,26.2586595 35.710919,26.2736272 C35.5099104,26.326502 35.3107428,26.3849083 35.1144205,26.4488462 C35.1027048,26.4527508 35.0904869,26.4560046 35.0787711,26.4597465 C34.6329035,26.6076333 34.20076,26.78513 33.7830102,26.9893081 C33.7716293,26.9950023 33.7604156,27.0008592 33.7486999,27.0065535 C33.5532144,27.102867 33.3617457,27.2058508 33.1731222,27.3142035 C33.1577244,27.3231516 33.1419918,27.3322623 33.1264266,27.3413731 C32.1397939,27.9163257 31.2569292,28.6536446 30.5129796,29.5344576 C30.482184,29.5707379 30.4515556,29.6068554 30.4210947,29.6436238 C30.2597523,29.8401554 30.102594,30.0410796 29.9551429,30.2514401 C29.8297845,30.430401 29.713464,30.6131039 29.6006581,30.797759 C29.5750509,30.8398961 29.5497784,30.8825214 29.5248405,30.9249839 C29.4220768,31.0989014 29.323832,31.2750965 29.2322818,31.4534066 C29.2270935,31.4636562 29.221905,31.473255 29.2167166,31.4835046 C29.0041596,31.9008089 28.8237371,32.329827 28.6732736,32.7676305 C28.6732736,32.7679558 28.6731062,32.7681186 28.6731062,32.7686066 L28.6731062,32.7690947 C28.3045625,33.8428601 28.1258137,34.9688497 28.1447263,36.1081799 C28.1452284,36.1534082 28.1452284,36.1986364 28.1469021,36.2440275 C28.1494126,36.3325318 28.1539316,36.4213615 28.1591199,36.5103538 C28.1631368,36.5811247 28.1678231,36.6514076 28.1731788,36.7216904 C28.1788693,36.7966912 28.185062,36.8718549 28.1929282,36.9470185 C28.2021335,37.0386139 28.213347,37.1300467 28.2252302,37.2216421 C28.2325944,37.2798857 28.2391217,37.3384548 28.2479922,37.3963731 C28.2704195,37.5488152 28.2955247,37.700932 28.3251487,37.8530488 C28.8336119,40.4660407 30.3479551,42.744213 32.589511,44.2683092 L32.8762119,44.4464567 L32.878555,44.4409252 C34.1520561,45.2457612 35.6126742,45.7736959 37.1245068,45.9731559 L37.3291975,46 L38.849566,43.6281173 L38.3029429,43.6136377 C34.0961552,43.5013804 30.6739874,40.0819255 30.6739874,35.9908791 C30.6739874,31.9642587 33.9112139,28.6204555 38.0423514,28.3782074 L38.3037798,28.368446 C39.9784612,28.3272849 41.6285396,28.808039 43.0292402,29.7350566 L44.9958108,31.0361024 L44.9999951,28.5778302 C45.003175,24.6798989 43.4446468,21.0164065 40.611446,18.2625235"/>
</svg>
