<svg xmlns="http://www.w3.org/2000/svg" width="60" height="60" viewBox="0 0 60 60">
  <path fill="#FFFFFF" d="M46,30 C46,38.8364444 38.8364444,46 30,46 C21.1635556,46 14,38.8364444 14,30 C14,21.1635556 21.1635556,14 30,14 C38.8364444,14 46,21.1635556 46,30 Z M40.1427556,25.7477334 C39.9338666,25.6259555 39.6760889,25.6259555 39.4672,25.7477334 L30.8378667,30.7752889 C30.6280888,30.8979556 30.5000889,31.1228445 30.5000889,31.3664 L30.5000889,34.0170667 C30.5000889,34.2606222 30.6280888,34.4855111 30.8378667,34.6072889 C31.0449778,34.7281778 31.2992,34.7281778 31.5071999,34.6099555 C31.5089777,34.6090667 31.5107555,34.6081778 31.5134222,34.6072889 L34.3525333,32.9521778 L34.3525333,39.0979556 C34.3525333,39.3415111 34.4805333,39.5664 34.6894222,39.6881778 C34.7943111,39.7486222 34.9107555,39.7797333 35.0272,39.7797333 C35.1436444,39.7797333 35.2600889,39.7486222 35.3649777,39.6881778 L37.0618666,38.6997334 C37.2707555,38.5779555 37.3996444,38.3521778 37.3996444,38.1095111 L37.3996444,31.1761778 L40.1427556,29.5770667 C40.3516444,29.4552889 40.4805333,29.2304 40.4805333,28.9868444 L40.4805333,26.3379555 C40.4805333,26.0944 40.3516444,25.8695111 40.1427556,25.7477334 Z M30.8378667,24.1413333 L33.5578666,25.7262223 C33.5720889,25.7351111 33.5809778,25.7502222 33.5809778,25.7662222 L33.5809778,27.7342223 C33.5809778,27.9422222 33.8032,28.0728889 33.9827555,27.968 C35.0396444,27.3537778 37.8832,25.6995556 38.9311999,25.0915555 C39.1080889,24.9893333 39.1054222,24.7351111 38.9285333,24.632 L31.5134222,20.312 C31.3045333,20.1902222 31.0467556,20.1902222 30.8378667,20.312 C30.6280888,20.4337778 30.5000889,20.6586667 30.5000889,20.9022222 L30.5000889,23.5511111 C30.5000889,23.7946666 30.6280888,24.0195555 30.8378667,24.1413333 Z M29.3081778,20.3116444 C29.0992888,20.1898667 28.8415111,20.1898667 28.6326222,20.3116444 L21.2139555,24.6343111 C21.0388444,24.7365333 21.0352889,24.9872 21.2104,25.0894222 C22.2575111,25.6965333 25.1197333,27.3614222 26.1712889,27.9729777 C26.3472888,28.0752 26.5650666,27.9472 26.5650666,27.7427556 L26.5650666,25.7400889 L29.1748444,24.2192 C29.4663999,24.0485334 29.6459555,23.7365333 29.6459555,23.3996445 L29.6459555,20.9018667 C29.6459555,20.6583111 29.5170667,20.4334222 29.3081778,20.3116444 Z M29.1623111,30.7755556 L20.5320889,25.748 C20.3240889,25.6262222 20.0663111,25.6262222 19.8574222,25.748 C19.6485333,25.8697778 19.5196444,26.0937778 19.5196444,26.3373333 L19.5196444,28.9871111 C19.5196444,29.2306667 19.6485333,29.4555556 19.8574222,29.5773333 L22.6005333,31.1755555 L22.6005333,38.1097778 C22.6005333,38.3524444 22.7285333,38.5773333 22.9374222,38.6991111 L24.6352,39.6884444 C24.7400888,39.7488889 24.8565333,39.78 24.9729778,39.78 C25.0894222,39.78 25.2058667,39.7488889 25.3107555,39.6884444 C25.5187556,39.5666667 25.6476444,39.3417778 25.6476444,39.0982222 L25.6476444,32.9524445 L28.4867556,34.6075555 C28.4894222,34.6084445 28.4912,34.6093333 28.4929778,34.6102222 C28.7009778,34.7284444 28.9551999,34.7275556 29.1623111,34.6075555 C29.3712,34.4857778 29.5000889,34.2608889 29.5000889,34.0173334 L29.5000889,31.3657778 C29.5000889,31.1231111 29.3712,30.8973333 29.1623111,30.7755556 Z"/>
</svg>
