<svg xmlns="http://www.w3.org/2000/svg" width="360" height="360" viewBox="0 0 360 360">
  <g fill="#FFF" fill-rule="evenodd" transform="translate(85 103)">
    <path d="M121.180134,42.4061458 L127.007795,42.4061458 L143.610226,25.7709375 L144.426739,18.7126042 C113.535331,-8.60635417 66.3777033,-5.66270833 39.1125733,25.2896875 C31.5318106,33.8880208 26.0323554,44.1145833 23.0384744,55.1833333 C24.8876362,54.4213542 26.9369237,54.3010417 28.8661358,54.8304167 L62.0629925,49.3441667 C62.0629925,49.3441667 63.7520536,46.5448958 64.6246018,46.7213542 C79.393881,30.4711458 104.249497,28.5782292 121.30021,42.4061458 L121.180134,42.4061458 Z" opacity=".7"/>
    <path d="M167.257083,55.1833333 C163.438684,41.1067708 155.609765,28.4498958 144.71492,18.76875 L121.420285,42.109375 C131.258466,50.1622917 136.861987,62.2978125 136.621836,75.026875 L136.621836,79.1736458 C148.077033,79.1736458 157.354862,88.4778125 157.354862,99.9476042 C157.354862,111.425417 148.069028,120.721562 136.621836,120.721562 L95.1477787,120.721562 L91.0091785,124.924479 L91.0091785,149.845208 L95.1477787,153.991979 L136.621836,153.991979 C160.396773,154.176458 181.490025,138.736354 188.550461,115.989271 C195.594887,93.2341667 186.949455,68.53 167.257083,55.1833333 Z"/>
    <path d="M53.6176865,153.759375 L95.0917435,153.759375 L95.0917435,120.496979 L53.6176865,120.496979 C50.6638307,120.496979 47.741995,119.863333 45.0523051,118.628125 L39.2246438,120.432812 L22.5101425,137.068021 L21.0532272,142.907188 C30.4271165,149.997604 41.8663034,153.8075 53.6176865,153.759375 Z" opacity=".8"/>
    <path d="M53.6176865,45.8470833 C30.5792121,45.9834375 10.1743923,60.7658333 2.82577536,82.6386458 C-4.52284158,104.511458 2.80176027,128.654167 21.0612322,142.722708 L45.1163453,118.620104 C34.6777871,113.895833 30.0428751,101.591875 34.7578374,91.1327083 C39.4727997,80.6735417 51.7525147,76.0294792 62.1910729,80.75375 C66.7859598,82.8391667 70.4682733,86.52875 72.5495809,91.1327083 L96.604694,67.0301042 C86.3662615,53.6272917 70.4602682,45.7909375 53.6176865,45.8470833 Z"/>
  </g>
</svg>
