<svg xmlns="http://www.w3.org/2000/svg" width="60" height="60" viewBox="0 0 60 60">
  <path fill="#FFFFFF" d="M29.9998101,27.3495558 C28.5387729,27.3495558 27.3496979,28.5390318 27.3496979,30.000095 C27.3496979,31.461538 28.5387729,32.6502543 29.9998101,32.6502543 C31.4612271,32.6502543 32.6503021,31.461538 32.6503021,30.000095 C32.6503021,28.5390318 31.4612271,27.3495558 29.9998101,27.3495558 M45.8433179,32.2447727 L36.7743659,32.2459122 C35.8302848,35.0859927 33.1532043,37.141509 29.9998101,37.141509 C26.0624355,37.141509 22.8581433,33.9379195 22.8581433,30.000095 C22.8581433,26.0624603 26.0624355,22.8581111 29.9998101,22.8581111 C33.1532043,22.8581111 35.8300948,24.9143871 36.7743659,27.7544676 L41.2871912,27.7544676 C40.2390352,22.4799782 35.5773143,18.4910648 29.9998101,18.4910648 C23.6542785,18.4910648 18.4913647,23.6544504 18.4913647,30.000095 C18.4913647,36.3461194 23.6542785,41.5087453 29.9998101,41.5087453 C33.0740086,41.5087453 35.9639868,40.3122422 38.1381652,38.1378353 L41.3137797,41.3135064 C38.2914288,44.3359111 34.273529,46 29.9998101,46 C21.1775612,46 14,38.8225009 14,30.000095 C14,21.177689 21.1775612,14 29.9998101,14 C38.8220589,14 46,21.177689 46,30.000095 C46,30.7506632 45.9472029,31.5044602 45.8433179,32.2447727" transform="matrix(1 0 0 -1 0 60)"/>
</svg>
