<svg xmlns="http://www.w3.org/2000/svg" width="60" height="60" viewBox="0 0 60 60">
  <path fill="#FFFFFF" d="M26.9916435,0 L3.00835655,0 C1.33704735,0 0,1.28 0,2.88 L0,29.12 C0,30.72 1.33704735,32 3.00835655,32 L26.9916435,32 C28.6629526,32 30,30.72 30,29.12 L30,2.88 C30,1.28 28.6629526,0 26.9916435,0 Z M26.9916435,30.4 L3.00835655,30.4 C2.25626741,30.4 1.67130919,29.84 1.67130919,29.12 L1.67130919,2.88 C1.67130919,2.16 2.25626741,1.6 3.00835655,1.6 L26.9916435,1.6 C27.7437326,1.6 28.3286908,2.16 28.3286908,2.88 L28.3286908,29.12 C28.3286908,29.84 27.7437326,30.4 26.9916435,30.4 Z M7.52089136,27.2 L11.281337,24 L7.52089136,20.8 L7.52089136,27.2 Z M21.0584958,14.24 C20.3899721,13.6 19.1364903,12.8 17.0473538,12.8 C14.7910864,12.8 12.4512535,13.36 10.7799443,13.92 L10.7799443,4.8 L7.43732591,4.8 L7.43732591,18.64 L9.77715877,17.6 C9.77715877,17.6 13.6211699,15.92 16.9637883,15.92 C18.6350975,15.92 19.0529248,16.8 19.0529248,17.6 L19.0529248,27.2 L22.3955432,27.2 L22.3955432,17.6 C22.4791086,17.36 22.4791086,15.6 21.0584958,14.24 Z M16.6295265,10 L19.9721448,10 C21.4763231,8.32 22.2284123,6.64 22.4791086,4.8 L19.1364903,4.8 C18.8022284,6.64 17.9665738,8.32 16.6295265,10 Z" transform="translate(15 14)"/>
</svg>
