<svg xmlns="http://www.w3.org/2000/svg" width="60" height="60" viewBox="0 0 60 60">
  <path fill="#FFFFFF" fill-rule="evenodd" d="M43.8388176,22.2140175 C45.1018115,24.4948176 45.8208547,27.1186517 45.8208547,29.9104273 L45.8208547,30.0895727 L45.8208547,30.0895727 C45.8208547,38.876659 38.6975137,46 29.9104273,46 L29.9104273,46 L29.9104273,46 C21.123341,46 14,38.876659 14,30.0895727 L14,29.9104273 L14,29.9104273 C14,21.123341 21.123341,14 29.9104273,14 L29.9104273,14 L29.9104273,14 C33.4166716,14 36.6580162,15.1341703 39.2876026,17.0556525 L37.0918762,20.1647354 C35.0818346,18.6843217 32.598291,17.8095238 29.9104273,17.8095238 L29.9104273,17.8095238 L29.9104273,17.8095238 C23.2155044,17.8095238 17.788197,23.2368312 17.788197,29.9317542 L17.788197,30.0682458 C17.788197,36.7631688 23.2155044,42.1904762 29.9104273,42.1904762 L29.9104273,42.1904762 L29.9104273,42.1904762 C36.6053503,42.1904762 42.0326577,36.7631688 42.0326577,30.0682458 L42.0326577,30.0682458 L42.0326577,29.9317542 C42.0326577,28.2362998 41.6845886,26.6221413 41.0560093,25.1568377 C39.6600526,26.5914661 38.1621447,28.0745114 36.5622856,29.6059736 C35.9367255,30.4322499 35.2673787,30.5635921 34.5542453,30 C33.8411118,29.4364079 33.7869397,28.7446757 34.3917288,27.9248033 C38.9325313,21.8911051 41.508504,18.4688209 42.1196467,17.6579507 C42.7307894,16.8470805 43.6337623,16.8981253 44.8285653,17.8110851 C45.9045665,18.7894943 46.2393109,19.512826 45.8327985,19.9810799 C45.1995972,20.7104525 44.5349369,21.454765 43.8388176,22.2140175 Z M34.5792286,31.6365714 C34.9906268,34.5013333 34.4413382,37.0460952 31.6100398,38.3398095 C28.8408678,39.6045714 26.2633786,39.152 23.8268103,36.3321905 C28.0597416,35.7333333 28.4006793,28.1805714 34.3186006,31.3447619 C34.4049715,31.4422857 34.4921001,31.5398095 34.5792286,31.6365714 Z"/>
</svg>
