<svg xmlns="http://www.w3.org/2000/svg" width="60" height="60" viewBox="0 0 60 60">
  <path fill="#FFFFFF" fill-rule="evenodd" d="M43.8107496,29.8242921 C43.8107496,29.8242921 43.2719164,31.4177244 42.8790895,32.1534119 C42.2655149,33.3015303 42.0465052,35.1112102 39.9247768,34.2701856 C38.1726995,33.5751838 37.5602837,32.5736455 38.2833632,30.5722411 C40.2538706,25.1175639 37.4814865,20.4481775 31.7553691,19.1016464 C27.0356531,17.991427 21.8512658,21.4458144 21.0725649,26.5036661 C20.4207504,30.7388854 22.8530322,33.7763832 26.1457091,36.1495328 C28.993414,38.2010978 32.0450644,39.9901561 34.9906863,41.9179918 C35.8377554,42.4725441 36.6292029,43.1045666 37.5718715,43.7928803 C35.8336996,45.9386356 34.1065362,46.7339584 31.774489,45.2118655 C28.5895787,43.1329909 25.3142836,41.1733869 22.223814,38.9730123 C18.8453873,36.5680944 16.8435927,33.2329776 16,29.2669531 L16,26.4802579 C17.2984144,19.8612995 21.2568111,15.6846008 28.167203,14.2187991 C29.6817851,13.927067 31.0336966,13.927067 32.2229373,14.2187991 C38.2370119,15.5697889 42.0360762,19.1640684 43.8107496,24.8082408 C44.2365629,28.8951345 43.8107496,29.8242921 43.8107496,29.8242921 Z M39.250424,36.7212512 C37.1512918,39.8824782 35.5573882,40.0245996 32.4391079,37.1922027 C35.3337435,34.1346407 36.4560231,34.0800215 39.250424,36.7212512 Z"/>
</svg>
