<svg xmlns="http://www.w3.org/2000/svg" width="60" height="60" viewBox="0 0 60 60">
  <path fill="#FFFFFF" fill-rule="evenodd" d="M32.0797963,14 L32.0797963,20.1466276 L36.8811545,20.1466276 L36.8811545,23.5014663 L32.0797963,23.5014663 L32.0797963,39.2434018 C32.0797963,40.2600246 32.293716,41.0224804 32.721562,41.5307918 C33.1494079,42.0391032 33.8783197,42.2932551 34.9083192,42.2932551 C35.4153959,42.2932551 36.1126158,42.1994144 37,42.0117302 L37,45.5307918 C35.8432313,45.8435988 34.7181719,46 33.6247878,46 C31.6598657,46 30.1782732,45.4134956 29.179966,44.2404692 C28.1816588,43.0674428 27.6825127,41.4017703 27.6825127,39.2434018 L27.6825127,23.5014663 L23,23.5014663 L23,20.1466276 L27.6825127,20.1466276 L27.6825127,14 L32.0797963,14 Z"/>
</svg>
