<svg xmlns="http://www.w3.org/2000/svg" width="60" height="60" viewBox="0 0 60 60">
  <path fill="#FFFFFF" fill-rule="evenodd" d="M30,14 L30,14 C38.836556,14 46,21.163444 46,30 L46,30 C46,38.836556 38.836556,46 30,46 C21.163444,46 14,38.836556 14,30 L14,30 L14,30 C14,21.163444 21.163444,14 30,14 L30,14 Z M32.4497475,25.0502525 C32.2544853,24.8549904 31.9379028,24.8549904 31.7426407,25.0502525 L22.5502525,34.2426407 C22.3549904,34.4379028 22.3549904,34.7544853 22.5502525,34.9497475 C22.7455147,35.1450096 23.0620972,35.1450096 23.2573593,34.9497475 L32.4497475,25.7573593 C32.6450096,25.5620972 32.6450096,25.2455147 32.4497475,25.0502525 Z M28.7426407,24.7573593 C28.5473785,24.5620972 28.2307961,24.5620972 28.0355339,24.7573593 L20.2573593,32.5355339 C20.0620972,32.7307961 20.0620972,33.0473785 20.2573593,33.2426407 C20.4526215,33.4379028 20.7692039,33.4379028 20.9644661,33.2426407 L28.7426407,25.4644661 C28.9379028,25.2692039 28.9379028,24.9526215 28.7426407,24.7573593 Z M41.863961,28.636039 C41.6686989,28.4407768 41.3521164,28.4407768 41.1568542,28.636039 L29.136039,40.6568542 C28.9407768,40.8521164 28.9407768,41.1686989 29.136039,41.363961 C29.3313011,41.5592232 29.6478836,41.5592232 29.8431458,41.363961 L41.863961,29.3431458 C42.0592232,29.1478836 42.0592232,28.8313011 41.863961,28.636039 Z M39.4497475,27.0502525 C39.2544853,26.8549904 38.9379028,26.8549904 38.7426407,27.0502525 L29.5502525,36.2426407 C29.3549904,36.4379028 29.3549904,36.7544853 29.5502525,36.9497475 C29.7455147,37.1450096 30.0620972,37.1450096 30.2573593,36.9497475 L39.4497475,27.7573593 C39.6450096,27.5620972 39.6450096,27.2455147 39.4497475,27.0502525 Z M36.7426407,24.7573593 C36.5473785,24.5620972 36.2307961,24.5620972 36.0355339,24.7573593 L28.2573593,32.5355339 C28.0620972,32.7307961 28.0620972,33.0473785 28.2573593,33.2426407 C28.4526215,33.4379028 28.7692039,33.4379028 28.9644661,33.2426407 L36.7426407,25.4644661 C36.9379028,25.2692039 36.9379028,24.9526215 36.7426407,24.7573593 Z M30.863961,18.636039 C30.6686989,18.4407768 30.3521164,18.4407768 30.1568542,18.636039 L18.136039,30.6568542 C17.9407768,30.8521164 17.9407768,31.1686989 18.136039,31.363961 C18.3313011,31.5592232 18.6478836,31.5592232 18.8431458,31.363961 L30.863961,19.3431458 C31.0592232,19.1478836 31.0592232,18.8313011 30.863961,18.636039 Z"/>
</svg>
