<svg xmlns="http://www.w3.org/2000/svg" width="60" height="60" viewBox="0 0 60 60">
  <g fill="#FFF" transform="translate(10.444 18)">
    <path d="M34.6666667,0 C37.1212656,0 39.1111111,1.98984556 39.1111111,4.44444444 L39.1111111,19.5555556 C39.1111111,22.0101544 37.1212656,24 34.6666667,24 L12.8133333,24 C20.2933333,16.7466667 22.3733333,4.88888889 22.8977778,0 L34.6666667,0 Z M22.6666667,19.9333333 C22.6666667,19.9333333 23.8711111,17.1955556 25.3688889,14.5866667 C26.8666667,11.9777778 28.2933333,9.71111111 29.6711111,8.17333333 C31.0488889,6.63555556 32.3511111,6.19555556 32.8266667,6.12444444 C33.3022222,6.05333333 33.4044444,6.17333333 33.36,6.34222222 C33.1857667,6.74023547 32.9649669,7.11619188 32.7022222,7.46222222 C31.9814772,8.40042017 31.1469342,9.24541369 30.2177778,9.97777778 C29.04,11.0044444 28.0577778,11.8311111 27.9955556,13.0622222 C27.9333333,14.2933333 29.4888889,15.32 29.84,15.5688889 C30.1911111,15.8177778 30.1688889,16.0444444 30.0177778,16.1333333 C29.2684961,16.5460986 28.4483516,16.8144547 27.6,16.9244444 C26.0133333,17.2088889 25.2933333,17.3377778 24.6,17.9688889 C24.1507994,18.4685303 23.8803362,19.103259 23.8311111,19.7733333 C29.4266667,19.6622222 30.6533333,19.1155556 31.9333333,17.9555556 C33.2133333,16.7955556 32.5422222,15.5377778 31.9111111,14.9511111 C31.28,14.3644444 30.3422222,14.08 30.3333333,13.2711111 C30.3244444,12.4622222 31.2088889,11.7733333 33.0266667,9.98222222 C34.8444444,8.19111111 35.4222222,7.30222222 35.6933333,6.29777778 C35.9644444,5.29333333 35.2488889,4.13333333 32.5822222,4.10666667 C29.9155556,4.08 27.2711111,5.68 24.9866667,10.3288889 C22.7022222,14.9777778 21.9288889,17 21.7377778,17.4844444 C21.5466667,17.9688889 21.5777778,18.0622222 21.8888889,18.6888889 C22.1143491,19.1238943 22.3744477,19.5400521 22.6666667,19.9333333 Z" opacity=".7"/>
    <path d="M22.8977778,0 C22.3777778,4.88888889 20.2977778,16.7466667 12.8133333,24 L4.44444444,24 C1.98984556,24 1.02633951e-14,22.0101544 7.10542736e-15,19.5555556 L7.10542736e-15,4.44444444 C7.10542736e-15,1.98984556 1.98984556,0 4.44444444,0 L22.8977778,0 Z M17.3955556,4.35111111 C16.8717916,4.11659337 16.2903273,4.0423639 15.7244444,4.13777778 C15.2577778,4.23111111 13.8755556,5.05333333 12.1688889,6.47555556 C10.6255904,7.75770268 9.20738709,9.18334667 7.93333333,10.7333333 L7.63555556,10.5555556 C7.49482488,10.4243 7.30064904,10.3667054 7.11111111,10.4 C6.68931459,10.6178551 6.28381394,10.8659086 5.89777778,11.1422222 C6.26942023,11.3611866 6.61787335,11.6173145 6.93777778,11.9066667 L6.86666667,11.9955556 C4.74666667,14.6088889 3.87555556,16.68 3.77777778,17.9422222 C3.68,19.2044444 5.58222222,19.96 5.58222222,19.96 C6.10099958,17.688921 7.07467176,15.5465398 8.44444444,13.6622222 C8.57777778,13.8755556 8.71111111,14.1066667 8.84,14.3333333 C9.48702421,15.4866175 9.92771551,16.7440166 10.1422222,18.0488889 C10.3377778,18.3911111 11.0711111,18.7422222 11.8844444,18.7866667 C12.6977778,18.8311111 12.7155556,18.4355556 12.8222222,17.8444444 C12.9288889,17.2533333 13.7111111,14.68 14.8977778,11.04 C16.0844444,7.4 17.1866667,5.90222222 17.4844444,5.48444444 C17.7822222,5.06666667 17.9422222,4.6 17.3955556,4.35111111 Z M12.8044444,9.92444444 C12.1225875,11.3371612 11.6223142,12.8305142 11.3155556,14.3688889 C10.8489787,13.5233836 10.2687695,12.7457837 9.59111111,12.0577778 L9.59111111,12.0311111 C12.4488889,8.16 15.0622222,6.33777778 15.0622222,6.33777778 C14.2196611,7.4742779 13.4648856,8.67330126 12.8044444,9.92444444 L12.8044444,9.92444444 Z"/>
  </g>
</svg>
