<svg xmlns="http://www.w3.org/2000/svg" width="60" height="60" viewBox="0 0 60 60">
  <path fill="#FFF" fill-rule="evenodd" d="M44.1929108,45.6632018 L44.1912973,45.6648209 L40.7400797,41.859926 C37.7966708,44.5310745 33.9677059,46.00694 29.9991933,45.9999755 C21.1638179,45.9999755 14,38.8370585 14,29.9999877 C14,21.162917 21.1622044,14 29.9991933,14 C38.7651893,14 45.8870569,21.0511988 46,29.7911233 L46,44.9621297 L44.1929108,45.6632018 Z M27.580598,32.2408279 L25.3088287,30.0275125 C24.5426378,29.2889619 23.3321164,29.2889619 22.5659255,30.0275125 C22.2037164,30.3764872 21.9989698,30.8585827 21.9989698,31.3624639 C21.9989698,31.8663451 22.2037164,32.3484406 22.5659255,32.6974153 L26.0752282,36.1137252 C26.5205466,36.5476451 27.1288257,36.7257466 27.7064488,36.6496487 C28.1356325,36.6172666 28.5535219,36.4424034 28.8810568,36.1250589 L37.4534362,27.7737195 C37.8031534,27.4372773 38.0006154,26.9719984 38.000006,26.4858397 C37.9993966,25.9996809 37.8007688,25.534902 37.4502092,25.1993438 C36.7123537,24.4889356 35.5476747,24.4882216 34.8089548,25.1977247 L27.580598,32.2408279 L27.580598,32.2408279 Z"/>
</svg>
