<svg xmlns="http://www.w3.org/2000/svg" width="60" height="60" viewBox="0 0 60 60">
  <g fill="#FFF" fill-rule="evenodd" transform="translate(14 13)">
    <g transform="translate(0 8)">
      <path fill-opacity=".3" d="M8.69252062,0.677004325 L17,0.677004325 L17,5.74052892 L16,8.01533548 L13.692517,9 L1.23399495,9 L1.23399495,8.99992717 C1.0580195,8.99992717 0.915363223,8.85727089 0.915363223,8.68129545 C0.915363223,8.60112505 0.945584762,8.52390093 1,8.46502585 C1,8.46502585 1,8.46502585 1,8.46502585 C3.41652679,5.85044176 5.98070033,3.25443458 8.69252062,0.677004325 Z"/>
      <polygon points="8.699 .677 17 .677 17 5.688 16 8.027"/>
      <g transform="rotate(180 17 9)">
        <path fill-opacity=".3" d="M8.69252062,0.677004325 L17,0.677004325 L17,5.6488756 L16.0220928,8.00742114 L13.6999185,9 L1.23405994,9 L1.23405994,9.00007574 C1.05803562,9.00007574 0.915339715,8.85737984 0.915339715,8.68135552 C0.915339715,8.60116285 0.945569649,8.52391729 1,8.46502585 C1,8.46502585 1,8.46502585 1,8.46502585 C3.41652679,5.85044176 5.98070033,3.25443458 8.69252062,0.677004325 Z"/>
        <polygon points="8.699 .677 17 .677 17 5.681 16.477 6.939 16.012 8.009"/>
      </g>
      <g transform="rotate(-90 17 9)">
        <path fill-opacity=".3" d="M8.69252062,0.677004325 L17,0.677004325 L17,5.74253008 L16.0318162,8 L15.2422868,8.33121321 L13.68798,9 L1.23405376,9 L1.23405376,9.00006161 C1.05803409,9.00006161 0.915341952,8.85736947 0.915341952,8.6813498 C0.915341952,8.60115925 0.945571086,8.52391573 1,8.46502585 C1,8.46502585 1,8.46502585 1,8.46502585 C3.41652679,5.85044176 5.98070033,3.25443458 8.69252062,0.677004325 Z"/>
        <polygon points="8.699 .677 17 .677 17 5.758 16.452 7.037 16.023 8.02"/>
      </g>
    </g>
    <g transform="rotate(90 13 13)">
      <path fill-opacity=".3" d="M8.69252062,0.677004325 L17,0.677004325 L17,5.67592449 L15.9880858,8.01392375 L13.6689684,9 L1.2340589,9 L1.2340589,9.00007337 C1.05803536,9.00007337 0.91534009,8.8573781 0.91534009,8.68135456 C0.91534009,8.60116225 0.94556989,8.52391702 1,8.46502585 C1,8.46502585 1,8.46502585 1,8.46502585 C3.41652679,5.85044176 5.98070033,3.25443458 8.69252062,0.677004325 Z"/>
      <polygon points="8.699 .677 17 .677 17 5.67 15.999 7.996"/>
    </g>
  </g>
</svg>
