<svg xmlns="http://www.w3.org/2000/svg" width="60" height="60" viewBox="0 0 60 60">
  <g fill="#FFF" transform="translate(14 14)">
    <path d="M0,15.875 C0,15 0.75,14.25 1.625,14.25 C2.595,14.25 3.345,15 3.375,15.875 C3.35,22.94 9.025,28.64 16,28.625 C22.98,28.64 28.65,22.94 28.625,15.875 C28.655,15 29.405,14.25 30.375,14.25 C31.25,14.25 32,15 32,15.875 C32,24.79 24.82,32 16,32 C7.18,32 0,24.79 0,15.875 Z" opacity=".7"/>
    <path fill-opacity=".5" d="M27.1261623,10.0591781 C24.9936445,6.06686489 20.8053343,3.36466595 16,3.375 C11.2344495,3.36475885 7.07954084,6.0185013 4.93081503,9.95182533 C3.84046305,10.579021 0.42606147,13.6495609 0.240379601,15.6981153 C0.215379601,16.5731153 0,17 0,16.125 C0,7.21 7.18,0 16,0 C24.82,0 32,7.21 32,16.125 C32.1753441,15.6034024 30.8212993,12.579078 27.1261623,10.0591781 Z"/>
    <path fill-opacity=".3" d="M28.75,16.875 C26.14,12.09 21.03,9.965 15.75,10 C10.78,9.965 5.9,12.02 3.25,16.875 C2.65,17.59 1.63,17.86 0.75,17.375 C0.035,16.935 -0.235,15.91 0.25,15 C3.6,9.315 9.6,6.625 15.75,6.625 C22.2,6.625 28.45,9.405 31.75,15 C32.235,15.91 31.965,16.935 31.25,17.375 C30.9,17.55 30.615,17.625 30.375,17.625 C29.755,17.625 29.195,17.325 28.75,16.875 Z"/>
    <path d="M0.25,17 C-0.235,16.09 0.035,15.065 0.75,14.625 C1.63,14.14 2.65,14.405 3.25,15.125 C5.85,19.91 10.97,22.035 16.25,22 C21.22,22.035 26.1,19.98 28.75,15.125 C29.35,14.405 30.375,14.14 31.25,14.625 C31.965,15.065 32.235,16.09 31.75,17 C28.4,22.685 22.4,25.375 16.25,25.375 C9.8,25.375 3.55,22.6 0.25,17 Z"/>
  </g>
</svg>
