<svg xmlns="http://www.w3.org/2000/svg" width="60" height="60" viewBox="0 0 60 60">
  <g fill="#FFF" transform="translate(14 13.6)">
    <path d="M24.528,28.184 L20.264,28.184 L22.4,30.32 L24.528,28.184 Z M24.528,23.92 L26.664,26.056 L28.8,23.92 L24.528,23.92 Z M28.792,23.92 L29.784,24.912 C29.976,24.5866667 30.1546667,24.256 30.32,23.92 L28.8,23.92 L28.792,23.92 Z M30.928,21.784 L26.664,21.784 L28.8,23.92 L30.928,21.784 Z M3.2,19.648 L0.248,19.648 C0.351375286,20.2338522 0.487590011,20.8134325 0.656,21.384 L1.056,21.784 L3.2,19.648 Z M28.8,11.112 L24.528,11.112 L26.664,13.248 L28.8,11.112 Z M28.8,11.112 L30.936,13.248 L31.472,12.712 C31.3296973,12.1700024 31.1587913,11.6359212 30.96,11.112 L28.8,11.112 L28.8,11.112 Z M7.456,6.848 L3.456,6.848 L3.328,7.008 L5.304,8.984 L7.456,6.848 Z M16,6.848 L11.712,6.848 L13.368,8.504 C13.778703,8.37416306 14.1985403,8.27522051 14.624,8.208 L16,6.848 Z M13.864,4.712 L9.6,4.712 L11.736,6.848 L13.864,4.712 Z M13.272,1.032 C12.4380182,1.17424478 11.6167374,1.38290896 10.816,1.656 L11.728,2.568 L13.272,1.032 Z M11.728,2.576 L13.864,4.712 L16,2.576 L11.728,2.576 Z M9.6,4.712 L7.888,3.008 C8.144,2.85866667 8.41066667,2.71466667 8.688,2.576 L11.752,2.576 L9.6,4.712 Z"/>
    <path d="M11.728,28.184 L13.864,30.32 L16,28.184 L11.728,28.184 Z M25.8,29.448 C26.3073784,29.0558429 26.7909044,28.6337595 27.248,28.184 L24.528,28.184 L25.8,29.448 Z M20.264,28.184 L16,28.184 L18.136,30.32 L20.264,28.184 Z M1.656,23.92 C1.82666667,24.256 2.00533333,24.5866667 2.192,24.912 L3.2,23.92 L1.656,23.92 Z M18.128,26.056 L19.312,24.872 C18.720139,25.1156733 18.103012,25.292762 17.472,25.4 L18.128,26.056 Z M20.576,24.232 L22.4,26.048 L24.536,23.912 L21.04,23.912 L20.576,24.224 L20.576,24.224 L20.576,24.232 Z M9.6,30.32 L11.424,32.144 L11.912,32.28 L13.872,30.32 L9.6,30.32 Z M18.136,30.32 L13.864,30.32 L16,32.456 L18.136,30.32 Z M5.336,26.056 L7.472,28.192 L9.6,26.048 L5.328,26.048 L5.336,26.056 Z M18.136,26.056 L20.272,28.192 L22.4,26.048 L18.128,26.048 L18.136,26.056 Z M31.144,21.992 L31.2,21.784 L30.936,21.784 L31.144,21.992 Z M3.2,15.384 L5.336,17.52 L7.424,15.432 L7.424,15.384 L3.2,15.384 Z M24.544,19.648 L26.68,17.512 L24.696,17.512 C24.6436981,18.1641625 24.5175577,18.8082834 24.32,19.432 L24.544,19.648 Z M31.92,18.488 C31.92,18.168 31.976,17.84 31.992,17.512 L30.936,17.512 L31.92,18.488 Z M28.8,19.648 L30.936,17.512 L26.664,17.512 L28.8,19.648 Z M3.2,19.648 L5.336,21.784 L7.472,19.648 L3.2,19.648 L3.2,19.648 Z M24.536,19.648 L24.248,19.648 C24.192,19.8 24.136,19.952 24.08,20.104 L24.536,19.648 Z M5.336,13.248 L7.44,15.352 C7.56284098,14.6262685 7.77791614,13.9192089 8.08,13.248 L5.328,13.248 L5.336,13.248 Z M1.072,13.248 L3.2,15.384 L5.336,13.248 L1.056,13.248 L1.072,13.248 Z M28.8,15.384 L30.936,13.248 L26.664,13.248 L28.8,15.384 Z M24,13.248 C24.2961993,13.9068455 24.5085257,14.6002659 24.632,15.312 L26.696,13.248 L24,13.248 Z M11.744,6.848 L7.456,6.848 L9.6,8.984 L11.728,6.856 L11.728,6.856 L11.744,6.848 Z M16.008,6.848 L17.344,8.184 C17.7802201,8.24985262 18.2107965,8.34880497 18.632,8.48 L20.232,6.88 L16,6.88 L16.008,6.848 Z M5.328,8.984 L2.032,8.984 C1.91466667,9.192 1.80266667,9.40533333 1.696,9.624 L3.2,11.112 L5.328,8.984 Z M9.6,4.712 L5.52,4.712 L5.416,4.8 L7.456,6.848 L9.6,4.712 Z M24.536,6.848 L26.576,4.8 L26.472,4.712 L22.4,4.712 L24.536,6.848 Z M21.176,1.664 C20.3754909,1.38819574 19.554206,1.17685533 18.72,1.032 L20.264,2.576 L21.176,1.664 Z M17.68,0.864 C16.5578155,0.744945129 15.4261845,0.744945129 14.304,0.864 L16,2.576 L17.68,0.864 Z M20.256,2.552 L22.4,4.712 L24.104,3.008 C23.848,2.85866667 23.5813333,2.71466667 23.304,2.576 L20.264,2.576 L20.256,2.552 Z M16,2.576 L20.264,2.576 L18.128,4.712 L16,2.576 L16,2.576 Z" opacity=".843"/>
    <path d="M12.64,32.456 C13.6295779,32.6652503 14.6367299,32.7804299 15.648,32.8 L16,32.456 L12.64,32.456 Z M16.344,32.8 C17.355286,32.7806694 18.3624606,32.6654872 19.352,32.456 L16,32.456 L16.344,32.8 Z M4.744,28.184 C5.20117296,28.6336761 5.68469382,29.055755 6.192,29.448 L7.456,28.184 L4.744,28.184 L4.744,28.184 Z M9.6,30.32 L11.736,28.184 L7.456,28.184 L9.6,30.32 Z M3.2,23.92 L3.2,23.92 L5.336,26.056 L7.456,23.92 L3.2,23.92 Z M7.464,23.92 L7.464,23.92 L9.6,26.048 L11.44,24.208 L11,23.912 L7.464,23.912 L7.464,23.92 Z M13.864,26.056 L14.528,25.392 C13.8854447,25.2820033 13.2574334,25.0995043 12.656,24.848 L13.864,26.056 Z M7.464,30.32 C7.912,30.6026667 8.37333333,30.8693333 8.848,31.12 L9.648,30.32 L7.424,30.32 L7.464,30.32 Z M23.216,31.12 C23.6906667,30.88 24.152,30.6133333 24.6,30.32 L22.4,30.32 L23.216,31.12 Z M18.16,30.32 L20.12,32.28 L20.608,32.144 L22.4,30.32 L18.128,30.32 L18.16,30.32 Z M5.36,26.056 L2.96,26.056 C3.28315892,26.5165831 3.6303045,26.9598613 4,27.384 L5.336,26.048 L5.336,26.048 L5.36,26.056 Z M9.632,26.056 L11.768,28.192 L13.904,26.056 L9.6,26.056 L9.632,26.056 Z M22.432,26.056 L24.568,28.192 L26.704,26.056 L22.4,26.056 L22.432,26.056 Z M13.896,26.056 L16,28.184 L18.136,26.048 L13.864,26.048 L13.896,26.056 Z M28,27.384 C28.375305,26.9575933 28.7277972,26.5116372 29.056,26.048 L26.656,26.048 L28,27.384 Z M1.056,21.784 L0.8,21.784 L0.872,21.984 L1.072,21.784 L1.072,21.784 L1.056,21.784 Z M5.32,21.784 L1.056,21.784 L3.2,23.92 L5.336,21.784 L5.336,21.784 L5.32,21.784 Z M9.176,22.2 C9.06933333,22.0666667 8.96533333,21.928 8.864,21.784 L5.328,21.784 L7.464,23.92 L9.176,22.2 Z M24.528,23.92 L26.664,21.784 L23.2,21.784 C23.0933333,21.9333333 22.984,22.08 22.872,22.224 L24.528,23.92 Z M3.2,15.384 L0.056,15.384 C0.0186666667,15.736 0,16.0933333 0,16.456 L1.056,17.512 L3.2,15.384 Z M30.944,17.52 L32,16.456 C32,16.0933333 31.9813333,15.7333333 31.944,15.376 L28.8,15.376 L30.944,17.52 Z M26.68,17.52 L28.8,15.384 L24.608,15.384 L24.608,15.48 L26.68,17.52 Z M0,17.512 C0,17.84 0,18.168 0.072,18.488 L1.048,17.512 L0,17.512 Z M5.32,17.512 L1.056,17.512 L3.2,19.648 L5.32,17.512 Z M5.32,17.512 L7.456,19.648 L7.696,19.408 C7.50279294,18.7917563 7.3793538,18.1557764 7.328,17.512 L5.328,17.512 L5.32,17.512 Z M7.456,19.648 L8,20.168 C7.904,20 7.84,19.824 7.784,19.648 L7.456,19.648 L7.456,19.648 Z M24.528,19.648 L26.664,21.784 L28.8,19.648 L24.528,19.648 L24.528,19.648 Z M30.928,21.784 L31.328,21.384 C31.49641,20.8134325 31.6326247,20.2338522 31.736,19.648 L28.8,19.648 L30.928,21.784 Z M7.456,11.112 L3.2,11.112 L5.336,13.248 L7.456,11.112 Z M9.424,11.112 L7.456,11.112 L8.592,12.248 C8.82830952,11.8488404 9.09580975,11.4689901 9.392,11.112 L9.392,11.112 L9.424,11.112 Z M3.2,11.112 L1.04,11.112 C0.841208679,11.6359212 0.67030269,12.1700024 0.528,12.712 L1.064,13.248 L3.2,11.112 Z M24.536,11.112 L22.608,11.112 C22.9031557,11.4613164 23.1706326,11.8331093 23.408,12.224 L24.536,11.112 Z M1.056,13.248 L0.392,13.248 C0.328,13.52 0.272,13.7866667 0.224,14.048 L1.024,13.248 L1.024,13.248 L1.056,13.248 Z M31.76,14.048 C31.712,13.7706667 31.656,13.504 31.592,13.248 L30.936,13.248 L31.76,14.048 Z M20.232,6.848 L22.4,8.984 L24.528,6.856 L20.24,6.856 L20.232,6.848 Z M24.496,6.848 L24.496,6.848 L26.624,8.976 L28.616,6.984 L28.504,6.848 L24.504,6.848 L24.496,6.848 Z M5.296,8.984 L7.432,11.12 L9.6,8.984 L5.328,8.984 L5.296,8.984 Z M9.56,8.984 L10.568,9.992 C11.063179,9.59894052 11.599672,9.2609499 12.168,8.984 L9.6,8.984 L9.56,8.984 Z M22.36,8.984 L24.496,11.12 L26.632,8.984 L22.4,8.984 L22.36,8.984 Z M22.36,8.984 L19.848,8.984 C20.4152703,9.25650376 20.9516722,9.58907295 21.448,9.976 L22.36,8.984 Z M28.76,11.12 L30.296,9.6 C30.1893333,9.38666667 30.0773333,9.17333333 29.96,8.96 L26.664,8.96 L28.76,11.12 Z M22.36,4.72 L18.128,4.72 L20.264,6.856 L22.36,4.72 Z M16,6.848 L13.864,4.712 L18.136,4.712 L16,6.848 Z" opacity=".624"/>
    <path fill-opacity=".4" d="M8.88,16.8 C8.88,20.7278491 12.0641509,23.912 15.992,23.912 C19.9198491,23.912 23.104,20.7278491 23.104,16.8 L8.88,16.8 L8.88,16.8 Z"/>
  </g>
</svg>
