<svg xmlns="http://www.w3.org/2000/svg" width="60" height="60" viewBox="0 0 60 60">
  <g fill="#FFF" fill-rule="evenodd" transform="translate(15 15)">
    <path d="M16.946626,8.48650033 L16.946626,8.48650033 L16.946626,8.48650033 L16.946626,8.48650033 C12.2821076,13.1633305 4.70944835,13.1733113 0.0326181343,8.50879289 C0.0297701631,8.50595241 0.0269236251,8.5031105 0.0240785212,8.50026716 L0.0103031789,8.48650033 L0.0446723137,8.45209763 L0.0446723137,8.45209763 C4.69802185,3.79420422 12.2462757,3.79052068 16.9041691,8.44387021 C16.9183572,8.45804451 16.9325096,8.4722546 16.946626,8.48650033 Z" transform="rotate(45 8.478 8.478)"/>
    <path d="M29.946626,8.48650033 L29.946626,8.48650033 L29.946626,8.48650033 L29.946626,8.48650033 C25.2821076,13.1633305 17.7094484,13.1733113 13.0326181,8.50879289 C13.0297702,8.50595241 13.0269236,8.5031105 13.0240785,8.50026716 L13.0103032,8.48650033 L13.0446723,8.45209763 L13.0446723,8.45209763 C17.6980218,3.79420422 25.2462757,3.79052068 29.9041691,8.44387021 C29.9183572,8.45804451 29.9325096,8.4722546 29.946626,8.48650033 Z" transform="scale(-1 1) rotate(45 0 -43.375)"/>
    <g transform="matrix(1 0 0 -1 0 30)">
      <path d="M16.946626,8.48650033 L16.946626,8.48650033 L16.946626,8.48650033 L16.946626,8.48650033 C12.2821076,13.1633305 4.70944835,13.1733113 0.0326181343,8.50879289 C0.0297701631,8.50595241 0.0269236251,8.5031105 0.0240785212,8.50026716 L0.0103031789,8.48650033 L0.0446723137,8.45209763 L0.0446723137,8.45209763 C4.69802185,3.79420422 12.2462757,3.79052068 16.9041691,8.44387021 C16.9183572,8.45804451 16.9325096,8.4722546 16.946626,8.48650033 Z" transform="rotate(45 8.478 8.478)"/>
      <path d="M29.946626,8.48650033 L29.946626,8.48650033 L29.946626,8.48650033 L29.946626,8.48650033 C25.2821076,13.1633305 17.7094484,13.1733113 13.0326181,8.50879289 C13.0297702,8.50595241 13.0269236,8.5031105 13.0240785,8.50026716 L13.0103032,8.48650033 L13.0446723,8.45209763 L13.0446723,8.45209763 C17.6980218,3.79420422 25.2462757,3.79052068 29.9041691,8.44387021 C29.9183572,8.45804451 29.9325096,8.4722546 29.946626,8.48650033 Z" transform="scale(-1 1) rotate(45 0 -43.375)"/>
    </g>
  </g>
</svg>
