<svg xmlns="http://www.w3.org/2000/svg" width="60" height="60" viewBox="0 0 60 60">
  <g fill="none" fill-rule="evenodd" transform="translate(15 12)">
    <path fill="#FFF" d="M5,28.3224819 L25,28.3224819 L25,28.3224819 C27.209139,28.3224819 29,30.1133429 29,32.3224819 L29,33 L1,33 L1,32.3224819 L1,32.3224819 C1,30.1133429 2.790861,28.3224819 5,28.3224819 Z" opacity=".4" transform="matrix(1 0 0 -1 0 61.322)"/>
    <path fill="#FFF" d="M6.50890378,0.5 L24.1270823,0.5 L24.1270823,0.5 C26.3362213,0.5 28.1270823,2.290861 28.1270823,4.5 L28.1270823,11.5 C23.276176,8.40169253 19.1619306,6.85253879 15.7843461,6.85253879 C12.4067616,6.85253879 7.98161418,8.40169253 2.50890378,11.5 L2.50890378,4.5 L2.50890378,4.5 C2.50890378,2.290861 4.29976478,0.5 6.50890378,0.5 L6.50890378,0.5 Z M8,4 C8.55228475,4 9,3.55228475 9,3 C9,2.44771525 8.55228475,2 8,2 C7.44771525,2 7,2.44771525 7,3 C7,3.55228475 7.44771525,4 8,4 Z M23,4 C23.5522847,4 24,3.55228475 24,3 C24,2.44771525 23.5522847,2 23,2 C22.4477153,2 22,2.44771525 22,3 C22,3.55228475 22.4477153,4 23,4 Z" opacity=".4"/>
    <path fill="#FFF" d="M24.015328,17 C24.2026243,16.9062699 24.3782718,16.7812894 24.5345027,16.6250585 C25.3155513,15.8440099 25.3155513,14.5776799 24.5345027,13.7966313 C23.7534542,13.0155827 22.4871242,13.0155827 21.7060756,13.7966313 C20.925027,14.5776799 20.925027,15.8440099 21.7060756,16.6250585 C21.8623066,16.7812894 22.0379541,16.9062699 22.2252504,17 L1.34444112,17 L1.34444112,9 L1.34444112,9 C1.34444112,6.790861 3.13530212,5 5.34444112,5 L5.34444112,5 L25.291545,5 L25.291545,5 C27.500684,5 29.291545,6.790861 29.291545,9 L29.291545,17 L24.015328,17 Z M19.2256236,12.4862378 C20.3301931,12.4862378 21.2256236,11.5908073 21.2256236,10.4862378 C21.2256236,9.38166829 20.3301931,8.48623779 19.2256236,8.48623779 C18.1210541,8.48623779 17.2256236,9.38166829 17.2256236,10.4862378 C17.2256236,11.5908073 18.1210541,12.4862378 19.2256236,12.4862378 Z M10.4062704,13.794046 C10.4062704,12.6894765 9.51083989,11.794046 8.40627039,11.794046 C7.30170089,11.794046 6.40627039,12.6894765 6.40627039,13.794046 C6.40627039,14.8986155 7.30170089,15.794046 8.40627039,15.794046 C9.51083989,15.794046 10.4062704,14.8986155 10.4062704,13.794046 Z M14.5450911,11.313594 C15.3261396,10.5325455 15.3261396,9.26621551 14.5450911,8.48516692 C13.7640425,7.70411834 12.4977125,7.70411834 11.7166639,8.48516692 C10.9356153,9.26621551 10.9356153,10.5325455 11.7166639,11.313594 C12.4977125,12.0946426 13.7640425,12.0946426 14.5450911,11.313594 Z"/>
    <path fill="#FFF" d="M7.14643765,18 C6.18003245,18.3760725 5.65303102,19.4401165 5.961144,20.4479086 C6.28408886,21.5042137 7.40219185,22.0987196 8.45849692,21.7757747 C9.51480198,21.4528298 10.1093079,20.3347269 9.78636302,19.2784218 C9.60039158,18.6701366 9.15073284,18.2149915 8.60103534,18 L29.338118,18 L30.6291597,26.3917713 C30.6601233,26.5930347 30.675673,26.7963687 30.675673,27 C30.675673,29.209139 28.884812,31 26.675673,31 L4.00056307,31 L4.00056307,31 C3.79693177,31 3.59359775,30.9844504 3.39233433,30.9534868 C1.20888387,30.6175713 -0.288839176,28.5752217 0.0470762796,26.3917713 L0.0470762796,26.3917713 L1.33811801,18 L7.14643765,18 Z M20.8218771,20.3410209 C20.3033131,21.3162979 20.6735522,22.5272953 21.6488292,23.0458592 C22.6241062,23.5644232 23.8351035,23.1941842 24.3536675,22.2189072 C24.8722315,21.2436302 24.5019924,20.0326328 23.5267154,19.5140689 C22.5514384,18.9955049 21.3404411,19.365744 20.8218771,20.3410209 Z M17.2784218,23.2620201 C16.2221167,23.584965 15.6276108,24.7030679 15.9505557,25.759373 C16.2735005,26.8156781 17.3916035,27.410184 18.4479086,27.0872391 C19.5042137,26.7642942 20.0987196,25.6461913 19.7757747,24.5898862 C19.4528298,23.5335811 18.3347269,22.9390752 17.2784218,23.2620201 Z M12.7073622,22.8218771 C11.7320852,22.3033131 10.5210878,22.6735522 10.0025239,23.6488292 C9.4839599,24.6241062 9.85419895,25.8351035 10.8294759,26.3536675 C11.8047529,26.8722315 13.0157503,26.5019924 13.5343142,25.5267154 C14.0528782,24.5514384 13.6826392,23.3404411 12.7073622,22.8218771 Z"/>
  </g>
</svg>
