<svg xmlns="http://www.w3.org/2000/svg" width="60" height="60" viewBox="0 0 60 60">
  <path fill="#FFF" fill-rule="evenodd" d="M23.5567766,32.8231937 L23.5567766,28.3061855 L29.9698544,24.7056479 L40.0731628,30.362674 L40.0731628,23.4363452 L29.9698544,18.0607537 L19.8587909,23.4363452 C19.8587909,26.2318409 19.8587909,28.671393 19.8587909,30.7550015 C19.8587909,33.8363353 20.5782782,41.4477555 29.7664832,42.0771876 C33.4094367,41.873919 36.1385922,40.4939254 37.9539497,37.9372067 L41.4005424,39.8523264 C38.4509818,43.9350472 34.572962,45.9842718 29.7664832,46 C25.6266788,45.9079603 22.2418579,44.3674608 19.6120203,41.3785016 C17.1564037,38.8431868 15.9528674,35.3020201 16.0014116,30.7550015 C16.0499557,26.2079829 16.0499557,23.5010406 16.0014116,22.6341744 C16.2575092,21.4614068 16.9233017,20.5832018 17.9987892,19.9995593 C19.0742766,19.4159167 22.3086089,17.6946448 27.7017859,14.8357434 C28.4767458,14.2844978 29.2327686,14.0059468 29.9698544,14.0000904 C30.7069401,13.9942341 31.5292174,14.2727851 32.4366861,14.8357434 L42.5030268,20.1958097 C43.475385,20.9229954 43.9701054,21.7357836 43.987188,22.6341744 C44.0042707,23.5325652 44.0042707,26.7033834 43.987188,32.1466289 C43.9430681,33.1698036 43.5431625,33.9246792 42.7874711,34.4112556 C41.6539339,35.1411203 40.6158875,35.3482112 38.8258979,34.2077159 C37.6325716,33.4473857 34.6906056,31.7929635 30,29.2444493 L23.5567766,32.8231937 Z"/>
</svg>
