<?xml version="1.0" encoding="UTF-8"?>
<svg width="60px" height="60px" viewBox="0 0 60 60" version="1.1" xmlns="http://www.w3.org/2000/svg" xmlns:xlink="http://www.w3.org/1999/xlink">
    <!-- Generator: Sketch 46.2 (44496) - http://www.bohemiancoding.com/sketch -->
    <title>provider-svg--browser-stack</title>
    <desc>Created with Sketch.</desc>
    <defs>
        <radialGradient cx="50.141%" cy="50.003%" fx="50.141%" fy="50.003%" r="50.119%" id="radialGradient-1">
            <stop stop-color="#797979" offset="0%"></stop>
            <stop stop-color="#4C4C4C" offset="100%"></stop>
        </radialGradient>
    </defs>
    <g id="Week-38-Batch-#4" stroke="none" stroke-width="1" fill="none" fill-rule="evenodd">
        <g id="provider-svg--browser-stack" fill-rule="nonzero">
            <g id="browserstack" transform="translate(15.000000, 15.000000)">
                <path d="M14.9940234,30 C6.74877887,30 0.0646875,23.3159086 0.0646875,15.0706641 C0.0646875,6.8254195 6.74877887,0.141328125 14.9940234,0.141328125 C23.239268,0.141328125 29.9233594,6.8254195 29.9233594,15.0706641 C29.9233594,23.3159086 23.239268,30 14.9940234,30 Z M15.1559766,17.5318359 C18.0534004,17.5318359 20.4022266,15.1830098 20.4022266,12.2855859 C20.4022266,9.38816207 18.0534004,7.03933594 15.1559766,7.03933594 C12.2585527,7.03933594 9.90972656,9.38816207 9.90972656,12.2855859 C9.90972656,15.1830098 12.2585527,17.5318359 15.1559766,17.5318359 Z" id="Combined-Shape" fill-opacity="0.5" fill="#FFFFFF"></path>
                <path d="M13.4719922,26.9882812 C6.04947931,26.9882812 0.03234375,20.9711457 0.03234375,13.5486328 C0.03234375,6.12611994 6.04947931,0.108984375 13.4719922,0.108984375 C20.8945051,0.108984375 26.9116406,6.12611994 26.9116406,13.5486328 C26.9116406,20.9711457 20.8945051,26.9882812 13.4719922,26.9882812 Z M15.1559766,17.5318359 C18.0534004,17.5318359 20.4022266,15.1830098 20.4022266,12.2855859 C20.4022266,9.38816207 18.0534004,7.03933594 15.1559766,7.03933594 C12.2585527,7.03933594 9.90972656,9.38816207 9.90972656,12.2855859 C9.90972656,15.1830098 12.2585527,17.5318359 15.1559766,17.5318359 Z" id="Combined-Shape" fill-opacity="0.5" fill="#FFFFFF"></path>
                <path d="M15.253125,23.4258984 C8.81436934,23.4258984 3.59472656,18.2062557 3.59472656,11.7675 C3.59472656,5.32874434 8.81436934,0.109101562 15.253125,0.109101562 C21.6918807,0.109101562 26.9115234,5.32874434 26.9115234,11.7675 C26.9115234,18.2062557 21.6918807,23.4258984 15.253125,23.4258984 Z M15.1559766,17.5318359 C18.0534004,17.5318359 20.4022266,15.1830098 20.4022266,12.2855859 C20.4022266,9.38816207 18.0534004,7.03933594 15.1559766,7.03933594 C12.2585527,7.03933594 9.90972656,9.38816207 9.90972656,12.2855859 C9.90972656,15.1830098 12.2585527,17.5318359 15.1559766,17.5318359 Z" id="Combined-Shape" fill-opacity="0.5" fill="#FFFFFF"></path>
                <path d="M16.1922656,23.4258984 C10.272183,23.4258984 5.47300781,18.6267232 5.47300781,12.7066406 C5.47300781,6.78655801 10.272183,1.98738281 16.1922656,1.98738281 C22.1123482,1.98738281 26.9115234,6.78655801 26.9115234,12.7066406 C26.9115234,18.6267232 22.1123482,23.4258984 16.1922656,23.4258984 Z M15.1559766,17.5318359 C18.0534004,17.5318359 20.4022266,15.1830098 20.4022266,12.2855859 C20.4022266,9.38816207 18.0534004,7.03933594 15.1559766,7.03933594 C12.2585527,7.03933594 9.90972656,9.38816207 9.90972656,12.2855859 C9.90972656,15.1830098 12.2585527,17.5318359 15.1559766,17.5318359 Z" id="Combined-Shape" fill-opacity="0.5" fill="#FFFFFF"></path>
                <path d="M15.4150781,23.4258984 C9.92422431,23.4258984 5.47300781,18.9746819 5.47300781,13.4838281 C5.47300781,7.99297431 9.92422431,3.54175781 15.4150781,3.54175781 C20.9059319,3.54175781 25.3571484,7.99297431 25.3571484,13.4838281 C25.3571484,18.9746819 20.9059319,23.4258984 15.4150781,23.4258984 Z M15.1559766,17.5318359 C18.0534004,17.5318359 20.4022266,15.1830098 20.4022266,12.2855859 C20.4022266,9.38816207 18.0534004,7.03933594 15.1559766,7.03933594 C12.2585527,7.03933594 9.90972656,9.38816207 9.90972656,12.2855859 C9.90972656,15.1830098 12.2585527,17.5318359 15.1559766,17.5318359 Z" id="Combined-Shape" fill-opacity="0.700000048" fill="#FFFFFF"></path>
                <path d="M13.8282422,20.2846875 C9.21377366,20.2846875 5.47300781,16.5439217 5.47300781,11.9294531 C5.47300781,7.3149846 9.21377366,3.57421875 13.8282422,3.57421875 C18.4427107,3.57421875 22.1834766,7.3149846 22.1834766,11.9294531 C22.1834766,16.5439217 18.4427107,20.2846875 13.8282422,20.2846875 Z M15.1559766,17.5318359 C18.0534004,17.5318359 20.4022266,15.1830098 20.4022266,12.2855859 C20.4022266,9.38816207 18.0534004,7.03933594 15.1559766,7.03933594 C12.2585527,7.03933594 9.90972656,9.38816207 9.90972656,12.2855859 C9.90972656,15.1830098 12.2585527,17.5318359 15.1559766,17.5318359 Z" id="Combined-Shape" fill-opacity="0.5" fill="#FFFFFF"></path>
                <path d="M15.145719,17.5318261 C15.1599095,17.5319108 15.1741099,17.5319531 15.1883203,17.5319531 C19.0515737,17.5319531 22.1833594,14.4001675 22.1833594,10.5369141 C22.1833594,6.67366066 19.0515737,3.541875 15.1883203,3.541875 C11.3250669,3.541875 8.19328125,6.67366066 8.19328125,10.5369141 C8.19328125,14.3279305 11.2090426,17.4145781 14.9723922,17.5286839 C12.1599834,17.4319635 9.90972656,15.1215626 9.90972656,12.2855859 C9.90972656,9.38816207 12.2585527,7.03933594 15.1559766,7.03933594 C18.0534004,7.03933594 20.4022266,9.38816207 20.4022266,12.2855859 C20.4022266,15.1830098 18.0534004,17.5318359 15.1559766,17.5318359 C15.1525566,17.5318359 15.1491374,17.5318327 15.145719,17.5318261 Z" id="Combined-Shape" fill-opacity="0.5" fill="#FFFFFF"></path>
                <path d="M15.3819438,17.5270571 C15.6054996,17.5516651 15.8326614,17.5642969 16.0627734,17.5642969 C19.4610074,17.5642969 22.2158203,14.809484 22.2158203,11.41125 C22.2158203,8.01301605 19.4610074,5.25820313 16.0627734,5.25820313 C12.6645395,5.25820313 9.90972656,8.01301605 9.90972656,11.41125 C9.90972656,11.5641671 9.91530481,11.7157814 9.92626892,11.8659004 C10.1400728,9.16470364 12.3998216,7.03933594 15.1559766,7.03933594 C18.0534004,7.03933594 20.4022266,9.38816207 20.4022266,12.2855859 C20.4022266,15.1073021 18.1745432,17.408715 15.3819438,17.5270571 Z" id="Combined-Shape" fill-opacity="0.5" fill="#FFFFFF"></path>
                <path d="" id="Combined-Shape" fill="url(#radialGradient-1)"></path>
                <path d="" id="Combined-Shape" fill="#231F20"></path>
                <path d="M16.53375,11.5981641 C17.0539453,11.8316016 17.77125,11.3619141 18.1359375,10.5492187 C18.500625,9.73640625 18.3745312,8.88832031 17.8544531,8.655 C17.3341406,8.4215625 16.6169531,8.89125 16.2522656,9.70394531 C15.8875781,10.5167578 16.0135547,11.3648437 16.53375,11.5981641 L16.53375,11.5981641 Z" id="Combined-Shape" fill="#FFFFFF"></path>
            </g>
        </g>
    </g>
</svg>