<?xml version="1.0" encoding="UTF-8"?>
<svg width="60px" height="60px" viewBox="0 0 60 60" version="1.1" xmlns="http://www.w3.org/2000/svg" xmlns:xlink="http://www.w3.org/1999/xlink">
    <!-- Generator: Sketch 46.2 (44496) - http://www.bohemiancoding.com/sketch -->
    <title>provider-svg--chargebee</title>
    <desc>Created with Sketch.</desc>
    <defs></defs>
    <g id="Week-38-Batch-#4" stroke="none" stroke-width="1" fill="none" fill-rule="evenodd">
        <g id="provider-svg--chargebee" fill-rule="nonzero" fill="#FFFFFF">
            <g id="icon" transform="translate(17.000000, 15.000000)">
                <path d="M15.1402915,27.9545455 C11.6476981,27.9545455 8.36409441,26.6070545 5.89442712,24.1602545 C3.42475983,21.7134545 2.06467555,18.4603091 2.06467555,15 C2.06467555,11.5397454 3.42475983,8.28654545 5.89442712,5.8398 C8.36409441,3.393 11.6476981,2.04545455 15.1402915,2.04545455 C16.963225,2.04545455 18.7275799,2.41025455 20.3843568,3.12965455 C21.9843166,3.82434545 23.4083751,4.81510909 24.6170576,6.0744 C24.9313679,6.40183636 24.9182097,6.91969091 24.5877131,7.23109091 C24.2572716,7.54243636 23.7345774,7.52950909 23.4201569,7.20201819 C22.3635922,6.10118181 21.1191788,5.23527272 19.7213818,4.6284 C18.2749708,4.00030909 16.7335898,3.68181819 15.1402915,3.68181819 C8.84109288,3.68181819 3.7163323,8.75912728 3.7163323,15 C3.7163323,21.2408728 8.84109288,26.3181819 15.1402915,26.3181819 C16.7339201,26.3181819 18.2755214,25.9995819 19.7222627,25.3713273 C21.1202249,24.7641273 22.3648034,23.8978909 23.4213681,22.7966727 C23.7356784,22.4691819 24.2583177,22.4562 24.5889244,22.7673819 C24.9194759,23.0787273 24.9326891,23.5965819 24.618489,23.9241273 C23.4098066,25.1838545 21.985583,26.175 20.3854029,26.8699636 C18.7282956,27.5896909 16.9636105,27.9545455 15.1402915,27.9545455" id="Fill-1"></path>
                <path d="M15.1402915,25.3636364 C9.37232075,25.3636364 4.67979874,20.7145636 4.67979874,15 C4.67979874,9.28549091 9.37232075,4.63636364 15.1402915,4.63636364 C16.5987045,4.63636364 18.0101552,4.92818181 19.3354997,5.50363636 C20.6154786,6.05945455 21.7547914,6.85205455 22.7217264,7.85950909 C22.9312665,8.0778 22.9225127,8.42307273 22.7021268,8.63067273 C22.4817956,8.83821819 22.1332961,8.82954545 21.9237559,8.61125455 C20.1387555,6.75152727 17.7296489,5.72727272 15.1402915,5.72727272 C9.97952482,5.72727272 5.78090324,9.88701819 5.78090324,15 C5.78090324,20.1129819 9.97952482,24.2727273 15.1402915,24.2727273 C16.5339595,24.2727273 17.8745543,23.9767636 19.1248034,23.3930181 C19.3998042,23.2645636 19.7279333,23.3814 19.8575333,23.6539091 C19.9871333,23.9264181 19.8692601,24.2514 19.5941492,24.3798545 C18.1960217,25.0326545 16.6974735,25.3636364 15.1402915,25.3636364" id="Fill-3"></path>
                <path d="M25.7576091,21.1082836 C26.1357284,21.3609927 26.2354884,21.8694655 25.9804727,22.2440836 C25.7254018,22.6187019 25.2121219,22.7175927 24.8340026,22.4648836 C24.4558834,22.2122291 24.3561233,21.7037019 24.6111942,21.3290836 C24.8662099,20.9544655 25.3794898,20.8555745 25.7576091,21.1082836" id="Fill-5"></path>
                <path d="M15.1402915,30 C11.09621,30 7.29415116,28.4397273 4.43458276,25.6065819 C1.57490426,22.7734909 0.000104604928,19.0066364 0.000104604928,15 C0.000104604928,10.9933636 1.57490426,7.22656364 4.43458276,4.39341819 C7.29415116,1.56027272 11.09621,0 15.1402915,0 C17.251219,0 19.2940982,0.422345455 21.2122222,1.2552 C23.0647755,2.05958181 24.7137895,3.20683636 26.1134585,4.66510909 C26.3229437,4.8834 26.3141899,5.22867273 26.0938038,5.43627273 C25.8734728,5.64381819 25.5249732,5.63514545 25.315433,5.41685455 C24.0172309,4.06423636 22.4880169,3.00021819 20.7702389,2.25436364 C18.9923405,1.48238181 17.0981655,1.09090909 15.1402915,1.09090909 C11.390315,1.09090909 7.86479857,2.53772727 5.21317376,5.1648 C2.5614939,7.79192728 1.10120911,11.2848 1.10120911,15 C1.10120911,18.7152545 2.5614939,22.2081273 5.21317376,24.8352 C7.86479857,27.4623273 11.390315,28.9090909 15.1402915,28.9090909 C15.6907887,28.9090909 16.2451398,28.8772364 16.7880393,28.8144 C17.0894117,28.7797636 17.3634766,28.9936364 17.3987119,29.2928728 C17.4340023,29.5920545 17.2177454,29.8629819 16.9157675,29.8979455 C16.3306956,29.9656364 15.7332914,30 15.1402915,30" id="Fill-7"></path>
                <path d="M18.487908,29.6177019 C18.2381224,29.6177019 18.0119555,29.4481745 17.9523858,29.1968291 C17.8829061,28.9035381 18.0665703,28.6099745 18.3625472,28.5411381 C20.2432337,28.1036291 21.9847405,27.2981019 23.5387293,26.14692 C23.7822387,25.9665381 24.1272698,26.0158472 24.3093373,26.2571564 C24.49146,26.4983564 24.4416351,26.8401927 24.1981258,27.0206291 C22.5219695,28.2622472 20.64332,29.1311564 18.6142598,29.6031381 C18.5719222,29.6130109 18.5295847,29.6177019 18.487908,29.6177019" id="Fill-9"></path>
                <path d="M25.1387829,26.0720891 C24.9922809,26.0720891 24.8462195,26.0145436 24.7378157,25.9004891 C24.5294316,25.6812164 24.5398921,25.3359981 24.7613243,25.1294891 C24.9678914,24.9368345 25.1707699,24.73578 25.3644542,24.5319436 C25.5727281,24.3126164 25.9211727,24.3020345 26.1426598,24.5086528 C26.364092,24.7151073 26.3746075,25.0602709 26.1661685,25.2797073 C25.957454,25.4993619 25.7386646,25.7161255 25.5160763,25.92378 C25.4097647,26.0229436 25.2741086,26.0720891 25.1387829,26.0720891" id="Fill-11"></path>
                <path d="M20.7897449,23.6133872 C20.6175872,23.6133872 20.4480721,23.5336419 20.3407144,23.3841327 C20.1644277,23.1386781 20.2222907,22.7980964 20.4700393,22.6234964 C21.0830792,22.1912781 21.3948569,21.9397691 21.9238275,21.3887509 C22.1332576,21.1705691 22.4818122,21.1617872 22.7021432,21.3693872 C22.9224743,21.5769872 22.9312281,21.9222055 22.7216879,22.1405509 C22.1260453,22.76106 21.7426958,23.0652055 21.1084596,23.51226 C21.0116175,23.5805509 20.9001306,23.6133872 20.7897449,23.6133872" id="Fill-13"></path>
                <path d="M23.8637204,2.7369 C23.0540232,2.17066364 22.187619,1.68477272 21.2819056,1.28626364 C20.3086943,0.858081819 19.290503,0.531245455 18.2480874,0.315572727 C17.2033044,0.0993545455 16.1356184,-0.00466363636 15.068428,0.000190909091 C14.1245611,0.0045 13.1811348,0.0942818181 12.25417,0.270572727 C11.3404735,0.444354545 10.4432385,0.702081819 9.57777033,1.04037273 C8.716101,1.37713636 7.8863637,1.79359091 7.10221214,2.28215455 C6.30864611,2.77655455 5.56209726,3.34464545 4.87374179,3.97502727 C4.17778868,4.61239091 3.54057951,5.31286364 2.97461179,6.06608181 C2.41778324,6.80702727 1.93026923,7.59897273 1.52131901,8.42920909 C1.11545189,9.25317272 0.787157587,10.1145545 0.541776449,10.9986273 C0.294248156,11.8905545 0.131229634,12.8051727 0.0534916567,13.7269364 C-0.0293664571,14.7099545 -0.0161532031,15.7011545 0.0944527443,16.6815 C0.208857502,17.6953364 0.427757077,18.6973909 0.747738045,19.6670455 C1.06430559,20.6265 1.4796422,21.5537727 1.98515929,22.4301545 C2.50669744,23.3343 3.12816081,24.1923 3.8317666,24.9737727 C4.48532717,25.6996636 5.20831239,26.3639727 5.98938087,26.9533909 C6.73185563,27.5136819 7.52657781,28.0058455 8.36082964,28.4204455 C9.1908422,28.8329181 10.0596687,29.1684272 10.9524442,29.4214091 C11.8496242,29.6756455 12.7706431,29.8464272 13.6997551,29.9327727 C14.1560527,29.9752091 14.6142774,29.9971909 15.0726121,29.9992091 C14.9759352,29.2008272 14.7737723,28.4154272 14.4720146,27.6689727 C14.1793411,26.9449909 13.7934591,26.2584272 13.3273615,25.6299545 C12.863301,25.0042091 12.319961,24.4363909 11.7141333,23.9437909 C11.1053326,23.4487364 10.3923659,23.1246994 9.71942742,22.7011364 C9.62498936,22.6416949 9.18038172,22.2148585 8.38560449,21.4206272 C8.17771596,21.1967363 8.02466243,21.0260818 7.92644391,20.9086636 C7.35304374,20.2228091 6.87984407,19.4555181 6.52738052,18.6362455 C6.17557764,17.8187181 5.94473108,16.9510636 5.84243846,16.0681909 C5.74840415,15.2562819 5.76183762,14.4318272 5.88378494,13.6235181 C5.99516167,12.8853545 6.19743457,12.1610454 6.48504306,11.4712091 C6.76488877,10.7999182 7.12506005,10.1618454 7.5549863,9.57362727 C7.98331595,8.98753636 8.48057475,8.45119091 9.03349438,7.9785 C9.58817577,7.50433636 10.1986832,7.09442727 10.8492157,6.76055455 C11.5074009,6.4227 12.2061618,6.16306364 12.9263943,5.98933636 C13.6764116,5.80846364 14.4486162,5.7213 15.2204355,5.72762727 C16.1029156,5.73482727 16.9841296,5.86257272 17.8301632,6.11206364 C18.6618825,6.3573 19.4574305,6.7197 20.1870774,7.18497272 C20.5582598,7.42164545 20.9123198,7.68455455 21.2461747,7.97064545 C21.4152493,8.11551819 21.5791488,8.26628181 21.7375977,8.42255455 C21.9005061,8.58324545 22.0538899,8.75108181 22.2352419,8.8923 C22.9350488,9.43720909 23.8726393,9.63057272 24.7346389,9.41304545 C25.5742312,9.20113636 26.2896738,8.60795455 26.6489092,7.82713636 C26.9672935,7.13511819 26.9931144,6.32768181 26.7198202,5.61706364 C26.5838339,5.26366364 26.3761656,4.9389 26.1131667,4.66486364 C25.4288303,3.95184545 24.6751242,3.30433636 23.8637204,2.7369 Z" id="Fill-15"></path>
                <path d="M18.7188647,15.0000219 C18.7188647,13.0418945 17.1166475,11.4545673 15.140275,11.4545673 C13.1638475,11.4545673 11.5616854,13.0418945 11.5616854,15.0000219 C11.5616854,16.9580945 13.1638475,18.5454764 15.140275,18.5454764 C17.1166475,18.5454764 18.7188647,16.9580945 18.7188647,15.0000219" id="Fill-17"></path>
            </g>
        </g>
    </g>
</svg>