<?xml version="1.0" encoding="UTF-8"?>
<svg width="60px" height="60px" viewBox="0 0 60 60" version="1.1" xmlns="http://www.w3.org/2000/svg" xmlns:xlink="http://www.w3.org/1999/xlink">
    <!-- Generator: Sketch 46.2 (44496) - http://www.bohemiancoding.com/sketch -->
    <title>provider-svg--zenhub</title>
    <desc>Created with Sketch.</desc>
    <defs></defs>
    <g id="Week-38-Batch-#4" stroke="none" stroke-width="1" fill="none" fill-rule="evenodd">
        <g id="provider-svg--zenhub" fill-rule="nonzero" fill="#FFFFFF">
            <path d="M41.126935,19.5652174 C40.1981424,20.4968944 39.0835913,21.8012422 37.876161,23.2919255 C36.5758514,24.7826087 35.2755418,26.4596273 33.9752322,28.2298137 C32.5820433,30 31.2817337,31.863354 29.9814241,33.8198758 C28.6811146,35.6832298 27.4736842,37.5465839 26.4520124,39.3167702 L41.6842105,39.3167702 L41.6842105,45 L18,45 L18,40.9937888 C18.8359133,39.5031056 19.7647059,37.9192547 20.9721362,36.0559006 C22.1795666,34.2857143 23.3869969,32.4223602 24.5944272,30.5590062 C25.8018576,28.6956522 27.1950464,26.9254658 28.495356,25.2484472 C29.7956656,23.5714286 31.003096,21.9875776 32.1176471,20.6832298 L18.7430341,20.6832298 L18.7430341,15 L41.126935,15 L41.126935,19.5652174 L41.126935,19.5652174 Z" id="icon"></path>
        </g>
    </g>
</svg>