<?xml version="1.0" encoding="UTF-8"?>
<svg width="60px" height="60px" viewBox="0 0 60 60" version="1.1" xmlns="http://www.w3.org/2000/svg" xmlns:xlink="http://www.w3.org/1999/xlink">
    <!-- Generator: Sketch 46.2 (44496) - http://www.bohemiancoding.com/sketch -->
    <title>provider-svg--fizen</title>
    <desc>Created with Sketch.</desc>
    <defs></defs>
    <g id="Week-38-Batch-#4" stroke="none" stroke-width="1" fill="none" fill-rule="evenodd">
        <g id="provider-svg--fizen" fill="#FFFFFF">
            <g id="Group" transform="translate(16.000000, 15.000000)">
                <path d="M28.1880726,23.2371124 C24.6273872,16.072268 20.0245616,12.6683715 14.3795956,13.0254229 C5.91214672,13.5610001 -0.45353763,19.211353 0.0253346689,26.125373 C0.504206968,33.0393931 8.84439187,29.848772 14.9604267,25.2832754 C19.0377832,22.239611 23.4469985,21.5575567 28.1880726,23.2371124 Z" id="Path-2-Copy" transform="translate(14.094036, 21.568284) scale(-1, -1) translate(-14.094036, -21.568284) "></path>
                <path d="M28.4496895,10.9386124 C24.8890041,3.773768 20.2861785,0.369871498 14.6412126,0.726922918 C6.17376364,1.26250005 -0.191920705,6.91285295 0.286951594,13.826873 C0.765823893,20.7408931 8.82652852,18.8883814 15.2969015,13.4642009 C19.6104834,9.84808052 23.9947461,9.00621771 28.4496895,10.9386124 Z" id="Path-2"></path>
            </g>
        </g>
    </g>
</svg>