<svg xmlns="http://www.w3.org/2000/svg" width="60" height="60" viewBox="0 0 60 60">
  <path fill="#FFF" fill-rule="evenodd" d="M34.2438,41.797917 L33.5152138,41.7969788 C32.7679034,41.3467355 32.6306276,40.8568784 33.0536276,40.1102606 C33.5008345,39.3209015 34.0911103,38.6423571 34.6961793,37.9749672 C36.4483862,36.0419131 36.8012483,33.788612 35.9759379,31.3872799 C35.1592138,29.0105502 33.4174552,27.5836158 30.9480414,27.1990483 C26.7875586,26.5510483 23.2261448,30.0446815 23.6503862,34.2403147 C23.8122828,35.8420714 24.458731,37.1567317 25.5600414,38.2849981 C26.0931103,38.8310444 26.5553172,39.4374498 26.9349724,40.1026506 C27.3635586,40.853751 27.2301103,41.3381873 26.4841448,41.7954151 C26.2412483,41.7971873 25.9983517,41.799168 25.7553517,41.8010444 C25.2630414,41.5739942 25.0545931,41.1827548 25.0331793,40.6423378 C25.0000759,39.8056506 24.4777655,39.2716969 23.6484207,39.1750598 C22.6386621,39.0573649 22.1825586,38.3529672 22.4820414,37.3738784 C22.8562138,36.1509556 22.5256966,34.9610792 21.4823172,34.2378127 C20.3741793,33.4696158 20.6023862,32.0173494 21.6706966,31.5029942 C22.917869,30.9025309 23.3818345,29.5195888 22.9716621,28.1767819 C22.4971448,26.6232915 23.4721448,25.4984653 25.0691793,25.7567896 C26.4164897,25.9747703 27.4894552,25.4521795 28.1143862,24.2414537 C28.5151448,23.4648127 29.1065586,23.0097741 29.9933172,23.0117548 C30.9001448,23.0138398 31.4951793,23.4744035 31.8930414,24.284195 C32.4482483,25.4139208 33.6289034,25.9817548 34.8656276,25.767527 C36.5333172,25.4786583 37.4869034,26.5732529 37.0000759,28.217751 C36.6076966,29.5433571 37.1381793,30.853639 38.3489379,31.5488629 C39.5069379,32.2138552 39.591869,33.354944 38.5454897,34.1888166 C37.4571103,35.0560483 37.1326966,36.1095695 37.5351103,37.46989 C37.7886621,38.3266969 37.3331793,39.0416236 36.4528345,39.1691178 C35.4183517,39.3189208 35.0269034,39.7239208 34.9562483,40.7400174 C34.9215931,41.2375888 34.6936966,41.5905695 34.2438,41.797917 Z M30.0186931,21.7930124 C29.0184517,21.8013521 28.2407276,21.0248154 28.2439345,20.0209158 C28.2471414,19.0716417 29.0560034,18.2587228 29.9981069,18.2583058 C30.9317276,18.2578888 31.7420379,19.0757073 31.7518655,20.0283174 C31.7617966,20.9945838 30.9856241,21.7848811 30.0186931,21.7930124 Z M34.2190552,24.2988625 C33.3100552,24.2949012 32.6651586,23.6386656 32.6679517,22.7201444 C32.6704345,21.825183 33.3484345,21.1445537 34.2357103,21.1461174 C35.1078828,21.1475768 35.8024345,21.8549977 35.797469,22.7365112 C35.7925034,23.6279282 35.1106759,24.3027197 34.2190552,24.2988625 Z M27.3277241,22.7086355 C27.3341379,23.6121452 26.6745517,24.2912108 25.7832414,24.2987166 C24.8891379,24.3062224 24.201931,23.6334116 24.1982069,22.74679 C24.1944828,21.8565197 24.8756897,21.1530602 25.7481724,21.1460757 C26.6345172,21.1390911 27.3213103,21.8185737 27.3277241,22.7086355 Z M39.6821069,27.4997282 C40.5377276,27.4985815 41.2029,28.1835892 41.1941069,29.0570757 C41.1856241,29.9168015 40.5443483,30.5515622 39.6852103,30.5507282 C38.8193483,30.5498942 38.1553138,29.874373 38.164831,29.0041181 C38.1740379,28.164512 38.8434517,27.5008749 39.6821069,27.4997282 Z M20.3230862,30.5507907 C19.4616724,30.5578795 18.8167759,29.930729 18.8019828,29.0714201 C18.7867759,28.1964741 19.4440862,27.5052116 20.2959828,27.4999992 C21.1573966,27.4948911 21.8310517,28.1707251 21.8313621,29.0406672 C21.8316724,29.8757907 21.1645345,30.5438062 20.3230862,30.5507907 Z M21.6325552,36.264783 C21.6320379,36.9956595 21.0497276,37.5951846 20.3334517,37.6021691 C19.6006241,37.6092579 19.0085897,36.9945127 19.0165552,36.2346556 C19.0243138,35.5099297 19.6221414,34.9169722 20.3363483,34.925729 C21.0535552,34.9346942 21.6330724,35.5332811 21.6325552,36.264783 Z M40.9789552,36.2775012 C40.9728517,37.0058757 40.3810241,37.6044625 39.6688862,37.6022734 C38.9539552,37.6001884 38.3671966,37.003478 38.3623345,36.273644 C38.3574724,35.5213969 38.9638862,34.9091537 39.6970241,34.9260417 C40.4136103,34.9427212 40.9851621,35.5452695 40.9789552,36.2775012 Z M39.7398,24.7484282 C39.7314207,25.455432 39.1443517,26.0443239 38.4540414,26.0381734 C37.7286621,26.03171 37.1424207,25.4319764 37.1482138,24.7022467 C37.1536966,24.0082737 37.7461448,23.4275131 38.448869,23.4267834 C39.1986621,23.4259494 39.7486966,23.9891965 39.7398,24.7484282 Z M20.2549552,24.7511803 C20.2440931,23.9920529 20.7925759,23.4275548 21.5418517,23.4267208 C22.2456103,23.4258869 22.8219207,23.9885085 22.8460241,24.6997865 C22.8696103,25.3956359 22.2502655,26.0315432 21.5421621,26.0384236 C20.8525759,26.0450954 20.2650931,25.4575587 20.2549552,24.7511803 Z M19.8706552,32.7300452 C19.8614483,33.3365548 19.3804138,33.8135896 18.7772069,33.8142151 C18.1525862,33.8149448 17.6674138,33.3142459 17.6802414,32.6819873 C17.6922414,32.0867363 18.1907586,31.5872884 18.7731724,31.5869757 C19.3768966,31.5867672 19.8799655,32.1107131 19.8706552,32.7300452 Z M42.3148862,32.7226228 C42.3009207,33.3561324 41.7960931,33.8366073 41.1731276,33.8093988 C40.5621621,33.7827116 40.1143345,33.3031749 40.1246793,32.6869703 C40.135231,32.0704529 40.6619897,31.562144 41.2630241,31.5890398 C41.8495759,31.61531 42.3280241,32.130812 42.3148862,32.7226228 Z M29.6863759,15.0975232 C29.8952379,15.0980444 30.1041,15.0986699 30.3128586,15.0991911 C30.9438931,15.4428938 31.1724103,15.8675965 31.0312034,16.4344923 C30.9123414,16.9118398 30.4604793,17.2360483 29.9432379,17.2149903 C29.4768931,17.1961216 29.0688931,16.8693069 28.9630655,16.4298012 C28.8253759,15.8574846 29.0516172,15.4406004 29.6863759,15.0975232 Z M20.169031,22.6028143 C20.1824793,23.1432313 19.7367207,23.6150537 19.2038586,23.6245402 C18.7149621,23.6330884 18.2332034,23.1651232 18.2193414,22.6679687 C18.2041345,22.1208799 18.6423414,21.6673008 19.1896862,21.6638606 C19.7164448,21.6604205 20.1561,22.0818915 20.169031,22.6028143 Z M40.7860966,21.6637772 C41.3110966,21.6580436 41.7562345,22.0789934 41.7743379,22.598561 C41.7925448,23.120839 41.3174069,23.6250822 40.8066828,23.625395 C40.2755793,23.6257077 39.8230966,23.1618081 39.8267172,22.6204529 C39.8300276,22.0990089 40.2607862,21.6695108 40.7860966,21.6637772 Z M22.1536862,39.6153475 C22.1424103,40.1160463 21.7134103,40.5392896 21.2263759,40.5305328 C20.7023069,40.5210463 20.2673069,40.0685097 20.2906862,39.5570734 C20.3148931,39.0306255 20.7579621,38.6301081 21.2892724,38.6547104 C21.8103414,38.6787915 22.1659966,39.0740965 22.1536862,39.6153475 Z M37.8417621,39.5624108 C37.8520034,39.0282486 38.2292793,38.6529591 38.7562448,38.6531676 C39.2815552,38.6532718 39.7162448,39.0899629 39.7047621,39.6059861 C39.6934862,40.106268 39.2150379,40.5526541 38.7145552,40.5298239 C38.2261759,40.5076193 37.8320379,40.0708239 37.8417621,39.5624108 Z M23.5498862,41.7082332 C23.0611966,41.6978085 22.7224034,41.329712 22.7387483,40.8267197 C22.7536448,40.3645923 23.1120931,40.0154687 23.5724379,40.0145305 C24.0520241,40.013488 24.4252655,40.3937815 24.4177138,40.8755073 C24.4099552,41.3603606 24.0368172,41.7186579 23.5498862,41.7082332 Z M37.2569379,40.8938965 C37.2479379,41.3819815 36.8762483,41.7264139 36.3796966,41.7071282 C35.9224552,41.6893019 35.5789034,41.327356 35.577869,40.8624139 C35.576731,40.3805838 35.9541103,40.0067537 36.4340069,40.0143637 C36.9129724,40.0219737 37.2660414,40.3993483 37.2569379,40.8938965 Z M44.8889793,32.2103421 C44.8923931,32.4166471 44.8957034,32.6228479 44.8992207,32.8290486 C44.6986345,33.1875544 44.4209793,33.4199212 43.9864966,33.3478865 C43.6328069,33.2892996 43.4109103,33.0719444 43.3201862,32.718651 C43.2267724,32.3545158 43.3641517,32.0758633 43.6430483,31.8616355 C43.9127379,31.6546008 44.2075655,31.6344811 44.5075655,31.8031529 C44.6764966,31.898122 44.7993931,32.0388556 44.8889793,32.2103421 Z M15.0978414,32.8320614 C15.1015655,32.6239842 15.1051862,32.4158027 15.1088069,32.2076212 C15.3030828,31.8616251 15.5832207,31.6448954 15.9910138,31.7072351 C16.3177034,31.7571695 16.5611172,31.9517988 16.6566,32.2858066 C16.7861172,32.7388645 16.6054966,33.0732892 16.2156,33.285849 C15.8256,33.4984089 15.4656,33.339849 15.0978414,32.8320614 Z M19.2334034,41.7000811 C18.8413345,41.7098803 18.5336793,41.4292471 18.5136103,41.0435328 C18.4923,40.6341544 18.7983,40.3128649 19.2078517,40.3143243 C19.5876103,40.3157838 19.9021966,40.6209151 19.9093345,40.9947452 C19.9164724,41.3689923 19.6081966,41.6906988 19.2334034,41.7000811 Z M41.4827586,40.9962151 C41.4887586,41.3806784 41.1963103,41.6861224 40.8082759,41.7009255 C40.4200345,41.7155201 40.0750345,41.3815124 40.0754483,40.9913154 C40.0759655,40.638856 40.4201379,40.3112073 40.7860345,40.3145432 C41.1767586,40.3181919 41.4767586,40.6117517 41.4827586,40.9962151 Z"/>
</svg>
