<?xml version="1.0" encoding="UTF-8"?>
<svg width="60px" height="60px" viewBox="0 0 60 60" version="1.1" xmlns="http://www.w3.org/2000/svg" xmlns:xlink="http://www.w3.org/1999/xlink">
    <!-- Generator: Sketch 46.2 (44496) - http://www.bohemiancoding.com/sketch -->
    <title>provider-svg--n-26</title>
    <desc>Created with Sketch.</desc>
    <defs></defs>
    <g id="Week-38-Batch-#4" stroke="none" stroke-width="1" fill="none" fill-rule="evenodd">
        <g id="provider-svg--n-26" fill-rule="nonzero" fill="#FFFFFF">
            <g id="N26_logo" transform="translate(15.000000, 22.000000)">
                <path d="M1.2893617,4.91489362 L7.01489362,13.3691489 L8.06489362,13.3691489 L8.06489362,2.35212766 L6.79148936,2.35212766 L6.79148936,10.7297872 L1.24787234,2.55957447 L1.10744681,2.35212766 L0.507446809,2.35212766 L0.49787234,2.3393617 L0.49787234,2.35212766 L0.0159574468,2.35212766 L0.0159574468,13.3691489 L1.2893617,13.3691489 L1.2893617,4.91489362 Z M16.4521277,8.96170213 C18.3893617,7.78723404 19.1489362,6.7787234 19.1489362,5.35851064 C19.1489362,3.40851064 17.8308511,2.14787234 15.7978723,2.14787234 C14.259111,2.14791964 12.8662152,3.05856286 12.2489362,4.46808511 L12.0574468,4.89574468 L13.2095745,5.42553191 L13.4042553,5.01382979 C13.8077031,4.05107781 14.7476314,3.42278351 15.7914894,3.41808511 C17.0680851,3.41808511 17.85,4.14574468 17.85,5.36808511 C17.85,6.15319149 17.5085106,6.84893617 15.8170213,7.8893617 C12.7978723,9.74042553 12.1308511,10.5670213 12.0510638,12.5489362 L12.0510638,13.3787234 L19.1138298,13.3787234 L19.1138298,12.1021277 L13.3691489,12.1021277 C13.4840426,11.087234 13.9308511,10.4968085 16.4521277,8.96170213 Z M26.3297872,6.20425532 C25.3757394,6.23623733 24.4567501,6.57163488 23.706383,7.16170213 C23.9042553,4.78723404 24.9510638,3.39574468 26.5787234,3.39574468 C27.3017809,3.38032506 28.0003958,3.65769934 28.5159574,4.16489362 L28.8797872,4.48404255 L29.706383,3.5106383 L29.3425532,3.19148936 C28.587056,2.50274461 27.5977574,2.12733604 26.5755319,2.14148936 C24,2.14148936 22.4010638,4.39787234 22.4010638,8.02978723 C22.4010638,12.1117021 24.4244681,13.5670213 26.3170213,13.5670213 C28.7234043,13.5734043 30,11.6648936 30,9.7787234 C30,7.1393617 28.0244681,6.20425532 26.3297872,6.20425532 Z M28.7234043,9.7787234 C28.7234043,11.0393617 27.9,12.312766 26.3265957,12.312766 C25.2574468,12.312766 23.9425532,11.4031915 23.7095745,8.85 C24.1723404,8.29468085 25.1712766,7.46170213 26.3393617,7.46170213 C28.4808511,7.46489362 28.7234043,9.08297872 28.7234043,9.7787234 L28.7234043,9.7787234 Z M0,14.8053191 L8.08085106,14.8053191 L8.08085106,15.7531915 L0,15.7531915 L0,14.8053191 Z M0.0287234043,0 L8.08085106,0 L8.08085106,0.94787234 L0.0287234043,0.94787234 L0.0287234043,0 Z" id="Shape"></path>
            </g>
        </g>
    </g>
</svg>