<?xml version="1.0" encoding="UTF-8"?>
<svg width="60px" height="60px" viewBox="0 0 60 60" version="1.1" xmlns="http://www.w3.org/2000/svg" xmlns:xlink="http://www.w3.org/1999/xlink">
    <!-- Generator: Sketch 46.2 (44496) - http://www.bohemiancoding.com/sketch -->
    <title>provider-svg--concord</title>
    <desc>Created with Sketch.</desc>
    <defs></defs>
    <g id="Week-38-Batch-#4" stroke="none" stroke-width="1" fill="none" fill-rule="evenodd">
        <g id="provider-svg--concord" fill-rule="nonzero" fill="#FFFFFF">
            <g id="concord" transform="translate(12.000000, 19.000000)">
                <g id="Calque_13">
                    <path d="M8.73308271,8.63584906 C8.2575188,9.2 7.7387218,9.63396226 7.13345865,9.89433962 C6.52819549,10.154717 5.92293233,10.2849057 5.23120301,10.2849057 C4.4962406,10.2849057 3.80451128,10.154717 3.19924812,9.89433962 C2.59398496,9.63396226 2.03195489,9.28679245 1.59962406,8.85283019 C1.16729323,8.41886792 0.821428571,7.89811321 0.562030075,7.24716981 C0.302631579,6.63962264 0.172932331,5.94528302 0.172932331,5.20754717 C0.172932331,4.46981132 0.302631579,3.81886792 0.562030075,3.16792453 C0.821428571,2.56037736 1.16729323,1.99622642 1.59962406,1.56226415 C2.03195489,1.12830189 2.55075188,0.781132075 3.19924812,0.520754717 C3.80451128,0.260377358 4.4962406,0.130188679 5.23120301,0.130188679 C5.92293233,0.130188679 6.57142857,0.260377358 7.17669173,0.564150943 C7.78195489,0.867924528 8.30075188,1.25849057 8.77631579,1.77924528 L7.78195489,2.51698113 C7.43609023,2.12641509 7.04699248,1.82264151 6.61466165,1.56226415 C6.18233083,1.34528302 5.70676692,1.21509434 5.23120301,1.21509434 C4.66917293,1.21509434 4.10714286,1.34528302 3.67481203,1.51886792 C3.2424812,1.69245283 2.81015038,1.99622642 2.46428571,2.34339623 C2.11842105,2.69056604 1.85902256,3.1245283 1.72932331,3.60188679 C1.55639098,4.07924528 1.46992481,4.6 1.46992481,5.12075472 C1.46992481,5.64150943 1.55639098,6.16226415 1.72932331,6.63962264 C1.90225564,7.11698113 2.16165414,7.5509434 2.46428571,7.89811321 C2.81015038,8.24528302 3.19924812,8.5490566 3.67481203,8.72264151 C4.15037594,8.93962264 4.66917293,9.02641509 5.23120301,9.02641509 C5.75,9.02641509 6.22556391,8.89622642 6.65789474,8.67924528 C7.09022556,8.41886792 7.47932331,8.11509434 7.78195489,7.7245283 L8.73308271,8.63584906 Z" id="Shape"></path>
                </g>
                <g id="Calque_12" transform="translate(9.078947, 0.000000)">
                    <path d="M0.389097744,5.2509434 C0.389097744,4.51320755 0.518796992,3.86226415 0.778195489,3.21132075 C1.03759398,2.56037736 1.38345865,2.03962264 1.81578947,1.60566038 C2.2481203,1.17169811 2.76691729,0.824528302 3.41541353,0.564150943 C4.02067669,0.303773585 4.71240602,0.173584906 5.44736842,0.173584906 C6.18233083,0.173584906 6.83082707,0.303773585 7.47932331,0.564150943 C8.08458647,0.824528302 8.64661654,1.17169811 9.07894737,1.60566038 C9.5112782,2.03962264 9.85714286,2.56037736 10.1165414,3.21132075 C10.3759398,3.81886792 10.5056391,4.51320755 10.5056391,5.2509434 C10.5056391,5.98867925 10.3759398,6.63962264 10.1165414,7.29056604 C9.85714286,7.89811321 9.5112782,8.46226415 9.07894737,8.89622642 C8.64661654,9.33018868 8.12781955,9.67735849 7.47932331,9.93773585 C6.87406015,10.1981132 6.18233083,10.3283019 5.44736842,10.3283019 C4.71240602,10.3283019 4.02067669,10.1981132 3.41541353,9.93773585 C2.81015038,9.67735849 2.2481203,9.33018868 1.81578947,8.89622642 C1.38345865,8.46226415 1.03759398,7.94150943 0.778195489,7.29056604 C0.47556391,6.63962264 0.389097744,5.98867925 0.389097744,5.2509434 Z M1.59962406,5.2509434 C1.59962406,5.77169811 1.68609023,6.29245283 1.85902256,6.76981132 C2.03195489,7.24716981 2.29135338,7.68113208 2.59398496,8.02830189 C2.93984962,8.3754717 3.32894737,8.67924528 3.80451128,8.85283019 C4.28007519,9.06981132 4.79887218,9.15660377 5.36090226,9.15660377 C5.92293233,9.15660377 6.48496241,9.02641509 6.91729323,8.85283019 C7.39285714,8.63584906 7.78195489,8.3754717 8.12781955,8.02830189 C8.47368421,7.68113208 8.73308271,7.24716981 8.86278195,6.76981132 C9.03571429,6.29245283 9.12218045,5.77169811 9.12218045,5.2509434 C9.12218045,4.73018868 9.03571429,4.20943396 8.86278195,3.73207547 C8.68984962,3.25471698 8.43045113,2.82075472 8.12781955,2.47358491 C7.78195489,2.12641509 7.39285714,1.82264151 6.91729323,1.6490566 C6.44172932,1.43207547 5.92293233,1.34528302 5.36090226,1.34528302 C4.79887218,1.34528302 4.23684211,1.4754717 3.80451128,1.6490566 C3.32894737,1.86603774 2.93984962,2.12641509 2.59398496,2.47358491 C2.2481203,2.82075472 1.9887218,3.25471698 1.85902256,3.73207547 C1.68609023,4.20943396 1.59962406,4.68679245 1.59962406,5.2509434 Z" id="Shape"></path>
                </g>
                <g id="Calque_14" transform="translate(20.319549, 0.000000)">
                    <g id="N_concord_copie_1_">
                        <path d="M4.23684211,0.216981132 C1.40998324e-14,0.216981132 0.129699248,4.07924528 0.129699248,4.07924528 L0.129699248,10.0679245 L1.34022556,10.0679245 L1.34022556,4.07924528 C1.34022556,4.07924528 1.46992481,1.30188679 4.19360902,1.30188679 C6.91729323,1.30188679 6.91729323,4.07924528 6.91729323,4.07924528 L6.91729323,10.0679245 L8.12781955,10.0679245 L8.12781955,4.07924528 C8.17105263,4.07924528 8.47368421,0.216981132 4.23684211,0.216981132 Z" id="Shape"></path>
                    </g>
                </g>
                <g id="Calque_11" transform="translate(0.000000, 12.584906)">
                    <path d="M8.56015038,8.63584906 C8.08458647,9.2 7.56578947,9.63396226 6.96052632,9.89433962 C6.35526316,10.154717 5.75,10.2849057 5.05827068,10.2849057 C4.32330827,10.2849057 3.63157895,10.154717 3.02631579,9.89433962 C2.42105263,9.63396226 1.85902256,9.28679245 1.42669173,8.85283019 C0.994360902,8.41886792 0.648496241,7.89811321 0.389097744,7.24716981 C0.129699248,6.63962264 1.13686838e-13,5.94528302 1.13686838e-13,5.20754717 C1.13686838e-13,4.46981132 0.129699248,3.81886792 0.389097744,3.16792453 C0.648496241,2.56037736 0.994360902,1.99622642 1.42669173,1.56226415 C1.85902256,1.12830189 2.37781955,0.781132075 3.02631579,0.520754717 C3.63157895,0.260377358 4.32330827,0.130188679 5.05827068,0.130188679 C5.75,0.130188679 6.39849624,0.260377358 7.0037594,0.564150943 C7.60902256,0.867924528 8.12781955,1.25849057 8.60338346,1.77924528 L7.60902256,2.51698113 C7.26315789,2.12641509 6.87406015,1.82264151 6.44172932,1.56226415 C6.0093985,1.34528302 5.53383459,1.21509434 5.05827068,1.21509434 C4.4962406,1.21509434 3.93421053,1.34528302 3.5018797,1.51886792 C3.06954887,1.69245283 2.63721805,1.99622642 2.29135338,2.34339623 C1.94548872,2.69056604 1.68609023,3.1245283 1.55639098,3.60188679 C1.38345865,4.07924528 1.29699248,4.6 1.29699248,5.12075472 C1.29699248,5.64150943 1.38345865,6.16226415 1.55639098,6.63962264 C1.72932331,7.11698113 1.9887218,7.5509434 2.29135338,7.89811321 C2.63721805,8.24528302 3.02631579,8.5490566 3.5018797,8.72264151 C3.97744361,8.93962264 4.4962406,9.02641509 5.05827068,9.02641509 C5.57706767,9.02641509 6.05263158,8.89622642 6.48496241,8.67924528 C6.91729323,8.41886792 7.30639098,8.11509434 7.60902256,7.7245283 L8.56015038,8.63584906 Z" id="Shape"></path>
                </g>
                <g id="Calque_10" transform="translate(9.078947, 12.584906)">
                    <path d="M0.216165414,5.2509434 C0.216165414,4.51320755 0.345864662,3.86226415 0.605263158,3.21132075 C0.864661654,2.60377358 1.21052632,2.03962264 1.64285714,1.60566038 C2.07518797,1.17169811 2.59398496,0.824528302 3.2424812,0.564150943 C3.84774436,0.303773585 4.53947368,0.173584906 5.27443609,0.173584906 C6.0093985,0.173584906 6.65789474,0.303773585 7.30639098,0.564150943 C7.91165414,0.824528302 8.47368421,1.17169811 8.90601504,1.60566038 C9.33834586,2.03962264 9.68421053,2.56037736 9.94360902,3.21132075 C10.2030075,3.81886792 10.3327068,4.51320755 10.3327068,5.2509434 C10.3327068,5.98867925 10.2030075,6.63962264 9.94360902,7.29056604 C9.68421053,7.89811321 9.33834586,8.46226415 8.90601504,8.89622642 C8.47368421,9.33018868 7.95488722,9.67735849 7.30639098,9.93773585 C6.70112782,10.1981132 6.0093985,10.3283019 5.27443609,10.3283019 C4.53947368,10.3283019 3.84774436,10.1981132 3.2424812,9.93773585 C2.63721805,9.67735849 2.07518797,9.33018868 1.64285714,8.89622642 C1.21052632,8.46226415 0.864661654,7.94150943 0.605263158,7.29056604 C0.345864662,6.63962264 0.216165414,5.98867925 0.216165414,5.2509434 Z M1.42669173,5.2509434 C1.42669173,5.77169811 1.51315789,6.29245283 1.68609023,6.76981132 C1.85902256,7.24716981 2.11842105,7.68113208 2.42105263,8.02830189 C2.76691729,8.3754717 3.15601504,8.67924528 3.63157895,8.85283019 C4.10714286,9.06981132 4.62593985,9.15660377 5.18796992,9.15660377 C5.75,9.15660377 6.31203008,9.02641509 6.7443609,8.85283019 C7.21992481,8.63584906 7.60902256,8.3754717 7.95488722,8.02830189 C8.30075188,7.68113208 8.56015038,7.24716981 8.68984962,6.76981132 C8.86278195,6.29245283 8.94924812,5.77169811 8.94924812,5.2509434 C8.94924812,4.73018868 8.86278195,4.20943396 8.68984962,3.73207547 C8.51691729,3.25471698 8.2575188,2.82075472 7.95488722,2.47358491 C7.65225564,2.12641509 7.21992481,1.82264151 6.7443609,1.6490566 C6.26879699,1.43207547 5.75,1.34528302 5.18796992,1.34528302 C4.62593985,1.34528302 4.06390977,1.4754717 3.63157895,1.6490566 C3.15601504,1.86603774 2.76691729,2.12641509 2.42105263,2.47358491 C2.07518797,2.82075472 1.81578947,3.25471698 1.68609023,3.73207547 C1.51315789,4.20943396 1.42669173,4.68679245 1.42669173,5.2509434 Z" id="Shape"></path>
                </g>
                <g id="Calque_5" transform="translate(25.507519, 6.509434)">
                    <path d="M9.2518797,14.4509434 L9.2518797,14.4509434 C9.03571429,14.7981132 8.77631579,15.0584906 8.47368421,15.3188679 C8.17105263,15.5792453 7.86842105,15.7528302 7.52255639,15.9264151 C7.17669173,16.1 6.83082707,16.1867925 6.44172932,16.2735849 C6.05263158,16.3603774 5.70676692,16.4037736 5.36090226,16.4037736 C4.62593985,16.4037736 3.93421053,16.2735849 3.32894737,16.0132075 C2.72368421,15.7528302 2.16165414,15.4056604 1.72932331,14.9716981 C1.29699248,14.5377358 0.95112782,14.0169811 0.691729323,13.3660377 C0.432330827,12.7150943 0.302631579,12.0641509 0.302631579,11.3264151 C0.302631579,10.5886792 0.432330827,9.93773585 0.691729323,9.28679245 C0.95112782,8.67924528 1.29699248,8.11509434 1.72932331,7.68113208 C2.16165414,7.24716981 2.68045113,6.9 3.32894737,6.63962264 C3.93421053,6.37924528 4.62593985,6.2490566 5.36090226,6.2490566 C5.70676692,6.2490566 6.09586466,6.29245283 6.44172932,6.37924528 C6.83082707,6.46603774 7.17669173,6.55283019 7.52255639,6.72641509 C7.86842105,6.9 8.17105263,7.07358491 8.47368421,7.33396226 C8.77631579,7.59433962 8.9924812,7.85471698 9.20864662,8.20188679 L9.2518797,8.20188679 L9.2518797,0.390566038 L10.5056391,0.390566038 L10.5056391,16.0566038 L9.2518797,16.0566038 L9.2518797,14.4509434 L9.2518797,14.4509434 Z M9.38157895,11.3264151 C9.38157895,10.8056604 9.2518797,10.2849057 9.07894737,9.80754717 C8.86278195,9.33018868 8.60338346,8.89622642 8.21428571,8.5490566 C7.86842105,8.20188679 7.43609023,7.89811321 6.96052632,7.7245283 C6.48496241,7.50754717 5.96616541,7.42075472 5.40413534,7.42075472 C4.84210526,7.42075472 4.28007519,7.5509434 3.84774436,7.7245283 C3.37218045,7.94150943 2.98308271,8.20188679 2.63721805,8.5490566 C2.29135338,8.89622642 2.03195489,9.33018868 1.90225564,9.80754717 C1.72932331,10.2849057 1.64285714,10.8056604 1.64285714,11.3264151 C1.64285714,11.8471698 1.72932331,12.3679245 1.90225564,12.845283 C2.07518797,13.3226415 2.33458647,13.7566038 2.63721805,14.1037736 C2.98308271,14.4509434 3.37218045,14.754717 3.84774436,14.9283019 C4.32330827,15.145283 4.84210526,15.2320755 5.40413534,15.2320755 C5.96616541,15.2320755 6.48496241,15.1018868 6.96052632,14.9283019 C7.43609023,14.7113208 7.86842105,14.4509434 8.21428571,14.1037736 C8.56015038,13.7566038 8.86278195,13.3226415 9.07894737,12.845283 C9.29511278,12.3679245 9.38157895,11.8471698 9.38157895,11.3264151 Z" id="Shape"></path>
                </g>
                <path d="M21.2706767,15.9264151 C21.2706767,15.7528302 21.2706767,15.5358491 21.2706767,15.2754717 C21.2706767,15.0150943 21.2274436,14.754717 21.2274436,14.4943396 C21.2274436,14.2339623 21.2274436,13.9735849 21.1842105,13.7566038 C21.1842105,13.5396226 21.1842105,13.3660377 21.1842105,13.2358491 L22.4379699,13.2358491 C22.4379699,13.5830189 22.481203,13.9301887 22.481203,14.2773585 C22.481203,14.6245283 22.5244361,14.8415094 22.5244361,14.9283019 C22.8270677,14.3641509 23.2593985,13.8867925 23.7349624,13.5396226 C24.2537594,13.1924528 24.8590226,13.0188679 25.5507519,13.0188679 C25.6804511,13.0188679 25.8101504,13.0188679 25.8966165,13.0622642 C26.0263158,13.0622642 26.156015,13.1056604 26.2424812,13.1490566 L26.112782,14.3641509 C25.9398496,14.3207547 25.7669173,14.2773585 25.637218,14.2773585 C25.1184211,14.2773585 24.6428571,14.3641509 24.2537594,14.5377358 C23.8646617,14.7113208 23.518797,14.9716981 23.2593985,15.2754717 C23,15.5792453 22.8270677,15.9264151 22.6973684,16.3603774 C22.5676692,16.7509434 22.5244361,17.2283019 22.5244361,17.6622642 L22.5244361,22.9132075 L21.2706767,22.9132075 L21.2706767,15.9264151 Z" id="Shape"></path>
            </g>
        </g>
    </g>
</svg>