<svg xmlns="http://www.w3.org/2000/svg" xmlns:xlink="http://www.w3.org/1999/xlink" width="60" height="60" viewBox="0 0 60 60">
  <defs>
    <polygon id="provider-svg--camscanner-a" points=".039 .116 12.693 .116 12.693 18.155 .039 18.155"/>
  </defs>
  <g fill="none" fill-rule="evenodd" transform="translate(15 15)">
    <path fill="#FEFEFE" d="M10.2857143,24.6111111 L15.9152952,24.6111111 C16.5343492,22.525399 18.5125184,21 20.8571429,21 C23.6974644,21 26,23.2385763 26,26 C26,28.7614237 23.6974644,31 20.8571429,31 C18.5125184,31 16.5343492,29.474601 15.9152952,27.3888889 L5.38888889,27.3888889 C4.62182674,27.3888889 4,26.7670622 4,26 C4,25.2329378 4.62182674,24.6111111 5.38888889,24.6111111 L7.14285714,24.6111111 L7.14285714,21.8657777 C7.14285714,21.5410343 7.40611369,21.2777778 7.73085709,21.2777778 L9.69771434,21.2777778 C10.0224577,21.2777778 10.2857143,21.5410343 10.2857143,21.8657777 L10.2857143,24.6111111 Z M7.27760528,17.9488252 C6.12543325,17.6820734 5.01006598,17.2896264 3.9941499,16.6809195 C2.43059972,15.7440157 1.42851806,14.3067353 0.724659451,12.6219381 C0.39824551,11.8406506 0.286134525,11.0087378 0.0826641799,10.1981971 C-0.028533212,10.0789135 -0.00373567151,9.95094748 0.0596938267,9.82057706 C0.0591717732,9.28413486 0.0586497197,8.74769266 0.058388693,8.21111688 C0.00200691681,8.04094074 -0.0522866454,7.87076461 0.0937578165,7.71568259 C0.299838429,6.85945885 0.449406752,5.99107968 0.805447227,5.17372664 C2.02091825,2.38452105 4.18339429,0.838509589 7.02793321,0.225661774 C9.26193057,-0.255613438 11.4365444,0.0434637755 13.502571,1.02217693 C14.1214654,1.31551036 14.6569618,1.78048927 15.1604824,2.26537104 C15.3369364,2.43514645 15.3489437,2.54187387 15.1615265,2.73315505 C14.3827532,3.52846802 13.624601,4.34488603 12.8605757,5.15542669 C12.5872807,5.4455543 12.3291253,5.1536902 12.2361998,5.02652561 C11.6336195,4.20115799 10.7850216,3.94335584 9.85498333,3.83155252 C9.46709759,3.89393263 9.07947288,3.8991421 8.69184817,3.82874742 C6.08223332,4.169634 4.61030353,6.2372607 4.52312059,8.48494818 C4.60547453,8.83892524 4.60482196,9.19303586 4.52338162,9.54701291 C4.65924604,13.0023632 7.8332007,15.1187453 11.0006297,13.9014649 C11.5900281,13.6751868 12.0960284,13.2882164 12.5008809,12.7949193 C12.7158364,12.5327092 12.8415208,12.5687747 13.058434,12.7849011 C13.7796509,13.503942 14.5089596,14.2157698 15.2604556,14.9015503 C15.56155,15.176183 15.4785435,15.3406154 15.2412701,15.5857278 C13.9031166,16.9681084 12.2736571,17.7178718 10.4050972,17.9663237 C10.1700426,17.9975805 9.93707624,18.0444658 9.70319628,18.0841379 C9.24496384,18.2047573 8.78725344,18.226263 8.33058716,18.0767912 C8.15400257,17.9736704 7.96214791,17.9727353 7.7678135,17.9895659 C7.59997331,18.0328446 7.43082798,18.0908167 7.27760528,17.9488252 Z M23.6406935,0.170347594 C25.677582,0.058315508 27.5931022,0.44040107 29.315089,1.61446524 C29.3848922,1.66205882 29.4797563,1.67462567 29.5433927,1.72783422 C29.9383318,2.05751337 30.2115089,2.33251337 29.6299906,2.82114973 C28.9638425,3.38104278 28.3440112,4.02622995 27.8202249,4.72475936 C27.4544142,5.21259358 27.2331959,4.89147059 27.0644611,4.68652406 C26.5385754,4.04815508 25.8593065,3.77649733 25.0851734,3.66941176 C24.6923336,3.71820856 24.2994939,3.7294385 23.9070478,3.66406417 C22.8031865,3.75109626 22.1434677,4.43759358 22.1989691,5.42342246 C22.240956,6.16860963 22.7493908,6.51513369 23.3303843,6.74708556 C24.3030366,7.13558824 25.3025867,7.45350267 26.280881,7.82796791 C27.5743393,8.32328877 28.7390815,8.97622995 29.4477413,10.2887968 C30.3253983,11.9145989 30.0569447,14.5162032 28.8726523,15.9258289 C27.4172821,17.6579144 25.5034677,18.1580481 23.3923149,18.1545722 C21.2137207,18.1509626 19.2778632,17.3974866 17.5439363,16.0778342 C17.2670853,15.8670053 17.2249672,15.6124599 17.4875164,15.3497594 C18.2314714,14.6059091 18.9822493,13.8690107 19.7197751,13.1186096 C19.9926898,12.8408021 20.0879475,13.132246 20.2267666,13.2596524 C20.9846298,13.9543048 21.8078351,14.5133957 22.8563261,14.624492 C23.2960075,14.6187433 23.7356888,14.6160695 24.1749766,14.6387968 C25.0913402,14.546016 25.7727085,14.0436096 25.8292596,13.3097861 C25.916776,12.1739572 25.7483037,11.9643316 24.7058482,11.3615241 C23.3786692,10.5942781 21.8574321,10.3529679 20.4910216,9.67449198 C17.7029616,8.29040107 17.6966635,4.7834492 18.6851921,3.0321123 C19.669522,1.28839572 21.3077976,0.620347594 23.1245173,0.252433155 C23.2796064,0.114331551 23.4491284,0.0703475936 23.6406935,0.170347594 Z M20.8571429,27.9444444 C21.9617124,27.9444444 22.8571429,27.073887 22.8571429,26 C22.8571429,24.926113 21.9617124,24.0555556 20.8571429,24.0555556 C19.7525734,24.0555556 18.8571429,24.926113 18.8571429,26 C18.8571429,27.073887 19.7525734,27.9444444 20.8571429,27.9444444 Z"/>
    <g transform="translate(17.273)"/>
  </g>
</svg>
