<?xml version="1.0" encoding="UTF-8"?>
<svg width="60px" height="60px" viewBox="0 0 60 60" version="1.1" xmlns="http://www.w3.org/2000/svg" xmlns:xlink="http://www.w3.org/1999/xlink">
    <!-- Generator: Sketch 46.2 (44496) - http://www.bohemiancoding.com/sketch -->
    <title>provider-svg--jive</title>
    <desc>Created with Sketch.</desc>
    <defs></defs>
    <g id="Week-38-Batch-#4" stroke="none" stroke-width="1" fill="none" fill-rule="evenodd">
        <g id="provider-svg--jive" fill-rule="nonzero" fill="#FFFFFF">
            <g id="logo-jive-aurea-white" transform="translate(15.000000, 23.000000)">
                <path d="M7.48101266,14.0478261 C7.32911392,14.1652174 7.17721519,14.2304348 7.01265823,14.2304348 C6.86075949,14.2304348 6.75949367,14.1913043 6.69620253,14.126087 C6.63291139,14.0608696 6.59493671,13.9565217 6.59493671,13.826087 C6.59493671,13.6826087 6.62025316,13.5782609 6.6835443,13.5 C6.74683544,13.4347826 6.86075949,13.3956522 7.03797468,13.3826087 L7.44303797,13.3565217 L7.44303797,13.1347826 C7.44303797,13.0565217 7.41772152,13.0043478 7.36708861,12.9652174 C7.3164557,12.926087 7.25316456,12.9130435 7.17721519,12.9130435 C7.06329114,12.9130435 6.98734177,12.9391304 6.93670886,12.9782609 C6.89873418,13.0173913 6.87341772,13.0956522 6.86075949,13.1869565 L6.65822785,13.173913 C6.67088608,13.0173913 6.70886076,12.9 6.78481013,12.8217391 C6.86075949,12.7434783 6.98734177,12.7043478 7.17721519,12.7043478 C7.51898734,12.7043478 7.6835443,12.8347826 7.6835443,13.1086957 L7.6835443,14.0086957 L7.83544304,14.0086957 L7.83544304,14.1782609 L7.53164557,14.1782609 L7.48101266,14.0478261 L7.48101266,14.0478261 Z M7.43037975,13.8782609 L7.43037975,13.526087 L7.07594937,13.5521739 C6.97468354,13.5521739 6.91139241,13.5782609 6.88607595,13.6173913 C6.84810127,13.6565217 6.83544304,13.7217391 6.83544304,13.8130435 C6.83544304,13.8913043 6.84810127,13.9434783 6.88607595,13.9826087 C6.92405063,14.0217391 6.98734177,14.0347826 7.06329114,14.0347826 C7.20253165,14.0347826 7.32911392,13.9826087 7.43037975,13.8782609 Z M8.10126582,12.7434783 L8.37974684,12.7434783 L8.4556962,12.8869565 C8.62025316,12.7695652 8.78481013,12.7043478 8.96202532,12.7043478 C9.24050633,12.7043478 9.39240506,12.8608696 9.39240506,13.1608696 L9.39240506,14.0086957 L9.5443038,14.0086957 L9.5443038,14.1782609 L9.01265823,14.1782609 L9.01265823,14.0086957 L9.15189873,14.0086957 L9.15189873,13.173913 C9.15189873,13.0695652 9.13924051,13.0043478 9.10126582,12.9652174 C9.06329114,12.926087 9.01265823,12.9 8.92405063,12.9 C8.78481013,12.9 8.64556962,12.9521739 8.51898734,13.0565217 L8.51898734,14.0086957 L8.65822785,14.0086957 L8.65822785,14.1782609 L8.10126582,14.1782609 L8.10126582,14.0086957 L8.25316456,14.0086957 L8.25316456,12.9 L8.10126582,12.9 L8.10126582,12.7434783 Z M11.3037975,12.3521739 L11.835443,14.0217391 L11.9493671,14.0217391 L11.9493671,14.1913043 L11.443038,14.1913043 L11.443038,14.0217391 L11.5949367,14.0217391 L11.4683544,13.6304348 L10.8101266,13.6304348 L10.6835443,14.0217391 L10.835443,14.0217391 L10.835443,14.1913043 L10.3291139,14.1913043 L10.3291139,14.0217391 L10.443038,14.0217391 L10.9746835,12.3521739 L11.3037975,12.3521739 L11.3037975,12.3521739 Z M10.8734177,13.4217391 L11.4050633,13.4217391 L11.1392405,12.5869565 L10.8734177,13.4217391 L10.8734177,13.4217391 Z M12.4303797,12.7434783 L12.4303797,13.7478261 C12.4303797,13.8521739 12.443038,13.9173913 12.4810127,13.9565217 C12.5189873,13.9956522 12.5822785,14.0217391 12.6708861,14.0217391 C12.8101266,14.0217391 12.9493671,13.9695652 13.0886076,13.8652174 L13.0886076,12.926087 L12.9367089,12.926087 L12.9367089,12.7565217 L13.3291139,12.7565217 L13.3291139,14.0347826 L13.4810127,14.0347826 L13.4810127,14.2043478 L13.164557,14.2043478 L13.1139241,14.0608696 C12.9493671,14.1782609 12.7848101,14.2434783 12.5949367,14.2434783 C12.443038,14.2434783 12.3291139,14.2043478 12.2658228,14.126087 C12.2025316,14.0478261 12.164557,13.9434783 12.164557,13.7869565 L12.164557,12.926087 L12.0126582,12.926087 L12.0126582,12.7565217 L12.4303797,12.7565217 L12.4303797,12.7434783 Z M14.1392405,12.9913043 C14.2531646,12.8086957 14.4177215,12.7173913 14.6329114,12.7043478 L14.6329114,12.926087 C14.4177215,12.9391304 14.2658228,13.0173913 14.1518987,13.1869565 L14.1518987,14.0086957 L14.3417722,14.0086957 L14.3417722,14.1782609 L13.7468354,14.1782609 L13.7468354,14.0086957 L13.8987342,14.0086957 L13.8987342,12.9 L13.7468354,12.9 L13.7468354,12.7304348 L14.0379747,12.7304348 L14.1392405,12.9913043 Z M15.0886076,14.1782609 C15.0126582,14.1521739 14.9493671,14.1 14.8987342,14.0347826 C14.8607595,13.9695652 14.8227848,13.8913043 14.8101266,13.8 C14.7974684,13.7086957 14.7848101,13.6043478 14.7848101,13.473913 C14.7848101,13.3826087 14.7848101,13.3043478 14.7974684,13.2391304 C14.7974684,13.173913 14.8227848,13.1086957 14.8481013,13.0304348 C14.8734177,12.9652174 14.9113924,12.9 14.9493671,12.8608696 C14.9873418,12.8217391 15.0506329,12.7826087 15.1265823,12.7565217 C15.2025316,12.7304348 15.2911392,12.7173913 15.3924051,12.7173913 C15.4936709,12.7173913 15.5822785,12.7304348 15.6582278,12.7565217 C15.7341772,12.7826087 15.7848101,12.8217391 15.835443,12.8608696 C15.8734177,12.9 15.9113924,12.9652174 15.9367089,13.0304348 C15.9620253,13.0956522 15.9746835,13.173913 15.9746835,13.2391304 C15.9873418,13.3043478 15.9873418,13.3826087 15.9873418,13.473913 L15.9873418,13.5391304 L15.0506329,13.5391304 C15.0506329,13.7217391 15.0759494,13.8521739 15.1265823,13.9173913 C15.1772152,13.9956522 15.2658228,14.0217391 15.4177215,14.0217391 C15.5443038,14.0217391 15.6329114,13.9956522 15.6835443,13.9434783 C15.7341772,13.8913043 15.7594937,13.826087 15.7721519,13.7347826 L15.9746835,13.7478261 C15.9620253,13.826087 15.9620253,13.8782609 15.9367089,13.9304348 C15.9240506,13.9826087 15.8987342,14.0347826 15.8607595,14.073913 C15.8227848,14.126087 15.7721519,14.1521739 15.6962025,14.1782609 C15.6202532,14.2043478 15.5316456,14.2173913 15.4177215,14.2173913 C15.2658228,14.2304348 15.164557,14.2173913 15.0886076,14.1782609 L15.0886076,14.1782609 Z M15.1139241,13.0304348 C15.0632911,13.1086957 15.0379747,13.2130435 15.0379747,13.3565217 L15.721519,13.3565217 C15.721519,13.2130435 15.6962025,13.0956522 15.6455696,13.0304348 C15.5949367,12.9521739 15.5063291,12.926087 15.3797468,12.926087 C15.2531646,12.9130435 15.164557,12.9521739 15.1139241,13.0304348 L15.1139241,13.0304348 Z M17.1139241,14.0478261 C16.9620253,14.1652174 16.8101266,14.2304348 16.6455696,14.2304348 C16.4936709,14.2304348 16.3924051,14.1913043 16.3291139,14.126087 C16.2658228,14.0608696 16.2278481,13.9565217 16.2278481,13.826087 C16.2278481,13.6826087 16.2531646,13.5782609 16.3164557,13.5 C16.3797468,13.4347826 16.4936709,13.3956522 16.6708861,13.3826087 L17.0759494,13.3565217 L17.0759494,13.1347826 C17.0759494,13.0565217 17.0506329,13.0043478 17,12.9652174 C16.9493671,12.926087 16.8860759,12.9130435 16.8101266,12.9130435 C16.6962025,12.9130435 16.6202532,12.9391304 16.5696203,12.9782609 C16.5316456,13.0173913 16.5063291,13.0956522 16.4936709,13.1869565 L16.2911392,13.173913 C16.3037975,13.0173913 16.3417722,12.9 16.4177215,12.8217391 C16.4936709,12.7434783 16.6202532,12.7043478 16.8101266,12.7043478 C17.1518987,12.7043478 17.3164557,12.8347826 17.3164557,13.1086957 L17.3164557,14.0086957 L17.4683544,14.0086957 L17.4683544,14.1782609 L17.164557,14.1782609 L17.1139241,14.0478261 L17.1139241,14.0478261 Z M17.0632911,13.8782609 L17.0632911,13.526087 L16.7088608,13.5652174 C16.6075949,13.5652174 16.5443038,13.5913043 16.5189873,13.6304348 C16.4810127,13.6695652 16.4683544,13.7347826 16.4683544,13.826087 C16.4683544,13.9043478 16.4810127,13.9565217 16.5189873,13.9956522 C16.556962,14.0347826 16.6202532,14.0478261 16.6962025,14.0478261 C16.835443,14.0347826 16.9620253,13.9826087 17.0632911,13.8782609 Z M19.4810127,12.7434783 L19.4810127,13.2782609 L19.3164557,13.2782609 C19.2911392,13.0304348 19.1772152,12.9130435 18.9620253,12.9130435 C18.8860759,12.9130435 18.8227848,12.926087 18.7848101,12.9521739 C18.7341772,12.9782609 18.6962025,13.0304348 18.6835443,13.0826087 C18.6582278,13.1347826 18.6455696,13.2 18.6455696,13.2521739 C18.6329114,13.3043478 18.6329114,13.3826087 18.6329114,13.4608696 L18.6329114,13.6434783 C18.6329114,13.6956522 18.6455696,13.7478261 18.6582278,13.7869565 C18.6708861,13.826087 18.6962025,13.8782609 18.721519,13.9043478 C18.7468354,13.9304348 18.7848101,13.9565217 18.8227848,13.9826087 C18.8607595,14.0086957 18.9240506,14.0086957 18.9873418,14.0086957 C19.1139241,14.0086957 19.1898734,13.9826087 19.2405063,13.9434783 C19.2911392,13.8913043 19.3164557,13.826087 19.3164557,13.7217391 L19.5189873,13.7347826 C19.5189873,13.8130435 19.5063291,13.8782609 19.4936709,13.9304348 C19.4810127,13.9826087 19.4556962,14.0347826 19.4050633,14.073913 C19.3670886,14.1130435 19.3164557,14.1521739 19.2405063,14.1782609 C19.164557,14.2043478 19.0759494,14.2173913 18.9746835,14.2173913 C18.8734177,14.2173913 18.7848101,14.2043478 18.7088608,14.1782609 C18.6329114,14.1521739 18.5822785,14.1130435 18.5443038,14.073913 C18.5063291,14.0347826 18.4683544,13.9695652 18.4556962,13.9043478 C18.4303797,13.8391304 18.4177215,13.7608696 18.4177215,13.6956522 C18.4177215,13.6304348 18.4050633,13.5521739 18.4050633,13.4608696 C18.4050633,13.3695652 18.4050633,13.2913043 18.4177215,13.226087 C18.4303797,13.1608696 18.443038,13.0956522 18.4683544,13.0173913 C18.4936709,12.9521739 18.5189873,12.8869565 18.5696203,12.8478261 C18.6075949,12.8086957 18.6708861,12.7695652 18.7341772,12.7434783 C18.8101266,12.7173913 18.8860759,12.7043478 18.9873418,12.7043478 C19.1392405,12.7043478 19.2658228,12.7565217 19.3544304,12.8608696 L19.3544304,12.7304348 L19.4810127,12.7304348 L19.4810127,12.7434783 Z M20.1012658,14.1913043 C20.0253165,14.1652174 19.9620253,14.126087 19.9240506,14.0869565 C19.8860759,14.0478261 19.8481013,13.9826087 19.8227848,13.9173913 C19.7974684,13.8521739 19.7848101,13.773913 19.7721519,13.7086957 C19.7594937,13.6434783 19.7594937,13.5652174 19.7594937,13.473913 C19.7594937,13.3826087 19.7594937,13.3043478 19.7721519,13.2391304 C19.7848101,13.173913 19.7974684,13.1086957 19.8227848,13.0304348 C19.8481013,12.9652174 19.8860759,12.9 19.9240506,12.8608696 C19.9620253,12.8217391 20.0253165,12.7826087 20.1012658,12.7565217 C20.1772152,12.7304348 20.2658228,12.7173913 20.3797468,12.7173913 C20.4936709,12.7173913 20.5822785,12.7304348 20.6582278,12.7565217 C20.7341772,12.7826087 20.7974684,12.8217391 20.835443,12.8608696 C20.8734177,12.9 20.9113924,12.9652174 20.9367089,13.0304348 C20.9620253,13.0956522 20.9746835,13.173913 20.9873418,13.2391304 C21,13.3043478 21,13.3826087 21,13.473913 C21,13.5652174 21,13.6434783 20.9873418,13.7086957 C20.9746835,13.773913 20.9620253,13.8391304 20.9367089,13.9173913 C20.9113924,13.9826087 20.8734177,14.0478261 20.835443,14.0869565 C20.7974684,14.126087 20.7341772,14.1652174 20.6582278,14.1913043 C20.5822785,14.2173913 20.4936709,14.2304348 20.3797468,14.2304348 C20.2658228,14.2304348 20.1772152,14.2173913 20.1012658,14.1913043 Z M20.5316456,14.0086957 C20.5696203,13.9956522 20.6075949,13.9695652 20.6329114,13.9434783 C20.6582278,13.9173913 20.6835443,13.8913043 20.6962025,13.8521739 C20.7088608,13.826087 20.721519,13.7869565 20.7341772,13.7347826 C20.7468354,13.6826087 20.7468354,13.6434783 20.7468354,13.6043478 L20.7468354,13.3173913 C20.7468354,13.2782609 20.7341772,13.2391304 20.7341772,13.1869565 C20.721519,13.1347826 20.7088608,13.0956522 20.6962025,13.0695652 C20.6835443,13.0434783 20.6582278,13.0043478 20.6329114,12.9782609 C20.6075949,12.9521739 20.5696203,12.926087 20.5316456,12.9130435 C20.4936709,12.9 20.443038,12.9 20.3797468,12.9 C20.3164557,12.9 20.278481,12.9 20.2278481,12.9130435 C20.1898734,12.926087 20.1518987,12.9521739 20.1265823,12.9782609 C20.1012658,13.0043478 20.0759494,13.0304348 20.0632911,13.0695652 C20.0506329,13.0956522 20.0379747,13.1347826 20.0253165,13.1869565 C20.0126582,13.2391304 20.0126582,13.2782609 20.0126582,13.3173913 L20.0126582,13.6043478 C20.0126582,13.6434783 20.0253165,13.6826087 20.0253165,13.7347826 C20.0379747,13.7869565 20.0506329,13.826087 20.0632911,13.8521739 C20.0759494,13.8782609 20.1012658,13.9173913 20.1265823,13.9434783 C20.1518987,13.9695652 20.1898734,13.9956522 20.2278481,14.0086957 C20.2658228,14.0217391 20.3164557,14.0217391 20.3797468,14.0217391 C20.443038,14.0217391 20.4810127,14.0217391 20.5316456,14.0086957 Z M22.1392405,14.0217391 L22.278481,14.0217391 L22.278481,13.1869565 C22.278481,13.0956522 22.2658228,13.0304348 22.2278481,12.9782609 C22.1898734,12.926087 22.1265823,12.9130435 22.0379747,12.9130435 C21.9113924,12.9130435 21.7848101,12.9652174 21.6708861,13.0565217 L21.6708861,14.0217391 L21.8227848,14.0217391 L21.8227848,14.1913043 L21.278481,14.1913043 L21.278481,14.0217391 L21.4303797,14.0217391 L21.4303797,12.9130435 L21.278481,12.9130435 L21.278481,12.7434783 L21.5696203,12.7434783 L21.6329114,12.873913 C21.7721519,12.7565217 21.9113924,12.7043478 22.0759494,12.7043478 C22.2658228,12.7043478 22.3924051,12.7695652 22.4683544,12.9 C22.5316456,12.8478261 22.5949367,12.7956522 22.6835443,12.7565217 C22.7721519,12.7173913 22.8481013,12.7043478 22.9367089,12.7043478 C23.2278481,12.7043478 23.3797468,12.8608696 23.3797468,13.1608696 L23.3797468,14.0217391 L23.5316456,14.0217391 L23.5316456,14.1913043 L22.9873418,14.1913043 L22.9873418,14.0217391 L23.1392405,14.0217391 L23.1392405,13.1869565 C23.1392405,13.0956522 23.1265823,13.0304348 23.0886076,12.9782609 C23.0506329,12.926087 22.9873418,12.9130435 22.9113924,12.9130435 C22.7721519,12.9130435 22.6582278,12.9652174 22.5316456,13.0695652 C22.5316456,13.0956522 22.5443038,13.1347826 22.5443038,13.1608696 L22.5443038,14.0217391 L22.6835443,14.0217391 L22.6835443,14.1913043 L22.164557,14.1913043 L22.164557,14.0217391 L22.1392405,14.0217391 Z M24,12.873913 C24.1392405,12.7695652 24.278481,12.7173913 24.4303797,12.7173913 C24.5189873,12.7173913 24.6075949,12.7304348 24.6708861,12.7565217 C24.7341772,12.7826087 24.7848101,12.8217391 24.8227848,12.8608696 C24.8607595,12.9 24.8860759,12.9652174 24.9113924,13.0304348 C24.9367089,13.0956522 24.9493671,13.173913 24.9493671,13.2391304 C24.9620253,13.3043478 24.9620253,13.3826087 24.9620253,13.473913 C24.9620253,13.5652174 24.9620253,13.6434783 24.9493671,13.7086957 C24.9493671,13.773913 24.9240506,13.8391304 24.9113924,13.9173913 C24.8860759,13.9826087 24.8607595,14.0478261 24.8227848,14.0869565 C24.7848101,14.126087 24.7341772,14.1652174 24.6582278,14.1913043 C24.5949367,14.2173913 24.5063291,14.2304348 24.4177215,14.2304348 C24.3037975,14.2304348 24.1772152,14.2043478 24.0632911,14.1652174 L24.0632911,14.5695652 L24.2658228,14.5695652 L24.2658228,14.7391304 L23.6708861,14.7391304 L23.6708861,14.5695652 L23.8227848,14.5695652 L23.8227848,12.9130435 L23.6708861,12.9130435 L23.6708861,12.7434783 L23.9620253,12.7434783 L24,12.873913 L24,12.873913 Z M24.0506329,13.0304348 L24.0506329,13.9695652 C24.1518987,14.0086957 24.2531646,14.0217391 24.3544304,14.0217391 C24.4177215,14.0217391 24.4683544,14.0086957 24.5189873,13.9956522 C24.556962,13.9826087 24.5949367,13.9565217 24.6202532,13.9173913 C24.6455696,13.8913043 24.6708861,13.8521739 24.6835443,13.8 C24.6962025,13.7478261 24.7088608,13.6956522 24.7088608,13.6434783 L24.7088608,13.2913043 C24.7088608,13.2391304 24.6962025,13.2 24.6835443,13.1478261 C24.6708861,13.0956522 24.6582278,13.0565217 24.6329114,13.0173913 C24.6075949,12.9913043 24.5696203,12.9652174 24.5316456,12.9391304 C24.4936709,12.9130435 24.443038,12.9130435 24.3797468,12.9130435 C24.2658228,12.9130435 24.1518987,12.9521739 24.0506329,13.0304348 L24.0506329,13.0304348 Z M26.1012658,14.0478261 C25.9493671,14.1652174 25.7974684,14.2304348 25.6329114,14.2304348 C25.4810127,14.2304348 25.3797468,14.1913043 25.3164557,14.126087 C25.2531646,14.0608696 25.2151899,13.9565217 25.2151899,13.826087 C25.2151899,13.6826087 25.2405063,13.5782609 25.3037975,13.5 C25.3670886,13.4347826 25.4810127,13.3956522 25.6582278,13.3826087 L26.0632911,13.3565217 L26.0632911,13.1347826 C26.0632911,13.0565217 26.0379747,13.0043478 25.9873418,12.9652174 C25.9367089,12.926087 25.8734177,12.9130435 25.7974684,12.9130435 C25.6835443,12.9130435 25.6075949,12.9391304 25.556962,12.9782609 C25.5189873,13.0173913 25.4936709,13.0956522 25.4810127,13.1869565 L25.278481,13.173913 C25.2911392,13.0173913 25.3291139,12.9 25.4050633,12.8217391 C25.4810127,12.7434783 25.6075949,12.7043478 25.7974684,12.7043478 C26.1392405,12.7043478 26.3037975,12.8347826 26.3037975,13.1086957 L26.3037975,14.0086957 L26.4556962,14.0086957 L26.4556962,14.1782609 L26.1518987,14.1782609 L26.1012658,14.0478261 L26.1012658,14.0478261 Z M26.0506329,13.8782609 L26.0506329,13.526087 L25.6962025,13.5521739 C25.5949367,13.5521739 25.5316456,13.5782609 25.5063291,13.6173913 C25.4683544,13.6565217 25.4556962,13.7217391 25.4556962,13.8130435 C25.4556962,13.8913043 25.4683544,13.9434783 25.5063291,13.9826087 C25.5443038,14.0217391 25.6075949,14.0347826 25.6835443,14.0347826 C25.835443,14.0347826 25.9493671,13.9826087 26.0506329,13.8782609 Z M26.7088608,12.7434783 L26.9873418,12.7434783 L27.0632911,12.8869565 C27.2278481,12.7695652 27.3924051,12.7043478 27.5696203,12.7043478 C27.8481013,12.7043478 28,12.8608696 28,13.1608696 L28,14.0086957 L28.1518987,14.0086957 L28.1518987,14.1782609 L27.6202532,14.1782609 L27.6202532,14.0086957 L27.7594937,14.0086957 L27.7594937,13.173913 C27.7594937,13.0695652 27.7468354,13.0043478 27.7088608,12.9652174 C27.6708861,12.926087 27.6202532,12.9 27.5316456,12.9 C27.3924051,12.9 27.2531646,12.9521739 27.1265823,13.0565217 L27.1265823,14.0086957 L27.2658228,14.0086957 L27.2658228,14.1782609 L26.7088608,14.1782609 L26.7088608,14.0086957 L26.8607595,14.0086957 L26.8607595,12.9 L26.7088608,12.9 L26.7088608,12.7434783 Z M28.4050633,14.5695652 L28.5696203,14.5565217 C28.6075949,14.5565217 28.6329114,14.5434783 28.6455696,14.5304348 C28.6582278,14.5173913 28.6708861,14.4913043 28.6835443,14.4521739 L28.7594937,14.2304348 L28.278481,12.926087 L28.1772152,12.926087 L28.1772152,12.7565217 L28.6455696,12.7565217 L28.6455696,12.926087 L28.5189873,12.926087 L28.8607595,13.8913043 L29.2025316,12.926087 L29.0759494,12.926087 L29.0759494,12.7565217 L29.5443038,12.7565217 L29.5443038,12.926087 L29.443038,12.926087 L28.835443,14.5826087 C28.8101266,14.6347826 28.7974684,14.673913 28.7594937,14.7 C28.7341772,14.726087 28.6835443,14.7391304 28.6329114,14.7391304 L28.3544304,14.7391304 L28.3544304,14.5695652 L28.4050633,14.5695652 Z M9.64556962,0.352173913 L6.64556962,0.352173913 L6.64556962,2.62173913 C7.64556962,2.68695652 8.65822785,2.73913043 9.64556962,2.79130435 L9.64556962,0.352173913 Z M29.9240506,4.94347826 C29.9240506,4.30434783 29.835443,3.61304348 29.6202532,2.96086957 C29.443038,2.4 29.164557,1.85217391 28.7594937,1.40869565 C28.4177215,1.00434783 27.9746835,0.652173913 27.443038,0.443478261 C26.9493671,0.234782609 26.3670886,0.117391304 25.7088608,0.117391304 C24.2911392,0.117391304 23.1772152,0.67826087 22.3797468,1.53913043 C22.0632911,1.87826087 21.8101266,2.26956522 21.5949367,2.68695652 C22.8481013,2.59565217 24.1012658,2.49130435 25.3670886,2.34782609 C26.4050633,2.36086957 27.3544304,2.64782609 27.3924051,3.88695652 C25.3924051,4.09565217 23.278481,4.23913043 21.0632911,4.30434783 C21.0126582,4.6173913 20.9746835,4.94347826 20.9746835,5.26956522 C20.9620253,6.63913043 21.4177215,7.99565217 22.3670886,8.97391304 C23.1772152,9.83478261 24.3797468,10.4086957 25.9620253,10.4478261 C26.6329114,10.473913 27.3037975,10.4086957 27.9240506,10.3043478 C28.5949367,10.1869565 29.2025316,9.99130435 29.6582278,9.79565217 L29.6582278,9.75652174 L28.1392405,7.72173913 C27.8481013,7.81304348 27.5443038,7.87826087 27.2278481,7.90434783 C26.9113924,7.94347826 26.5696203,7.95652174 26.2658228,7.95652174 C25.9113924,7.95652174 25.5696203,7.9173913 25.2658228,7.81304348 C24.9746835,7.72173913 24.7088608,7.57826087 24.4936709,7.39565217 C24.3417722,7.26521739 24.2151899,7.10869565 24.1139241,6.93913043 C24,6.76956522 23.9367089,6.57391304 23.8860759,6.35217391 L23.8734177,6.28695652 L29.8607595,5.86956522 C29.9113924,5.64782609 29.9240506,5.19130435 29.9240506,4.94347826 L29.9240506,4.94347826 Z M1.46835443,10.773913 C1.46835443,11.2173913 1.3164557,11.5826087 1.06329114,11.8565217 C0.810126582,12.1304348 0.455696203,12.326087 0.0379746835,12.3913043 L1.12658228,14.9347826 C2.20253165,14.6869565 3.05063291,14.2565217 3.60759494,13.6434783 C4.18987342,13.0304348 4.48101266,12.2478261 4.48101266,11.3086957 L4.48101266,3.40434783 C3.43037975,3.26086957 2.41772152,3.10434783 1.46835443,2.92173913 L1.46835443,10.773913 L1.46835443,10.773913 Z M15.0253165,2.89565217 L14.7594937,2.03478261 L14.2278481,0.326086957 L10.9746835,0.326086957 L11.8987342,2.85652174 C12.6202532,2.86956522 13.3417722,2.89565217 14.0632911,2.89565217 L15.0253165,2.89565217 L15.0253165,2.89565217 Z M4.48101266,0.352173913 L1.46835443,0.352173913 L1.46835443,2.20434783 C2.48101266,2.29565217 3.48101266,2.38695652 4.48101266,2.46521739 L4.48101266,0.352173913 Z M6.64556962,10.3695652 L9.64556962,10.3695652 L9.64556962,3.97826087 C8.62025316,3.9 7.62025316,3.79565217 6.64556962,3.69130435 L6.64556962,10.3695652 Z M21.0759494,0.339130435 L17.8734177,0.339130435 C17.6075949,1.21304348 17.3544304,2.06086957 17.1012658,2.8826087 C16.9493671,3.36521739 16.8101266,3.83478261 16.6582278,4.30434783 C16.4683544,4.93043478 16.2658228,5.54347826 16.0632911,6.16956522 L16.0379747,6.16956522 C16,6.02608696 15.9493671,5.86956522 15.9113924,5.72608696 C15.8734177,5.56956522 15.8227848,5.41304348 15.7721519,5.26956522 L15.4683544,4.27826087 C15.0253165,4.26521739 14.5696203,4.25217391 14.1265823,4.22608696 C13.5316456,4.2 12.9493671,4.17391304 12.3544304,4.13478261 L14.6075949,10.3695652 L17.3417722,10.3695652 L19.5949367,4.33043478 L20.164557,2.79130435 L21.0759494,0.339130435 Z" id="Shape"></path>
            </g>
        </g>
    </g>
</svg>