<?xml version="1.0" encoding="UTF-8"?>
<svg width="60px" height="60px" viewBox="0 0 60 60" version="1.1" xmlns="http://www.w3.org/2000/svg" xmlns:xlink="http://www.w3.org/1999/xlink">
    <!-- Generator: Sketch 46.2 (44496) - http://www.bohemiancoding.com/sketch -->
    <title>provider-svg--digidom</title>
    <desc>Created with Sketch.</desc>
    <defs></defs>
    <g id="Week-38-Batch-#4" stroke="none" stroke-width="1" fill="none" fill-rule="evenodd">
        <g id="provider-svg--digidom">
            <g id="logo-(1)" transform="translate(15.000000, 22.000000)">
                <g id="B6Y8J9.tif_2_">
                    <g id="XMLID_40_">
                        <g id="XMLID_44_" transform="translate(0.681818, 0.000000)" fill-rule="nonzero" fill="#FFFFFF">
                            <path d="M0.0340909091,13.5333333 C-0.0681818182,13.2333333 0.170454545,13.0666667 0.306818182,12.8666667 C0.784090909,12.2 1.29545455,11.6 1.875,11.0333333 C2.48863636,10.4666667 2.93181818,9.8 3.17045455,8.96666667 C3.54545455,7.66666667 4.46590909,6.7 5.65909091,6.03333333 C5.96590909,5.83333333 6.10227273,5.66666667 6.17045455,5.3 C6.40909091,3.5 7.90909091,2.46666667 9.75,2.8 C10.2272727,2.9 10.3977273,2.63333333 10.6363636,2.36666667 C14.0454545,-1.06666667 19.8068182,-0.0666666667 21.6477273,4.36666667 C21.9545455,5.1 22.2954545,5.26666667 23.0454545,5.23333333 C26.4204545,5.13333333 29.0454545,7.66666667 29.0454545,10.9 C29.0795455,14.1666667 26.4886364,16.6666667 23.1136364,16.6666667 C19.9090909,16.6666667 16.6704545,16.6666667 13.4659091,16.6666667 C13.1931818,16.6666667 12.9204545,16.7333333 12.6477273,16.6 C12.6477273,16.3 12.9204545,16.3333333 13.0909091,16.3 C15.6477273,15.6666667 18.2386364,15.0333333 20.7954545,14.3666667 C21.9204545,14.1 22.0909091,13.8333333 21.8181818,12.7333333 C21.3068182,10.7333333 20.7954545,8.76666667 20.25,6.8 C20.1136364,6.3 19.875,5.8 19.7386364,5.26666667 C19.6022727,4.7 19.0909091,4.66666667 18.6136364,4.8 C17.1136364,5.16666667 15.6477273,5.53333333 14.1477273,5.9 C11.7954545,6.5 9.44318182,7.06666667 7.09090909,7.66666667 C5.86363636,7.96666667 5.72727273,8.2 6,9.4 C6.06818182,9.7 6.17045455,9.93333333 5.72727273,10.0333333 C3.44318182,10.5 1.70454545,11.8333333 0.136363636,13.4 C0.170454545,13.4333333 0.102272727,13.4666667 0.0340909091,13.5333333 L0.0340909091,13.5333333 Z" id="Shape"></path>
                        </g>
                        <g id="XMLID_43_" transform="translate(7.159091, 6.000000)" fill-rule="nonzero" fill="#FFFFFF">
                            <path d="M12.2045455,6.16666667 C11.4886364,5.86666667 10.7727273,5.6 10.0909091,5.26666667 C9.61363636,5.03333333 9.34090909,5.06666667 9,5.5 C7.90909091,6.86666667 7.875,6.86666667 6.23863636,6.13333333 C5.72727273,5.9 5.45454545,5.93333333 5.18181818,6.43333333 C4.875,7 4.5,7.53333333 4.15909091,8.06666667 C4.09090909,8.03333333 4.05681818,8 3.98863636,8 C4.22727273,7.46666667 4.43181818,6.9 4.73863636,6.4 C5.14772727,5.73333333 4.90909091,5.5 4.26136364,5.23333333 C3.03409091,4.76666667 1.84090909,4.16666667 0.647727273,3.63333333 C0.409090909,3.53333333 0.102272727,3.5 0.0681818182,3.1 C0.409090909,2.96666667 0.715909091,3.16666667 0.988636364,3.26666667 C2.89772727,3.96666667 4.90909091,4.36666667 6.85227273,5.06666667 C7.36363636,5.26666667 7.67045455,5.13333333 8.04545455,4.76666667 C9.44318182,3.3 10.875,1.9 12.3068182,0.466666667 C12.5113636,0.266666667 12.6818182,7.10542736e-15 13.0227273,7.10542736e-15 C13.1931818,0.466666667 12.8181818,0.733333333 12.5795455,1.03333333 C11.8295455,2.03333333 11.0454545,3.03333333 10.2613636,3.96666667 C9.95454545,4.36666667 10.0568182,4.53333333 10.4318182,4.76666667 C11.0795455,5.16666667 11.7954545,5.5 12.3409091,6.03333333 C12.2727273,6.03333333 12.2386364,6.1 12.2045455,6.16666667 Z" id="Shape"></path>
                        </g>
                        <g id="XMLID_42_" transform="translate(0.000000, 11.333333)" fill-rule="nonzero" fill="#FFFFFF">
                            <path d="M8.48863636,0.2 C7.32954545,0.666666667 7.56818182,1.43333333 7.84090909,2.26666667 C8.07954545,3.06666667 8.25,3.9 8.48863636,4.73333333 C8.65909091,5.3 8.45454545,5.4 7.94318182,5.23333333 C6.64772727,4.9 5.52272727,4.2 4.77272727,3.13333333 C3.85227273,1.83333333 2.625,1.8 1.39772727,2.7 C0.988636364,3 0.613636364,3.33333333 0.238636364,3.66666667 C0.613636364,2.13333333 5.52272727,-0.1 8.48863636,0.2 Z" id="Shape"></path>
                        </g>
                        <g id="XMLID_41_" transform="translate(0.340909, 13.333333)"></g>
                    </g>
                </g>
            </g>
        </g>
    </g>
</svg>