<svg xmlns="http://www.w3.org/2000/svg" width="60" height="60" viewBox="0 0 60 60">
  <path fill="#FFF" fill-rule="evenodd" d="M27.0644754,23.17895 C27.1864426,23.62595 27.2287377,24.02795 27.160377,24.43395 C26.9852951,25.46945 26.1910328,26.20445 25.0407049,26.40745 C24.5464426,26.49445 24.0507049,26.51095 23.5598852,26.40745 C23.1920164,26.32945 23.010541,26.48295 22.9544754,26.83445 C22.8925082,27.21795 23.0700492,27.44345 23.437918,27.46395 C24.0133279,27.49595 24.5907049,27.48195 25.1670984,27.50445 C25.5339836,27.51895 25.9067705,27.52895 26.2652951,27.59945 C27.7289016,27.88495 28.3298852,29.52195 27.4298852,30.73695 C27.1121803,31.16645 26.6902131,31.45995 26.2057869,31.65045 C24.9718525,32.13595 23.7069344,32.18795 22.4321803,31.85395 C21.7962787,31.68745 21.2725082,31.35245 21.1421803,30.62795 C21.010377,29.89545 21.2036557,29.26495 21.8085738,28.81395 C22.053,28.63145 22.1046393,28.54095 21.8498852,28.28845 C21.2862787,27.72945 21.3590656,26.80195 21.9984098,26.20345 C22.2364426,25.98095 22.2639836,25.87845 22.0166066,25.62645 C20.908082,24.49645 21.2051311,22.63545 22.6175902,21.91745 C23.7497213,21.34095 24.9123443,21.36045 26.0272623,21.98195 C26.3277541,22.14945 26.5461148,22.26195 26.7841475,21.93945 C26.7934918,21.92695 26.8102131,21.92045 26.8239836,21.91195 C27.2016885,21.66945 27.6093934,21.53895 28.053,21.64595 C28.175459,21.67545 28.2039836,22.80145 28.1233279,23.02745 C28.0623443,23.19795 27.9339836,23.17645 27.8100492,23.17795 C27.5725082,23.18145 27.335459,23.17895 27.0644754,23.17895 Z M24.4214754,28.96215 L24.4214754,28.94315 C24.1018033,28.94315 23.7781967,28.91265 23.4629508,28.95115 C23.072459,28.99765 22.8280328,29.24815 22.7739344,29.65265 C22.7277049,30.00015 22.8113115,30.29915 23.1422951,30.48115 C23.7540984,30.81715 25.1980328,30.69115 25.7262295,30.25565 C25.9731148,30.05215 26.0788525,29.79315 26.0090164,29.47765 C25.9352459,29.14515 25.6878689,28.99315 25.3809836,28.96815 C25.0632787,28.94165 24.7416393,28.96215 24.4214754,28.96215 Z M25.3604262,24.0139 C25.3628852,23.1834 25.0068197,22.7734 24.2882951,22.7789 C23.5904262,22.7849 23.2402623,23.1854 23.2348525,23.9854 C23.2294426,24.8059 23.593377,25.2264 24.3074754,25.2249 C24.9955082,25.2229 25.3579672,24.8064 25.3604262,24.0139 Z M27.8295246,25.1357 C27.8467377,24.9227 27.8491967,24.6437 27.8949344,24.3722 C28.2249344,22.4057 29.4795246,21.4167 31.493459,21.5252 C33.2093607,21.6177 34.3326393,22.8817 34.4639508,24.8692 C34.4954262,25.3437 34.4575574,25.8142 34.3582131,26.2772 C33.9854262,28.0152 32.7008361,28.9507 30.8580492,28.8362 C29.1691967,28.7312 28.0321475,27.5737 27.8629672,25.7847 C27.8447705,25.5907 27.8423115,25.3947 27.8295246,25.1357 Z M32.5537869,25.0647 C32.5331311,24.8837 32.5080492,24.5752 32.4603443,24.2712 C32.4352623,24.1122 32.3826393,23.9552 32.3221475,23.8057 C32.1037869,23.2682 31.6906721,22.9962 31.1201803,23.0132 C30.5713279,23.0297 30.1591967,23.2742 29.9762459,23.8147 C29.6693607,24.7197 29.6654262,25.6387 29.963459,26.5437 C30.1518197,27.1157 30.5496885,27.3727 31.1305082,27.3772 C31.7319836,27.3817 32.1347705,27.1087 32.3472295,26.5357 C32.5075574,26.1037 32.5419836,25.6492 32.5537869,25.0647 Z M20.7271967,25.9631 C20.7271967,26.7661 20.7232623,27.4336 20.7296557,28.1011 C20.731623,28.3001 20.7001475,28.4346 20.476377,28.4961 C19.2227705,28.8401 17.9608033,28.9961 16.6806393,28.6771 C15.6208033,28.4121 15.0508033,27.7026 15.0030984,26.6386 C14.9553934,25.5791 15.463918,24.8196 16.4883443,24.4466 C17.1468689,24.2066 17.8324426,24.1336 18.523918,24.2151 C18.8686721,24.2561 18.9006393,24.1161 18.851459,23.8331 C18.7727705,23.3811 18.4880164,23.1636 18.0734262,23.0866 C17.4468689,22.9696 16.8212951,23.0146 16.2227705,23.2136 C15.9070328,23.3191 15.7781803,23.2201 15.694082,22.9426 C15.6847377,22.9116 15.6704754,22.8826 15.6591639,22.8521 C15.3326066,21.9791 15.3803115,21.8841 16.2803115,21.6841 C17.1173607,21.4981 17.9603115,21.4296 18.8042459,21.6276 C19.9034262,21.8851 20.5127705,22.5746 20.671623,23.7086 C20.7827705,24.5036 20.6967049,25.3026 20.7271967,25.9631 Z M18.8803279,26.37035 C18.8803279,25.34785 18.8178689,25.29085 17.7934426,25.43235 C17.6213115,25.45635 17.4481967,25.50785 17.2883607,25.57635 C16.9618033,25.71585 16.8034426,25.97735 16.7891803,26.33985 C16.762623,27.00585 17.1462295,27.32485 18.0196721,27.35285 C18.8390164,27.37885 18.8803279,27.33835 18.8803279,26.51635 L18.8803279,26.37035 Z M44.8767049,26.0173 C44.8767049,26.7008 44.8673607,27.3843 44.881623,28.0678 C44.886541,28.3138 44.8294918,28.4503 44.5727705,28.5188 C43.4288361,28.8218 42.276541,28.9543 41.1030984,28.7433 C39.7801475,28.5058 39.1157213,27.6638 39.1747377,26.3258 C39.2121148,25.4878 39.6488361,24.9263 40.3609672,24.5728 C41.0853934,24.2133 41.8688361,24.1298 42.6571967,24.2143 C43.084082,24.2598 43.0757213,24.0583 43.0053934,23.7678 C42.9050656,23.3543 42.6198197,23.1508 42.221459,23.0823 C41.6101475,22.9778 40.9993279,23.0068 40.4185082,23.2063 C40.056541,23.3303 39.9222787,23.1943 39.8352295,22.8848 C39.8224426,22.8383 39.7993279,22.7943 39.7845738,22.7483 C39.5298197,21.9813 39.5834262,21.8828 40.3683443,21.7008 C41.1871967,21.5113 42.0124426,21.4318 42.8435902,21.6028 C44.1134262,21.8643 44.7970328,22.6538 44.8604754,23.9673 C44.8934262,24.6493 44.866377,25.3338 44.866377,26.0173 L44.8767049,26.0173 Z M43.0377541,26.36595 C43.0377541,26.15445 43.0367705,25.94295 43.0377541,25.73145 C43.0382459,25.59545 43.0333279,25.45995 42.8587377,25.44245 C42.330541,25.38895 41.797918,25.34445 41.3198852,25.64795 C40.9126721,25.90695 40.8113607,26.55345 41.0990656,26.94395 C41.3602131,27.29895 42.3202131,27.50845 42.8493934,27.27645 C43.2536557,27.09895 42.9452951,26.69795 43.0372623,26.41445 C43.0421803,26.39945 43.0377541,26.38195 43.0377541,26.36595 Z M36.952377,22.625 C37.4815574,21.9525 38.052541,21.535 38.8792623,21.5925 C39.2141803,21.6155 39.3410656,21.737 39.3164754,22.06 C39.3110656,22.1245 39.319918,22.19 39.3204098,22.255 C39.3327049,23.215 39.3327049,23.215 38.4154918,23.331 C37.5951639,23.435 37.1220492,23.9555 37.0886066,24.902 C37.0497541,26.007 37.0507377,27.114 37.0748361,28.2195 C37.0841803,28.633 36.9415574,28.742 36.5604098,28.757 C35.1587705,28.813 35.1592623,28.825 35.1592623,27.425 C35.1592623,25.652 35.1690984,23.879 35.1509016,22.1065 C35.147459,21.75 35.2463115,21.5855 35.599918,21.6095 C35.6161475,21.6105 35.6318852,21.6075 35.6481148,21.6065 C36.672541,21.5395 36.7059836,21.564 36.952377,22.625 Z M28.7159016,38.322 C28.5590164,38.3235 28.4016393,38.325 28.2442623,38.327 C28.2354098,36.439 28.2265574,34.5515 28.2186885,32.664 C28.2181967,32.5205 28.1916393,32.3645 28.4188525,32.358 C28.617541,32.353 28.7247541,32.4135 28.717377,32.629 C28.7159016,32.6855 28.7345902,32.743 28.7542623,32.8645 C29.2962295,32.2935 29.9036066,32.1595 30.5901639,32.3545 C30.9295082,32.452 31.2137705,32.64 31.3785246,32.9525 C31.8516393,33.8515 31.8609836,34.7825 31.3622951,35.657 C30.8832787,36.4975 30.0545902,36.6795 29.1845902,36.533 C28.744918,36.4585 28.7178689,36.604 28.7311475,36.9565 C28.7478689,37.411 28.7232787,37.8665 28.7159016,38.322 Z M28.7418197,34.81615 L28.7369016,34.81615 C28.7369016,35.10765 28.7413279,35.39965 28.7354262,35.69115 C28.7319836,35.85115 28.768377,35.95165 28.9380492,36.02015 C29.9132951,36.41415 30.955918,35.82765 31.1142787,34.77915 C31.1629672,34.45715 31.1605082,34.13165 31.1073934,33.81015 C30.9849344,33.07215 30.5801803,32.72015 29.9128033,32.75915 C29.2528033,32.79765 28.793459,33.25315 28.7452623,33.94115 C28.7250984,34.23165 28.7418197,34.52415 28.7418197,34.81615 Z M43.4262787,34.5095 C43.0426721,34.5095 42.6585738,34.521 42.275459,34.5055 C42.0261148,34.4955 41.9852951,34.604 42.0069344,34.8275 C42.0802131,35.5845 42.5287377,36.036 43.2866066,36.085 C43.6234918,36.1065 43.9569344,36.084 44.2844754,35.988 C44.4148033,35.95 44.5598852,35.8685 44.6144754,36.1075 C44.6557869,36.2865 44.608082,36.371 44.4452951,36.441 C43.5448033,36.832 42.2552951,36.525 41.7821803,35.7995 C41.2348033,34.9605 41.3548033,33.413 42.0187377,32.7435 C42.520377,32.238 43.4262787,32.118 44.0725082,32.4715 C44.6528361,32.7885 45.0226721,33.6475 44.8928361,34.317 C44.8500492,34.537 44.7162787,34.508 44.5775902,34.5085 C44.1939836,34.511 43.8098852,34.5095 43.4262787,34.5095 Z M43.1753607,34.05785 C43.4635574,34.05785 43.7522459,34.04585 44.039459,34.06135 C44.3109344,34.07585 44.4142131,34.00585 44.3458525,33.70185 C44.2179836,33.13285 43.8727377,32.78635 43.3425738,32.75235 C42.7233934,32.71235 42.2915902,33.01285 42.1017541,33.60535 C42.0078197,33.89985 41.9901148,34.11085 42.4076557,34.06335 C42.6609344,34.03435 42.9191311,34.05785 43.1753607,34.05785 Z M35.572082,34.4172 C35.572082,34.9707 35.5637213,35.5247 35.5760164,36.0777 C35.5809344,36.2937 35.5150328,36.4057 35.2991311,36.4482 C34.7778197,36.5517 34.254541,36.6177 33.724377,36.5482 C32.9674918,36.4482 32.5283115,36.0472 32.4240492,35.2702 C32.3040492,34.3817 32.3974918,33.4822 32.3748689,32.5877 C32.3689672,32.3737 32.4973279,32.3652 32.6547049,32.3582 C32.847,32.3502 32.904541,32.4422 32.9025738,32.6217 C32.8976557,33.1587 32.8986393,33.6962 32.902082,34.2337 C32.9040492,34.4937 32.9010984,34.7552 32.9256885,35.0137 C32.9960164,35.7497 33.3161803,36.0542 34.0351967,36.0927 C35.0542131,36.1462 35.0542131,36.1462 35.0542131,35.1422 C35.0542131,34.3282 35.0561803,33.5142 35.0527377,32.7002 C35.0517541,32.5082 35.0478197,32.3532 35.3178197,32.3537 C35.5956885,32.3547 35.5730656,32.5252 35.5725738,32.7077 C35.5710984,33.2777 35.572082,33.8472 35.572082,34.4172 Z M39.2677869,36.58665 C39.0636885,36.55615 38.7961475,36.51665 38.5281148,36.47565 C38.3486066,36.44865 38.2841803,36.35365 38.3392623,36.16865 C38.3884426,36.00015 38.4681148,35.92415 38.6510656,35.97865 C38.9756557,36.07565 39.3105738,36.11965 39.6469672,36.07165 C40.0330328,36.01565 40.3763115,35.86415 40.4372951,35.42015 C40.4987705,34.96865 40.2081148,34.74365 39.832377,34.60415 C39.562377,34.50415 39.2859836,34.41915 39.0243443,34.30015 C38.5846721,34.10015 38.359918,33.75565 38.4159836,33.25165 C38.4686066,32.77415 38.7489344,32.49315 39.1856557,32.36215 C39.6754918,32.21415 40.1653279,32.26365 40.6551639,32.37415 C40.8268033,32.41315 40.8936885,32.48965 40.8533607,32.68065 C40.8095902,32.89015 40.6915574,32.89065 40.5366393,32.84565 C40.1933607,32.74465 39.8436885,32.72015 39.492541,32.77365 C39.197459,32.81915 38.9835246,32.98015 38.9446721,33.29965 C38.9072951,33.60565 39.0907377,33.78865 39.3410656,33.89765 C39.5751639,33.99965 39.8235246,34.06815 40.062541,34.15915 C40.7466393,34.41815 41.0510656,34.82415 41.0004098,35.40065 C40.9477869,36.00065 40.5022131,36.43465 39.8127049,36.54665 C39.6558197,36.57215 39.4945082,36.57115 39.2677869,36.58665 Z M37.0174918,33.2224 C37.0174918,33.9534 37.024377,34.6844 37.0150328,35.4149 C37.0086393,35.8589 37.1291311,36.1604 37.642082,36.0834 C37.8447049,36.0529 37.8973279,36.1714 37.9081475,36.3324 C37.9204426,36.5224 37.7674918,36.5179 37.6460164,36.5409 C36.9284754,36.6734 36.499623,36.3189 36.4966721,35.5724 C36.4907705,34.0299 36.4942131,32.4869 36.4956885,30.9439 C36.4961803,30.7594 36.4337213,30.5409 36.749459,30.5374 C37.0568361,30.5344 37.0174918,30.7384 37.0174918,30.9324 C37.0174918,31.6959 37.0174918,32.4594 37.0174918,33.2224 Z"/>
</svg>
