<svg xmlns="http://www.w3.org/2000/svg" width="60" height="60" viewBox="0 0 60 60">
  <g fill="#FFF" transform="translate(15 16)">
    <path d="M15.5089888 0L17.5247191 0C17.5247191 1.49945736 17.5247191 3.74751938 17.5247191 6.74418605L17.5247191 22.5930233C17.5247191 25.4413178 17.5247191 27.5769767 17.5247191 29L15.4348315 29C10.2977528 28.0659302 5.14719101 27.2060465.00337078652 26.3023256 0 18.4352326 0 10.5681395 0 2.7044186 5.17078652 1.79732558 10.341573.920581395 15.5089888 0zM7.22696629 8.99C3.99101124 10.1466279 3.40449438 14.4898837 4.61123596 17.3123256 5.52808989 19.7604651 8.90224719 20.7417442 10.9146067 19.0186047 13.0988764 17.1066279 13.2539326 13.6468605 12.1550562 11.1177907 11.3494382 9.28 9.12808989 8.27174419 7.22696629 8.99zM7.55393258 11.0166279C8.4505618 10.5883721 9.57303371 11.0233721 9.99438202 11.9102326 10.6685393 13.2455814 10.6651685 14.8743023 10.2235955 16.2838372 9.91011236 17.2853488 8.81460674 18.1115116 7.75280899 17.7169767 6.42808989 17.2988372 6.02696629 15.7274419 6.01348315 14.4966279 5.99662921 13.2219767 6.28988764 11.6337209 7.55393258 11.0166279L7.55393258 11.0166279zM18.5247191 7.75581395C22.2595506 7.75918605 25.9910112 7.74569767 29.7258427 7.76255814 29.6617978 8.20430233 29.5269663 8.63930233 29.1561798 8.91581395 26.9247191 10.9963953 24.7067416 13.087093 22.4820225 15.1744186 21.1438202 13.9638372 19.8426966 12.7127907 18.5247191 11.4819767 18.5247191 10.2376744 18.5247191 8.99674419 18.5247191 7.75581395z"/>
    <path d="M23.5404494,15.4745349 C25.5662921,13.5490698 27.6089888,11.637093 29.6449438,9.72174419 C29.6550562,13.6738372 29.6449438,17.6293023 29.6483146,21.5813953 C25.9404494,21.5813953 22.2325843,21.5813953 18.5247191,21.5813953 C18.5247191,18.6409302 18.5213483,15.7004651 18.5280899,12.7633721 C19.7853933,13.8761628 20.911236,15.1440698 22.2460674,16.1590698 C22.7955056,16.2602326 23.1662921,15.7847674 23.5404494,15.4745349 Z"/>
  </g>
</svg>
