<?xml version="1.0" encoding="UTF-8"?>
<svg width="60px" height="60px" viewBox="0 0 60 60" version="1.1" xmlns="http://www.w3.org/2000/svg" xmlns:xlink="http://www.w3.org/1999/xlink">
    <!-- Generator: Sketch 46.2 (44496) - http://www.bohemiancoding.com/sketch -->
    <title>provider-svg--GetSiteControl</title>
    <desc>Created with Sketch.</desc>
    <defs></defs>
    <g id="Week-38-Batch-#4" stroke="none" stroke-width="1" fill="none" fill-rule="evenodd">
        <g id="provider-svg--GetSiteControl" fill="#FFFFFF">
            <path d="M35.811,18.021 C34.058,17.145 32.121,16.695 30,16.667 C26.233,16.774 23.101,18.079 20.607,20.588 C18.113,23.095 16.811,26.233 16.708,30 C16.812,33.768 18.114,36.899 20.608,39.393 C23.102,41.887 26.234,43.187 30.001,43.293 C33.768,43.188 36.906,41.887 39.413,39.393 C41.92,36.899 43.228,33.769 43.332,30 C43.306,27.639 42.736,25.49 41.622,23.553 L43.572,21.602 C44.344877,22.8280554 44.9473996,24.1535379 45.363,25.542 C45.786,26.949 46,28.434 46,30 C45.893,34.538 44.335,38.313 41.323,41.323 C38.311,44.335 34.538,45.893 30,46 C25.462,45.893 21.689,44.335 18.677,41.323 C15.665,38.313 14.107,34.538 14,30 C14.107,25.462 15.665,21.689 18.677,18.677 C21.689,15.666 25.462,14.107 30,14 C31.406,14 32.766,14.18 34.081,14.538 C35.393,14.896 36.633,15.408 37.799,16.07 L35.811,18.021 Z M40.824,29.96 C40.746,33.039 39.684,35.599 37.64,37.643 C35.596,39.685 33.051,40.747 30,40.827 C26.949,40.748 24.4,39.685 22.36,37.643 C20.316,35.599 19.254,33.039 19.176,29.96 L40.824,29.96 Z" id="Combined-Shape"></path>
        </g>
    </g>
</svg>