<?xml version="1.0" encoding="UTF-8"?>
<svg width="60px" height="60px" viewBox="0 0 60 60" version="1.1" xmlns="http://www.w3.org/2000/svg" xmlns:xlink="http://www.w3.org/1999/xlink">
    <!-- Generator: Sketch 46.2 (44496) - http://www.bohemiancoding.com/sketch -->
    <title>provider-svg--wedo</title>
    <desc>Created with Sketch.</desc>
    <defs></defs>
    <g id="Week-38-Batch-#4" stroke="none" stroke-width="1" fill="none" fill-rule="evenodd">
        <g id="provider-svg--wedo" fill="#FFFFFF">
            <path d="M30.5,20.6283687 C32.5738047,20.5301114 34.3341491,19.9406446 35.7810334,18.8599683 C37.2711993,17.7469649 38.6344638,16.4603089 39.8708271,15 L40.5622161,15 L40.5622161,24.4928349 L45,35.0441228 C40.7775657,37.1505335 37.8994565,38.950149 36.3656722,40.4429694 C34.831888,41.9357898 33.116552,43.4548 31.2196642,45 L30.5,45 L29.7803358,45 C27.883448,43.4548 26.168112,41.9357898 24.6343278,40.4429694 C23.1005435,38.950149 20.2224343,37.1505335 16,35.0441228 L20.4377839,24.4928349 L20.4377839,15 L21.1291729,15 C22.3655362,16.4603089 23.7288007,17.7469649 25.2189666,18.8599683 C26.6658509,19.9406446 28.4261953,20.5301114 30.5,20.6283687 Z M21.8297322,17.6754147 L21.8297322,24.1950706 L26.1426235,24.1950706 L21.8297322,17.6754147 Z M39.396962,17.4130961 L35.0840707,23.932752 L39.396962,23.932752 L39.396962,17.4130961 Z M25.840224,36.1145911 C26.9930191,36.1145911 27.9275442,35.1692586 27.9275442,34.003132 C27.9275442,32.8370053 26.9930191,31.8916729 25.840224,31.8916729 C24.6874288,31.8916729 23.7529037,32.8370053 23.7529037,34.003132 C23.7529037,35.1692586 24.6874288,36.1145911 25.840224,36.1145911 Z M35.3822594,36.1145911 C36.5350545,36.1145911 37.4695796,35.1692586 37.4695796,34.003132 C37.4695796,32.8370053 36.5350545,31.8916729 35.3822594,31.8916729 C34.2294642,31.8916729 33.2949391,32.8370053 33.2949391,34.003132 C33.2949391,35.1692586 34.2294642,36.1145911 35.3822594,36.1145911 Z M28.7792036,41.7008367 C28.6045726,41.7008367 28.4385099,41.7765093 28.323933,41.9082975 C28.1053313,42.1597365 28.1319513,42.5407798 28.3833904,42.7593815 L30.2173905,44.353865 C30.4448926,44.5516558 30.7834809,44.551146 31.0103863,44.352671 L32.8332705,42.7581874 C32.9642358,42.6436316 33.039362,42.4781078 33.039362,42.3041108 C33.039362,41.9709317 32.769267,41.7008367 32.436088,41.7008367 L28.7792036,41.7008367 Z" id="Combined-Shape"></path>
        </g>
    </g>
</svg>