<svg xmlns="http://www.w3.org/2000/svg" width="60" height="60" viewBox="0 0 60 60">
  <g fill="none" fill-rule="evenodd" transform="translate(5 5)">
    <rect width="48" height="48" x="1" y="1" stroke="#FFFFFF" stroke-opacity=".2" stroke-width="2" opacity="0" rx="4"/>
    <path fill="#FFFFFF" d="M19.4347736,37 C30.7562861,37 36.9471463,27.7673681 36.9471463,19.7614626 C36.9471463,19.4992243 36.9417201,19.2381692 36.9297704,18.9782943 C38.1315812,18.1230716 39.1761921,17.0558141 40,15.8409001 C38.8971891,16.3234399 37.7103783,16.6482837 36.4653655,16.7947589 C37.7361783,16.0446652 38.7117872,14.8581029 39.1719921,13.443558 C37.9827803,14.1375411 36.6657674,14.6419347 35.2635536,14.9142116 C34.1403428,13.7365075 32.541327,13 30.7707102,13 C27.3716767,13 24.6152491,15.7133266 24.6152491,19.0580287 C24.6152491,19.5334801 24.6692491,19.9959399 24.7748511,20.439497 C19.6592017,20.1861199 15.1231553,17.7751936 12.0877268,14.1091914 C11.5591208,15.0045771 11.2543189,16.0446652 11.2543189,17.1544473 C11.2543189,19.2564783 12.3409287,21.1122187 13.9933445,22.1977854 C12.9835356,22.1670733 12.0349258,21.8942038 11.2057169,21.4400147 C11.2048108,21.465435 11.2048108,21.4902182 11.2048108,21.5173866 C11.2048108,24.4516053 13.3264326,26.9015133 16.1428602,27.4566991 C15.6256552,27.5954963 15.0814493,27.6699142 14.5198444,27.6699142 C14.1238404,27.6699142 13.7380365,27.6315478 13.3630336,27.5606499 C14.1466404,29.9680324 16.4188621,31.7198221 19.1128898,31.7688453 C17.0062681,33.3942408 14.3524424,34.3622745 11.4682148,34.3622745 C10.9720089,34.3622745 10.4818049,34.3344917 10,34.2784048 C12.7240276,35.9971218 15.9586592,37 19.4350917,37"/>
  </g>
</svg>
