<svg xmlns="http://www.w3.org/2000/svg" width="60" height="60" viewBox="0 0 60 60">
  <path fill="#FFF" fill-rule="evenodd" d="M17.716,30.7502 C17.755,30.7612 17.794,30.7712 17.832,30.7822 C17.91,31.7112 17.964,32.6432 18.071,33.5682 C18.524,37.4882 20.634,39.9972 24.502,40.8912 C28.262,41.7602 32.002,41.8362 35.14,39.1962 C38.833,36.0892 40.287,31.9802 39.613,27.2122 C39.17,24.0832 37.477,21.7312 34.62,20.2902 C34.317,20.1372 33.945,20.1082 33.6,20.0502 C33.011,19.9502 32.334,20.0272 31.843,19.7582 C30.312,18.9182 28.758,18.3512 26.982,18.6392 C22.058,19.4372 20.063,20.7802 18.658,25.5602 C18.165,27.2372 18.02,29.0172 17.716,30.7502 M16.321,31.2822 C16.354,28.6242 16.831,26.0572 17.764,23.5642 C19.117,19.9512 21.392,17.5572 25.513,17.4672 C26.344,17.4492 27.174,17.3342 28.002,17.2482 C28.551,17.1912 29.158,17.4172 29.497,16.6092 C29.603,16.3582 30.553,16.1842 30.922,16.3672 C32.705,17.2512 34.538,18.1072 36.139,19.2692 C40.592,22.4982 42.204,26.9882 41.315,32.3432 C40.422,37.7312 36.941,40.8382 31.936,42.4492 C29.518,43.2272 27.036,43.4172 24.533,42.9122 C19.639,41.9232 16.82,38.6282 16.43,33.4792 C16.374,32.7482 16.357,32.0152 16.321,31.2822 Z M21.7268,30.6228 C21.3978,31.9228 21.8508,33.0148 22.7138,33.9248 C24.6548,35.9718 27.1398,36.5158 29.8378,36.3048 C31.5058,36.1748 33.0268,35.6298 34.1998,34.3588 C35.0398,33.4478 35.4188,32.3358 35.1798,31.3298 C33.4898,33.7828 31.1638,34.8728 28.3038,34.6428 C25.4878,34.4158 23.0558,33.4478 21.7268,30.6228 Z M31.5783,27.4777 C31.9583,27.8547 32.2773,28.3917 32.7343,28.5667 C33.2783,28.7747 34.0533,27.9487 33.8953,27.2867 C33.7973,26.8777 33.3323,26.3497 32.9453,26.2637 C32.3073,26.1217 31.8093,26.5267 31.5783,27.4777 Z M25.486,27.6906 C25.431,26.6426 25.172,26.0946 24.385,26.0656 C23.688,26.0396 23.388,26.4866 23.362,27.1396 C23.331,27.8956 23.861,28.5236 24.555,28.3766 C24.955,28.2926 25.28,27.8516 25.486,27.6906 Z"/>
</svg>
