<svg xmlns="http://www.w3.org/2000/svg" width="60" height="60" viewBox="0 0 60 60">
  <path fill="#FFF" fill-rule="evenodd" d="M37.0737368,26.0914737 C36.1855789,26.8784211 35.4242105,27.5854737 34.6252632,28.2472105 C34.2374737,28.5685263 34.2794737,28.8074211 34.5813684,29.1478421 C35.1715789,29.8132105 35.7270526,30.5095263 36.3062105,31.1851579 C36.4754737,31.3826842 36.6758421,31.5535263 36.862,31.7366842 C36.9332105,31.7066842 37.0044211,31.6768421 37.0756316,31.6468421 C37.075,29.8667368 37.0743684,28.0867895 37.0737368,26.0914737 M37.5286316,26.2845789 C37.5291053,27.6078947 37.5452105,28.6520526 37.5229474,29.6952632 C37.5120526,30.2123684 37.7094211,30.4001053 38.2233684,30.3491053 C39.6829474,30.2043158 41.1450526,30.0858947 42.6054211,29.9505789 C42.8520526,29.9276842 43.0956842,29.8725789 43.3407368,29.8324737 C43.3620526,29.7566842 43.3832105,29.6808947 43.4043684,29.6051053 C41.5198947,28.5401053 39.6354211,27.4751053 37.5286316,26.2845789 M26.2563684,35.6864211 C22.7498421,38.7860526 19.3748421,41.7691579 16,44.7525789 C16.1883684,44.8855263 16.2898947,44.8815789 16.3675789,44.8365789 C19.7757368,42.8621053 23.1853158,40.8901579 26.5775263,38.8886842 C26.7510526,38.7863684 26.8833684,38.4091579 26.8462632,38.1922105 C26.7183684,37.4455263 26.5064737,36.7130526 26.2563684,35.6864211 M25.2112632,35.6963684 C25.8581579,35.4292105 26.1368421,35.1364737 25.9797368,34.4992105 C25.0031579,30.5426842 24.0649474,26.5765263 23.0768421,22.6228421 C22.9772105,22.2238421 22.6964737,21.8114211 22.3849474,21.5343158 C21.1468947,20.4334737 19.8652632,19.3814211 18.5943684,18.3178421 C18.3924211,18.1487368 18.1622105,18.0131053 17.9451053,17.862 C17.8926842,17.9107895 17.8402632,17.9595789 17.7878421,18.0083684 C20.2536842,23.8836316 22.7193684,29.7588947 25.2112632,35.6963684 M21.9109474,15 C21.8225263,15.0473684 21.7341053,15.0945789 21.6458421,15.1416316 C23.554,22.8468947 25.4621579,30.552 27.4138947,38.4323684 C30.6998421,36.5243684 33.8343684,34.7041579 37.0830526,32.8179474 C31.9434211,26.7821053 26.9271053,20.8910526 21.9109474,15"/>
</svg>
