<svg xmlns="http://www.w3.org/2000/svg" width="60" height="60" viewBox="0 0 60 60">
  <path fill="#FFF" fill-rule="evenodd" d="M15.5416056,25.3746197 C17.5186479,26.8205352 19.5307606,28.2212394 21.4592113,29.7292676 C22.6465352,30.658 23.4687887,30.6677183 24.3687887,29.3308169 C25.6245634,27.4640563 27.0332958,25.6995493 28.3963944,23.9067324 C28.8480845,23.313493 29.3618873,22.7675775 30.017662,22.0002535 C31.9423099,24.4881408 33.7651268,26.7072958 35.4265352,29.0418028 C36.4570986,30.489831 37.3106197,30.8223662 38.7793521,29.5446197 C40.5151268,28.0340563 42.4562535,26.7601127 44.8313239,24.9951831 C44.6086479,26.1702535 44.5228732,26.794338 44.3699155,27.4019437 C43.5641408,30.5988451 42.804,33.8096901 41.8672394,36.9681408 C41.6973803,37.5406761 40.7834366,38.2809577 40.2070986,38.2860282 C33.449493,38.3426479 26.6901972,38.2953239 19.9325915,38.2002535 C19.3486479,38.1922254 18.384,37.7667324 18.2538592,37.3365915 C17.0855493,33.4632113 16.0642817,29.5458873 14.9999155,25.6408169 C15.1807606,25.5520845 15.3611831,25.4633521 15.5416056,25.3746197"/>
</svg>
