<svg xmlns="http://www.w3.org/2000/svg" width="60" height="60" viewBox="0 0 60 60">
  <g fill="#FFF" transform="translate(16 16)">
    <path fill-opacity=".8" d="M13.19,9.113 C12.6105752,9.1177314 12.0350282,9.20803971 11.482,9.381 L8.238,0.843 C9.65256599,0.343670388 11.1340716,0.0595044585 12.633,0 L13.189,9.113 L13.19,9.113 Z M25.5323574,19.9841157 L27.156,20.702 C27.8949441,18.8954267 28.2737094,16.961855 28.271,15.01 L28.27,15.011 C28.27,7.706 23.059,1.62 16.15,0.267 L14.686,9.289 C16.3016695,9.69534429 17.6702411,10.7658136 18.4537492,12.2360581 C19.2372573,13.7063025 19.3626638,15.439267 18.799,17.007 L18.8010357,17.0079001 C19.0299538,16.367677 19.1473117,15.6929187 19.148,15.013 C19.1496717,13.4398447 18.5224834,11.9312803 17.406,10.823 L18.988,9.222 L22.558,5.605 C23.072,6.12 23.555,6.677 23.992,7.285 C26.6543718,10.9718017 27.236084,15.7677617 25.5323574,19.9841157 Z"/>
    <path d="M22.9236069,5.98435518 C23.3069677,6.39483929 23.6641595,6.82923757 23.993,7.285 C25.5694339,9.47203484 26.3828599,11.9774988 26.4845177,14.4837471 C26.3790617,11.9307795 25.5349362,9.42162871 23.992,7.285 C23.660199,6.82336383 23.3018794,6.39112869 22.9236069,5.98435518 Z M26.1976037,17.8221265 C25.5324054,20.9152686 23.7632157,23.7817278 20.994,25.777 C15.06,30.056 6.782,28.714 2.502,22.78 C-1.776,16.845 -0.434,8.566 5.501,4.287 C6.101,3.855 6.726,3.48 7.368,3.16 L9.615,7.699 L11.268,11.035 C9.54898715,11.8828429 8.57317914,13.7427896 8.85251603,15.6390526 C9.13185291,17.5353157 10.6025462,19.0348704 12.4930232,19.3510024 C14.3835002,19.6671345 16.2620574,18.7276529 17.1431438,17.0254398 C18.0242302,15.3232267 17.7066436,13.2469941 16.357,11.886 L17.4062188,10.8232172 C18.5225653,11.9314774 19.1496716,13.4399475 19.148,15.013 C19.1473116,15.692954 19.0299416,16.3677472 18.801,17.008 L25.531,19.985 L25.532,19.985 C25.8178623,19.2776991 26.0394079,18.5540837 26.1976037,17.8221265 Z M17.8841634,10.3390938 L18.987,9.222 L20.7955,7.39070378 L18.988,9.222 L17.8841634,10.3390938 Z"/>
  </g>
</svg>
