<svg xmlns="http://www.w3.org/2000/svg" width="60" height="60" viewBox="0 0 60 60">
  <g fill="#FFF" transform="translate(18 15)">
    <g transform="translate(0 7.5)">
      <path d="M11.4071994,22.2741699 C5.66636828,22.2223579 0.815022806,17.8877767 0.122477222,12.1917046 C0.0717502222,12.0069716 0.0731065556,11.8811035 0.0739203611,11.8580458 L0.0751410556,11.8244086 L0.0805663889,11.8244086 C0.0473361389,11.4562988 0.0320095278,11.0773383 0.0351291111,10.6972927 C0.0370279722,10.4962836 0.0461154444,10.2784559 0.0627983889,10.0316026 C0.0492350278,9.94832353 0.0492350278,9.88837344 0.0499131944,9.86911347 L0.0512695278,9.83466253 L0.0779893611,9.83547633 C0.371907556,6.31361219 2.23971897,3.17342122 5.20602756,1.21609156 L5.23681639,1.19588214 L5.69159611,1.98147242 L5.66446939,1.99951169 C5.31494139,2.23225908 4.96785481,2.49660914 4.63175456,2.78605142 C4.64938694,2.78632269 4.75667317,2.78591578 4.75667317,2.78591578 C4.88416883,2.78591578 5.01247828,2.80042858 5.13658311,2.81439886 C5.25783961,2.8282335 5.38330078,2.84233939 5.50509983,2.84233939 C5.56518556,2.84233939 5.62527128,2.83894856 5.68522136,2.83053925 C5.70041233,2.82823347 5.71533203,2.82714842 5.72984483,2.82714842 C5.89870878,2.82714842 5.99975586,2.96847872 6.00911458,3.10153536 C6.01874458,3.23974608 5.93627931,3.34147133 5.79874675,3.36086697 C5.69118925,3.37660047 5.57739258,3.38419597 5.45125325,3.38419597 C5.24888781,3.38419597 5.04191081,3.36425783 4.84198675,3.34486219 C4.64260525,3.32560222 4.43644206,3.30579969 4.23556856,3.30579969 C4.1741265,3.30579969 4.11268444,3.30756294 4.05151364,3.31176758 C3.81157767,3.56133356 3.56797956,3.82866753 3.34459089,4.09925672 C3.48456483,4.10142686 3.62440317,4.10793728 3.76478403,4.11824544 C3.84575733,4.12434897 3.92862953,4.13397894 4.01245114,4.14374458 C4.15269636,4.16015625 4.29768878,4.17711047 4.43752708,4.17711047 C4.510498,4.17711047 4.58265511,4.17249892 4.65318464,4.16083442 C4.67013886,4.15812175 4.68627925,4.15690103 4.70201275,4.15690103 C4.86979161,4.15690103 4.97178814,4.29741753 4.98263883,4.429796 C4.99362517,4.56583658 4.91333003,4.66824 4.77783197,4.69048394 C4.63812928,4.71299914 4.48811842,4.72398547 4.31898322,4.72398547 C4.10156244,4.72398547 3.87871631,4.70567492 3.66319439,4.68790692 C3.44848628,4.67027453 3.22631831,4.65209964 3.01025386,4.65209964 C2.97932939,4.65209964 2.94840492,4.65237092 2.91748042,4.65318469 C2.75336367,4.88267689 2.59182394,5.13197158 2.42485889,5.41327583 C2.65435108,5.44270833 2.88302947,5.49384225 3.10479053,5.54334853 C3.42759869,5.61550564 3.76139317,5.69010417 4.09545892,5.69661458 C4.2725965,5.70054797 4.36659064,5.84865994 4.36509867,5.9861925 C4.36374233,6.10839844 4.28534606,6.23996311 4.1163465,6.23996311 C3.76627597,6.23345269 3.42814119,6.15790472 3.10126403,6.08479817 C2.78686517,6.01440428 2.4620225,5.94184028 2.13568786,5.93180339 C1.99435756,6.20266386 1.87269417,6.45982531 1.765001,6.71590169 C2.38050664,6.76242406 2.92195631,6.89914281 3.46788186,7.04725478 C3.64271367,7.09486219 3.68896475,7.228597 3.67567267,7.32855903 C3.65898972,7.45239258 3.55278856,7.57758247 3.38175447,7.57758247 C3.35001619,7.57758247 3.31705719,7.57310656 3.28409822,7.56401911 C2.67632369,7.39949544 2.16389967,7.27145725 1.56480569,7.24365236 L1.56344944,7.23958333 C1.46728517,7.50623914 1.38793947,7.75268556 1.32175022,7.99112956 C1.62421333,8.033176 1.8633355,8.14086914 2.12076822,8.26619467 C2.32408311,8.36385092 2.56144206,8.42732747 2.79093425,8.48890517 L2.90608725,8.52010092 C3.08553061,8.56892903 3.13381619,8.70185006 3.12052411,8.80086264 C3.10438369,8.92157661 2.99248592,9.04988608 2.81697594,9.04988608 C2.78266061,9.04988608 2.74712461,9.04500328 2.71145294,9.03496639 C2.48046878,8.97203236 2.23537872,8.89634878 1.9622125,8.80384661 C1.85533311,8.76831056 1.76079644,8.72300889 1.66937933,8.67960611 C1.51909722,8.60772028 1.37668186,8.53990342 1.19371203,8.51955839 C1.126709,8.82147897 1.07883031,9.07999675 1.04383681,9.32902019 C1.30262586,9.48255753 1.5412055,9.59350586 1.77259658,9.66810439 C1.88557944,9.70336914 2.00168186,9.75518122 2.11412219,9.80509442 C2.26169164,9.87074111 2.41427953,9.93855797 2.55967883,9.96893992 C2.73084853,10.0042047 2.79500328,10.1563857 2.78198244,10.2830675 C2.77031794,10.3975424 2.69341364,10.5131023 2.54787872,10.5131023 C2.52861875,10.5131023 2.50840933,10.5109321 2.48792864,10.5065918 C2.28244361,10.4642741 2.083469,10.3804525 1.89100481,10.2993436 C1.78358292,10.2540419 1.67656794,10.2090115 1.56860356,10.1710341 C1.37898767,10.1040311 1.18638783,10.0191244 0.981445361,9.91170247 L0.974121139,9.98331706 C1.00572378,10.095893 1.10907664,10.3476291 1.43527564,10.6400553 C2.04711917,11.1872016 3.75176328,12.1054416 8.29413522,12.1054416 C9.29646811,12.1054416 10.3998481,12.0604112 11.5737576,11.9719781 C18.4802246,11.4511447 20.7013618,9.96595592 21.4107259,9.12692597 C21.7097982,8.77400714 21.7792426,8.50029836 21.7940267,8.36873369 C21.0352919,5.15326603 18.7647841,2.434082 15.7210286,1.10649953 L15.6928168,1.09415686 L15.9516059,0.220540333 L15.9874132,0.235731306 C19.3294271,1.65798608 21.8252224,4.60652667 22.6689995,8.12730575 L22.672526,8.12676322 L22.6962619,8.15931531 C22.6981608,8.174235 22.7034505,8.21601019 22.7050781,8.27867294 C22.8426106,8.88793944 22.9306369,9.52406139 22.965766,10.162896 C22.9682074,10.1835124 22.9732259,10.2312554 22.9721408,10.3063965 C22.9806857,10.5025228 22.9859754,10.7019043 22.9844835,10.9023709 C22.9800076,11.3746473 22.9444715,11.8504503 22.8758409,12.3569064 C22.871365,12.4361165 22.8597005,12.5221083 22.8412543,12.6099989 C21.9651964,18.1188964 17.0935058,22.2747124 11.5105523,22.2747124 C11.5101454,22.2747124 11.4071994,22.2741699 11.4071994,22.2741699 Z M3.62263997,17.8226725 C5.60791017,20.0505914 8.44184028,21.3412815 11.4152018,21.3673231 L11.5120443,21.3678657 C15.9208171,21.3678657 19.8885091,18.5968696 21.4210341,14.4611274 C19.6510146,15.7043457 16.4663357,16.5094672 11.9520399,16.8553331 C10.7706706,16.9453939 9.6580675,16.9912381 8.64474828,16.9912381 L8.35137264,16.9898817 C5.77094186,16.9665527 3.77536353,16.6402181 2.42011178,16.0201009 C2.38878039,16.0152181 2.35283747,16.0078939 2.31594511,16.0000271 C2.54069011,16.3968913 2.79337567,16.7820909 3.06749133,17.1461317 C3.43668622,17.2763401 3.84792753,17.3536513 4.24560547,17.4285211 C4.53125,17.482232 4.82638889,17.5378418 5.11054144,17.6170519 C5.26123047,17.6593696 5.31277125,17.7933756 5.29703775,17.9073079 C5.28211806,18.0155436 5.20168728,18.1319173 5.06049261,18.1319173 C5.03689236,18.1319173 5.01234267,18.1286621 4.98752169,18.1216092 C4.69170464,18.0386014 4.38598633,17.9778375 4.09044053,17.9189724 C3.93419053,17.888048 3.77807617,17.8568522 3.62263997,17.8226725 Z M1.39119467,13.8288032 L1.40869142,13.8618978 C1.40869142,13.8621691 1.41153972,13.9080132 1.43432619,13.9842394 C1.49183486,14.1535102 1.60956492,14.377577 1.89331058,14.6325684 C2.49905061,15.1748318 4.1811795,16.0849338 8.64176436,16.0849338 C9.63202586,16.0849338 10.7225207,16.0399034 11.8825955,15.9509277 C18.785943,15.4233127 20.9524198,13.911811 21.6292318,13.0575901 C21.7914497,12.8530545 21.9019911,12.6409234 21.949056,12.4445258 C21.968316,12.321913 21.9862197,12.19713 22.0016819,12.0712619 C20.8501519,13.0985514 18.1439887,14.3919542 11.790229,14.8658583 C10.5828179,14.9556478 9.44308814,15.001492 8.40264217,15.001492 L8.10058597,15.0001356 C5.70231122,14.9784342 3.79163958,14.705268 2.42160378,14.1882324 C2.11303717,14.1451009 1.82061094,14.0083822 1.53795036,13.8760037 C1.48423942,13.8510471 1.43066411,13.8258192 1.37681756,13.8014052 L1.38454867,13.8288032 L1.39119467,13.8288032 Z M0.975477444,11.6060384 C0.98592125,11.743571 0.998942083,11.8811035 1.01440431,12.0183648 C1.06065539,12.1502008 1.17648656,12.3682997 1.45575631,12.6178657 C2.07153322,13.1693522 3.79367406,14.0949164 8.40766061,14.0949164 C9.42097983,14.0949164 10.5362956,14.0501573 11.722819,13.9617242 C18.726671,13.4398058 20.9697808,11.9483778 21.6836209,11.1058214 C21.9798448,10.7558865 22.0476617,10.4843479 22.0617676,10.353597 C22.0551215,10.1835124 22.0429145,10.0012207 22.0243327,9.80211044 C20.9929742,10.9387207 18.3506944,12.3704698 11.6418457,12.8758409 C10.4486762,12.9659017 9.31979708,13.0114746 8.28653969,13.0114746 L7.99397783,13.0103895 C4.88376194,12.982449 2.63075086,12.5299751 1.29747178,11.6657172 C1.22504339,11.6491699 1.14149306,11.6304525 1.05509439,11.6190592 L0.975477444,11.6060384 Z"/>
      <path d="M15.9738498,0.267740889 C19.287245,1.67778864 21.7998589,4.60571289 22.6426866,8.16663956 L22.661811,8.16365561 C22.6637099,8.17830406 22.6687283,8.21872289 22.6703559,8.27948678 C22.8076172,8.89038089 22.8956435,9.52026369 22.9310439,10.1647949 C22.9336209,10.1867676 22.9385037,10.2331543 22.9374186,10.305854 C22.9459636,10.5033366 22.9512533,10.7021756 22.9497613,10.9020996 C22.9451497,11.3933648 22.9059516,11.8762207 22.84139,12.3522949 C22.8374566,12.4214681 22.8275554,12.5061035 22.8072103,12.602946 C21.9384766,18.0659994 17.194553,22.2399903 11.5104167,22.2399903 C11.4761014,22.2399903 11.4417861,22.239719 11.4074707,22.2394478 C5.60451931,22.1870931 0.839301222,17.8004286 0.156928167,12.1876356 C0.108100056,12.0083279 0.107693139,11.8865289 0.108642583,11.8591309 L0.118679472,11.8591309 C0.0827365556,11.4771864 0.0665961389,11.0890028 0.0698513611,10.697564 C0.0720215,10.4745823 0.0826009167,10.2534994 0.097385,10.0340441 C0.0840928889,9.94669597 0.0839572778,9.88891603 0.0846354444,9.87046983 L0.109863306,9.87128364 C0.400661917,6.26478408 2.36721464,3.13083225 5.22515194,1.24511719 L5.64520944,1.97062175 C5.25770403,2.228597 4.89013675,2.51329211 4.54088003,2.81901042 C4.58821619,2.82009547 4.63582361,2.82118056 4.68356667,2.82118056 C4.69699439,2.82118056 4.71042214,2.82118056 4.7239855,2.82090928 C4.73497183,2.820638 4.74582253,2.820638 4.75667322,2.820638 C5.00718864,2.820638 5.25702586,2.87706161 5.50509986,2.87706161 C5.56694881,2.87706161 5.6285265,2.87367078 5.69010419,2.86485458 C5.70380319,2.86282008 5.71695967,2.86187064 5.72984486,2.86187064 C5.99975589,2.86187064 6.08303497,3.28572589 5.79386397,3.32655164 C5.68033858,3.34296331 5.56613503,3.34947372 5.45125331,3.34947372 C5.04923508,3.34947372 4.64002825,3.27107744 4.23556864,3.27107744 C4.17331278,3.27107744 4.11105692,3.27284069 4.04907233,3.27718097 C3.77563483,3.54885522 3.51548944,3.83382158 3.27189133,4.13316514 C3.43532992,4.13397894 3.59836161,4.14089625 3.76220708,4.15283203 C3.97989914,4.16924369 4.21237528,4.21183267 4.43752717,4.21183267 C4.51239694,4.21183267 4.58645294,4.2070855 4.65888133,4.19514972 C4.67366542,4.19270831 4.68804258,4.19162325 4.70201283,4.19162325 C4.96812611,4.19162325 5.05900067,4.60910372 4.77227108,4.65616861 C4.62280278,4.68031142 4.47143558,4.68926322 4.31898333,4.68926322 C3.88644753,4.68926322 3.44482425,4.61737736 3.01025394,4.61737736 C2.97322594,4.61737736 2.93619794,4.61791989 2.89930558,4.61900497 C2.70914717,4.88376192 2.53363719,5.15964083 2.36789283,5.44135197 C2.94854061,5.50713431 3.50992842,5.71994356 4.09478086,5.73133678 C4.39520947,5.73798283 4.41460508,6.20524086 4.11621097,6.20524086 C4.11417647,6.20524086 4.11187069,6.20510522 4.10970056,6.20510522 C3.43397356,6.19262692 2.79174808,5.91145831 2.11493603,5.89653861 C1.96994361,6.17323133 1.83485247,6.45657008 1.71440978,6.74709742 C2.32652458,6.78833006 2.86648225,6.92003036 3.45879456,7.08075628 C3.76397033,7.16403536 3.65681972,7.54286022 3.38175461,7.54286022 C3.35381408,7.54286022 3.32424594,7.53906247 3.29318581,7.53051756 C2.70941844,7.37250431 2.18153217,7.23754881 1.56643342,7.20893011 C1.55571836,7.20865883 1.54920794,7.20391167 1.53957794,7.20336914 C1.44232856,7.47138131 1.35335286,7.74305556 1.27766928,8.02042644 C1.585829,8.05677628 1.824273,8.16040039 2.10557728,8.29739042 C2.34673397,8.41322158 2.63400611,8.48158094 2.89686417,8.55346681 C3.21384008,8.64000108 3.10139975,9.01516386 2.81697592,9.01516386 C2.78672961,9.01516386 2.75444878,9.01082358 2.720676,9.0016005 C2.46799044,8.93269858 2.21991644,8.85457358 1.97333442,8.77102325 C1.68416342,8.67445208 1.48681642,8.50762264 1.16644964,8.4821235 C1.10256617,8.7672255 1.04654947,9.05422636 1.00626625,9.34692383 C1.24525281,9.490153 1.49617511,9.61547853 1.76188147,9.701199 C2.02202686,9.78230794 2.29193789,9.94859483 2.55262583,10.0028483 C2.83026797,10.0600857 2.79947914,10.47838 2.54787867,10.47838 C2.53133136,10.47838 2.51369897,10.4764811 2.49511717,10.4726834 C2.1799045,10.4078505 1.88327364,10.2448188 1.58013236,10.1382107 C1.36149086,10.0611708 1.15383569,9.96487089 0.952284056,9.85690647 C0.948621944,9.89813911 0.942789694,9.93882922 0.9395345,9.98060439 C0.974392361,10.1132541 1.080051,10.3682454 1.41208225,10.6658257 C2.07967122,11.2628852 3.82229275,12.1401639 8.29413519,12.1401639 C9.25632053,12.1401639 10.3450521,12.0994737 11.5763346,12.0067003 C18.4939236,11.4850532 20.7237413,9.99335394 21.4371745,9.14944119 C21.7414008,8.79028319 21.813151,8.50925022 21.8284776,8.37253147 C21.0579427,5.09792753 18.7665473,2.39691842 15.7348633,1.07462567 L15.9738498,0.267740889 L15.9738498,0.267740889 Z M8.28667533,12.9770237 C8.187934,12.9770237 8.09054903,12.9764811 7.99424911,12.9756673 C4.34082028,12.942844 2.37467444,12.3227268 1.31632486,11.6366916 C1.23236761,11.6152615 1.14746092,11.5962728 1.05970594,11.5846083 C1.01657444,11.5783691 0.977511944,11.5713162 0.9375,11.5645345 C0.948621972,11.7169868 0.962727861,11.8699816 0.979953333,12.0221625 C1.02823894,12.1624078 1.14583333,12.3875597 1.43256294,12.6436361 C2.10489911,13.2458496 3.86623808,14.1296387 8.40766061,14.1296387 C9.38028972,14.1296387 10.4812283,14.0889486 11.7253961,13.9964464 C18.7413194,13.4734429 20.9925673,11.9752333 21.7100694,11.1283366 C22.0136176,10.7697211 22.081977,10.490587 22.0963542,10.3573948 C22.0883518,10.1428223 22.0722114,9.93069119 22.0511881,9.71937392 C21.0396321,10.8871799 18.401964,12.3316786 11.6392686,12.8411187 C10.3918457,12.9352485 9.27897136,12.9770237 8.28667533,12.9770237 L8.28667533,12.9770237 Z M8.40264214,14.9667698 C8.30091689,14.9667698 8.20014106,14.9662272 8.10085719,14.9654134 C5.40513781,14.9409994 3.61979167,14.6032715 2.43381075,14.1556803 C2.03993053,14.0997993 1.68728297,13.9004178 1.32337781,13.7392849 C1.33517794,13.7799751 1.34616425,13.8228353 1.35823567,13.8635254 L1.37396917,13.8635254 C1.37424044,13.8689507 1.37803817,13.9172363 1.40109589,13.9942763 C1.40380856,14.0034993 1.40747067,14.0121799 1.41018333,14.021403 C1.45968964,14.1668023 1.57918289,14.3971083 1.87011714,14.6583388 C2.53133133,15.2502441 4.25170894,16.119656 8.64176428,16.119656 C9.59228511,16.119656 10.6681315,16.0786947 11.8853081,15.9856499 C18.8026258,15.4569499 20.9760199,13.9378526 21.6564941,13.0792914 C21.8648274,12.8161621 21.9482421,12.5969781 21.9828287,12.4526638 C22.0073784,12.2969564 22.0292154,12.1407064 22.0471191,11.9828288 C20.8555772,13.0947537 18.0985514,14.3604872 11.7876519,14.8311361 C10.529107,14.9249946 9.40551758,14.9667698 8.40264214,14.9667698 L8.40264214,14.9667698 Z M8.64474828,16.9565158 C8.54587133,16.9565158 8.44807944,16.9559733 8.35164389,16.9551595 C5.41219078,16.9285753 3.57883031,16.5121799 2.43462458,15.9886339 C2.37196183,15.9772407 2.30984158,15.9631348 2.247857,15.9498427 C2.4842665,16.3743761 2.74861656,16.7804633 3.03968642,17.1670193 C3.70442708,17.4119737 4.42287869,17.4616157 5.10118272,17.6504178 C5.35698783,17.7223036 5.29012044,18.0971951 5.06049261,18.0971951 C5.04041883,18.0971951 5.01912433,18.0944824 4.99674478,18.0882433 C4.51144747,17.9517958 4.0138075,17.8782823 3.52566189,17.7651638 C5.44935439,19.9683973 8.26700847,21.3743761 11.4149306,21.4020453 C11.4474826,21.4023166 11.4796278,21.4025879 11.5120443,21.4025879 C16.0979546,21.4025879 20.0219727,18.4682888 21.4921061,14.3675401 C20.1254612,15.3671603 17.3910862,16.4039442 11.9493273,16.8206109 C10.7199436,16.9144694 9.62348089,16.9565158 8.64474828,16.9565158 L8.64474828,16.9565158 Z M15.929362,0.173339833 L15.9072537,0.248074 L15.6682671,1.05495878 L15.650906,1.11368817 L15.7070584,1.13823786 C18.7372504,2.45985244 20.9983995,5.16506619 21.7580837,8.37632922 C21.7409939,8.50816517 21.6687012,8.76858183 21.3841417,9.10468208 C20.6784397,9.93937175 18.4650336,11.4175076 11.5711805,11.9375271 C10.3979492,12.0259603 9.295383,12.0707194 8.29413517,12.0707194 C3.76329206,12.0707194 2.06651472,11.158176 1.45833331,10.6140137 C1.14868161,10.3365072 1.04465058,10.0980632 1.00979272,9.974094 C1.010064,9.97138133 1.01019961,9.96866867 1.01047089,9.96595597 C1.20022242,10.0630697 1.37980139,10.1411947 1.55707461,10.2035862 C1.66368269,10.2412924 1.77232525,10.2871365 1.877577,10.3313531 C2.07153317,10.4132759 2.27213539,10.49764 2.48114689,10.5407715 C2.50366208,10.5453831 2.52617728,10.5478244 2.54787867,10.5478244 C2.69042967,10.5478244 2.80083547,10.4404026 2.816569,10.286594 C2.83108181,10.1449924 2.75892469,9.9746365 2.56659614,9.93476019 C2.42499458,9.90546331 2.27416992,9.83818903 2.12822808,9.77335611 C2.01497397,9.72290039 1.89778647,9.67081706 1.78249783,9.63500975 C1.56032986,9.56312389 1.33029514,9.45705836 1.08140733,9.31084525 C1.11477322,9.07836911 1.15953233,8.83639864 1.22070311,8.55807833 C1.38359917,8.58167858 1.51557072,8.64461261 1.65445961,8.71080186 C1.74682614,8.75501844 1.84231225,8.80059136 1.95136175,8.83694119 C2.22493489,8.92971464 2.47070311,9.00539822 2.70236544,9.06860353 C2.74102106,9.07918294 2.779541,9.08460831 2.81697592,9.08460831 C3.01215278,9.08460831 3.13680014,8.94083661 3.15497506,8.80547419 C3.17003039,8.69262697 3.11631944,8.54153106 2.91517472,8.48646378 L2.79988608,8.45526803 C2.5720215,8.39423286 2.33629017,8.33102758 2.13568794,8.23472767 C1.88693578,8.11374242 1.65486656,8.00876194 1.36583117,7.9626465 C1.42727322,7.74522572 1.49970161,7.52048069 1.58596464,7.27932403 C2.17095269,7.30902781 2.67659506,7.43557403 3.27501086,7.59752064 C3.31095378,7.60728625 3.34689672,7.61230472 3.38175456,7.61230472 C3.57069228,7.61230472 3.69194878,7.46853303 3.70998806,7.33317061 C3.73019747,7.18329539 3.63864475,7.05783425 3.47710503,7.01375331 C2.94365775,6.86903217 2.41441514,6.73516172 1.81586369,6.68511289 C1.91582572,6.45060225 2.02785914,6.21459964 2.15630422,5.96733944 C2.47219506,5.97968211 2.78781464,6.05021161 3.09366858,6.118571 C3.422309,6.19208444 3.762207,6.26817494 4.10847978,6.27454972 L4.10861542,6.27454972 C4.30894636,6.27454972 4.39819333,6.12521703 4.39982092,5.98659942 C4.40144853,5.83238392 4.29565425,5.66623267 4.09627275,5.66189239 C3.76546219,5.65551761 3.43343094,5.58119036 3.11225039,5.50944014 C2.90662972,5.46359594 2.69490556,5.41625981 2.48155378,5.38587786 C2.63509111,5.12953019 2.78428817,4.89990239 2.93565533,4.68750003 C2.96047631,4.68709314 2.98543289,4.68682186 3.01025386,4.68682186 C3.22496197,4.68682186 3.44631614,4.70499678 3.66034608,4.72249353 C3.87654617,4.74026153 4.10007047,4.75870772 4.31898325,4.75870772 C4.49001733,4.75870772 4.64179142,4.74758575 4.78339297,4.72466367 C4.93570958,4.69970706 5.02970375,4.58007817 5.01722544,4.42694775 C5.00515406,4.27924267 4.89067922,4.12217886 4.70201278,4.12217886 C4.68451603,4.12217886 4.66647675,4.12353519 4.64789494,4.12665478 C4.58346894,4.13723419 4.51470267,4.14238828 4.43752711,4.14238828 C4.29958767,4.14238828 4.15568033,4.12556969 4.01652017,4.10929367 C3.93215603,4.09939242 3.84874131,4.08976242 3.76736108,4.08352328 C3.64664711,4.07484272 3.53108722,4.06901047 3.41742619,4.06602653 C3.62223306,3.821479 3.84440103,3.57950853 4.07958983,3.34486225 C4.13140189,3.34174267 4.18348522,3.34052197 4.23556856,3.34052197 C4.43481444,3.34052197 4.64002819,3.3603245 4.83859589,3.37944883 C5.03946936,3.39884444 5.24712453,3.41891822 5.45125322,3.41891822 C5.57915578,3.41891822 5.69444442,3.41118711 5.80390078,3.39531797 C5.98212344,3.37009011 6.05278858,3.22835292 6.04370111,3.09909403 C6.03325731,2.95043953 5.91973192,2.79242628 5.72984478,2.79242628 C5.71370436,2.79242628 5.69715706,2.79364697 5.68006722,2.79608839 C5.62567811,2.80395514 5.56830506,2.80761725 5.50509978,2.80761725 C5.38519961,2.80761725 5.2663845,2.79418953 5.14038081,2.77994797 C5.01546219,2.76584208 4.88620328,2.75119364 4.75667311,2.75119364 L4.72574864,2.75146492 C5.03851992,2.48670797 5.35997172,2.24392369 5.68372933,2.02840178 L5.73798281,1.99232322 L5.70529514,1.93576389 L5.28523764,1.21025933 L5.24834528,1.14664714 L5.18690322,1.18720161 C2.22086589,3.14412436 0.349934889,6.28051758 0.0461154444,9.79966906 L0.017768,9.79885525 L0.0151909722,9.86802842 C0.0146484444,9.88403319 0.0138346389,9.94316947 0.0275336389,10.0367567 C0.0112575833,10.2811686 0.00230577778,10.4970974 0.000406916667,10.6967502 C-0.00271266667,11.0762532 0.0124783056,11.4546712 0.0455729444,11.8225098 L0.0391981389,11.8566894 C0.0383843333,11.8808323 0.0368923611,12.0113118 0.0899251389,12.2058105 C0.782606333,17.9094781 5.64860028,22.2568088 11.4067926,22.3088921 L11.5104167,22.3094347 C14.2593045,22.3094347 16.9227431,21.3195801 19.0098742,19.5227051 C21.077474,17.7426486 22.4503581,15.2890354 22.875841,12.6137966 C22.8940159,12.5275336 22.9059516,12.439643 22.9106988,12.3563639 C22.9790582,11.8537055 23.0147299,11.3762749 23.0192058,10.9026421 C23.0205621,10.7227919 23.0164931,10.5266656 23.0067275,10.30287 C23.0080838,10.2252875 23.0019803,10.1737467 22.9999458,10.1566569 C22.9652236,9.52026367 22.876926,8.88224283 22.7381728,8.26429578 C22.7380371,8.21302625 22.7327474,8.170166 22.7307129,8.15470378 L22.7214898,8.08417428 L22.6953125,8.08824328 C21.8416341,4.5703125 19.3432617,1.62611219 16.0009766,0.203857417 L15.929362,0.173339833 L15.929362,0.173339833 Z M8.28667533,13.0464681 C9.3207465,13.0464681 10.4504394,13.0006239 11.6445584,12.9102919 C18.2516818,12.4125163 20.9244791,11.0146756 21.9966634,9.88294814 C22.0113118,10.0516764 22.0213487,10.2090115 22.0269097,10.3601074 C22.0136176,10.4767524 21.9472927,10.7404242 21.6570366,11.0835775 C20.9468587,11.9217936 18.7113444,13.4061686 11.7202419,13.9272732 C10.5343967,14.0154351 9.41975908,14.0601942 8.40766056,14.0601942 C3.80506725,14.0601942 2.09092878,13.1403266 1.47894961,12.591824 C1.20985239,12.3517524 1.09619136,12.142334 1.04804142,12.0067003 C1.03461369,11.8873427 1.02322044,11.7674425 1.01359047,11.6478136 C1.02539061,11.6497124 1.03732636,11.6516113 1.04980467,11.6532389 C1.12087672,11.6627333 1.19466144,11.677653 1.28824867,11.7012532 C2.62830944,12.5649685 4.88416881,13.0171712 7.99357094,13.0451117 C8.09014214,13.0459256 8.18779839,13.0464681 8.28667533,13.0464681 L8.28667533,13.0464681 Z M8.40264214,15.0362142 C9.44390192,15.0362142 10.5845812,14.99037 11.792806,14.9003092 C18.0319553,14.4350857 20.76199,13.178304 21.955702,12.157525 C21.943495,12.2486708 21.929796,12.3428006 21.9141981,12.4418132 C21.8832736,12.5701226 21.8029785,12.782525 21.602105,13.0361599 C20.9286838,13.8857693 18.7702094,15.3896756 11.8800184,15.9164768 C10.7207574,16.0051812 9.631212,16.0502116 8.64176431,16.0502116 C4.19270831,16.0502116 2.51844617,15.1458062 1.91650389,14.6065267 C1.63831922,14.3569607 1.52330186,14.1383192 1.47596569,13.9991591 L1.47108289,13.9845106 C1.4534505,13.9264594 1.44680447,13.8882107 1.44449869,13.8708496 C1.47081164,13.8830566 1.49698892,13.8952637 1.52316622,13.9074707 C1.80596244,14.0398492 2.09825303,14.1765679 2.41644964,14.2232259 C3.78974067,14.7399902 5.70203992,15.0131565 8.10017903,15.0348579 C8.19973417,15.0356717 8.30064561,15.0362142 8.40264214,15.0362142 L8.40264214,15.0362142 Z M8.64474828,17.0259603 C9.65888131,17.0259603 10.7724338,16.9801161 11.954617,16.8897841 C16.3987901,16.5496148 19.5572917,15.7637533 21.3495551,14.5525445 C19.7946506,18.6174859 15.8695475,21.3331434 11.5120442,21.3331434 L11.4156087,21.3326009 C8.48754881,21.3068305 5.69539386,20.0511339 3.72043183,17.8793674 C3.84114581,17.9048665 3.96240233,17.9290093 4.08365883,17.9531521 C4.37866208,18.0117459 4.68370222,18.0722385 4.97789169,18.154975 C5.0061035,18.1628418 5.03377278,18.1666395 5.06049261,18.1666395 C5.1993815,18.1666395 5.31073675,18.0619303 5.33148869,17.9121908 C5.34925669,17.7830675 5.29066294,17.631429 5.11990014,17.583686 C4.83439125,17.5039334 4.53830292,17.4483236 4.25211586,17.3943414 C3.86244031,17.3210992 3.45974389,17.2454156 3.08281789,17.1089681 C2.82972544,16.7712402 2.59521481,16.41588 2.38430444,16.049669 C2.39407006,16.0515679 2.40383569,16.0534668 2.41360133,16.0553656 C3.77305772,16.6752116 5.77067056,17.0012749 8.35096569,17.0246039 C8.44767253,17.0254177 8.54573567,17.0259603 8.64474828,17.0259603 L8.64474828,17.0259603 Z"/>
    </g>
    <g transform="translate(6.944 6.667)">
      <path d="M1.93074544,2.28949653 C1.67887369,2.28949653 1.42632378,2.23592122 1.18191189,2.18424481 C1.080051,2.16267906 0.978190111,2.14097767 0.876057944,2.12307403 L0.860053167,2.12036136 L0.679117833,1.80759008 L0.651177306,1.78643122 L0.206434472,1.0191515 L0.243326833,1.00409617 C1.61946617,0.442437083 3.07332358,0.157742 4.56461589,0.157742 L4.66756186,0.158148889 C5.41422528,0.164930583 6.16739911,0.2460395 6.90619575,0.399305583 L6.94308811,0.407036694 L6.68484158,1.28011069 L6.65378147,1.27387156 C5.99093967,1.14081492 5.31995986,1.07042103 4.65955947,1.06486006 L4.56502281,1.06445317 C3.97135419,1.06445317 3.37361656,1.11531581 2.78618708,1.21568472 C2.89794925,1.24498161 3.01215281,1.27048072 3.12622072,1.27129453 C3.27243383,1.2727865 3.35055883,1.39322919 3.35001631,1.50580517 C3.34960942,1.60156256 3.28803172,1.7045085 3.15375436,1.7045085 C2.90351022,1.702474 2.65814889,1.63981122 2.42078994,1.57918297 C2.20676,1.52452261 1.98540583,1.468099 1.76554364,1.45724831 L1.75089519,1.41872833 L1.73353408,1.44978844 C1.50634767,1.51652022 1.26478408,1.59396706 1.02376303,1.68009444 C1.06214736,1.68511289 1.10066733,1.68945317 1.13905167,1.69297964 C1.25623917,1.70369469 1.37234161,1.73014328 1.48451064,1.75577803 C1.62543403,1.78805883 1.77110461,1.82142472 1.91501194,1.82142472 C1.91501194,1.82142472 1.94444444,1.82088219 1.94458008,1.82088219 C2.10951064,1.82088219 2.19523114,1.94946292 2.19699436,2.07058381 C2.19835069,2.17610681 2.13487414,2.28447811 1.98974608,2.28854714 L1.93074544,2.28949653 Z"/>
      <path d="M4.56461589,0.192464194 C4.59879558,0.192464194 4.63297528,0.192599833 4.66729058,0.192871083 C5.43117947,0.199788389 6.17743597,0.283610028 6.89914281,0.433349611 L6.66056317,1.23982747 C6.01264108,1.10975478 5.34437394,1.03597006 4.65983075,1.03013781 C4.62822811,1.02986653 4.59662544,1.02973092 4.56488717,1.02973092 C3.90340169,1.02973092 3.25534397,1.09185114 2.62708878,1.20876736 C2.79215497,1.25230578 2.95600044,1.304796 3.12594944,1.30601672 C3.35978192,1.3083225 3.38636611,1.66978625 3.15375436,1.66978625 C3.15294056,1.66978625 3.15199111,1.66978625 3.15117733,1.66978625 C2.68554692,1.66585286 2.23470056,1.44558378 1.76730689,1.42252606 C1.75767689,1.42211917 1.75021706,1.4179145 1.74112958,1.41588 C1.44938153,1.49698894 1.16292319,1.59044056 0.881618944,1.69501411 C0.966525639,1.70789931 1.05116106,1.71983508 1.13593208,1.72756619 C1.39865453,1.75143772 1.65256078,1.85614692 1.91487631,1.85614692 C1.92504883,1.85614692 1.93522136,1.85587564 1.94539389,1.85560439 C1.94824219,1.85546875 1.95095486,1.85546875 1.95366756,1.85546875 C2.20377606,1.85546875 2.24514433,2.24677192 1.98879667,2.25382486 C1.96940106,2.25450303 1.95014106,2.25477431 1.93074544,2.25477431 C1.57972547,2.25477431 1.232232,2.15033636 0.882025833,2.08889431 L0.694308833,1.76445853 C0.689426028,1.76635739 0.685221389,1.76730683 0.681152361,1.76907008 L0.256483306,1.03624131 C1.58799914,0.492757167 3.04226344,0.192464194 4.56461589,0.192464194 L4.56461589,0.192464194 Z M4.56461589,0.12301975 C3.06871203,0.12301975 1.61051433,0.408664278 0.230306,0.971950944 L0.156385639,1.00206161 L0.196397583,1.07109917 L0.621066639,1.80392794 L0.65212675,1.85736761 L0.664605056,1.85194228 L0.821940111,2.12361653 L0.838080528,2.15169269 L0.869954444,2.15725367 C0.971815333,2.17515731 1.07326933,2.19672306 1.17472333,2.21815319 C1.42076283,2.27037217 1.67521161,2.32421872 1.93074547,2.32421872 C1.95095489,2.32421872 1.97102867,2.32394744 1.99110247,2.32326928 C2.13460292,2.31920028 2.2336155,2.21516922 2.23171661,2.07004119 C2.22981775,1.932373 2.13175458,1.78602428 1.95380319,1.78602428 L1.91487633,1.78670244 C1.775038,1.78670244 1.63764108,1.75523544 1.49224178,1.72200517 C1.39092342,1.69881181 1.28648547,1.67494028 1.18001306,1.66232633 C1.366645,1.5985785 1.55422639,1.54039167 1.74045142,1.48817269 C1.74750436,1.49007156 1.75537111,1.49156353 1.76432294,1.49197044 C1.98025178,1.50254986 2.19984269,1.55856658 2.41224503,1.61282006 C2.65150283,1.67399083 2.89903431,1.7370605 3.15063478,1.73923064 C3.28911678,1.73923064 3.38406033,1.64333764 3.3847385,1.50594069 C3.38541667,1.37654617 3.29522028,1.23819981 3.12662761,1.23657219 C3.07345922,1.23616531 3.02083333,1.23046867 2.96820747,1.22138122 C3.49677192,1.14013664 4.03252497,1.09917528 4.56488717,1.09917528 L4.65915258,1.09958217 C5.31751847,1.10514314 5.98619253,1.17526575 6.64686417,1.3079155 L6.70912003,1.32039381 L6.72715931,1.25949428 L6.96573894,0.453016417 L6.98716906,0.380723667 L6.91324869,0.365397056 C6.17228189,0.211588472 5.41680231,0.13020825 4.66796875,0.123426556 L4.56461589,0.12301975 L4.56461589,0.12301975 Z"/>
    </g>
    <g transform="translate(1.389 1.389)">
      <path d="M6.18272569,11.0068088 C5.72102864,11.0068088 5.372857,10.8273654 5.25132922,10.5269368 C5.10416667,10.1657443 5.32714844,9.69740125 5.80688478,9.35424803 L2.24446617,3.20054794 C2.09187828,3.24544269 1.95231122,3.26727972 1.81857642,3.26727972 L1.81857642,3.26727972 C1.39797636,3.26361761 1.01399742,3.10058592 0.726589667,2.80815972 C0.439317528,2.5157335 0.283203167,2.12904189 0.286865278,1.71942817 C0.294460778,0.880533861 0.982666056,0.198160806 1.82101783,0.198160806 C2.68120664,0.205756306 3.36330842,0.900336361 3.35584856,1.74655492 C3.35272897,2.09486219 3.23065867,2.42472331 3.00265844,2.70182292 L6.64130319,8.98681642 C6.78344731,8.95629883 6.92382814,8.94070097 7.05905492,8.94070097 C7.51939564,8.94070097 7.86648222,9.11892364 7.98733183,9.417589 C8.08308922,9.65332033 8.02829319,9.93245444 7.83298069,10.2035862 C7.64119467,10.4699707 7.33574761,10.697564 6.97279189,10.8447266 C6.7111545,10.9507921 6.43798828,11.0068088 6.18272569,11.0068088 Z"/>
      <path d="M1.82101781,0.232883028 C1.82562936,0.232883028 1.83024089,0.232883028 1.83485244,0.232883028 C2.66330297,0.240342889 3.32845053,0.91796875 3.32112631,1.74628364 C3.31787108,2.11113825 3.17938911,2.43991428 2.96047636,2.69816081 L6.62394208,9.02628581 C6.77395294,8.99210611 6.92057294,8.97542317 7.05905492,8.97542317 C7.48684356,8.97542317 7.83542211,9.13479275 7.95518664,9.43060981 C8.14358183,9.89434136 7.69775392,10.5133735 6.95977106,10.8125814 C6.6933865,10.9205458 6.42537436,10.9720866 6.18272569,10.9720866 C5.75330947,10.9720866 5.40351019,10.8105469 5.28347439,10.513916 C5.13481989,10.1487902 5.38289389,9.68980578 5.85286458,9.36428494 L2.26074219,3.15931533 C2.11981881,3.20285375 1.97333442,3.23255753 1.81857639,3.23255753 C1.81518556,3.23255753 1.81165908,3.23255753 1.80826822,3.23255753 C0.979682056,3.22509767 0.314127611,2.54760744 0.321587444,1.71969944 C0.329047306,0.895724833 0.998942056,0.232883028 1.82101781,0.232883028 L1.82101781,0.232883028 Z M1.82101781,0.163438583 C0.963677306,0.163438583 0.259874139,0.861273861 0.252143028,1.71902128 C0.248345278,2.13799372 0.40812175,2.53350153 0.701904306,2.83243817 C0.995686861,3.13151044 1.38834636,3.29820422 1.80759008,3.30200197 C1.80772572,3.30200197 1.80799697,3.30200197 1.80813261,3.30200197 C1.9470215,3.30200197 2.08238392,3.28206383 2.22791886,3.24137372 L5.76117625,9.34448244 C5.28578019,9.69563806 5.06849506,10.1702203 5.21918406,10.5400933 C5.34613717,10.8540853 5.70638022,11.0415311 6.18272572,11.0415311 C6.44232858,11.0415311 6.72010636,10.9845649 6.98581275,10.8770074 C7.35473636,10.7274034 7.66560875,10.4954698 7.86119253,10.2239312 C8.06369361,9.94262697 8.11998158,9.65169272 8.01947703,9.40443253 C7.89320208,9.09233942 7.53417972,8.90597875 7.05905494,8.90597875 C6.9292535,8.90597875 6.79484053,8.91994903 6.65866433,8.94775392 L3.04470486,2.70507811 C3.26809353,2.42567272 3.38745117,2.09540472 3.39057075,1.74696178 C3.39816625,0.881618889 2.70060222,0.171169667 1.83553061,0.163438556 L1.83512372,0.163438556 L1.82101781,0.163438556 L1.82101781,0.163438583 Z"/>
    </g>
    <g transform="translate(12.5)">
      <path d="M1.94281683,10.7972548 C1.81776258,10.7972548 1.68999567,10.7859972 1.56290689,10.7637533 C1.07842339,10.6796604 0.661078556,10.4471843 0.446370444,10.1418728 C0.327284083,9.972602 0.280354833,9.79193794 0.310601139,9.61941189 C0.380181222,9.21630858 0.868869361,8.93486869 1.49902344,8.93486869 L1.50892469,8.93486869 L3.27596028,2.75390625 C2.85780164,2.47368706 2.61121961,2.00981989 2.61501736,1.50797525 C2.62261283,0.6955295 3.28965928,0.0347222222 4.10224067,0.0347222222 C4.935574,0.0421820833 5.59678819,0.715060778 5.58932833,1.53455947 C5.58254664,2.32679581 4.93828667,2.98068578 4.14767794,3.00442167 L2.39691839,9.126926 C2.90662975,9.35845269 3.193495,9.74216039 3.12961153,10.1105414 C3.05894639,10.5148654 2.57093642,10.7972548 1.94281683,10.7972548 Z"/>
      <path d="M4.10224067,0.0694444444 C4.10644531,0.0694444444 4.11078558,0.0694444444 4.11499022,0.0694444444 C4.91726344,0.0767686667 5.56193033,0.73228625 5.55460611,1.53428819 C5.54782442,2.32611761 4.90844725,2.96047633 4.121365,2.97024197 L2.35527883,9.14632161 C2.84735783,9.36116536 3.15917967,9.73673503 3.09543183,10.1045736 C3.02598739,10.5018446 2.54136825,10.7625325 1.94281681,10.7625325 C1.82210283,10.7625325 1.69650603,10.7518175 1.56887475,10.7295736 C0.809326139,10.5977376 0.261230444,10.1026747 0.344780778,9.62537975 C0.413547056,9.22729489 0.900471972,8.96959092 1.49902339,8.96959092 C1.51095917,8.96959092 1.52303056,8.96959092 1.53510194,8.96986219 L3.31637908,2.73898656 C2.91259761,2.47802736 2.64580617,2.02487522 2.64973956,1.50824653 C2.65719944,0.7107205 3.30579969,0.0694444444 4.10224067,0.0694444444 L4.10224067,0.0694444444 Z M4.10224067,0 C3.27080619,0 2.58802625,0.676269528 2.58029514,1.50756836 C2.57649739,2.01280383 2.82050239,2.48033311 3.23567708,2.76855469 L1.48274739,8.9001465 C0.843234583,8.90502931 0.348307278,9.196913 0.276421444,9.61357967 C0.244547528,9.79519317 0.293511278,9.98480906 0.418023,10.161811 C0.637885194,10.4745823 1.06363933,10.7123481 1.55693903,10.797933 C1.68592667,10.8204482 1.81586372,10.831977 1.94281686,10.831977 C2.58816192,10.831977 3.09027781,10.5377876 3.16379125,10.1165094 C3.22930231,9.73863392 2.94596356,9.34746639 2.43855797,9.10780167 L4.17412653,3.03819444 C4.97151694,3.00089519 5.61713325,2.33710394 5.62405058,1.53483072 C5.62771269,1.12847222 5.47281903,0.745035806 5.18798831,0.455186611 C4.90302192,0.165337444 4.52216256,0.00366211111 4.11566839,0 L4.1152615,0 L4.10224067,0 L4.10224067,0 Z"/>
    </g>
  </g>
</svg>
