<svg xmlns="http://www.w3.org/2000/svg" width="60" height="60" viewBox="0 0 60 60">
  <g fill="#FFF" transform="translate(14 15)">
    <circle cx="24.31" cy="22.896" r="5.938"/>
    <path d="M20.3873077,12.2584615 C22.8876923,11.3203846 24.5238462,8.76923077 24.1926923,5.99769231 C23.8026923,2.74153846 20.8488462,0.417692308 17.5938462,0.806538462 C14.5615385,1.16884615 12.3392308,3.75692308 12.3623077,6.73961538 L12.3611538,6.73846154 C12.3530769,8.99538462 11.6907692,11.2753846 10.3153846,13.275 C8.91576923,15.3115385 6.98192308,16.7607692 4.83346154,17.5673077 L4.83461538,17.5696154 C2.39538462,18.5411538 0.813461538,21.0565385 1.13884615,23.7888462 C1.52769231,27.0438462 4.48269231,29.3676923 7.73884615,28.9776923 C10.7307692,28.6188462 12.9334615,26.0953846 12.9680769,23.1623077 L12.9703846,23.1646154 C12.9542308,20.8684615 13.6165385,18.5469231 15.0161538,16.5103846 C16.3903846,14.5096154 18.2815385,13.0730769 20.3884615,12.2584615 L20.3873077,12.2584615 Z"/>
  </g>
</svg>
