<svg xmlns="http://www.w3.org/2000/svg" width="60" height="60" viewBox="0 0 60 60">
  <path fill="#FFF" d="M35.4901575,26.6811594 C33.9251968,27.8405797 33.6003937,29.8985508 33.5708662,31.2898551 C31.0905512,28.4492754 38.1771655,20.1304348 30.1161418,15 C35.1062992,21.3478261 23,27.6086957 23,36.9710145 C23,40.652174 25.3326772,43.8695653 30.4704724,45 C35.4901575,43.9565219 38,40.652174 38,36.9710145 C37.9704725,31.4927537 34.4862206,29.6666667 35.4901575,26.6811594 L35.4901575,26.6811594 Z M30.4704724,41.9855073 C27.7244094,41.9855073 25.5098425,39.8115943 25.5098425,37.1159421 C25.5098425,34.4202899 27.7244094,32.2463768 30.4704724,32.2463768 C33.2165354,32.2463768 35.4311023,34.4202899 35.4311023,37.1159421 C35.4311023,39.8115943 33.1870079,41.9855073 30.4704724,41.9855073 L30.4704724,41.9855073 Z"/>
</svg>
