<svg xmlns="http://www.w3.org/2000/svg" width="60" height="60" viewBox="0 0 60 60">
  <g fill="none" fill-rule="evenodd" transform="translate(5 5)">
    <rect width="48" height="48" x="1" y="1" stroke="#FFFFFF" stroke-opacity=".2" stroke-width="2" opacity="0" rx="4"/>
    <path fill="#FFFFFF" d="M33.4756671,25.8234218 C29.8719675,25.8234218 26.9511076,28.772926 26.9511076,32.4114823 C26.9511076,36.0502672 29.8719675,39 33.4756671,39 C37.0789138,39 40,36.0502672 40,32.4114823 C40,28.772926 37.0789138,25.8234218 33.4756671,25.8234218 L33.4756671,25.8234218 Z M16.524446,25.8238791 C12.9211995,25.8238791 10,28.772926 10,32.4118252 C10,36.0502672 12.9211995,39 16.524446,39 C20.1279193,39 23.0492321,36.0502672 23.0492321,32.4118252 C23.0492321,28.772926 20.1279193,25.8238791 16.524446,25.8238791 L16.524446,25.8238791 Z M31.5242763,17.5880605 C31.5242763,21.2266168 28.6034164,24.1768068 25.0001697,24.1768068 C21.3965836,24.1768068 18.4756105,21.2266168 18.4756105,17.5880605 C18.4756105,13.9497328 21.3965836,11 25.0001697,11 C28.6034164,11 31.5242763,13.9497328 31.5242763,17.5880605 L31.5242763,17.5880605 Z"/>
  </g>
</svg>
