<svg xmlns="http://www.w3.org/2000/svg" width="60" height="60" viewBox="0 0 60 60">
  <g fill="#FFF" transform="translate(15 15)">
    <path d="M19.3040625,10.7221875 C18.1553906,9.57679687 16.6260937,8.94585937 15,8.94585937 C13.3739062,8.94585937 11.8453125,9.57679687 10.6957031,10.7219531 C9.5484375,11.865 8.91679688,13.3844531 8.91679688,15 C8.91679688,16.6155469 9.54867188,18.1345312 10.6957031,19.2773438 C11.8453125,20.4234375 13.3734375,21.0536719 15,21.0536719 C16.6265625,21.0536719 18.1546875,20.4234375 19.3045312,19.2780469 C20.4517969,18.135 21.0834375,16.6157813 21.0834375,15.0004687 C21.0834375,13.3846875 20.4515625,11.8652344 19.3045312,10.7221875 L19.3040625,10.7221875 Z"/>
    <path d="M27.4183594,23.2340625 C31.2827344,17.4607031 30.6588281,9.58664063 25.5459375,4.49226563 C19.7214844,-1.31085937 10.2785156,-1.31085937 4.45429687,4.49226563 C-1.36992188,10.2953906 -1.36992188,19.7046094 4.45429687,25.5079688 C9.56742188,30.6023437 17.469375,31.2250781 23.2645312,27.3735938 L20.4180469,23.7553125 C18.8055469,24.7514062 16.9453125,25.2867188 15,25.2867188 C12.2460938,25.2867188 9.65625,24.2179688 7.70765625,22.2766406 C5.75765625,20.3336719 4.68351562,17.7496875 4.68351562,15.0007031 C4.68351562,12.2514844 5.75742187,9.66726563 7.70765625,7.72382813 C9.65648437,5.78179688 12.2460938,4.71304688 15,4.71304688 C17.7539062,4.71304688 20.34375,5.78179688 22.2923438,7.72289063 C24.2428125,9.66632813 25.3167187,12.2510156 25.3167187,15.0002344 C25.31625,16.9359375 24.7811719,18.7898438 23.7846094,20.3953125 L27.4183594,23.2340625 L27.4183594,23.2340625 Z"/>
  </g>
</svg>
