<svg xmlns="http://www.w3.org/2000/svg" width="60" height="60" viewBox="0 0 60 60">
  <g fill="#FFF" transform="translate(15 21)">
    <path d="M9.70588529,17.8559218 C7.89418824,17.3967428 6.88486078,15.9359623 6.88166863,13.7684938 C6.88064902,13.0755335 6.93007647,12.7434982 7.1006,12.2977923 C7.51860196,11.205248 8.62528137,10.3809982 10.0815422,10.0776027 C10.8061696,9.92663344 11.0294147,9.76453996 11.0294147,9.38936327 C11.0294147,9.27163929 11.1156598,8.92105001 11.2210618,8.61027454 C11.6999245,7.19845399 12.5865324,6.02151156 13.5339245,5.54005531 C14.5254539,5.03616272 15.026052,4.92252703 16.2254931,4.92905973 C17.9289441,4.93833819 18.7787971,5.31315885 19.9674441,6.57940614 L20.6211598,7.27580327 L21.2067971,7.07022338 C24.0411892,6.07523112 26.8667971,7.76897443 27.0945618,10.5995102 L27.1568657,11.3738374 L27.7150225,11.5766905 C29.3090324,12.156011 30.0582676,13.3725007 29.9224441,15.160759 C29.8336206,16.33021 29.2945814,17.2638869 28.44065,17.7273909 L28.0392088,17.9452893 L19.11765,17.9627265 C12.2618853,17.976126 10.0825716,17.9513954 9.70588529,17.8559218 L9.70588529,17.8559218 Z"/>
    <path d="M3.01778725,16.6057681 C1.96013725,16.3508006 0.83945098,15.4032269 0.313934314,14.3195792 C0.0158333333,13.7048772 0,13.6144675 0,12.526991 C0,11.4926364 0.0254401961,11.3266963 0.26275098,10.8131056 C0.76302549,9.73040559 1.72154608,8.94808979 2.92420294,8.64090736 C3.17801863,8.57607752 3.41651961,8.4726004 3.4542049,8.41095786 C3.4918902,8.34931432 3.53375294,8.01351388 3.54723137,7.66473355 C3.63094706,5.49857675 5.0320902,3.58993929 6.98854902,2.97696968 C8.04553627,2.64581045 9.37344412,2.7272709 10.5231108,3.19379808 C10.8877382,3.34176404 10.8466794,3.3734878 11.61765,2.34804371 C12.0735912,1.74160382 12.9948755,0.987381945 13.7489931,0.603182387 C14.5628755,0.188538961 15.4093265,-0.00249275138 16.4215716,2.42651934e-05 C19.2507186,0.00706514917 21.6889735,1.80208084 22.5905912,4.5415983 C22.8786598,5.41689156 22.8642971,5.66202869 22.5245127,5.66925355 C22.3762284,5.67240603 21.9513559,5.75523985 21.5803461,5.85332791 L20.9057873,6.03167012 L20.2902676,5.40731775 C18.5547971,3.64691675 15.7224833,3.26641664 13.3147284,4.47020692 C12.3528167,4.95112813 11.5798461,5.64155642 10.9959833,6.54132869 C10.5797382,7.18279996 10.0490225,8.37948272 10.0490225,8.67659211 C10.0490225,8.8873731 9.88076765,8.99269797 9.16219902,9.23173697 C6.93748235,9.97180946 5.63897059,11.6809522 5.63986765,13.8679413 C5.64016176,14.6639381 5.84227255,15.637932 6.12283235,16.1957749 C6.2285951,16.4060646 6.28760686,16.6060376 6.25396961,16.6401581 C6.1679451,16.7274183 3.40041765,16.6980087 3.01778725,16.6057681 L3.01778725,16.6057681 Z"/>
  </g>
</svg>
