<svg xmlns="http://www.w3.org/2000/svg" width="60" height="60" viewBox="0 0 60 60">
  <g fill="none" fill-rule="evenodd">
    <g fill="#FFF" fill-rule="nonzero" transform="translate(16 15)">
      <path d="M15.9671053,13.1644737 L10.1447368,13.1644737 L10.1447368,10.2236842 L15.9671053,10.2236842 C16.7171053,10.2236842 17.3289474,10.875 17.3289474,11.6842105 C17.3289474,12.4934211 16.7171053,13.1644737 15.9671053,13.1644737 Z"/>
      <path d="M26.8618421,12.0197368 C26.8618421,7.00657895 23.7828947,2.70394737 19.4210526,0.907894737 C18,0.315789474 16.4605263,0 14.8421053,0 L2.44736842,0 C1.10526316,0 0,1.10526316 0,2.44736842 L0,27.4539474 C0,28.7960526 1.10526316,29.9013158 2.44736842,29.9013158 L26.8618421,29.9013158 L21.5526316,21.9868421 C24.75,19.8157895 26.8618421,16.1644737 26.8618421,12.0197368 Z M15.5131579,17.7434211 L15.5131579,17.7434211 L10.1447368,17.7434211 L10.1447368,23.9605263 C10.1447368,24.6118421 9.61184211,25.1447368 8.96052632,25.1447368 L6.41447368,25.1447368 C5.76315789,25.1447368 5.23026316,24.6118421 5.23026316,23.9605263 L5.23026316,6.73026316 C5.23026316,6.07894737 5.76315789,5.54605263 6.41447368,5.54605263 L7.69736842,5.54605263 L8.96052632,5.54605263 L15.5131579,5.54605263 L15.5131579,5.54605263 C18.8684211,5.54605263 21.6118421,8.28947368 21.6118421,11.6447368 L21.6118421,11.6447368 C21.6118421,15 18.8684211,17.7434211 15.5131579,17.7434211 Z"/>
    </g>
  </g>
</svg>
