<svg xmlns="http://www.w3.org/2000/svg" width="60" height="60" viewBox="0 0 60 60">
  <path fill="#FFF" fill-rule="evenodd" d="M32.6612903,19.6824484 C33.6447409,19.9295249 34.575072,20.310386 35.4318095,20.8045576 L38.3826368,17.8537303 C38.5716002,17.6647669 38.8779704,17.6647669 39.0669337,17.8537303 L39.0669337,17.8537303 L42.1462697,20.9330663 C42.3352331,21.1220296 42.3352331,21.4283998 42.1462697,21.6173632 L39.2561877,24.5074451 C39.7961106,25.3771016 40.2168897,26.3284588 40.4957182,27.3387097 L44.516129,27.3387097 C44.7833636,27.3387097 45,27.5553461 45,27.8225806 L45,32.1774194 C45,32.4446539 44.7833636,32.6612903 44.516129,32.6612903 L40.6173188,32.6612903 C40.3738468,33.7342703 39.9718966,34.7470584 39.4373779,35.673745 L42.1462697,38.3826368 C42.3352331,38.5716002 42.3352331,38.8779704 42.1462697,39.0669337 L42.1462697,39.0669337 L39.0669337,42.1462697 C38.8779704,42.3352331 38.5716002,42.3352331 38.3826368,42.1462697 L35.7344903,39.4981232 C34.7957287,40.0809497 33.7617663,40.5249453 32.6612903,40.8014225 L32.6612903,44.516129 C32.6612903,44.7833636 32.4446539,45 32.1774194,45 L27.8225806,45 C27.5553461,45 27.3387097,44.7833636 27.3387097,44.516129 L27.3387097,40.8014225 C26.2382337,40.5249453 25.2042713,40.0809497 24.2655097,39.4981232 L21.6173632,42.1462697 C21.4283998,42.3352331 21.1220296,42.3352331 20.9330663,42.1462697 L17.8537303,39.0669337 C17.6647669,38.8779704 17.6647669,38.5716002 17.8537303,38.3826368 L20.5626221,35.673745 C20.0281034,34.7470584 19.6261532,33.7342703 19.3826812,32.6612903 L15.483871,32.6612903 L15.483871,32.6612903 C15.2166364,32.6612903 15,32.4446539 15,32.1774194 L15,32.1774194 L15,27.8225806 L15,27.8225806 C15,27.5553461 15.2166364,27.3387097 15.483871,27.3387097 L19.5042818,27.3387097 C19.7831103,26.3284588 20.2038894,25.3771016 20.7438123,24.5074451 L17.8537303,21.6173632 C17.6647669,21.4283998 17.6647669,21.1220296 17.8537303,20.9330663 L17.8537303,20.9330663 L20.9330663,17.8537303 C21.1220296,17.6647669 21.4283998,17.6647669 21.6173632,17.8537303 L24.5681905,20.8045576 C25.424928,20.310386 26.3552591,19.9295249 27.3387097,19.6824484 L27.3387097,15.483871 L27.3387097,15.483871 C27.3387097,15.2166364 27.5553461,15 27.8225806,15 L27.8225806,15 L32.1774194,15 L32.1774194,15 C32.4446539,15 32.6612903,15.2166364 32.6612903,15.483871 L32.6612903,19.6824484 Z M30.2419355,35.3225806 C32.914281,35.3225806 35.0806452,33.1562165 35.0806452,30.483871 C35.0806452,27.8115254 32.914281,25.6451613 30.2419355,25.6451613 C27.5695899,25.6451613 25.4032258,27.8115254 25.4032258,30.483871 C25.4032258,33.1562165 27.5695899,35.3225806 30.2419355,35.3225806 Z"/>
</svg>
