<svg xmlns="http://www.w3.org/2000/svg" width="60" height="60" viewBox="0 0 60 60">
  <path fill="#FFF" fill-rule="evenodd" d="M30,33.2244898 L30,36.1326531 C30,37.7387873 31.302029,39.0408163 32.9081633,39.0408163 C34.5142975,39.0408163 35.8163265,37.7387873 35.8163265,36.1326531 L35.8163265,36.1326531 L35.8163265,24.1938776 C35.8163265,22.5877433 34.5142975,21.2857143 32.9081633,21.2857143 C31.302029,21.2857143 30,22.5877433 30,24.1938776 L30,24.1938776 L30,27.4081633 L26.6326531,27.4081633 L26.6326531,24.1938776 C26.6326531,22.5877433 25.330624,21.2857143 23.7244898,21.2857143 C22.1183556,21.2857143 20.8163265,22.5877433 20.8163265,24.1938776 L20.8163265,24.1938776 L20.8163265,36.1326531 C20.8163265,37.7387873 22.1183556,39.0408163 23.7244898,39.0408163 C25.330624,39.0408163 26.6326531,37.7387873 26.6326531,36.1326531 L26.6326531,36.1326531 L26.6326531,33.2244898 L30,33.2244898 Z M41.9387755,43.9387755 C40.2481079,43.9387755 38.877551,42.5682186 38.877551,40.877551 C38.877551,39.1868834 40.2481079,37.8163265 41.9387755,37.8163265 C43.6294431,37.8163265 45,39.1868834 45,40.877551 C45,42.5682186 43.6294431,43.9387755 41.9387755,43.9387755 Z M28.1632653,43.3265306 C20.8933946,43.3265306 15,37.433136 15,30.1632653 C15,22.8933946 20.8933946,17 28.1632653,17 C35.433136,17 41.3265306,22.8933946 41.3265306,30.1632653 C41.3265306,37.433136 35.433136,43.3265306 28.1632653,43.3265306 Z"/>
</svg>
