<svg xmlns="http://www.w3.org/2000/svg" width="60" height="60" viewBox="0 0 60 60">
  <g fill="none" fill-rule="evenodd">
    <path fill="#FFF" fill-rule="nonzero" d="M40.3127384,39.4399086 C40.3127384,39.4399086 40.4494279,39.3468321 40.6739893,39.1704768 C43.944775,36.6329197 46,32.9490529 46,28.8487916 C46,21.2018289 38.8384439,15 30.0024409,15 C21.1664378,15 14,21.2018289 14,28.8487916 C14,36.4957544 21.1615561,42.7073808 29.9975591,42.7073808 C31.1257671,42.707548 32.2516294,42.6042444 33.3610984,42.398759 L33.707704,42.3350751 C35.9581998,43.8047028 39.2289855,45 42.0897025,45 C42.9830664,45 43.3980168,44.2700849 42.8317315,43.5303723 C41.9676583,42.4575441 40.7765065,40.752776 40.3127384,39.4399086 Z M38.3600305,33.3850425 C37.4080854,34.8154801 34.4546148,37.2501633 30.021968,37.2501633 L29.9633867,37.2501633 C25.5258581,37.2501633 22.5723875,34.8007838 21.6253242,33.3850425 C21.4332219,33.1691917 21.3077225,32.902003 21.2640732,32.6159373 C21.2492689,32.4381916 21.3077296,32.2621273 21.4258182,32.1288153 C21.5439067,31.9955034 21.7112964,31.9166017 21.8889397,31.910516 C22.0449978,31.9156664 22.1960971,31.966776 22.3234172,32.0574788 C24.4921885,33.8287003 27.201307,34.7988687 29.9975591,34.8056826 L29.9975591,34.8056826 C32.8031735,34.8402796 35.5279993,33.8633683 37.6765828,32.05258 C37.7916861,31.94828 37.9413282,31.8906593 38.096415,31.890921 C38.4477099,31.8909107 38.7332451,32.1752524 38.7359268,32.5277596 C38.6948921,32.8410202 38.5700534,33.1372741 38.3746758,33.3850425 L38.3600305,33.3850425 Z"/>
  </g>
</svg>
