<svg xmlns="http://www.w3.org/2000/svg" width="60" height="60" viewBox="0 0 60 60">
  <path fill="#FFF" fill-rule="evenodd" d="M13,18.7316802 L13,18.7316802 C13,18.4317965 13.2431038,18.1886927 13.5429875,18.1886927 L13.5429875,18.1886927 L20.4806563,18.1886927 C20.6254512,18.1886927 20.7642487,18.2465242 20.8662059,18.3493361 L20.8662059,18.3493361 L23.3375859,20.8414351 C23.5480852,21.0536992 23.5474169,21.3961842 23.3360908,21.6076252 L23.3360908,21.6076252 L18.9970207,25.9490526 L18.9970207,44.8139379 L13,44.8139379 L13,18.7316802 Z M20.841024,26.9036641 C20.8374023,26.9000734 20.8338314,26.8964319 20.8303123,26.8927406 C20.6233857,26.6756885 20.6315939,26.3319858 20.848646,26.1250592 L20.848646,26.1250592 L24.6223873,22.5273622 C24.8351274,22.3245464 25.1706283,22.3278308 25.3793571,22.5347725 L29.4475064,26.5680908 C29.6591722,26.7779444 30.0004323,26.7779444 30.2120982,26.5680908 L30.2120982,26.5680908 L41.724648,15.1541099 C41.9363139,14.9442563 42.277574,14.9442563 42.4892398,15.1541099 L42.4892398,15.1541099 L45.7479523,18.3849218 C45.7490576,18.3860175 45.750158,18.387118 45.7512538,18.3882232 C45.96239,18.6011828 45.9609119,18.9449803 45.7479523,19.1561165 L45.7479523,19.1561165 L29.7695571,34.9977067 C29.5578912,35.2075603 29.2166311,35.2075603 29.0049653,34.9977067 L20.841024,26.9036641 Z M40.2490622,27.0172368 L45.0747166,22.2328991 L45.0747166,22.2328991 C45.2876761,22.0217629 45.6314736,22.023241 45.8426098,22.2362006 C45.9434316,22.337893 46,22.475296 46,22.6184965 L46,44.4570125 C46,44.7568962 45.7568962,45 45.4570125,45 L40.5870145,45 L40.5870145,45 C40.2871308,45 40.044027,44.7568962 40.044027,44.4570125 C40.044027,44.4565418 40.0440276,44.4560712 40.0440288,44.4556006 L40.0883724,27.4014223 C40.0887477,27.2570938 40.1465684,27.1188531 40.2490622,27.0172368 Z"/>
</svg>
