<svg xmlns="http://www.w3.org/2000/svg" width="60" height="60" viewBox="0 0 60 60">
  <path fill="#FFFFFF" d="M14.9705411,0 C23.2376754,0 29.940481,6.71566265 29.940481,15 C29.940481,23.2843373 23.2382766,30 14.9705411,30 C6.70280561,30 0.000601202405,23.2843373 0.000601202405,15 C0.000601202405,6.71566265 6.70280561,0 14.9705411,0 Z M25.7320641,15.2722892 C25.9733488,15.079916 26.0814647,14.7648366 26.0092612,14.4644611 C25.9370577,14.1640856 25.6976281,13.9328842 25.3953908,13.8716867 L25.3887776,13.8716867 L25.3761523,13.8716867 L25.3617234,13.8716867 C25.3219738,13.8650367 25.2817788,13.8614119 25.241483,13.8608434 L25.1362725,13.8512048 C22.6286573,13.6704819 20.049499,13.5987952 17.6296593,13.55 L17.6248497,13.5325301 C16.4470942,9.10542169 14.9759519,4.58012048 12.991984,4.58012048 C11.1432866,4.58855422 9.47675351,7.56204819 8.03807615,13.4198795 C7.02144289,13.4066265 6.09438878,13.3927711 5.22084168,13.3777108 L5.08677355,13.3777108 C4.97917778,13.375784 4.87156459,13.380411 4.76452906,13.3915663 C4.27078833,13.4808591 3.91262126,13.912946 3.91563126,14.4156627 C3.9170519,14.9303962 4.29227743,15.3674622 4.8,15.4457831 L4.81022044,15.4560241 L7.56372745,15.4560241 C7.30761523,16.6277108 7.08336673,17.786747 6.89639279,18.9036145 L6.81462926,19.3951807 L6.81462926,19.4186747 C6.81622365,19.7249783 7.01905334,19.9936033 7.31279045,20.078433 C7.60652757,20.1632627 7.92092566,20.0440102 8.08496994,19.7855422 L8.10480962,19.8012048 L9.45991984,15.4590361 L15.9883768,15.4590361 C16.4855711,17.346988 17.0044088,19.2963855 17.687976,21.1259036 C18.0553106,22.1042169 18.9096192,24.3951807 20.3398798,24.4066265 L20.3561122,24.4066265 C22.5697395,24.4066265 23.4324649,20.823494 24.0036072,18.4518072 C24.1262525,17.9415663 24.2326653,17.5006024 24.3324649,17.1771084 L24.3721443,17.0433735 C24.4327406,16.8637146 24.3365133,16.6688506 24.1572144,16.6081326 C23.9779156,16.5474145 23.7834421,16.6438351 23.7228457,16.823494 L23.6747495,16.9566265 C23.4865731,17.4777108 23.3128257,17.9704819 23.1589178,18.4072289 L23.147495,18.4403614 C22.1891784,21.1596386 21.7521042,22.4006024 20.8953908,22.4006024 L20.8743487,22.4006024 L20.8623246,22.4006024 L20.8388778,22.4006024 C19.7422846,22.4006024 18.71002,17.9313253 18.3210421,16.2457831 C18.255511,15.9548193 18.1917836,15.6873494 18.1352705,15.4518072 L25.2258517,15.4518072 C25.3542378,15.4518497 25.4807116,15.420633 25.5943888,15.3608434 L25.6268537,15.3421687 L25.6617234,15.3210843 L25.6785571,15.3096386 C25.6957916,15.297992 25.7124248,15.2855422 25.7284569,15.2722892 L25.7320641,15.2722892 Z M13.1957916,6.75240964 C13.4038076,7.07590361 13.7633267,7.80240964 14.295992,9.42409639 C14.6603206,10.5343373 15.0577154,11.9090361 15.4785571,13.513253 C13.8829659,13.4891566 12.2693387,13.4704819 10.7062124,13.453012 L9.91503006,13.4439759 C10.809018,9.94156627 11.8995992,7.28433735 12.6967936,6.65662651 C12.7608844,6.61303539 12.8358342,6.58821057 12.9132265,6.58493976 C13.0154309,6.58493976 13.1128257,6.64277108 13.1957916,6.75240964 Z" transform="translate(15 15)"/>
</svg>
