<svg xmlns="http://www.w3.org/2000/svg" width="60" height="60" viewBox="0 0 60 60">
  <g fill="none" fill-rule="evenodd" transform="translate(16 15)">
    <path fill="#FFF" fill-opacity=".4" d="M4.98129412,14.7872981 C5.06835294,11.7516827 6.77423529,8.76197115 10.1301176,6.90614423 C13.3771765,5.11172115 16.7130588,5.22439423 19.9083529,7.15414423 C20.3171765,7.40095192 21.4518824,7.52495192 20.8007059,8.43170192 C20.3330588,9.08389423 19.8965882,9.99779808 18.5877647,9.24664423 C14.0612941,6.64920192 8.73070588,9.017125 7.62776471,14.0105096 C6.95364706,17.0628173 7.86011765,19.6483365 10.2595294,21.5560288 C12.7689412,23.5507596 15.5436471,23.6598558 18.4048235,22.2630673 C18.8412941,22.0502404 19.1654118,21.4654135 19.8348235,21.8636442 C21.2583529,22.7107788 21.3089412,23.4029135 19.8877647,24.2327596 C16.6648235,26.1148173 13.3554118,26.1923173 10.0901176,24.4265096 C6.82952941,22.6630865 4.97423529,19.3514519 4.98129412,14.7872981"/>
    <path fill="#FFF" fill-opacity=".7" d="M29.7205294,15.6699038 C29.9711176,19.0453269 28.8517059,21.9444231 26.9540588,24.5764423 C26.6664118,24.9752692 26.3446471,25.8432692 25.6411176,25.048 C25.1587647,24.5025192 24.0622941,24.1513846 24.8934706,23.033 C25.9658235,21.5903077 26.6352353,19.9419423 27.0546471,18.1916346 C27.8817059,14.7393077 26.9628824,11.6458654 25.1681765,8.72471154 C24.837,8.18519231 24.2122941,7.72019231 24.9446471,6.93028846 C26.0164118,5.77494231 26.3311176,5.72188462 27.207,7.06203846 C28.9187647,9.68094231 30.0058235,12.4995577 29.7205294,15.6699038"/>
    <path fill="#FDFDFD" d="M24.6937647,4.4268 C24.0796471,4.88106923 23.5367059,5.22922308 23.0567059,5.65010769 C22.4972941,6.14133846 22.1467059,5.65845385 21.7772941,5.40926154 C18.0808235,2.91376154 14.1637647,2.52685769 10.0614118,4.18416538 C9.20847059,4.52814615 8.41141176,5.04739615 7.64788235,5.57499231 C7.13494118,5.92970385 6.82670588,5.85220385 6.38670588,5.45814615 C5.02435294,4.24139615 5.012,4.17343462 6.53435294,3.15758846 C11.7872941,-0.3472 18.3796471,-0.249430769 23.472,3.41453077 C23.7825882,3.63808846 24.0643529,3.90278077 24.6937647,4.4268 Z M0.0117647059,15.6687115 C-0.126470588,12.3594615 0.971176471,9.44188462 2.80705882,6.77767308 C3.05705882,6.41521154 3.37411765,5.53707692 3.98176471,6.24053846 C4.45058824,6.78303846 5.77058824,7.02865385 4.92705882,8.29309615 C1.67411765,13.1738077 1.65,18.0998269 4.89117647,22.9906731 C5.73470588,24.2634615 4.45588235,24.5037115 3.98764706,25.0545577 C3.38352941,25.7651731 3.07941176,24.9311538 2.80294118,24.5603462 C0.935882353,22.0606731 0.0105882353,19.0620192 0.0117647059,15.6687115 Z M14.8431765,30.6843365 C11.6690588,30.771375 8.87788235,29.8264712 6.36141176,28.0445673 C5.95494118,27.7572212 4.87376471,27.5652596 5.66670588,26.7050096 C6.20435294,26.1225673 6.58258824,24.9940481 7.86905882,25.896625 C11.6237647,28.5292404 15.6649412,28.849375 19.8543529,27.0311058 C20.5678824,26.7217019 21.2396471,26.2882981 21.8808235,25.8393942 C22.3990588,25.4775288 22.7531765,25.4214904 23.2684706,25.9049712 C24.5755294,27.1336442 24.5961176,27.1861058 23.0778824,28.2025481 C20.5567059,29.8896635 17.8072941,30.7880673 14.8431765,30.6843365 Z"/>
    <path fill="#FFF" fill-opacity=".7" d="M24.7489412 15.5726712C24.7577647 17.6580173 24.176 19.377325 23.2701176 20.9940942 23.0477647 21.3905365 22.776 22.0707481 22.2007059 21.5294404 21.7218824 21.0793442 20.6895294 20.6918442 21.176 19.8095365 22.726 17.0010558 22.7018824 14.2963058 21.1595294 11.4866327 20.7042353 10.6561904 21.7318824 10.2120558 22.2377647 9.78699808 22.8236471 9.294575 23.0724706 9.99624808 23.2918824 10.3909019 24.2177647 12.0571519 24.8018824 13.8259404 24.7489412 15.5726712M17.3187059 15.8695558C17.3428235 15.3717673 17.2375294 14.9484981 17.3992941 14.7183827 17.814 14.1281904 18.2792941 13.2888058 18.9563529 13.2882096 19.7328235 13.2876135 19.6810588 14.3028635 19.9045882 14.9121327 20.0181176 15.2215365 20.084 15.6209596 19.9910588 15.9220173 19.7481176 16.7065558 19.8857647 18.1009596 18.8992941 17.9930558 18.1369412 17.9084019 17.0828235 17.0225173 17.3187059 15.8695558"/>
    <path fill="#F8F8F9" fill-opacity=".2" d="M12.4284706 15.6885038C12.6878824 16.8837923 11.5890588 17.2981192 10.9737647 17.9920423 10.6214118 18.3896769 10.4255294 18.0594077 10.2555294 17.7005231 9.90552941 16.9601 9.86258824 16.1755615 9.90964706 15.3886385 9.95847059 14.5754846 9.88729412 13.6347538 10.7172941 13.1804846 11.1108235 12.9646769 12.4278824 14.8938308 12.4284706 15.6885038M14.8135882 10.6392596C14.9588824 10.6392596 15.1100588 10.6124327 15.2488824 10.6440288 15.9324118 10.799625 16.9824118 10.6857596 17.1135882 11.4065096 17.2277059 12.0324712 16.2953529 12.5397981 15.7588824 13.000625 15.2118235 13.4709904 14.4171176 13.481125 13.8912353 13.0036058 13.3512353 12.5129712 12.2888824 11.9615288 12.5647647 11.3123173 12.8524118 10.636875 13.9782941 10.6410481 14.8135882 10.6392596M17.1981176 20.0234365C15.4175294 20.9999365 14.0757647 20.9850327 12.4504706 19.9721673 14.4051765 17.3371673 15.3887059 17.3478981 17.1981176 20.0234365"/>
  </g>
</svg>
