<svg xmlns="http://www.w3.org/2000/svg" width="60" height="60" viewBox="0 0 60 60">
  <path fill="#FEFEFE" fill-rule="evenodd" d="M15.4849681,5.61618666 C17.1866372,5.53847314 18.4022109,4.33558839 19.8729008,3.72325942 C20.414981,3.32129292 20.9651068,3.39130208 21.5192556,3.69512176 C22.4357968,4.30175621 23.3469742,4.12053631 24.2561401,3.67535841 C24.692285,3.42144957 25.1223956,3.34172622 25.5354091,3.72292445 C26.4113865,4.08067463 26.3932836,5.02864563 26.8280875,5.67782152 C27.1998667,6.09352188 27.1227619,6.52496592 26.8736799,6.96277443 C26.6155465,7.82331772 25.8937787,7.67023547 25.2517976,7.71612665 C24.6453517,7.75933805 24.2450773,8.20954053 24.0204677,8.66041295 C23.7596524,9.18464426 24.3781668,9.42682908 24.700666,9.63920138 C26.5625789,10.8641943 27.6779164,12.5769065 28.1904955,14.7157033 C28.540149,15.1454725 28.4590213,15.5886405 28.2320651,16.0368332 C26.6088418,16.01506 27.0004,16.9680556 27.3792191,17.8567365 C28.383928,20.2136001 27.750663,22.2529101 26.2203007,24.1341134 C25.787173,25.086439 26.3041102,26.1349016 25.9199273,27.0919169 C25.8890854,28.2227826 25.6433558,29.3730767 26.2206359,30.449677 C26.7234932,30.8503036 27.3932991,30.3877072 27.8988383,30.774265 C29.7523703,30.7146399 30.2284085,31.1882905 29.9072503,32.7713685 C27.4553182,33.1117002 25.0003689,33.0252774 22.5447492,32.8152499 C21.4203603,31.1206261 23.1709741,31.2516002 23.8776562,30.7199995 C24.1867458,30.1683005 24.0865096,29.6115769 23.8977705,29.0538483 C22.0395452,26.5013611 21.5239489,26.274585 19.3234454,27.0801928 C18.1839708,27.4972331 17.4642144,28.4622876 16.8745304,29.3874805 C16.2499817,30.3672739 16.8966561,30.8683921 18.5198795,30.7461273 C19.2996435,30.629557 20.0864475,30.3846924 20.8346992,30.8680571 C21.201785,31.4405244 21.2205583,32.0779763 21.1810002,32.7261473 C20.8186077,33.113375 20.3435752,32.9592879 19.9211751,32.9505786 C15.9895016,32.8675055 12.0527995,33.1592662 8.12481364,32.7991712 C6.67792561,32.4377363 5.15359755,32.4424259 3.76671716,31.7781763 C1.9289414,30.8975347 1.30606884,29.3449391 2.35637009,27.5799712 C3.22329605,26.1235126 4.25985254,24.7541467 5.33931951,23.443066 C5.8746949,22.7928851 6.38459219,22.1902704 5.9853235,21.3856674 C5.55554814,20.5204345 4.73991363,20.2417378 3.77208097,20.418268 C2.44990154,20.6597829 1.74221372,20.239058 2.07175286,18.7671906 C0.0854665839,18.6053991 0.0234475186,18.6033893 0.100552302,16.5145034 C0.143798029,15.3421011 -0.31044972,14.1067241 0.418358107,12.9926069 C1.20750881,12.9343218 2.10326525,12.5336951 2.11198145,13.9898188 C2.11969193,15.23558 3.59675139,14.3857558 4.04530009,15.1196796 C4.39595924,15.5283456 4.33863351,15.9510803 4.08854582,16.3801796 C6.05103019,16.363096 5.72484343,17.9960849 6.07986067,19.1380047 C6.25787215,19.1644675 6.37218838,19.266299 6.43186077,19.4331151 C7.9682574,22.4850458 7.14826479,23.0869906 4.93870987,25.9550216 C4.15224108,26.9756815 2.76100258,27.8744116 3.34129989,29.3549882 C3.97825246,30.9799378 5.59912911,31.1614927 7.15698098,31.1467539 C9.11544249,31.1283305 9.91733224,30.5042775 9.86436461,29.0890204 C9.45403306,28.4441992 9.58879882,27.7759298 9.77854363,27.1049808 C9.88548462,25.4522285 9.76479887,23.7740184 10.4858962,22.2009895 C11.1976069,20.6487288 12.2093558,19.5409762 14.0357334,19.3842092 C14.4695316,19.3470273 15.196328,19.3765049 15.0954213,18.6740684 C15.0136232,18.1039459 14.3760002,18.3756083 13.9730439,18.29555 C10.5951839,17.6249358 7.48216203,16.5687689 5.83983013,13.1255908 C5.28635188,11.9655825 5.41374239,11.4711637 6.78453135,11.659418 C7.05238667,11.3944551 7.38024962,11.3304754 7.72487448,11.3653125 C7.73493162,11.287934 7.71381162,11.2363483 7.63704207,11.1991664 C7.55893157,11.1422211 7.52205537,11.0725469 7.51736204,10.9857892 C2.15790908,9.68509255 0.935965874,6.38628748 0.151173269,1.22269282 C0.0908303949,0.823741067 -0.0875163226,0.22447601 0.430426682,0.0352167835 C0.86254871,-0.122555068 1.25678882,0.281756237 1.53671271,0.613713571 C4.40635163,4.01435016 7.9769736,6.30153954 12.1892415,7.75967302 C13.4715275,8.20351103 14.4738897,9.41142036 15.2989109,10.6183248 C15.6375015,11.1134135 15.9392159,11.9940551 16.8825761,11.4068491 L16.8819057,11.407184 C17.2841915,10.6434477 16.9667209,9.8009929 17.1504314,9.00141453 C17.3492277,8.13718656 16.5493494,8.17470343 16.0397873,7.89131705 C15.1108423,7.3747901 13.5415923,7.41733155 13.8396191,5.66978219 C14.3790173,5.37199201 14.9308194,5.45506509 15.4849681,5.61618666" transform="translate(15 13)"/>
</svg>
