<svg xmlns="http://www.w3.org/2000/svg" width="60" height="60" viewBox="0 0 60 60">
  <g fill="#FFF" transform="translate(17 18)">
    <path d="M6.36,12.06 L6.36,7.02 C6.36,6.655 6.654,6.36 7.195,6.36 L12.235,6.36 L12.06,6.36 C12.424,6.36 12.72,6.656 12.72,7.02 L12.72,12.06 C12.72,12.424 12.424,12.72 12.06,12.72 L7.02,12.72 C6.654,12.72 6.36,12.424 6.36,12.06 L6.36,12.06 Z M7.676,0 C6.811,0 6.026,0.346 5.454,0.907 L5.452,0.907 L0.883,5.473 L0.886,5.48 C0.338,6.054 0,6.828 0,7.68 L0,17.757 C0,18.657 0.374,19.467 0.974,20.047 L0.972,20.052 L5.002,24.082 L5.004,24.079 C5.148,24.221 5.346,24.309 5.564,24.309 C5.959,24.309 6.284,24.021 6.346,23.645 L6.359,23.645 L6.359,19.74 C6.359,19.376 6.655,19.08 7.019,19.08 L11.393,19.08 C12.273,19.08 13.069,18.72 13.643,18.144 L13.653,18.146 L18.095,13.703 L18.095,13.693 C18.143,13.648 18.185,13.599 18.229,13.553 L19.069,12.708 L19.069,22.592 C19.066,22.635 19.062,22.679 19.062,22.722 C19.062,23.602 19.774,24.312 20.652,24.312 L23.832,24.312 C24.672,24.312 25.36,23.66 25.417,22.834 L25.417,22.611 L25.417,12.708 L19.07,12.708 L19.07,6.348 L13.646,0.922 L13.641,0.926 C13.378,0.66 13.065,0.444 12.721,0.286 L12.721,0.29 C12.316,0.106 11.868,0 11.394,0 L7.677,0 L7.676,0 Z"/>
    <polyline fill-opacity=".5" points="19.07 12.723 25.418 12.723 19.071 6.363"/>
  </g>
</svg>
