<svg xmlns="http://www.w3.org/2000/svg" width="60" height="60" viewBox="0 0 60 60">
  <path fill="#FFF" d="M29.6726509,44.3453018 C21.5691696,44.3453018 15,37.7761322 15,29.6726509 C15,21.5691696 21.5691696,15 29.6726509,15 C35.2679146,15 40.1316831,18.1319031 42.6065311,22.738284 L38.4678177,22.738284 C36.3793015,20.3409154 33.7717427,18.6681627 29.6726509,18.6681627 C23.5950399,18.6681627 18.6681627,23.5950399 18.6681627,29.6726509 C18.6681627,35.7502619 23.5950399,40.6771391 29.6726509,40.6771391 L44.4102097,40.5978766 L44.4102097,44.3453018 L29.6726509,44.3453018 Z M32.6726509,26.0044882 L42.5545582,26.0044882 C39.223093,26.9022237 36.5188981,28.1788445 34.4419734,29.8343506 C32.3650488,31.4898566 30.7752746,33.4312796 29.6726509,35.6586196 L29.6726509,29.0044882 C29.6726509,27.3476339 31.0157967,26.0044882 32.6726509,26.0044882 Z M42,38.1040614 L32.1180927,38.1040614 C35.4495579,37.2063259 38.1537528,35.9297051 40.2306775,34.274199 C42.3076021,32.618693 43.8973763,30.67727 45,28.44993 L45,35.1040614 C45,36.7609157 43.6568542,38.1040614 42,38.1040614 Z"/>
</svg>
