<svg xmlns="http://www.w3.org/2000/svg" width="60" height="60" viewBox="0 0 60 60">
  <path fill="#FFF" fill-rule="evenodd" d="M21.0036796,17 C22.1075383,17.3888273 22.8308858,18.1449326 23.0504282,19.2941316 C23.1830504,19.9884093 23.2369959,20.728678 22.6056307,21.2661086 C22.0503387,21.7387467 21.4162979,21.7378067 20.7745918,21.469236 C19.7173027,21.0268247 18.8823038,19.4705755 19.0751627,18.333525 C19.1940454,17.632233 19.6459297,17.234005 20.280549,17 L21.0036796,17 Z M27.632017,41.4368009 C27.0075938,41.5852596 26.4743573,41.7169417 25.9387346,41.8383553 C24.6488866,42.1307893 23.3609188,42.4324794 22.0662982,42.7021348 C21.4156253,42.8376494 20.7556241,42.8508827 20.0956952,42.698953 C19.0145427,42.4500514 18.3108644,41.8043682 17.9685344,40.7529364 C17.6264213,39.7020108 17.4698636,38.6199905 17.464657,37.5198197 C17.4542439,35.3151394 17.4658863,33.110242 17.4678388,30.9054893 C17.4680557,30.724779 17.4734792,30.5434902 17.4612583,30.3635753 C17.4311038,29.9198624 17.2376663,29.6851342 16.804005,29.5734829 C16.4899494,29.4926369 16.1689517,29.4407161 15.8807119,29.2765655 C14.9493197,28.7462938 14.7052632,27.4734395 15.3972991,26.7422099 C15.6499609,26.4751578 15.9573637,26.3323395 16.3261603,26.326916 C16.4947943,26.3244574 16.6636453,26.3287238 16.8321347,26.3230834 C17.2552384,26.3087654 17.3732533,26.2073102 17.3955257,25.7912932 C17.4245956,25.2503916 17.4342855,24.7084052 17.4511345,24.1668528 C17.4991503,22.6209443 18.4173815,21.8241268 19.9462964,22.006211 C20.9326465,22.1236474 21.8727162,22.4054514 22.7921043,22.7790206 C24.1156502,23.3168128 24.6872125,24.3385963 24.7428213,25.710158 C24.7569946,26.0591408 24.7494018,26.4092083 24.7690709,26.7577572 C24.800744,27.3165201 25.0074147,27.5647709 25.5421698,27.6973207 C25.7987365,27.7609562 26.0628961,27.794871 26.3179442,27.8631345 C27.2215681,28.1050217 27.688132,28.9792865 27.3541903,29.7923745 C27.2180248,30.1239298 26.9842367,30.3189581 26.6108844,30.3185966 C26.2736163,30.3183073 25.935842,30.3112206 25.5990078,30.3253217 C25.1305639,30.3448462 24.9559278,30.5103708 24.9695227,30.9706434 C25.0283132,32.9570107 25.0938288,34.9433056 25.1709145,36.9290944 C25.2002736,37.6858505 25.1926085,38.4445591 25.3247967,39.197121 C25.4950217,40.1661883 26.0371526,40.8034832 26.9477186,41.1473318 C27.1479534,41.2229712 27.3425479,41.3137964 27.632017,41.4368009 Z M45,36.428905 C44.9691223,37.0342376 44.9490193,37.5990749 44.7154481,38.1308651 C44.361765,38.9360709 43.6618469,39.1962533 42.8709591,39.336179 C41.0475854,39.6588399 39.2250795,39.9864903 37.4051769,40.3278803 C37.1643021,40.3730036 37.0985695,40.2876742 37.0196037,40.0908381 C36.4130418,38.5787721 36.1762888,36.9873787 35.9704136,35.3860061 C35.6296022,32.7351542 35.4605342,30.0683934 35.2106203,27.4090809 C35.138235,26.638513 35.4150493,25.9744622 35.9966632,25.8862403 C37.1170094,25.7163046 38.2155893,25.8625939 39.1375807,26.5915095 C39.6066032,26.9622585 39.7270044,27.5483558 39.7889044,28.1169533 C39.9970937,30.030646 40.1840229,31.9465804 40.3886689,33.8605623 C40.5204232,35.0925598 40.6681588,36.3226771 40.8115556,37.5533007 C40.8239934,37.6600348 40.852774,37.7656841 40.8822778,37.8695257 C40.9283412,38.0313623 40.9637023,38.2272584 41.1924285,38.1939943 C41.4206485,38.1607303 41.4629516,37.9606401 41.449646,37.7777604 C41.4094399,37.2258672 41.3481908,36.6755648 41.2961977,36.1245394 C41.1605384,34.6869559 41.0255299,33.2493723 40.8900876,31.8117165 C40.7299142,30.1106242 40.5687284,28.4096043 40.4099289,26.7083674 C40.3763756,26.3484653 40.3520785,25.9885632 40.4429037,25.6309752 C40.5445758,25.2307224 40.738881,25.047915 41.1462927,25.0362003 C41.6922563,25.0204361 42.2274452,25.1106104 42.737903,25.3032524 C43.4203936,25.5608315 43.7443561,26.1117124 43.8344582,26.7962277 C44.0700541,28.5851081 44.2834499,30.3769532 44.5036432,32.167786 C44.6591886,33.4331921 44.812203,34.6988875 44.9639881,35.9647275 C44.9840188,36.131626 44.9903101,36.3001878 45,36.428905 Z M36.8333542,40.420318 C35.5276697,40.6298089 34.22495,40.8608492 32.9152883,41.0417041 C31.9624192,41.1733139 31.0114302,41.1584174 30.1547375,40.6167203 C29.4227124,40.1538444 29.0891323,39.4336787 28.8911392,38.6286175 C28.6050687,37.465462 28.5329726,36.2751168 28.4605872,35.0872303 C28.3067774,32.5643725 28.1732875,30.0403576 28.0340848,27.5167044 C28.001544,26.925979 28.0175251,26.3374954 28.161862,25.7588463 C28.3869725,24.8569579 28.9301159,24.3933589 29.8620142,24.394299 C30.9710795,24.395456 32.0322736,24.6614234 33.0311338,25.1401359 C33.8020633,25.5096556 34.1258811,26.2040778 34.2262516,27.0027755 C34.4332839,28.6502838 34.5247599,30.3092176 34.6759665,31.962294 C34.8642697,34.0206128 34.9352088,36.0947681 35.3992417,38.1196782 C35.525211,38.6692574 35.7028842,39.210376 36.0277144,39.6856897 C36.2144267,39.9588161 36.4318721,40.1959306 36.7653076,40.2908777 C36.8062368,40.3245032 36.8805023,40.3404844 36.8333542,40.420318 Z M32.9462455,22.3773289 C32.936194,23.5802565 32.009213,24.3011453 30.8347766,24.0191967 C29.7062591,23.7482397 28.7496297,22.5327296 28.7491235,21.3691403 C28.7486897,20.1249219 29.7799461,19.3633931 30.9862725,19.7172209 C32.1074864,20.0461006 32.9561524,21.1979029 32.9462455,22.3773289 Z M35.5210241,23.2366466 C35.5061999,22.6634933 35.6990588,22.1836239 36.2155187,21.9029046 C36.7282905,21.6241378 37.2425087,21.7197356 37.7220165,22.0171592 C38.5201357,22.5122867 38.9653672,23.4869944 38.8051215,24.3660318 C38.6317871,25.3165146 37.796499,25.7659403 36.9032881,25.3893339 C36.0862229,25.0448345 35.5231212,24.168111 35.5210241,23.2366466 Z M43.1380763,23.6051322 C43.1246983,23.971904 42.9872312,24.441505 42.4664326,24.6681341 C41.9602412,24.888472 41.4925927,24.7374823 41.0942201,24.3923321 C40.5336493,23.906533 40.2538701,23.289775 40.307888,22.5376469 C40.3757176,21.592226 41.2603955,21.1177078 42.0854151,21.5840547 C42.7072351,21.9354961 43.1399564,22.7020868 43.1380763,23.6051322 Z"/>
</svg>
