<svg xmlns="http://www.w3.org/2000/svg" width="60" height="60" viewBox="0 0 60 60">
  <g fill="#FFF" fill-rule="evenodd" transform="translate(15 18)">
    <g transform="translate(0 .648)">
      <path d="M12.1155487,10.7418388 C12.0349159,11.212736 11.9781632,11.6853816 11.9925512,12.1647956 C12.0260983,13.2827956 12.3421599,14.3131798 12.9428593,15.2565477 C12.9601024,15.2835882 12.9763881,15.3112419 12.9927931,15.3388143 C13.0432412,15.3536756 13.073921,15.3958431 13.1043922,15.4388974 C13.5529184,16.0722134 14.0996128,16.6034277 14.7528435,17.0241232 C14.8296045,17.0735506 14.9050666,17.1248513 14.9882973,17.1630646 C15.0189217,17.1798234 15.0496961,17.1962826 15.0814197,17.2109435 C15.1506619,17.2527783 15.2282473,17.2827994 15.2804788,17.3492355 C15.3085304,17.4082538 15.3662823,17.4222903 15.4204871,17.4413969 C15.5486803,17.4864786 15.6734013,17.5379291 15.7917277,17.606663 C15.8821774,17.6591875 15.9848918,17.6738734 16.0900541,17.6643326 C16.350637,17.7341904 16.6083972,17.8140386 16.873776,17.8652144 C17.122219,17.9131433 17.3753331,17.9252317 17.6244005,17.9674411 C17.6368901,17.9742596 17.6438343,17.9848744 17.6452581,17.9989358 C17.6422356,18.0089762 17.6364904,18.0152701 17.6322689,18.0120732 C17.6195046,18.0024325 17.6210533,18.0141712 17.6276978,18.0127975 C17.7371815,17.9898945 17.8492881,18.0124478 17.9586719,17.9921673 C17.9719609,17.990444 17.9851998,17.9906938 17.9984138,17.9923172 C18.1229101,17.9994603 18.247806,18.0200905 18.3703289,17.9780559 C18.457856,17.9299272 18.5572481,17.9674911 18.6475229,17.9391683 C18.6602623,17.9351472 18.6733514,17.9326246 18.6865404,17.9308263 C18.7383722,17.9251568 18.7915529,17.9296774 18.8417111,17.9105958 C18.9394546,17.8959598 19.0355246,17.8726573 19.1324938,17.8540252 C19.2890633,17.8459579 19.4376644,17.8003768 19.5865903,17.7567937 C19.6342256,17.7497504 19.6797127,17.7349397 19.7243006,17.7171318 C19.7456578,17.7079157 19.7670649,17.6988744 19.7889717,17.6910319 C19.8271898,17.679443 19.8668318,17.6729493 19.9043755,17.6588628 C19.9532598,17.6444017 20.0012948,17.6272932 20.0496545,17.6112836 C20.0872981,17.6005939 20.1229184,17.5849839 20.1572148,17.5662269 C20.2081973,17.5425746 20.2575312,17.5154008 20.3091632,17.4930722 C20.3696628,17.4796851 20.4271149,17.45903 20.4778226,17.4222154 C20.4880142,17.4171203 20.4986803,17.413249 20.5096211,17.410152 C20.5991216,17.3917946 20.6768568,17.3494104 20.7477727,17.2931894 C20.8509117,17.2240309 20.9619442,17.1681347 21.0670816,17.1023979 C21.0852415,17.0909339 21.1041257,17.0805939 21.1222856,17.06903 C21.1482889,17.0518715 21.1750916,17.0358868 21.2005704,17.0178042 C21.226149,16.9998215 21.2530766,16.9840866 21.2805287,16.9691011 C21.3179226,16.9505939 21.3551665,16.9318369 21.3880891,16.9055871 C21.3965071,16.8989185 21.4054746,16.8930492 21.4145171,16.8873547 C21.4479642,16.8683729 21.4750666,16.8418484 21.5017943,16.8147744 C21.6267402,16.7065785 21.7667985,16.6171894 21.8869234,16.5031241 C21.8988385,16.490811 21.9112281,16.4789723 21.9235429,16.4671087 C21.9909867,16.405443 22.0493131,16.3342115 22.121453,16.2774661 C22.1308451,16.271272 22.1409117,16.2662519 22.1512032,16.2617812 C22.1964405,16.2492183 22.2225187,16.2149512 22.2457744,16.1775372 C22.2937094,16.122615 22.3404455,16.0666938 22.3886303,16.0119963 C22.3963239,16.0035045 22.4048668,15.9959867 22.4137594,15.9888686 C22.4913947,15.9290511 22.5377311,15.8444075 22.5908618,15.7652336 C22.602552,15.746102 22.6189384,15.7316409 22.6369983,15.7189281 C22.6683222,15.6997965 22.6932764,15.6742961 22.7121607,15.6426515 C22.7183056,15.633835 22.7255495,15.6261174 22.7337927,15.619249 C22.7450467,15.6117 22.7568256,15.6067586 22.7698205,15.6082519 C22.7748552,15.5963133 22.7811446,15.585029 22.7903955,15.5754886 C22.8283389,15.5538344 22.8507952,15.5047816 22.9036012,15.5093272 C22.9127435,15.5109007 22.9082973,15.5234886 22.9161657,15.5269852 C22.9185137,15.5159958 22.9057244,15.5145472 22.9029517,15.5061303 C22.9005287,15.4501341 22.9514113,15.4120207 22.9511615,15.3570986 C22.9532098,15.3351447 22.9550833,15.3131908 22.9593047,15.2914866 C22.9639759,15.269233 22.9725187,15.248428 22.9829351,15.2282974 C22.9932764,15.2083416 23.0063156,15.190259 23.0209284,15.1732753 C23.0652165,15.1318152 23.093343,15.0793157 23.1206453,15.0262167 C23.1628351,14.9734425 23.1796461,14.9071062 23.2141674,14.8502359 C23.2814363,14.764918 23.3161074,14.6597441 23.3822773,14.5737268 C23.4229684,14.5328411 23.4500958,14.4846624 23.4608618,14.4275923 C23.4643089,14.4165529 23.46898,14.406063 23.4744255,14.3959228 C23.50495,14.330211 23.5597544,14.2727912 23.5429933,14.1912446 C23.542169,14.1797057 23.5432931,14.1682916 23.5456411,14.1570025 C23.5786636,14.0726086 23.6071898,13.9865914 23.6328435,13.899575 C23.6358659,13.8882609 23.6397877,13.8772964 23.6439092,13.866357 C23.6880225,13.7430755 23.7224438,13.6170467 23.7535679,13.4899439 C23.7556911,13.4775308 23.7588634,13.4654674 23.7623855,13.453429 C23.7783972,13.4102206 23.7746503,13.3632158 23.7883888,13.3195827 C23.8663489,12.9904242 23.9150333,12.6574444 23.9229767,12.3189698 C23.923826,12.2819305 23.9218276,12.2444915 23.9366653,12.2095001 C23.9421357,12.1976365 23.9511282,12.1889199 23.9630933,12.1835251 C24.0202206,12.1983858 24.007856,12.2405203 24.0012365,12.2787835 C24.0153747,12.249087 24.0053081,12.2214386 24.0008118,12.1936154 C23.9967652,12.1834252 23.9949417,12.1729602 23.9950416,12.1620457 C24.0214446,12.0872926 24.073776,12.0101668 23.9736595,11.9476519 C23.9659659,11.9369622 23.9604954,11.9255232 23.9565487,11.9130601 C23.9397127,11.8307892 23.9493797,11.7477691 23.9473314,11.6650986 C23.9429101,11.5525568 23.9593214,11.4393656 23.9356411,11.3274982 C23.9293214,11.2995001 23.9291965,11.2714021 23.9340425,11.2432542 C23.9451853,11.2083924 23.9547387,11.1730638 23.9640594,11.1376613 C23.9609648,11.1412605 23.9572651,11.1447842 23.9528743,11.1482231 C23.9385862,11.1497466 23.9274205,11.1448013 23.9188276,11.1333623 C23.899169,11.1024421 23.8995687,11.067201 23.8957719,11.0327591 C23.8842315,10.7725343 23.8473622,10.5150569 23.8129159,10.2573047 C23.8063464,10.2081769 23.7961549,10.1594488 23.8048476,10.1096717 C23.8505346,9.98501652 23.8137402,9.86006167 23.7879367,9.74177541 C23.6837485,9.26423458 23.578811,8.78636907 23.4184696,8.32328934 C23.4076786,8.29221921 23.3982365,8.25955062 23.3695354,8.23849587 C23.3340649,8.20894928 23.3205512,8.16688972 23.305239,8.12580423 C23.2741898,8.00804246 23.2102431,7.90134505 23.1881116,7.78051124 C23.1867627,7.76849779 23.1869625,7.75643439 23.1878368,7.74444592 C23.2003014,7.65670528 23.1490192,7.58549875 23.1232157,7.50859769 C23.0416087,7.26538156 22.9214838,7.03817502 22.8206928,6.80287627 C22.8044813,6.7649877 22.7806761,6.73029606 22.7426328,6.70899155 C22.6881032,6.66962939 22.657229,6.61365821 22.6327993,6.55306647 C22.6021749,6.45248818 22.5410758,6.36764476 22.4899933,6.27763132 C22.4598934,6.1897658 22.3868043,6.12260538 22.3694938,6.02852085 C22.3383947,5.87172161 22.2482948,5.74906455 22.1422331,5.63584841 C22.0645978,5.59016734 22.0381699,5.50612315 21.992433,5.4363902 C21.9805179,5.41653429 21.9714005,5.39562939 21.9682781,5.37250163 C21.9622331,5.29380231 21.9146728,5.23226148 21.870035,5.17594063 C21.777637,5.05932776 21.7028243,4.93057656 21.6091274,4.81533737 C21.4722415,4.64030567 21.3429492,4.45932968 21.1966211,4.29181575 C21.0946062,4.2112682 21.0466461,4.07767166 20.9251474,4.0163806 C20.9140067,4.01323362 20.9035404,4.00863804 20.8934988,4.00296849 C20.756363,3.86357752 20.6194771,3.72383689 20.4999767,3.56836138 C20.4919584,3.52535274 20.4646062,3.50037675 20.4242398,3.48768895 C20.3965129,3.47732392 20.3786778,3.45749299 20.3688609,3.4299195 C20.3177286,3.33588492 20.2385945,3.27107224 20.1482698,3.21809817 C20.137254,3.21667454 20.1265878,3.21407704 20.1159967,3.21095504 C20.0673622,3.18952565 20.0344646,3.15376004 20.0179284,3.10313372 C19.9389442,2.96873794 19.7923414,2.90402517 19.6941482,2.78951028 C19.5559134,2.68790797 19.4506012,2.54069952 19.2761965,2.48969856 C19.1491774,2.43060538 19.0373455,2.35135658 18.9485445,2.24158713 C18.8054388,2.09894928 18.6536653,1.96992334 18.4508343,1.91992142 C18.3778951,1.90618463 18.3173705,1.8718926 18.2721832,1.8121001 C18.2620167,1.78502613 18.2527744,1.75777733 18.2262465,1.74066878 C17.954448,1.5654123 17.6729575,1.4077389 17.3792523,1.27211931 C17.3552973,1.26105495 17.3302931,1.26697426 17.3056386,1.26605014 C17.2483364,1.25783305 17.2007261,1.23220768 17.1637069,1.18742574 C17.0682614,1.08047858 16.9280283,1.04833449 16.8063547,0.995859942 C16.5335071,0.878198079 16.2642814,0.747898367 15.9759217,0.6682 C15.9282614,0.65501268 15.882025,0.634357541 15.8306928,0.647544861 C15.7250308,0.632384438 15.6162465,0.625765802 15.5345146,0.542995389 C15.5263464,0.533829203 15.5654388,0.514672622 15.5231241,0.509227858 C15.4119667,0.494941595 15.307204,0.452832085 15.1994938,0.423485303 C15.1642981,0.413894524 15.1119667,0.4145439 15.1133156,0.354401729 C15.1618002,0.300378674 15.2310175,0.295358501 15.2945146,0.281946398 C15.9068293,0.152645725 16.5198934,0.0285650336 17.1498934,0.0262172911 C17.2198351,0.0259675312 17.289627,0.0109569645 17.3602681,0.0152528338 C17.41205,0.0152778098 17.4638318,0.0152028818 17.5156386,0.0152528338 C17.583607,0.0152778098 17.6515504,0.0152028818 17.7194938,0.0152528338 C17.8964463,0.0152778098 18.0733739,0.0152028818 18.2502515,0.0152528338 C18.3166461,0.0152778098 18.3830908,0.0152278578 18.4494355,0.0152528338 C18.4910508,0.0152528338 18.532766,0.0152278578 18.5743564,0.0152528338 C19.2506428,0.0239444765 19.9161882,0.117104899 20.5756137,0.26451316 C21.7000017,0.515846494 22.7686861,0.913489145 23.7757469,1.47377541 C24.501542,1.87756215 25.1801266,2.3487341 25.8106261,2.8908878 C26.6492023,3.6119195 27.370776,4.43505303 27.985189,5.35244592 C28.4029908,5.97632104 28.7526495,6.63783497 29.0478535,7.32842094 C29.4544147,8.27940653 29.7199434,9.26955447 29.8729908,10.2906476 C29.9186028,10.5946803 29.956821,10.9002365 29.9524246,11.2090396 C29.9515504,11.27103 29.953149,11.3328455 29.9774538,11.3914642 L29.9774538,11.4414161 C29.9499017,11.5049051 29.9716336,11.5716159 29.9645895,11.6365535 C29.961567,11.8784709 29.9708593,12.1203633 29.9595937,12.3621059 C29.9546885,12.3625938 29.9498438,12.3628908 29.9450661,12.3630043 C29.9462713,12.3635606 29.9474761,12.3641178 29.9486803,12.3646759 C29.9509534,12.3819842 29.9532515,12.3993176 29.9555495,12.4166509 C29.9556245,12.4666279 29.9556994,12.5166298 29.9557993,12.5666067 C29.8949251,13.5857768 29.7329101,14.587089 29.4278143,15.5631754 C29.4144005,15.6060592 29.3954663,15.6472446 29.3791299,15.6892042 C29.2920525,15.6451716 29.2677227,15.6726202 29.2520858,15.8502993 C29.2688718,15.798674 29.2550833,15.7605356 29.2671482,15.732113 C29.286582,15.6864569 29.3113863,15.6225933 29.3794047,15.6885049 C29.3507535,15.8393848 29.2972481,15.981723 29.2318027,16.120015 C29.1063072,16.5207322 28.931428,16.9010915 28.7474813,17.2770549 C27.9685054,18.8690742 26.885458,20.2197255 25.5125271,21.3391241 C25.4709868,21.3729915 25.4257496,21.4023132 25.382236,21.4337828 C24.923343,21.8126713 24.4267818,22.1362851 23.9114113,22.431726 C22.7047669,23.1234859 21.4129933,23.5810709 20.0451332,23.8251362 C19.6286803,23.8994398 19.2079309,23.9436223 18.7862073,23.97724 C18.7601291,23.9793379 18.7257577,23.9659508 18.7118443,24.0043389 L18.6369067,24.0043389 C18.592219,23.9779643 18.5433097,23.9976204 18.4966986,23.9914763 C18.4386969,23.9914763 18.3808201,23.9915512 18.3228435,23.9914763 C18.0988801,23.9915012 17.8750167,23.9915262 17.6512032,23.9915012 C17.5912781,23.9914763 17.5312781,23.9915262 17.471353,23.9915012 C17.4275146,23.9915012 17.3836511,23.9915262 17.3398127,23.9915012 C17.2964988,23.9914763 17.2531599,23.9915262 17.209846,23.9915012 C16.5704538,23.9927001 15.9456495,23.8818817 15.3244671,23.7445387 C15.20704,23.7185637 15.0869151,23.7024042 14.9743589,23.656873 C14.7975062,23.5748269 14.603443,23.5475281 14.4208701,23.4839892 C14.3063405,23.4441276 14.1766486,23.4386079 14.0852998,23.3434494 C14.0887219,23.3239182 14.0999376,23.3166252 14.1193714,23.3225445 C14.1175229,23.3005656 14.1025104,23.3166002 14.0940924,23.3142275 C13.8032348,23.2328807 13.5261157,23.1158183 13.25097,22.9931112 C13.1430849,22.9450075 13.039796,22.8819182 12.9169983,22.8755493 C12.8394879,22.8769729 12.7796878,22.8294436 12.7125687,22.80197 C12.5982639,22.7290402 12.4600541,22.69802 12.3591382,22.6014129 C12.3470733,22.5799585 12.3384305,22.5530094 12.3148251,22.5434436 C12.1744921,22.4866482 12.0655329,22.365165 11.9071399,22.3461333 C11.7343089,22.2706809 11.5665487,22.1868615 11.4303872,22.0518163 C11.328597,21.9151477 11.1716778,21.8472131 11.0405121,21.7486578 C10.8853664,21.6321199 10.7320441,21.5123351 10.5727019,21.4005675 C10.563013,21.3848431 10.5604894,21.3705168 10.5639931,21.3573243 C10.486829,21.3631114 10.4497853,21.2958453 10.3957993,21.2602999 C10.3627019,21.2384959 10.3387968,21.1997331 10.2903122,21.2166419 C10.2575895,21.2147687 10.2386303,21.1962115 10.2291632,21.1661404 C10.2279392,21.1004786 10.1776811,21.0736044 10.1315196,21.0434834 C9.84690674,20.8004421 9.58809742,20.5305766 9.32349292,20.2667552 C9.28839717,20.2317639 9.25744796,20.1912778 9.20798918,20.1740444 C9.1582806,20.1524152 9.11971274,20.1201962 9.10537469,20.065199 C9.08269359,19.9898715 9.05331807,19.9211625 8.95889675,19.9160175 C8.87574105,19.8727591 8.84549126,19.7782999 8.77290175,19.7247014 C8.68082848,19.584761 8.54116986,19.4790127 8.47914654,19.3172682 C8.47549958,19.2970876 8.47684846,19.2751337 8.46398418,19.2578753 C8.31166112,19.0533969 8.17135304,18.8398523 8.00276853,18.647737 C7.93727311,18.6033796 7.89715654,18.5418638 7.87967111,18.4650626 C7.87867194,18.4182826 7.86595754,18.3728513 7.83795587,18.3374603 C7.74518318,18.2201232 7.67818901,18.0878503 7.60699833,17.9577255 C7.58743963,17.9219598 7.56530808,17.8858196 7.52344296,17.86981 C7.4115612,17.7655852 7.37451707,17.6170031 7.29885512,17.4910991 C7.29803081,17.478811 7.29858035,17.4665727 7.3000791,17.4543844 C7.30145296,17.3090991 7.20440883,17.2022519 7.14858035,17.0806938 C7.00522481,16.768469 6.87198585,16.452323 6.74661532,16.1325305 C6.7191632,15.9661904 6.64337635,15.8153854 6.59276853,15.6565381 C6.57605512,15.6041145 6.56285527,15.5523314 6.56276908,15.4977839 C6.51993525,15.4686903 6.51613671,15.4121291 6.50687261,15.3693393 C6.47397502,15.2173604 6.42039467,15.0718254 6.38162698,14.9220694 C6.35195171,14.8175199 6.31982848,14.71337 6.3128343,14.6037005 C6.31178518,14.5871164 6.32290092,14.6028763 6.31278435,14.5947341 C6.29987011,14.5843191 6.3098368,14.6126419 6.29707244,14.613541 C6.22902914,14.5336928 6.23120233,14.4346131 6.22186012,14.3386803 C6.19738052,14.1803076 6.17290092,14.0219099 6.14842132,13.8635622 C6.196806,13.7026169 6.17719734,13.5422711 6.14130225,13.3829743 C6.11290092,13.2568955 6.10650624,13.1317159 6.14549875,13.0074104 C6.15261782,12.9847572 6.17847127,12.9638523 6.15406661,12.9417485 C6.12681432,12.9171222 6.12376686,12.9648763 6.11242631,12.9628033 C6.08367527,12.9575333 6.09838801,12.9299598 6.09801332,12.9126265 C6.09066944,12.5776986 6.05967027,12.2433451 6.07213489,11.9079176 C6.07305912,11.8825919 6.07086095,11.8578407 6.04763031,11.8411068 C6.14469942,11.5417447 6.22990341,11.237687 6.39626478,10.9659233 C6.396354,10.9656992 6.39644334,10.9654752 6.39653279,10.9652515 C6.52033997,10.6418169 6.7134192,10.3575132 6.90567527,10.073409 C7.00521732,9.92630048 7.11604996,9.78685956 7.22178684,9.64397195 C7.38322731,9.52019097 7.48619151,9.33983939 7.64178684,9.21021402 C7.69526728,9.16563189 7.744801,9.1163293 7.79613322,9.06919962 C8.02087094,8.89414294 8.24560866,8.71911124 8.47034638,8.54405456 C8.71381848,8.40843497 8.95781515,8.27376446 9.20031307,8.13644649 C9.24699917,8.1100219 9.28963863,8.07717848 9.34461782,8.06956081 C9.77455953,7.89243112 10.2154921,7.74974332 10.6687144,7.6452438 C10.6967161,7.61632161 10.732761,7.60977791 10.7706545,7.60830432 C10.981204,7.57183939 11.1913289,7.53130336 11.4066245,7.53460019 C11.7038768,7.53959539 12.001179,7.52593353 12.2982565,7.53939558 C12.520846,7.56015062 12.7422864,7.58987205 12.9621032,7.63133218 C13.0441848,7.64681729 13.1247177,7.66527454 13.1914371,7.71999693 C13.3397136,7.76924957 13.48799,7.81850221 13.6362914,7.86775485 C13.3180816,8.22451182 13.0257752,8.59967608 12.7865495,9.01572603 C12.5180483,9.48265207 12.325259,9.97944938 12.1750341,10.4945541 C12.1269992,10.5113379 12.1269992,10.5113379 12.1110624,10.449947 C12.1035937,10.514435 12.0945762,10.5627385 12.1497052,10.5937837 C12.1464333,10.6450039 12.1432613,10.696249 12.1155427,10.7418265 Z M24.0920561,11.737001 C24.0978369,11.7018049 24.0904401,11.669327 24.0997044,11.6382494 C24.1000791,11.6215904 24.0723522,11.6454175 24.0875645,11.638649 C24.0962761,11.6721298 24.0989326,11.7053685 24.0926116,11.7369393 C24.0924269,11.7369606 24.0922417,11.7369811 24.0920561,11.737001 Z M24.0307197,11.2084704 C24.0185375,11.3361308 24.0209017,11.4642685 24.0193464,11.5922686 C24.0224938,11.5300784 24.0172481,11.4677383 24.022169,11.4061725 C24.0227685,11.3910621 24.0660575,11.3894886 24.0361074,11.3632388 C24.0261494,11.3096455 24.0076602,11.256577 24.0277222,11.2027441 C24.028641,11.2046829 24.0296394,11.2065919 24.0307197,11.2084704 Z M23.9820032,11.0697811 C23.9806288,11.0692313 23.9792377,11.0686059 23.9778285,11.0679003 C23.9915171,11.0790646 23.9578201,11.0616813 23.9721582,11.0561366 C23.9818251,11.0523902 23.9671124,11.0449723 23.967562,11.0466957 C23.9712827,11.0605012 23.9755072,11.0742378 23.9772279,11.0875866 C23.9788061,11.0816477 23.9803957,11.0757119 23.9820032,11.0697811 Z"/>
      <path d="M16.7217148,8.31162421 C16.6840277,8.31107269 16.6573298,8.28292398 16.6318901,8.25258482 C16.2919234,7.84694986 15.9169609,7.47807954 15.4893172,7.16450605 C15.4622398,7.14465014 15.4382098,7.12172219 15.4304413,7.08700557 C15.4278435,7.07134563 15.4462781,7.05074044 15.4385346,7.04494601 C15.4222981,7.03278271 15.4057119,7.05643497 15.3869775,7.05653487 C15.3509825,7.05653487 15.3229559,7.04237349 15.3049209,7.01060403 C15.2854621,6.96309971 15.2527394,6.93510163 15.1984346,6.93894793 C15.1037635,6.93177983 15.0462614,6.84678655 14.9585346,6.8251074 C14.9330308,6.81311892 14.9078018,6.80053103 14.8826728,6.78779328 C14.8420816,6.76666359 14.8051873,6.74068857 14.7750375,6.70582209 C14.7405412,6.65087493 14.6627061,6.64675389 14.6335803,6.58591239 C14.6301582,6.52104976 14.5778768,6.56550701 14.5522231,6.55037157 C14.4642714,6.53828319 14.38796,6.49879616 14.3156703,6.45016792 C14.3039051,6.40728415 14.2777019,6.393922 14.2361865,6.41212949 C14.2190758,6.41567608 14.2023147,6.41480192 14.1856786,6.40955696 C14.1631176,6.39594753 14.1328801,6.38775226 14.138753,6.353951 C14.1025906,6.37615179 14.0605659,6.36251849 14.0242306,6.35029894 C13.7439142,6.2560146 13.458552,6.18023746 13.1716661,6.10943055 C12.9704588,6.08180711 12.7711998,6.03964765 12.5675695,6.03135562 C12.1693264,5.9781318 11.7710833,5.9922682 11.3728651,6.03155543 C11.2160958,6.04501748 11.0595512,6.060078 10.9060291,6.09646801 C10.722582,6.14956695 10.5334147,6.18081191 10.351816,6.24100403 C10.2851965,6.2571635 10.2180275,6.27157464 10.1524571,6.29190509 C9.98354788,6.34552853 9.81373938,6.3968292 9.65414738,6.47557848 C9.64408077,6.48097329 9.63348959,6.48536907 9.62282348,6.48941518 C9.59102498,6.49960538 9.5602756,6.51224323 9.53247377,6.53134986 C9.52273189,6.53734409 9.51246545,6.54213948 9.50189925,6.54641037 C9.36903497,6.58612219 9.25080849,6.65318271 9.14237386,6.73845072 C9.10930142,6.77181864 9.06751124,6.79167454 9.02687011,6.81340365 C9.00081682,6.82659097 8.97398918,6.83790509 8.94658701,6.84807032 C8.83225729,6.87671777 8.75522148,6.97230086 8.64806078,7.01436042 C8.64781243,7.01436738 8.64756437,7.01437333 8.64731662,7.01437828 C8.62700158,7.0941237 8.54325909,7.11175374 8.48966778,7.15679846 C8.37646211,7.25193199 8.26695337,7.35328453 8.13466361,7.42354198 C7.97242381,7.49837003 7.86099167,7.63426436 7.74089176,7.75787051 C7.66757785,7.83332296 7.5675612,7.88846993 7.53663697,8.00013756 C7.51810241,8.0695708 7.45283181,8.10528646 7.41905995,8.16380519 C7.33517985,8.26138636 7.26646211,8.37207992 7.1675945,8.45679846 C7.13304829,8.48284841 7.10552123,8.51486763 7.08606245,8.55375524 C7.072199,8.57805687 7.05561282,8.60021057 7.03542964,8.61961691 C6.92042548,8.76662555 6.81111657,8.91678117 6.7624821,9.10130375 C6.74035054,9.18240077 6.69718651,9.25071009 6.63651207,9.30845456 C6.53080017,9.42376868 6.49617902,9.57594736 6.4312831,9.71181671 C6.37483014,9.8299781 6.32499667,9.95258521 6.29299833,10.0811866 C6.2837111,10.1185027 6.27014981,10.1560594 6.23869945,10.1812782 C6.25284411,10.2360167 6.23071832,10.2874389 6.21256536,10.3383892 C6.18723647,10.409346 6.17367277,10.4803527 6.1942806,10.5548061 C6.16692839,10.8138321 6.09561282,11.06559 6.06866028,11.3251404 C6.05946794,11.4136304 6.08134971,11.5088138 6.02826894,11.5911347 C6.01425562,11.5992019 6.00134138,11.5976284 5.98965112,11.5865391 C5.9856045,11.5640857 5.98215737,11.5415573 5.99359784,11.5192038 C5.95276649,11.9965228 6.00924464,12.4726463 6.00811605,12.9496385 C6.01934556,12.9602931 6.02441565,12.9776493 6.03090175,12.9935037 C6.07246711,13.1018745 6.05235887,13.2151906 6.05717985,13.3265085 C6.05985262,13.3883741 6.04983597,13.4513885 6.07479017,13.5111061 C6.12827061,13.7335422 6.12594754,13.9626469 6.15220067,14.1883299 C6.23265862,14.8802646 6.34309159,15.5667045 6.49121815,16.2472501 C6.51499833,16.3565201 6.5379542,16.4659149 6.56890341,16.5733366 C6.62530641,16.807911 6.68473189,17.0417612 6.75472356,17.272789 C6.87897002,17.7566488 7.04935304,18.2253731 7.22155953,18.693448 C7.24726311,18.7832117 7.28408243,18.8688544 7.3200025,18.9548217 C7.46061032,19.3051598 7.6016428,19.6553232 7.77352456,19.9919495 C7.89057702,20.2797977 8.05801249,20.5424451 8.18957785,20.8230004 C8.29281682,21.0309255 8.4195612,21.2252386 8.5388368,21.4238976 C8.63907827,21.6157132 8.76354954,21.7922434 8.88447377,21.9709466 C8.98891174,22.1090638 9.06637219,22.2664125 9.18604746,22.3937151 C9.29550624,22.5794365 9.43244213,22.745277 9.5644821,22.9146642 C9.70806245,23.1036325 9.86133472,23.2846834 10.0153314,23.4651598 C10.143,23.6090215 10.2667719,23.7566546 10.4182956,23.8771887 C10.0377127,23.8426968 9.66437386,23.7659956 9.29295837,23.680228 C7.48411574,23.2626546 5.85772107,22.4678438 4.42166778,21.293498 C2.77134305,19.9439207 1.56095171,18.2715787 0.795114904,16.2801185 C0.735714405,16.1256671 0.671093256,15.972864 0.632175687,15.8112194 C0.646014155,15.771033 0.63237552,15.7391387 0.602350541,15.7121646 C0.559036636,15.634814 0.539652789,15.5498957 0.523840966,15.4638534 C0.527013322,15.4353308 0.521792673,15.4092809 0.501259784,15.3878265 C0.405264779,15.1110427 0.33759617,14.8269408 0.282716903,14.5395671 C0.356430475,14.4695595 0.351109908,14.4411118 0.254440466,14.3882377 C0.192991674,14.1758419 0.168487094,13.9565777 0.134215654,13.7391618 C0.155023314,13.6959783 0.145506245,13.6547429 0.126422148,13.6140571 C0.109786012,13.5917285 0.100368859,13.5676517 0.108362198,13.5393539 C0.135114904,13.5043376 0.127796003,13.4713443 0.102292256,13.4394999 C0.0940990841,13.4065316 0.0743405495,13.3756613 0.0839825146,13.3394461 C0.0666369692,13.1639973 0.0495262281,12.988566 0.0317160699,12.8131846 C0.0289933389,12.7865103 0.039459617,12.753517 0.00244046628,12.7401798 L0.00244046628,12.6652519 C0.0301174022,12.6049099 0.0081856786,12.5410963 0.0152797669,12.4792557 C0.0152797669,12.4130444 0.0152298085,12.346908 0.0152797669,12.2806966 C0.0152797669,12.0960242 0.0152298085,11.9114017 0.0152547877,11.7268292 C0.0152797669,11.6591942 0.0152298085,11.5915343 0.0152547877,11.5239243 C0.0152797669,11.4725237 0.0152298085,11.4210982 0.0152797669,11.3696976 C0.0192264779,11.3267389 0.00603746878,11.2824565 0.025071607,11.2406467 C0.0657377186,10.8186774 0.101882598,10.3961587 0.1771199,9.97836042 C0.181366361,9.95483305 0.191183181,9.93230471 0.198402165,9.90930183 C0.241691091,9.53358809 0.3393597,9.16918847 0.438002498,8.80591278 C0.665862614,7.96651988 0.989043297,7.16394159 1.3944055,6.39448146 C1.40969276,6.36550932 1.4292015,6.33878501 1.44673689,6.31101172 C1.78378102,5.65401844 2.20080849,5.04944976 2.66177435,4.47490221 C3.23924313,3.75511931 3.89672023,3.11523458 4.62129142,2.54408377 C4.6538393,2.51845841 4.68866028,2.49575524 4.72243214,2.47167839 C4.7296253,2.44823046 4.75092882,2.44673153 4.76971024,2.44133756 C4.81342381,2.4442098 4.82356536,2.40314928 4.84839467,2.38127032 C5.40545545,1.95033468 6.00715404,1.59180442 6.634806,1.27433468 C7.67966028,0.745792891 8.78214155,0.392008069 9.93240799,0.183808261 C10.365597,0.105408646 10.8040566,0.0655219981 11.2421665,0.025035927 C11.2918501,0.0243865514 11.3415087,0.0237371758 11.3911923,0.0230878002 C11.4328576,0.0235123919 11.4745479,0.0239369837 11.5162132,0.0243365994 C11.5827827,0.0249110471 11.6493522,0.0255104707 11.7159217,0.0260849183 C11.9084363,0.0261598463 12.1010008,0.0262847262 12.2935404,0.0263846302 C12.3603097,0.0257852065 12.4270291,0.0252107589 12.4937735,0.0246113353 C12.5352639,0.0243365994 12.5767294,0.0240868396 12.6181948,0.0238370797 C12.6599101,0.0236622478 12.7016253,0.0235123919 12.7433655,0.02333756 C13.488045,0.0815565802 14.2249059,0.188703554 14.9490774,0.375648799 C14.9766794,0.382766955 15.006055,0.382891835 15.0346311,0.386238617 C15.2065878,0.415735255 15.378045,0.446930259 15.5349392,0.529101249 C15.6294604,0.580801537 15.7361216,0.596761191 15.8363131,0.631827474 C15.9470708,0.640943708 16.04996,0.673787128 16.1439067,0.733554659 C16.1559967,0.745343324 16.1164796,0.755958117 16.1406595,0.764325072 C16.4527744,0.872171374 16.7575953,0.997001345 17.0489775,1.15302632 C17.0852223,1.17245764 17.1210175,1.16454025 17.1576869,1.16341633 C17.1699767,1.16439039 17.1796686,1.17008492 17.1871124,1.17975062 C17.2233072,1.21421748 17.269244,1.23030202 17.3146062,1.24746052 C17.4037069,1.25947397 17.4773455,1.30435581 17.547637,1.35660557 C17.5871041,1.4194951 17.6573955,1.44057483 17.7149226,1.47868818 C17.8114172,1.54260173 17.9369126,1.56495524 17.9991357,1.67784669 C18.0876869,1.65371988 18.1405429,1.7214048 18.2055137,1.75799462 C18.2088609,1.76274006 18.2121082,1.7675854 18.2153555,1.77240576 C18.2160218,1.77567227 18.2167609,1.77885578 18.21757,1.78195928 C18.238917,1.74414982 18.2630529,1.76912217 18.287453,1.80007416 C18.3425321,1.83898674 18.3941391,1.88376868 18.4615079,1.90157656 C18.6431066,1.98519616 18.8109167,2.08959577 18.955771,2.22873698 C19.0653047,2.31208184 19.1748385,2.39545168 19.2843972,2.47879654 C19.4311249,2.53983785 19.5408834,2.64875812 19.6489933,2.76000115 C19.6571116,2.78317887 19.6640058,2.80730567 19.6836145,2.82403958 C19.8342639,2.95246609 19.9820408,3.08426436 20.1373114,3.20722113 C20.1369117,3.20232584 20.136562,3.19745552 20.1362373,3.19256023 C20.2419992,3.24533449 20.3146137,3.33302517 20.3822073,3.42601076 C20.3990683,3.443444 20.4159042,3.46087723 20.4327902,3.47831047 C20.4696595,3.49019904 20.4936644,3.51517502 20.5069784,3.55106551 C20.6416661,3.70004726 20.7763789,3.84902901 20.9110916,3.99801076 C21.0128068,4.11307512 21.0896428,4.2513172 21.2250799,4.33488684 C21.3430316,4.44665437 21.4438976,4.57195889 21.5235062,4.71404726 C21.5412165,4.84547089 21.6540475,4.91815101 21.7203172,5.01855447 C21.7696761,5.09333256 21.7987519,5.19401076 21.8961207,5.2323489 C21.948577,5.2646928 21.9748801,5.31322113 21.9826486,5.37306359 C21.9907918,5.38977253 21.99896,5.40645648 22.0071532,5.42316542 C22.0408002,5.56015869 22.1578526,5.64827397 22.2122823,5.77290413 C22.2410833,5.83881575 22.3039059,5.89188972 22.2899425,5.97436042 C22.1758127,5.99883689 22.2381107,6.08467935 22.2466786,6.13568031 C22.2523239,6.16914813 22.3092764,6.18408377 22.3540391,6.13882728 C22.3785805,6.11406511 22.4154478,6.13215309 22.4274001,6.17270645 C22.4736976,6.18376676 22.4654915,6.25495273 22.5123897,6.26539558 C22.5735637,6.35246186 22.6266694,6.44367416 22.6568443,6.54667512 C22.6914405,6.68911316 22.7919567,6.79923228 22.8439134,6.93452719 C22.9494754,7.20931297 23.0983264,7.4663658 23.1836053,7.74984323 C23.2148293,7.84310355 23.2427061,7.93751278 23.2795254,8.02904976 C23.2945129,8.0663389 23.314796,8.10585091 23.2979351,8.14836004 C23.272756,8.21187397 23.3066778,8.24913814 23.3541632,8.28158194 C23.3718336,8.31424889 23.3835914,8.3463049 23.3599558,8.37491504 C23.4883584,8.73305238 23.5782124,9.10163233 23.6571882,9.47317867 C23.6631513,9.50118933 23.6691021,9.52919998 23.6750493,9.55721064 C23.6813478,9.54323008 23.6898243,9.53013235 23.7010266,9.51816042 C23.7511599,9.50824496 23.7480375,9.54713256 23.7573047,9.57750336 C23.791801,9.69089433 23.7938243,9.81070413 23.8272465,9.92412008 C23.8370383,9.96835255 23.8273963,10.0142334 23.8379625,10.0584909 C23.8441324,10.0712536 23.842234,10.0827176 23.8323422,10.0928578 C23.8636162,10.355755 23.8957394,10.6185524 23.9255396,10.8816244 C23.9315845,10.9348982 23.9289617,10.989121 23.9303106,11.0429193 C23.9083789,11.1198703 23.9218926,11.1984448 23.9190699,11.2762949 C23.9242656,11.229415 23.9017594,11.1795629 23.9350316,11.13583 C23.9414013,11.1397512 23.9478709,11.1434227 23.9545154,11.1468694 C23.9793697,11.1771402 23.9728751,11.2088348 23.9587868,11.240879 C23.9590366,11.2663794 23.9592864,11.2918799 23.9595112,11.3173804 C23.9756478,11.3714035 23.965806,11.4258511 23.9620841,11.4802988 C23.9587369,11.6457646 23.9358809,11.8105812 23.9625587,11.9765716 C23.9824627,12.1003507 23.9459712,12.2206635 23.9228363,12.3414678 C23.9692027,12.4303752 23.9473338,12.5144086 23.8874963,12.5957837 C23.8373131,12.6258548 23.8204771,12.5615416 23.762975,12.5541487 C23.7811599,12.7513591 23.8240991,12.9404273 23.8329667,13.1327174 C23.8300941,13.2056223 23.830244,13.2788519 23.7960974,13.3462371 C23.7896528,13.386848 23.8046403,13.429532 23.7840075,13.4686694 C23.7855812,13.4759623 23.784582,13.4829057 23.781035,13.4894744 C23.7406936,13.5237414 23.7743655,13.5989441 23.7091449,13.6194494 C23.6941823,13.6037645 23.6913097,13.5863562 23.696955,13.5756915 C23.6816428,13.6144792 23.6998526,13.6613591 23.7039492,13.7085137 C23.6973047,13.7713034 23.6705021,13.8290728 23.6595112,13.8906886 L23.6604105,13.8899892 C23.6143988,13.9663908 23.5889201,14.0506348 23.5664888,14.1360027 C23.5148068,14.1651497 23.5540991,14.2382294 23.5031415,14.267726 C23.4986703,14.2904792 23.4598276,14.2218701 23.4689201,14.2805387 C23.4718926,14.2998451 23.4772881,14.3188019 23.4767136,14.3387827 C23.4381957,14.4867155 23.3605604,14.6167404 23.2893197,14.7496127 C23.2681873,14.7890747 23.2430583,14.8265137 23.2351649,14.8717702 C23.2034163,14.9267673 23.1928501,14.9932784 23.1442157,15.0390843 C23.129403,15.0460027 23.1164138,15.0558682 23.1026753,15.0644599 C23.0646819,15.1188327 22.9904938,15.1531996 23.0071299,15.2377183 C22.9995862,15.2530286 22.9920175,15.2683639 22.9844738,15.2836991 C22.9572465,15.327507 22.9375878,15.3754859 22.9104355,15.4192688 C22.8999442,15.4384503 22.8873547,15.4562582 22.8730416,15.4727923 C22.8481124,15.4989422 22.8232331,15.5252169 22.8030999,15.5555627 C22.7770966,15.5805887 22.7508185,15.6053399 22.7348568,15.6386329 L22.7349317,15.6389076 C22.7272132,15.6456761 22.7185454,15.6507712 22.7090283,15.6545176 C22.687796,15.6617107 22.6780541,15.6774955 22.6755562,15.6988999 C22.6716095,15.7137107 22.6672881,15.7282467 22.6532748,15.7370882 C22.6416345,15.7464792 22.6299942,15.7558951 22.6183539,15.7652861 C22.5456894,15.7922601 22.5491116,15.9256069 22.435856,15.8958605 C22.438204,15.8976088 22.4148734,15.8893418 22.434632,15.9032284 C22.5054729,15.9532054 22.4366553,15.9805041 22.4102523,16.0140219 L22.4107019,16.0151958 C22.3051399,16.0936953 22.2188118,16.1911516 22.1372048,16.2932534 C22.0700858,16.3586905 22.0029667,16.4241276 21.9358476,16.4895646 C21.9169883,16.4863677 21.8983539,16.4910632 21.8795695,16.4911881 C21.8905354,16.4989806 21.9056728,16.5004042 21.9134413,16.513117 C21.8039326,16.6468384 21.647363,16.7234398 21.5209684,16.8367059 C21.5052814,16.8422755 21.4900941,16.8498432 21.4732831,16.8491189 C21.4558476,16.8505925 21.4560974,16.8088077 21.4291699,16.8306617 C21.4203522,16.8378298 21.4081124,16.838604 21.3982706,16.8442236 C21.408562,16.8554628 21.4264221,16.8429249 21.4364388,16.8565618 C21.4496778,16.8857337 21.4263722,16.8971477 21.4102856,16.9120085 L21.4102107,16.9120834 C21.3914263,16.9258202 21.3700441,16.93124 21.3471632,16.9317395 C21.2760974,16.9336876 21.2183206,16.95197 21.2152231,17.0381871 C21.1888951,17.0553456 21.162592,17.0725541 21.1362639,17.0897126 C21.1245737,17.086166 21.1130333,17.0812707 21.1006936,17.0811708 C21.084557,17.0810209 21.0687952,17.0863159 21.0525087,17.0854916 C21.0611016,17.099628 21.0826336,17.0967308 21.0892531,17.1134647 C20.9955562,17.1993572 20.8741823,17.2408672 20.7711182,17.3117241 C20.6811682,17.3508615 20.5983122,17.4053341 20.5039908,17.4350555 C20.4997943,17.4350056 20.4956228,17.4349556 20.4914013,17.4349057 C20.4363472,17.4739681 20.3711765,17.4909768 20.310577,17.5179009 C20.272234,17.5556895 20.2208518,17.5667539 20.1730416,17.5852111 C20.1380708,17.5972995 20.1019009,17.6059412 20.068154,17.6215262 C20.0266386,17.6283197 19.9897943,17.6535704 19.9463306,17.6528961 C19.8931749,17.6417568 19.8405937,17.6439297 19.7892115,17.6618624 C19.7868385,17.6626866 19.757438,17.6515474 19.7782206,17.6743504 C19.7832664,17.6798701 19.7913097,17.6832918 19.7957061,17.6910344 C19.7975046,17.702923 19.7947319,17.713238 19.7867136,17.7220296 C19.7727252,17.7271247 19.7587369,17.7322448 19.7447735,17.7373648 C19.6994863,17.7484542 19.6529001,17.7544234 19.6093114,17.7720565 C19.4531166,17.8067232 19.3027669,17.8686636 19.1399775,17.872385 C18.8367802,17.9403197 18.5265637,17.9651458 18.2189201,17.9823793 C18.0086453,17.9941429 17.794249,17.9976146 17.5787535,17.9665695 C17.3094779,17.9277817 17.0351316,17.9164177 16.7686536,17.8573245 C16.2907519,17.7513264 15.8244654,17.6074398 15.3800608,17.3982659 C15.2727002,17.3477145 15.1894446,17.2516069 15.0652481,17.2337241 C15.0398443,17.2188634 15.0144405,17.2040277 14.9890366,17.189167 C15.0101191,17.1220565 15.0735162,17.099653 15.1244738,17.0675839 C15.5234413,16.8164503 15.8951565,16.5295512 16.223358,16.1919758 C17.0053564,15.3877241 17.5343905,14.4413591 17.7913014,13.346362 C17.8043905,13.2905406 17.8090366,13.2301737 17.8556478,13.1875646 C17.9296112,13.1814955 17.8835745,13.246458 17.905806,13.268362 C17.8957394,13.2191842 17.8922423,13.1688327 17.9368301,13.1276722 C17.9485704,13.1168327 17.9512931,13.0989748 17.9484954,13.0820161 C17.9440241,13.0953533 17.9455729,13.1142352 17.9263389,13.1160085 C17.8989117,13.1185061 17.8813764,13.1024215 17.8689867,13.0793687 C17.848204,13.0202755 17.8628668,12.9659028 17.8903689,12.9131785 C17.9561391,12.8376261 17.958562,12.736923 17.9940325,12.6493072 C18.020985,12.5827212 17.9534913,12.5459566 17.9371549,12.4923331 C17.9335488,12.4143267 17.8987513,12.3307957 17.9514918,12.2628758 C17.9513532,12.2609079 17.9512203,12.258925 17.9510933,12.256927 C17.9553147,11.6108732 17.8858226,10.9741354 17.7127669,10.3499356 C17.6918851,10.2746034 17.6358185,10.2002444 17.6853462,10.116149 C17.5080141,9.624088 17.2916926,9.15078448 17.0023089,8.71348415 C16.9121837,8.57728095 16.8156833,8.44530428 16.7217148,8.31162421 Z" opacity=".376"/>
    </g>
    <path fill-opacity=".307" d="M6.03297349,12.5245109 C6.87210371,15.4509453 6.88611211,23.929775 18.6833028,24.6495476 C12.7393747,25.4333949 10.4183863,24.6495476 10.3858702,24.5225848 C7.25912521,22.2838167 5.65570555,14.4043035 6.03297349,12.5245109 Z"/>
    <path fill-opacity=".326" d="M13.6290202,8.49489511 L14.8990813,7.4098684 C13.6581455,6.67929451 12.282073,6.47029567 10.7708639,6.78287188 C8.50405028,7.25173619 6.71008026,9.13376307 6.33026074,10.552919 C6.07704773,11.4990229 5.99143945,12.1949814 6.07343589,12.6407944 C6.30367146,11.1134124 7.46122764,9.79364618 9.54610444,8.68149573 C10.8321499,8.13072231 12.1931218,8.0685221 13.6290202,8.49489511 Z"/>
  </g>
</svg>
