<svg xmlns="http://www.w3.org/2000/svg" width="60" height="60" viewBox="0 0 60 60">
  <path fill="#FFF" d="M4.05683878,17.5247918 C2.77079964,19.3645918 1.84,21.57 1.84,21.57 C0.27,21.89 0.13,20.82 0.13,20.82 C0.13,20.82 0.45,20.89 0.93,20.19 C1.96608337,18.6817344 2.84176667,17.5704301 3.54646596,16.7604394 C3.92731404,13.8823359 6.0301193,3.12204846 16.16,3.46 C25.82,3.76 28.93,5.91645679e-31 28.93,5.91645679e-31 C28.93,5.91645679e-31 29.0284634,20.1259227 4.05683878,17.5247918 Z M4.87,16.07 L4.83,16.07 C4.83,16.07 9.68,10.24 15,9.71 C18.7408108,9.31475915 22.2065362,7.56054701 24.74,4.78 C21.9892597,6.7392831 18.7644492,7.92700775 15.4,8.22 C9.7,8.78 4.87,16.07 4.87,16.07 Z" transform="translate(16 19)"/>
</svg>
