<svg width="60px" height="60px" viewBox="0 0 60 60" version="1.1" xmlns="http://www.w3.org/2000/svg" xmlns:xlink="http://www.w3.org/1999/xlink">
      <g>
          <path d="M32.3663052,38.7309898 C31.6068312,38.7309898 31.016891,38.5196958 30.6126901,38.1036525 C30.08726,37.5626402 30.0913114,36.8938544 30.0934929,36.8193717 L30.0492396,32.7552356 C30.047993,32.649277 30.0894415,32.5470581 30.1639242,32.4716405 C30.2384069,32.3959112 30.3403141,32.3535278 30.4462727,32.3535278 C31.9181626,32.3535278 32.0319122,31.0932436 32.0397033,30.9495762 C32.0393917,30.3534031 31.8598853,29.9061955 31.4912117,29.6026552 C30.8542134,29.0781601 29.8105211,29.1018449 29.2872725,29.1535777 L29.2872725,36.9789329 C29.2913239,37.0933059 29.285091,37.6196709 28.854712,38.0790327 C28.4492645,38.5115931 27.8147594,38.7309898 26.9683371,38.7309898 L23.7877088,38.7309898 C23.2008851,38.7309898 22.7574171,38.5567814 22.4688357,38.2136624 C22.1004737,37.7751808 22.1369359,37.2316754 22.1571927,37.0718025 L22.1571927,27.8574545 C22.1571927,27.253802 22.3435552,26.7816629 22.7109823,26.4535029 C23.2569808,25.9657816 24.0117801,25.9978808 24.1666667,26.0103465 L25.1589379,26.0103465 L25.1589379,24.7921341 C25.1586263,24.7086138 25.1629893,22.6717153 26.5803416,21.2462603 C27.4538768,20.3674271 28.6596235,19.9217776 30.1642359,19.9217776 C31.5772251,19.9217776 32.7153453,20.35091 33.5474321,21.1970207 C34.9816131,22.6564448 34.9613563,24.8161306 34.9601097,24.907442 L34.9601097,25.9380454 L36.074545,25.9380454 C36.6878584,25.9380454 37.1587509,26.1169284 37.4731987,26.4693967 C37.8755298,26.9206557 37.8602593,27.4809898 37.8490401,27.6218524 L37.8490401,37.0278609 C37.8490401,37.2472575 37.6714036,37.424894 37.452007,37.424894 C37.2326103,37.424894 37.0549738,37.2472575 37.0549738,37.0278609 L37.0549738,27.6037771 C37.0549738,27.5885066 37.0559088,27.5735477 37.057467,27.5585889 C37.057467,27.5585889 37.0858265,27.2229494 36.876714,26.9935802 C36.718711,26.8203067 36.4488282,26.7324233 36.0748566,26.7324233 L34.5633882,26.7324233 C34.3439915,26.7324233 34.166355,26.5547868 34.166355,26.3353902 L34.166355,24.9008975 C34.1666667,24.8756545 34.1788207,22.9674645 32.977437,21.750187 C32.3008601,21.0642608 31.354712,20.7164672 30.1648591,20.7164672 C28.8796435,20.7164672 27.8633757,21.083271 27.1444154,21.8062827 C25.9573672,23.000187 25.9539392,24.772189 25.9542508,24.7899526 L25.9542508,26.4076913 C25.9542508,26.627088 25.7763027,26.8047245 25.5572177,26.8047245 L24.1501496,26.8047245 C24.1351907,26.8047245 24.1202319,26.8037896 24.105273,26.8022314 C24.1021566,26.8009848 23.5670656,26.7511219 23.2376589,27.0490526 C23.0484916,27.219833 22.9525056,27.4918973 22.9525056,27.8574545 L22.9525056,37.1001621 C22.9525056,37.1232236 22.9503241,37.1459736 22.9465844,37.1684119 C22.9465844,37.1684119 22.898903,37.4940788 23.0809025,37.7063077 C23.2121042,37.8590127 23.4501995,37.9366118 23.7886437,37.9366118 L26.969272,37.9366118 C27.5704313,37.9366118 28.0191972,37.8013588 28.2669534,37.5458115 C28.5013089,37.3033533 28.495076,37.0194465 28.4947644,37.0076041 L28.4941411,28.8073423 C28.4941411,28.6178634 28.6281476,28.4545625 28.8138868,28.4177886 C28.8955373,28.4018948 30.8305285,28.0316629 31.9945151,28.987472 C32.5520444,29.4449638 32.8347046,30.1121915 32.8347046,30.9695213 C32.8032286,31.675081 32.3401272,32.9310022 30.8482922,33.1226627 L30.8884941,36.8262279 C30.8881825,36.8424333 30.8881825,37.2519322 31.1904762,37.5570307 C31.4397906,37.8085266 31.8355772,37.9359885 32.3672401,37.9359885 L42.7271877,37.9359885 C44.1657317,35.6335702 45,32.9147968 45,30 C45,21.7155946 38.2844054,15 30,15 C21.7155946,15 15,21.7155946 15,30 C15,38.2844054 21.7155946,45 30,45 C35.0264897,45 39.4720768,42.5252431 42.1939666,38.7303665 L32.3663052,38.7303665 L32.3663052,38.7309898 Z" fill="#FFFFFF"></path>
      </g>
</svg>