<svg width="60px" height="60px" viewBox="0 0 60 60" version="1.1" xmlns="http://www.w3.org/2000/svg" xmlns:xlink="http://www.w3.org/1999/xlink">
        <g id="freshsales-dew">
            <path d="M29,45 C20.72,45 14,38.28 14,30 C14,21.72 20.72,15 29,15 L40.25,15 C42.32,15 44,16.68 44,18.75 L44,30 C44,38.28 37.28,45 29,45 Z M29.15,28.38 C30.7737172,28.38 32.09,27.0637172 32.09,25.44 C32.09,23.8162828 30.7737172,22.5 29.15,22.5 C27.5262828,22.5 26.21,23.8162828 26.21,25.44 C26.21,27.0637172 27.5262828,28.38 29.15,28.38 Z M22.55,29.46 L27.71,34.59 L27.71,37.5 L30.29,37.5 L30.29,34.59 L35.45,29.46 L22.55,29.46 Z" id="Combined-Shape" fill="#FFFFFF"></path>
        </g>
</svg>