<svg width="60px" height="60px" viewBox="0 0 60 60" version="1.1" xmlns="http://www.w3.org/2000/svg" xmlns:xlink="http://www.w3.org/1999/xlink">
        <g id="freshcaller-dew">
            <path d="M29,45 C20.72,45 14,38.28 14,30 C14,21.72 20.72,15 29,15 L40.25,15 C42.32,15 44,16.68 44,18.75 L44,30 C44,38.28 37.28,45 29,45 Z M34.64,32.31 C33.77,32.31 32.96,32.19 32.21,31.92 C31.91,31.74 31.52,31.83 31.25,32.1 L29.84,33.51 C27.95,32.46 26.45,30.96 25.52,29.22 L27.02,27.78 L27.05,27.75 C27.2,27.51 27.32,27.15 27.23,26.85 C26.96,26.04 26.81,25.2 26.81,24.39 C26.81,23.85 26.42,23.46 25.88,23.46 L23.42,23.46 C22.88,23.46 22.49,23.85 22.49,24.39 C22.49,31.11 27.95,36.57 34.67,36.57 C35.21,36.57 35.6,36.18 35.6,35.64 L35.6,33.24 C35.57,32.67 35.18,32.31 34.64,32.31 Z" id="Combined-Shape" fill="#FFFFFF"></path>
        </g>
</svg>