<svg xmlns="http://www.w3.org/2000/svg" width="60" height="60" viewBox="0 0 60 60">
  <g fill="none" fill-rule="evenodd" transform="translate(5 5)">
    <rect width="48" height="48" x="1" y="1" stroke="#FFFFFF" stroke-opacity=".2" stroke-width="2" opacity="0" rx="4"/>
    <path fill="#FFFFFF" d="M22.3360076,33.4860645 C21.284113,34.861424 19.6249827,35.7490524 17.7580916,35.7490524 C14.5783382,35.7490524 12.0003309,33.1748456 12.0003309,29.999315 C12.0003309,29.1864298 12.1696644,28.4132388 12.4741269,27.7126795 C10.9953093,26.8482765 10,25.2326408 10,23.3822185 C10,20.6209426 12.2152705,18.3828692 14.9478315,18.3828692 C15.2966331,18.3828692 15.6365669,18.4191851 15.9646769,18.4888609 C16.7154872,16.4522141 18.671479,15 20.96656,15 C23.1704289,15 25.0613898,16.3386213 25.8730082,18.2477402 C26.4903786,17.946656 27.1837591,17.7773225 27.9168338,17.7773225 C29.6680207,17.7773225 31.1937111,18.7422277 31.9943502,20.170372 C32.4014263,20.0880278 32.8224374,20.0449554 33.253161,20.0449554 C36.7825606,20.0449554 39.6439164,22.9312256 39.6439164,26.4918738 C39.6439164,30.0520997 36.7825606,32.9383699 33.253161,32.9383699 C32.3330172,32.9383699 31.4584795,32.7420107 30.6683973,32.3889863 C29.7592327,34.0088447 28.0519627,35.1000111 26.0951264,35.1000111 C24.6230653,35.1000111 23.292045,34.4822184 22.3360076,33.4860645 Z M14.2936382,24.9891132 L14.4135652,25.3218683 C14.4325677,25.3792981 14.4760623,25.3602956 14.4933757,25.3493163 C14.5263134,25.3294693 14.5512278,25.3113113 14.5938779,25.2863969 C14.9473246,25.0630118 15.27459,25.0609005 15.3772036,25.0609005 C15.6415496,25.0609005 15.8053935,25.2010968 15.8053935,25.3894327 L15.8053935,25.3995674 C15.8053935,25.6056391 15.5532935,25.682916 15.2606549,25.7728612 L15.1960463,25.7927082 C14.7944599,25.9075679 14.3658478,26.0722563 14.3658478,26.5802567 L14.3658478,26.5903914 C14.3658478,27.0722106 14.7543435,27.4083439 15.3109059,27.4083439 L15.371714,27.4087662 C15.6985572,27.4087662 16.0144211,27.3137536 16.2428735,27.1748242 C16.2635651,27.1621558 16.2838345,27.1385083 16.272433,27.1064151 C16.261876,27.0768557 16.1605293,26.8040641 16.1487055,26.7736601 C16.1271693,26.7166525 16.0684727,26.7546576 16.0684727,26.7546576 C15.8683129,26.8652944 15.5575163,26.9522837 15.2957039,26.9522837 C15.0600728,26.9522837 14.9080527,26.8272894 14.9080527,26.6575336 L14.9080527,26.6469767 C14.9080527,26.448506 15.168176,26.3640504 15.4696825,26.2660819 L15.5216227,26.2491908 C15.9215199,26.1229297 16.3475985,25.9481066 16.3475985,25.4667096 L16.3475985,25.4565749 C16.3475985,24.9359062 15.9700819,24.6124412 15.3620016,24.6124412 C15.063451,24.6124412 14.7779911,24.6593141 14.47564,24.8197797 C14.4186325,24.8522951 14.3620473,24.8814323 14.3063066,24.921971 C14.3003947,24.9304165 14.275058,24.9405512 14.2936382,24.9891132 Z M23.1956812,24.9891132 L23.3156081,25.3218683 C23.3333438,25.3763421 23.3848617,25.3564951 23.3958409,25.3493163 C23.4279341,25.3286247 23.4532707,25.3113113 23.4959208,25.2863969 C23.8493675,25.0630118 24.176633,25.0609005 24.2792465,25.0609005 C24.5435926,25.0609005 24.7078587,25.2010968 24.7078587,25.3894327 L24.7078587,25.3995674 C24.7078587,25.6056391 24.4553365,25.682916 24.1626978,25.7728612 L24.0980893,25.7927082 C23.6965029,25.9075679 23.2678907,26.0722563 23.2678907,26.5802567 L23.2678907,26.5903914 C23.2678907,27.0722106 23.6563865,27.4083439 24.2129489,27.4083439 L24.2737569,27.4087662 C24.6006001,27.4087662 24.916464,27.3137536 25.1449165,27.1748242 C25.1656081,27.1621558 25.1858774,27.1385083 25.1744759,27.1064151 C25.163919,27.0768557 25.0625722,26.8040641 25.0507485,26.7736601 C25.0292123,26.7166525 24.9705156,26.7546576 24.9705156,26.7546576 C24.7703559,26.8652944 24.4595592,26.9522837 24.1977469,26.9522837 C23.9621157,26.9522837 23.8100957,26.8272894 23.8100957,26.6575336 L23.8100957,26.6469767 C23.8100957,26.448506 24.0702189,26.3640504 24.3717254,26.2660819 L24.4236656,26.2491908 C24.8235629,26.1229297 25.2496414,25.9481066 25.2496414,25.4667096 L25.2496414,25.4565749 C25.2496414,24.9359062 24.8721249,24.6124412 24.2640445,24.6124412 C23.965494,24.6124412 23.680034,24.6593141 23.377683,24.8197797 C23.3206754,24.8522951 23.2640902,24.8814323 23.2083495,24.921971 C23.2024376,24.9304165 23.1771009,24.9405512 23.1956812,24.9891132 Z M29.7804326,26.5545818 C29.8302614,26.3869375 29.8551758,26.2032465 29.8551758,26.0089987 C29.8551758,25.8147508 29.8302614,25.6310598 29.7804326,25.4634155 C29.7306038,25.2949265 29.6529047,25.1462847 29.5494465,25.0225572 C29.4459884,24.8984075 29.31466,24.7991721 29.1596839,24.7286517 C29.0042856,24.6581313 28.8214393,24.6222377 28.6157899,24.6222377 C28.4097182,24.6222377 28.2268718,24.6581313 28.0714735,24.7286517 C27.9164975,24.7991721 27.785169,24.8984075 27.6817109,25.0225572 C27.5778305,25.1467069 27.5005536,25.2953488 27.4503025,25.4634155 C27.400896,25.6306376 27.3759816,25.8143285 27.3759816,26.0089987 C27.3759816,26.2036688 27.400896,26.3869375 27.4503025,26.5545818 C27.5005536,26.7226485 27.5782528,26.8712904 27.6812886,26.9954401 C27.785169,27.1195898 27.9160752,27.2192474 28.0714735,27.2918793 C28.2264495,27.3640888 28.4097182,27.400827 28.6157899,27.400827 C28.8214393,27.400827 29.0047079,27.3640888 29.1596839,27.2918793 C29.3150822,27.2192474 29.4459884,27.1195898 29.5494465,26.9954401 C29.6529047,26.8717126 29.7306038,26.7230708 29.7804326,26.5545818 Z M29.2728544,26.0089987 C29.2728544,26.3029041 29.2179583,26.5343125 29.1102774,26.6964673 C29.0030188,26.8569329 28.8412863,26.9350543 28.6157899,26.9350543 C28.3898711,26.9350543 28.2289832,26.8569329 28.123836,26.6964673 C28.0174219,26.5343125 27.9633703,26.3029041 27.9633703,26.0089987 C27.9633703,25.7146709 28.0174219,25.482418 28.123836,25.3189964 C28.2289832,25.1564193 28.3898711,25.0778756 28.6157899,25.0778756 C28.8412863,25.0778756 29.0030188,25.1568416 29.1098551,25.3189964 C29.2179583,25.4828402 29.2728544,25.7146709 29.2728544,26.0089987 Z M33.9486141,25.1564624 L34.0731861,24.8123059 C34.0892327,24.7696558 34.0524945,24.7519201 34.0524945,24.7519201 C33.8607803,24.6763323 33.5939006,24.6235476 33.3337773,24.6235476 C32.8937636,24.6235476 32.5563635,24.7506533 32.3317116,25.0006419 C32.107482,25.2497859 31.9938892,25.590142 31.9938892,26.0111531 C31.9938892,26.2058233 32.0217595,26.3899365 32.0766557,26.5575809 C32.1319741,26.7256475 32.2147406,26.8742894 32.3236883,26.9984391 C32.432636,27.1225889 32.5702987,27.2222465 32.7324534,27.294456 C32.8950304,27.3670878 33.0850556,27.4034037 33.298306,27.4034037 C33.4410359,27.4034037 33.5694084,27.3945359 33.6792007,27.3776448 C33.796594,27.3599091 33.9519923,27.3181036 34.0178677,27.2923446 C34.0296915,27.2876996 34.0626292,27.2712307 34.0491163,27.2328034 C34.0018211,27.0972522 33.9688834,27.0089961 33.9245442,26.8856909 C33.9055417,26.8333284 33.8654253,26.8506418 33.8654253,26.8506418 C33.6982032,26.9034266 33.5385821,26.9274964 33.3291322,26.9274964 C33.0778768,26.9274964 32.8895408,26.8434631 32.7658134,26.6796192 C32.6412414,26.5149308 32.5719878,26.2987245 32.5711432,26.0111531 C32.5702987,25.6952892 32.6488424,25.4617695 32.7890387,25.3173504 C32.9288127,25.1729313 33.1239051,25.0998772 33.3696709,25.0998772 C33.4697508,25.0998772 33.5630743,25.1066336 33.6479521,25.1197243 C33.7315632,25.1328149 33.8101069,25.1589961 33.8840056,25.1872887 C33.8840056,25.1872887 33.931723,25.205869 33.9486141,25.1564624 Z M36.5456622,26.6503121 C36.6558768,26.2630832 36.598447,25.928639 36.5967579,25.9100588 C36.5921128,25.8661419 36.5469291,25.8652973 36.5469291,25.8652973 L34.8286798,25.8669864 C34.8396591,25.6060186 34.9017339,25.4210608 35.0288396,25.295222 C35.1525671,25.1723391 35.3501932,25.0937954 35.6166506,25.0933731 C36.0241489,25.0925285 36.198972,25.1744505 36.3218549,25.2200565 C36.3218549,25.2200565 36.3695723,25.2373699 36.3864634,25.190497 L36.4987894,24.8758999 C36.5215924,24.8226929 36.5034344,24.8041127 36.4844319,24.7935557 C36.376751,24.7340145 36.1153609,24.6233777 35.6191843,24.6216886 C35.3780635,24.6212663 35.1681913,24.6558931 34.9954796,24.722613 C34.8215011,24.7897552 34.6762375,24.8860346 34.5634892,25.0089175 C34.4503187,25.1309558 34.3667077,25.2783309 34.3143452,25.445553 C34.262405,25.6115082 34.2362238,25.7960437 34.2362238,25.9940921 C34.2362238,26.1887623 34.2615605,26.3732978 34.3118115,26.5426312 C34.3616403,26.7128093 34.4401841,26.862718 34.5444867,26.9885568 C34.6487894,27.1148179 34.781807,27.2161647 34.9401612,27.2904856 C35.0980932,27.3648065 35.2927634,27.4007002 35.5072806,27.4007002 C35.6913938,27.4007002 35.8594605,27.361006 35.9996568,27.3010426 C36.1069154,27.254592 36.2150185,27.1714032 36.3256554,27.0523208 C36.3957535,26.9771553 36.5025899,26.8128892 36.5456622,26.6503121 Z M34.8367031,26.2909535 L36.0621539,26.2909535 C36.0499078,26.4484632 36.0190815,26.5903487 35.9481388,26.6963404 C35.8413025,26.8568061 35.6922384,26.9454845 35.4667419,26.9454845 C35.2412454,26.9454845 35.0807798,26.8572284 34.9756326,26.6963404 C34.9059567,26.5903487 34.860773,26.4543751 34.8367031,26.2909535 Z M22.7845512,26.6503121 C22.8951881,26.2630832 22.8377583,25.928639 22.8360691,25.9100588 C22.8314241,25.8661419 22.7862403,25.8652973 22.7862403,25.8652973 L21.0679911,25.8669864 C21.0789703,25.6060186 21.1410452,25.4210608 21.2681509,25.295222 C21.3918783,25.1723391 21.5895044,25.0937954 21.8555396,25.0933731 C22.2638824,25.0925285 22.4382833,25.1744505 22.5611662,25.2200565 C22.5611662,25.2200565 22.6088836,25.2373699 22.626197,25.190497 L22.7381006,24.8758999 C22.7609037,24.8226929 22.7427457,24.8041127 22.7237432,24.7935557 C22.6160623,24.7340145 22.3546722,24.6233777 21.8584955,24.6216886 C21.6173748,24.6212663 21.4075026,24.6558931 21.2347909,24.722613 C21.0608124,24.7897552 20.9155487,24.8860346 20.8028005,25.0089175 C20.68963,25.1309558 20.606019,25.2783309 20.5536565,25.445553 C20.5017163,25.6115082 20.4755351,25.7960437 20.4755351,25.9940921 C20.4755351,26.1887623 20.501294,26.3732978 20.5511228,26.5426312 C20.6009516,26.7128093 20.6794953,26.862718 20.783798,26.9885568 C20.8881007,27.1148179 21.0211182,27.2161647 21.1794725,27.2904856 C21.3374045,27.3648065 21.5324969,27.4007002 21.7465919,27.4007002 C21.9307051,27.4007002 22.0987717,27.361006 22.238968,27.3010426 C22.3462266,27.254592 22.4543298,27.1714032 22.5649667,27.0523208 C22.6350648,26.9771553 22.7414789,26.8128892 22.7845512,26.6503121 Z M21.0760144,26.2909535 L22.3014652,26.2909535 C22.2892191,26.4484632 22.2583928,26.5903487 22.1878724,26.6963404 C22.0806138,26.8568061 21.9315496,26.9454845 21.7060532,26.9454845 C21.4805567,26.9454845 21.3200911,26.8572284 21.2149439,26.6963404 C21.145268,26.5903487 21.1005065,26.4543751 21.0760144,26.2909535 Z M18.045705,26.3731716 C18.045705,26.3731716 18.1812563,26.3609255 18.3290536,26.3398116 L18.3290536,26.4124435 C18.3290536,26.6413181 18.2813362,26.7498436 18.1875905,26.8216309 C18.0913111,26.8955295 17.9485811,26.93269 17.7627788,26.93269 C17.7627788,26.93269 17.3447235,26.9381796 17.0140799,26.7582892 C16.9988778,26.7494213 16.9857872,26.744354 16.9857872,26.744354 C16.9857872,26.744354 16.9448263,26.7299965 16.9296243,26.7722243 L16.8080082,27.0990675 C16.789428,27.1463626 16.8232102,27.1674765 16.8232102,27.1674765 C16.9777639,27.2882481 17.3531691,27.3608799 17.3531691,27.3608799 C17.4773188,27.3857943 17.6846573,27.40353 17.8134521,27.40353 C18.1567642,27.40353 18.422377,27.3237194 18.6026897,27.1657874 C18.783847,27.0074332 18.8759036,26.751955 18.8759036,26.4073761 L18.8767482,24.8360796 C18.8767482,24.8360796 18.8801264,24.7904736 18.8374763,24.7799167 C18.8374763,24.7799167 18.7741346,24.7626033 18.7171271,24.7490904 C18.6596973,24.7359998 18.452781,24.6941942 18.2842921,24.6654793 C18.1141141,24.6363421 17.9384464,24.6219847 17.7623565,24.6219847 C17.5951344,24.6219847 17.4422698,24.637609 17.3075631,24.6684353 C17.170745,24.6992616 17.0529294,24.7503572 16.9574946,24.8200331 C16.8612152,24.8897089 16.7856275,24.9800764 16.733265,25.0886019 C16.6809025,25.1967051 16.6547213,25.3288781 16.6547213,25.4808982 C16.6547213,25.6303846 16.6855476,25.7638244 16.7463556,25.8769949 C16.8071636,25.9901654 16.891197,26.0856003 16.9954996,26.1603435 C17.09938,26.2346644 17.2201515,26.2908274 17.3544359,26.326721 C17.4878758,26.3626147 17.6301835,26.3811949 17.7775585,26.3811949 C17.8856617,26.3811949 17.9760292,26.3782389 18.045705,26.3731716 Z M17.3620369,25.1658788 C17.3607701,25.166301 17.5161684,25.0442627 17.8658146,25.0653766 C18.1115804,25.0801563 18.3298981,25.1270292 18.3298981,25.1270292 L18.3294759,25.1270292 L18.3294759,25.9082435 C18.3294759,25.9082435 18.109469,25.9445594 17.8632809,25.9479376 C17.5127902,25.9525827 17.363726,25.8233656 17.3649929,25.8237879 C17.2615348,25.7507338 17.211706,25.6422084 17.211706,25.4910328 C17.211706,25.395598 17.2290194,25.3204325 17.2628016,25.2676478 C17.2856046,25.233021 17.2948947,25.2195081 17.3620369,25.1658788 Z M31.9041096,27.25852 C31.8880631,27.2116472 31.804452,26.9764383 31.7748926,26.8978946 C31.7639133,26.8679129 31.7453331,26.8476435 31.7123954,26.851444 C31.7123954,26.851444 31.6135824,26.8746693 31.5236371,26.8746693 C31.46114,26.8746693 31.3728839,26.866646 31.2930734,26.8421539 C31.2149519,26.818084 31.1435869,26.775434 31.0806675,26.7146259 C31.0181704,26.6533956 30.967497,26.5680955 30.9303365,26.4616814 C30.8923315,26.3540005 30.873329,26.1825556 30.873329,26.0106885 L30.873329,24.7303416 C30.873329,24.7016267 30.8501037,24.6779791 30.8213888,24.6779791 L30.3699736,24.6779791 C30.3412587,24.6779791 30.3176111,24.7016267 30.3176111,24.7303416 L30.3176111,27.2931468 C30.3176111,27.322284 30.3383028,27.3455093 30.3670177,27.3455093 L30.8074536,27.3455093 C30.8361685,27.3455093 30.8568602,27.322284 30.8568602,27.2931468 L30.8568602,27.0841192 C30.9227355,27.1723753 31.0409734,27.2500745 31.1473874,27.2982141 C31.2546461,27.3463538 31.374573,27.3826698 31.5903571,27.3695791 C31.7031053,27.3624004 31.8492135,27.3315741 31.8783507,27.3201726 C31.8897522,27.3159498 31.9172003,27.2973696 31.9041096,27.25852 Z M27.6668871,28.4463019 C27.6787109,28.4416569 27.7120708,28.425188 27.6985579,28.3863384 L27.5672295,28.025713 C27.5562502,27.9986872 27.5486492,27.9822184 27.4924863,27.9991095 C27.4785511,28.0033323 27.4578595,28.0092442 27.4046524,28.0206457 C27.3662251,28.028669 27.3151295,28.0345809 27.2636116,28.0345809 C27.1956248,28.0345809 27.13355,28.0261353 27.0790761,28.0083996 C27.0258691,27.9910862 26.9773071,27.9611045 26.9350793,27.9188767 C26.8924292,27.8758043 26.8417559,27.8128849 26.8147301,27.735608 C26.7518106,27.5536062 26.7268962,27.3602029 26.7239403,27.3479568 L27.273324,27.3479568 C27.3193523,27.3479568 27.3337097,27.3268429 27.329487,27.2926384 L27.2653007,26.9353912 C27.2555883,26.883451 27.2078709,26.8851401 27.2078709,26.8851401 L26.6420184,26.8851401 L26.2547894,24.6947841 C26.2142507,24.468443 26.1631551,24.2741952 26.1036139,24.1179523 C26.0436504,23.959598 25.980731,23.8438939 25.8806511,23.733257 C25.7877499,23.6310657 25.683025,23.555478 25.563098,23.5119833 C25.4435934,23.468911 25.2991743,23.4465303 25.1412423,23.4465303 C25.0656545,23.4465303 24.9849994,23.4477971 24.8895646,23.4701778 C24.8207333,23.4866467 24.7831505,23.4984704 24.7324772,23.5162061 C24.710941,23.5242294 24.6940499,23.5508329 24.7058737,23.5850374 C24.7181197,23.619242 24.8194665,23.8975232 24.8334016,23.9342614 C24.8511373,23.9786005 24.8954765,23.9617094 24.8954765,23.9617094 C24.9263028,23.9486188 24.947839,23.939751 24.9883777,23.9317277 C25.0293386,23.9232821 25.084657,23.9165257 25.1260403,23.9165257 C25.2007835,23.9165257 25.2691925,23.9258158 25.3283115,23.9456629 C25.4000987,23.9697327 25.441482,24.011116 25.4853989,24.0668567 C25.5310049,24.125131 25.5677431,24.2049416 25.6053258,24.3113556 C25.6437531,24.4194588 25.6783799,24.5617665 25.7083617,24.7349005 L26.0934792,26.8851401 L25.7138513,26.8851401 C25.6682453,26.8851401 25.6534655,26.9066763 25.6581106,26.9404585 L25.7218746,27.298128 C25.7320092,27.3496459 25.7793044,27.3479568 25.7793044,27.3479568 L26.1694893,27.3479568 L26.1906032,27.4640833 C26.2488775,27.8090844 26.365004,28.071319 26.5360266,28.2436085 C26.7078937,28.4167425 26.952815,28.5045763 27.2636116,28.5045763 C27.3527122,28.5045763 27.431256,28.4986644 27.4971313,28.4868406 C27.5621621,28.4745945 27.6119909,28.463193 27.6668871,28.4463019 Z M19.9909289,24.7302147 C19.9909289,24.7014998 19.9702373,24.6782745 19.9415224,24.6782745 L19.4858844,24.6782745 C19.4571695,24.6782745 19.4369002,24.7014998 19.4369002,24.7302147 L19.4369002,28.3972769 C19.4369002,28.4259918 19.4571695,28.4492171 19.4858844,28.4492171 L19.9415224,28.4492171 C19.9702373,28.4492171 19.9909289,28.4259918 19.9909289,28.3972769 L19.9909289,24.7302147 Z" transform="matrix(1 0 0 -1 0 50.75)"/>
  </g>
</svg>
