<?xml version="1.0" encoding="UTF-8"?>
<svg width="30px" height="41px" viewBox="0 0 30 41" version="1.1" xmlns="http://www.w3.org/2000/svg" xmlns:xlink="http://www.w3.org/1999/xlink">
    <!-- Generator: Sketch 3.6.1 (26313) - http://www.bohemiancoding.com/sketch -->
    <title>Group 3</title>
    <desc>Created with Sketch.</desc>
    <defs></defs>
    <g id="Page-1" stroke="none" stroke-width="1" fill="none" fill-rule="evenodd">
        <g id="Group-3" transform="translate(-15.000000, -10.000000)" fill="#FFFFFF">
            <g id="firebase-1" transform="translate(15.000000, 10.000000)">
                <g id="Group">
                    <path d="M0,32.9834499 L0.247435897,32.6370629 L11.9495338,10.432634 L11.9742424,10.1975524 L6.81585082,0.507925408 C6.38344988,-0.303729604 5.16666667,-0.0984848485 5.02494172,0.81013986 L0,32.9834499 L0,32.9834499 Z" id="Shape" fill-opacity="0.7"></path>
                    <path d="M19.4854978,13.4676757 L15.733683,6.10874126 C15.3689977,5.41445221 14.3506993,5.41235431 13.9898601,6.10874126 L11.9370629,10.02331 L11.9370629,10.3566434 L15.733683,17.2551025 L19.4854978,13.4676757 Z" id="Shape" fill-opacity="0.7"></path>
                    <path d="M0,32.9834499 L0.112121212,32.8706294 L0.51958042,32.7051282 L15.7313965,17.2343016 L11.9479021,10.1520979 L0,32.9834499 Z" id="Shape"></path>
                    <path d="M29.7664336,32.9491841 L25.8965035,9.11526807 C25.7754079,8.36958042 24.8606061,8.07482517 24.3268065,8.60944056 L0,32.9834499 L13.4741259,40.5065268 C14.32569,40.981966 15.3628025,40.9821865 16.2145688,40.5071096 L29.7664336,32.9491841 Z" id="Shape" fill-opacity="0.5"></path>
                </g>
            </g>
        </g>
    </g>
</svg>