<?xml version="1.0" encoding="UTF-8"?>
<svg width="28px" height="40px" viewBox="0 0 28 40" version="1.1" xmlns="http://www.w3.org/2000/svg" xmlns:xlink="http://www.w3.org/1999/xlink">
    <!-- Generator: Sketch 3.6.1 (26313) - http://www.bohemiancoding.com/sketch -->
    <title>Group</title>
    <desc>Created with Sketch.</desc>
    <defs></defs>
    <g id="Page-1" stroke="none" stroke-width="1" fill="none" fill-rule="evenodd">
        <g id="Group" transform="translate(-16.000000, -10.000000)" fill="#FFFFFF">
            <g id="g16" transform="translate(30.000000, 30.000000) scale(1, -1) translate(-30.000000, -30.000000) translate(16.000000, 10.000000)">
                <path d="M13.9852471,0.356220802 L0.0365134005,20.895193 L5.44467667,16.5476395 L5.44566019,16.5500369 L5.44590607,16.5500369 L5.44277108,16.5411237 L5.45168429,16.5411237 L13.9852471,0.356220802" id="path24" opacity="0.4"></path>
                <path d="M11.2118884,32.2289157 L13.9835259,39.767642 L13.9835259,39.7713302 L0.0201622818,20.9084091 L5.44467667,16.5476395 L11.2118884,32.2289157" id="path26" fill-opacity="0.8"></path>
                <path d="M22.5288911,16.5483772 L5.44781165,16.5483772 L5.44590607,16.5500369 L7.91984264,23.2776617 L11.2118884,32.2289157 L13.1705188,37.555938 L13.9878903,39.7787067 L22.5288911,16.5483772" id="path28"></path>
                <path d="M13.9964962,0.343926727 L13.9964962,0.353331694 L22.5344234,16.5452422 L22.5408778,16.5452422 L27.9862306,20.9000492 L13.9964962,0.343926727" id="path36" opacity="0.3"></path>
                <path d="M22.5408778,16.5452422 L22.5341775,16.5452422 L22.5358372,16.5483772 L22.529137,16.5483772 L20.0271084,23.3544996 L13.9962503,39.7565773 L27.9936071,20.9127735 L27.9936071,20.9125277 L27.9942218,20.91179 L27.9942218,20.91179 L27.9966806,20.9084091 L22.5408778,16.5452422" id="path38" fill-opacity="0.6"></path>
                <path d="M13.9914556,0.343926727 L13.9852471,0.356220802 L13.9857389,0.355237276 L5.45168429,16.5411237 L22.5315343,16.5411237 L22.5288911,16.5483772 L22.529137,16.5483772 L22.5303049,16.5452422 L22.5341775,16.5452422 L13.992685,0.34607819 L13.9919474,0.345156135 L13.9919474,0.345156135 L13.9914556,0.343926727" id="path42" fill-opacity="0.6"></path>
            </g>
        </g>
    </g>
</svg>