<svg xmlns="http://www.w3.org/2000/svg" width="360" height="360" viewBox="0 0 360 360">
  <path fill="#FFF" d="M181.49804,16.5333333 L123.748664,16.5333333 L123.748664,0 L181.49804,0 L181.49804,16.5333333 Z M195.737386,99.2 C192.090926,109.921867 178.998317,124 153.654591,124 C128.294365,124 107.752086,109.706933 107.752086,77.0866667 C107.752086,44.764 126.933129,28.148 152.846099,28.148 C178.272325,28.148 193.798657,42.8792 197.189371,64.7362667 C197.832864,68.9192 198.088611,74.5570667 197.973112,82.4269333 L131.751077,82.4269333 C132.823566,108.9712 160.485517,109.806133 169.601668,99.2 L195.737386,99.2 Z M132.328571,66.1333333 L173.289379,66.1333333 C172.423138,53.3448 163.91748,47.7896 152.854349,47.7896 C140.75998,47.7896 134.069302,54.1384 132.328571,66.1333333 Z M53.3439239,123.9008 L0,123.9008 L0,0.1736 L57.3616305,0.1736 C102.538143,0.8432 103.396133,45.1773333 79.8013882,57.2632 C108.35433,67.6792 109.31132,123.9008 53.3439239,123.9008 Z M24.7497327,49.6 L54.3174134,49.6 C75.00819,49.6 78.2916545,24.8 51.7434412,24.8 L24.7497327,24.8 L24.7497327,49.6 Z M52.7251806,74.4 L24.7497327,74.4 L24.7497327,99.3322667 L52.3126851,99.3322667 C77.5161629,99.3322667 75.9734296,74.4 52.7251806,74.4 Z" transform="translate(81 118)"/>
</svg>
