<?xml version="1.0" encoding="UTF-8"?>
<svg width="30px" height="30px" viewBox="0 0 30 30" version="1.1" xmlns="http://www.w3.org/2000/svg" xmlns:xlink="http://www.w3.org/1999/xlink">
    <!-- Generator: Sketch 3.6.1 (26313) - http://www.bohemiancoding.com/sketch -->
    <title>Group</title>
    <desc>Created with Sketch.</desc>
    <defs></defs>
    <g id="Page-1" stroke="none" stroke-width="1" fill="none" fill-rule="evenodd">
        <g id="Group" transform="translate(-15.000000, -15.000000)" fill="#FFFFFF">
            <path d="M28.1342213,44.8032787 C24.3719262,44.2254098 21.5194672,42.7868852 19.0604508,40.2172131 C17.0932377,38.1516393 15.7530738,35.557377 15.2120902,32.7418033 C14.9293033,31.2786885 14.9293033,28.5737705 15.2120902,27.1352459 C15.8268443,24 17.289959,21.3196721 19.6260246,19.0819672 C22.4661885,16.3770492 25.9334016,15 29.9170082,15 C33.9006148,15 37.3678279,16.3770492 40.2079918,19.0819672 C42.5440574,21.3196721 44.0194672,24.0122951 44.6219262,27.1352459 C44.9047131,28.5860656 44.9047131,31.2909836 44.6219262,32.7418033 C43.4907787,38.5696721 39.0276639,43.192623 33.2366803,44.5204918 C32.2161885,44.7540984 29.0071721,44.9385246 28.1342213,44.8032787 L28.1342213,44.8032787 Z M31.7735656,36.8852459 C34.982582,36.2827869 36.6793033,32.7909836 35.2038934,29.7909836 C34.539959,28.4508197 33.0153689,27.3565574 31.5891393,27.2090164 L30.9006148,27.1352459 L30.9006148,28.6352459 C30.9006148,29.692623 30.9375,30.1229508 31.0481557,30.1229508 C31.4047131,30.1229508 32.2653689,30.6639344 32.4989754,31.057377 C33.0645492,31.9672131 32.6956967,33.2827869 31.6997951,33.8483607 C31.539959,33.9467213 30.494877,34.0204918 28.8719262,34.057377 L26.289959,34.1188525 L26.2530738,35.397541 C26.2407787,36.1106557 26.2530738,36.7622951 26.2776639,36.8483607 C26.3637295,37.045082 30.7407787,37.0819672 31.7735656,36.8852459 L31.7735656,36.8852459 Z M29.1178279,27.602459 L29.1178279,22.9303279 L27.6793033,22.8934426 L26.2284836,22.8565574 L26.2284836,27.602459 L26.2284836,32.3483607 L27.6793033,32.3114754 L29.1178279,32.2745902 L29.1178279,27.602459 L29.1178279,27.602459 Z" id="Shape" transform="translate(29.917008, 29.924588) scale(1, -1) translate(-29.917008, -29.924588) "></path>
        </g>
    </g>
</svg>