<svg xmlns="http://www.w3.org/2000/svg" width="360" height="360" viewBox="0 0 360 360">
  <g fill="#FFF" fill-rule="evenodd" transform="translate(88 122)">
    <path d="M22.94 113.136457C14.7954358 113.103602 7.30655952 108.650692 3.36772333 101.498716-.571112854 94.3467411-.342852138 85.6161275 3.96428571 78.6811429L44.3339286 13.9995429C48.3247048 6.63813629 56.0570652 2.1059008 64.408758 2.23290904 72.7604508 2.35991727 80.3523322 7.12519592 84.1188743 14.6045718 87.8854163 22.0839476 87.2046371 31.0423257 82.3514286 37.8624L41.9817857 102.570514C37.8718365 109.147415 30.6774465 113.139452 22.94 113.136457zM92.5 113.136457C84.3488049 113.111368 76.8507192 108.658493 72.9077489 101.501241 68.9647786 94.3439886 69.1956742 85.6055107 73.5110714 78.6678857L113.907143 13.9995429C117.897919 6.63813629 125.63028 2.1059008 133.981972 2.23290904 142.333665 2.35991727 149.925546 7.12519592 153.692089 14.6045718 157.458631 22.0839476 156.777851 31.0423257 151.924643 37.8624L111.555 102.570514C107.442557 109.151412 100.242144 113.144021 92.5 113.136457z"/>
    <ellipse cx="162.086" cy="91.143" rx="22.464" ry="21.994"/>
  </g>
</svg>
