<?xml version="1.0" encoding="UTF-8"?>
<svg width="30px" height="23px" viewBox="0 0 30 23" version="1.1" xmlns="http://www.w3.org/2000/svg" xmlns:xlink="http://www.w3.org/1999/xlink">
    <!-- Generator: Sketch 3.6.1 (26313) - http://www.bohemiancoding.com/sketch -->
    <title>Group</title>
    <desc>Created with Sketch.</desc>
    <defs></defs>
    <g id="Page-1" stroke="none" stroke-width="1" fill="none" fill-rule="evenodd">
        <g id="Group" transform="translate(-15.000000, -19.000000)" fill="#FFFFFF">
            <path d="M29.5350623,41.1134839 C33.852121,39.7182368 36.9709087,35.4996661 37.0365674,31.002046 C37.0529821,29.6232135 37.0037381,29.3605788 36.6426153,28.7368212 C36.3963952,28.2936251 35.953199,27.850429 35.5264176,27.6042089 C34.9354894,27.2430861 34.6728546,27.1938421 33.7864623,27.2595008 C31.9972631,27.3744035 31.0287974,28.4413571 30.798992,30.5260205 C30.602016,32.4957811 29.748453,33.7925402 28.1069858,34.6461032 C27.499643,34.9579819 27.1221055,35.0236406 25.8910051,35.0236406 C24.2331232,35.0236406 23.8227564,34.8594939 22.7886321,33.8581989 C22.0663865,33.152368 21.442629,31.9212676 21.2948969,30.8378993 C21.0486769,29.1636027 21.9022398,25.7493509 23.0348522,23.8288343 C23.8063418,22.5484899 25.6611997,20.6115586 26.8430561,19.889313 C27.9920831,19.1670675 27.8607657,19.0521648 26.0551518,19.0357501 C22.6080707,19.0029207 19.0953309,20.8249493 17.1255703,23.6318583 C15.5169324,25.897083 14.8603455,28.2115517 15.0244922,30.9856313 C15.287127,35.9264476 18.6521348,40.0629449 23.4123896,41.359704 C25.1031009,41.8193148 27.696619,41.7044121 29.5350623,41.1134839 L29.5350623,41.1134839 Z" id="Path" transform="translate(26.019641, 30.338718) scale(1, -1) translate(-26.019641, -30.338718) "></path>
            <path d="M37.3976902,41.0428565 C41.1566501,39.8445855 44.0784617,36.4795777 44.8499513,32.4579831 C44.9812686,31.8342255 45.0305127,30.7016132 44.9812686,29.5854155 C44.91561,28.0424363 44.8171219,27.5007521 44.3903405,26.3681398 C43.3398014,23.5448162 41.4849435,21.4765675 38.8750107,20.1962231 C33.7372183,17.6683636 27.9264244,19.2441721 24.8076368,24.004427 C23.8720005,25.4325035 23.4123896,26.6143598 23.0676815,28.3871444 C22.6409001,30.6523692 23.1005109,32.211763 24.4300993,32.9996673 C25.6611997,33.7219128 27.5324723,33.3936194 28.4681086,32.2774217 C28.8948901,31.7521522 29.2560129,30.5538811 29.2560129,29.5690008 C29.2560129,28.8631699 29.9125997,27.5335815 30.5856013,26.8441653 C31.9808484,25.4489181 34.2789025,25.0385513 36.0188577,25.8921143 C37.0201527,26.3845544 37.7423983,27.1068 38.3169118,28.1901684 C38.6452053,28.7975112 38.6944493,29.10939 38.6780346,30.7672719 C38.6616199,32.3594951 38.5959612,32.8847646 38.2184238,34.0502063 C37.2335435,37.0540912 35.4935882,39.417804 33.1627048,40.8951245 C32.7359233,41.1741739 32.4404592,41.4532233 32.5061179,41.518882 C32.7687527,41.7815168 36.0516871,41.469638 37.3976902,41.0428565 L37.3976902,41.0428565 Z" id="Path" fill-opacity="0.6" transform="translate(33.956668, 30.307673) scale(1, -1) translate(-33.956668, -30.307673) "></path>
        </g>
    </g>
</svg>