<svg width="60" height="60" viewBox="0 0 60 60" xmlns="http://www.w3.org/2000/svg">
    <rect fill="transparent" x="0" y="0" width="60" height="60" rx="4.8"></rect>

    <g width="30" height="30" viewBox="0 0 30 30" transform="translate(15, 15)" fill="#FFFFFF">
        <path d="M 331.500 14.576 C 282.434 19.467, 243.125 30.704, 202.500 51.452 C 139.614 83.569, 88.734 133.335, 54.427 196.284 C 27.911 244.935, 13.008 304.170, 13.002 360.932 C 13 378.437, 13.500 384.623, 17.009 410.500 C 32.056 521.466, 105.704 622.202, 208 671.738 C 245.718 690.003, 276.805 698.989, 323.500 705.124 C 327.350 705.630, 340.850 706.309, 353.500 706.634 C 377.598 707.252, 391.118 706.272, 417.872 701.970 C 491.435 690.142, 562.801 651.489, 614.171 595.652 C 620.167 589.135, 627.475 580.791, 630.412 577.110 C 636.206 569.848, 653 546.270, 653 545.397 C 653 545.102, 654.274 542.979, 655.831 540.680 C 662.030 531.525, 673.791 508.566, 680.512 492.500 C 700.102 445.670, 710.339 382.921, 705.975 336.424 C 699.411 266.493, 680.721 214.648, 641.772 158.335 C 623.987 132.621, 588.320 96.968, 561.500 78.096 C 547.761 68.428, 531.271 58.495, 516.500 50.988 C 503.352 44.307, 495.201 40.796, 474.500 32.896 C 467.699 30.300, 443.876 23.501, 436.500 22.049 C 433.200 21.400, 429.150 20.460, 427.500 19.961 C 425.850 19.462, 419.100 18.341, 412.500 17.469 C 377.646 12.867, 356.293 12.104, 331.500 14.576 M 403.500 90.711 C 400.319 91.542, 396.088 94.926, 394.603 97.829 C 393.851 99.298, 387.531 118.725, 380.558 141 C 373.586 163.275, 365.845 187.688, 363.358 195.250 L 358.834 209 349.167 209.009 C 303.941 209.052, 245.259 226.689, 207.345 251.635 C 202.860 254.586, 198.951 257, 198.658 257 C 198.365 257, 193.345 254.342, 187.504 251.094 C 168.112 240.310, 150.808 237.861, 133.343 243.428 C 102.772 253.173, 85.959 286.684, 95.891 318.072 C 99.693 330.087, 111.938 345.512, 122.827 352 C 126.065 353.930, 126.902 354.956, 126.497 356.500 C 124.557 363.895, 123.757 381.126, 124.808 392.875 C 127.031 417.702, 134.081 437.109, 148.874 459.120 C 180.088 505.566, 241.643 540.352, 311.328 550.927 C 376.966 560.889, 441.036 552.016, 494.820 525.516 C 555.195 495.769, 592.496 449.747, 598.961 397.026 C 600.605 383.615, 600.014 366.558, 597.572 357 C 597.019 354.834, 597.549 354.114, 601.540 351.612 C 608.259 347.399, 617.995 337.417, 622.305 330.320 C 633.863 311.294, 633.837 288.903, 622.235 269.636 C 614.538 256.853, 604.381 248.622, 590.298 243.754 C 571.245 237.167, 548.373 240.833, 533.203 252.905 L 527.907 257.120 519.203 251.653 C 485.656 230.581, 442.643 216.351, 401.884 212.839 C 394.523 212.205, 388.359 211.578, 388.187 211.447 C 387.763 211.122, 415.739 124.009, 416.546 123.145 C 416.728 122.949, 422.642 123.997, 429.689 125.473 C 451.938 130.134, 493.431 139.081, 495.169 139.592 C 496.181 139.890, 497.095 141.600, 497.489 143.936 C 499.389 155.179, 510.133 169.012, 521.131 174.373 C 532.727 180.026, 542.403 181.246, 553.284 178.426 C 575.416 172.691, 589.170 154.296, 587.765 132.311 C 587.074 121.499, 584.096 114.298, 577.265 106.920 C 569.089 98.088, 559.563 93.226, 547.302 91.624 C 534.505 89.952, 519.081 95.754, 510.049 105.637 C 507.353 108.587, 504.635 111, 504.009 111 C 503.382 111, 491.537 108.537, 477.685 105.527 C 457.487 101.137, 417.979 92.733, 407.500 90.597 C 406.400 90.373, 404.600 90.424, 403.500 90.711 M 265.892 317.296 C 258.681 320.338, 254.895 323.072, 250.546 328.379 C 244.285 336.019, 242.501 341.257, 242.501 352 C 242.501 363.692, 244.399 368.422, 252.495 376.909 C 264.494 389.489, 282.241 392.534, 296.514 384.462 C 302.079 381.315, 310.607 372.030, 313.204 366.291 C 316.517 358.969, 316.336 344.517, 312.836 337 C 309.261 329.322, 303.238 322.941, 295.821 318.972 C 290.222 315.977, 288.472 315.553, 280.500 315.261 C 272.816 314.979, 270.680 315.277, 265.892 317.296 M 435.438 315.881 C 425.742 318.380, 415.886 326.936, 411.110 337 C 408.897 341.663, 408.500 343.870, 408.500 351.500 C 408.500 359.507, 408.843 361.217, 411.606 367 C 415.346 374.824, 422.436 382.068, 430 385.792 C 434.809 388.160, 436.693 388.500, 445 388.500 C 453.300 388.500, 455.195 388.159, 460 385.798 C 467.081 382.318, 475.313 374.097, 478.775 367.048 C 481.161 362.190, 481.500 360.318, 481.500 352 C 481.500 343.831, 481.134 341.729, 478.890 337 C 475.225 329.278, 469.206 322.922, 461.821 318.978 C 456.264 316.011, 454.472 315.572, 447 315.348 C 442.325 315.207, 437.122 315.448, 435.438 315.881 M 280.245 438.041 C 275.571 439.058, 270.257 442.982, 268.463 446.739 C 267.202 449.380, 267.124 450.747, 268.040 454.148 C 269.653 460.138, 271.439 462.425, 278.358 467.358 C 291.933 477.036, 315.789 486.787, 334 490.101 C 344.067 491.932, 378.730 491.948, 390 490.126 C 400.837 488.374, 422.989 481.170, 431.744 476.551 C 440.926 471.706, 451.428 463.662, 453.996 459.506 C 458.839 451.670, 457.261 444.995, 449.486 440.439 C 443.102 436.698, 439.227 436.986, 431.723 441.758 C 421.334 448.365, 418.871 449.664, 409 453.748 C 383.605 464.253, 355.567 465.956, 328.500 458.637 C 317.781 455.738, 302.332 448.556, 292.326 441.819 C 286.674 438.014, 284.088 437.205, 280.245 438.041 " stroke="none" fill="white" fill-rule="evenodd" transform="scale(0.041666666666666664) translate(0 0)"></path>
    </g>
</svg>