<svg xmlns="http://www.w3.org/2000/svg" width="60" height="60" viewBox="0 0 60 60">
  <path fill="#FFFFFF" fill-rule="evenodd" d="M14.9986187,0 C6.71567574,0 0,6.88563075 0,15.3800802 C0,22.1750733 4.29755364,27.9390628 10.2581417,29.9736898 C11.0086252,30.114367 11.2821142,29.6394633 11.2821142,29.2315938 C11.2821142,28.8671548 11.2692225,27.8994088 11.2618558,26.6163193 C7.0895362,27.5453554 6.20921452,24.5543122 6.20921452,24.5543122 C5.52687314,22.7783803 4.54341754,22.3044208 4.54341754,22.3044208 C3.18149728,21.3508369 4.64655146,21.3697198 4.64655146,21.3697198 C6.15212253,21.4782962 6.94404371,22.9549349 6.94404371,22.9549349 C8.28202216,25.3049054 10.4552012,24.626067 11.3097394,24.2333038 C11.4460235,23.2391218 11.8327757,22.5612275 12.2618865,22.1769616 C8.93121336,21.788919 5.42926425,20.4690079 5.42926425,14.5756709 C5.42926425,12.8969856 6.01399675,11.5242025 6.97351054,10.4488243 C6.81880966,10.0598376 6.3040609,8.49633774 7.11992388,6.37862627 C7.11992388,6.37862627 8.37963105,5.96509188 11.2452807,7.95534413 C12.44145,7.61356457 13.725099,7.44361893 15.0004604,7.43795407 C16.2739802,7.44361893 17.5576291,7.61356457 18.7556401,7.95534413 C21.6194481,5.96509188 22.8763928,6.37862627 22.8763928,6.37862627 C23.6950183,8.49633774 23.1802695,10.0598376 23.0255686,10.4488243 C23.9869241,11.5242025 24.5679732,12.8969856 24.5679732,14.5756709 C24.5679732,20.4841142 21.0604991,21.7841983 17.7187759,22.1646877 C18.2574665,22.6395914 18.7372234,23.5780689 18.7372234,25.0131654 C18.7372234,27.0685635 18.7188066,28.7274218 18.7188066,29.2315938 C18.7188066,29.6432399 18.9886123,30.1219201 19.7501458,29.9718015 C25.7061297,27.933398 30,22.173185 30,15.3800802 C30,6.88563075 23.2834034,0 14.9986187,0" transform="translate(15 15)"/>
</svg>
