<svg xmlns="http://www.w3.org/2000/svg" width="360" height="360" viewBox="0 0 360 360">
  <defs>
    <linearGradient id="convertfox-white-a" x1="90.503%" x2="9.485%" y1="94.592%" y2="26.739%">
      <stop offset="0%" stop-color="#FFF" stop-opacity=".9"/>
      <stop offset="100%" stop-color="#FFF" stop-opacity=".2"/>
    </linearGradient>
    <linearGradient id="convertfox-white-b" x1="-.386%" x2="99.93%" y1="50%" y2="50%">
      <stop offset="0%" stop-color="#FFF" stop-opacity=".9"/>
      <stop offset="100%" stop-color="#FFF" stop-opacity=".2"/>
    </linearGradient>
  </defs>
  <g fill="none" fill-rule="evenodd" transform="translate(94 94)">
    <path fill="#FFF" d="M119.744665,113.182179 C115.585827,115.344032 112.571648,116.774086 110.702127,117.47234 C101.919149,120.4 94.2340425,120.4 94.2340425,120.4 C76.4851062,120.4 60.931915,106.859575 58.5531917,89.1106383 C57.8212767,83.8042555 58.370213,78.4978726 60.0170212,73.3744679 C60.0170212,73.3744679 63.0166261,60.3536212 74.4413007,53.80389 C76.9055419,66.967391 83.6512368,83.2488118 109.421277,91.8553192 C98.9914891,68.2510637 101.187234,45.7446808 105.395745,29.8255319 C109.238298,15.7361702 114.72766,6.77021274 114.72766,6.77021274 C89.4765959,-2.56170213 60.5659575,0.731914891 38.0595745,15.5531915 C16.8340425,29.8255319 2.56170213,53.4297873 0.365957447,78.8638295 C-0.914893617,94.0510637 1.82978723,109.421277 8.4170213,123.32766 C15.5531915,138.148936 26.8978723,150.774468 40.8042553,159.374468 C55.8085106,168.523404 73.9234041,172.914894 91.4893617,171.634042 C102.102127,170.902127 112.348936,168.157447 122.046808,163.582979 C131.446486,159.071133 139.888161,152.828701 146.990829,145.338287 C140.197157,138.889426 135.274281,133.863951 132.2222,130.261865 C129.219578,126.718149 125.0604,121.024921 119.744665,113.182179 Z"/>
    <path fill="url(#convertfox-white-a)" d="M74.6553192,53.612766 C65.8297526,58.877246 62.0616535,63.828125 59.8340425,73.3744679 C59.8340425,73.3744679 61.4808513,81.6085109 72.8255321,89.4765959 C72.8255321,89.4765959 73.0085109,89.4765959 73.0085109,89.6595746 C74.6553192,90.7574466 76.3021274,91.8553192 77.9489363,92.5872342 C78.131915,92.5872342 78.3148938,92.770213 78.3148938,92.770213 C83.2553192,95.1489363 88.5617021,96.2468083 94.2340425,96.0638295 C94.4170212,96.0638295 94.6,96.0638295 94.7829788,96.0638295 C99.5404254,95.8808513 105.212766,93.868085 109.421277,91.8553192 C89.7457031,85.4191078 77.4,72.2765959 74.6553192,53.612766 Z"/>
    <path fill="url(#convertfox-white-b)" d="M170.353192,82.8893617 C169.804255,71.5446808 167.059575,60.2 162.119149,49.9531915 C161.93617,50.5021277 161.753192,50.8680851 161.753192,51.4170213 C150.774468,87.6468083 133.752574,104.953187 119.663212,113.187229 C126.982361,125.263825 136.319149,136.13617 146.931915,145.285106 C157.178723,134.489362 164.497873,121.314894 167.974468,106.676596 C169.804255,98.8085109 170.53617,90.7574466 170.353192,82.8893617 Z"/>
  </g>
</svg>
