<svg width="60" height="60" viewBox="0 0 60 60" xmlns="http://www.w3.org/2000/svg">
    <rect fill="transparent" x="0" y="0" width="60" height="60" rx="4.8"></rect>

    <g width="30" height="30" viewBox="0 0 30 30" transform="translate(15, 15)" fill="#FFFFFF">
        <path d="M 425 122.626 C 381.587 128.135, 342.754 150.900, 317.945 185.382 C 314.733 189.847, 311.519 194.318, 310.802 195.318 C 309.558 197.056, 309.101 197.003, 300.500 194.135 C 283.021 188.305, 267.806 187.861, 251 192.689 C 236.713 196.794, 227.906 202.100, 216.455 213.500 C 207.840 222.077, 205.736 224.852, 201.673 233 C 199.067 238.225, 195.972 246.457, 194.795 251.292 L 192.654 260.085 183.596 264.763 C 136.553 289.060, 112.648 342.532, 126.044 393.500 C 137.842 438.388, 176.693 471.702, 223.500 477.068 C 229.456 477.751, 292.708 477.998, 410.500 477.800 L 588.500 477.500 598.429 474.762 C 636.282 464.325, 666.034 434.417, 675.666 397.119 C 678.770 385.099, 679.799 366.892, 678.051 354.934 C 672.039 313.821, 642.057 279.038, 602.250 266.998 C 595.633 264.997, 594.999 264.574, 594.984 262.153 C 594.958 257.697, 591.154 241.039, 587.871 231 C 570.293 177.254, 525.407 136.459, 471.199 124.963 C 461.705 122.950, 433.636 121.530, 425 122.626 " stroke="none" fill="white" fill-rule="evenodd" transform="scale(0.05) translate(-100 0)"></path>
    </g>
</svg>