<svg width="60" height="60" viewBox="0 0 60 60" xmlns="http://www.w3.org/2000/svg">
    <rect fill="transparent" x="0" y="0" width="60" height="60" rx="4.8"></rect>

    <g width="30" height="30" viewBox="0 0 30 30" transform="translate(15, 15)" fill="#FFFFFF">
        <path d="M 237.593 22.118 C 137.456 29.799, 52.097 102.289, 28.132 200 C 19.246 236.229, 19.246 275.771, 28.132 312 C 48.129 393.531, 111.568 459.080, 192.500 481.836 C 242.211 495.813, 295.840 492.829, 344.293 473.390 C 396.380 452.493, 441.953 410.033, 466.533 359.500 C 511.425 267.207, 492.406 158.653, 418.876 87.491 C 378.484 48.400, 328.860 26.279, 272 22.017 C 257.022 20.894, 253.417 20.905, 237.593 22.118 M 228.500 118.474 C 206.569 121.971, 187.657 129.911, 170.219 142.943 C 124.024 177.467, 109.088 239.602, 134.479 291.629 C 152.004 327.539, 186.760 352.864, 227.763 359.601 C 240.163 361.638, 260.271 361.005, 270.788 358.247 C 276.097 356.854, 278.431 356.629, 279.382 357.418 C 280.101 358.013, 282.873 361.875, 285.542 366 C 299.092 386.938, 316.960 396.374, 339.742 394.623 C 368.062 392.446, 385.802 374.111, 389.449 343.250 L 390.069 338 380.503 338 C 372.258 338, 370.865 338.242, 370.416 339.750 C 368.688 345.556, 365.337 350.305, 361.298 352.671 C 357.556 354.864, 356.026 355.171, 350.573 354.824 C 342.767 354.327, 338.811 351.835, 329.893 341.801 L 323.657 334.784 329.578 329.702 C 352.524 310.011, 365.312 288.656, 370.662 261.094 C 372.870 249.724, 372.863 227.466, 370.648 215.929 C 363.462 178.498, 338.043 146.190, 302.586 129.421 C 280.116 118.794, 252.282 114.681, 228.500 118.474 M 235.464 143.009 C 211.811 146.235, 194.079 163.089, 187.078 189 C 182.584 205.633, 181.585 214.524, 181.569 238 C 181.549 269.948, 184.111 285.214, 192.410 302.579 C 201.937 322.515, 217.371 333.027, 240.659 335.440 C 246.754 336.072, 263.138 334.582, 265.668 333.166 C 267.573 332.100, 255.945 313.134, 248.989 305.960 C 245.958 302.834, 241.008 298.987, 237.989 297.411 C 233.200 294.911, 231.305 294.524, 223.127 294.372 L 213.755 294.198 210.892 287.412 C 207.491 279.351, 207.789 278.714, 216.869 274.639 C 226.614 270.266, 234.518 268.691, 247 268.634 C 266.898 268.544, 279.521 273.385, 292.086 285.928 C 296.259 290.092, 300.673 294.833, 301.897 296.461 C 303.717 298.886, 304.292 299.158, 305.065 297.961 C 306.780 295.307, 309.748 284.654, 311.601 274.500 C 314.202 260.247, 314.219 218.917, 311.630 204.500 C 305.249 168.974, 290.226 149.554, 265.240 144.534 C 256.081 142.694, 242.772 142.012, 235.464 143.009 " stroke="none" fill="white" fill-rule="evenodd" transform="scale(0.05859375) translate(0 0)"></path>
    </g>
</svg>