<svg width="60" height="60" viewBox="0 0 60 60" xmlns="http://www.w3.org/2000/svg">
    <rect fill="transparent" x="0" y="0" width="60" height="60" rx="4.8"></rect>

    <g width="30" height="30" viewBox="0 0 30 30" transform="translate(15, 15)" fill="#FFFFFF">
        <path d="M 119.500 1.461 C 82.988 8.269, 54.164 35.714, 44.761 72.623 L 42.500 81.500 42.500 219.500 L 42.500 357.500 44.733 366 C 51.611 392.189, 70.701 415.775, 94.497 427.487 C 112.432 436.314, 112.207 436.285, 165.560 436.930 C 205.517 437.414, 212.968 437.731, 214.927 439.034 C 216.196 439.877, 225.011 453.152, 234.517 468.534 C 252.972 498.396, 254.926 500.633, 258.893 496.451 C 259.911 495.378, 266.952 484.375, 274.539 472 C 292.402 442.866, 294.725 439.354, 296.785 438.358 C 297.728 437.902, 319.875 437.266, 346 436.945 C 399.848 436.284, 399.549 436.324, 417.503 427.487 C 441.299 415.775, 460.389 392.189, 467.267 366 L 469.500 357.500 469.500 219.500 L 469.500 81.500 467.239 72.623 C 458.523 38.411, 433.581 12.724, 399.470 2.831 L 391.500 0.520 259 0.338 C 153.635 0.193, 125.066 0.423, 119.500 1.461 M 125 4.118 C 96.664 7.363, 69.961 26.042, 56.557 51.994 C 54.051 56.847, 52 61.196, 52 61.659 C 52 62.121, 54.295 58.918, 57.100 54.540 C 67.531 38.261, 85.054 23.590, 101.747 17.162 C 118.441 10.733, 111.766 11, 256 11 C 400.234 11, 393.559 10.733, 410.253 17.162 C 426.946 23.590, 444.469 38.261, 454.900 54.540 C 457.705 58.918, 460 62.121, 460 61.659 C 460 61.196, 457.949 56.847, 455.443 51.994 C 441.710 25.406, 415.379 7.344, 385.500 4.018 C 374.409 2.784, 135.855 2.875, 125 4.118 M 208 93.500 L 208 112 192 112 L 176 112 176 128 L 176 144 192 144 L 208 144 208 160 L 208 176 192 176 L 176 176 176 192 L 176 208 192 208 L 208 208 208 226.500 L 208 245 224 245 L 240 245 240 226.500 L 240 208 256 208 L 272 208 272 226.500 L 272 245 288 245 L 304 245 304 226.500 L 304 208 320 208 L 336 208 336 192 L 336 176 320 176 L 304 176 304 160 L 304 144 320 144 L 336 144 336 128 L 336 112 320 112 L 304 112 304 93.500 L 304 75 288 75 L 272 75 272 93.500 L 272 112 256 112 L 240 112 240 93.500 L 240 75 224 75 L 208 75 208 93.500 M 240 160 L 240 176 256 176 L 272 176 272 160 L 272 144 256 144 L 240 144 240 160 M 107.030 242.583 C 95.798 247.455, 92.996 259.227, 100.075 271.800 C 108.942 287.552, 130.767 310.980, 148.010 323.257 C 159.490 331.431, 182.083 342.882, 194.836 346.990 C 233.386 359.408, 281.765 358.964, 319.848 345.841 C 357.101 333.003, 391.733 305.311, 411.367 272.660 C 419.211 259.615, 416.555 247.471, 404.782 242.553 C 394.050 238.070, 383.135 243.073, 373.916 256.703 C 355.202 284.370, 319.404 306.689, 281.728 314.181 C 230.462 324.374, 171.009 301.294, 139.807 259.085 C 135.909 253.813, 131.546 248.448, 130.110 247.163 C 123.646 241.375, 114.156 239.492, 107.030 242.583 " stroke="none" fill="white" fill-rule="evenodd" transform="scale(0.05859375) translate(0 0)"></path>
    </g>
</svg>