<svg xmlns="http://www.w3.org/2000/svg" width="200" height="200" viewBox="0 0 200 200">
  <path fill="#FFF" fill-rule="evenodd" d="M49.4908087,1.26665748 C34.9871967,2.99816789 22.3630331,9.62299019 13.7188389,20.0394363 C7.63901655,27.3658793 3.86175246,35.2927573 1.9929902,44.6475888 C0.94272978,49.9039002 0.94272978,59.0960998 1.9929902,64.3524112 C6.4181097,86.5030544 23.1648376,103.04307 45.3164829,107.141924 C49.9509864,107.999498 59.0490136,107.999498 63.683517,107.141924 C83.2480822,103.521948 98.8473712,90.0625856 105.147932,71.365279 C107.131572,65.4788114 107.741023,61.5148712 107.741023,54.5 C107.741023,49.4734436 107.604439,47.6370741 107.00701,44.6475888 C102.653021,22.8522641 86.2933365,6.39740504 64.6673223,2.06078125 C61.4514216,1.41593137 52.2662347,0.935382966 49.4908087,1.26665748 M48.4889705,5.41560356 C26.9197273,8.4184467 10.6164798,23.5912868 6.01069545,44.9478064 C4.96177083,49.812399 4.96310663,59.1939462 6.01370098,64.0668871 C10.3456495,84.1587532 24.8452543,98.6540165 44.9478064,102.989304 C49.805386,104.036559 59.194614,104.036559 64.0521936,102.989304 C68.6523009,101.997151 72.0795894,100.832013 76.039522,98.9134928 C89.9901195,92.1557598 99.6134436,79.7109254 102.986299,64.0668871 C104.036894,59.1939462 104.038229,49.812399 102.989304,44.9478064 C98.6703799,24.9207261 84.0495527,10.2504749 64.2375335,6.06579655 C60.5387468,5.28436273 51.9716941,4.93071386 48.4889705,5.41560356 M30.4558823,30.4558823 C29.8006802,31.1110845 29.7879902,31.5689246 29.7879902,54.5 C29.7879902,77.4310752 29.8006802,77.8889155 30.4558823,78.5441178 C31.1110845,79.1993197 31.5689246,79.2120098 54.5,79.2120098 C77.4310752,79.2120098 77.8889155,79.1993197 78.5441178,78.5441178 C79.1993197,77.8889155 79.2120098,77.4310752 79.2120098,54.5 C79.2120098,31.5689246 79.1993197,31.1110845 78.5441178,30.4558823 C78.1767769,30.0885417 77.5432813,29.7879902 77.136535,29.7879902 C76.610904,29.7879902 73.227028,32.9524632 65.4484222,40.7180454 L54.5,51.6477665 L43.5515778,40.7180454 C35.7729718,32.9524632 32.3890962,29.7879902 31.8634651,29.7879902 C31.4567187,29.7879902 30.823223,30.0885417 30.4558823,30.4558823 M33.7953431,54.5 L33.7953431,72.3644456 L42.7277329,63.4323898 L51.6597885,54.5 L42.7277329,45.5676102 L33.7953431,36.6355544 L33.7953431,54.5 M66.1874447,45.651097 L57.3415472,54.5016699 L66.2732691,63.4330576 L75.2046568,72.3644456 L75.2046568,54.5828186 C75.2046568,44.80254 75.1659189,36.8008579 75.1188328,36.8008579 C75.0717462,36.8008579 71.0523712,40.7834989 66.1874447,45.651097 M45.4834561,66.3550856 L36.6385602,75.2046568 L54.5,75.2046568 L72.3614398,75.2046568 L63.5165439,66.3550856 C58.6519517,61.4878218 54.5945066,57.5055148 54.5,57.5055148 C54.4054934,57.5055148 50.3480483,61.4878218 45.4834561,66.3550856" transform="translate(46 46)"/>
</svg>
