<svg width="60" height="60" viewBox="0 0 60 60" xmlns="http://www.w3.org/2000/svg">
    <rect fill="transparent" x="0" y="0" width="60" height="60" rx="4.8"></rect>

    <g width="30" height="30" viewBox="0 0 30 30" transform="translate(15, 15)" fill="#FFFFFF">
        <path d="M 96.756 2.696 C 90.333 6.815, 89.561 15.407, 95.115 20.961 C 102.976 28.822, 117.295 20.604, 114.132 10.046 C 113.528 8.030, 111.929 5.343, 110.579 4.074 C 107.296 0.990, 100.476 0.310, 96.756 2.696 M 39 30.343 C 22.460 36.198, 8.536 50.230, 2.815 66.810 C -0.451 76.273, -0.472 94.698, 2.773 103.432 C 9.212 120.763, 22.988 134.424, 39.810 140.157 C 48.376 143.077, 64.334 143.287, 73.500 140.601 C 93.072 134.866, 109.042 116.930, 113.411 95.778 C 115.389 86.199, 115.391 83.807, 113.422 74.277 C 109.207 53.870, 93.934 36.527, 74.582 30.175 C 65.003 27.030, 48.134 27.110, 39 30.343 M 47.459 41.395 C 39.714 43.276, 33.389 46.745, 27.120 52.550 C 0.005 77.653, 13.997 123.207, 50.634 129.106 C 79.443 133.745, 106.047 107.226, 101.162 78.739 C 96.691 52.666, 71.932 35.449, 47.459 41.395 M 58 157.967 C 33.053 162.503, 11.262 181.511, 3.212 205.759 C 1.021 212.358, 0.634 215.344, 0.587 226 C 0.547 234.981, 1.029 240.330, 2.299 245 C 7.556 264.325, 20.241 280.113, 37.985 289.415 C 48.342 294.844, 55.597 296.400, 70.500 296.391 C 82.257 296.384, 84.217 296.116, 91 293.593 C 108.484 287.088, 123.491 273.974, 130.994 258.645 C 134.915 250.633, 138 240.790, 138 236.290 C 138 235.030, 138.450 234, 139 234 C 139.598 234, 139.960 230.483, 139.900 225.250 C 139.833 219.333, 139.541 217.309, 139 219 C 138.251 221.337, 138.193 221.282, 138.100 218.148 C 137.967 213.688, 132.545 197.639, 129.266 192 C 125.162 184.944, 120.122 179.324, 112 172.747 C 103.670 166.003, 95.535 161.809, 86.500 159.602 C 78.945 157.756, 63.906 156.893, 58 157.967 M 60 170.624 C 47.651 173.016, 36.635 179.301, 27.367 189.244 C 17.162 200.192, 13.032 211.012, 13.012 226.856 C 12.990 244.042, 17.763 255.710, 29.709 267.668 C 40.947 278.919, 53.326 284, 69.500 284 C 86.027 284, 96.731 279.501, 108.523 267.598 C 117.692 258.344, 121.214 252.394, 124.022 241.415 C 131.386 212.623, 116.306 183.969, 88.197 173.337 C 83.165 171.435, 79.138 170.722, 72 170.473 C 66.775 170.290, 61.375 170.358, 60 170.624 M 0.355 226.500 C 0.352 231.450, 0.521 233.601, 0.731 231.280 C 0.940 228.959, 0.943 224.909, 0.736 222.280 C 0.530 219.651, 0.358 221.550, 0.355 226.500 " stroke="none" fill="white" fill-rule="evenodd" transform="scale(0.2158273381294964) translate(0 -79)"></path>
    </g>
</svg>