<svg width="60" height="60" viewBox="0 0 60 60" xmlns="http://www.w3.org/2000/svg">
    <rect fill="transparent" x="0" y="0" width="60" height="60" rx="4.8"></rect>

    <g width="30" height="30" viewBox="0 0 30 30" transform="translate(15, 15)" fill="#FFFFFF">
        <path d="M 312.217 64.090 C 302.002 65.836, 293.546 72.183, 288.923 81.577 L 286.500 86.500 286.500 524 L 286.500 961.500 289.161 966.540 C 292.731 973.304, 299.428 979.268, 306.369 981.865 C 311.993 983.969, 313.071 984, 381 984 C 449.117 984, 449.992 983.975, 455.681 981.846 C 463.454 978.938, 470.940 971.450, 473.851 963.669 L 476.009 957.901 475.755 522.200 L 475.500 86.500 473.131 81.732 C 469.823 75.073, 462.778 68.467, 456.102 65.766 L 450.500 63.500 384 63.344 C 347.425 63.258, 315.123 63.594, 312.217 64.090 M 349 524.014 L 349 921.028 380.750 920.764 L 412.500 920.500 412.751 523.750 L 413.002 127 381.001 127 L 349 127 349 524.014 M 591.282 288.097 C 584.571 290.694, 577.592 297.502, 574.181 304.780 L 571.500 310.500 571.500 904 C 571.500 1475.413, 571.568 1497.694, 573.320 1502.720 C 575.738 1509.652, 582.642 1517.186, 589.797 1520.700 L 595.500 1523.500 666.500 1523.500 L 737.500 1523.500 743 1520.887 C 749.996 1517.564, 755.564 1511.996, 758.887 1505 L 761.500 1499.500 761.500 904.500 L 761.500 309.500 758.720 303.839 C 755.667 297.623, 750.415 292.328, 743.795 288.793 L 739.500 286.500 668 286.289 C 598.396 286.083, 596.362 286.131, 591.282 288.097 M 878.882 287.381 C 870.278 290.455, 863.528 296.604, 859.651 304.897 L 857.500 309.500 857.500 904.500 L 857.500 1499.500 860.113 1505 C 863.436 1511.996, 869.004 1517.564, 876 1520.887 L 881.500 1523.500 952.500 1523.500 L 1023.500 1523.500 1029.203 1520.700 C 1036.358 1517.186, 1043.262 1509.652, 1045.680 1502.720 C 1047.432 1497.694, 1047.500 1475.413, 1047.500 903.979 L 1047.500 310.458 1044.200 303.755 C 1040.406 296.048, 1034.794 290.869, 1027.045 287.925 C 1022.216 286.090, 1018.711 286.002, 952.239 286.044 C 897.840 286.078, 881.704 286.372, 878.882 287.381 M 1166 286.935 C 1157.670 289.478, 1150.103 295.889, 1145.856 304 L 1143.500 308.500 1143.244 633.196 L 1142.988 957.893 1145.148 963.665 C 1148.072 971.481, 1155.540 978.936, 1163.387 981.872 C 1169.198 984.046, 1169.390 984.051, 1239.856 983.776 L 1310.500 983.500 1315.500 980.836 C 1322.051 977.347, 1327.279 971.801, 1330.431 965 L 1332.980 959.500 1332.990 635.428 C 1333.001 266.403, 1334.096 305.938, 1323.579 295.421 C 1313.589 285.432, 1318.666 285.986, 1238.072 286.086 C 1199.807 286.133, 1167.375 286.515, 1166 286.935 M 635 904.500 L 635 1460 666.500 1460 L 698 1460 698 904.500 L 698 349 666.500 349 L 635 349 635 904.500 M 921 904.500 L 921 1460 952.500 1460 L 984 1460 984 904.500 L 984 349 952.500 349 L 921 349 921 904.500 M 1206.248 634.750 L 1206.500 920.500 1238.250 920.764 L 1270 921.028 1270 635.014 L 1270 349 1237.998 349 L 1205.997 349 1206.248 634.750 " stroke="none" fill="white" fill-rule="evenodd" transform="scale(0.01875) translate(0 0)"></path>
    </g>
</svg>