<svg width="60" height="60" viewBox="0 0 60 60" xmlns="http://www.w3.org/2000/svg">
    <rect fill="transparent" x="0" y="0" width="60" height="60" rx="4.8"></rect>

    <g width="30" height="30" viewBox="0 0 30 30" transform="translate(15, 15)" fill="#FFFFFF">
        <path d="M 13 0.888 C 7.792 1.967, 4.344 4.658, 2.021 9.456 C -0.007 13.645, -0.049 14.893, 0.222 62.623 L 0.500 111.500 2.901 114.867 C 7.881 121.849, 8.642 121.953, 54.565 121.978 L 95.631 122 104.747 128.429 C 109.762 131.964, 114.861 135.390, 116.079 136.042 C 118.579 137.380, 126.601 136.799, 128.238 135.162 C 128.963 134.437, 129.370 114.534, 129.515 72.799 C 129.631 39.084, 129.432 18.025, 129.071 26 C 128.711 33.975, 128.322 39.747, 128.208 38.827 C 127.877 36.166, 122.892 30.853, 119.329 29.364 C 117.447 28.578, 112.491 28, 107.632 28 L 99.199 28 98.849 19.072 C 98.459 9.093, 97.028 6.112, 90.895 2.500 C 87.688 0.611, 85.534 0.491, 52 0.331 C 32.475 0.239, 14.925 0.489, 13 0.888 M 0.463 61.500 C 0.463 88.450, 0.592 99.331, 0.749 85.681 C 0.907 72.030, 0.906 49.980, 0.749 36.681 C 0.592 23.381, 0.463 34.550, 0.463 61.500 M 13.463 15.237 C 13.197 15.932, 13.096 37.200, 13.239 62.500 L 13.500 108.500 56.625 109 L 99.751 109.500 106.639 114.250 C 117.885 122.006, 117 124.829, 117 81.200 C 117 53.133, 116.691 43.091, 115.800 42.200 C 115.086 41.486, 111.644 41, 107.300 41 L 100 41 100 66.429 C 100 88.212, 99.775 92.082, 98.429 93.429 C 97.067 94.791, 92.661 95, 65.363 95 C 45.565 95, 33.150 94.616, 31.934 93.965 C 30.085 92.975, 30 91.550, 30 61.500 C 30 31.450, 30.085 30.025, 31.934 29.035 C 33.129 28.396, 44.048 28, 60.480 28 L 87.091 28 86.796 21.250 L 86.500 14.500 50.223 14.237 C 21.739 14.031, 13.843 14.246, 13.463 15.237 M 42 61 L 42 81 64.500 81 L 87 81 87 61 L 87 41 64.500 41 L 42 41 42 61 " stroke="none" fill="white" fill-rule="evenodd" transform="scale(0.23255813953488372) translate(0 -4)"></path>
    </g>
</svg>