<svg xmlns="http://www.w3.org/2000/svg" width="72" height="72" viewBox="0 0 72 72">
  <g fill="#FFF" fill-rule="evenodd" transform="translate(13 11.6)">
    <path d="M12.8251821,32.5303534 C12.7317486,32.7436244 12.3621861,33.0350869 11.8332862,33.015539 C11.2894894,32.9743363 10.684079,32.5861878 10.6023248,31.6194452 C10.5618052,31.1418681 10.7453351,30.5605818 10.8583133,30.2567116 C11.0767616,29.6688703 10.8796456,29.0529363 10.367907,28.7237826 C10.0671086,28.5304107 9.7079143,28.4647438 9.35658558,28.5384874 C9.01157314,28.6111774 8.71768691,28.8105191 8.52891327,29.1001087 C8.37243612,29.3401849 8.27685755,29.6397241 8.22561218,29.8005552 C8.21190702,29.8436308 8.2009429,29.8775762 8.19260063,29.8995822 C8.07747731,30.2038036 7.89358985,30.2926469 7.76929004,30.2761424 C7.71053663,30.2682999 7.62949744,30.2296723 7.57765619,30.0902619 C7.43643349,29.7096049 7.5506034,28.6323641 8.28126704,27.8406161 C8.74438217,27.3386918 9.47039797,27.0818771 10.1757964,27.1695499 C10.910512,27.2612026 11.5214045,27.697577 11.8960916,28.3982576 C12.3938867,29.3292989 11.9504355,30.3063422 11.6855089,30.8899695 C11.6569068,30.9531783 11.6304499,31.0112367 11.6081641,31.0634424 C11.4420338,31.4508886 11.4332148,31.7891724 11.5837332,32.0161386 C11.699214,32.1904308 11.9049106,32.2923842 12.147909,32.2969493 C12.2612446,32.2988221 12.3646888,32.2751774 12.4559771,32.2544589 C12.5867123,32.2246104 12.7216187,32.1935913 12.8038497,32.2947253 C12.8338819,32.3277343 12.8803602,32.4045212 12.8251821,32.5303534 M10.3340612,25.4056749 C9.94328547,25.3857759 9.58087345,25.4200725 9.28102845,25.4794185 C6.77262718,25.9763094 5.35587147,28.0722644 5.63474162,30.7955076 C5.88691651,33.2593608 8.42475407,35.3369385 10.7742947,35.3988596 C11.0174123,35.4045952 11.2585039,35.3887931 11.4948284,35.3492291 C14.0371946,34.9233894 14.7027886,32.2117345 14.2837683,29.5484226 C13.8105233,26.5413253 11.7394953,25.4812913 10.3340612,25.4056749"/>
    <path d="M43.6668708,37.3410545 C40.9651096,43.8109937 34.5169626,47.4125513 26.8356715,47.1845436 C19.6747509,46.9719402 13.5675161,43.1959961 10.8945859,37.0409639 C9.27816563,37.0422573 7.61255613,36.3324819 6.34575619,35.2109051 C5.01129161,34.0295923 4.18801874,32.5005648 4.02750643,30.9055692 C3.90253276,29.6638149 4.05551371,28.5090776 4.44490906,27.501093 L2.94381292,26.2304116 C-3.92491402,20.4349706 17.558789,-3.42705349 24.4299872,2.56182361 C24.4647021,2.59204434 26.7675361,4.84989687 26.7731846,4.85542361 C26.7823635,4.85083759 28.0437503,4.3163894 28.0501049,4.31368482 C34.0768482,1.81994602 38.9672961,3.02407133 38.9734153,7.00309398 C38.9764749,9.07233157 37.6570731,11.4842275 35.5432294,13.67376 C36.3091933,14.3840058 36.9227645,15.4944116 37.2750914,16.763094 C37.57058,17.7007595 37.6229466,18.6524183 37.6496594,19.2620067 C37.6866102,20.1052472 37.7269736,22.0698294 37.7310923,22.1048713 C37.784871,22.1212164 38.394912,22.2885475 38.5799013,22.3404048 C40.1976159,22.794186 41.3486211,23.3988357 41.9114733,23.9892569 C42.4742078,24.5796781 42.7533392,25.1508145 42.8547774,25.8210795 C42.9496255,26.3615248 42.9367987,27.3163586 42.2233191,28.3837263 C42.2233191,28.3837263 42.4074846,28.7849446 42.5854132,29.3547875 C42.7633418,29.924748 42.8926696,30.3976964 42.9126748,30.4678978 C43.5666095,30.4678978 44.5935824,31.2200058 44.5935824,33.0351306 C44.5935824,34.8410834 43.843505,36.8870381 43.6668708,37.3410545 M45.243516,30.0565667 C44.9517931,29.699092 44.6004077,29.4105253 44.2201912,29.2066236 C44.1885359,29.1018506 44.1547624,28.9910805 44.1189884,28.8766651 C44.0779189,28.7450814 44.0364963,28.6212588 43.9964859,28.5068434 C44.5895813,27.2540357 44.542981,26.1644434 44.4404837,25.5632039 C44.2831487,24.5465176 43.8488005,23.6941051 43.0745992,22.882026 C42.1303537,21.8914448 40.558651,21.2557513 39.3070315,20.8798149 C39.2917334,20.2852781 39.2730226,19.6113677 39.2546649,19.1915701 C39.2300703,18.6332511 39.1792335,17.4761619 38.8157273,16.3080193 C38.5465985,15.347894 38.1500248,14.4662014 37.6589559,13.7206786 C39.5547429,11.4463634 40.5830103,9.09679036 40.5799506,7.00062458 C40.5746551,3.60402699 37.9285554,1.40932048 33.8386686,1.40932048 C31.896752,1.40932048 29.6826469,1.9007306 27.4315911,2.83216386 C27.4279431,2.83369253 27.3043816,2.88578506 27.1325722,2.95833831 C26.4482766,2.2874853 25.5462774,1.40461687 25.4860265,1.35205398 C24.4567,0.454957108 23.1789561,0 21.6884509,0 C19.9139896,0 17.8751066,0.65721253 15.6284048,1.95341108 C13.6908423,3.07110747 11.6085362,4.66963084 9.6063686,6.57612337 C5.52413082,10.4630728 2.23303989,15.1170641 0.80266802,19.0254149 C0.188508349,20.7034294 -0.0753249494,22.2259894 0.0184641401,23.5509976 C0.132258431,25.1597513 0.785604761,26.5103942 1.90542531,27.4553504 L2.60219469,28.045066 C2.38143141,29.0007229 2.3230633,30.0124704 2.42909086,31.06608 C2.6300843,33.0638227 3.6427005,34.9625542 5.2804204,36.412561 C6.59723334,37.5783518 8.21177074,38.3358689 9.83654609,38.5694034 C11.2946899,41.4778834 13.5218572,43.9292896 16.3239974,45.698319 C19.3471363,47.6069282 22.9654888,48.675707 26.7878943,48.7890641 C27.0317224,48.7964723 27.2782571,48.8 27.5209084,48.8 L27.5217322,48.8 C31.4679346,48.8 35.1633659,47.8304675 38.2073338,45.9965282 C41.3417958,44.1081446 43.7423022,41.3288964 45.1493739,37.9593446 C45.1544341,37.9471152 45.1593765,37.935121 45.1642013,37.922774 C45.407088,37.2983692 46.2,35.1002525 46.2,33.0351306 C46.2,31.5424386 45.6798648,30.5914853 45.243516,30.0565667"/>
    <path d="M24.6151671 24.0923316C24.5088552 24.0774733 24.4635611 24.0321964 24.4503015 23.9719442 24.4091144 23.7859229 24.6962505 23.4793972 24.9991104 23.2582775 25.9163734 22.6008851 27.1055181 22.4587367 28.1025738 22.8865858 28.5901301 23.0936661 29.0497591 23.4624329 29.273061 23.826052 29.3811331 24.0021288 29.4021373 24.1385444 29.3322014 24.2101451 29.2231907 24.3247997 28.9450899 24.1935319 28.4923842 23.9955771 28.0397958 23.7975053 27.4520293 23.5762686 26.7423444 23.6195566 25.7374268 23.6809788 24.8647537 24.1207613 24.6151671 24.0923316M29.1439847 25.2062367C29.0789772 25.3075539 28.9389881 25.2891858 28.642582 25.2560763 28.106094 25.1950052 27.5650297 25.1596728 26.7444565 25.4523932 26.7444565 25.4523932 26.4461729 25.5717276 26.313107 25.5717276 26.2748535 25.5717276 26.2430538 25.5586242 26.2160651 25.5349913 26.196469 25.5182611 26.1714751 25.4852687 26.1710058 25.4279413 26.170067 25.307203 26.2801339 25.135572 26.4583765 24.9803202 26.6670107 24.8001486 26.992283 24.6062886 27.5818096 24.5135119 28.3938168 24.4174594 28.9889759 24.7948838 29.1272048 25.0183434 29.1865799 25.114162 29.1632288 25.177222 29.1439847 25.2062367M31.624479 25.5330024C31.7679884 25.242037 32.2087252 25.1650546 32.6090964 25.3611374 33.0093503 25.5572203 33.2176325 25.9520769 33.0742404 26.2432763 32.9307311 26.5343588 32.4898769 26.6112242 32.089623 26.4151413 31.6893692 26.2190584 31.481087 25.8240849 31.624479 25.5330024M33.7473146 19.7303069C34.3799058 19.6285216 34.6861686 20.2818192 34.9122868 21.3613279 35.0644795 22.087513 35.0353787 22.7543819 34.8661714 23.1413999 34.5738723 23.1001008 34.2557579 23.1017388 33.9236798 23.1412829 33.671277 22.8197819 33.4446894 22.3006771 33.3174906 21.6934754 33.091255 20.6139667 33.1146061 19.8319752 33.7473146 19.7303069M35.2383805 24.9881588C35.2308706 25.4327381 34.9611011 25.7887525 34.6358289 25.7832538 34.310674 25.777755 34.0531081 25.412849 34.0607353 24.9681528 34.0682452 24.5235735 34.3380147 24.1675591 34.6631696 24.1729408 34.9884418 24.1785566 35.2460077 24.5433456 35.2383805 24.9881588M42.5452719 31.8948149C42.2001688 31.6830548 41.7871247 31.7567613 41.7871247 31.7567613 41.7871247 31.7567613 41.5987907 30.4708743 41.0652362 29.3024497 39.4835823 30.5470377 37.4471105 31.4216889 35.8966695 31.8654493 34.1074375 32.3774174 31.6863183 32.770987 28.9849862 32.6104705 27.4862932 32.4897322 26.4947526 32.0534595 26.1218394 33.2617792 29.545412 34.5115149 33.1694049 33.9764989 33.1694049 33.9764989 33.2394581 33.9694792 33.3021188 34.0202548 33.3091593 34.0902176 33.3150264 34.1470769 33.2802931 34.2044042 33.2300707 34.2255802 33.2300707 34.2255802 30.4464819 35.5141582 26.0253842 34.1510547 26.1482414 35.1849355 27.1587914 35.6482339 27.6416541 35.8355422 28.2493687 36.0714032 28.9150503 36.1804421 28.9150503 36.1804421 34.3931654 37.1199083 39.514678 33.9969729 40.6676813 33.2104186 40.7541624 33.1514533 40.8114253 33.2088976 40.7420761 33.3131398 40.6755432 33.4134041 40.6713189 33.4193708 40.6290757 33.4736563 39.2179198 35.2887097 35.423781 37.3903997 30.4877863 37.3896978 28.3349111 37.3893468 26.1832093 36.633094 25.3932624 35.4712212 24.1676244 33.6683352 25.3325966 31.0365429 27.3749355 31.3108951 27.3772824 31.3112461 28.0735903 31.3898664 28.2694342 31.4117444 30.8226806 31.6952222 34.5180174 31.3382718 37.5639832 29.9286045 40.3506229 28.6390906 41.4031814 27.2198298 41.245239 26.0709434 41.2022918 25.7613758 41.0634761 25.4368329 40.7649578 25.1314771 40.2642592 24.6427909 39.470088 24.2623247 38.1303934 23.8873571 37.6878964 23.7634599 37.387618 23.6842546 37.0641059 23.5781405 36.4887777 23.3893114 36.2045752 23.2372184 36.1401544 22.1588797 36.1121096 21.6871577 36.0296181 20.0442033 35.9998132 19.3652839 35.9473613 18.1756834 35.803852 16.5494592 34.7917765 15.8780275 34.5281088 15.7030036 34.234871 15.6186506 33.9266133 15.6023883 33.6246921 15.588115 33.4735555 15.6420495 33.413007 15.652345 32.835332 15.7500354 32.4939838 16.0566781 32.0680321 16.4105866 30.8057833 17.4592088 29.7398478 17.6309568 28.5548102 17.5799471 27.8465333 17.5503475 27.0961307 17.4403726 26.2357786 17.389597 26.0684488 17.3797695 25.9005323 17.3694739 25.7327331 17.3608164 23.7476571 17.2594991 21.6186023 18.9690234 21.264816 21.3963092 20.7722139 24.7749948 23.2264236 26.5209044 23.9348177 27.5455426 24.0254058 27.6680359 24.1298402 27.8409538 24.1298402 28.0047462 24.1298402 28.2008291 24.0025241 28.3564318 23.8775548 28.4886357 23.8774374 28.4888696 23.8779068 28.4894546 23.8776721 28.4896886 21.8526998 30.5659908 21.2047368 33.8644181 21.9678124 36.6137899 22.0632115 36.9572859 22.1840738 37.2856896 22.3269965 37.599235 24.1176367 41.7713775 29.6726108 43.714306 35.0994474 41.9471033 35.8263816 41.7104234 36.5148276 41.417469 37.1612652 41.0788868 38.3784546 40.4843205 39.4422779 39.6666456 40.3184712 38.7262435 41.7580239 37.2261394 42.6147384 35.5954694 42.9472859 33.586205 43.1106261 32.5109082 42.8713656 32.0948756 42.5452719 31.8948149M31.4989153 11.7791008C31.5853584 11.799539 31.6403783 11.6447409 31.5630468 11.5997527 30.4214138 10.9369022 28.669656 10.4866573 27.4269781 10.4775871 27.365767 10.4771033 27.3313066 10.4038161 27.3678697 10.352902 27.5828093 10.0537062 27.8771831 9.75801757 28.146208 9.54432357 28.2067182 9.49631196 28.1700383 9.39533036 28.0939917 9.4001678 26.3243613 9.5128802 24.3068494 10.3899084 23.1469933 11.2084036 23.0898707 11.2486753 23.0159268 11.1958263 23.0299446 11.1256834 23.1203595 10.6748338 23.4053881 10.080675 23.5533927 9.80312672 23.5883203 9.73745844 23.5198668 9.66501775 23.4555017 9.69912172 21.5912511 10.6864436 19.5100751 12.4447328 17.8196452 14.4672673 17.7599527 14.5386196 17.8484985 14.6394803 17.9223256 14.5839706 19.3825131 13.484541 21.3840213 12.4620267 24.0062844 11.7999018 26.9435976 11.058201 29.7714551 11.3691276 31.4989153 11.7791008M25.2 5.64954716C25.2 5.64954716 23.3243145 3.47127742 22.7581032 3.31072978 19.2743163 2.36766017 11.7490298 7.56583341 6.94408324 14.4335603 4.99993776 17.2124059 2.21692142 22.1332266 3.54764185 24.6641573 3.7115917 24.9780409 4.63969661 25.7838529 5.13792004 26.2 5.97147935 24.9871441 7.33454121 24.1093339 8.88114666 23.8081002 10.8501974 18.5155846 14.1371028 13.6381519 18.4884429 10.2823752 21.7177476 7.58474919 25.2 5.64954716 25.2 5.64954716"/>
  </g>
</svg>
