<svg width="60" height="60" viewBox="0 0 60 60" xmlns="http://www.w3.org/2000/svg">
    <rect fill="transparent" x="0" y="0" width="60" height="60" rx="4.8"></rect>

    <g width="30" height="30" viewBox="0 0 30 30" transform="translate(15, 15)" fill="#FFFFFF">
        <path d="M 86.814 1.010 C 55.299 6.011, 32.389 23.159, 18.498 52.144 C 16.574 56.159, 15 60.010, 15 60.703 C 15 61.395, 13.762 62.224, 12.250 62.544 C 10.737 62.864, 8.500 63.328, 7.278 63.575 C 6.056 63.822, 3.918 65.698, 2.528 67.744 C 0.040 71.406, 0 71.769, 0 90.764 C 0 104.891, 0.369 110.948, 1.377 113.360 C 3.361 118.108, 8.025 120, 17.746 120 C 29.895 120, 29.429 121.113, 29.830 91.167 L 30.161 66.540 27.414 64.350 L 24.667 62.160 26.468 57.444 C 29.304 50.020, 39.455 35.661, 46.156 29.597 C 49.520 26.553, 56.166 22.051, 60.925 19.593 C 73.561 13.067, 82.053 10.906, 97.519 10.281 C 108.820 9.824, 111.723 10.051, 119.519 12.003 C 130.820 14.832, 137.572 17.806, 145.441 23.421 C 156.361 31.213, 166.093 42.989, 172.633 56.325 L 175.376 61.917 172.688 64.031 L 170 66.145 170 89.423 C 170 103.773, 170.422 113.912, 171.100 115.857 C 172.454 119.740, 174.483 120.326, 184.931 119.852 C 192.114 119.525, 193.173 119.209, 195.939 116.558 C 197.623 114.945, 199 112.810, 199 111.813 C 199 110.816, 199.450 110, 200 110 C 200.634 110, 200.994 102.594, 200.985 89.750 C 200.975 76.306, 200.644 70.004, 200 71 C 199.148 72.319, 199.029 72.311, 199.015 70.937 C 198.992 68.551, 193.554 63.861, 189.959 63.125 C 187.092 62.539, 186.157 61.329, 181.041 51.577 C 167.605 25.972, 147.703 9.144, 123.500 2.924 C 114.374 0.579, 95.677 -0.396, 86.814 1.010 M 90.536 35.103 C 75.605 37.303, 63.420 43.515, 52.500 54.494 C 43.524 63.519, 39.075 70.401, 35.258 81.165 C 32.985 87.574, 32.649 90.142, 32.595 101.500 C 32.548 111.362, 32.972 115.936, 34.352 120.448 C 41.301 143.170, 58.904 160.767, 81.552 167.632 C 90.715 170.410, 109.205 170.172, 119 167.150 C 130.745 163.527, 138.514 158.696, 148.026 149.101 C 161.928 135.076, 167.047 122.382, 167.059 101.906 C 167.065 92.298, 166.637 88.953, 164.562 82.385 C 158.559 63.383, 144.188 47.480, 126.228 39.966 C 115.314 35.400, 101.394 33.503, 90.536 35.103 M 0.422 91 C 0.422 102.275, 0.568 106.888, 0.746 101.250 C 0.924 95.612, 0.924 86.388, 0.746 80.750 C 0.568 75.112, 0.422 79.725, 0.422 91 M 68.687 85.805 C 64.677 89.990, 64.896 95.893, 69.195 99.510 C 71.765 101.673, 73.064 102.089, 75.838 101.639 C 82.759 100.516, 86.541 93.881, 83.553 88.103 C 80.495 82.189, 73.227 81.066, 68.687 85.805 M 119.923 85.923 C 115.329 90.517, 116.371 97.589, 122.079 100.541 C 131.832 105.584, 140.808 93.654, 133.077 85.923 C 129.043 81.889, 123.957 81.889, 119.923 85.923 M 63.263 114.758 C 62.500 116.745, 63.806 122.045, 66.464 127.753 C 69.510 134.294, 77.052 141.946, 84.119 145.667 C 89.123 148.302, 90.306 148.500, 101 148.500 C 110.706 148.500, 113.236 148.160, 117.217 146.321 C 123.867 143.249, 131.158 136.054, 134.487 129.278 C 137.744 122.649, 139.092 114.016, 136.877 113.974 C 136.120 113.960, 119.355 113.847, 99.622 113.724 C 71.562 113.549, 63.640 113.774, 63.263 114.758 " stroke="none" fill="white" fill-rule="evenodd" transform="scale(0.17647058823529413) translate(-15 0)"></path>
    </g>
</svg>