<svg xmlns="http://www.w3.org/2000/svg" width="200" height="200" viewBox="0 0 200 200">
  <g fill="#FFF" fill-rule="evenodd" transform="translate(57 57)">
    <path fill-opacity=".8" d="M0,54.81 L54.81,54.81 L54.81,87 L6,87 C2.6862915,87 -4.82366169e-16,84.3137085 -8.8817842e-16,81 L0,54.81 Z"/>
    <path fill-opacity=".6" d="M6,0 L81,0 C84.3137085,-6.08718376e-16 87,2.6862915 87,6 L87,54.81 L0,54.81 L0,6 C-4.05812251e-16,2.6862915 2.6862915,6.08718376e-16 6,0 Z"/>
    <path d="M54.81,54.81 L87,54.81 L87,81 C87,84.3137085 84.3137085,87 81,87 L54.81,87 L54.81,54.81 Z"/>
  </g>
</svg>
