<svg width="60" height="60" viewBox="0 0 60 60" xmlns="http://www.w3.org/2000/svg">
    <rect fill="transparent" x="0" y="0" width="60" height="60" rx="4.8"></rect>

    <g width="30" height="30" viewBox="0 0 30 30" transform="translate(15, 15)" fill="#FFFFFF">
        <path d="M 155.035 64.202 C 144.920 68.085, 140.670 73.624, 128.260 99.098 C 112.862 130.703, 100.603 150.443, 81.120 175 C 70.503 188.381, 48.285 210.144, 36.216 218.982 C 26.551 226.060, 26 226.658, 26 230.051 C 26 241.922, 34.354 253.306, 45.428 256.523 C 56.432 259.720, 68.920 257.037, 82.750 248.506 C 86.737 246.046, 90 244.467, 90 244.998 C 90 245.529, 88.211 254.184, 86.025 264.232 C 78.791 297.474, 78.543 299.452, 78.541 324 C 78.539 348.379, 79.458 354.543, 85.479 370.541 C 93.551 391.985, 111.004 408.285, 131.460 413.485 C 138.877 415.370, 154.365 415.418, 163.024 413.582 C 203.633 404.973, 240.955 364.591, 280.479 286.500 C 285.489 276.600, 293.127 260.625, 297.451 251 C 301.775 241.375, 305.355 233.425, 305.407 233.334 C 305.458 233.242, 305.538 242.017, 305.585 252.834 C 305.632 263.650, 306.227 276.902, 306.906 282.282 C 309.684 304.268, 316.287 323.206, 325.207 334.768 C 348.648 365.152, 406.443 361.835, 438.089 328.288 C 451.241 314.346, 457.360 300.191, 457.447 283.500 C 457.492 275.017, 457.163 272.870, 455.278 269.345 C 453.053 265.183, 448.709 260.999, 446.615 261.001 C 446.002 261.001, 441.225 264.864, 436 269.585 C 424.164 280.280, 412.315 289.300, 405.693 292.656 C 399.189 295.951, 390.525 296.840, 386.283 294.646 C 376.801 289.743, 374.775 275.078, 373.003 198.500 C 372.044 157.053, 371.390 150.932, 366.489 137.500 C 361.744 124.495, 353.531 116.352, 342.852 114.062 C 331.527 111.633, 323.735 113.889, 315.986 121.841 C 311.082 126.873, 307.937 132.484, 287.592 172.500 C 275.008 197.250, 260.464 225.556, 255.272 235.402 C 229.999 283.331, 197.096 331.674, 182.600 342.175 C 174.500 348.042, 165.231 344.558, 161.434 334.220 C 158.855 327.194, 158.341 302.145, 160.446 286.043 C 163.699 261.166, 173.131 219.319, 187.017 168.167 C 194.343 141.179, 196.588 130.562, 198.040 116.040 C 200.070 95.734, 196.613 79.777, 188.246 70.832 C 180.237 62.270, 166.968 59.621, 155.035 64.202 " stroke="none" fill="white" fill-rule="evenodd" transform="scale(0.061855670103092786) translate(0 0)"></path>
    </g>
</svg>