<svg width="60" height="60" viewBox="0 0 60 60" xmlns="http://www.w3.org/2000/svg">
    <rect fill="transparent" x="0" y="0" width="60" height="60" rx="4.8"></rect>

    <g width="30" height="30" viewBox="0 0 30 30" transform="translate(15, 15)" fill="#FFFFFF">
        <path d="M 136 63.501 C 119.964 66.742, 108.269 72.881, 96.950 84 C 80.325 100.332, 73.092 122.021, 75.171 149.311 C 76.558 167.517, 83.910 184.001, 95.997 196 C 112.259 212.145, 131.639 218.910, 158.239 217.725 C 170.497 217.179, 176.655 215.972, 187.075 212.073 C 196.900 208.397, 196.824 208.867, 189.412 197.500 C 185.826 192, 182.519 186.863, 182.064 186.085 C 181.356 184.876, 180.360 184.916, 175.218 186.359 C 151.354 193.055, 127.294 185.600, 116.009 168.014 C 110.782 159.868, 108.764 152.066, 108.764 140 C 108.764 115.699, 120.647 99.172, 142.256 93.420 C 151.687 90.909, 168.728 91.869, 178 95.434 C 179.093 95.854, 181.333 92.896, 186.250 84.543 C 189.963 78.236, 193 72.650, 193 72.131 C 193 70.622, 179.204 65.313, 170.792 63.584 C 161.600 61.695, 145.133 61.656, 136 63.501 " stroke="none" fill="white" fill-rule="evenodd" transform="scale(0.10600706713780919) translate(0 0)"></path>
    </g>
</svg>