<svg width="60" height="60" viewBox="0 0 60 60" xmlns="http://www.w3.org/2000/svg">
    <rect fill="transparent" x="0" y="0" width="60" height="60" rx="4.8"></rect>

    <g width="30" height="30" viewBox="0 0 30 30" transform="translate(15, 15)" fill="#FFFFFF">
        <path d="M 74.250 24.346 L 6 36.484 6 127.500 L 6 218.517 73.750 230.439 C 111.013 236.996, 142.287 242.557, 143.250 242.797 C 144.841 243.194, 145 242.180, 145 231.617 L 145 220 183.953 220 C 211.313 220, 223.662 219.656, 225.445 218.843 C 226.841 218.207, 228.508 216.238, 229.148 214.468 C 230.237 211.457, 230.680 211.216, 236.029 210.731 C 242.787 210.118, 246.245 208.110, 248.414 203.540 C 250.620 198.892, 250.732 162.926, 248.553 158.750 C 247.307 156.361, 247.307 155.639, 248.553 153.250 C 250.752 149.035, 250.618 113.105, 248.386 108.401 C 246.901 105.271, 246.901 104.729, 248.386 101.599 C 250.728 96.663, 250.750 61.383, 248.414 56.460 C 246.233 51.864, 242.782 49.881, 235.873 49.255 L 230 48.722 230 45.408 C 230 40.901, 228.268 37.443, 225.343 36.110 C 223.690 35.357, 210.371 35, 183.953 35 L 145 35 145 23.500 C 145 14.911, 144.684 12.026, 143.750 12.104 C 143.063 12.161, 111.788 17.670, 74.250 24.346 M 145 51.500 L 145 60 175 60 L 205 60 205 65 L 205 70 175 70 L 145 70 145 77.500 L 145 85 175 85 L 205 85 205 90 L 205 95 175 95 L 145 95 145 102.500 L 145 110 175 110 L 205 110 205 115 L 205 120 175 120 L 145 120 145 127.500 L 145 135 175 135 L 205 135 205 140 L 205 145 175 145 L 145 145 145 152.500 L 145 160 175 160 L 205 160 205 165 L 205 170 175 170 L 145 170 145 177.500 L 145 185 175 185 L 205 185 205 190 L 205 195 175 195 L 145 195 145 203.500 L 145 212 183.500 212 L 222 212 222 156.500 L 222 101 230.345 101 C 242.339 101, 242 101.646, 242 78.826 C 242 56.335, 242.361 57, 230.171 57 L 222 57 222 50 L 222 43 183.500 43 L 145 43 145 51.500 M 90.266 86.731 L 86.032 87.113 85.766 114.024 L 85.500 140.934 71.965 115.217 L 58.429 89.500 53.531 89.188 C 50.837 89.016, 47.590 89.137, 46.316 89.457 L 44 90.038 44 128.019 L 44 166 49.984 166 L 55.967 166 56.234 139.531 L 56.500 113.063 70 139.155 C 77.425 153.505, 83.950 165.826, 84.500 166.534 C 85.050 167.243, 88.763 168.133, 92.750 168.513 L 100 169.203 100 127.601 L 100 86 97.250 86.175 C 95.737 86.271, 92.595 86.521, 90.266 86.731 M 230 131 L 230 153 234.345 153 C 241.731 153, 242 152.219, 242 130.826 C 242 109.681, 241.756 109, 234.171 109 L 230 109 230 131 M 230 181 L 230 203 234.345 203 C 241.731 203, 242 202.219, 242 180.826 C 242 159.681, 241.756 159, 234.171 159 L 230 159 230 181 " stroke="none" fill="white" fill-rule="evenodd" transform="scale(0.1171875) translate(0 0)"></path>
    </g>
</svg>