<svg width="60" height="60" viewBox="0 0 60 60" xmlns="http://www.w3.org/2000/svg">
    <rect fill="transparent" x="0" y="0" width="60" height="60" rx="4.8"></rect>

    <g width="30" height="30" viewBox="0 0 30 30" transform="translate(15, 15)" fill="#FFFFFF">
        <path d="M 121.500 22.634 C 105.113 25.422, 95.116 27.566, 94.461 28.432 C 93.735 29.392, 93.935 35.643, 95.126 49.153 C 97.556 76.730, 98.747 95.605, 100.038 127 C 100.660 142.125, 101.602 155.580, 102.131 156.899 L 103.093 159.299 123.297 158.592 C 134.408 158.203, 143.844 157.544, 144.265 157.128 C 144.686 156.711, 145.472 144.474, 146.012 129.935 C 147.128 99.906, 149.580 56.359, 151.346 35.214 C 152.002 27.356, 152.170 20.268, 151.720 19.464 C 150.670 17.589, 151.921 17.458, 121.500 22.634 M 95.954 182.450 C 94.595 183.804, 94.696 226.694, 96.061 227.538 C 97.643 228.516, 147.354 228.046, 147.970 227.047 C 148.261 226.574, 148.500 216.133, 148.500 203.844 L 148.500 181.500 122.704 181.500 C 107.747 181.500, 96.507 181.899, 95.954 182.450 " stroke="none" fill="white" fill-rule="evenodd" transform="scale(0.12244897959183673) translate(0 0)"></path>
    </g>
</svg>