<svg width="60" height="60" viewBox="0 0 60 60" xmlns="http://www.w3.org/2000/svg">
    <rect fill="transparent" x="0" y="0" width="60" height="60" rx="4.8"></rect>

    <g width="30" height="30" viewBox="0 0 30 30" transform="translate(15, 15)" fill="#FFFFFF">
        <path d="M 192.385 53.600 C 186.626 55.667, 180.402 61.311, 177.210 67.362 L 174.500 72.500 174.500 115.500 L 174.500 158.500 176.870 163.742 C 179.587 169.753, 185.325 175.372, 191.567 178.133 L 195.879 180.040 191.283 187.770 C 186.489 195.833, 170.522 223.001, 161.468 238.500 C 153.393 252.324, 143.544 269.220, 141.942 272 C 138.258 278.389, 140.395 278, 108.971 278 C 77.379 278, 75.161 278.328, 67.896 284.082 C 65.739 285.791, 62.742 289.284, 61.237 291.845 L 58.500 296.500 58.211 340.577 C 57.933 383.032, 57.997 384.828, 59.958 389.402 C 62.280 394.820, 68.079 400.821, 73.677 403.601 C 77.294 405.397, 80.497 405.500, 133 405.500 C 188.036 405.500, 188.534 405.482, 192.553 403.330 C 197.892 400.472, 202.489 395.667, 205.255 390.055 C 207.459 385.584, 207.505 384.727, 207.781 343.370 C 208.050 302.958, 207.978 301.017, 206.009 295.755 C 203.731 289.666, 197.788 283.089, 192.092 280.352 C 189.869 279.284, 185.166 278.461, 179.750 278.191 C 174.938 277.951, 171 277.575, 171 277.355 C 171 276.797, 200.645 226.048, 218.523 196 L 227.746 180.500 249.582 180.500 L 271.419 180.500 285.816 205 C 293.735 218.475, 300.996 230.850, 301.953 232.500 C 302.910 234.150, 306.168 239.775, 309.194 245 C 312.219 250.225, 317.688 259.535, 321.347 265.688 C 325.006 271.841, 328 277.074, 328 277.316 C 328 277.557, 324.031 277.945, 319.180 278.177 C 311.905 278.525, 309.565 279.065, 305.817 281.261 C 299.689 284.852, 295.628 289.706, 293.103 296.456 C 291.095 301.820, 291 303.877, 291 341.856 C 291 388.652, 291.085 389.215, 299.365 397.495 C 308.202 406.332, 306.372 406.112, 368.109 405.784 L 421.500 405.500 426.824 402.551 C 432.642 399.328, 436.877 394.634, 439.384 388.628 C 441.709 383.057, 441.824 300.907, 439.514 295.380 C 436.836 288.970, 431.956 283.894, 425.562 280.869 L 419.500 278.002 389.725 278.001 L 359.951 278 357.456 273.750 C 356.084 271.413, 350.994 262.750, 346.144 254.500 C 319.005 208.329, 303 180.882, 303 180.512 C 303 180.282, 305.137 179.149, 307.750 177.996 C 313.784 175.330, 318.459 170.853, 321.839 164.500 L 324.500 159.500 324.500 116 L 324.500 72.500 322.142 68 C 319.107 62.207, 314.536 57.385, 309.500 54.662 C 305.552 52.528, 304.786 52.498, 251 52.312 C 205.129 52.154, 195.849 52.358, 192.385 53.600 " stroke="none" fill="white" fill-rule="evenodd" transform="scale(0.06048387096774194) translate(0 0)"></path>
    </g>
</svg>