<svg width="60" height="60" viewBox="0 0 60 60" xmlns="http://www.w3.org/2000/svg">
    <rect fill="transparent" x="0" y="0" width="60" height="60" rx="4.8"></rect>

    <g width="30" height="30" viewBox="0 0 30 30" transform="translate(15, 15)" fill="#FFFFFF">
        <path d="M 153 184.567 C 151.625 184.799, 147.350 185.491, 143.500 186.105 C 125.795 188.928, 103.629 198.649, 87.792 210.535 C 66.323 226.648, 48.752 251.879, 41.156 277.500 C 35.961 295.025, 34.491 318.880, 37.513 336.619 C 46.618 390.064, 87.283 432.086, 141 443.561 C 151.119 445.722, 175.224 446.549, 187.142 445.144 C 213.014 442.093, 236.672 432.028, 257.129 415.369 C 260.775 412.400, 275.377 397.593, 289.579 382.464 C 313.957 356.494, 315.493 355.055, 317.051 356.728 C 342.077 383.607, 369.149 411.816, 373.219 415.257 C 389.515 429.036, 411.072 439.369, 432.248 443.552 C 443.518 445.779, 466.260 446.530, 478.685 445.085 C 535.925 438.431, 582.617 394.075, 592.385 337.074 C 594.421 325.193, 594.468 305.008, 592.487 293.381 C 583.394 240.008, 542.934 198.172, 489 186.374 C 477.097 183.770, 444.181 183.705, 432.341 186.262 C 404.981 192.171, 382.787 204.230, 362.934 223.976 C 357.114 229.764, 343.866 243.634, 333.492 254.797 L 314.632 275.094 311.976 272.297 C 310.515 270.759, 299.702 259.150, 287.947 246.500 C 276.191 233.850, 264.532 221.544, 262.037 219.153 C 250.193 207.806, 233.067 197.300, 217 191.527 C 202.366 186.269, 193.890 184.884, 174 184.502 C 163.825 184.306, 154.375 184.336, 153 184.567 M 151.897 240.504 C 123.083 246.246, 100.372 268.374, 92.878 298.010 C 91.093 305.071, 90.829 308.332, 91.262 317.975 C 92.180 338.397, 99.133 354.256, 113.381 368.426 C 130.215 385.167, 148.469 391.874, 173.968 390.686 C 192.115 389.840, 204.039 386.010, 217.156 376.811 C 222.940 372.754, 276 317.153, 276 315.148 C 276 314.160, 240.663 275.689, 228.009 262.901 C 215.349 250.107, 201.435 242.720, 185 240.065 C 176.321 238.663, 160.051 238.879, 151.897 240.504 M 446.500 239.641 C 425.744 243.880, 414.204 249.684, 402.120 261.961 C 390.598 273.666, 353.500 314.126, 353.500 314.988 C 353.500 316.789, 405.686 371.493, 411.500 375.785 C 425.126 385.847, 437.283 389.920, 456.073 390.718 C 481.634 391.805, 499.734 385.160, 516.598 368.500 C 530.784 354.486, 537.819 338.431, 538.738 317.975 C 539.169 308.397, 538.900 305.018, 537.151 297.975 C 529.711 268.025, 506.797 246.265, 476.618 240.491 C 469.547 239.138, 451.460 238.627, 446.500 239.641 " stroke="none" fill="white" fill-rule="evenodd" transform="scale(0.047619047619047616) translate(0 0)"></path>
    </g>
</svg>