<svg xmlns="http://www.w3.org/2000/svg" width="360" height="360" viewBox="0 0 360 360">
  <g fill="none" fill-rule="evenodd" transform="translate(64 68)">
    <path d="M201.186813,105.504702 L201.186813,87.7304075 C201.186813,41.3197492 162.615385,2.80877743 115.142857,2.80877743 C67.6703297,2.80877743 29.0989011,40.3322884 29.0989011,87.7304075 L29.0989011,105.504702 L115.142857,149.940439 L201.186813,105.504702 L116.131868,149.940439"/>
    <path stroke="#FFF" stroke-width="7.406" d="M201.186813,139.07837 C201.186813,185.489028 162.615385,224 115.142857,224 C67.6703297,224 29.0989011,186.476489 29.0989011,139.07837 L29.0989011,86.7429467 C29.0989011,40.3322884 67.6703297,1.82131661 115.142857,1.82131661 C162.615385,1.82131661 201.186813,39.3448276 201.186813,86.7429467 L201.186813,139.07837 Z"/>
    <path stroke="#FFF" stroke-linecap="round" stroke-width="7.406" d="M30.0879121 105.504702L116.131868 149.940439M201.186813 105.504702L116.131868 149.940439M189.318681 182.526646L143.824176 136.115987M41.956044 182.526646L88.4395604 136.115987M30.0879121 185.489028C30.0879121 193.388715 23.1648352 200.30094 15.2527473 200.30094 7.34065934 200.30094.417582418 193.388715.417582418 185.489028L.417582418 117.354232C.417582418 109.454545 7.34065934 102.54232 15.2527473 102.54232 23.1648352 102.54232 30.0879121 109.454545 30.0879121 117.354232L30.0879121 185.489028zM230.857143 185.489028C230.857143 193.388715 223.934066 200.30094 216.021978 200.30094 208.10989 200.30094 201.186813 193.388715 201.186813 185.489028L201.186813 117.354232C201.186813 109.454545 208.10989 102.54232 216.021978 102.54232 223.934066 102.54232 230.857143 109.454545 230.857143 117.354232L230.857143 185.489028z"/>
    <g transform="translate(54.55 36.953)">
      <path fill="#FFF" d="M121.912088,35.9655172 C121.912088,55.7147335 106.087912,71.5141066 86.3076923,71.5141066 L35.8681319,71.5141066 C16.0879121,71.5141066 0.263736264,55.7147335 0.263736264,35.9655172 C0.263736264,16.2163009 16.0879121,0.4169279 35.8681319,0.4169279 L86.3076923,0.4169279 C106.087912,1.40438871 121.912088,17.2037618 121.912088,35.9655172 Z"/>
      <path fill="#2196F3" d="M20.7692308 18.7617555C20.7692308 28.6363636 15.8241758 37.523511 10.8791209 37.523511 4.94505495 37.523511.989010989 29.6238245.989010989 18.7617555.989010989 8.88714734 5.93406593 0 10.8791209 0 16.8131868.987460815 20.7692308 8.88714734 20.7692308 18.7617555zM57.3626374 18.7617555C57.3626374 28.6363636 52.4175824 37.523511 47.4725275 37.523511 41.5384615 37.523511 37.5824176 29.6238245 37.5824176 18.7617555 37.5824176 8.88714734 41.5384615 0 47.4725275 0 53.4065934.987460815 57.3626374 8.88714734 57.3626374 18.7617555z" transform="translate(31.912 17.204)"/>
    </g>
  </g>
</svg>
