<svg xmlns="http://www.w3.org/2000/svg" width="60" height="60" viewBox="0 0 60 60">
  <path fill="#FFFFFF" d="M4.47457627,4.7 L4.47457627,9.375 L0.0254237288,12.4 L0.0254237288,1.65 L4.47457627,4.7 Z M15.0762712,19.8 L29.8220339,9.75 L29.8220339,15.825 C29.8220339,18 28.1694915,19.8 26.1864407,19.8 L15.0762712,19.8 Z M29.8220339,1.6 L29.7966102,1.6 L29.7966102,8.3 L12.9661017,19.775 L3.66101695,19.775 C3.50847458,19.775 3.3559322,19.775 3.22881356,19.75 L3.20338983,19.75 L29.8220339,1.6 Z M29.8220339,0.2 L14.8983051,10.375 L8.97457627,6.325 L5.69491525,8.55 L5.69491525,4.075 L0,0.2 L29.8220339,0.2 Z M7.01694915,3.55 L26.1864407,0.925 L3.83898305,1.375 L7.01694915,3.55 Z M14.8983051,8.925 L26.5169492,1.425 L9.55932203,5.275 L14.8983051,8.925 Z M8.97457627,7.75 L13.8559322,11.1 L1.83050847,19.3 C1.65254237,19.175 1.5,19.05 1.37288136,18.925 C0.63559322,18.2 0.101694915,17.2 0.0508474576,16.05 L0.0508474576,13.85 L8.97457627,7.75 Z" transform="translate(15 20)"/>
</svg>
