<svg width="60" height="60" viewBox="0 0 60 60" xmlns="http://www.w3.org/2000/svg">
    <rect fill="transparent" x="0" y="0" width="60" height="60" rx="4.8"></rect>

    <g width="30" height="30" viewBox="0 0 30 30" transform="translate(15, 15)" fill="#FFFFFF">
        <path d="M 156.096 51 L 132.744 77 88.122 77.012 C 54.030 77.021, 42.320 77.340, 38.500 78.363 C 20.826 83.096, 6.134 97.871, 1.531 115.542 C 0.187 120.702, 0 140.984, 0 281.500 C 0 420.046, 0.200 442.349, 1.489 447.297 C 6.110 465.036, 19.770 479.172, 37.617 484.683 C 43.224 486.415, 53.473 486.500, 256 486.500 C 458.527 486.500, 468.776 486.415, 474.383 484.683 C 488.379 480.361, 500.635 470.086, 506.596 457.675 C 508.492 453.729, 510.317 448.803, 510.653 446.728 C 510.988 444.653, 511.654 442.714, 512.131 442.419 C 512.617 442.119, 513 370.689, 513 280.382 C 513 188.337, 512.624 119.115, 512.125 119.423 C 511.644 119.720, 510.975 118.245, 510.639 116.145 C 508.801 104.651, 496.405 88.765, 484.618 82.798 C 473.391 77.115, 472.439 77.025, 423.878 77.012 L 379.256 77 355.904 51 L 332.552 25 256 25 L 179.448 25 156.096 51 M 0.488 281.500 C 0.488 370.600, 0.606 406.902, 0.750 362.171 C 0.894 317.440, 0.894 244.540, 0.750 200.171 C 0.606 155.802, 0.488 192.400, 0.488 281.500 M 234.255 155.624 C 222.407 157.608, 208.002 162.446, 196.625 168.264 C 169.200 182.288, 147.359 206.793, 136.696 235.500 C 119.761 281.092, 129.144 332.267, 160.898 367.500 C 177.433 385.846, 198.494 398.464, 224 405.306 C 235.080 408.277, 236.250 408.390, 256 408.390 C 275.750 408.390, 276.920 408.277, 288 405.306 C 317.318 397.442, 340.651 381.990, 358.678 358.500 C 363.658 352.011, 371.719 337.277, 375.045 328.584 C 387.849 295.120, 386.041 255.574, 370.241 223.500 C 362.641 208.072, 347.189 189.670, 332.875 178.999 C 317.462 167.508, 296.417 158.730, 276.656 155.550 C 265.062 153.685, 245.640 153.719, 234.255 155.624 M 240.075 201.027 C 221.880 204.844, 203.364 216.020, 192.443 229.778 C 166.004 263.086, 168.135 308.934, 197.500 338.546 C 214.513 355.703, 232.382 363.248, 256 363.248 C 279.618 363.248, 297.487 355.703, 314.500 338.546 C 357.701 294.981, 338.814 221.822, 279.500 202.975 C 273.975 201.220, 269.550 200.682, 258.500 200.425 C 250.800 200.246, 242.509 200.517, 240.075 201.027 " stroke="none" fill="white" fill-rule="evenodd" transform="scale(0.05859375) translate(0 0)"></path>
    </g>
</svg>