<svg width="60" height="60" viewBox="0 0 60 60" xmlns="http://www.w3.org/2000/svg">
    <rect fill="transparent" x="0" y="0" width="60" height="60" rx="4.8"></rect>

    <g width="30" height="30" viewBox="0 0 30 30" transform="translate(15, 15)" fill="#FFFFFF">
        <path d="M 85.500 5.385 C 68.485 8.756, 59.211 18.843, 54.744 38.838 C 52.243 50.031, 51.142 88.166, 52.949 101 C 55.183 116.866, 61.688 134.826, 69.133 145.680 C 71.938 149.770, 72 150.149, 72 163.249 C 72 181.477, 74.649 189.726, 82.327 195.408 C 84.716 197.176, 86.572 197.498, 94.327 197.485 C 105.335 197.467, 110.362 195.547, 117.927 188.471 C 127.825 179.213, 130.427 168.353, 125.862 155.354 L 123.704 149.209 126.924 145.854 C 139.073 133.199, 151.873 106.017, 156.516 83.010 C 158.635 72.512, 158.168 54.106, 155.589 46.500 C 147.667 23.129, 129.990 8.462, 105.678 5.086 C 96.299 3.784, 93.360 3.827, 85.500 5.385 " stroke="none" fill="white" fill-rule="evenodd" transform="scale(0.15) translate(0 0)"></path>
    </g>
</svg>