<svg width="60" height="60" viewBox="0 0 60 60" xmlns="http://www.w3.org/2000/svg">
    <rect fill="transparent" x="0" y="0" width="60" height="60" rx="4.8"></rect>

    <g width="30" height="30" viewBox="0 0 30 30" transform="translate(15, 15)" fill="#FFFFFF">
        <path d="M 29.875 16.564 C 24.371 18.258, 19.487 22.873, 16.889 28.833 C 15.067 33.012, 15 38.075, 15 171.594 L 15 310.022 17.113 314.517 C 19.430 319.446, 23.591 323.431, 29 325.902 C 32.140 327.336, 46.324 327.533, 167 327.818 C 267.842 328.056, 303.237 327.837, 308.440 326.943 C 314.815 325.848, 315.795 325.333, 320.474 320.625 C 323.681 317.398, 326.018 313.976, 326.784 311.384 C 327.652 308.446, 327.999 295.570, 327.996 266.384 C 327.993 227.286, 327.905 225.357, 325.996 222.225 C 323.320 217.837, 319.931 216.698, 311.381 217.313 C 303.701 217.866, 298.910 219.812, 290.507 225.793 C 276.557 235.720, 262.574 238.270, 245.486 234.005 C 214.371 226.237, 194.943 202.573, 195.024 172.540 C 195.055 161.099, 196.108 156.563, 201.181 146 C 208.622 130.508, 223.147 118.713, 242 112.852 C 248.270 110.903, 251.631 110.527, 262.500 110.555 C 274.374 110.586, 276.063 110.826, 282 113.326 C 285.575 114.831, 290.975 117.857, 294 120.050 C 302.625 126.305, 305.387 127.250, 313.804 126.825 C 320.860 126.468, 321.354 126.281, 324.599 122.740 L 328 119.029 328 76.211 L 328 33.393 325.397 28.168 C 323.965 25.295, 321.346 21.840, 319.578 20.492 C 311.993 14.707, 319.855 14.994, 171.124 15.070 C 55.884 15.128, 33.776 15.362, 29.875 16.564 " stroke="none" fill="white" fill-rule="evenodd" transform="scale(0.08771929824561403) translate(-2 0)"></path>
    </g>
</svg>