<svg width="60" height="60" viewBox="0 0 60 60" xmlns="http://www.w3.org/2000/svg">
    <rect fill="transparent" x="0" y="0" width="60" height="60" rx="4.8"></rect>

    <g width="30" height="30" viewBox="0 0 30 30" transform="translate(15, 15)" fill="#FFFFFF">
        <path d="M 27.063 17.744 C 25.863 22.600, 24.552 27.106, 24.150 27.758 C 23.639 28.584, 20.903 27.430, 15.082 23.931 C 10.498 21.175, 6.548 19.119, 6.305 19.362 C 6.062 19.605, 8.819 24.072, 12.432 29.290 C 16.044 34.508, 19 39.191, 19 39.697 C 19 40.202, 17.215 41.940, 15.034 43.558 C 9.101 47.959, 8.940 49.417, 14.472 48.659 C 20.466 47.837, 26.988 44.413, 35.500 37.616 C 39.350 34.543, 44.855 31.009, 47.733 29.764 C 50.611 28.519, 52.974 27.163, 52.983 26.750 C 53.017 25.254, 47.422 26.055, 44.226 28.004 C 42.425 29.102, 39.903 30, 38.621 30 C 36.456 30, 36.248 29.498, 35.698 22.932 C 35.127 16.125, 32.767 10.089, 30.363 9.288 C 29.692 9.064, 28.372 12.446, 27.063 17.744 M 76.111 11.228 C 75.536 12.729, 74.335 16.779, 73.442 20.228 C 72.548 23.678, 71.503 27.063, 71.118 27.751 C 70.616 28.651, 68.094 27.571, 62.138 23.906 C 57.584 21.103, 53.653 19.014, 53.403 19.264 C 53.153 19.514, 55.885 24.019, 59.474 29.275 C 63.063 34.532, 66 39.135, 66 39.504 C 66 39.873, 63.862 42.192, 61.250 44.657 L 56.500 49.138 61.208 48.594 C 67.683 47.846, 73.190 45.039, 82 37.999 C 86.125 34.703, 91.862 31.022, 94.750 29.819 C 97.638 28.616, 100 27.265, 100 26.816 C 100 25.315, 94.964 25.978, 91 28 C 88.844 29.100, 86.162 30, 85.040 30 C 83.274 30, 82.999 29.362, 82.994 25.250 C 82.987 19.273, 81.502 13.837, 79.053 10.830 L 77.155 8.500 76.111 11.228 M 123.707 9.685 C 123.436 10.133, 122.207 14.325, 120.975 19 C 119.743 23.675, 118.436 27.836, 118.071 28.246 C 117.706 28.657, 113.846 26.745, 109.494 23.996 C 105.143 21.248, 101.226 19, 100.791 19 C 99.656 19, 99.815 20.767, 101.016 21.510 C 102.207 22.246, 111.785 36.277, 112.669 38.579 C 113.073 39.633, 111.660 41.633, 108.386 44.639 L 103.500 49.126 108.341 48.569 C 115.285 47.772, 120.427 45.186, 129.327 38.018 C 133.631 34.551, 139.589 30.724, 142.567 29.514 C 145.544 28.304, 147.685 27.018, 147.324 26.657 C 146.054 25.388, 142.015 26.020, 138.774 27.996 C 136.973 29.094, 134.262 29.994, 132.750 29.996 C 130.107 30, 130 29.801, 130 24.866 C 130 22.042, 129.481 18, 128.847 15.882 C 127.665 11.937, 124.587 8.226, 123.707 9.685 M 170.710 9.685 C 170.441 10.133, 169.223 14.100, 168.003 18.500 C 166.783 22.900, 165.477 27.063, 165.102 27.751 C 164.614 28.645, 162.162 27.575, 156.501 24.001 C 149.152 19.360, 147 18.327, 147 19.439 C 147 19.681, 149.530 23.393, 152.621 27.689 C 161.281 39.722, 161.213 39.311, 155.428 44.494 C 150.655 48.771, 150.586 48.912, 153.212 48.955 C 159.555 49.060, 167.391 44.845, 181.752 33.603 C 183.085 32.559, 186.667 30.693, 189.713 29.455 C 194.601 27.468, 195.021 27.082, 193.298 26.159 C 191.787 25.351, 190.154 25.667, 186.074 27.557 C 178.176 31.216, 177 30.942, 177 25.443 C 177 19.268, 175.180 12.472, 172.996 10.496 C 172.007 9.602, 170.979 9.237, 170.710 9.685 M 146.980 61.185 C 144.247 71.611, 142.808 76, 142.125 76 C 141.722 76, 139.272 74.656, 136.682 73.013 C 134.092 71.371, 130.087 69.064, 127.781 67.888 C 123.649 65.780, 123.611 65.779, 125.045 67.791 C 125.845 68.913, 129.191 73.727, 132.480 78.489 L 138.461 87.147 133.480 91.478 C 130.741 93.860, 128.772 96.087, 129.104 96.425 C 130.315 97.660, 139.969 94.788, 145.167 91.647 C 148.100 89.874, 153.392 86.087, 156.926 83.231 C 160.460 80.376, 164.960 77.526, 166.926 76.899 C 171.588 75.411, 172.794 74.242, 170.551 73.381 C 169.465 72.965, 166.654 73.734, 163.362 75.349 C 160.389 76.807, 157.356 78, 156.623 78 C 155.694 78, 155.110 75.858, 154.698 70.932 C 154.121 64.054, 151.763 58.088, 149.297 57.266 C 148.603 57.034, 147.643 58.659, 146.980 61.185 M 124.605 109.170 C 123.782 112.102, 122.622 116.394, 122.027 118.708 C 121.432 121.022, 120.609 123.124, 120.197 123.378 C 119.786 123.632, 115.741 121.559, 111.209 118.769 C 106.676 115.980, 102.746 113.921, 102.474 114.192 C 102.203 114.464, 103.456 116.670, 105.260 119.093 C 107.064 121.517, 110.208 126.066, 112.248 129.201 L 115.956 134.902 111.478 138.572 C 105.884 143.155, 105.782 144.427, 111.062 143.718 C 116.855 142.941, 124.357 138.937, 132.925 132.046 C 137.009 128.762, 142.522 125.294, 145.175 124.340 C 147.829 123.386, 150 122.244, 150 121.802 C 150 120.314, 144.948 120.986, 141 123 C 138.844 124.100, 135.937 125, 134.540 125 C 132.101 125, 132 124.761, 132 118.968 C 132 112.603, 130.376 107.384, 127.706 105.170 C 126.288 103.994, 125.929 104.458, 124.605 109.170 M 101.048 161.027 C 99.768 165.993, 98.313 170.307, 97.815 170.615 C 97.316 170.922, 93.892 169.358, 90.204 167.139 C 79.341 160.600, 79.169 160.801, 86.384 171.591 C 90.023 177.032, 92.989 181.938, 92.976 182.492 C 92.963 183.047, 91.184 184.808, 89.023 186.407 C 83.204 190.711, 82.952 192.352, 88.247 191.461 C 94.889 190.344, 101.844 186.708, 110 180.088 C 114.125 176.740, 119.525 173.251, 122 172.335 C 127.759 170.203, 128.693 169.355, 126.162 168.551 C 124.886 168.146, 122.241 168.857, 119.095 170.452 C 110.980 174.564, 110.383 174.251, 109.724 165.540 C 109.168 158.189, 106.768 152, 104.472 152 C 103.869 152, 102.328 156.062, 101.048 161.027 " stroke="none" fill="white" fill-rule="evenodd" transform="scale(0.15) translate(0 0)"></path>
    </g>
</svg>