<svg width="60" height="60" viewBox="0 0 60 60" xmlns="http://www.w3.org/2000/svg">
    <rect fill="transparent" x="0" y="0" width="60" height="60" rx="4.8"></rect>

    <g width="30" height="30" viewBox="0 0 30 30" transform="translate(15, 15)" fill="#FFFFFF">
        <path d="M 181.635 61.135 C 159.063 64.033, 135.328 73.768, 117 87.644 C 104.997 96.732, 28.151 173.642, 25.221 179.500 C 18.486 192.966, 18.391 206.887, 24.944 220 C 26.508 223.130, 40.182 237.472, 69.846 267.097 C 105.628 302.830, 114.021 310.698, 121.939 315.929 C 134.689 324.353, 143.258 328.531, 156.963 333.009 C 198.607 346.614, 243.613 339.844, 280.571 314.416 C 288.574 308.909, 368.425 230.040, 373.082 223.042 C 377.004 217.148, 380 207.169, 380 200 C 380 192.831, 377.004 182.852, 373.082 176.958 C 371.450 174.506, 351.527 154.004, 328.808 131.398 C 292.076 94.849, 286.313 89.518, 276.782 83.271 C 248.632 64.820, 214.597 56.902, 181.635 61.135 M 181.921 90.482 C 145.088 96.687, 112.107 122.621, 98.297 156.238 C 88.304 180.564, 86.793 206.272, 93.916 230.778 C 97.587 243.404, 100.650 250.122, 107.602 260.788 C 120.446 280.494, 140.663 296.554, 162.500 304.396 C 185.714 312.732, 211.817 313.083, 234.802 305.367 C 269.598 293.686, 297.164 264.553, 306.568 229.520 C 320.126 179.014, 297.731 126.800, 251.913 102.093 C 231.158 90.902, 205.095 86.578, 181.921 90.482 M 170.750 134.704 L 164 137.276 164 148.395 L 164 159.514 160.624 162.612 C 157.306 165.658, 157.106 165.703, 148.874 165.272 C 137.119 164.657, 135.824 165.350, 132.399 174.081 L 129.567 181.298 137.283 188.578 C 144.843 195.710, 145 195.956, 145 200.705 C 145 205.387, 144.757 205.794, 137.941 212.527 C 129.992 220.380, 129.986 220.410, 134.506 230.250 L 137.147 236 147.877 236 L 158.608 236 161.804 239.298 C 164.883 242.475, 165 242.903, 165.014 251.048 C 165.033 263.278, 165.280 263.799, 172.629 267.131 C 176.109 268.709, 179.657 270, 180.513 270 C 181.369 270, 185.127 266.850, 188.864 263 C 195.436 256.230, 195.818 256, 200.508 256 C 205.191 256, 205.620 256.256, 213.086 263.522 L 220.815 271.044 226.158 268.920 C 229.096 267.752, 232.512 266.403, 233.750 265.923 C 235.891 265.092, 236 264.525, 236 254.221 L 236 243.392 239.260 240.232 C 242.466 237.125, 242.702 237.068, 253.446 236.786 L 264.371 236.500 267.334 229.171 L 270.297 221.843 262.648 214.149 C 255.252 206.710, 255 206.298, 255 201.666 C 255 197.076, 255.293 196.579, 262 189.792 C 265.850 185.896, 269 182.237, 269 181.662 C 269 181.087, 267.762 177.587, 266.250 173.886 C 263.080 166.129, 262.808 166, 249.571 166 C 241.632 166, 241.299 165.903, 238.196 162.702 C 235.100 159.507, 234.998 159.126, 234.930 150.452 C 234.891 145.529, 234.534 140.673, 234.136 139.662 C 233.726 138.621, 230.228 136.495, 226.066 134.758 L 218.720 131.691 211.237 139.345 C 204.160 146.584, 203.515 147, 199.366 147 C 195.285 147, 194.452 146.496, 187.395 139.750 C 183.223 135.762, 179.291 132.417, 178.655 132.316 C 178.020 132.215, 174.463 133.289, 170.750 134.704 M 189.500 180.866 C 181.521 184.499, 175.986 193.182, 176.028 202 C 176.047 206.070, 179.166 213.456, 182.312 216.882 C 185.614 220.478, 193.849 223.980, 199 223.980 C 204.151 223.980, 212.386 220.478, 215.688 216.882 C 229.117 202.260, 219.067 178.948, 199.365 179.022 C 195.865 179.035, 191.887 179.779, 189.500 180.866 " stroke="none" fill="white" fill-rule="evenodd" transform="scale(0.075) translate(0 0)"></path>
    </g>
</svg>