<svg width="60" height="60" viewBox="0 0 60 60" xmlns="http://www.w3.org/2000/svg">
    <rect fill="transparent" x="0" y="0" width="60" height="60" rx="4.8"></rect>

    <g width="30" height="30" viewBox="0 0 30 30" transform="translate(15, 15)" fill="#FFFFFF">
        <path d="M 154 20.016 C 152.075 20.464, 148.925 21.077, 147 21.378 C 140.875 22.337, 122.700 26.045, 117 27.499 C 113.975 28.270, 107 30.051, 101.500 31.455 C 90.619 34.234, 80.333 37.334, 79.616 38.051 C 79.367 38.300, 78.384 46.596, 77.431 56.487 C 75.943 71.934, 75.859 76.871, 76.840 91.485 C 78.184 111.514, 80.743 128.050, 85.054 144.555 C 88.145 156.389, 88.775 158.924, 88.923 160.115 C 88.966 160.454, 94.632 157.862, 101.515 154.357 C 108.399 150.851, 120.596 145.170, 128.620 141.731 L 143.210 135.479 143.071 121.489 C 142.782 92.239, 146.952 60.764, 154.663 34 C 156.644 27.125, 158.478 20.938, 158.739 20.250 C 159.266 18.863, 159.008 18.850, 154 20.016 M 59.500 63.601 C 47.489 66.877, 29.164 72.865, 25.750 74.630 C 24.238 75.412, 23 76.656, 23 77.395 C 23 79.548, 32.334 97.168, 38.535 106.721 C 49.488 123.594, 62.228 138.034, 77.288 150.642 C 82.121 154.689, 86.396 157.983, 86.788 157.962 C 87.180 157.942, 85.733 156.413, 83.574 154.564 C 81.414 152.716, 79.510 150.596, 79.341 149.852 C 78.265 145.098, 74.991 125.585, 74.356 120.149 C 73.306 111.142, 72.855 71.063, 73.750 66.250 L 74.727 61 71.613 61.073 C 69.901 61.114, 64.450 62.251, 59.500 63.601 M 24.513 89.750 C 27.486 111.985, 32.439 135.061, 37.552 150.500 C 39.556 156.550, 41.336 161.648, 41.509 161.828 C 41.806 162.139, 64.929 151.405, 65.766 150.567 C 65.984 150.350, 64.877 148.896, 63.308 147.336 C 50.518 134.625, 28.058 100.414, 26.003 90.513 C 24.599 83.752, 23.645 83.264, 24.513 89.750 " stroke="none" fill="white" fill-rule="evenodd" transform="scale(0.16853932584269662) translate(0 0)"></path>
    </g>
</svg>