<svg width="60" height="60" viewBox="0 0 60 60" xmlns="http://www.w3.org/2000/svg">
    <rect fill="transparent" x="0" y="0" width="60" height="60" rx="4.8"></rect>

    <g width="30" height="30" viewBox="0 0 30 30" transform="translate(15, 15)" fill="#FFFFFF">
        <path d="M 85.635 86.073 C 83.034 88.119, 82.145 92.173, 83.765 94.600 C 84.717 96.025, 88.481 98, 90.246 98 C 92.739 98, 96 94.033, 96 91 C 96 87.815, 92.701 84, 89.946 84 C 89.024 84, 87.084 84.933, 85.635 86.073 M 51.970 88.250 C 45.969 91.282, 43 95.914, 43 102.248 C 43 109.008, 46.825 112.862, 56.684 116.038 C 64.503 118.556, 66.996 121.270, 64.969 125.057 C 63.470 127.859, 57.395 127.709, 55.048 124.811 C 53.292 122.643, 53.234 122.639, 48.638 124.394 C 46.087 125.368, 44 126.788, 44 127.548 C 44 130.374, 49.936 135.722, 54.488 136.997 C 69.030 141.068, 81.431 128.140, 75.326 115.274 C 74.105 112.702, 72.277 111.107, 68.576 109.383 C 65.784 108.083, 62.893 107.015, 62.151 107.010 C 61.409 107.004, 59.272 106.274, 57.401 105.386 C 53.826 103.689, 52.861 100.539, 55.200 98.200 C 57.080 96.320, 62.149 96.791, 64.577 99.073 C 66.595 100.969, 67.142 101.038, 70.996 99.883 C 73.313 99.189, 75.428 98.047, 75.697 97.346 C 76.517 95.211, 71.942 89.878, 67.599 87.905 C 62.131 85.422, 57.359 85.527, 51.970 88.250 M 132.750 88.160 L 128 90.255 128 96.127 C 128 99.357, 127.749 102, 127.443 102 C 127.136 102, 124.956 101.514, 122.597 100.920 C 114.833 98.965, 106.112 103.026, 102.305 110.369 C 100.068 114.684, 100.141 123.572, 102.451 128.339 C 106.164 135.998, 116.240 139.680, 124.931 136.555 C 127.941 135.472, 129.688 135.288, 130.381 135.981 C 130.941 136.541, 133.110 137, 135.200 137 L 139 137 139 111.500 C 139 97.475, 138.662 86.015, 138.250 86.033 C 137.838 86.051, 135.363 87.008, 132.750 88.160 M 157.942 100.910 C 151.323 103.017, 148.103 105.848, 145.472 111.872 C 142.538 118.593, 144.350 127.708, 149.606 132.665 C 156.370 139.044, 169.917 139.447, 175.977 133.451 L 178.455 131 175.756 128.301 C 173.077 125.623, 173.030 125.615, 169.495 127.301 C 167.535 128.236, 164.883 129, 163.601 129 C 161.200 129, 156 125.551, 156 123.958 C 156 123.465, 161.512 122.935, 168.250 122.781 L 180.500 122.500 180.174 117.500 C 179.780 111.469, 177.017 106.224, 172.697 103.308 C 169.091 100.875, 161.783 99.688, 157.942 100.910 M 79.885 101.448 C 79.639 101.694, 79.607 103.678, 79.815 105.857 C 80.088 108.717, 80.722 109.955, 82.096 110.315 C 83.846 110.772, 84 111.875, 84 123.906 L 84 137 89.500 137 L 95 137 95 119 L 95 101 87.667 101 C 83.633 101, 80.132 101.202, 79.885 101.448 M 159.065 110.615 C 157.011 111.478, 155.965 112.549, 156.174 113.575 C 156.424 114.806, 157.865 115.220, 162.343 115.344 C 168.825 115.525, 170.008 114.771, 167.533 112.037 C 165.194 109.452, 162.791 109.048, 159.065 110.615 M 116.500 111.168 C 110.201 114.805, 110.193 123.440, 116.486 126.426 C 122.505 129.282, 127.435 125.727, 127.160 118.728 C 126.912 112.392, 121.287 108.403, 116.500 111.168 " stroke="none" fill="white" fill-rule="evenodd" transform="scale(0.13333333333333333) translate(0 0)"></path>
    </g>
</svg>