<svg width="60" height="60" viewBox="0 0 60 60" xmlns="http://www.w3.org/2000/svg">
    <rect fill="transparent" x="0" y="0" width="60" height="60" rx="4.8"></rect>

    <g width="30" height="30" viewBox="0 0 30 30" transform="translate(15, 15)" fill="#FFFFFF">
        <path d="M 27.295 19.750 C 26.942 20.712, 22.408 32.525, 17.221 46 C 12.033 59.475, 7.181 72.188, 6.439 74.250 L 5.089 78 13.301 78 L 21.514 78 23.542 72.750 C 24.658 69.862, 25.892 67.612, 26.285 67.750 C 26.678 67.888, 31.050 68, 36 68 L 45 68 45 73.088 L 45 78.176 60.750 77.824 C 78.340 77.431, 81.437 76.496, 88.474 69.460 C 94.614 63.320, 97.391 56.636, 97.391 48 C 97.391 39.122, 94.495 32.419, 87.890 26.009 C 80.596 18.931, 76.243 18, 50.431 18 C 29.920 18, 27.881 18.154, 27.295 19.750 M 61 46.066 C 61 54.539, 61.453 61.978, 62.035 63.066 C 64.406 67.496, 75.729 63.411, 79.033 56.934 C 81.732 51.646, 81.638 43.908, 78.816 38.886 C 76.275 34.365, 70.245 31, 64.684 31 L 61 31 61 46.066 M 33.490 45.086 C 31.959 49.714, 30.500 54.063, 30.246 54.750 C 29.907 55.670, 31.529 56, 36.393 56 C 40.027 56, 43 55.888, 42.999 55.750 C 42.999 55.612, 41.485 51.264, 39.636 46.086 L 36.274 36.671 33.490 45.086 M 72.606 46.264 C 67.625 51.245, 66.603 51.858, 64.849 50.919 C 61.622 49.192, 61.628 50.504, 64.870 54.979 L 67.886 59.143 69.986 55.027 C 71.142 52.762, 73.684 49.142, 75.636 46.982 C 81.483 40.509, 78.958 39.911, 72.606 46.264 " stroke="none" fill="white" fill-rule="evenodd" transform="scale(0.3) translate(-1.5 0)"></path>
    </g>
</svg>