<svg width="60" height="60" viewBox="0 0 60 60" xmlns="http://www.w3.org/2000/svg">
    <rect fill="transparent" x="0" y="0" width="60" height="60" rx="4.8"></rect>

    <g width="30" height="30" viewBox="0 0 30 30" transform="translate(15, 15)" fill="#FFFFFF">
        <path d="M 186.543 22.071 C 161.233 24.310, 130.951 35.046, 108.064 49.894 C 93.881 59.095, 75.478 75.762, 64.885 89 C 58.217 97.334, 49.144 111.980, 43.652 123.278 C 37.102 136.752, 32.780 149.359, 29.179 165.500 C 26.684 176.684, 26.502 179.133, 26.501 201.500 C 26.500 222.746, 26.765 226.762, 28.813 236.500 C 44.132 309.363, 98.312 363.679, 171 379.041 C 184.007 381.790, 216.119 382.917, 229.175 381.082 C 256.812 377.199, 285.082 366.602, 306.513 352.092 C 324.360 340.009, 344.316 321.050, 339.250 320.991 C 338.837 320.987, 336.925 319.518, 335 317.728 C 333.075 315.939, 327.675 311.334, 323 307.496 C 318.325 303.657, 313.905 299.951, 313.179 299.259 C 311.631 297.785, 310 297.609, 310 298.916 C 310 300.330, 292.809 314.855, 284.726 320.271 C 270.193 330.007, 253.673 336.872, 234.500 341.141 C 219.919 344.388, 191.702 344.395, 178 341.154 C 163.732 337.780, 156.634 335.308, 144.316 329.422 C 104.437 310.366, 75.840 273.357, 66.729 229.013 C 63.836 214.933, 63.646 188.681, 66.346 176 C 73.612 141.874, 88.026 116.774, 113.293 94.250 C 117.766 90.263, 121.748 87, 122.142 87 C 122.535 87, 123.452 86.432, 124.179 85.737 C 126.194 83.811, 129.829 81.564, 141.250 75.185 C 148.386 71.199, 164.134 65.478, 175.500 62.743 C 188.035 59.727, 222.047 59.517, 235 62.376 C 267.985 69.657, 295.057 86.251, 315.507 111.722 C 322.998 121.053, 324.351 122.956, 328.196 129.569 C 339.725 149.396, 346.225 170.139, 347.762 192 C 349.472 216.323, 345.042 228.171, 333.106 231.201 C 326.353 232.915, 317.113 228.817, 313.809 222.642 C 313.095 221.308, 312.606 214.086, 312.514 203.500 C 312.393 189.624, 311.956 184.846, 310.135 177.500 C 305.314 158.048, 295.511 140.554, 281.571 126.525 C 265.366 110.217, 246.656 100.636, 223.062 96.564 C 186.276 90.216, 146.822 105.562, 123.017 135.479 C 114.422 146.280, 108.919 156.621, 104.645 170 C 101.084 181.149, 100.512 185.747, 100.600 202.500 C 100.673 216.462, 101.064 220.874, 102.787 227.187 C 109.848 253.049, 123.795 273.470, 144.701 288.556 C 179.980 314.015, 229.869 314.536, 266.254 289.828 C 274.461 284.254, 286.328 272.800, 291.713 265.254 C 294.167 261.814, 296.510 259, 296.919 259 C 297.328 259, 298.215 260.012, 298.892 261.250 C 300.860 264.850, 308.502 270.068, 315.564 272.631 C 329.081 277.537, 347.533 274.661, 360 265.704 C 377.750 252.950, 387 231.222, 387 202.279 C 387 131.822, 345.481 67.170, 280.954 37.146 C 252.862 24.076, 221.141 19.010, 186.543 22.071 M 197.500 133.398 C 196.950 133.605, 193.800 134.351, 190.500 135.054 C 176.044 138.136, 160.625 148.164, 151.373 160.500 C 146.767 166.641, 144.450 171.074, 141.370 179.641 C 138.754 186.917, 138.546 188.576, 138.569 202 C 138.590 215.069, 138.850 217.217, 141.200 223.762 C 145.852 236.717, 154.215 248.008, 166.432 257.829 C 170.158 260.825, 183.954 266.965, 190.500 268.541 C 208.012 272.759, 228.879 269.161, 243.609 259.384 C 263.459 246.208, 275 224.815, 275 201.195 C 275 171.237, 253.912 143.574, 224.878 135.448 C 219.890 134.052, 199.765 132.545, 197.500 133.398 M 194.441 173.051 C 186.069 176.272, 179.159 184.102, 176.470 193.413 C 171.831 209.481, 180.909 225.986, 197.446 231.548 C 204.518 233.928, 212.243 233.139, 220.190 229.227 C 231.205 223.804, 237 214.273, 237 201.577 C 237 184.182, 223.526 170.915, 206 171.053 C 202.074 171.084, 197.497 171.875, 194.441 173.051 " stroke="none" fill="white" fill-rule="evenodd" transform="scale(0.075) translate(0 0)"></path>
    </g>
</svg>