<svg width="60" height="60" viewBox="0 0 60 60" xmlns="http://www.w3.org/2000/svg">
    <rect fill="transparent" x="0" y="0" width="60" height="60" rx="4.8"></rect>

    <g width="30" height="30" viewBox="0 0 30 30" transform="translate(15, 15)" fill="#FFFFFF">
        <path d="M 217.714 43.762 L 177.929 44.023 163.083 74.262 C 141.298 118.636, 115.721 170.478, 85.507 231.500 C 70.802 261.200, 54.834 293.600, 50.023 303.500 C 45.213 313.400, 36.487 331.063, 30.634 342.750 L 19.991 364 63.338 364 L 106.686 364 118.093 340.504 L 129.500 317.009 196.526 317.004 L 263.551 317 271.047 340.250 L 278.543 363.500 321.771 363.761 C 345.547 363.904, 364.998 363.904, 364.994 363.761 C 364.991 363.617, 341.644 291.754, 313.112 204.066 C 271.484 76.129, 260.866 44.519, 259.368 44.066 C 258.340 43.754, 239.596 43.618, 217.714 43.762 M 420.433 45.315 C 420.155 46.039, 420.366 47.726, 420.901 49.065 C 421.796 51.308, 421.878 51.204, 421.937 47.750 C 422.001 43.955, 421.355 42.910, 420.433 45.315 M 199.046 175.146 C 192.784 187.991, 182.585 208.963, 176.381 221.750 L 165.100 245 202.618 245 L 240.135 245 239.448 242.750 C 239.071 241.512, 232.930 222.275, 225.803 200 C 218.675 177.725, 212.301 157.766, 211.637 155.646 L 210.431 151.792 199.046 175.146 " stroke="none" fill="white" fill-rule="evenodd" transform="scale(0.07109004739336493) translate(0 0)"></path>
    </g>
</svg>