<svg width="60" height="60" viewBox="0 0 60 60" xmlns="http://www.w3.org/2000/svg">
    <rect fill="transparent" x="0" y="0" width="60" height="60" rx="4.8"></rect>

    <g width="30" height="30" viewBox="0 0 30 30" transform="translate(15, 15)" fill="#FFFFFF">
        <path d="M 40.297 9.595 C 36.269 15.412, 35.225 16.060, 30.964 15.378 C 25.970 14.580, 23.007 16.818, 22.985 21.405 C 22.964 25.562, 22.133 26.642, 16.932 29.265 C 12.184 31.659, 11.968 32.342, 13.501 40.095 C 14.118 43.219, 13.805 44.153, 11.106 47.227 C 9.398 49.172, 8 51.320, 8 52 C 8 52.680, 9.398 54.828, 11.106 56.773 C 13.805 59.847, 14.118 60.781, 13.501 63.905 C 11.969 71.653, 12.186 72.349, 16.837 74.582 C 21.912 77.019, 22.964 78.390, 22.985 82.595 C 23.007 87.182, 25.970 89.420, 30.964 88.622 C 35.225 87.940, 36.269 88.588, 40.297 94.405 C 42.497 97.583, 43.984 97.642, 49.030 94.750 L 52.956 92.500 57.443 94.870 C 62.536 97.561, 64.153 97.285, 66.622 93.304 C 69.414 88.801, 70.889 88.023, 75.457 88.649 C 80.535 89.345, 82.993 87.404, 83.015 82.679 C 83.036 78.433, 83.847 77.368, 89.068 74.735 C 93.774 72.362, 94.266 70.781, 92.475 63.783 C 91.923 61.628, 92.423 60.254, 94.890 57.139 C 98.771 52.238, 98.771 50.948, 94.886 46.523 C 92.374 43.662, 91.907 42.446, 92.471 40.238 C 94.265 33.213, 93.777 31.640, 89.068 29.265 C 83.847 26.632, 83.036 25.567, 83.015 21.321 C 82.993 16.629, 80.529 14.656, 75.545 15.339 C 70.830 15.985, 70.448 15.787, 66.693 10.750 C 63.440 6.385, 62.286 6.208, 56.948 9.250 L 53 11.500 49.052 9.250 C 43.978 6.359, 42.497 6.417, 40.297 9.595 M 31.323 26.250 C 28.037 29.900, 27.793 31.941, 30.077 36.659 C 32.597 41.864, 32.169 43.584, 28.137 44.470 C 24.762 45.211, 22.502 47.385, 23.473 48.956 C 23.865 49.591, 28.996 50, 36.559 50 C 46.460 50, 49 49.719, 49 48.622 C 49 46.799, 46.778 45.035, 43.314 44.109 C 39.711 43.145, 39.302 40.863, 42.062 37.129 C 47.763 29.419, 37.672 19.197, 31.323 26.250 M 65.262 25.529 C 61.897 27.886, 61.256 33.502, 63.938 37.129 C 66.698 40.863, 66.289 43.145, 62.686 44.109 C 59.222 45.035, 57 46.799, 57 48.622 C 57 49.719, 59.540 50, 69.441 50 C 81.776 50, 84.637 49.244, 82.069 46.663 C 81.432 46.023, 79.469 45.010, 77.706 44.411 C 73.925 43.128, 73.123 40.626, 75.612 37.876 C 78.188 35.030, 77.907 29.595, 75.026 26.527 C 72.321 23.649, 68.504 23.258, 65.262 25.529 M 47.500 31 C 46.824 32.093, 47.114 32.154, 53 32.154 C 58.886 32.154, 59.176 32.093, 58.500 31 C 58.160 30.450, 55.685 30, 53 30 C 50.315 30, 47.840 30.450, 47.500 31 M 31 54.804 C 31 56.050, 37.447 62, 38.798 62 C 40.799 62, 40.169 60.556, 36.702 57.196 C 33.558 54.148, 31 53.075, 31 54.804 M 69.249 57.303 C 65.757 60.737, 65.234 62, 67.304 62 C 68.639 62, 75 55.968, 75 54.702 C 75 53.089, 72.286 54.317, 69.249 57.303 M 51 57.719 C 45.637 59.656, 43.829 65.350, 46.915 70.581 C 49.728 75.349, 49.545 76.721, 45.990 77.502 C 42.917 78.177, 40 80.402, 40 82.071 C 40 82.596, 45.695 83, 53.073 83 C 64.985 83, 66.117 82.844, 65.812 81.250 C 65.617 80.229, 63.712 78.888, 61.239 78.031 C 56.418 76.360, 56.174 75.515, 59.085 70.581 C 62.306 65.122, 60.203 59.217, 54.500 57.707 C 53.400 57.416, 51.825 57.422, 51 57.719 " stroke="none" fill="white" fill-rule="evenodd" transform="scale(0.2857142857142857) translate(0 0)"></path>
    </g>
</svg>