<svg width="60" height="60" viewBox="0 0 60 60" xmlns="http://www.w3.org/2000/svg">
    <rect fill="transparent" x="0" y="0" width="60" height="60" rx="4.8"></rect>

    <g width="30" height="30" viewBox="0 0 30 30" transform="translate(15, 15)" fill="#FFFFFF">
        <path d="M 113 7.582 C 96.232 10.578, 91.277 11.714, 84 14.232 C 58.980 22.887, 35.100 41.774, 22.185 63.124 C 20.469 65.961, 20.265 66.966, 21.246 67.747 C 22.351 68.627, 64.628 93.136, 74.117 98.397 L 77.733 100.402 83.394 94.288 C 99.845 76.519, 124.586 70.753, 146.418 79.599 C 149.673 80.918, 152.421 81.885, 152.523 81.748 C 152.625 81.612, 155.781 76.775, 159.535 71 C 163.289 65.225, 171.229 53.164, 177.180 44.199 C 183.131 35.233, 188 27.550, 188 27.126 C 188 26.006, 171.681 17.693, 163.500 14.646 C 149.867 9.567, 122.956 5.803, 113 7.582 M 180.457 65.508 C 170.581 77.337, 162.383 87.363, 162.241 87.786 C 162.098 88.210, 164.243 90.965, 167.007 93.909 C 173.578 100.909, 179.775 113.423, 181.175 122.522 C 181.766 126.360, 182.404 130.063, 182.593 130.750 C 182.858 131.712, 189.424 132, 211.119 132 L 239.301 132 238.684 121.750 C 237.596 103.669, 230.599 83.683, 219.538 67.064 C 215.274 60.659, 200.527 44, 199.120 44 C 198.732 44, 190.333 53.679, 180.457 65.508 M 21.006 88.988 C 17.636 95.286, 13.231 114.507, 12.340 126.806 L 11.728 135.253 39.614 134.516 C 54.951 134.111, 67.838 133.578, 68.250 133.331 C 68.662 133.084, 69 131.160, 69 129.054 C 69 126.949, 70.067 121.542, 71.371 117.040 L 73.743 108.853 71.621 108.027 C 70.455 107.573, 58.965 102.656, 46.089 97.101 C 33.212 91.545, 22.541 87, 22.374 87 C 22.207 87, 21.592 87.895, 21.006 88.988 M 180.074 146.438 C 169.728 185.599, 123.471 201.742, 91.364 177.395 C 81.477 169.897, 73.394 157.778, 70.844 146.624 C 70.105 143.393, 68.965 140.543, 68.312 140.291 C 67.300 139.901, 37.110 143.967, 28.721 145.623 C 26.130 146.135, 25.986 146.420, 26.593 149.836 C 27.924 157.320, 33.136 171.745, 37.312 179.500 L 41.619 187.500 39.865 196.500 C 34.282 225.132, 31 242.838, 31 244.317 C 31 246.361, 31.352 246.387, 34.813 244.597 C 37.427 243.245, 49.936 238.026, 73.842 228.315 L 85.184 223.707 93.342 226.295 C 106.358 230.422, 112.650 231.369, 126.500 231.283 C 137.191 231.216, 141.276 230.732, 149.500 228.557 C 185.536 219.028, 212.611 192.106, 221.927 156.538 C 223.698 149.775, 224.607 143.021, 223.750 142.991 C 223.613 142.987, 214.500 141.868, 203.500 140.506 C 192.500 139.144, 183.231 138.023, 182.901 138.015 C 182.572 138.007, 181.300 141.797, 180.074 146.438 " stroke="none" fill="white" fill-rule="evenodd" transform="scale(0.12) translate(0 0)"></path>
    </g>
</svg>