<svg xmlns="http://www.w3.org/2000/svg" width="60" height="60" viewBox="0 0 60 60">
  <path fill="#FFFFFF" fill-rule="evenodd" d="M0.0246153846,29.8054054 L0.0246153846,0.324324324 L4.11076923,0.324324324 L4.11076923,29.8054054 L0.0246153846,29.8054054 Z M6.57230769,15.6853479 L6.57230769,15.6853479 L6.57230769,15.5066649 C6.58828045,15.1808489 6.69492294,14.9312746 6.88697436,14.7535135 L12.3872821,11.3464865 C12.7548718,11.0983784 13.2356923,10.977973 13.8350769,10.977973 C14.4365128,10.977973 14.9374359,11.0983784 15.3403077,11.3464865 C15.7427692,11.5893243 15.9470769,11.9047297 15.9470769,12.2955405 L15.9470769,28.3990541 C15.9470769,28.737973 15.7378462,29.0456757 15.3202051,29.3310811 C14.9046154,29.6172973 14.4090256,29.7595946 13.8350769,29.7595946 C13.2611282,29.7595946 12.7827692,29.6172973 12.4098462,29.3310811 C12.0274872,29.0456757 11.8387692,28.737973 11.8387692,28.3990541 L11.8387692,16.4213514 L9.66358974,17.762027 C9.4174359,17.9874324 9.04451282,18.0474324 8.55384615,17.9375676 C8.05538462,17.8248649 7.61969231,17.5593243 7.22994872,17.1356757 C6.84184615,16.7148649 6.62276923,16.2689189 6.58051282,15.8002703 C6.57674172,15.7610916 6.57400878,15.7227859 6.57230769,15.6853479 Z" transform="translate(22 15)"/>
</svg>
