<svg width="60" height="60" viewBox="0 0 60 60" xmlns="http://www.w3.org/2000/svg">
    <rect fill="transparent" x="0" y="0" width="60" height="60" rx="4.8"></rect>

    <g width="30" height="30" viewBox="0 0 30 30" transform="translate(15, 15)" fill="#FFFFFF">
        <path d="M 0.044 10.250 C 0.085 19.852, 0.169 20.271, 1.380 16.885 C 4.021 9.494, 9.494 4.021, 16.885 1.380 C 20.271 0.169, 19.852 0.085, 10.250 0.044 L 0 0 0.044 10.250 M 127.115 1.380 C 134.506 4.021, 139.979 9.494, 142.620 16.885 C 143.831 20.271, 143.915 19.852, 143.956 10.250 L 144 0 133.750 0.044 C 124.148 0.085, 123.729 0.169, 127.115 1.380 M 85 61 C 85 63.333, 84.556 64, 83 64 C 81.667 64, 81 64.667, 81 66 C 81 67.333, 81.667 68, 83 68 C 84.822 68, 85 68.667, 85 75.500 C 85 82.833, 85.056 83, 87.500 83 C 89.944 83, 90 82.833, 90 75.500 C 90 68.167, 90.056 68, 92.500 68 C 94.333 68, 95 67.467, 95 66 C 95 64.533, 94.333 64, 92.500 64 C 90.389 64, 90 63.533, 90 61 C 90 58.467, 89.611 58, 87.500 58 C 85.389 58, 85 58.467, 85 61 M 61.500 67.965 C 60.400 70.836, 59.159 73.397, 58.742 73.657 C 58.325 73.916, 57.103 72.074, 56.027 69.564 C 54.440 65.860, 53.593 65, 51.536 65 C 50.141 65, 49 65.219, 49 65.487 C 49 65.755, 51.138 70.280, 53.750 75.543 L 58.500 85.113 61.098 79.307 L 63.697 73.500 65.971 78.750 C 67.223 81.638, 68.576 84, 68.980 84 C 69.561 84, 75.024 72.891, 77.709 66.250 C 78.033 65.448, 77.315 65, 75.706 65 C 73.675 65, 72.847 65.855, 71.349 69.496 C 70.332 71.969, 69.264 73.994, 68.975 73.996 C 68.687 73.998, 67.337 71.467, 65.975 68.372 L 63.500 62.744 61.500 67.965 M 14.250 64.715 L 10 65.115 10 74.627 C 10 83.919, 10.052 84.132, 12.250 83.820 C 14.281 83.531, 14.549 82.819, 15 76.500 C 15.480 69.780, 15.608 69.488, 18.205 69.188 C 20.904 68.877, 20.911 68.892, 21.205 76.188 C 21.476 82.905, 21.683 83.526, 23.750 83.820 C 25.920 84.128, 26 83.859, 26 76.261 C 26 65.341, 24.393 63.762, 14.250 64.715 M 35.020 65.244 C 29.379 68.190, 28.287 76.440, 32.923 81.077 C 36.694 84.848, 41.688 85.040, 45.694 81.570 C 47.957 79.609, 48.256 78.892, 47.240 77.860 C 46.218 76.822, 45.435 76.903, 43.086 78.290 C 39.513 80.401, 38.564 80.421, 36.571 78.429 C 33.834 75.691, 34.826 75, 41.500 75 C 47.727 75, 48 74.897, 48 72.556 C 48 66.906, 40.223 62.526, 35.020 65.244 M 102 64.706 C 96.488 66.721, 93.718 73.620, 96.364 78.738 C 100.751 87.220, 115 84.221, 115 74.815 C 115 67.635, 108.281 62.410, 102 64.706 M 125.631 64.702 C 125.245 65.088, 123.353 65.298, 121.427 65.168 L 117.924 64.932 118.212 74.216 C 118.484 82.981, 118.626 83.518, 120.750 83.820 C 122.878 84.122, 123.001 83.797, 123.015 77.820 C 123.033 70.428, 123.851 68.701, 127.113 69.163 C 129.312 69.473, 129.539 70.051, 130 76.500 C 130.440 82.667, 130.738 83.500, 132.500 83.500 C 134.289 83.500, 134.531 82.735, 134.794 76.248 C 135.061 69.645, 134.864 68.773, 132.589 66.498 C 130.163 64.073, 127.062 63.272, 125.631 64.702 M 36.500 70 C 36.131 70.596, 37.343 71, 39.500 71 C 41.657 71, 42.869 70.596, 42.500 70 C 42.160 69.450, 40.810 69, 39.500 69 C 38.190 69, 36.840 69.450, 36.500 70 M 101.200 70.200 C 100.540 70.860, 100 72.590, 100 74.045 C 100 80.900, 109.164 81.947, 109.818 75.167 C 109.993 73.353, 109.601 71.224, 108.946 70.435 C 107.499 68.691, 102.850 68.550, 101.200 70.200 M 0.044 133.750 L 0 144 9.614 144 L 19.228 144 13.972 141.250 C 8.055 138.155, 3.516 133.116, 1.468 127.373 C 0.129 123.616, 0.086 123.807, 0.044 133.750 M 142.680 126.850 C 141.747 131.514, 135.916 138.178, 130.118 141.207 L 124.772 144 134.386 144 L 144 144 144 134 C 144 128.500, 143.831 124, 143.625 124 C 143.419 124, 142.993 125.283, 142.680 126.850 " stroke="none" fill="white" fill-rule="evenodd" transform="scale(0.20833333333333334) translate(0 0)"></path>
    </g>
</svg>