<svg width="60" height="60" viewBox="0 0 60 60" xmlns="http://www.w3.org/2000/svg">
    <rect fill="transparent" x="0" y="0" width="60" height="60" rx="4.8"></rect>

    <g width="30" height="30" viewBox="0 0 30 30" transform="translate(15, 15)" fill="#FFFFFF">
        <path d="M 217 8.874 C 230.922 12.505, 238.084 14.754, 250 19.232 C 260.231 23.076, 281.124 31.985, 282.297 33.002 C 282.735 33.382, 273.510 33.974, 261.797 34.317 C 219.816 35.547, 186.461 43.736, 151 61.518 C 71.519 101.374, 18.965 174.865, 6.514 263.566 C 4.715 276.375, 3.352 311.911, 4.713 310.500 C 5.244 309.950, 6.946 304.325, 8.496 298 C 13.126 279.102, 21.835 254.421, 30.383 235.966 L 33.816 228.554 33.845 246.027 C 33.884 269.146, 36.132 287.404, 41.538 308.500 C 44.091 318.462, 49.875 336.345, 52.696 343 C 56.593 352.193, 68.391 375.707, 71.033 379.548 C 72.665 381.920, 74 384.112, 74 384.419 C 74 385.303, 85.783 401.758, 92.318 410 C 95.588 414.125, 104.617 423.809, 112.382 431.520 C 143.131 462.055, 178.514 483.474, 218.585 495.811 C 238.373 501.903, 248.755 504.102, 269 506.488 C 280.649 507.860, 314.961 508.627, 313.823 507.490 C 313.542 507.209, 306.380 505.214, 297.906 503.055 C 280.431 498.604, 263.501 492.956, 247.643 486.287 C 226.832 477.536, 226.470 478.325, 251.572 477.721 C 286.464 476.880, 311.761 471.591, 345.247 458.136 C 367.175 449.325, 394.062 433.002, 413.500 416.702 C 422.802 408.902, 442.924 388.366, 449.944 379.510 C 487.685 331.896, 508.043 273.643, 507.960 213.500 C 507.938 197.635, 507.310 196.698, 504.648 208.556 C 500.710 226.099, 491.784 252.350, 482.906 272.500 L 478.500 282.500 477.879 264.500 C 477.537 254.600, 476.938 243.800, 476.547 240.500 C 474.529 223.433, 469.159 198.784, 467.662 199.709 C 467.096 200.059, 467.017 199.782, 467.471 199.047 C 468.222 197.832, 465.776 187.347, 463.906 183.764 C 463.408 182.809, 463 181.546, 463 180.959 C 463 180.371, 462.148 178.002, 461.106 175.695 C 460.065 173.388, 459.026 170.600, 458.797 169.500 C 458.568 168.400, 457.892 167.597, 457.293 167.716 C 456.695 167.835, 456.419 167.114, 456.680 166.115 C 456.942 165.116, 456.445 163.588, 455.578 162.721 C 454.710 161.853, 454 160.406, 454 159.506 C 454 157.075, 452.038 153.858, 450.961 154.524 C 450.445 154.843, 450.277 154.443, 450.586 153.635 C 451.291 151.799, 443.930 137.925, 442.666 138.706 C 442.157 139.021, 441.960 138.653, 442.228 137.889 C 442.496 137.125, 441.766 135.152, 440.607 133.504 C 439.448 131.856, 437.673 128.931, 436.662 127.004 C 435.651 125.077, 434.254 123.048, 433.557 122.496 C 432.861 121.944, 431.960 120.449, 431.555 119.174 C 431.084 117.691, 430.293 117.057, 429.358 117.416 C 428.534 117.732, 428.164 117.543, 428.511 116.982 C 428.850 116.434, 428.099 114.527, 426.843 112.743 C 424.384 109.251, 416.420 99.292, 414.607 97.442 C 413.998 96.820, 410.575 93.015, 407 88.985 C 403.425 84.956, 398.953 80.273, 397.063 78.580 C 395.173 76.886, 392.248 74.201, 390.563 72.614 C 382.684 65.192, 368.979 54.895, 367.881 55.574 C 367.151 56.025, 366.954 55.883, 367.372 55.207 C 368.014 54.169, 365.135 52.079, 348.500 41.506 C 332.966 31.632, 293.587 15.289, 281 13.492 C 280.175 13.374, 278.825 12.997, 278 12.654 C 275.147 11.468, 261.448 8.851, 248.029 6.929 C 239.005 5.637, 229.265 5.015, 218.529 5.045 L 202.500 5.091 217 8.874 M 268.750 14.662 C 269.438 14.940, 270.563 14.940, 271.250 14.662 C 271.938 14.385, 271.375 14.158, 270 14.158 C 268.625 14.158, 268.063 14.385, 268.750 14.662 M 270.500 37.425 C 222.995 49.624, 179.469 70.257, 142.242 98.223 C 131.728 106.122, 117.746 117.685, 117.250 118.892 C 117.113 119.226, 119.813 119.533, 123.250 119.574 C 128.122 119.632, 130.979 120.355, 136.209 122.856 C 156.303 132.462, 160.950 159.050, 145.275 174.725 C 138.581 181.419, 133.048 183.502, 122 183.487 C 111.005 183.472, 106.737 181.789, 99.602 174.655 C 93.814 168.866, 91.066 162.721, 90.212 153.650 L 89.500 146.089 81.388 155.794 C 65.153 175.220, 50.288 197.258, 39.093 218.500 C 34.283 227.627, 34.272 228.210, 38.631 245 C 41.268 255.159, 48.352 277.548, 50.496 282.500 C 51.211 284.150, 53.481 289.550, 55.541 294.500 C 69.347 327.665, 94.462 367.719, 116.572 391.835 L 118.713 394.170 119.232 387.696 C 120.663 369.870, 134.461 357, 152.141 357 C 164.416 357, 175.897 364.325, 181.474 375.715 C 185.416 383.767, 185.570 394.943, 181.849 403 C 176.614 414.336, 165.185 421.858, 153 421.990 L 146.500 422.060 151 426.032 C 160.226 434.176, 177.891 447.525, 190 455.503 C 205.432 465.670, 225.743 477, 228.537 477 C 230.786 477, 251.339 471.933, 259.500 469.366 C 308.591 453.928, 353.785 428.875, 390.444 396.779 L 394.388 393.325 387.912 392.721 C 379.449 391.930, 373.115 389.123, 367.099 383.495 C 360.105 376.954, 357.546 370.676, 357.520 360 C 357.503 352.705, 357.894 350.698, 360.280 345.839 C 363.630 339.017, 369.310 333.663, 376.867 330.203 C 384.880 326.535, 395.464 326.628, 403.090 330.434 C 414.822 336.291, 421.994 347.122, 422.004 359 L 422.009 365.500 424.759 362.500 C 426.271 360.850, 429.526 357.025, 431.991 354 C 434.456 350.975, 436.759 348.275, 437.109 348 C 438.358 347.020, 454.569 324.175, 458.474 317.893 C 463.654 309.561, 471.427 295.943, 474.993 288.954 L 477.822 283.409 475.941 275.511 C 474.906 271.168, 473.860 266.463, 473.617 265.057 C 473.373 263.651, 472.214 259.453, 471.041 255.730 C 469.867 252.006, 469.223 248.449, 469.608 247.825 C 470.001 247.189, 469.867 246.964, 469.303 247.313 C 468.742 247.659, 467.761 246.069, 467.086 243.717 C 464.824 235.843, 460.381 224.220, 455.620 213.723 C 454.179 210.545, 453 207.696, 453 207.392 C 453 207.087, 451.420 203.690, 449.489 199.842 C 447.558 195.994, 446.277 192.361, 446.643 191.768 C 447.023 191.154, 446.844 190.979, 446.227 191.360 C 445.620 191.735, 444.831 191.042, 444.431 189.784 C 444.039 188.549, 442.950 186.405, 442.011 185.019 C 441.072 183.634, 436.989 176.875, 432.938 170 C 428.887 163.125, 424.775 156.435, 423.800 155.132 C 422.825 153.830, 422.318 152.255, 422.674 151.632 C 423.030 151.010, 422.957 150.829, 422.512 151.232 C 421.581 152.074, 420.077 150.433, 414.500 142.490 C 409.912 135.955, 402.407 126.728, 396.273 120.081 L 392.046 115.500 392.023 122.677 C 392.003 128.929, 391.542 130.735, 388.447 136.677 C 384.357 144.530, 381.834 146.956, 373.500 151.051 C 368.476 153.519, 366.280 153.998, 360 153.998 C 342.915 153.998, 329.721 141.994, 328.311 125.165 C 327.714 118.053, 330.137 107.348, 332.071 108.544 C 332.570 108.852, 332.681 108.332, 332.319 107.388 C 331.836 106.132, 332.015 105.891, 332.985 106.490 C 333.901 107.057, 334.072 106.925, 333.538 106.061 C 332.293 104.047, 340.594 96.455, 347.366 93.416 C 351.619 91.508, 355.440 90.604, 359.983 90.434 C 363.567 90.299, 366.654 90.147, 366.843 90.095 C 367.133 90.015, 354.746 79.400, 350 75.661 C 334.787 63.675, 308.067 45.861, 298.360 41.232 C 296.559 40.373, 295.361 39.225, 295.697 38.681 C 296.034 38.136, 295.844 37.979, 295.275 38.330 C 294.706 38.682, 292.138 37.851, 289.567 36.485 C 286.997 35.118, 284.580 34.019, 284.197 34.043 C 283.814 34.067, 277.650 35.588, 270.500 37.425 " stroke="none" fill="white" fill-rule="evenodd" transform="scale(0.05859375) translate(0 0)"></path>
    </g>
</svg>