<svg width="60" height="60" viewBox="0 0 60 60" xmlns="http://www.w3.org/2000/svg">
    <rect fill="transparent" x="0" y="0" width="60" height="60" rx="4.8"></rect>

    <g width="30" height="30" viewBox="0 0 30 30" transform="translate(15, 15)" fill="#FFFFFF">
        <path d="M 161.500 4.500 C 160.950 4.689, 158.363 5.131, 155.750 5.483 C 153.137 5.835, 151 6.458, 151 6.867 C 151 7.276, 153.959 12.536, 157.576 18.556 C 171.283 41.366, 182.385 66.570, 187.475 86.434 C 189.268 93.435, 190.222 95.538, 191.882 96.152 C 193.775 96.852, 194 96.578, 194 93.567 C 194 87.941, 190.263 68.141, 187.068 56.835 C 183.492 44.181, 177.778 28.722, 171.383 14.394 C 166.713 3.933, 165.807 3.026, 161.500 4.500 M 179.258 5.610 C 179.569 6.649, 182.380 14.246, 185.505 22.490 C 194.890 47.252, 201.388 74.060, 202.110 91 C 202.415 98.133, 203.361 101, 205.410 101 C 207.394 101, 208 96.311, 208 80.967 C 208 65.709, 206.107 48.475, 202.511 31 C 197.269 5.526, 197.794 6.619, 190.300 5.570 C 187.660 5.201, 183.969 4.634, 182.097 4.309 C 179.099 3.790, 178.761 3.945, 179.258 5.610 M 133.500 12.668 C 130.750 14.085, 128.326 15.401, 128.113 15.593 C 127.900 15.785, 130.184 18.992, 133.190 22.721 C 152.204 46.309, 167.785 71.411, 174.487 89.250 C 175.929 93.089, 176.729 94, 178.655 94 C 181.480 94, 181.462 93.875, 176.336 78 C 169.690 57.420, 144.069 9.879, 139.713 10.047 C 139.046 10.072, 136.250 11.252, 133.500 12.668 M 210.377 14.750 C 210.725 16.813, 211.696 22.325, 212.535 27 C 216.763 50.561, 218.309 83.171, 215.966 99.379 C 215.082 105.495, 215.167 106.403, 216.736 107.562 C 217.706 108.279, 218.797 108.558, 219.159 108.183 C 220.108 107.200, 224.667 87.743, 225.879 79.500 C 227.506 68.442, 229.230 39.004, 228.848 28.801 L 228.500 19.500 220 15.289 C 215.325 12.973, 211.105 11.060, 210.622 11.039 C 210.139 11.018, 210.029 12.688, 210.377 14.750 M 114.163 24.576 L 108.853 28.152 121.770 41.377 C 136.792 56.758, 149.829 72.769, 157.697 85.500 C 160.756 90.450, 163.361 94.623, 163.486 94.774 C 164.060 95.463, 167 93.658, 167 92.617 C 167 89.981, 155.628 68.705, 148.229 57.500 C 139.905 44.893, 121.274 21, 119.767 21 C 119.606 21, 117.084 22.609, 114.163 24.576 M 239.156 45.299 C 237.392 72.166, 234.061 91.649, 228.370 108.381 C 226.599 113.588, 226.291 115.645, 227.129 116.656 C 227.743 117.395, 228.666 118, 229.182 118 C 230.688 118, 240.539 96.466, 244.506 84.500 C 248.520 72.391, 256 43.781, 256 40.535 C 256 39.166, 253.745 36.782, 249.250 33.397 C 245.537 30.601, 242.016 28.040, 241.425 27.706 C 240.694 27.293, 239.969 32.912, 239.156 45.299 M 96.641 37.872 C 93.968 39.990, 91.913 42.122, 92.074 42.611 C 92.235 43.100, 94.422 45.056, 96.934 46.959 C 113.418 59.443, 131.017 75.438, 143.479 89.260 C 149.921 96.406, 154 98.898, 154 95.687 C 154 93.727, 142.827 77.730, 134.680 68.026 C 127.166 59.075, 103.146 33.992, 102.105 34.011 C 101.772 34.016, 99.313 35.754, 96.641 37.872 M 76.750 53.588 C 73.588 56.104, 71 58.311, 71 58.493 C 71 58.674, 75.838 61.406, 81.750 64.562 C 101.346 75.023, 118.697 86.362, 130.830 96.639 C 137.282 102.104, 138.460 102.628, 140.863 101.106 C 142.884 99.826, 126.470 82.703, 110.067 68.981 C 100.173 60.704, 84.552 48.998, 83.412 49.007 C 82.910 49.012, 79.912 51.073, 76.750 53.588 M 265.612 50.053 C 265.350 50.849, 263.274 57.800, 260.999 65.500 C 254.486 87.542, 245.205 109.794, 237.305 122.308 C 234.987 125.981, 234.931 126.357, 236.487 127.874 C 238.033 129.381, 238.412 129.207, 241.653 125.500 C 249.553 116.465, 261.976 96.176, 272.581 74.987 L 279.215 61.734 272.652 55.170 C 268.114 50.633, 265.941 49.053, 265.612 50.053 M 55.038 72.461 C 50.645 76.894, 49.084 79.070, 50.067 79.391 C 50.855 79.649, 58.355 81.916, 66.732 84.431 C 86.120 90.249, 99.355 95.507, 114.697 103.488 C 125.023 108.859, 127.077 109.612, 128.085 108.398 C 129.023 107.267, 128.923 106.572, 127.611 105.122 C 125.110 102.359, 111.696 92.926, 101.217 86.561 C 93.294 81.749, 63.158 66, 61.873 66 C 61.636 66, 58.560 68.908, 55.038 72.461 M 278.708 84.748 C 267.753 104.759, 252.535 127.338, 244.285 135.821 C 242.755 137.394, 242.594 140.631, 244.001 141.501 C 245.311 142.310, 264.175 123.984, 273.885 112.469 C 288.006 95.723, 296.229 84.284, 295.556 82.320 C 295.214 81.319, 293.003 78.313, 290.644 75.640 L 286.356 70.779 278.708 84.748 M 34.776 93.916 C 32.314 96.987, 29.558 100.657, 28.651 102.072 L 27.004 104.643 45.274 105.826 C 71.302 107.510, 92.852 111.252, 109.400 116.960 C 113.835 118.490, 115.636 118.717, 116.650 117.875 C 118.958 115.960, 118.220 115.136, 110.900 111.450 C 95.306 103.597, 76.047 97.046, 51.376 91.203 L 39.253 88.332 34.776 93.916 M 298.338 96.250 C 289.880 107.838, 274.602 125.152, 262.599 136.750 C 255.627 143.488, 249.490 149, 248.961 149 C 248.433 149, 248 150.125, 248 151.500 C 248 152.897, 248.579 154, 249.313 154 C 251.090 154, 266.108 143.671, 275.687 135.860 C 279.977 132.362, 289.778 123.371, 297.465 115.880 L 311.443 102.259 307.100 96.630 C 304.711 93.533, 302.625 91, 302.464 91 C 302.302 91, 300.446 93.362, 298.338 96.250 M 310.469 115.114 C 293.538 132.455, 269.296 152.381, 256.259 159.672 C 249.724 163.326, 249.473 163.619, 250.916 165.898 C 251.665 167.082, 252.470 167.032, 256.151 165.577 C 263.697 162.593, 279.129 153.959, 289.500 146.918 C 300.349 139.553, 323.293 121.543, 323.834 119.969 C 324.098 119.200, 317.403 109, 316.634 109 C 316.526 109, 313.751 111.751, 310.469 115.114 M 19.757 117.224 C 17.903 118.618, 10.548 133.881, 11.345 134.679 C 11.616 134.950, 18.512 134.023, 26.669 132.620 C 34.826 131.216, 46.160 129.603, 51.856 129.034 C 64.916 127.730, 90.359 127.730, 99.379 129.034 C 105.495 129.918, 106.403 129.833, 107.562 128.264 C 108.279 127.294, 108.558 126.204, 108.183 125.843 C 106.792 124.504, 86.116 119.985, 74.500 118.482 C 57.943 116.339, 22.031 115.514, 19.757 117.224 M 318.500 136.067 C 298.724 151.939, 271.432 168.656, 255.750 174.501 C 251.871 175.947, 251 176.718, 251 178.703 C 251 181.506, 249.807 181.685, 266.831 176.321 C 279.531 172.320, 301.936 161.526, 318.500 151.427 C 324.550 147.739, 330.735 143.996, 332.244 143.111 C 333.753 142.225, 334.990 140.947, 334.994 140.272 C 335.002 138.740, 329.780 127.993, 329.042 128.020 C 328.744 128.031, 324 131.652, 318.500 136.067 M 61 137.679 C 46.076 139.209, 9.402 146.324, 7.603 148.039 C 6.669 148.930, 4.101 160.901, 4.037 164.665 C 4.001 166.766, 4.273 166.719, 13.250 163.056 C 40.921 151.765, 72.928 143.520, 91.500 142.897 C 94.800 142.786, 98.287 142.298, 99.250 141.813 C 101.698 140.578, 101.431 138.349, 98.750 137.630 C 96.424 137.007, 67.189 137.044, 61 137.679 M 78 153.022 C 63.754 155.546, 45.772 160.853, 29.245 167.411 C 9.254 175.343, 4 177.910, 4 179.741 C 4 183.618, 6.294 194, 7.151 194 C 7.671 194, 10.464 192.485, 13.358 190.634 C 36.474 175.847, 69.217 161.241, 89.407 156.710 C 93.888 155.704, 95.509 154.855, 96.125 153.192 C 96.881 151.148, 96.651 151.005, 92.718 151.081 C 90.398 151.125, 83.775 151.999, 78 153.022 M 332 154.081 C 323.695 159.530, 302.596 170.866, 292 175.572 C 279.845 180.970, 260.585 187.498, 253.848 188.504 C 249.990 189.079, 249.117 189.608, 248.736 191.599 C 248.328 193.737, 248.635 194, 251.539 194 C 257.090 194, 276.965 190.233, 288.263 187.040 C 309.070 181.160, 341 167.932, 341 165.193 C 341 160.902, 338.652 151.008, 337.647 151.064 C 337.016 151.099, 334.475 152.457, 332 154.081 M 84.413 166.499 C 73.565 169.708, 63.129 173.921, 50.762 180.083 C 39.332 185.778, 17.069 198.775, 12.495 202.422 L 9.530 204.786 12.449 210.893 C 14.054 214.252, 15.568 217, 15.814 217 C 16.059 217, 21.258 213.065, 27.368 208.255 C 48.384 191.710, 73.570 176.343, 89.250 170.499 C 93.078 169.072, 94 168.269, 94 166.364 C 94 163.532, 94.463 163.526, 84.413 166.499 M 80.453 183.402 C 67.020 190.019, 49.069 201.768, 35.109 213.080 C 29.394 217.711, 23.882 222.117, 22.859 222.872 C 20.311 224.753, 20.470 225.510, 24.597 231.132 L 28.194 236.032 41.652 223.035 C 60.028 205.289, 74.892 193.389, 89.275 184.908 C 94.861 181.614, 96.382 178.883, 92.989 178.242 C 92.170 178.087, 86.529 180.409, 80.453 183.402 M 336.266 180.080 C 311.286 190.844, 278.444 200.005, 259.432 201.512 C 246.976 202.500, 245.633 202.781, 244.232 204.697 C 243.043 206.323, 243.282 206.578, 246.708 207.334 C 253.293 208.787, 287.301 207.360, 300.861 205.061 C 316.123 202.474, 336.127 198.015, 337.587 196.875 C 338.617 196.070, 341.628 179.245, 340.862 178.573 C 340.663 178.398, 338.595 179.077, 336.266 180.080 M 87.436 195.647 C 74.721 204.165, 63.701 213.366, 48.568 228.100 C 31.711 244.513, 32.516 242.454, 39.670 250.845 L 42.522 254.190 52.975 240.845 C 63.958 226.824, 80.040 209.594, 91.010 200.095 C 95.214 196.454, 97.401 193.846, 97.186 192.729 C 96.677 190.086, 94.976 190.596, 87.436 195.647 M 92.791 209.604 C 75.669 225.272, 48.180 258.933, 49.431 262.700 C 49.760 263.690, 51.961 266.705, 54.323 269.401 L 58.617 274.302 65.453 261.901 C 77.421 240.192, 93.377 216.407, 99.871 210.595 C 102.065 208.632, 102.736 204.573, 101.041 203.525 C 100.513 203.199, 96.801 205.935, 92.791 209.604 M 316.616 212.528 C 291.924 216.918, 263.441 218.293, 246.369 215.918 C 239.327 214.939, 238.470 215.005, 237.292 216.615 C 236.577 217.592, 236.332 218.712, 236.746 219.103 C 238.222 220.495, 258.692 224.990, 270.500 226.515 C 284.083 228.269, 319.225 229.662, 323.408 228.612 C 325.665 228.046, 326.880 226.399, 330.084 219.563 C 332.238 214.966, 334 210.934, 334 210.603 C 334 209.669, 330.549 210.051, 316.616 212.528 M 101.867 221.250 C 92.760 232.689, 78.949 255.711, 68.920 276.169 L 65.651 282.838 71.926 289.916 C 75.377 293.809, 78.555 296.775, 78.987 296.508 C 79.419 296.241, 80.079 294.393, 80.452 292.403 C 81.484 286.903, 89.735 261.738, 94.123 250.707 C 98.323 240.149, 103.752 228.938, 107.672 222.728 C 109.608 219.660, 109.873 218.552, 108.938 217.425 C 107.103 215.214, 106.346 215.623, 101.867 221.250 M 111.270 234.224 C 103.370 250.082, 98.443 264.303, 91.945 290 L 88.026 305.500 90.763 307.822 C 96.143 312.387, 104.163 318.171, 104.560 317.773 C 104.783 317.550, 105.443 309.748, 106.027 300.434 C 107.699 273.757, 111.209 252.557, 116.557 236.831 C 118.940 229.825, 118.962 229.518, 117.208 227.764 C 115.454 226.010, 115.253 226.228, 111.270 234.224 M 227.681 227.800 C 226.052 229.600, 226.435 229.884, 237.744 235.270 C 254.179 243.096, 276.504 250.197, 304.206 256.407 C 305.377 256.670, 307.808 254.340, 311.956 248.977 C 315.280 244.681, 318 240.947, 318 240.681 C 318 240.415, 312.712 239.896, 306.250 239.528 C 275.684 237.786, 247.577 232.915, 230.677 226.430 C 229.960 226.155, 228.612 226.771, 227.681 227.800 M 216.891 236.631 C 215.710 238.054, 216.044 238.704, 219.519 241.741 C 228.803 249.856, 254.256 265.375, 273.691 274.771 L 282.952 279.249 289.973 273.024 C 293.835 269.600, 296.775 266.445, 296.508 266.013 C 296.241 265.581, 294.366 264.916, 292.341 264.536 C 285.668 263.284, 257.930 253.917, 246.088 248.915 C 239.691 246.214, 230.903 241.978, 226.558 239.502 C 222.213 237.026, 218.566 235, 218.452 235 C 218.338 235, 217.636 235.734, 216.891 236.631 M 125.122 238.210 C 123.371 242.877, 119.806 259.709, 118.401 269.943 C 117.603 275.749, 116.670 290.631, 116.328 303.014 L 115.705 325.528 124.618 329.764 C 129.521 332.094, 134.020 334, 134.616 334 C 135.342 334, 135.090 330.782, 133.852 324.250 C 129.762 302.672, 128.663 291.568, 128.581 271 C 128.537 259.725, 128.857 247.714, 129.293 244.308 C 130.018 238.651, 129.909 238.022, 128.034 237.018 C 126.292 236.086, 125.851 236.266, 125.122 238.210 M 137.611 246.197 C 136.434 252.082, 137.015 279.698, 138.565 291.542 C 139.977 302.329, 144.778 327.868, 146.828 335.500 C 147.587 338.325, 148.069 338.574, 155.067 339.767 C 167.937 341.960, 167.593 342.815, 160.858 325.359 C 150.640 298.872, 144.239 273.398, 143.269 255.347 C 142.769 246.054, 142.532 245.108, 140.472 244.169 C 138.449 243.248, 138.159 243.453, 137.611 246.197 M 203.564 243.897 C 201.773 246.795, 231.819 274.700, 256.107 292.695 L 261.715 296.850 267.857 291.879 C 271.236 289.146, 274 286.753, 274 286.563 C 274 286.372, 268.488 283.177, 261.750 279.463 C 240.189 267.578, 216.390 251.604, 210.595 245.129 C 208.664 242.971, 204.578 242.255, 203.564 243.897 M 191.682 247.857 C 190.071 248.492, 190.535 249.593, 195.766 257.537 C 204.712 271.122, 212.980 281.056, 228.570 296.949 C 244.490 313.180, 242.513 312.435, 250.831 305.341 L 254.163 302.500 240.842 292 C 226.551 280.735, 204.317 259.756, 198.284 251.845 C 196.252 249.180, 194.344 247.032, 194.045 247.070 C 193.745 247.109, 192.682 247.463, 191.682 247.857 M 151.330 255.376 C 152.861 273.493, 160.926 301.709, 171.801 327 L 177.606 340.500 183.553 340.257 C 186.824 340.123, 190.721 339.673, 192.213 339.257 L 194.927 338.500 188.310 327.500 C 179.958 313.615, 166.060 285.132, 162.205 274 C 160.586 269.325, 158.443 261.900, 157.444 257.500 C 156.444 253.100, 155.598 249.443, 155.563 249.374 C 155.528 249.305, 154.417 248.915, 153.093 248.507 L 150.687 247.766 151.330 255.376 M 177.612 250.818 C 176.878 252.006, 186.773 272.080, 192.981 282 C 202.708 297.541, 223.153 324.025, 225.385 323.975 C 225.998 323.962, 228.666 322.362, 231.313 320.420 L 236.126 316.889 224.634 304.969 C 206.437 286.095, 192.204 268.337, 184.785 255.250 C 182.006 250.347, 179.037 248.513, 177.612 250.818 M 164.615 253.750 C 169.359 273.732, 179.747 296.568, 196.217 323.220 L 204.077 335.941 209.788 333.417 C 212.930 332.029, 215.906 330.488, 216.403 329.993 C 217.438 328.962, 217.448 328.977, 206.415 314.851 C 191.130 295.281, 179.138 275.936, 172.338 259.876 C 169.154 252.356, 168.227 251, 166.271 251 C 164.260 251, 164.046 251.356, 164.615 253.750 " stroke="none" fill="white" fill-rule="evenodd" transform="scale(0.08695652173913043) translate(0 0)"></path>
    </g>
</svg>