<svg width="60" height="60" viewBox="0 0 60 60" xmlns="http://www.w3.org/2000/svg">
    <rect fill="transparent" x="0" y="0" width="60" height="60" rx="4.8"></rect>

    <g width="30" height="30" viewBox="0 0 30 30" transform="translate(15, 15)" fill="#FFFFFF">
        <path d="M 40.917 64.415 C 40.688 64.643, 40.629 74.993, 40.787 87.415 L 41.073 110 69.531 110 L 97.988 110 98.244 189.750 L 98.500 269.500 125.500 269.500 L 152.500 269.500 152.756 189.750 L 153.012 110 181.506 110 L 210 110 210 87 L 210 64 125.667 64 C 79.283 64, 41.146 64.187, 40.917 64.415 M 219 64.494 C 219 64.975, 235.851 94.148, 273.879 159.500 L 292.500 191.500 293 230.500 L 293.500 269.500 320 269.500 L 346.500 269.500 346.762 231.244 L 347.024 192.989 372.687 148.744 C 386.802 124.410, 403.638 95.381, 410.100 84.236 L 421.849 63.971 391.244 64.236 L 360.638 64.500 340.569 105.621 C 329.531 128.237, 320.275 146.616, 320 146.463 C 319.725 146.309, 310.501 127.692, 299.502 105.092 L 279.503 64 249.252 64 C 232.613 64, 219 64.222, 219 64.494 M 77 361.559 C 77 403.340, 77.256 413.964, 78.250 413.368 C 78.938 412.955, 84.511 408.204, 90.635 402.809 L 101.770 393 130.885 393 L 160 393 160 351 L 160 309 118.500 309 L 77 309 77 361.559 M 263.457 351 C 263.457 373.825, 263.588 383.163, 263.749 371.750 C 263.909 360.338, 263.909 341.663, 263.749 330.250 C 263.588 318.838, 263.457 328.175, 263.457 351 M 285.500 361.923 L 285.500 413.846 289.211 410.673 C 291.252 408.928, 296.737 404.212, 301.400 400.193 L 309.879 392.886 338.939 392.970 L 368 393.053 368 351.526 L 368 310 326.750 310 L 285.500 310 285.500 361.923 " stroke="none" fill="white" fill-rule="evenodd" transform="scale(0.06741573033707865) translate(0 0)"></path>
    </g>
</svg>