<svg width="60" height="60" viewBox="0 0 60 60" xmlns="http://www.w3.org/2000/svg">
    <rect fill="transparent" x="0" y="0" width="60" height="60" rx="4.8"></rect>

    <g width="30" height="30" viewBox="0 0 30 30" transform="translate(15, 15)" fill="#FFFFFF">
        <path d="M 103.408 43.270 C 98.958 51.097, 86.808 72.125, 76.408 90 C 52.132 131.726, 52.715 126.203, 69.500 155.528 C 81.957 177.292, 85.565 182.229, 92.502 187.001 C 106.365 196.539, 127.792 193.995, 138.786 181.505 C 143.410 176.253, 165.643 137.876, 167.082 132.664 C 168.594 127.188, 166.962 122.786, 157.102 105.740 C 145.196 85.158, 144.414 83.919, 143.749 84.584 C 143.432 84.901, 136.293 97.030, 127.885 111.536 C 117.045 130.239, 112.265 137.635, 111.453 136.961 C 110.824 136.439, 109.542 134.310, 108.604 132.230 L 106.899 128.449 114.280 115.474 C 118.339 108.338, 124.943 96.875, 128.954 90 C 132.990 83.084, 136.436 75.937, 136.668 74 C 137.005 71.200, 136.209 69.039, 132.690 63.200 L 128.290 55.900 124.245 62.700 C 122.021 66.440, 113.591 80.975, 105.513 95 C 97.434 109.025, 89.765 122.336, 88.470 124.579 L 86.116 128.658 91.169 137.579 C 101.909 156.539, 105.444 162.198, 107.409 163.574 C 109.766 165.225, 114.317 165.436, 116.967 164.018 C 117.976 163.478, 124.359 153.360, 131.151 141.534 C 137.943 129.709, 143.792 120.025, 144.148 120.016 C 144.505 120.007, 145.937 121.912, 147.330 124.250 L 149.863 128.500 146.816 134 C 125.773 171.983, 123.601 174.503, 111.907 174.496 C 102.124 174.491, 100.107 172.523, 87.308 150.498 C 81.556 140.599, 76.396 131.564, 75.842 130.421 C 75.015 128.715, 75.723 126.830, 79.783 119.921 C 84.324 112.194, 113.083 62.263, 118.796 52.187 C 120.525 49.137, 121.090 46.939, 120.723 44.681 C 120.207 41.502, 113.340 28.982, 112.133 29.020 C 111.785 29.032, 107.859 35.444, 103.408 43.270 " stroke="none" fill="white" fill-rule="evenodd" transform="scale(0.13333333333333333) translate(0 0)"></path>
    </g>
</svg>