<svg width="60" height="60" viewBox="0 0 60 60" xmlns="http://www.w3.org/2000/svg">
    <rect fill="transparent" x="0" y="0" width="60" height="60" rx="4.8"></rect>

    <g width="30" height="30" viewBox="0 0 30 30" transform="translate(15, 15)" fill="#FFFFFF">
        <path d="M 152.500 55.642 C 117.604 59.515, 85.897 73.500, 63.869 94.736 C 53.762 104.479, 51.575 107.787, 52.488 111.947 C 53.372 115.972, 55.411 117.542, 76 130.054 C 109.900 150.656, 108.046 149.901, 114.102 145.570 C 128.058 135.590, 134.925 132.195, 145.675 129.964 C 153.395 128.361, 166.222 128.614, 173.500 130.512 C 180.748 132.403, 190.365 136.779, 196.410 140.938 C 203.027 145.491, 207.053 145.171, 212.339 139.671 C 215.935 135.931, 230.063 120.970, 250.276 99.500 C 253.383 96.200, 256.195 92.295, 256.526 90.823 C 257.501 86.479, 254.619 82.559, 246.420 77.075 C 225.204 62.885, 202.340 56.182, 173 55.552 C 163.925 55.357, 154.700 55.397, 152.500 55.642 M 43.500 127.394 C 39.005 129.342, 36.955 134.443, 34.946 148.674 C 29.733 185.603, 56.725 221.757, 100.928 237.054 C 104.277 238.213, 107.463 239.012, 108.010 238.830 C 108.557 238.648, 107.391 236.249, 105.420 233.499 C 91.734 214.410, 88.974 193.597, 97.107 170.798 L 100.211 162.096 98.355 158.423 C 96.803 155.351, 93.311 152.805, 77 142.854 C 48.633 125.546, 48.213 125.353, 43.500 127.394 M 128.500 160.412 C 126.850 161.145, 124.375 162.963, 123 164.451 L 120.500 167.158 120.179 195.329 C 119.827 226.262, 120.222 229.326, 125.095 233.426 L 128.153 236 158.126 236 C 191.286 236, 192.411 235.813, 195.733 229.733 C 197.308 226.851, 197.500 223.331, 197.500 197.322 C 197.500 156.647, 199.851 158.985, 159 159.041 C 138.318 159.069, 130.756 159.409, 128.500 160.412 " stroke="none" fill="white" fill-rule="evenodd" transform="scale(0.10416666666666667) translate(0 0)"></path>
    </g>
</svg>