<svg width="60" height="60" viewBox="0 0 60 60" xmlns="http://www.w3.org/2000/svg">
    <rect fill="transparent" x="0" y="0" width="60" height="60" rx="4.8"></rect>

    <g width="30" height="30" viewBox="0 0 30 30" transform="translate(15, 15)" fill="#FFFFFF">
        <path d="M 86.678 2.069 C 53.249 5.698, 24.926 25.786, 9.935 56.500 C 2.723 71.276, 0.555 81.175, 0.626 99 C 0.675 111.283, 1.077 114.971, 3.252 123.121 C 7.929 140.645, 16.963 155.914, 30.141 168.565 C 39.274 177.333, 44.608 180.994, 56.365 186.563 C 93.186 204.005, 136.937 196.216, 166.018 167.042 C 177.912 155.109, 185.584 142.113, 190.576 125.436 C 192.789 118.044, 193.325 113.994, 193.680 102 C 193.916 94.025, 193.736 85.475, 193.279 83 L 192.450 78.500 186.259 77.905 C 178.372 77.148, 173.040 73.780, 170.095 67.696 L 167.947 63.260 160.724 62.788 C 156.062 62.484, 152.002 61.548, 149.277 60.151 C 139.508 55.144, 133.041 44.900, 132.738 33.953 C 132.584 28.429, 132.315 27.690, 130.153 26.868 C 122.604 23.998, 118.840 18.617, 118.031 9.540 C 117.507 3.663, 117.452 3.572, 114 2.900 C 107.382 1.614, 94.488 1.221, 86.678 2.069 M 84.222 72.047 C 73.258 77.526, 67.703 86.390, 67.645 98.500 C 67.538 120.928, 90.302 135.018, 110.543 125.053 C 123.955 118.451, 130.273 102.961, 125.394 88.643 C 123.029 81.701, 115.199 73.592, 108.410 71.052 C 100.047 67.923, 91.796 68.262, 84.222 72.047 " stroke="none" fill="white" fill-rule="evenodd" transform="scale(0.15306122448979592) translate(0 0)"></path>
    </g>
</svg>