<svg width="60" height="60" viewBox="0 0 60 60" xmlns="http://www.w3.org/2000/svg">
    <rect fill="transparent" x="0" y="0" width="60" height="60" rx="4.8"></rect>

    <g width="30" height="30" viewBox="0 0 30 30" transform="translate(15, 15)" fill="#FFFFFF">
        <path d="M 8.094 1.306 C 6.220 1.963, 3.745 3.770, 2.594 5.322 C 0.635 7.963, 0.500 9.415, 0.500 27.919 C 0.500 56.276, 0.483 56.255, 23.807 56.835 C 44.293 57.345, 49.166 56.680, 52.994 52.852 C 54.681 51.165, 56 48.783, 56 47.423 C 56 46.090, 56.450 45, 57 45 C 57.630 45, 57.994 38.427, 57.985 27.250 C 57.974 15.420, 57.646 10, 57 11 C 56.241 12.175, 56.027 11.920, 56.015 9.827 C 55.996 6.393, 51.139 1.478, 46.935 0.637 C 41.351 -0.480, 11.735 0.031, 8.094 1.306 M 0.413 28.500 C 0.414 38.400, 0.564 42.315, 0.746 37.199 C 0.928 32.084, 0.927 23.984, 0.744 19.199 C 0.561 14.415, 0.412 18.600, 0.413 28.500 M 14.667 13.667 C 13.743 14.590, 13.823 37.008, 14.750 36.965 C 15.162 36.945, 16.625 36.286, 18 35.500 C 21.802 33.327, 22.584 33.633, 25.658 38.498 C 28.488 42.978, 28.524 42.996, 34.250 42.998 C 37.413 42.999, 40 42.704, 40 42.342 C 40 41.201, 31.780 30.977, 30.103 30.032 C 28.718 29.252, 28.921 28.678, 31.596 25.815 C 35.926 21.180, 40 15.527, 40 14.156 C 40 12.896, 15.903 12.431, 14.667 13.667 " stroke="none" fill="white" fill-rule="evenodd" transform="scale(0.5263157894736842) translate(0 0)"></path>
    </g>
</svg>