<svg width="60" height="60" viewBox="0 0 60 60" xmlns="http://www.w3.org/2000/svg">
    <rect fill="transparent" x="0" y="0" width="60" height="60" rx="4.8"></rect>

    <g width="30" height="30" viewBox="0 0 30 30" transform="translate(15, 15)" fill="#FFFFFF">
        <path d="M 317 67.555 C 313.425 68.323, 306.675 70.825, 302 73.116 C 293.683 77.191, 292.543 78.231, 249 121.492 C 208.873 161.359, 204.071 165.810, 200.132 166.776 C 197.730 167.365, 195.255 167.694, 194.632 167.507 C 194.010 167.320, 192.185 166.876, 190.578 166.521 C 188.566 166.077, 181.244 159.565, 167.078 145.621 C 145.804 124.680, 142.611 122.313, 131.744 119.420 C 121.416 116.670, 108.752 118.289, 98.982 123.606 C 92.591 127.085, 84.748 135.040, 81.394 141.446 L 78.606 146.770 97.053 164.677 C 170.770 236.238, 170.520 236.018, 182.210 239.899 C 195.247 244.227, 206.797 243.623, 218.850 237.983 C 224.351 235.409, 228.739 231.565, 249.379 211.238 C 270.815 190.128, 287.885 173.313, 359.323 102.939 L 378.145 84.397 372.505 80.179 C 356.027 67.855, 336.392 63.390, 317 67.555 M 364.380 118.250 L 340.275 142.500 348.230 149.972 C 378.317 178.232, 394.092 221.588, 388.992 262 C 380.974 325.523, 330.837 373.973, 266.746 380.132 C 226.897 383.962, 186.577 368.508, 158.200 338.529 C 140.444 319.772, 129.198 298.070, 123.450 271.471 C 121.056 260.397, 121.024 235.666, 123.388 223.569 L 125.132 214.637 98.104 187.609 L 71.076 160.580 68.422 166.540 C 55.313 195.986, 49.476 234.390, 53.035 267.789 C 61.702 349.137, 112 413.795, 185.914 438.607 C 206.944 445.667, 225.855 448.987, 249.176 449.714 C 283.833 450.795, 314.228 444.375, 344.485 429.583 C 408.212 398.428, 450.464 338.187, 457.965 267.789 C 463.524 215.624, 448.616 164.354, 415.140 120.500 C 409.456 113.054, 391.083 94, 389.588 94 C 388.981 94, 377.638 104.912, 364.380 118.250 " stroke="none" fill="white" fill-rule="evenodd" transform="scale(0.05859375) translate(0 0)"></path>
    </g>
</svg>