<svg xmlns="http://www.w3.org/2000/svg" width="360" height="360" viewBox="0 0 360 360">
  <path fill="#FFF" d="M177.575257,244.458742 L191.083441,244.458742 C191.083441,244.458742 195.162831,244.008906 197.248792,241.763515 C199.165854,239.699848 199.104968,235.826858 199.104968,235.826858 C199.104968,235.826858 198.840439,217.691641 207.251708,215.02085 C215.546364,212.388952 226.195294,232.547912 237.48164,240.300087 C246.016746,246.164468 252.502697,244.881043 252.502697,244.881043 L282.684126,244.458742 C282.684126,244.458742 298.471595,243.484041 290.985318,231.064522 C290.372326,230.050241 286.623856,221.877485 268.544031,205.086268 C249.617644,187.512055 252.154922,190.355276 274.951208,159.955419 C288.833998,141.442299 294.383261,130.140313 292.649203,125.300194 C290.997014,120.688606 280.785296,121.906638 280.785296,121.906638 L246.803797,122.116928 C246.803797,122.116928 244.283031,121.773443 242.415848,122.89132 C240.589255,123.984761 239.417278,126.53922 239.417278,126.53922 C239.417278,126.53922 234.03657,140.864431 226.866421,153.048879 C211.734943,178.756268 205.683453,180.117132 203.209813,178.518444 C197.455187,174.797578 198.89307,163.57372 198.89307,155.597831 C198.89307,130.683419 202.670091,120.295904 191.538197,117.606528 C187.844765,116.714773 185.12414,116.124859 175.676771,116.02849 C163.551086,115.905276 153.290522,116.065661 147.479481,118.914045 C143.613366,120.808379 140.63062,125.02864 142.448268,125.271627 C144.69453,125.570714 149.779749,126.644881 152.476295,130.315497 C155.959548,135.056838 155.837775,145.701108 155.837775,145.701108 C155.837775,145.701108 157.839115,175.029208 151.164657,178.671257 C146.584761,181.16996 140.300732,176.068957 126.810092,152.745661 C119.898968,140.798693 114.679248,127.591704 114.679248,127.591704 C114.679248,127.591704 113.674106,125.123977 111.878817,123.803037 C109.701354,122.202628 106.658753,121.695315 106.658753,121.695315 L74.3662503,121.906294 C74.3662503,121.906294 69.5194166,122.041898 67.738575,124.150652 C66.1541523,126.028122 67.6119863,129.906963 67.6119863,129.906963 C67.6119863,129.906963 92.8918876,189.08493 121.519166,218.907608 C147.770842,246.253609 177.575257,244.458742 177.575257,244.458742"/>
</svg>
