<svg width="60" height="60" viewBox="0 0 60 60" xmlns="http://www.w3.org/2000/svg">
    <rect fill="transparent" x="0" y="0" width="60" height="60" rx="4.8"></rect>

    <g width="30" height="30" viewBox="0 0 30 30" transform="translate(15, 15)" fill="#FFFFFF">
        <path d="M 185.028 93.073 C 170.047 95.740, 152.688 103.331, 142.396 111.715 L 136.970 116.135 137.235 209.177 L 137.500 302.220 140.962 305.110 L 144.424 308 200 308 L 255.576 308 259.038 305.110 L 262.500 302.220 262.765 209.177 L 263.030 116.135 257.404 111.552 C 250.187 105.673, 233.754 97.623, 223.500 94.944 C 214.258 92.529, 193.699 91.530, 185.028 93.073 M 155 164 L 155 182 173 182 L 191 182 191 164 L 191 146 173 146 L 155 146 155 164 M 209 164 L 209 182 227 182 L 245 182 245 164 L 245 146 227 146 L 209 146 209 164 M 155 218 L 155 236 173 236 L 191 236 191 218 L 191 200 173 200 L 155 200 155 218 M 209 218 L 209 236 227 236 L 245 236 245 218 L 245 200 227 200 L 209 200 209 218 M 155 272 L 155 290 173 290 L 191 290 191 272 L 191 254 173 254 L 155 254 155 272 M 209 272 L 209 290 227 290 L 245 290 245 272 L 245 254 227 254 L 209 254 209 272 " stroke="none" fill="white" fill-rule="evenodd" transform="scale(0.075) translate(0 0)"></path>
    </g>
</svg>