<svg width="60" height="60" viewBox="0 0 60 60" xmlns="http://www.w3.org/2000/svg">
    <rect fill="transparent" x="0" y="0" width="60" height="60" rx="4.8"></rect>

    <g width="30" height="30" viewBox="0 0 30 30" transform="translate(15, 15)" fill="#FFFFFF">
        <path d="M 166.660 61.132 C 114.803 67.795, 67.930 104.184, 49.083 152.411 C 41.165 172.674, 38.592 186.517, 38.660 208.500 C 38.731 231.288, 43.054 250.616, 52.529 270.502 C 72.625 312.681, 109.674 341.755, 156.662 352.221 C 169.938 355.178, 200.935 355.420, 214 352.669 C 243.241 346.511, 267.187 334.095, 288.013 314.293 C 310.412 292.994, 323.330 270.414, 331.086 239 C 333.163 230.589, 333.436 227.093, 333.466 208.500 C 333.501 187.070, 332.726 180.543, 328.433 166.086 L 326.826 160.675 256.009 231.541 C 217.059 270.517, 184.361 302.734, 183.346 303.133 C 176.967 305.644, 178.597 307.028, 125.813 254.273 C 91.683 220.162, 75.871 203.690, 75.461 201.820 C 75.108 200.213, 75.512 197.723, 76.446 195.755 C 78.668 191.072, 116.926 153.308, 120.308 152.459 C 121.788 152.087, 124.027 152.041, 125.282 152.356 C 126.537 152.671, 139.191 164.440, 153.403 178.510 C 167.614 192.580, 179.387 203.958, 179.565 203.796 C 189.515 194.688, 284.919 98.255, 284.684 97.543 C 284.073 95.698, 266.957 83.352, 258.600 78.730 C 231.169 63.555, 197.683 57.146, 166.660 61.132 " stroke="none" fill="white" fill-rule="evenodd" transform="scale(0.075) translate(0 0)"></path>
    </g>
</svg>