<svg width="60" height="60" viewBox="0 0 60 60" xmlns="http://www.w3.org/2000/svg">
    <rect fill="transparent" x="0" y="0" width="60" height="60" rx="4.8"></rect>

    <g width="30" height="30" viewBox="0 0 30 30" transform="translate(15, 15)" fill="#FFFFFF">
        <path d="M 114.250 98.220 C 111.522 99.536, 111.240 101.376, 113.895 100.533 C 115.031 100.173, 116.482 100.625, 117.521 101.664 C 118.938 103.081, 119.142 104.494, 118.644 109.448 C 118.309 112.776, 117.770 116.625, 117.446 118 C 116.942 120.140, 117.458 119.854, 121.027 116.011 C 126.815 109.779, 130.314 103.563, 129.492 100.973 C 128.326 97.300, 119.474 95.701, 114.250 98.220 M 179 105.118 C 172.735 107.604, 166.068 117.291, 162.612 128.932 C 160.743 135.228, 160.602 139.027, 162.044 144.219 C 164.589 153.382, 172.167 157.392, 181.432 154.478 C 186.446 152.900, 190.554 150.084, 212 133.519 C 220.633 126.850, 224.640 125.017, 228.832 125.819 C 232.012 126.427, 233.671 130.231, 232.182 133.500 C 231.230 135.590, 231.301 136, 232.617 136 C 235.076 136, 239.869 132.154, 241.612 128.783 C 244.543 123.116, 240.533 119, 232.084 119 C 223.914 119, 216.697 123.180, 201 137.001 C 188.657 147.870, 183.315 150.920, 179.594 149.225 C 176.808 147.955, 174.534 144.784, 173.644 140.925 C 173.094 138.541, 173.443 138.225, 178.338 136.683 C 184.378 134.778, 191.574 128.525, 194.276 122.830 C 196.240 118.692, 196.507 113.206, 194.915 109.712 C 192.693 104.836, 185.180 102.667, 179 105.118 M 178.717 110.250 C 176.325 112.046, 173.967 119.437, 173.292 127.250 C 172.750 133.538, 172.848 134, 174.720 134 C 175.826 134, 177.873 133.101, 179.271 132.002 C 184.137 128.174, 186.882 114.025, 183.429 110.571 C 181.531 108.673, 180.877 108.629, 178.717 110.250 M 83.999 116.884 C 82.073 117.934, 79.659 119.719, 78.634 120.852 C 76.780 122.901, 76.789 122.909, 80.366 122.328 C 89.248 120.887, 92.551 128.766, 91.729 149.433 C 90.971 168.482, 86.769 182.815, 81.647 183.823 C 78.584 184.425, 77.773 179.431, 78.504 164.444 C 79.311 147.876, 78.422 144.377, 72.722 141.672 C 68.743 139.784, 67.133 139.630, 65.064 140.939 C 63.852 141.706, 63.840 142.102, 64.983 143.479 C 66.881 145.766, 67.486 159.390, 66.054 167.612 C 63.356 183.102, 54.329 196.970, 52.620 188.250 C 51.165 180.830, 50.967 173.247, 51.879 159.951 C 53 143.613, 52.322 138.422, 48.392 133.269 C 45.022 128.851, 40.558 126.726, 34.526 126.670 C 24.107 126.574, 15.320 135.216, 15.076 145.800 C 14.913 152.889, 20.165 158.028, 25.500 156 C 28.656 154.800, 29.215 149, 26.174 149 C 23.092 149, 20 144.786, 20 140.586 C 20 132.565, 30.745 126.745, 35.947 131.947 C 39.480 135.480, 40.168 140.985, 39.431 159.833 C 38.941 172.378, 39.097 179.239, 39.972 183.500 C 42.100 193.872, 46.255 198.323, 52.081 196.474 C 55.356 195.435, 61.156 189.085, 63.900 183.534 L 66.301 178.678 68.706 183.411 C 73.102 192.061, 80.310 192.599, 87.339 184.801 C 92.637 178.923, 99.523 164.303, 102.585 152.429 C 106.760 136.238, 105.089 122.663, 98.299 117.614 C 94.634 114.888, 88.258 114.563, 83.999 116.884 M 144.491 116.841 C 139.395 119.187, 134.436 124.812, 132.876 130.018 C 131.162 135.741, 133.352 139.971, 140.349 144.446 C 146.074 148.109, 151 153.246, 151 155.554 C 151 156.324, 149.936 157.651, 148.635 158.504 C 144.447 161.247, 138 156.867, 138 151.277 C 138 146.196, 131.837 150.912, 130.496 157.020 C 129.712 160.588, 123.905 167.125, 123.241 165.186 C 122.993 164.464, 123.816 158.164, 125.069 151.186 C 127.615 137.003, 127.874 129.169, 125.839 127.879 C 123.751 126.556, 119.420 126.848, 115.020 128.609 C 110.517 130.410, 109.970 131.497, 113.148 132.329 C 115.151 132.852, 115.252 133.315, 114.641 139.157 C 114.281 142.603, 113.698 151.126, 113.345 158.097 C 112.726 170.328, 112.778 170.811, 114.831 171.910 C 118.095 173.656, 121.942 172.137, 126.731 167.209 L 131.084 162.730 133.491 164.992 C 141.429 172.449, 156.626 161.793, 156.430 148.908 C 156.347 143.389, 153.900 139.564, 147.807 135.425 C 140.018 130.135, 138.062 126.784, 140.628 123.121 C 143.408 119.152, 148.889 121.428, 148.968 126.583 C 149.011 129.410, 149.920 130.113, 152.054 128.971 C 159.149 125.174, 158.531 117.322, 151 115.576 C 149.535 115.237, 146.840 115.761, 144.491 116.841 M 286.464 133.326 C 282.317 134.930, 279.547 137.067, 278.112 139.771 C 276.182 143.408, 277.951 144.595, 280.513 141.381 C 282.320 139.116, 283.579 138.545, 286.778 138.545 C 294.329 138.545, 299.007 143.266, 301.092 152.993 C 302.592 159.989, 301.703 180.340, 299.540 188.500 C 297.966 194.442, 293.608 201.976, 291.307 202.735 C 289.326 203.388, 288.703 196.673, 289.351 181.652 C 290.055 165.341, 289.177 161.131, 284.748 159.578 C 282.553 158.808, 281.464 159.010, 279.367 160.575 C 276.754 162.526, 272.457 169.659, 270.001 176.121 L 268.718 179.500 267.925 174.635 C 266.547 166.170, 260.678 162.442, 256.299 167.250 C 253.173 170.682, 252.166 173.129, 249.939 182.695 C 246.836 196.025, 246.577 196.294, 245.991 186.793 C 245.305 175.650, 243.312 172.457, 237.128 172.586 C 231.238 172.708, 225.703 178, 231.465 178 C 236.451 178, 237.212 184.499, 234.031 199.916 C 232.076 209.392, 227.571 220.102, 225.250 220.794 C 224.300 221.077, 224 218.373, 224 209.538 C 224 198.494, 223.875 197.784, 221.521 195.430 C 218.987 192.896, 216.301 192.838, 211.667 195.218 C 209.956 196.096, 209.944 196.281, 211.490 197.989 C 213.035 199.697, 213.004 200.347, 211.026 207.660 C 208.549 216.818, 204.220 225.337, 201.808 225.800 C 200.731 226.006, 199.466 224.920, 198.330 222.812 C 195.829 218.174, 195.848 198.330, 198.359 192.537 C 200.516 187.559, 202.800 185, 205.088 185 C 207.101 185, 208.360 187.899, 207.416 190.359 C 206.257 193.378, 213.900 191.957, 217.345 188.512 C 223.581 182.276, 211.750 177.026, 202.311 181.841 C 196.557 184.777, 189.633 192.748, 186.926 199.551 C 184.907 204.625, 184.554 207.265, 184.529 217.500 C 184.499 229.803, 183.622 233.235, 179.224 238.250 C 177.253 240.499, 173.408 240.506, 172.547 238.262 C 171.029 234.305, 170.807 223.416, 171.993 211.072 L 173.256 197.934 177.586 195.397 C 182.893 192.287, 188 186.640, 188 183.884 C 188 181.839, 187.996 181.839, 184.750 183.797 C 182.963 184.875, 179.872 186.046, 177.882 186.399 L 174.263 187.041 173.574 181.848 C 173.195 178.991, 172.448 175.837, 171.913 174.837 C 169.846 170.976, 161.618 168.692, 158.005 170.976 C 156.712 171.793, 156.759 172.104, 158.354 173.270 C 160.198 174.618, 161.887 180.846, 161.942 186.500 C 161.967 189.074, 161.267 189.888, 157.005 192.239 C 152.196 194.891, 148.159 199.768, 146.536 204.885 L 145.780 207.270 149.140 204.773 C 152.513 202.267, 158.031 200, 160.761 200 C 161.868 200, 162.075 200.787, 161.613 203.250 C 161.278 205.037, 160.941 212.800, 160.864 220.500 C 160.756 231.340, 161.086 235.354, 162.326 238.286 C 164.175 242.656, 168.809 245.141, 173.453 244.254 C 177.019 243.572, 185.652 235.235, 186.567 231.589 C 187.253 228.854, 188.431 228.270, 189.563 230.102 C 189.938 230.708, 191.770 231.842, 193.635 232.621 C 196.584 233.853, 197.400 233.844, 199.894 232.555 C 203.806 230.532, 207.461 225.979, 209.538 220.539 C 211.603 215.132, 213 214.693, 213 219.453 C 213 227.796, 217.359 230.253, 224.102 225.711 C 227.989 223.094, 231.284 217.602, 234.512 208.365 L 236.756 201.943 237.189 207.934 C 237.474 211.872, 238.254 214.623, 239.466 215.963 C 241.264 217.950, 245.274 218.599, 248.381 217.407 C 249.768 216.875, 249.765 216.571, 248.347 214.407 C 246.989 212.334, 246.928 210.925, 247.908 204.250 C 249.266 194.999, 254.090 178.374, 255.500 178.086 C 257.141 177.751, 257.795 181.888, 257.900 193.282 C 258.034 207.711, 260.390 213.001, 266.684 213 C 268.323 212.999, 268.505 211.952, 268.546 202.250 C 268.598 190.229, 270.855 178.412, 274.126 173.033 C 276.153 169.700, 276.273 169.650, 277.706 171.542 C 278.921 173.147, 279.070 175.782, 278.533 186.166 C 277.817 200.013, 278.805 206.290, 281.968 207.983 C 286.770 210.553, 291.677 208.190, 297.108 200.693 L 300 196.700 300 204.801 C 300 213.980, 301.319 221.206, 304.171 227.654 C 306.426 232.751, 311.588 239, 313.545 239 C 315.688 239, 316.148 237.291, 314.460 235.603 C 311.291 232.434, 310.726 222.901, 312.606 204.300 C 313.120 199.216, 313.188 199.121, 315.663 200.062 C 322.304 202.587, 332.543 195.509, 337.871 184.713 C 345.512 169.226, 345.912 153.958, 338.814 148.696 C 336.371 146.885, 335.714 146.820, 331.562 147.983 C 326.482 149.405, 322.038 153.676, 317.365 161.625 L 314.500 166.500 313.834 159.760 C 313.066 151.993, 310.599 143.906, 307.590 139.296 C 303.395 132.867, 294.298 130.297, 286.464 133.326 M 264.584 142.908 C 261.535 146.276, 253.666 148.859, 241.431 150.506 C 223.444 152.927, 215.181 154.947, 207.867 158.711 C 201.199 162.143, 195.943 167.389, 193.967 172.586 C 192.693 175.938, 193.429 176.935, 195.005 173.991 C 196.909 170.433, 205.583 167.255, 221 164.467 C 247.271 159.716, 253.402 157.446, 262.209 149.208 C 267.881 143.902, 269.819 141, 267.690 141 C 266.931 141, 265.533 141.858, 264.584 142.908 M 324.204 158.570 C 319.348 161.971, 314.574 174.994, 313.447 187.912 C 312.646 197.095, 313.521 198.333, 318.858 195.573 C 325.940 191.911, 331 180.536, 331 168.278 C 331 157.679, 329.182 155.083, 324.204 158.570 M 130.479 178.801 C 123.508 181.212, 119.772 184.122, 115.897 190.160 C 113.220 194.333, 112.571 196.357, 112.571 200.546 C 112.571 207.588, 115.748 211.612, 125.432 216.835 C 134.303 221.620, 143.236 228.185, 145.428 231.531 C 150.582 239.397, 142.235 251, 131.421 251 C 121.688 251, 115.633 243.188, 119.340 235.413 C 121.250 231.409, 126.632 228.450, 128.774 230.228 C 129.475 230.809, 130.342 230.991, 130.701 230.632 C 131.060 230.273, 130.487 229.300, 129.427 228.469 C 126.783 226.397, 120.792 227.373, 114.500 230.901 C 108.011 234.539, 105 238.937, 105 244.780 C 105 248.598, 105.513 249.748, 108.454 252.521 C 116.620 260.223, 133.102 259.262, 144.711 250.407 C 148.942 247.180, 153.761 238.776, 154.604 233.155 C 155.332 228.302, 153.729 221.556, 151.151 218.619 C 150.243 217.585, 144.100 213.152, 137.500 208.769 C 130.900 204.386, 124.490 199.608, 123.255 198.150 C 118.743 192.823, 121.464 185.793, 129.307 182.516 C 133.668 180.694, 136.551 181.501, 137.976 184.941 C 139.472 188.555, 138.387 192.551, 135.235 195.030 C 133.838 196.129, 132.956 197.290, 133.276 197.609 C 134.550 198.883, 140.225 196.654, 143.449 193.613 C 149.464 187.940, 149.486 180.937, 143.497 178.434 C 139.096 176.595, 136.660 176.664, 130.479 178.801 M 278.492 225.631 C 270.878 231.327, 264.028 233.396, 240.500 237.106 C 205.586 242.611, 198.699 244.662, 186 253.341 C 176.914 259.551, 169 268.214, 169 271.950 C 169 273.839, 171.601 273.053, 174.076 270.417 C 182.784 261.140, 195.911 256.205, 229.779 249.473 C 242.276 246.990, 255.281 244.041, 258.680 242.921 C 270.461 239.037, 281.491 231.686, 285.245 225.217 C 288.028 220.419, 285.230 220.590, 278.492 225.631 " stroke="none" fill="white" fill-rule="evenodd" transform="scale(0.08310249307479224) translate(0 0)"></path>
    </g>
</svg>