<svg width="60" height="60" viewBox="0 0 60 60" xmlns="http://www.w3.org/2000/svg">
    <rect fill="transparent" x="0" y="0" width="60" height="60" rx="4.8"></rect>

    <g width="30" height="30" viewBox="0 0 30 30" transform="translate(15, 15)" fill="#FFFFFF">
        <path d="M 126 14.993 C 76.875 25.649, 40.549 64.129, 32.535 114 C 27.931 142.646, 35.025 170.863, 52.777 194.524 C 74.150 223.008, 105.961 240.542, 141.750 243.562 L 150 244.258 150 265.736 C 150 285.779, 150.117 287.169, 151.750 286.547 C 156.229 284.839, 170.762 276.343, 181.096 269.391 C 243.393 227.483, 276.024 169.025, 267.556 114.500 C 259.725 64.080, 223.267 25.488, 173.500 14.939 C 161.300 12.353, 138.048 12.379, 126 14.993 M 134 62.551 C 130.425 63.317, 123.244 66.047, 118.043 68.618 C 101.494 76.798, 88.988 91.904, 83.369 110.500 C 82.036 114.909, 81.567 119.682, 81.599 128.500 C 81.638 138.918, 82.006 141.555, 84.395 148.500 C 88.064 159.165, 92.053 165.915, 99.210 173.566 C 108.765 183.780, 122.505 191.276, 136.743 194.044 C 145.608 195.767, 162.771 194.789, 171.250 192.078 C 174.963 190.891, 178 189.504, 178 188.997 C 178 187.705, 174.011 177.658, 173.143 176.765 C 172.750 176.360, 169.970 177.020, 166.965 178.231 C 162.410 180.067, 159.585 180.427, 150 180.398 C 140.051 180.368, 137.607 180.014, 131.877 177.774 C 123.098 174.342, 117.557 170.744, 111.500 164.541 C 91.722 144.286, 92.118 110.656, 112.373 90.459 C 133.456 69.436, 168.741 70.141, 189.358 91.996 C 200.042 103.322, 204.628 115.793, 203.755 131.147 C 203.208 140.757, 201.149 146.167, 196.840 149.314 C 192.967 152.142, 187.549 150.949, 184.956 146.696 C 183.169 143.765, 183.007 141.527, 183.004 119.750 L 183 96 175.500 96 L 168 96 168 99.493 L 168 102.987 163.544 99.585 C 157.914 95.288, 152.975 93.603, 146 93.601 C 133.447 93.598, 121.941 101.220, 116.405 113.209 C 113.837 118.770, 113.502 120.602, 113.518 129 C 113.534 137.273, 113.896 139.275, 116.325 144.500 C 125.591 164.431, 151.899 170.645, 166.754 156.412 L 171.257 152.096 173.095 154.298 C 174.106 155.509, 174.948 156.828, 174.967 157.230 C 174.985 157.631, 177.363 159.314, 180.250 160.970 C 190.262 166.712, 201.781 164.600, 209.733 155.566 C 216.017 148.427, 218.461 140.223, 218.393 126.500 C 218.300 107.917, 212.387 94.181, 198.582 80.478 C 189.362 71.326, 180.450 66.312, 167.532 63.008 C 158.249 60.634, 143.867 60.438, 134 62.551 M 139.500 110.610 C 134.811 113.174, 132.863 115.183, 130.881 119.500 C 128.686 124.280, 128.453 132.755, 130.390 137.390 C 133.445 144.703, 142.146 149.617, 150.323 148.648 C 160.681 147.421, 167.200 139.786, 167.200 128.881 C 167.200 121.755, 164.886 116.733, 159.694 112.594 C 156.447 110.005, 154.903 109.516, 149.194 109.264 C 144.421 109.054, 141.639 109.441, 139.500 110.610 " stroke="none" fill="white" fill-rule="evenodd" transform="scale(0.1) translate(0 0)"></path>
    </g>
</svg>