<svg width="60" height="60" viewBox="0 0 60 60" xmlns="http://www.w3.org/2000/svg">
    <rect fill="transparent" x="0" y="0" width="60" height="60" rx="4.8"></rect>

    <g width="30" height="30" viewBox="0 0 30 30" transform="translate(15, 15)" fill="#FFFFFF">
        <path d="M 49.995 175.109 C 53.995 189.981, 87.245 315.997, 88.592 321.388 L 90.312 328.275 98.547 327.694 C 113.584 326.633, 121.752 320.325, 126.415 306.174 C 127.806 301.953, 133.460 280.275, 138.979 258 C 144.498 235.725, 149.501 216.295, 150.098 214.822 C 151.567 211.196, 154.081 210.381, 156.101 212.876 C 156.991 213.975, 162.722 234.884, 168.837 259.341 C 174.952 283.797, 180.857 306.213, 181.958 309.153 C 186.320 320.804, 194.652 326.573, 208.680 327.655 L 216.777 328.279 218.316 322.890 C 219.163 319.925, 223.234 304.675, 227.363 289 C 231.492 273.325, 240.075 240.821, 246.435 216.768 C 252.796 192.716, 258 172.804, 258 172.518 C 258 171.380, 248.042 172.095, 242.986 173.597 C 233.812 176.321, 228.676 180.802, 225.100 189.203 C 224.094 191.566, 218.597 211.837, 212.885 234.248 C 207.173 256.660, 202.256 274.997, 201.957 274.998 C 201.658 274.999, 197.236 258.913, 192.131 239.250 C 179.538 190.753, 176.401 184.333, 163.386 180.416 C 152.057 177.006, 139.885 179.915, 133.066 187.663 C 127.688 193.772, 126.327 197.751, 115.346 239.478 C 110.138 259.266, 105.746 275.588, 105.585 275.748 C 105.424 275.909, 102.947 266.919, 100.080 255.770 C 81.699 184.303, 81.533 183.796, 74.674 178.565 C 69.597 174.693, 64.288 172.868, 56.355 172.268 L 49.083 171.718 49.995 175.109 M 309.691 172.691 C 309.372 173.208, 320.560 190.669, 334.555 211.494 C 348.550 232.318, 360 249.761, 360 250.256 C 360 250.751, 348.525 268.212, 334.500 289.058 C 320.475 309.904, 309 327.253, 309 327.611 C 309 328.929, 329.589 327.176, 334.500 325.441 C 341.700 322.896, 349.335 314.611, 363.436 294.040 C 376.752 274.614, 378.282 272.787, 380.514 273.644 C 381.371 273.973, 387.569 282.155, 394.287 291.826 C 407.106 310.282, 416.271 321.054, 421.426 323.721 C 426.678 326.438, 434.180 327.976, 442.250 327.988 C 446.512 327.995, 450 327.687, 450 327.304 C 450 326.922, 439.313 310.738, 426.250 291.340 C 413.188 271.942, 401.681 254.722, 400.680 253.073 L 398.860 250.076 424.430 211.929 C 438.494 190.949, 450 173.382, 450 172.891 C 450 171.029, 433.252 171.931, 426.468 174.158 C 420.795 176.020, 419.046 177.233, 413.697 183.014 C 410.289 186.699, 401.699 198.103, 394.608 208.357 C 386.097 220.664, 381.115 227, 379.947 227 C 377.690 227, 376.009 224.905, 361.802 204.391 C 342.368 176.330, 338.095 173.010, 320.386 172.208 C 314.608 171.946, 310.023 172.153, 309.691 172.691 M 293 200.514 C 291.625 201.986, 286.430 205.147, 281.456 207.538 C 267.061 214.460, 268.544 207.209, 268.225 272.241 L 267.951 328.272 274.853 327.778 C 287.656 326.862, 294.338 321.009, 295.473 309.715 C 295.817 306.297, 295.964 279.726, 295.799 250.669 L 295.500 197.838 293 200.514 " stroke="none" fill="white" fill-rule="evenodd" transform="scale(0.06) translate(0 0)"></path>
    </g>
</svg>