<svg width="60" height="60" viewBox="0 0 60 60" xmlns="http://www.w3.org/2000/svg">
    <rect fill="transparent" x="0" y="0" width="60" height="60" rx="4.8"></rect>

    <g width="30" height="30" viewBox="0 0 30 30" transform="translate(15, 15)" fill="#FFFFFF">
        <path d="M 31.237 2.574 C 30.676 3.633, 23.632 16.827, 15.584 31.893 C 7.537 46.959, 1.116 59.450, 1.316 59.649 C 1.656 59.989, 24.927 49.314, 25.062 48.756 C 25.096 48.615, 26.623 38.825, 28.455 27 L 31.785 5.500 31.924 32 L 32.063 58.500 34.282 55.967 C 35.502 54.574, 37.175 52.409, 38 51.155 L 39.500 48.875 51.302 54.552 C 57.794 57.674, 63.259 60.065, 63.446 59.864 C 63.724 59.568, 55.605 44.140, 33.562 3.074 C 32.317 0.754, 32.214 0.732, 31.237 2.574 " stroke="none" fill="white" fill-rule="evenodd" transform="scale(0.4918032786885246) translate(-2 0)"></path>
    </g>
</svg>