<svg width="60" height="60" viewBox="0 0 60 60" xmlns="http://www.w3.org/2000/svg">
    <rect fill="transparent" x="0" y="0" width="60" height="60" rx="4.8"></rect>

    <g width="30" height="30" viewBox="0 0 30 30" transform="translate(15, 15)" fill="#FFFFFF">
        <path d="M 231.500 94.974 C 213.571 98.571, 194.966 106.561, 180 117.091 C 164.485 128.007, 146.718 148.788, 140.872 162.854 L 138.732 168.002 123.616 175.436 C 106.407 183.898, 98.422 189.584, 87.626 201.059 C 70.910 218.828, 59.089 242.132, 53.415 268.500 C 50.817 280.571, 51.029 304.420, 53.853 317.712 C 64.666 368.613, 100.866 404.920, 153.500 417.654 C 159.748 419.166, 170.177 419.388, 250.598 419.718 C 349.824 420.126, 351.489 420.048, 370.073 414.077 C 396.590 405.558, 422.031 386.248, 438.106 362.440 C 470.584 314.338, 466.670 254.832, 427.910 207.390 C 412.743 188.828, 389.153 172.310, 373.750 169.469 C 371.614 169.075, 370 168.197, 370 167.430 C 370 164.946, 361.452 149.437, 356.500 142.933 C 337.847 118.440, 307.210 99.883, 276.615 94.548 C 264.522 92.439, 243.129 92.641, 231.500 94.974 M 239.835 121.474 C 206.660 126.908, 176.928 148.126, 162.731 176.500 C 160.805 180.350, 158.656 185.412, 157.956 187.750 C 157.075 190.693, 156.133 192, 154.893 192 C 153.909 192, 149.593 193.114, 145.302 194.475 C 114.435 204.267, 87.393 237.703, 80.428 274.688 C 78.271 286.144, 78.949 304.951, 81.953 316.956 C 91.471 355.004, 123.317 384.258, 162.500 390.949 C 167.678 391.834, 193.059 392.060, 260 391.819 L 350.500 391.494 359.288 388.740 C 395.333 377.447, 422.792 347.104, 431.097 309.388 C 431.814 306.134, 432.354 297.909, 432.305 291 C 432.233 280.967, 431.701 276.527, 429.611 268.500 C 426.931 258.206, 420.749 244.198, 414.751 234.829 C 401.999 214.909, 379.797 198.244, 359.355 193.247 L 352.211 191.500 350.484 186 C 341.368 156.967, 313.076 131.738, 280.313 123.427 C 268.025 120.310, 251.738 119.524, 239.835 121.474 M 245 147.980 C 222.432 150.924, 201.378 164.650, 189.383 184.239 C 185.487 190.601, 180.612 203.212, 179.534 209.720 C 178.883 213.644, 178.577 213.979, 175.167 214.489 C 157.761 217.094, 145.982 221.657, 134.310 230.315 C 122.083 239.386, 111.056 256.011, 106.852 271.713 C 103.980 282.442, 103.963 299.497, 106.814 310.136 C 113.939 336.726, 134.493 357.398, 161.501 365.133 C 169.486 367.420, 169.644 367.425, 249 367.778 C 302.373 368.016, 331.591 367.772, 337.907 367.038 C 356.986 364.820, 371.419 357.857, 384.500 344.560 C 400.620 328.175, 407.985 309.065, 406.682 287 C 405.956 274.692, 404.046 267.583, 398.455 256.386 C 386.849 233.139, 364.066 217.682, 336.750 214.521 C 331.550 213.920, 331 213.629, 331 211.480 C 331 210.173, 329.877 205.593, 328.505 201.302 C 317.099 165.631, 281.914 143.163, 245 147.980 " stroke="none" fill="white" fill-rule="evenodd" transform="scale(0.05859375) translate(0 0)"></path>
    </g>
</svg>