<svg width="60" height="60" viewBox="0 0 60 60" xmlns="http://www.w3.org/2000/svg">
    <rect fill="transparent" x="0" y="0" width="60" height="60" rx="4.8"></rect>

    <g width="30" height="30" viewBox="0 0 30 30" transform="translate(15, 15)" fill="#FFFFFF">
        <path d="M 235 86.513 C 197.436 91.682, 164.634 107.745, 137.178 134.416 C 69.340 200.313, 67.443 309.249, 132.947 377.353 C 171.665 417.606, 225.573 436.679, 280.338 429.500 C 375.033 417.087, 441.893 330.201, 429.500 235.662 C 418.164 149.183, 344.032 84.400, 257.216 85.103 C 250.222 85.160, 240.225 85.794, 235 86.513 M 239 102.018 C 185.249 109.493, 141.006 141.026, 116.997 188.972 C 111.655 199.639, 105.788 217.515, 103.365 230.500 C 100.772 244.403, 100.772 271.597, 103.365 285.500 C 117.881 363.313, 186.720 418.342, 264.929 414.652 C 302.018 412.901, 335.847 399.090, 362.525 374.805 C 388.833 350.856, 404.554 323.351, 412.140 288 C 414.006 279.303, 414.399 274.324, 414.429 259 C 414.483 231.276, 410.420 212.963, 399.010 189.500 C 377.434 145.131, 336.821 113.770, 288.151 103.893 C 277.040 101.638, 249.334 100.581, 239 102.018 M 339.005 206.750 C 320.648 226.412, 305.210 242.500, 304.698 242.500 C 304.187 242.500, 296.508 229.876, 287.634 214.446 C 278.760 199.016, 271.132 186.279, 270.682 186.140 C 270.232 186.002, 265.282 191.471, 259.682 198.293 C 227.334 237.698, 218.721 247.995, 218.143 247.952 C 217.789 247.926, 211.657 238.926, 204.515 227.952 C 197.374 216.979, 191.299 208.012, 191.015 208.026 C 190.732 208.040, 188.925 210.385, 187 213.238 C 185.075 216.090, 178.523 225.641, 172.439 234.462 C 166.355 243.283, 152.893 262.849, 142.522 277.941 L 123.666 305.383 125.418 310.441 C 130.523 325.182, 144.555 345.558, 159.326 359.679 C 179.113 378.596, 202.285 390.697, 230.242 396.713 C 241.922 399.226, 273.013 399.230, 285 396.720 C 343.972 384.369, 387.988 339.460, 398.690 280.724 C 400.995 268.074, 400.971 243.551, 398.643 231.500 C 394.884 212.048, 387.415 193.151, 377.596 178.250 C 374.969 174.262, 372.721 171, 372.600 171 C 372.479 171, 357.362 187.088, 339.005 206.750 " stroke="none" fill="white" fill-rule="evenodd" transform="scale(0.05859375) translate(0 0)"></path>
    </g>
</svg>