<svg width="60" height="60" viewBox="0 0 60 60" xmlns="http://www.w3.org/2000/svg">
    <rect fill="transparent" x="0" y="0" width="60" height="60" rx="4.8"></rect>

    <g width="30" height="30" viewBox="0 0 30 30" transform="translate(15, 15)" fill="#FFFFFF">
        <path d="M 47.180 87.682 C 45.353 88.582, 42.653 90.899, 41.180 92.831 L 38.500 96.344 38.500 121 L 38.500 145.656 41.194 149.187 C 46.818 156.562, 33.316 156, 205 156 C 376.684 156, 363.182 156.562, 368.806 149.187 L 371.500 145.656 371.500 121 L 371.500 96.344 368.806 92.813 C 363.181 85.437, 376.708 85.997, 204.849 86.023 C 63.987 86.044, 50.210 86.189, 47.180 87.682 M 131.180 167.682 C 129.353 168.582, 126.653 170.899, 125.180 172.831 L 122.500 176.344 122.500 201 L 122.500 225.656 125.194 229.187 C 130.759 236.484, 122.112 236, 247 236 C 371.888 236, 363.241 236.484, 368.806 229.187 L 371.500 225.656 371.500 201 L 371.500 176.344 368.806 172.813 C 363.240 165.515, 371.912 165.997, 246.849 166.023 C 144.875 166.043, 134.193 166.197, 131.180 167.682 M 215.450 247.396 C 211.434 249.159, 207.228 254.262, 206.480 258.279 C 206.150 260.051, 206.019 271.481, 206.190 283.680 C 206.530 308.025, 206.618 308.385, 213.385 313.438 C 216.115 315.476, 216.978 315.500, 289 315.500 C 361.022 315.500, 361.885 315.476, 364.615 313.438 C 366.134 312.304, 368.304 310.134, 369.438 308.615 C 371.391 305.999, 371.500 304.542, 371.500 281 C 371.500 257.458, 371.391 256.001, 369.438 253.385 C 368.304 251.866, 366.134 249.696, 364.615 248.562 C 361.894 246.529, 360.836 246.497, 290.177 246.279 C 232.115 246.100, 217.921 246.312, 215.450 247.396 " stroke="none" fill="white" fill-rule="evenodd" transform="scale(0.075) translate(0 0)"></path>
    </g>
</svg>