<svg width="60" height="60" viewBox="0 0 60 60" xmlns="http://www.w3.org/2000/svg">
    <rect fill="transparent" x="0" y="0" width="60" height="60" rx="4.8"></rect>

    <g width="30" height="30" viewBox="0 0 30 30" transform="translate(15, 15)" fill="#FFFFFF">
        <path d="M 141.960 1.943 C 120.580 6.455, 100.450 20.840, 89.632 39.339 L 85.794 45.901 81.647 44.201 C 75.406 41.641, 62.838 41.981, 56.864 44.871 C 45.234 50.496, 38.920 59.667, 38.208 71.968 C 37.815 78.756, 38.438 83.219, 40.472 88.182 C 41.016 89.509, 39.826 90.527, 34.831 93.003 C 21.647 99.540, 11.990 109.141, 5.909 121.754 C -6.229 146.933, 1.376 178.935, 23.474 195.665 C 34.490 204.005, 44.764 207.647, 60.113 208.653 L 70 209.301 70.004 227.900 C 70.008 249.038, 70.790 251.761, 77.684 254.641 C 85.182 257.774, 86.324 257.009, 111.500 231.980 L 134.500 209.115 174.500 208.760 C 212.594 208.422, 214.817 208.300, 221.150 206.194 C 233.857 201.967, 244.949 192.568, 250.422 181.390 C 254.408 173.250, 255.901 165.892, 256.351 152.163 C 256.580 145.199, 256.482 142.200, 256.133 145.500 L 255.500 151.500 254.764 147.413 C 253.053 137.909, 243.508 123.595, 234.769 117.427 L 232.038 115.500 235.183 106.500 C 237.951 98.577, 238.382 95.879, 238.786 83.950 C 239.174 72.462, 238.922 69.115, 237.132 61.950 C 226.474 19.299, 184.656 -7.067, 141.960 1.943 M 70 90.982 L 70 99 74 99 L 78 99 78 128.500 L 78 158 74 158 L 70 158 70 166 L 70 174 88 174 L 106 174 106 166 L 106 158 102 158 L 98 158 98.062 128.750 L 98.125 99.500 107.564 133 C 112.756 151.425, 117.473 168.201, 118.048 170.280 L 119.093 174.061 131.218 173.780 L 143.342 173.500 153.131 138.500 C 158.515 119.250, 163.110 102.825, 163.344 102 C 163.577 101.175, 163.820 113.438, 163.884 129.250 L 164 158 160 158 L 156 158 156 166 L 156 174 176.542 174 L 197.084 174 196.792 166.250 L 196.500 158.500 192.250 158.193 L 188 157.885 188 146.603 C 188 140.398, 188.295 127.171, 188.656 117.211 L 189.312 99.102 192.906 98.801 L 196.500 98.500 196.792 90.750 L 197.084 83 173.150 83 L 149.216 83 142.618 110.250 C 138.989 125.238, 135.489 139.861, 134.839 142.746 C 134.190 145.631, 133.443 147.776, 133.180 147.513 C 132.916 147.250, 129.224 132.739, 124.975 115.267 L 117.249 83.500 93.625 83.232 L 70 82.964 70 90.982 M 0.349 148 C 0.349 152.675, 0.522 154.588, 0.732 152.250 C 0.943 149.912, 0.943 146.088, 0.732 143.750 C 0.522 141.412, 0.349 143.325, 0.349 148 " stroke="none" fill="white" fill-rule="evenodd" transform="scale(0.1171875) translate(0 0)"></path>
    </g>
</svg>