<svg xmlns="http://www.w3.org/2000/svg" width="360" height="360" viewBox="0 0 360 360">
  <path fill="#FFF" fill-rule="evenodd" d="M257.013867,193.374301 L237.019176,179.998717 L257.013867,166.623775 L257.013867,193.374301 Z M187.992425,250.070153 L187.992425,212.791277 L222.643263,189.617107 L250.614668,208.324199 L187.992425,250.070153 Z M180.000962,198.907168 L151.731368,179.998717 L180.000962,161.090267 L208.267991,179.998717 L180.000962,198.907168 Z M172.006933,250.070153 L109.38405,208.324199 L137.35802,189.617107 L172.006933,212.791277 L172.006933,250.070153 Z M102.985492,166.623775 L122.982107,179.998717 L102.985492,193.374301 L102.985492,166.623775 Z M172.006933,109.927282 L172.006933,147.206158 L137.35802,170.385458 L109.38405,151.672594 L172.006933,109.927282 Z M187.992425,109.927282 L250.614668,151.672594 L222.643263,170.385458 L187.992425,147.206158 L187.992425,109.927282 Z M272.928178,150.620914 C272.911505,150.503561 272.882007,150.391339 272.862769,150.273987 C272.82301,150.048261 272.781969,149.823175 272.722973,149.60322 C272.688344,149.471119 272.639608,149.344148 272.598567,149.217176 C272.53444,149.020948 272.470955,148.825361 272.392721,148.634904 C272.338213,148.502803 272.275369,148.370702 272.214448,148.24373 C272.130443,148.062251 272.04323,147.885902 271.942551,147.715325 C271.869447,147.587712 271.791213,147.46523 271.715543,147.343389 C271.60781,147.176659 271.497513,147.015059 271.376954,146.85859 C271.289742,146.741238 271.196759,146.623886 271.103775,146.511022 C270.976163,146.364813 270.844062,146.217962 270.704907,146.080731 C270.600381,145.973639 270.496495,145.865906 270.386839,145.767792 C270.239989,145.63569 270.08865,145.508078 269.934105,145.386237 C269.814829,145.293253 269.696836,145.200269 269.57243,145.112415 C269.525618,145.082917 269.484577,145.043799 269.440329,145.014301 L184.432755,88.3428168 C181.747772,86.5523944 178.251587,86.5523944 175.565963,88.3428168 L90.5590293,145.014301 C90.5147819,145.043799 90.4730996,145.082917 90.4269284,145.112415 C90.3018814,145.200269 90.1845296,145.293253 90.0671778,145.386237 C89.9107088,145.508078 89.7587286,145.63569 89.6150849,145.767792 C89.502222,145.865906 89.3996194,145.973639 89.2944517,146.080731 C89.1552968,146.217962 89.0231959,146.364813 88.8981489,146.511022 C88.8026002,146.623886 88.7096166,146.741238 88.6217631,146.85859 C88.5044113,147.015059 88.3915484,147.176659 88.2863807,147.343389 C88.2055811,147.46523 88.1299116,147.587712 88.0568073,147.715325 C87.9586935,147.885902 87.87084,148.062251 87.7849102,148.24373 C87.7239899,148.370702 87.6605045,148.502803 87.6066381,148.634904 C87.5284036,148.825361 87.4649182,149.020948 87.4007916,149.217176 C87.3591093,149.344148 87.3129381,149.471119 87.2763859,149.60322 C87.2173894,149.823175 87.1782721,150.048261 87.1365898,150.273987 C87.1173518,150.391339 87.0878535,150.503561 87.0731044,150.620914 C87.0262919,150.963351 87,151.310919 87,151.662975 L87,208.33446 C87,208.686516 87.0262919,209.034084 87.0731044,209.381651 C87.0878535,209.494515 87.1173518,209.611226 87.1365898,209.723448 C87.1782721,209.949174 87.2173894,210.173618 87.2763859,210.394215 C87.3129381,210.526316 87.3591093,210.653287 87.4007916,210.7809 C87.4649182,210.975846 87.5284036,211.172074 87.6066381,211.367661 C87.6605045,211.500403 87.7239899,211.627375 87.7849102,211.754346 C87.87084,211.934542 87.9586935,212.110891 88.0568073,212.28724 C88.1299116,212.410364 88.2055811,212.531564 88.2863807,212.654046 C88.3915484,212.820776 88.5044113,212.982375 88.6217631,213.138845 C88.7096166,213.261327 88.8026002,213.373549 88.8981489,213.485771 C89.0231959,213.632622 89.1552968,213.779473 89.2944517,213.916704 C89.3996194,214.023796 89.502222,214.131529 89.6150849,214.229002 C89.7587286,214.362386 89.9107088,214.489357 90.0671778,214.611198 C90.1845296,214.704823 90.3018814,214.797166 90.4269284,214.88502 C90.4730996,214.914518 90.5147819,214.953636 90.5590293,214.982493 L175.565963,271.654618 C176.908775,272.549829 178.454868,273 180.000962,273 C181.54449,273 183.089943,272.549829 184.432755,271.654618 L269.440329,214.982493 C269.484577,214.953636 269.525618,214.914518 269.57243,214.88502 C269.696836,214.797166 269.814829,214.704823 269.934105,214.611198 C270.08865,214.489357 270.239989,214.362386 270.386839,214.229002 C270.496495,214.131529 270.600381,214.023796 270.704907,213.916704 C270.844062,213.779473 270.976163,213.632622 271.103775,213.485771 C271.196759,213.373549 271.289742,213.261327 271.376954,213.138845 C271.497513,212.982375 271.60781,212.820776 271.715543,212.654046 C271.791213,212.531564 271.869447,212.410364 271.942551,212.28724 C272.04323,212.110891 272.130443,211.934542 272.214448,211.754346 C272.275369,211.627375 272.338213,211.500403 272.392721,211.367661 C272.470955,211.172074 272.53444,210.975846 272.598567,210.7809 C272.639608,210.653287 272.688344,210.526316 272.722973,210.394215 C272.781969,210.173618 272.82301,209.949174 272.862769,209.723448 C272.882007,209.611226 272.911505,209.494515 272.928178,209.381651 C272.972426,209.034084 273,208.686516 273,208.33446 L273,151.662975 C273,151.310919 272.972426,150.963351 272.928178,150.620914 Z"/>
</svg>
