<svg xmlns="http://www.w3.org/2000/svg" width="360" height="360" viewBox="0 0 360 360">
  <g fill="none" fill-rule="evenodd" transform="translate(120 72)">
    <path fill="#FFF" fill-opacity=".75" d="M76.9386829.637198054L76.8535883 48.1614013 76.7684937 95.6856045 72.8541405 84.6532002 72.8541405 84.624912 67.7768273 190.422841C72.7690459 204.453796 75.4353444 211.950173 75.4637093 211.978461 75.4920741 212.00675 78.328562 212.176479 81.7607122 212.346208 92.1422576 212.855396 105.019912 213.958637 114.805795 215.17503 117.074985 215.457912 119.003797 215.599353 119.145621 215.4862 119.287446 215.373047 119.315811 167.000198 119.287446 107.96269L119.202351.637198054 76.9386829.637198054zM.495336585.495756973L.495336585 107.934402C.495336585 167.028486.552066341 215.429624.637160976 215.514488.72225561 215.599353 4.38132488 215.231606 8.80624585 214.750707 13.2311668 214.269807 19.3296156 213.647466 22.3646576 213.392872 27.0164976 212.996837 40.9720176 212.119902 42.5604507 212.091614 43.0426537 212.091614 43.0710185 209.687116 43.1277483 166.575874L43.2128429 121.060134 46.5882634 130.564975C47.0988312 132.035962 47.2690205 132.488574 47.7795883 133.931273L52.8569015 28.1616324C51.7790361 25.1347933 52.3463337 26.7189334 51.1266439 23.267771 46.9853717 11.5847377 43.4681268 1.71215027 43.3263024 1.25953881L43.0426537.467468757.495336585.467468757.495336585.495756973z"/>
    <path d="M0.495336585,0.495756973 L0.495336585,60.8062339 L43.0993834,173.506487 C43.0993834,170.93226 43.0993834,169.517849 43.1277483,166.575874 L43.2128429,121.060134 L46.5882634,130.564975 C65.3090829,183.520516 75.3786146,211.921885 75.4353444,211.978461 C75.4637093,212.00675 78.3001971,212.176479 81.7323473,212.346208 C92.1138927,212.855396 104.991547,213.958637 114.77743,215.17503 C117.04662,215.457912 118.975432,215.599353 119.117257,215.4862 C119.202351,215.401336 119.259081,191.69581 119.259081,158.230851 L76.8819532,36.6480973 L76.8535883,48.1614013 L76.7684937,95.6856045 L72.8541405,84.6532002 C69.024882,73.8753898 66.4720429,66.6618947 51.0699141,23.267771 C46.928642,11.5847377 43.4113971,1.71215027 43.2695727,1.25953881 L42.9859239,0.467468757 L0.495336585,0.467468757 L0.495336585,0.495756973 Z"/>
    <path fill="#FFF" d="M0.495336585,0.495756973 L43.184478,121.144999 L43.184478,121.088423 L46.5598985,130.593263 C65.3090829,183.520516 75.3786146,211.921885 75.4353444,211.978461 C75.4637093,212.00675 78.3001971,212.176479 81.7323473,212.346208 C92.1138927,212.855396 104.991547,213.958637 114.77743,215.17503 C117.018256,215.457912 118.975432,215.599353 119.088892,215.4862 L76.7684937,95.6573163 L76.7684937,95.6856045 L72.8541405,84.6532002 C69.024882,73.8753898 66.4720429,66.6618947 51.0699141,23.267771 C46.928642,11.5847377 43.4113971,1.71215027 43.2695727,1.25953881 L42.9859239,0.467468757 L21.7406302,0.467468757 L0.495336585,0.495756973 Z"/>
  </g>
</svg>
