<svg xmlns="http://www.w3.org/2000/svg" width="60" height="60" viewBox="0 0 60 60">
  <path fill="#FFFFFF" d="M0,5.95392906 C0,2.66566484 2.66559414,0 5.95392906,0 L24.0460709,0 C27.3343352,0 30,2.66559414 30,5.95392906 L30,24.0460709 C30,27.3343352 27.3344059,30 24.0460709,30 L5.95392906,30 C2.66566484,30 0,27.3344059 0,24.0460709 L0,5.95392906 Z M2.64957265,6.05171551 L2.64957265,23.9482845 C2.64957265,25.8285638 4.17276389,27.3504273 6.05171551,27.3504273 L23.9482845,27.3504273 C25.8285638,27.3504273 27.3504273,25.8272361 27.3504273,23.9482845 L27.3504273,6.05171551 C27.3504273,4.1714362 25.8272361,2.64957265 23.9482845,2.64957265 L6.05171551,2.64957265 C4.1714362,2.64957265 2.64957265,4.17276389 2.64957265,6.05171551 Z M21.4529915,4.44444446 L23.8547389,4.44444446 C24.794074,4.44444446 25.5555555,5.20827203 25.5555555,6.14526109 L25.5555555,23.8547389 C25.5555555,24.794074 24.791728,25.5555555 23.8547389,25.5555555 L6.14526109,25.5555555 C5.205926,25.5555555 4.44444446,24.791728 4.44444446,23.8547389 L4.44444446,21.4529915 C13.8380056,21.4529915 21.4529915,13.8380056 21.4529915,4.44444446 Z" transform="translate(15 15)"/>
</svg>
