<svg width="60" height="60" viewBox="0 0 60 60" xmlns="http://www.w3.org/2000/svg">
    <rect fill="transparent" x="0" y="0" width="60" height="60" rx="4.8"></rect>

    <g width="30" height="30" viewBox="0 0 30 30" transform="translate(15, 15)" fill="#FFFFFF">
        <path d="M 427.455 133.455 C 426.105 134.805, 425 136.492, 424.999 137.205 C 424.999 137.917, 430.224 167.300, 436.610 202.500 C 449.152 271.626, 448.982 271, 455.174 271 C 458.521 271, 462 267.870, 462 264.857 C 462 263.679, 456.820 234.091, 450.488 199.107 C 439.652 139.235, 438.826 135.368, 436.432 133.250 C 433.146 130.343, 430.506 130.403, 427.455 133.455 M 558.284 136.250 C 556.608 138.078, 555.261 144.133, 551.113 168.500 C 548.304 185, 543.342 213.982, 540.086 232.904 C 533.806 269.400, 533.739 271.013, 538.406 273.139 C 542.167 274.853, 545.929 273.427, 547.441 269.714 C 548.722 266.572, 570 144.345, 570 140.132 C 570 134.649, 562.142 132.045, 558.284 136.250 M 316.315 203.016 C 313.873 203.990, 311.981 206.937, 312.036 209.684 C 312.056 210.683, 322.069 228.150, 334.286 248.500 C 358.557 288.927, 359.081 289.560, 364.752 285.345 C 370.397 281.149, 370.037 280.273, 346.605 241.198 C 334.771 221.464, 324.506 204.852, 323.794 204.282 C 321.693 202.598, 318.654 202.084, 316.315 203.016 M 669.455 211.139 C 667.741 211.963, 625.312 281.151, 623.499 286.078 C 622.588 288.552, 624.714 292.912, 627.435 294.152 C 633.085 296.727, 634.122 295.420, 657.307 256.515 C 672.217 231.495, 679 219.206, 679 217.212 C 679 212.540, 673.636 209.127, 669.455 211.139 M 232.629 302.250 C 230.801 303.906, 227.078 313.078, 218.522 337 C 212.129 354.875, 191.171 412.933, 171.949 466.017 C 152.727 519.102, 137 563.461, 137 564.593 C 137 569.698, 139.312 570.398, 181.500 578.075 C 206.026 582.538, 222.513 585.097, 224.118 584.691 C 225.806 584.264, 228.746 581.358, 232.392 576.514 C 235.503 572.381, 238.386 569, 238.801 569 C 239.415 569, 278.407 581.836, 282.758 583.471 C 283.651 583.806, 283.168 585.330, 281.094 588.722 C 271.700 604.085, 273.764 621.186, 286.407 632.741 C 294.261 639.919, 302.903 641.753, 313.591 638.511 C 316.291 637.692, 318.613 637.017, 318.750 637.011 C 318.887 637.005, 319 638.705, 319 640.790 C 319 650.060, 324.326 663.144, 331.086 670.477 C 336.882 676.765, 343.603 679.364, 352.460 678.741 C 356.460 678.459, 361.612 677.318, 364.392 676.098 C 367.082 674.916, 369.407 674.074, 369.558 674.225 C 369.710 674.376, 370.286 678.552, 370.839 683.504 C 372.124 695.020, 374.961 702.582, 379.744 707.242 C 387.916 715.205, 398.760 716.431, 412.876 710.988 C 417.324 709.272, 421.223 707.448, 421.541 706.934 C 422.907 704.724, 423.750 706.419, 424.320 712.526 C 424.983 719.621, 427.824 727.090, 431.299 730.869 C 439.185 739.448, 455.870 738.870, 471.467 729.478 L 477.110 726.079 491.305 736.850 C 507.049 748.797, 514.325 752.721, 523.710 754.329 C 537.756 756.735, 548.827 749.554, 557.500 732.412 L 560.172 727.132 566.336 730.484 C 581.540 738.751, 592.486 738.996, 604.084 731.329 C 610.739 726.929, 618.754 713.464, 622.549 700.308 C 622.776 699.519, 624.686 700.105, 628.196 702.040 C 644.984 711.295, 664.971 709.522, 675.524 697.842 C 681.763 690.936, 683.420 686.013, 683.463 674.252 C 683.483 668.616, 683.690 664.004, 683.922 664.002 C 684.153 664.001, 687.303 665.216, 690.922 666.702 C 703.777 671.981, 720.046 669.789, 729.769 661.466 C 738.540 653.958, 742.087 638.483, 738.701 622.500 C 737.885 618.650, 737.406 615.186, 737.636 614.801 C 738.099 614.028, 780.679 578.929, 782.553 577.776 C 783.283 577.327, 785.518 579.283, 788.444 582.930 C 791.037 586.163, 794.135 589.077, 795.329 589.405 C 798.090 590.165, 874.646 564.354, 877.197 561.803 C 878.189 560.811, 879 558.953, 879 557.673 C 879 556.394, 860.727 516.231, 838.393 468.423 C 816.060 420.616, 796.230 377.900, 794.327 373.500 C 792.424 369.100, 785.641 354.316, 779.252 340.646 C 766.941 314.301, 765.710 312.595, 760.445 314.571 C 757.004 315.863, 694.233 364.696, 692.963 367.070 C 692.094 368.693, 690.822 369, 684.965 369 C 680.988 369, 678 369.429, 678 370 C 678 370.622, 672.333 371, 663 371 C 653.667 371, 648 370.622, 648 370 C 648 369.450, 645.638 368.992, 642.750 368.982 C 634.523 368.954, 619.669 366.387, 610.972 363.491 C 605.872 361.792, 598.469 357.961, 590.267 352.776 C 565.641 337.207, 555.222 333.613, 535 333.711 C 525.395 333.758, 518.687 334.493, 506.038 336.886 C 496.984 338.599, 487.737 340, 485.488 340 C 483.240 340, 480.972 340.408, 480.450 340.907 C 478.562 342.711, 455.132 345.909, 416 349.705 C 401.672 351.095, 388.592 351.495, 358 351.478 C 336.275 351.466, 317.262 351.119, 315.750 350.709 C 313.575 350.118, 313 349.371, 313 347.136 C 313 345.582, 312.212 343.601, 311.250 342.735 C 308.092 339.893, 238.647 300, 236.857 300 C 235.897 300, 233.994 301.012, 232.629 302.250 M 231.121 344.263 C 225.963 358.694, 206.454 412.716, 187.768 464.314 C 169.082 515.911, 153.953 558.257, 154.147 558.415 C 154.683 558.853, 216.281 570.014, 218 569.984 C 219.712 569.956, 225.682 562.135, 236.905 545.220 C 252.515 521.694, 264.486 499.104, 272.260 478.500 C 281.676 453.547, 292.186 404.569, 297.125 362.635 C 298.351 352.224, 298.323 351.710, 296.452 350.340 C 294.131 348.641, 241.455 317.994, 240.890 318.013 C 240.676 318.021, 236.280 329.833, 231.121 344.263 M 736.500 350.120 C 724.400 359.506, 712.761 368.907, 710.635 371.011 L 706.770 374.837 708.910 388.168 C 711.970 407.236, 717.408 430.893, 722.117 445.623 C 730.630 472.251, 739.165 488.998, 760.630 521.189 C 773.274 540.150, 798.524 574, 800.024 574 C 800.424 574, 814.419 569.313, 831.125 563.584 C 852.166 556.368, 861.411 552.757, 861.209 551.834 C 861.049 551.100, 842.098 510, 819.096 460.500 C 796.094 411, 773.464 362.201, 768.807 352.057 C 764.151 341.913, 759.927 333.488, 759.420 333.334 C 758.914 333.180, 748.600 340.734, 736.500 350.120 M 526.500 348.008 C 522.650 348.442, 511.850 350.238, 502.500 352.001 L 485.500 355.205 480.024 359.852 C 469.521 368.768, 439.062 399.264, 435.510 404.421 C 431.237 410.625, 427.739 420.533, 424.943 434.350 C 423.197 442.980, 422.195 445.540, 418.250 451.446 C 415.698 455.266, 412.036 462.016, 410.112 466.446 C 407.152 473.260, 406.604 475.681, 406.557 482.169 C 406.491 491.097, 407.720 493.387, 415.430 498.700 C 421.158 502.648, 427.813 503.157, 433.790 500.106 C 438.041 497.936, 461.109 481.156, 465.291 477.193 C 471.609 471.204, 474.916 464.091, 482.077 441.081 C 484.870 432.105, 485.955 430.007, 489.910 425.929 C 497.257 418.353, 509.236 416.081, 523.769 419.508 C 536.480 422.504, 536.784 422.750, 585.011 468.911 C 596.841 480.235, 609.216 491.927, 612.511 494.894 C 615.805 497.860, 642.531 523.735, 671.903 552.394 C 701.274 581.052, 725.734 604.500, 726.259 604.500 C 727.536 604.500, 773.871 566.737, 773.943 565.638 C 773.975 565.164, 770.386 559.881, 765.970 553.899 C 749.664 531.812, 732.308 504.605, 723.933 488 C 710.776 461.917, 700.446 426.962, 694.521 388.479 L 693.902 384.458 666.201 384.479 C 637.259 384.501, 627.465 383.642, 612.500 379.770 C 604.341 377.659, 593.024 372.881, 590.716 370.573 C 588.462 368.319, 571.722 357.819, 565 354.442 C 553.601 348.717, 540.160 346.471, 526.500 348.008 M 448.917 360.400 C 448.688 360.620, 437.700 361.858, 424.500 363.150 C 403.277 365.228, 395.330 365.498, 355.821 365.482 L 311.143 365.463 310.485 371.482 C 308.192 392.484, 299.205 437.965, 292.549 462.250 C 285.142 489.276, 269.039 523.208, 250.750 550.327 C 248.589 553.532, 246.974 556.289, 247.160 556.453 C 247.347 556.618, 257.400 560, 269.500 563.968 C 281.600 567.937, 292.115 571.774, 292.868 572.495 C 294.002 573.583, 295.007 573.317, 298.763 570.936 C 311.863 562.628, 329.112 562.509, 339.789 570.653 C 343.729 573.658, 347.976 581.994, 347.990 586.750 C 348.002 590.557, 347.982 590.551, 352.790 588.136 C 358.666 585.183, 366.506 583.708, 372.404 584.445 C 379.748 585.362, 388.767 589.874, 393.295 594.896 C 397.534 599.598, 398.623 601.960, 400.326 610.146 L 401.500 615.792 407.873 611.931 C 428.461 599.459, 448.885 603.833, 458.174 622.701 C 460.923 628.287, 461.427 630.424, 461.461 636.648 C 461.482 640.691, 461.725 643.985, 462 643.967 C 462.275 643.949, 464.975 643.064, 468 642 C 475.610 639.323, 483.277 639.449, 489.500 642.353 C 495.039 644.938, 501.433 651.399, 503.612 656.614 C 504.455 658.632, 506.207 660.511, 507.936 661.253 C 509.535 661.939, 523.591 674.163, 539.171 688.418 C 554.752 702.673, 569.525 715.628, 572 717.208 C 574.475 718.788, 578.929 720.789, 581.898 721.654 C 591.609 724.486, 597.199 720.929, 603.357 708 C 604.536 705.525, 605.859 703.235, 606.298 702.911 C 607.289 702.180, 609.972 692.283, 609.988 689.297 C 609.995 688.046, 608.880 686.316, 607.411 685.297 C 604.271 683.118, 499.252 587.597, 493.250 581.461 C 490.668 578.822, 489 576.186, 489 574.747 C 489 571.230, 492.501 567.997, 496.289 568.016 C 499.119 568.029, 505.082 573.147, 546.500 611.107 C 572.350 634.799, 598 658.063, 603.500 662.804 C 609 667.545, 617.325 674.980, 622 679.326 C 635.083 691.489, 646.213 695.880, 656.594 692.974 C 669.556 689.345, 672.876 677.232, 666.779 655.816 L 664.500 647.809 636 621.900 C 620.325 607.651, 596.475 586.031, 583 573.856 C 552.394 546.202, 547.260 541.354, 545.909 538.831 C 543.435 534.208, 548.374 528.124, 553.548 529.423 C 554.957 529.776, 566.775 539.867, 579.810 551.846 C 592.846 563.826, 604.246 574.048, 605.144 574.563 C 606.042 575.079, 616.614 584.529, 628.638 595.564 C 684.425 646.762, 687.256 649.225, 693.889 652.329 C 705.447 657.737, 718.020 655.529, 723.212 647.179 C 725.168 644.034, 725.492 642.194, 725.448 634.500 C 725.419 629.550, 724.969 624.825, 724.448 624 C 721.779 619.777, 544.392 448.856, 532.806 439.344 C 526.721 434.348, 520.919 432.500, 511.323 432.500 C 499.705 432.500, 499.385 432.911, 491.483 458 C 485.272 477.720, 480.284 484.294, 460.261 499.141 C 443.794 511.351, 437.904 514.716, 430.646 516.058 C 420.077 518.011, 407.533 512.957, 399.060 503.330 C 387.758 490.491, 390.120 468.808, 405.413 445 C 408.526 440.154, 410.046 436.338, 411.387 430 C 414.152 416.940, 418.627 403.909, 422.224 398.445 C 425.296 393.776, 445.466 371.913, 454.231 363.750 L 458.257 360 453.795 360 C 451.341 360, 449.146 360.180, 448.917 360.400 M 310.244 580.976 C 304.129 583.752, 299.510 587.537, 295.389 593.151 C 287.932 603.310, 287.671 612.751, 294.625 620.875 C 300.531 627.775, 307.489 627.539, 318.652 620.061 C 323.079 617.096, 325.267 614.728, 327.657 610.322 C 333.288 599.936, 335.306 589.961, 332.861 584.595 C 330.362 579.109, 318.528 577.216, 310.244 580.976 M 362.951 599.362 C 352.121 602.283, 343.006 611.411, 335.353 627 C 334.188 629.374, 333.613 633.080, 333.568 638.521 C 333.507 645.762, 333.840 647.220, 337 653.521 C 341.509 662.512, 345.478 665.418, 352.196 664.646 C 357.703 664.014, 361.591 662.191, 368.634 656.939 C 372.913 653.748, 374.523 651.561, 378.303 643.805 C 380.797 638.687, 383.583 631.906, 384.494 628.736 C 386.366 622.220, 386.695 611.816, 385.154 607.848 C 383.737 604.200, 378.346 600.318, 372.980 599.081 C 367.692 597.863, 368.605 597.837, 362.951 599.362 M 422.844 620.394 C 416.260 622.745, 409.741 627.190, 403.028 633.903 C 397.841 639.090, 395.412 642.617, 391.693 650.363 C 385.977 662.270, 385.056 665.957, 385.024 677.068 C 384.994 687.607, 387.049 695.104, 390.772 698.043 C 394.959 701.346, 402.854 700.429, 412.540 695.513 C 421.030 691.203, 424.799 687.257, 430.222 677 C 432.112 673.425, 435.743 667.459, 438.291 663.742 C 443.762 655.762, 447 646.116, 447 637.796 C 447 630.282, 444.864 625.638, 439.681 621.884 C 435.191 618.631, 429.250 618.105, 422.844 620.394 M 472.844 655.343 C 466.851 657.567, 460.132 661.893, 455.682 666.393 C 449.848 672.292, 440.495 688.339, 439.124 694.799 C 436.822 705.650, 438.155 717.155, 442.181 721.181 C 444.921 723.921, 451.333 723.312, 459.808 719.507 C 466.974 716.290, 471.247 711.935, 479.705 699.230 C 489.833 684.017, 494.256 669.241, 490.717 662.436 C 486.997 655.282, 480.236 652.599, 472.844 655.343 M 503.628 683.512 C 501.639 689.820, 496.717 699.445, 491.330 707.558 C 487.705 713.018, 487.688 713.093, 489.718 714.515 C 490.848 715.306, 492.047 716.976, 492.384 718.227 C 493.120 720.956, 510.198 733.959, 517.811 737.586 C 524.236 740.647, 531.683 741.093, 535.427 738.640 C 540.765 735.142, 548.991 719.365, 547.374 715.726 C 546.761 714.347, 507.705 678.735, 506.287 678.262 C 505.787 678.096, 504.590 680.458, 503.628 683.512 " stroke="none" fill="white" fill-rule="evenodd" transform="scale(0.03303964757709251) translate(-41 0)"></path>
    </g>
</svg>