<svg width="60" height="60" viewBox="0 0 60 60" xmlns="http://www.w3.org/2000/svg">
    <rect fill="transparent" x="0" y="0" width="60" height="60" rx="4.8"></rect>

    <g width="30" height="30" viewBox="0 0 30 30" transform="translate(15, 15)" fill="#FFFFFF">
        <path d="M 132.112 49.581 C 113.533 54.577, 97.983 71.029, 94.097 89.799 C 93.388 93.226, 93 112.494, 93 144.327 C 93 197.718, 93.028 198, 98.410 198 C 102.418 198, 124.427 191.872, 126.250 190.249 C 127.772 188.893, 128 186.705, 128 173.480 C 128 159.606, 128.182 158.038, 130.073 155.635 C 132.048 153.123, 132.583 153, 141.523 153 C 153.327 153, 159.609 151.704, 168.694 147.393 C 177.564 143.183, 187.166 134.020, 191.719 125.419 C 197.449 114.592, 198 110.589, 198 79.790 C 198 53.333, 197.904 51.904, 196 50 C 194.091 48.091, 192.714 48.003, 165.750 48.066 C 144.399 48.116, 136.184 48.485, 132.112 49.581 M 138.500 84.417 C 126.431 89.804, 124.578 105.577, 134.986 114.334 C 148.219 125.469, 168.369 109.785, 161.610 93.610 C 158.016 85.008, 146.997 80.625, 138.500 84.417 M 55.734 119.750 C 54.092 121.575, 48.004 142.830, 48.002 146.750 C 48.001 147.988, 48.900 149.900, 50 151 C 51.828 152.828, 53.333 153, 67.500 153 L 83 153 83 135.500 L 83 118 70.155 118 C 59.189 118, 57.080 118.256, 55.734 119.750 M 60.685 163.973 C 56.290 165.361, 50.925 169.934, 49.394 173.600 C 48.499 175.741, 48 180.737, 48 187.552 L 48 198.167 59.832 197.834 C 71.003 197.519, 71.868 197.344, 75.333 194.698 C 82.263 189.406, 84.333 180.624, 80.526 172.665 C 77.333 165.991, 67.684 161.764, 60.685 163.973 M 60.315 174.007 C 57.170 175.274, 56 178.102, 56 184.434 C 56 189.370, 56.231 190, 58.040 190 C 59.163 190, 61.377 189.042, 62.960 187.871 C 64.928 186.417, 66.620 185.939, 68.305 186.362 C 71.765 187.230, 73.411 184.923, 72.656 180.266 C 71.680 174.254, 66.378 171.564, 60.315 174.007 " stroke="none" fill="white" fill-rule="evenodd" transform="scale(0.12195121951219512) translate(0 0)"></path>
    </g>
</svg>