<svg width="60" height="60" viewBox="0 0 60 60" xmlns="http://www.w3.org/2000/svg">
    <rect fill="transparent" x="0" y="0" width="60" height="60" rx="4.8"></rect>

    <g width="30" height="30" viewBox="0 0 30 30" transform="translate(15, 15)" fill="#FFFFFF">
        <path d="M 260.572 61.101 C 210.936 66.332, 164.773 88.648, 127.633 125.367 C 91.667 160.925, 71.050 200.279, 62.340 250 C 60.840 258.561, 60.506 265.672, 60.535 288.500 C 60.571 318.134, 61.630 327.737, 67.095 348 C 81.400 401.043, 115.511 447.243, 164.806 480.337 C 190.589 497.646, 225.543 510.134, 259.500 514.167 C 274.079 515.899, 305.066 515.603, 319.833 513.592 C 368.119 507.015, 409.665 486.562, 445.833 451.561 C 481.894 416.662, 503.526 376.494, 512.105 328.500 C 514.811 313.356, 515.841 277.460, 514.050 260.670 C 510.866 230.822, 500.506 198.988, 486.066 174.681 C 466.103 141.079, 437.611 111.932, 404.991 91.741 C 395.882 86.103, 375.237 76.187, 365.035 72.550 C 349.757 67.102, 331.384 63.058, 312.789 61.049 C 301.627 59.843, 272.233 59.873, 260.572 61.101 M 191.142 189.159 C 186.224 191.593, 181.484 197.490, 179.992 203.029 C 179.347 205.427, 179.081 241.688, 179.245 304.985 L 179.500 403.221 200.786 381.860 L 222.073 360.500 302.286 360 L 382.500 359.500 387.239 356.088 C 390.031 354.078, 392.804 350.970, 393.989 348.523 C 395.946 344.481, 396 342.454, 396 273.390 L 396 202.412 392.750 197.020 C 390.467 193.233, 388.189 190.941, 385.093 189.315 L 380.685 187 288.093 187.001 L 195.500 187.002 191.142 189.159 M 222.958 230.250 C 222.935 230.387, 222.857 235.225, 222.785 241 L 222.653 251.500 287.827 251.757 L 353 252.014 353 241.007 L 353 230 288 230 C 252.250 230, 222.981 230.113, 222.958 230.250 M 222.888 266 C 222.827 267.925, 222.723 272.650, 222.657 276.500 L 222.538 283.500 287.769 283.757 L 353 284.014 353 273.522 L 353 263.029 288 262.764 L 223 262.500 222.888 266 M 222.866 301.739 C 222.793 305.458, 222.706 310.300, 222.674 312.500 L 222.616 316.500 266.058 316.500 L 309.500 316.500 309.500 306 L 309.500 295.500 266.250 295.239 L 223 294.979 222.866 301.739 " stroke="none" fill="white" fill-rule="evenodd" transform="scale(0.05226480836236934) translate(0 0)"></path>
    </g>
</svg>