<svg width="60" height="60" viewBox="0 0 60 60" xmlns="http://www.w3.org/2000/svg">
    <rect fill="transparent" x="0" y="0" width="60" height="60" rx="4.8"></rect>

    <g width="30" height="30" viewBox="0 0 30 30" transform="translate(15, 15)" fill="#FFFFFF">
        <path d="M 133 149.596 C 133 156.323, 134.370 158.598, 144.401 168.525 C 151.165 175.218, 160.809 182.212, 169.500 186.728 C 176.051 190.131, 182.880 193, 184.430 193 C 185.229 193, 186.160 193.450, 186.500 194 C 186.840 194.550, 188.415 195, 190 195 C 191.585 195, 193.131 195.402, 193.435 195.894 C 193.739 196.386, 195.678 197.039, 197.744 197.344 C 199.810 197.650, 204.650 198.474, 208.500 199.175 C 216.206 200.579, 252.717 200.826, 262.159 199.539 L 267.819 198.767 271.065 192.372 C 272.850 188.855, 274.128 185.804, 273.905 185.592 C 273.682 185.380, 269.225 185.709, 264 186.322 C 246.094 188.423, 217.473 187.699, 206.500 184.867 C 204.300 184.300, 200.700 183.369, 198.500 182.800 C 187.525 179.962, 173.409 173.345, 162 165.692 C 157.875 162.925, 154.275 160.378, 154 160.032 C 153.725 159.687, 151.925 158.322, 150 156.999 C 148.075 155.677, 145.825 153.887, 145 153.023 C 142.229 150.118, 134.648 144, 133.820 144 C 133.369 144, 133 146.518, 133 149.596 M 315.587 166.032 C 313.435 167.106, 310.841 168.739, 309.823 169.660 C 305.836 173.269, 301.137 181.951, 298.004 191.500 C 285.995 228.103, 272.557 250.575, 248.052 275.031 C 238.546 284.519, 225.831 294.983, 218.927 299 C 217.509 299.825, 213.078 302.457, 209.081 304.848 C 196.358 312.461, 175.878 320.788, 162 323.990 C 148.613 327.078, 148.399 327.678, 159.227 331.749 C 184.166 341.125, 201.938 346.161, 222 349.535 C 245.095 353.420, 266.203 348.251, 285.526 333.980 C 293.139 328.357, 304.267 315.916, 309.438 307.246 C 317.004 294.560, 319.157 285.899, 320.933 261 C 323.267 228.286, 325.938 219.485, 337.180 207.466 C 344.457 199.687, 349.824 195.682, 360.744 189.880 C 371.284 184.280, 371.587 182.528, 362.168 181.652 C 350.716 180.588, 349.345 180.044, 342.259 173.755 C 331.460 164.172, 323.775 161.946, 315.587 166.032 M 122 176.743 C 122 182.879, 125.861 206.384, 128.038 213.500 C 131.591 225.113, 135.397 235.207, 138.176 240.387 C 141.040 245.726, 143.424 249.768, 145.117 252.154 C 146.153 253.614, 147 255.302, 147 255.904 C 147 256.507, 147.338 257.011, 147.750 257.024 C 148.162 257.037, 149.850 258.901, 151.500 261.166 C 156.334 267.803, 168.574 277.619, 177.447 281.974 C 181.959 284.188, 186.314 286, 187.125 286 C 187.936 286, 189.080 286.480, 189.667 287.067 C 192.285 289.685, 212.846 276.615, 225.500 264.291 C 229.900 260.006, 235.083 254.700, 237.017 252.500 C 241.063 247.899, 253.194 231.579, 257.373 225.113 L 260.209 220.727 257.355 221.418 C 245.565 224.271, 213.457 224.029, 199.500 220.981 C 196.750 220.380, 193.033 219.639, 191.241 219.334 C 189.448 219.029, 187.734 218.379, 187.432 217.890 C 187.129 217.400, 185.810 217, 184.500 217 C 183.190 217, 181.840 216.550, 181.500 216 C 181.160 215.450, 180.212 215, 179.393 215 C 176.919 215, 159.582 206.467, 152.827 201.925 C 143.487 195.644, 137.357 190.542, 129.250 182.302 C 124.302 177.272, 122 175.507, 122 176.743 " stroke="none" fill="white" fill-rule="evenodd" transform="scale(0.061224489795918366) translate(0 0)"></path>
    </g>
</svg>