<svg width="60" height="60" viewBox="0 0 60 60" xmlns="http://www.w3.org/2000/svg">
    <rect fill="transparent" x="0" y="0" width="60" height="60" rx="4.8"></rect>

    <g width="30" height="30" viewBox="0 0 30 30" transform="translate(15, 15)" fill="#FFFFFF">
        <path d="M 71 28.351 L 71 36.703 79.250 37.306 C 102.220 38.986, 125.837 50.381, 141.870 67.520 C 157.088 83.788, 165.790 102.653, 168.256 124.723 L 169.405 135 177.702 135 L 186 135 185.996 130.750 C 185.994 128.412, 185.323 122.373, 184.504 117.328 C 177.530 74.327, 147.956 39.358, 106.935 25.610 C 97.918 22.588, 83.817 20, 76.369 20 L 71 20 71 28.351 M 71 63.358 L 71 71.715 77.041 72.346 C 105.089 75.278, 128.157 97.223, 132.753 125.348 L 134.331 135 142.764 135 L 151.196 135 150.516 128.750 C 149.291 117.506, 147.021 109.662, 142.019 99.383 C 133.655 82.198, 117.886 67.625, 100.244 60.774 C 92.355 57.711, 80.226 55, 74.412 55 L 71 55 71 63.358 M 61.108 89.082 C 44.583 92.327, 28.867 107.600, 25.060 124.115 C 23.764 129.737, 23.764 140.263, 25.060 145.885 C 28.823 162.207, 42.642 176.067, 59.542 180.469 C 80.431 185.910, 102.849 175.396, 112.479 155.643 C 129.567 120.589, 99.441 81.554, 61.108 89.082 M 78.121 109.710 C 68.533 114.434, 68.483 128.579, 78.039 133.520 C 86.577 137.936, 96.987 131.400, 96.996 121.618 C 97.001 116.282, 93.839 111.553, 88.961 109.601 C 83.971 107.604, 82.363 107.621, 78.121 109.710 " stroke="none" fill="white" fill-rule="evenodd" transform="scale(0.15) translate(0 0)"></path>
    </g>
</svg>