<svg width="60" height="60" viewBox="0 0 60 60" xmlns="http://www.w3.org/2000/svg">
    <rect fill="transparent" x="0" y="0" width="60" height="60" rx="4.8"></rect>

    <g width="30" height="30" viewBox="0 0 30 30" transform="translate(15, 15)" fill="#FFFFFF">
        <path d="M 157.500 0.995 C 312.581 1.491, 315.500 1.536, 315.500 3.424 C 315.500 4.786, 313.063 6.749, 307.161 10.141 C 288.869 20.654, 261.476 39.861, 245.500 53.377 C 204.601 87.977, 168.783 132.622, 144.521 179.241 C 121.919 222.668, 109.407 265.166, 103.815 317.500 C 102.119 333.370, 102.125 380.109, 103.826 395.500 C 113.496 483.030, 149.603 557.194, 216.544 627.020 C 222.618 633.357, 229.092 640.727, 230.931 643.399 C 239.694 656.136, 238.799 669.103, 227.921 687.049 C 214.924 708.488, 195.065 727.438, 165.093 747 C 146.657 759.033, 146.675 760.543, 165.286 763.636 C 174.414 765.153, 181.801 765.496, 205 765.479 C 245.357 765.450, 257.840 763.326, 316.500 746.508 C 336.300 740.832, 355.331 735.633, 358.792 734.955 C 369.872 732.786, 379.267 734.116, 400 740.791 C 475.693 765.159, 548.466 772.405, 622.657 762.963 C 694.909 753.767, 772.378 725.336, 830.500 686.686 C 851.469 672.742, 875.191 653.820, 890.750 638.629 L 898 631.550 898 315.775 L 898 0 448.750 0.245 C 179.171 0.393, 62.690 0.693, 157.500 0.995 M 622.903 235.066 C 616.878 236.016, 612.996 238.102, 609.191 242.435 C 602.817 249.695, 603 246.407, 603 353.500 C 603 461.250, 602.739 456.830, 609.585 464.828 C 614.666 470.765, 619.502 473, 627.264 473 C 638.627 473, 649.239 465.254, 652.019 454.929 C 652.687 452.448, 652.945 416.796, 652.769 351.323 L 652.500 251.500 650.309 247.405 C 645.103 237.676, 635.053 233.151, 622.903 235.066 M 257 252.703 C 243.545 255.019, 236 262.671, 236 274 C 236 282.641, 240.511 289.364, 249 293.374 C 253.328 295.419, 255.095 295.512, 295.177 295.809 C 327.134 296.047, 337.097 296.412, 337.898 297.377 C 338.675 298.313, 335.315 303.227, 324.776 316.568 C 257.477 401.756, 237.228 428.027, 235.033 433 C 229.183 446.252, 233.931 460.843, 246.116 467.059 C 253.046 470.594, 261.024 470.985, 326.532 470.992 C 395.209 471.001, 397.132 470.875, 404.476 465.907 C 414.562 459.084, 415.983 440.748, 407.113 431.877 C 400.443 425.208, 398.621 425, 346.818 425 C 321.618 425, 301.007 424.663, 301.016 424.250 C 301.024 423.837, 319.525 400.100, 342.128 371.500 C 392.540 307.714, 397.408 301.265, 402.833 291.083 C 409.626 278.334, 409.597 269.166, 402.739 261.355 C 398.872 256.952, 394.013 254.474, 386.535 253.091 C 380.861 252.042, 262.892 251.688, 257 252.703 M 472.611 303.977 C 457.548 308.036, 439.413 319.734, 429.319 331.903 C 423.095 339.406, 415.980 353.407, 413.515 363 C 408.435 382.774, 411.504 413.235, 420.548 432.810 C 432.896 459.537, 458.914 476.155, 488.500 476.214 C 501.777 476.241, 511.426 473.216, 522.528 465.546 C 526.913 462.517, 530.969 460.030, 531.542 460.019 C 532.115 460.009, 534.545 461.999, 536.943 464.442 C 543.058 470.673, 549.740 473.375, 557.493 472.753 C 567.955 471.913, 575.865 466.176, 579.411 456.855 C 580.903 452.933, 581.040 446.030, 580.784 387.500 C 580.503 323.138, 580.479 322.461, 578.347 318.500 C 573.881 310.202, 566.163 305.824, 556 305.824 C 547.838 305.824, 543.287 307.881, 536.725 314.537 L 532.132 319.195 525.693 314.600 C 509.288 302.894, 490.547 299.143, 472.611 303.977 M 735.500 304.520 C 702.175 311.849, 678.616 337.536, 672.369 373.350 C 671.183 380.154, 670.914 386.090, 671.322 396.500 C 671.926 411.953, 673.360 418.549, 678.568 429.840 C 686.901 447.908, 699.365 460.185, 718.327 469.002 C 730.455 474.642, 739.958 476.525, 755.500 476.370 C 771.674 476.208, 783.617 473.344, 797.210 466.368 C 804.815 462.465, 808.246 459.863, 816.122 452.025 C 824.659 443.531, 826.320 441.269, 830.845 431.975 C 839.223 414.770, 842.289 396.593, 840.033 377.500 C 837.768 358.330, 830.550 342.131, 818.500 329.176 C 806.722 316.514, 790.724 307.764, 773.228 304.417 C 764.126 302.675, 743.635 302.731, 735.500 304.520 M 489 349.350 C 482.938 350.735, 478.876 352.701, 474.847 356.197 C 464.514 365.166, 459.073 384.073, 462.345 399.639 C 465.059 412.550, 471.669 421.726, 481.858 426.730 C 486.679 429.097, 488.736 429.500, 496 429.500 C 503.264 429.500, 505.321 429.097, 510.142 426.730 C 529.164 417.388, 536.593 389.696, 526.020 367.541 C 519.189 353.230, 504.217 345.872, 489 349.350 M 743 350.764 C 736.267 353.353, 726.969 363.060, 724.096 370.500 C 721.295 377.755, 720.213 392.101, 721.879 399.873 C 724.523 412.200, 731.922 422.197, 741.845 426.849 C 749.675 430.520, 762.259 430.647, 769 427.124 C 776.062 423.432, 779.972 420.113, 783.141 415.119 C 793.801 398.318, 791.950 372.038, 779.165 358.668 C 772.304 351.494, 767.802 349.587, 757.031 349.294 C 749.903 349.100, 746.366 349.471, 743 350.764 " stroke="none" fill="white" fill-rule="evenodd" transform="scale(0.03488372093023256) translate(-19 0)"></path>
    </g>
</svg>