<svg width="60" height="60" viewBox="0 0 60 60" xmlns="http://www.w3.org/2000/svg">
    <rect fill="transparent" x="0" y="0" width="60" height="60" rx="4.8"></rect>

    <g width="30" height="30" viewBox="0 0 30 30" transform="translate(15, 15)" fill="#FFFFFF">
        <path d="M 113.500 22.972 C 96.607 24.609, 84.233 30.633, 71.463 43.438 C 64.112 50.808, 61.654 54.087, 58.295 61 C 52.248 73.447, 51.159 79.912, 50.870 105.076 C 50.589 129.502, 50.593 129.518, 59.259 137.838 C 62.894 141.328, 85.872 157.764, 107.915 172.642 C 118.774 179.971, 123.751 179.615, 136.301 170.611 C 140.410 167.663, 151.571 159.907, 161.103 153.376 C 179.938 140.470, 185.557 135.578, 188.372 129.636 C 189.974 126.253, 190.185 123.262, 190.063 105.656 C 189.895 81.563, 188.624 74.117, 182.518 61.456 C 172.508 40.701, 151.874 25.927, 128.866 23.042 C 124.294 22.469, 120.541 22.066, 120.526 22.147 C 120.512 22.227, 117.350 22.599, 113.500 22.972 M 112.389 53.502 C 97.867 56.629, 87.845 65.618, 83.067 79.801 C 81.473 84.532, 81 88.464, 81 96.968 L 81 108 120.500 108 L 160 108 160 97.589 C 160 85.138, 157.889 77.260, 152.427 69.329 C 143.691 56.645, 127.503 50.246, 112.389 53.502 M 50.145 175.250 C 50.055 209.898, 50.352 211.986, 55.898 215.715 L 59.296 218 120.500 218 L 181.704 218 185.102 215.715 C 190.560 212.046, 190.882 209.820, 190.845 176.003 C 190.827 159.229, 190.594 145.151, 190.326 144.719 C 190.059 144.287, 188.301 145.284, 186.420 146.936 C 184.539 148.588, 179.512 152.277, 175.250 155.133 C 170.987 157.990, 159.625 165.838, 150 172.574 C 131.083 185.813, 124.878 188.716, 117.882 187.597 C 111.979 186.653, 107.378 184.050, 89.500 171.542 C 80.700 165.385, 69.200 157.383, 63.944 153.760 C 58.689 150.137, 53.796 146.459, 53.072 145.587 C 52.348 144.714, 51.411 144, 50.991 144 C 50.571 144, 50.190 158.063, 50.145 175.250 " stroke="none" fill="white" fill-rule="evenodd" transform="scale(0.125) translate(0 0)"></path>
    </g>
</svg>