<svg width="60" height="60" viewBox="0 0 60 60" xmlns="http://www.w3.org/2000/svg">
    <rect fill="transparent" x="0" y="0" width="60" height="60" rx="4.8"></rect>

    <g width="30" height="30" viewBox="0 0 30 30" transform="translate(15, 15)" fill="#FFFFFF">
        <path d="M 184 40.622 C 158.061 43.845, 132.709 52.807, 113 65.721 C 57.241 102.256, 30.063 168.100, 43.606 233.841 C 54.629 287.349, 96.163 334.112, 148.012 351.391 C 167.691 357.950, 176.969 359.375, 200 359.375 C 222.943 359.375, 232.322 357.945, 251.660 351.501 C 318.340 329.282, 362.735 264.317, 359.634 193.500 C 356.371 118.970, 303.553 57.461, 230.370 42.965 C 219.816 40.875, 192.909 39.515, 184 40.622 M 118.655 140.829 C 117.155 142.486, 117 148.098, 117 200.757 C 117 252.242, 117.179 259.036, 118.571 260.429 C 119.822 261.679, 122.547 262, 131.916 262 C 142.053 262, 143.920 261.746, 145.345 260.171 C 146.817 258.545, 147 254.583, 147 224.430 L 147 190.518 167.250 210.569 C 194.259 237.313, 196.214 239, 200.181 239 C 203.056 239, 206.017 236.397, 227.480 215 C 240.720 201.800, 251.878 191, 252.276 191 C 252.674 191, 253 206.268, 253 224.929 C 253 254.439, 253.205 259.062, 254.571 260.429 C 255.822 261.679, 258.547 262, 267.916 262 C 278.053 262, 279.920 261.746, 281.345 260.171 C 282.845 258.514, 283 252.908, 283 200.326 C 283 145.391, 282.903 142.222, 281.171 140.655 C 279.729 139.350, 277.252 139, 269.460 139 L 259.578 139 230.517 168 C 214.533 183.950, 200.801 197, 200 197 C 199.199 197, 185.467 183.950, 169.483 168 L 140.422 139 130.366 139 C 121.894 139, 120.049 139.288, 118.655 140.829 " stroke="none" fill="white" fill-rule="evenodd" transform="scale(0.075) translate(0 0)"></path>
    </g>
</svg>