<svg width="60" height="60" viewBox="0 0 60 60" xmlns="http://www.w3.org/2000/svg">
    <rect fill="transparent" x="0" y="0" width="60" height="60" rx="4.8"></rect>

    <g width="30" height="30" viewBox="0 0 30 30" transform="translate(15, 15)" fill="#FFFFFF">
        <path d="M 183.500 33.668 C 153.339 37.373, 128.719 46.417, 105.815 62.205 C 68.683 87.801, 43.549 126.578, 35.468 170.738 C 34.587 175.557, 33.626 186.475, 33.335 195 C 32.481 219.953, 36.785 243.258, 46.262 265 C 69.282 317.816, 114.724 354.052, 171.264 364.679 C 184.161 367.103, 215.839 367.103, 228.736 364.679 C 298.811 351.508, 351.508 298.811, 364.679 228.736 C 365.952 221.964, 366.415 214.298, 366.415 200 C 366.415 179.062, 365.248 169.985, 360.405 153.264 C 357.225 142.287, 355.899 139.500, 353.853 139.500 C 352.961 139.500, 347.849 144.450, 342.492 150.500 C 337.134 156.550, 331.854 162.486, 330.756 163.691 C 328.785 165.857, 328.783 165.986, 330.588 174.691 C 333.107 186.832, 333.143 213.115, 330.658 224.875 C 325.509 249.242, 315.794 269.191, 300.159 287.500 C 282.083 308.668, 255.323 324.115, 225.500 330.596 C 214.306 333.028, 185.694 333.028, 174.500 330.596 C 120.352 318.829, 81.171 279.648, 69.404 225.500 C 66.972 214.306, 66.972 185.694, 69.404 174.500 C 78.434 132.948, 103.876 99.665, 140.805 81.098 C 174.381 64.216, 214.323 62.643, 249.993 76.798 C 254.100 78.427, 257.919 79.563, 258.480 79.321 C 259.041 79.080, 263.742 73.263, 268.926 66.395 C 278.202 54.108, 278.322 53.878, 276.426 52.034 C 273.855 49.533, 257.671 42.753, 246.500 39.498 C 228.979 34.393, 199.674 31.681, 183.500 33.668 M 305.727 57.250 C 303.853 59.587, 289.562 78.375, 273.969 99 C 219.504 171.040, 182.697 219.511, 181.361 220.957 C 180.204 222.209, 176.698 219.110, 156.493 198.971 C 137.921 180.461, 132.657 175.736, 131.478 176.514 C 129.734 177.666, 110 209.694, 110 211.374 C 110 211.999, 127.035 229.541, 147.856 250.356 C 174.868 277.361, 186.239 288.101, 187.551 287.848 C 188.563 287.653, 208.715 265.670, 232.333 238.997 C 255.952 212.324, 292.202 171.392, 312.888 148.039 C 333.575 124.685, 351.322 104.545, 352.328 103.282 C 354.109 101.045, 354.098 100.895, 351.893 97.327 C 348.804 92.328, 338.692 79.659, 332.554 73.097 C 328.055 68.288, 310.540 53, 309.529 53 C 309.312 53, 307.601 54.913, 305.727 57.250 " stroke="none" fill="white" fill-rule="evenodd" transform="scale(0.075) translate(0 0)"></path>
    </g>
</svg>