<svg width="60" height="60" viewBox="0 0 60 60" xmlns="http://www.w3.org/2000/svg">
    <rect fill="transparent" x="0" y="0" width="60" height="60" rx="4.8"></rect>

    <g width="30" height="30" viewBox="0 0 30 30" transform="translate(15, 15)" fill="#FFFFFF">
        <path d="M 20.500 16.950 C 14.805 17.625, 5.577 20.196, 1.729 22.180 C 0.130 23.004, 0.247 23.337, 2.932 25.596 C 7.646 29.563, 15.751 40.266, 18.480 46.129 C 21.454 52.517, 21.919 60.993, 19.410 63.075 C 15.560 66.270, 8.920 77.197, 6.565 84.213 C 0.909 101.060, 4.460 118.665, 16.492 133.438 C 20.325 138.143, 21 139.635, 21 143.403 C 21 151.268, 15.470 161.332, 5.585 171.457 L 0.287 176.884 5.393 178.926 C 13.858 182.312, 20.620 183.270, 32.420 182.757 C 47.193 182.114, 59.567 177.640, 69.910 169.202 L 74.319 165.605 97.910 165.517 C 118.627 165.440, 122.548 165.165, 130.102 163.258 C 151.681 157.812, 166.647 150.067, 178.912 138 C 190.728 126.374, 196 114.410, 196 99.216 C 196 71.359, 172.119 47.804, 133.131 37.207 C 124.071 34.744, 122.057 34.580, 99.142 34.447 L 74.785 34.306 69.642 30.293 C 56.282 19.869, 37.927 14.885, 20.500 16.950 M 89 47.569 C 87.625 47.809, 83.125 48.502, 79 49.108 C 69.486 50.505, 57.349 54.306, 49 58.505 C 15.547 75.327, 7.583 105.152, 30.367 128.292 L 36.242 134.259 35.796 141.956 C 35.292 150.678, 31.582 159.989, 26.147 166.179 C 24.416 168.151, 23 170.022, 23 170.337 C 23 171.731, 30.635 172.137, 36.299 171.043 C 45.893 169.191, 55.693 163.985, 63.911 156.376 L 71.159 149.665 79.330 150.999 C 90.622 152.842, 112.408 152.594, 123.475 150.496 C 150.106 145.448, 169.837 132.988, 178.474 115.763 C 182.812 107.113, 183.701 100.287, 181.574 91.982 C 176.308 71.428, 154.466 55.405, 123.610 49.462 C 115.581 47.915, 93.822 46.725, 89 47.569 M 55.367 92.772 C 48.798 98.093, 49.640 107.694, 57.011 111.506 C 60.701 113.414, 62.385 113.386, 66.690 111.343 C 77.108 106.399, 73.296 90.960, 61.673 91.022 C 59.238 91.035, 56.612 91.764, 55.367 92.772 M 94.110 92.396 C 86.460 96.635, 87.941 109.175, 96.423 111.974 C 105.836 115.081, 113.984 105.643, 109.805 96.472 C 107.563 91.550, 99.441 89.441, 94.110 92.396 M 131.111 93.560 C 125.085 98.631, 126.242 107.989, 133.310 111.343 C 137.615 113.386, 139.299 113.414, 142.989 111.506 C 150.360 107.694, 151.202 98.093, 144.633 92.772 C 141.324 90.092, 134.779 90.473, 131.111 93.560 " stroke="none" fill="white" fill-rule="evenodd" transform="scale(0.15) translate(0 0)"></path>
    </g>
</svg>