<svg width="60" height="60" viewBox="0 0 60 60" xmlns="http://www.w3.org/2000/svg">
    <rect fill="transparent" x="0" y="0" width="60" height="60" rx="4.8"></rect>

    <g width="30" height="30" viewBox="0 0 30 30" transform="translate(15, 15)" fill="#FFFFFF">
        <path d="M 106.433 12.710 C 103.170 15.241, 95.099 22.754, 88.498 29.406 C 54.186 63.982, 35.983 101.948, 36.007 138.881 C 36.022 161.872, 43.811 180.079, 60.271 195.603 C 72.805 207.423, 86.103 213.608, 104.143 216.009 C 140.944 220.906, 177.645 195.454, 187.067 158.500 C 189.604 148.551, 189.787 131.456, 187.496 118.504 C 182.430 89.871, 165.526 59.362, 139.842 32.496 C 132.136 24.436, 116.855 10.677, 113.433 8.719 C 112.846 8.383, 109.696 10.179, 106.433 12.710 M 89.766 109.231 L 89.500 136.500 80.662 137 L 71.825 137.500 90.017 158.500 C 100.023 170.050, 109.229 180.556, 110.475 181.848 L 112.741 184.195 133.029 160.848 L 153.318 137.500 144.675 137.211 L 136.032 136.923 135.766 109.711 L 135.500 82.500 112.766 82.231 L 90.032 81.963 89.766 109.231 " stroke="none" fill="white" fill-rule="evenodd" transform="scale(0.13333333333333333) translate(0 0)"></path>
    </g>
</svg>