<svg width="60" height="60" viewBox="0 0 60 60" xmlns="http://www.w3.org/2000/svg">
    <rect fill="transparent" x="0" y="0" width="60" height="60" rx="4.8"></rect>

    <g width="30" height="30" viewBox="0 0 30 30" transform="translate(15, 15)" fill="#FFFFFF">
        <path d="M 163.137 49.279 C 157.468 51.091, 149.432 59.347, 145.405 67.496 C 142.371 73.634, 141.705 76.182, 141.257 83.362 C 140.671 92.750, 141.992 101.482, 145.091 108.712 L 147.056 113.296 149.278 111.310 C 152.404 108.515, 157.688 105.563, 163.298 103.476 C 166.910 102.133, 167.946 101.301, 167.488 100.108 C 167.154 99.237, 166.625 95.793, 166.313 92.454 C 165.567 84.456, 167.846 76.619, 173.639 67.268 C 179.189 58.310, 180.085 54.089, 177.039 51.251 C 175.050 49.398, 170.418 47.849, 167.625 48.102 C 167.006 48.158, 164.987 48.688, 163.137 49.279 M 245.600 54.110 C 245.933 55.975, 246.574 59.075, 247.024 61 C 248.655 67.985, 249.080 76.644, 248.118 83.308 C 247.141 90.069, 242.276 101.290, 237.922 106.827 L 235.880 109.423 246.667 114.834 L 257.453 120.245 261.043 116.078 C 273.952 101.089, 279.434 81.178, 274.087 68.703 C 270.368 60.028, 259.891 52.485, 249.919 51.304 L 244.994 50.721 245.600 54.110 M 75.251 97.545 C 58.642 102.017, 52.103 111.941, 54.888 128.445 C 56.077 135.488, 58.520 139.863, 63.989 144.739 C 67.672 148.024, 78.103 151.003, 85.855 150.984 C 102.911 150.944, 132.066 140.727, 133.624 134.245 C 133.987 132.735, 135.170 129.700, 136.253 127.500 L 138.223 123.500 136.214 125.598 C 133.982 127.929, 118.659 133.059, 106.792 135.448 C 92.650 138.295, 81.670 136.989, 79.080 132.150 C 75.728 125.887, 80.462 117.212, 89.232 113.548 C 94.662 111.279, 113.087 111.510, 124.292 113.987 C 135.705 116.511, 138.527 117.900, 138.405 120.933 C 138.315 123.155, 138.390 123.187, 139.655 121.458 C 140.395 120.446, 140.993 119.141, 140.984 118.559 C 140.944 116.026, 136.220 109.448, 133.153 107.657 C 117.188 98.333, 89.974 93.581, 75.251 97.545 M 295.500 114.083 C 283.729 115.281, 265.040 120.508, 263.475 123.040 C 262.655 124.367, 269.143 129.936, 271.550 129.971 C 272.677 129.987, 274.044 129.556, 274.586 129.014 C 275.129 128.471, 278.931 126.842, 283.036 125.394 C 291.807 122.299, 309.614 120.980, 316.677 122.901 C 322.509 124.488, 326.388 129.222, 325.639 133.838 C 324.835 138.793, 321.590 141.724, 315.368 143.117 C 310.868 144.124, 307.690 144.006, 295.592 142.379 L 281.177 140.442 282.553 143.102 C 290.309 158.101, 329.209 163.915, 344.669 152.385 C 354.640 144.949, 348.676 128.063, 333.120 119.689 C 324.820 115.222, 308.383 112.772, 295.500 114.083 M 87.250 121.491 C 85.463 122.268, 84 123.589, 84 124.426 C 84 126.730, 89.315 129, 94.700 128.997 C 99.858 128.993, 113.373 126.799, 121.500 124.646 L 126.500 123.321 119.303 121.661 C 110.238 119.569, 91.895 119.472, 87.250 121.491 M 290 130.689 C 285.692 131.247, 283.575 132.965, 287.050 133.083 C 288.397 133.129, 290.400 133.287, 291.500 133.434 C 315.315 136.618, 322.458 136.315, 316.452 132.374 C 314.183 130.885, 311.534 130.473, 303.548 130.368 C 298.022 130.296, 291.925 130.440, 290 130.689 M 274.978 140.750 C 274.933 144.369, 271.041 151.004, 267.808 152.976 C 261.922 156.564, 250.838 155.015, 241.770 149.336 C 239.718 148.051, 237.736 147, 237.366 147 C 236.995 147, 235.136 148.818, 233.234 151.040 C 224.321 161.453, 206.774 164.109, 200.949 155.928 C 199.765 154.266, 198.559 151.127, 198.267 148.953 C 197.975 146.779, 197.523 145, 197.262 145 C 197.001 145, 195.003 146.413, 192.822 148.141 C 183.688 155.375, 169.808 158.136, 163.861 153.901 C 162.159 152.689, 159.989 149.959, 159.037 147.834 L 157.307 143.970 154.719 146.007 C 148.024 151.272, 138.320 152.385, 132.649 148.537 L 129.020 146.074 128.573 148.287 C 128.328 149.504, 127.880 153.653, 127.579 157.506 C 127.278 161.360, 125.512 170.585, 123.655 178.006 C 121.798 185.428, 119.520 195.100, 118.592 199.500 C 115.616 213.618, 111.297 232.964, 106.427 254 C 101.767 274.128, 101.679 274.818, 101.592 292 C 101.506 309.015, 101.578 309.660, 104.205 315.268 C 109.619 326.829, 122.242 336.006, 139.754 341.110 C 152.650 344.869, 173.787 347.066, 203.046 347.690 C 230.554 348.277, 230.606 348.274, 240.961 345.607 C 264.051 339.659, 277.676 328.174, 283.509 309.744 C 287.856 296.009, 287.778 292.060, 282.035 235.500 C 279.858 214.054, 278.312 191.586, 277.047 163 C 276.317 146.504, 276.408 143.249, 277.635 141.874 C 278.909 140.446, 278.888 140.171, 277.461 139.624 C 275.147 138.735, 275.002 138.801, 274.978 140.750 M 169.950 176.754 C 167.714 178.751, 166.337 181.422, 164.934 186.482 C 161.663 198.278, 162.810 206.536, 168.569 212.642 C 173.068 217.412, 177.615 217.318, 182.581 212.352 C 193.926 201.008, 193.509 185.406, 181.615 176.227 C 177.703 173.207, 173.717 173.387, 169.950 176.754 M 211.996 176.250 C 207.648 179.215, 205.155 186.791, 205.066 197.315 C 204.931 213.323, 212.270 221.445, 222.300 216.386 C 232.651 211.165, 237.503 200.557, 235.017 188.583 C 234.081 184.073, 232.926 181.915, 229.586 178.428 C 225.670 174.341, 224.956 174, 220.319 174 C 216.754 174, 214.338 174.653, 211.996 176.250 M 215.500 181.778 C 214.400 182.007, 213.169 182.504, 212.765 182.882 C 211.559 184.011, 210.123 193.289, 210.697 196.242 L 211.230 198.984 214.192 196.492 C 219.694 191.863, 226.258 193.439, 228.884 200.021 C 229.789 202.288, 229.877 202.158, 229.915 198.500 C 230.011 189.189, 222.387 180.345, 215.500 181.778 M 170.604 182.832 C 169.611 184.439, 168.729 197, 169.612 196.968 C 170.100 196.951, 171.374 196.276, 172.441 195.468 C 175.011 193.525, 179.989 193.603, 182.887 195.634 C 185.452 197.430, 185.394 197.815, 183.537 191.328 C 182.143 186.462, 172.341 180.022, 170.604 182.832 M 153.452 280.502 C 149.619 282.186, 145 290.344, 145 295.431 C 145 300.113, 148.614 304, 152.969 304 C 157.230 304, 162.839 298.687, 163.990 293.561 C 165.162 288.340, 164.304 284.576, 161.241 281.514 C 158.419 278.692, 157.766 278.607, 153.452 280.502 M 211.934 285.250 C 207.653 289.745, 206.667 292.100, 206.667 297.833 C 206.667 304.528, 208.124 307.742, 211.548 308.601 C 219.733 310.656, 231.409 296.230, 228.075 288.182 C 225.824 282.746, 216.017 280.965, 211.934 285.250 M 151.607 288.582 C 149.912 292.999, 152.117 296, 157.059 296 C 158.995 296, 159.176 295.622, 158.612 292.750 C 157.652 287.866, 152.954 285.070, 151.607 288.582 M 212.503 292.250 C 212.264 292.938, 212.407 295.075, 212.821 297 C 213.769 301.404, 217.077 302.216, 220.598 298.908 C 223.499 296.182, 223.686 293.438, 221.066 292.035 C 218.388 290.602, 213.029 290.737, 212.503 292.250 " stroke="none" fill="white" fill-rule="evenodd" transform="scale(0.075) translate(0 0)"></path>
    </g>
</svg>