<svg width="60" height="60" viewBox="0 0 60 60" xmlns="http://www.w3.org/2000/svg">
    <rect fill="transparent" x="0" y="0" width="60" height="60" rx="4.8"></rect>

    <g width="30" height="30" viewBox="0 0 30 30" transform="translate(15, 15)" fill="#FFFFFF">
        <path d="M 54.500 52.945 C 50.537 54.567, 48.637 57.865, 48.203 63.877 C 47.903 68.018, 48.262 70.607, 49.458 72.918 C 52.461 78.725, 54.326 79, 90.718 78.998 C 119.930 78.997, 123.880 78.806, 126.986 77.248 C 131.485 74.992, 132.967 71.880, 132.985 64.650 C 132.999 59.321, 132.697 58.497, 129.600 55.400 L 126.200 52 91.350 52.063 C 72.182 52.098, 55.600 52.495, 54.500 52.945 M 85.225 91.004 C 81.249 93.429, 80 96.426, 80 103.549 C 80 108.123, 80.455 109.478, 82.917 112.234 L 85.834 115.500 119.963 115.788 C 153.548 116.071, 154.155 116.041, 158.010 113.874 C 167.862 108.337, 166.873 94.884, 156.282 90.371 C 153.778 89.304, 145.904 89.001, 120.782 89.004 C 90.281 89.007, 88.319 89.118, 85.225 91.004 M 122.368 103.083 L 122.368 111.166 138.658 110.833 C 153.940 110.521, 155.086 110.362, 157.174 108.272 C 160.256 105.188, 160.213 99.400, 157.089 96.871 C 155.044 95.215, 152.917 95, 138.573 95 L 122.368 95 122.368 103.083 M 87.212 127.097 C 82.503 128.500, 80.008 133.087, 80.004 140.350 C 80 145.672, 80.307 146.507, 83.400 149.600 L 86.800 153 120.650 152.998 C 150.873 152.997, 154.875 152.810, 158 151.248 C 164.395 148.054, 166.807 139.475, 163.044 133.304 C 158.882 126.479, 159.121 126.521, 123.046 126.309 C 104.096 126.198, 89.126 126.527, 87.212 127.097 M 122.228 136 C 122.915 138.707, 122.915 141.293, 122.228 144 L 121.213 148 137.683 148 L 154.154 148 157.077 145.077 C 158.685 143.469, 160 141.422, 160 140.527 C 160 138.056, 157.278 133.321, 155.455 132.621 C 154.565 132.280, 146.496 132, 137.525 132 L 121.213 132 122.228 136 " stroke="none" fill="white" fill-rule="evenodd" transform="scale(0.14423076923076922) translate(0 0)"></path>
    </g>
</svg>