<svg xmlns="http://www.w3.org/2000/svg" width="360" height="360" viewBox="0 0 360 360">
  <g fill="#FFF" fill-rule="evenodd" transform="translate(69 69)">
    <path d="M117.656442,90.5339567 C117.453268,93.4613902 116.824055,108.226 124.803,108.226 C133.659,108.226 138.063,100.96 138.063,94.436 C138.063,88.5368122 121.410341,89.7060312 118.220646,89.9840948 C120.109744,88.0926009 121.704549,85.9719908 122.895,83.672 L137.359,84.774 C137.359,84.774 144.45,98.213 157.205,98.213 C169.176,98.213 179.586,90.639 179.586,64.371 C179.588,36.784 172.351,35.597 168.671,35.597 C164.993,35.597 164.104,37.495 162.798,36.309 C162.205,35.716 165.35,34.351 165.35,33.758 C165.35,33.461 164.874,33.521 164.223,33.521 C160.367,33.521 152.773,39.157 151.704,39.157 C151.229,39.157 150.458,39.276 150.458,38.564 C150.458,36.962 155.857,35.598 152.119,35.598 C148.381,35.598 142.864,40.404 137.109,40.404 C125.243,40.404 115.692,31.09 115.692,33.403 C115.692,34.234 117.057,35.539 117.946,37.2 C117.946,37.2 118.48,39.692 117.471,38.743 C106.583,27.856 95.698,25.216 95.698,25.216 C95.698,25.216 94.867,25.216 94.867,25.572 C94.867,26.818 97.24,28.479 97.24,28.954 C97.24,29.429 96.943,29.725 96.469,29.725 C94.155,29.725 92.493,25.275 83.18,25.275 C69.118,25.275 65.245,47.404 65.245,65.559 C65.245,91.307 81.814,99.488 95.519,99.488 C103.470547,99.488 111.833135,96.0589108 117.656442,90.5339567 Z M74.771,2.30215846e-12 C95.176,2.30215846e-12 100.03,27.112 140.284,27.112 C165.686,27.112 167.109,16.611 178.817,16.611 C183.603,16.611 186.324,25.771 186.324,31.878 C186.324,56.016 180.127,83.001 184.152,83.001 C189.427,83.001 210.848,69.169 216.4,69.169 C221.675,69.169 221.536,73.264 221.536,75.554 C221.536,77.844 223.157,117.841 169.022,149.351 C166.662,150.739 155.187,200.705 114.748,200.705 C87.727,200.705 67.184,186.088 59.317,151.108 C57.744,143.891 1.42108547e-14,121.126 1.42108547e-14,70.97 C1.42108547e-14,59.958 2.776,53.943 7.033,53.943 C17.676,53.943 40.44,71.803 50.249,71.803 C58.739,71.803 57.374,53.295 57.374,47.743 C57.374,42.193 56.911,2.30215846e-12 74.771,2.30215846e-12 Z M94.04,89.14 C83.8183139,89.14 75.532,79.0650637 75.532,66.637 C75.532,54.2089363 83.8183139,44.134 94.04,44.134 C104.261686,44.134 112.548,54.2089363 112.548,66.637 C112.548,79.0650637 104.261686,89.14 94.04,89.14 Z M172.817,70.885 C172.231,81.817 164.839,90.447 156.308,90.16 C147.776,89.873 141.333,80.778 141.919,69.845 C142.505,58.913 149.897,50.283 158.429,50.57 C166.961,50.857 173.403,59.952 172.817,70.885 Z M84.0083775,62.7367555 C83.6733755,63.9628354 83.492,65.2741635 83.492,66.637 C83.492,73.4643441 88.0439209,78.999 93.659,78.999 C99.2740791,78.999 103.826,73.4643441 103.826,66.637 C103.826,59.8096559 99.2740791,54.275 93.659,54.275 C92.4687591,54.275 91.3262882,54.5236845 90.2648157,54.9806512 C91.2267563,55.9220373 91.831,57.282279 91.831,58.795 C91.831,61.636505 89.69898,63.94 87.069,63.94 C85.9036307,63.94 84.8360339,63.4877178 84.0083775,62.7367555 Z M148.824357,67.1622632 C148.579217,68.0792256 148.414306,69.0446271 148.342,70.044 C147.877,76.471 151.419,81.869 156.252,82.1 C161.085,82.331 165.38,77.309 165.846,70.882 C166.31,64.455 162.768,59.057 157.935,58.826 C156.586686,58.7615555 155.280245,59.1059531 154.087156,59.7756409 C155.060654,60.6168072 155.706151,61.9191516 155.753,63.398 C155.836,66.018 154.01,68.201 151.672,68.273 C150.5935,68.3062272 149.595078,67.8841203 148.824357,67.1622632 Z" opacity=".894"/>
    <path d="M212.297,107.839 C201.604,123.441 179.22,135.751 175.546,135.751 C171.383,135.751 174.25,131.309 171.289,131.309 C168.605,131.309 168.051,178.036 120.208,178.036 C66.443,178.036 67.646,122.425 62.464,122.425 C58.67,122.425 61.168,130.568 57.098,130.568 C43.498,130.568 7.28,103.082 1.26,83.552 C9.704,125.004 57.884,144.527 59.319,151.111 C67.185,186.091 87.728,200.707 114.75,200.707 C155.189,200.707 166.664,150.741 169.024,149.353 C191.367,136.346 204.535,121.249 212.297,107.839 Z"/>
    <path d="M131.01,79.266 C137.453,79.266 142.307,86.745 142.307,94.144 C142.307,101.543 136.26,109.101 134.271,109.101 C132.282,109.101 117.643,95.496 117.643,89.688 C117.643,83.88 123.212,79.266 131.01,79.266 Z"/>
    <path fill-rule="nonzero" d="M106.762,207.465 C113.681,207.102 118.646,208.575 118.971,214.786 C119.295,220.998 110.867,222.623 106.386,222.857 C101.905,223.091 96.831,221.072 96.597,216.589 C96.362,212.11 100.512,207.793 106.762,207.465 Z M149.27,194.764 C155.874,194.418 156.013,201.584 156.041,202.135 C156.07,202.685 156.747,209.586 145.19,210.194 C137.878,210.577 138.1,207.294 138.016,205.682 C137.932,204.07 140.896,195.204 149.27,194.764 Z"/>
  </g>
</svg>
