<svg width="60" height="60" viewBox="0 0 60 60" xmlns="http://www.w3.org/2000/svg">
    <rect fill="transparent" x="0" y="0" width="60" height="60" rx="4.8"></rect>

    <g width="30" height="30" viewBox="0 0 30 30" transform="translate(15, 15)" fill="#FFFFFF">
        <path d="M 107.270 74.435 C 105.493 75.234, 103.117 77.375, 101.990 79.193 C 100.038 82.342, 99.954 83.766, 100.220 109 L 100.500 135.500 103.500 141.488 C 105.150 144.781, 106.652 147.823, 106.837 148.248 C 107.523 149.822, 98.431 152.956, 93.116 152.978 C 84.827 153.012, 80.114 151.139, 74.344 145.521 C 66.505 137.887, 66 135.298, 66 102.752 L 66 75.867 63.250 76.184 L 60.500 76.500 60.500 106 L 60.500 135.500 63.280 141.161 C 71.388 157.672, 91.170 164.051, 107.900 155.548 L 112.368 153.277 118.829 156.301 C 134.969 163.853, 153.268 157.352, 161.200 141.248 L 164.500 134.549 164.500 105.524 L 164.500 76.500 161.500 76.500 L 158.500 76.500 158 106 L 157.500 135.500 154.728 140.216 C 148.517 150.782, 135.461 155.717, 123.899 151.869 C 117.592 149.769, 117.387 148.991, 121.137 141.375 L 124.500 134.547 124.500 109.024 C 124.500 90.312, 124.154 82.699, 123.202 80.500 C 120.592 74.464, 113.343 71.705, 107.270 74.435 M 107.446 82.443 C 106.063 84.553, 105.890 88.262, 106.172 109.693 C 106.485 133.347, 106.607 134.701, 108.804 138.815 C 110.071 141.189, 111.646 142.966, 112.304 142.765 C 112.962 142.564, 114.513 140.415, 115.750 137.988 C 117.907 133.758, 118 132.536, 118 108.360 C 118 80.632, 117.865 80, 111.952 80 C 109.974 80, 108.535 80.780, 107.446 82.443 " stroke="none" fill="white" fill-rule="evenodd" transform="scale(0.13333333333333333) translate(0 0)"></path>
    </g>
</svg>