<svg width="60" height="60" viewBox="0 0 60 60" xmlns="http://www.w3.org/2000/svg">
    <rect fill="transparent" x="0" y="0" width="60" height="60" rx="4.8"></rect>

    <g width="30" height="30" viewBox="0 0 30 30" transform="translate(15, 15)" fill="#FFFFFF">
        <path d="M 340.500 32.163 C 292.435 38.280, 253.075 59.717, 225.121 95 C 209.958 114.138, 201.073 132.734, 195.020 158 C 193.010 166.386, 192 176.975, 192 189.653 C 192 214.678, 197.227 237.669, 208.904 264 C 217.900 284.287, 227.156 297.301, 255.800 329.937 C 270.220 346.367, 273.252 350.549, 277.956 360.500 C 284.059 373.409, 285.973 379.753, 287.970 393.692 C 289.332 403.202, 289.223 409.720, 287.527 420 C 284.494 438.395, 280.792 448.092, 271.203 462.760 C 256.198 485.712, 232.476 501.702, 204.891 507.456 C 191.795 510.189, 167.833 509.103, 155.500 505.219 C 129.866 497.145, 109.647 481.232, 99.655 461.266 C 88.357 438.690, 86.959 416.959, 95.285 393.354 C 104.147 368.231, 128.365 351.851, 154.500 353.304 C 176.601 354.532, 192.386 365.340, 198.536 383.454 C 201.049 390.857, 200.758 404.215, 197.914 412.017 C 195.902 417.534, 195.804 418.570, 196.981 421.842 C 199.012 427.484, 200.970 429.944, 205.113 432.058 C 211.818 435.478, 218.631 434.262, 223.807 428.720 C 225.076 427.361, 227.300 422.931, 228.749 418.875 C 231.123 412.233, 231.390 410.058, 231.436 397 C 231.487 382.265, 231.199 380.556, 226.717 369 C 221.369 355.210, 211.139 342.877, 198.196 334.616 C 184.451 325.842, 170.394 322, 152.033 322 C 138.913 322, 134.443 322.671, 123.500 326.286 C 99.759 334.128, 80.857 350.395, 69.684 372.601 C 65.768 380.384, 61.410 394.538, 60.004 404.040 C 58.247 415.917, 59.185 440.113, 61.786 450 C 67.334 471.087, 78.166 490.143, 92.657 504.306 C 107.660 518.970, 131.358 531.960, 152 536.835 C 154.475 537.420, 158.975 538.471, 162 539.171 C 169.226 540.844, 201.810 540.880, 208.250 539.223 C 210.863 538.550, 215.137 537.498, 217.750 536.885 C 224.371 535.331, 229.330 533.734, 230.450 532.796 C 230.972 532.358, 231.995 532, 232.722 532 C 237.170 532, 262.267 517.725, 270.500 510.511 C 295.004 489.042, 309.115 466.172, 316.566 435.853 C 319.111 425.499, 319.356 422.873, 319.353 406 C 319.351 390.337, 319.001 385.969, 317.071 377.521 C 314.094 364.486, 310.898 355.697, 304.783 343.726 C 298.981 332.368, 293.125 324.583, 272.447 300.736 C 252.541 277.777, 247.301 270.632, 240.746 257.500 C 225.969 227.898, 220.499 199.450, 224.500 173 C 226.867 157.358, 228.854 151.155, 236.517 135.500 C 253.970 99.843, 289.185 73.961, 332 65.324 C 342.877 63.129, 373.223 62.860, 383.500 64.867 C 400.341 68.155, 414.910 73.223, 427.863 80.299 C 432.997 83.104, 433.616 83.204, 442.363 82.649 C 451.748 82.054, 455.660 81.475, 469.500 78.628 C 489.780 74.457, 494.062 73.728, 494.676 74.342 C 495.038 74.704, 494.549 78.038, 493.590 81.750 C 492.630 85.463, 491.466 90.075, 491.002 92 C 490.538 93.925, 488.552 101.800, 486.589 109.500 C 481.129 130.917, 481.079 132.215, 485.326 142.703 C 496.618 170.595, 497.782 196.328, 489.183 228 C 485.667 240.948, 474.924 264.182, 468.144 273.500 C 465.059 277.741, 445.642 301.489, 444.026 303 C 443.732 303.275, 439.893 307.543, 435.495 312.485 C 431.098 317.427, 426.856 322.152, 426.069 322.985 C 424.283 324.877, 417.061 336.010, 413.734 342 C 409.348 349.899, 404.309 363.170, 401.395 374.500 C 398.738 384.830, 398.565 386.748, 398.569 406 C 398.573 425.073, 398.763 427.240, 401.308 437.132 C 411.680 477.438, 436.327 508.523, 471.879 526.131 C 488.073 534.152, 491.561 535.414, 505 538.115 C 520.714 541.274, 545.844 541.659, 557.648 538.922 C 573.588 535.227, 581.872 532.342, 593.776 526.342 C 628.340 508.918, 648.765 482.463, 657.968 443.199 C 659.675 435.917, 659.491 407.346, 657.683 399 C 650.934 367.841, 634.037 345.045, 607.500 331.299 C 601.502 328.192, 595.346 326.044, 585 323.450 C 577.155 321.483, 554.689 321.565, 547.299 323.587 C 544.109 324.459, 540.150 325.515, 538.500 325.933 C 524.951 329.366, 506.993 342.804, 498.319 356 C 486.112 374.573, 482.848 399.331, 489.937 419.585 C 492.524 426.977, 494.741 430.033, 499.088 432.202 C 506.444 435.872, 515.499 432.920, 519.713 425.480 C 522.503 420.554, 522.568 417.027, 520 410 C 516.426 400.222, 517.568 386.606, 522.819 376.381 C 532.141 358.228, 556.991 348.987, 580.391 354.972 C 610.013 362.548, 627.938 387.675, 627.985 421.688 C 628.037 459.852, 604.731 490.771, 565.881 504.076 C 546.549 510.696, 519.353 510.818, 500.239 504.370 C 474.242 495.600, 452.646 476.847, 440.494 452.491 C 436.043 443.571, 435.148 441.211, 432.529 431.500 C 425.129 404.052, 430.717 371.769, 446.962 348.121 C 450.366 343.165, 453.735 339.154, 466.379 325 C 495.725 292.148, 506.464 274.989, 516.820 244.399 C 523.252 225.401, 526.005 208.869, 525.983 189.385 C 525.958 168.266, 522.872 151.681, 515.581 133.487 C 514.002 129.547, 514.056 129.147, 518.579 111.487 C 521.113 101.594, 523.550 91.925, 523.996 90 C 524.442 88.075, 525.560 83.800, 526.480 80.500 C 532.536 58.788, 533.876 52.136, 532.903 48.612 C 531.658 44.101, 527.901 39.616, 524.023 38.009 C 520.882 36.709, 512.938 37.062, 505.500 38.833 C 495.440 41.228, 445.232 51.139, 443 51.170 C 441.625 51.189, 436.675 49.432, 432 47.265 C 427.325 45.098, 420.350 42.293, 416.500 41.033 C 412.650 39.773, 408.600 38.397, 407.500 37.975 C 406.400 37.554, 402.800 36.674, 399.500 36.020 C 396.200 35.366, 392.600 34.622, 391.500 34.367 C 379.193 31.515, 354.105 30.431, 340.500 32.163 M 294.761 226.062 C 290.684 228.215, 287 234.154, 287 238.574 C 287 242.250, 290.628 248.349, 293.999 250.340 C 297.309 252.296, 304.472 252.491, 307.970 250.721 C 309.328 250.033, 311.506 247.902, 312.809 245.985 C 314.755 243.122, 315.103 241.562, 314.756 237.242 C 314.281 231.324, 311.671 227.667, 306.282 225.371 C 301.977 223.537, 299.233 223.701, 294.761 226.062 M 407.742 226.224 C 402.838 229.066, 399.519 235.621, 400.455 240.614 C 400.821 242.565, 402.595 245.769, 404.396 247.735 C 407.229 250.826, 408.401 251.362, 413.085 251.710 C 419.525 252.187, 423.949 249.933, 426.588 244.830 C 430.187 237.870, 428.160 231.116, 421.010 226.250 C 416.867 223.430, 412.577 223.422, 407.742 226.224 M 326.655 293.829 C 324.097 296.655, 324.659 298.985, 328.863 302.985 C 334.666 308.504, 342.254 310.346, 359 310.299 C 370.605 310.266, 373.340 309.940, 378.488 307.970 C 388.298 304.216, 392.699 297.841, 388.429 293.571 C 387.072 292.214, 382.863 292, 357.584 292 C 330.494 292, 328.187 292.136, 326.655 293.829 M 351.240 457.110 C 344.521 460.436, 343.153 463.204, 341.565 476.685 C 339.688 492.608, 336.688 501.179, 328.499 514 C 315.454 534.427, 293.932 552.572, 268.559 564.535 C 249.969 573.300, 239.199 576.286, 220.238 577.932 C 208.732 578.931, 206.318 580.013, 202.250 585.990 C 199.588 589.902, 199.250 596.649, 201.499 600.998 C 202.323 602.592, 204.652 605.157, 206.673 606.698 C 210.210 609.394, 210.743 609.492, 220.753 609.286 C 244.269 608.804, 274.541 599.048, 299.623 583.868 C 320.655 571.140, 342.927 550.351, 353.854 533.249 C 357.522 527.510, 359.135 526.806, 360.709 530.261 C 362.618 534.451, 372.769 547.200, 380.543 555.171 C 414.087 589.565, 462.946 610.962, 503.789 609.146 C 506.097 609.044, 508.305 607.855, 511.193 605.161 C 514.866 601.735, 515.358 600.723, 515.771 595.754 C 516.667 584.949, 509.638 578, 497.815 578 C 483.943 578, 463.737 572.414, 445.500 563.538 C 405.577 544.106, 377.557 509.951, 374.506 477 C 373.488 466.006, 373.009 464.164, 370.341 460.993 C 367.491 457.606, 362.178 455, 358.128 455.001 C 356.683 455.001, 353.583 455.950, 351.240 457.110 " stroke="none" fill="white" fill-rule="evenodd" transform="scale(0.045317220543806644) translate(-31 0)"></path>
    </g>
</svg>