<svg width="60" height="60" viewBox="0 0 60 60" xmlns="http://www.w3.org/2000/svg">
    <rect fill="transparent" x="0" y="0" width="60" height="60" rx="4.8"></rect>

    <g width="30" height="30" viewBox="0 0 30 30" transform="translate(15, 15)" fill="#FFFFFF">
        <path d="M 87.270 41.483 C 85.493 42.255, 83.132 44.375, 82.023 46.193 C 80.070 49.398, 80.007 51.122, 80.007 102 C 80.007 152.897, 80.069 154.601, 82.026 157.810 C 86.766 165.585, 98.016 165.880, 103.912 158.385 C 105.971 155.768, 106 154.973, 106 102 C 106 48.397, 105.995 48.263, 103.832 45.514 C 101.462 42.501, 96.369 39.978, 92.782 40.039 C 91.527 40.061, 89.046 40.710, 87.270 41.483 M 127.270 63.483 C 125.493 64.255, 123.132 66.375, 122.023 68.193 C 120.070 71.398, 120.007 73.125, 120.004 124.102 L 120 176.704 122.283 180.102 C 123.750 182.287, 126.071 184.025, 128.783 184.969 C 132.492 186.261, 133.508 186.261, 137.217 184.969 C 139.929 184.025, 142.250 182.287, 143.717 180.102 L 146 176.704 145.996 124.102 C 145.993 73.106, 145.931 71.399, 143.974 68.190 C 141.893 64.776, 136.788 61.970, 132.782 62.039 C 131.527 62.061, 129.046 62.710, 127.270 63.483 M 47 81.752 C 40.785 84.856, 40.003 87.932, 40.002 109.282 C 40 130.422, 40.718 133.639, 46.190 136.974 C 53.232 141.268, 62.427 138.389, 65.399 130.961 C 66.656 127.820, 67 123.159, 67 109.295 C 67 93.548, 66.778 91.173, 64.956 87.409 C 61.622 80.522, 54.164 78.172, 47 81.752 M 165.555 88.894 C 160.255 92.497, 159.907 94.204, 159.913 116.640 C 159.919 139.338, 160.140 140.285, 166.304 144.044 C 170.382 146.530, 175.620 146.529, 179.701 144.040 C 185.531 140.486, 186 138.362, 186 115.535 L 186 94.971 182.665 91.331 C 179.766 88.168, 178.622 87.640, 173.915 87.292 C 169.688 86.980, 167.854 87.331, 165.555 88.894 " stroke="none" fill="white" fill-rule="evenodd" transform="scale(0.13333333333333333) translate(0 0)"></path>
    </g>
</svg>