<svg xmlns="http://www.w3.org/2000/svg" width="60" height="60" viewBox="0 0 60 60">
  <g fill="none" fill-rule="evenodd" transform="translate(5 5)">
    <rect width="48" height="48" x="1" y="1" stroke="#FFFFFF" stroke-opacity=".2" stroke-width="2" opacity="0" rx="4"/>
    <path fill="#FFFFFF" d="M39.8502877,21.8602044 C39.8499115,21.8861666 39.8495344,21.9121296 39.8491562,21.9380937 C39.5930625,22.6205937 39.0555625,22.8646562 38.3755625,22.8648125 C32.7025937,22.8668437 27.029625,22.8705937 21.3568125,22.8596562 C20.4691562,22.8580937 19.8324375,22.2105937 19.8505625,21.4109062 C19.8680625,20.6371562 20.48525,20.0329375 21.3319687,20.0316875 C27.0568125,20.0230937 32.7818125,20.0287187 38.5068125,20.0249687 C39.1897812,20.0245 39.63775,20.3321562 39.8630625,20.9727812 C39.8626848,20.9987029 39.8623081,21.0246246 39.8619323,21.0505463 C39.8897398,21.0246124 39.9203102,20.9987063 39.9536721,20.9728281 C40.0205189,20.9697031 40.085367,20.9765781 40.1482164,20.9934531 L40.1482164,21.9309531 L40.0407284,21.9303281 L39.9339067,21.9381406 C39.903683,21.9121369 39.875801,21.8861582 39.8502877,21.8602044 Z M10,28.3372031 C10.3676562,27.5467344 10.9982812,27.3581406 11.839375,27.3628281 C17.3548438,27.3931406 22.8704688,27.3776719 28.3860938,27.3790781 C29.4554688,27.3792344 30.1190625,27.8872031 30.1359375,28.7081406 C30.1539063,29.5884531 29.4634375,30.1945469 28.3964063,30.1956406 C22.8548438,30.2007969 17.313125,30.1895469 11.7715625,30.2076719 C10.983125,30.2101719 10.4504688,29.8511094 10,29.2747031 L10,28.3372031 Z M25.0413594,11.1562344 C26.2826094,11.1827969 27.5671406,11.3468594 28.8213594,11.7185781 C29.8388594,12.0199844 30.3021406,12.7027969 30.0579219,13.5371719 C29.8065156,14.3959219 29.0841719,14.7417031 28.0690156,14.4818594 C24.5362031,13.5777969 21.2574531,14.0918594 18.3102656,16.2912344 C16.6021406,17.5660781 15.3824531,19.2274844 14.6510469,21.2377969 C14.5801094,21.4329531 14.5143281,21.6304531 14.4329219,21.8212344 C14.0651094,22.6835781 13.3366719,23.0471719 12.5679219,22.7576406 C11.7868281,22.4634219 11.4513594,21.7256094 11.7404219,20.8412344 C12.8079219,17.5756094 14.7943281,15.0179531 17.7168281,13.2084219 C19.9366719,11.8340469 22.3763594,11.2015469 25.0413594,11.1562344 Z M24.8769063,38.9585312 C23.6669063,39.034625 22.4172188,38.797125 21.1834688,38.4694687 C20.1906563,38.205875 19.6800313,37.4647812 19.894875,36.6615 C20.127375,35.7924375 20.8914375,35.4272812 21.9394063,35.6847812 C28.0275313,37.1805625 33.3134688,34.3635312 35.4862813,28.46525 C35.839875,27.5054062 36.5306563,27.134 37.4395625,27.41525 C38.1670625,27.6400937 38.5114375,28.4944687 38.1875313,29.4443125 C36.7989375,33.5161875 34.114875,36.3882187 30.128,38.014625 C28.4753438,38.6888437 26.7483125,39.0235312 24.8769063,38.9585312 Z M34.982,15.9139375 C34.9905938,16.6483125 34.2999688,17.36175 33.5579375,17.3850312 C32.8296563,17.4078437 32.1080938,16.718 32.076375,15.9687812 C32.0454375,15.2347187 32.7393438,14.5247187 33.4993438,14.5125312 C34.250125,14.5006562 34.9734062,15.1844062 34.982,15.9139375 Z M17.8363594,34.2646719 C17.8260469,35.0170156 17.1863594,35.6693594 16.4591719,35.6688906 C15.6651094,35.6684219 15.0012031,35.0146719 15.0066719,34.2384219 C15.0121406,33.4529531 15.6687031,32.7985781 16.4515156,32.7982656 C17.2557344,32.7981094 17.8477656,33.4249844 17.8363594,34.2646719 Z"/>
  </g>
</svg>
