<svg width="60" height="60" viewBox="0 0 60 60" xmlns="http://www.w3.org/2000/svg">
    <rect fill="transparent" x="0" y="0" width="60" height="60" rx="4.8"></rect>

    <g width="30" height="30" viewBox="0 0 30 30" transform="translate(15, 15)" fill="#FFFFFF">
        <path d="M 79 94 C 79 94.550, 77.200 95, 75 95 C 72.800 95, 71 95.450, 71 96 C 71 96.550, 69.650 97, 68 97 C 66.350 97, 65 97.450, 65 98 C 65 98.550, 64.100 99, 63 99 C 61.900 99, 61 99.450, 61 100 C 61 100.550, 60.100 101, 59 101 C 57.900 101, 57 101.450, 57 102 C 57 102.550, 56.199 103, 55.221 103 C 54.242 103, 52.793 103.900, 52 105 C 51.207 106.100, 49.948 107, 49.201 107 C 48.454 107, 46.114 108.800, 44 111 C 41.886 113.200, 39.639 115, 39.007 115 C 37.522 115, 35 117.522, 35 119.007 C 35 119.639, 33.200 121.886, 31 124 C 28.800 126.114, 27 128.454, 27 129.201 C 27 129.948, 26.100 131.207, 25 132 C 23.900 132.793, 23 134.242, 23 135.221 C 23 136.199, 22.550 137, 22 137 C 21.450 137, 21 137.900, 21 139 C 21 140.100, 20.550 141, 20 141 C 19.450 141, 19 141.900, 19 143 C 19 144.100, 18.550 145, 18 145 C 17.450 145, 17 146.350, 17 148 C 17 149.650, 16.550 151, 16 151 C 15.450 151, 15 152.350, 15 154 C 15 155.650, 14.550 157, 14 157 C 13.450 157, 13 159.250, 13 162 C 13 164.750, 12.550 167, 12 167 C 11.389 167, 11 171.667, 11 179 C 11 186.333, 11.389 191, 12 191 C 12.550 191, 13 193.250, 13 196 C 13 198.750, 13.450 201, 14 201 C 14.550 201, 15 202.350, 15 204 C 15 205.650, 15.450 207, 16 207 C 16.550 207, 17 208.350, 17 210 C 17 211.650, 17.450 213, 18 213 C 18.550 213, 19 214.251, 19 215.779 C 19 217.411, 19.826 219.153, 21 220 C 22.100 220.793, 23 222.242, 23 223.221 C 23 224.199, 23.450 225, 24 225 C 24.550 225, 25 225.710, 25 226.578 C 25 227.447, 26.800 229.886, 29 232 C 31.200 234.114, 33 236.343, 33 236.955 C 33 238.412, 39.605 245, 41.065 245 C 41.688 245, 43.459 246.350, 45 248 C 46.541 249.650, 48.423 251, 49.180 251 C 49.938 251, 51.207 251.900, 52 253 C 52.793 254.100, 54.242 255, 55.221 255 C 56.199 255, 57 255.450, 57 256 C 57 256.550, 57.900 257, 59 257 C 60.100 257, 61 257.450, 61 258 C 61 258.550, 61.900 259, 63 259 C 64.100 259, 65 259.450, 65 260 C 65 260.550, 66.800 261, 69 261 C 71.200 261, 73 261.450, 73 262 C 73 262.550, 74.800 263, 77 263 C 79.200 263, 81 263.450, 81 264 C 81 264.630, 87.667 265, 99 265 C 110.333 265, 117 264.630, 117 264 C 117 263.450, 118.800 263, 121 263 C 123.200 263, 125 262.550, 125 262 C 125 261.450, 126.800 261, 129 261 C 131.200 261, 133 260.550, 133 260 C 133 259.450, 133.900 259, 135 259 C 136.100 259, 137 258.550, 137 258 C 137 257.450, 137.900 257, 139 257 C 140.100 257, 141 256.550, 141 256 C 141 255.450, 141.900 255, 143 255 C 144.100 255, 145 254.550, 145 254 C 145 253.450, 145.719 253, 146.599 253 C 147.478 253, 149.459 251.650, 151 250 C 152.541 248.350, 154.332 247, 154.980 247 C 155.627 247, 157.886 245.200, 160 243 C 162.114 240.800, 164.343 239, 164.955 239 C 166.388 239, 173 232.407, 173 230.978 C 173 230.379, 175.700 227.239, 179 224 C 182.300 220.761, 185 217.591, 185 216.957 C 185 216.322, 186.350 214.541, 188 213 C 189.650 211.459, 191 209.577, 191 208.820 C 191 208.062, 191.900 206.793, 193 206 C 194.100 205.207, 195 203.857, 195 203 C 195 202.143, 195.900 200.793, 197 200 C 198.100 199.207, 199 197.857, 199 197 C 199 196.143, 199.900 194.793, 201 194 C 202.100 193.207, 203 191.857, 203 191 C 203 190.143, 203.900 188.793, 205 188 C 206.100 187.207, 207 185.857, 207 185 C 207 184.143, 207.900 182.793, 209 182 C 210.100 181.207, 211 179.857, 211 179 C 211 178.143, 211.900 176.793, 213 176 C 214.100 175.207, 215 173.938, 215 173.180 C 215 172.423, 216.350 170.541, 218 169 C 219.650 167.459, 221 165.698, 221 165.087 C 221 163.393, 241.764 143, 243.488 143 C 244.320 143, 245 142.550, 245 142 C 245 141.450, 245.900 141, 247 141 C 248.100 141, 249 140.550, 249 140 C 249 139.450, 249.900 139, 251 139 C 252.100 139, 253 138.550, 253 138 C 253 137.450, 254.800 137, 257 137 C 259.200 137, 261 136.550, 261 136 C 261 135.394, 265.333 135, 272 135 C 278.667 135, 283 135.394, 283 136 C 283 136.550, 284.350 137, 286 137 C 287.650 137, 289 137.450, 289 138 C 289 138.550, 289.900 139, 291 139 C 292.100 139, 293 139.450, 293 140 C 293 140.550, 293.801 141, 294.779 141 C 295.758 141, 297.207 141.900, 298 143 C 298.793 144.100, 300.049 145, 300.792 145 C 302.533 145, 305 147.467, 305 149.208 C 305 149.951, 305.900 151.207, 307 152 C 308.100 152.793, 309 154.143, 309 155 C 309 155.857, 309.900 157.207, 311 158 C 312.174 158.847, 313 160.589, 313 162.221 C 313 163.749, 313.450 165, 314 165 C 314.556 165, 315 167.667, 315 171 C 315 174.333, 315.444 177, 316 177 C 316.550 177, 317 177.900, 317 179 C 317 180.100, 316.550 181, 316 181 C 315.444 181, 315 183.667, 315 187 C 315 190.333, 314.556 193, 314 193 C 313.450 193, 313 194.350, 313 196 C 313 197.650, 312.550 199, 312 199 C 311.450 199, 311 199.719, 311 200.599 C 311 201.478, 309.650 203.459, 308 205 C 306.350 206.541, 305 208.329, 305 208.973 C 305 210.562, 302.452 213, 300.792 213 C 300.049 213, 298.793 213.900, 298 215 C 297.207 216.100, 295.758 217, 294.779 217 C 293.801 217, 293 217.450, 293 218 C 293 218.550, 292.100 219, 291 219 C 289.900 219, 289 219.450, 289 220 C 289 220.550, 287.650 221, 286 221 C 284.350 221, 283 221.450, 283 222 C 283 222.606, 278.667 223, 272 223 C 265.333 223, 261 222.606, 261 222 C 261 221.450, 259.200 221, 257 221 C 254.800 221, 253 220.550, 253 220 C 253 219.450, 252.100 219, 251 219 C 249.900 219, 249 218.550, 249 218 C 249 217.450, 248.100 217, 247 217 C 245.900 217, 245 216.550, 245 216 C 245 215.450, 244.300 215, 243.445 215 C 242.589 215, 239.239 212.300, 236 209 C 232.761 205.700, 229.411 203, 228.555 203 C 227.700 203, 227 202.281, 227 201.401 C 227 200.522, 225.650 198.541, 224 197 C 222.350 195.459, 221 193.688, 221 193.065 C 221 191.379, 214.303 185, 212.533 185 C 211.690 185, 211 185.801, 211 186.779 C 211 187.758, 210.100 189.207, 209 190 C 207.900 190.793, 207 192.143, 207 193 C 207 193.857, 206.100 195.207, 205 196 C 203.900 196.793, 203 198.143, 203 199 C 203 199.857, 202.100 201.207, 201 202 C 199.900 202.793, 199 204.062, 199 204.820 C 199 205.577, 197.650 207.459, 196 209 C 194.350 210.541, 193 212.423, 193 213.180 C 193 213.938, 192.100 215.207, 191 216 C 187.654 218.412, 188.548 221.690, 194 227 C 196.750 229.679, 199 232.382, 199 233.007 C 199 234.474, 201.526 237, 202.993 237 C 203.618 237, 206.321 239.250, 209 242 C 211.679 244.750, 214.475 247, 215.214 247 C 215.954 247, 217.207 247.900, 218 249 C 218.793 250.100, 220.143 251, 221 251 C 221.857 251, 223.207 251.900, 224 253 C 224.793 254.100, 226.242 255, 227.221 255 C 228.199 255, 229 255.450, 229 256 C 229 256.550, 229.900 257, 231 257 C 232.100 257, 233 257.450, 233 258 C 233 258.550, 234.350 259, 236 259 C 237.650 259, 239 259.450, 239 260 C 239 260.550, 240.350 261, 242 261 C 243.650 261, 245 261.450, 245 262 C 245 262.550, 246.800 263, 249 263 C 251.200 263, 253 263.450, 253 264 C 253 264.630, 259.667 265, 271 265 C 282.333 265, 289 264.630, 289 264 C 289 263.450, 290.800 263, 293 263 C 295.200 263, 297 262.550, 297 262 C 297 261.450, 298.800 261, 301 261 C 303.200 261, 305 260.550, 305 260 C 305 259.450, 305.900 259, 307 259 C 308.100 259, 309 258.550, 309 258 C 309 257.450, 309.900 257, 311 257 C 312.100 257, 313 256.550, 313 256 C 313 255.450, 313.801 255, 314.779 255 C 315.758 255, 317.207 254.100, 318 253 C 318.793 251.900, 320.062 251, 320.820 251 C 321.577 251, 323.459 249.650, 325 248 C 326.541 246.350, 328.312 245, 328.935 245 C 330.395 245, 337 238.412, 337 236.955 C 337 236.343, 338.800 234.114, 341 232 C 343.200 229.886, 345 227.447, 345 226.578 C 345 225.710, 345.450 225, 346 225 C 346.550 225, 347 224.199, 347 223.221 C 347 222.242, 347.900 220.793, 349 220 C 350.174 219.153, 351 217.411, 351 215.779 C 351 214.251, 351.450 213, 352 213 C 352.550 213, 353 211.650, 353 210 C 353 208.350, 353.450 207, 354 207 C 354.550 207, 355 205.650, 355 204 C 355 202.350, 355.450 201, 356 201 C 356.550 201, 357 198.750, 357 196 C 357 193.250, 357.450 191, 358 191 C 358.611 191, 359 186.333, 359 179 C 359 171.667, 358.611 167, 358 167 C 357.450 167, 357 164.750, 357 162 C 357 159.250, 356.550 157, 356 157 C 355.450 157, 355 155.650, 355 154 C 355 152.350, 354.550 151, 354 151 C 353.450 151, 353 149.650, 353 148 C 353 146.350, 352.550 145, 352 145 C 351.450 145, 351 144.100, 351 143 C 351 141.900, 350.550 141, 350 141 C 349.450 141, 349 140.100, 349 139 C 349 137.900, 348.550 137, 348 137 C 347.450 137, 347 136.199, 347 135.221 C 347 134.242, 346.100 132.793, 345 132 C 343.900 131.207, 343 129.948, 343 129.201 C 343 128.454, 341.200 126.114, 339 124 C 336.800 121.886, 335 119.639, 335 119.007 C 335 117.522, 332.478 115, 330.993 115 C 330.361 115, 328.114 113.200, 326 111 C 323.886 108.800, 321.546 107, 320.799 107 C 320.052 107, 318.793 106.100, 318 105 C 317.207 103.900, 315.758 103, 314.779 103 C 313.801 103, 313 102.550, 313 102 C 313 101.450, 312.100 101, 311 101 C 309.900 101, 309 100.550, 309 100 C 309 99.450, 308.100 99, 307 99 C 305.900 99, 305 98.550, 305 98 C 305 97.450, 303.650 97, 302 97 C 300.350 97, 299 96.550, 299 96 C 299 95.450, 297.200 95, 295 95 C 292.800 95, 291 94.550, 291 94 C 291 93.368, 284 93, 272 93 C 260 93, 253 93.368, 253 94 C 253 94.550, 251.200 95, 249 95 C 246.800 95, 245 95.450, 245 96 C 245 96.550, 243.650 97, 242 97 C 240.350 97, 239 97.450, 239 98 C 239 98.550, 237.650 99, 236 99 C 234.350 99, 233 99.450, 233 100 C 233 100.550, 232.100 101, 231 101 C 229.900 101, 229 101.450, 229 102 C 229 102.550, 228.199 103, 227.221 103 C 226.242 103, 224.793 103.900, 224 105 C 223.207 106.100, 221.857 107, 221 107 C 220.143 107, 218.793 107.900, 218 109 C 217.207 110.100, 215.979 111, 215.270 111 C 213.701 111, 187 137.531, 187 139.090 C 187 139.699, 185.650 141.459, 184 143 C 182.350 144.541, 181 146.423, 181 147.180 C 181 147.938, 180.100 149.207, 179 150 C 177.900 150.793, 177 152.143, 177 153 C 177 153.857, 176.100 155.207, 175 156 C 173.900 156.793, 173 158.143, 173 159 C 173 159.857, 172.100 161.207, 171 162 C 169.900 162.793, 169 164.062, 169 164.820 C 169 165.577, 167.650 167.459, 166 169 C 164.350 170.541, 163 172.522, 163 173.401 C 163 174.281, 162.550 175, 162 175 C 161.450 175, 161 175.801, 161 176.779 C 161 177.758, 160.100 179.207, 159 180 C 157.900 180.793, 157 182.062, 157 182.820 C 157 183.577, 155.650 185.459, 154 187 C 152.350 188.541, 151 190.332, 151 190.980 C 151 191.627, 149.200 193.886, 147 196 C 144.800 198.114, 143 200.553, 143 201.422 C 143 202.290, 142.300 203, 141.445 203 C 140.589 203, 137.239 205.700, 134 209 C 130.761 212.300, 127.411 215, 126.555 215 C 125.700 215, 125 215.450, 125 216 C 125 216.550, 124.100 217, 123 217 C 121.900 217, 121 217.450, 121 218 C 121 218.550, 120.100 219, 119 219 C 117.900 219, 117 219.450, 117 220 C 117 220.550, 115.200 221, 113 221 C 110.800 221, 109 221.450, 109 222 C 109 222.606, 104.667 223, 98 223 C 91.333 223, 87 222.606, 87 222 C 87 221.450, 85.650 221, 84 221 C 82.350 221, 81 220.550, 81 220 C 81 219.450, 80.100 219, 79 219 C 77.900 219, 77 218.550, 77 218 C 77 217.450, 76.199 217, 75.221 217 C 74.242 217, 72.793 216.100, 72 215 C 71.207 213.900, 69.951 213, 69.208 213 C 67.467 213, 65 210.533, 65 208.792 C 65 208.049, 64.100 206.793, 63 206 C 61.900 205.207, 61 203.857, 61 203 C 61 202.143, 60.100 200.793, 59 200 C 57.826 199.153, 57 197.411, 57 195.779 C 57 194.251, 56.550 193, 56 193 C 55.444 193, 55 190.333, 55 187 C 55 183.667, 54.556 181, 54 181 C 53.450 181, 53 180.100, 53 179 C 53 177.900, 53.450 177, 54 177 C 54.556 177, 55 174.333, 55 171 C 55 167.667, 55.444 165, 56 165 C 56.550 165, 57 164.100, 57 163 C 57 161.900, 57.450 161, 58 161 C 58.550 161, 59 160.100, 59 159 C 59 157.900, 59.450 157, 60 157 C 60.550 157, 61 156.199, 61 155.221 C 61 154.242, 61.900 152.793, 63 152 C 64.100 151.207, 65 149.951, 65 149.208 C 65 147.467, 67.467 145, 69.208 145 C 69.951 145, 71.207 144.100, 72 143 C 72.793 141.900, 74.242 141, 75.221 141 C 76.199 141, 77 140.550, 77 140 C 77 139.450, 77.900 139, 79 139 C 80.100 139, 81 138.550, 81 138 C 81 137.450, 82.350 137, 84 137 C 85.650 137, 87 136.550, 87 136 C 87 135.389, 91.667 135, 99 135 C 106.333 135, 111 135.389, 111 136 C 111 136.550, 112.350 137, 114 137 C 115.650 137, 117 137.450, 117 138 C 117 138.550, 117.900 139, 119 139 C 120.100 139, 121 139.450, 121 140 C 121 140.550, 121.900 141, 123 141 C 124.100 141, 125 141.450, 125 142 C 125 142.550, 125.700 143, 126.555 143 C 127.411 143, 130.761 145.700, 134 149 C 137.239 152.300, 140.589 155, 141.445 155 C 142.333 155, 143 155.857, 143 157 C 143 158.137, 143.667 159, 144.545 159 C 146.435 159, 151 154.591, 151 152.766 C 151 152.038, 151.900 150.793, 153 150 C 154.100 149.207, 155 147.857, 155 147 C 155 146.143, 155.900 144.793, 157 144 C 158.100 143.207, 159 141.857, 159 141 C 159 140.143, 159.900 138.793, 161 138 C 162.100 137.207, 163 135.938, 163 135.180 C 163 134.423, 164.350 132.541, 166 131 C 168.258 128.890, 169 127.308, 169 124.599 C 169 122, 168.565 121, 167.435 121 C 166.574 121, 163.679 118.750, 161 116 C 158.321 113.250, 155.606 111, 154.966 111 C 154.326 111, 152.541 109.650, 151 108 C 149.459 106.350, 147.478 105, 146.599 105 C 145.719 105, 145 104.550, 145 104 C 145 103.450, 144.100 103, 143 103 C 141.900 103, 141 102.550, 141 102 C 141 101.450, 140.100 101, 139 101 C 137.900 101, 137 100.550, 137 100 C 137 99.450, 135.650 99, 134 99 C 132.350 99, 131 98.550, 131 98 C 131 97.450, 129.650 97, 128 97 C 126.350 97, 125 96.550, 125 96 C 125 95.450, 123.200 95, 121 95 C 118.800 95, 117 94.550, 117 94 C 117 93.368, 110 93, 98 93 C 86 93, 79 93.368, 79 94 " stroke="none" fill="white" fill-rule="evenodd" transform="scale(0.08241758241758242) translate(-4 0)"></path>
    </g>
</svg>