<svg width="60" height="60" viewBox="0 0 60 60" xmlns="http://www.w3.org/2000/svg">
    <rect fill="transparent" x="0" y="0" width="60" height="60" rx="4.8"></rect>

    <g width="30" height="30" viewBox="0 0 30 30" transform="translate(15, 15)" fill="#FFFFFF">
        <path d="M 85.503 30.172 C 66.756 32.308, 53.136 37.691, 44.586 46.346 C 33.407 57.659, 29 74.670, 29 106.500 C 29 131.111, 31.223 143.785, 37.953 157.536 C 48.905 179.917, 73.569 190.984, 112.500 190.984 C 151.431 190.984, 176.095 179.917, 187.047 157.536 C 193.777 143.785, 196 131.111, 196 106.500 C 196 65.961, 188.502 47.551, 167.982 37.710 C 160.492 34.118, 143.727 30, 136.593 30 C 133.197 30, 133 30.180, 133 33.292 C 133 38.807, 130.014 59.777, 127.345 73 C 124.344 87.869, 116.212 113.100, 111.713 121.500 C 107.340 129.665, 106.037 129.696, 92.917 121.952 C 87.188 118.570, 82.169 115.285, 81.765 114.652 C 79.733 111.466, 82.358 107, 86.263 107 C 87.429 107, 91.520 108.863, 95.353 111.140 C 103.622 116.053, 103.238 116.295, 108.056 103.128 C 114.408 85.769, 119.371 62.262, 122.492 34.750 L 123.144 29 108.322 29.131 C 100.170 29.203, 89.902 29.671, 85.503 30.172 M 73.635 70.073 C 68.102 74.425, 71.378 83.400, 78.500 83.400 C 83.094 83.400, 86 80.324, 86 75.462 C 86 71.700, 82.281 68, 78.500 68 C 77.273 68, 75.084 68.933, 73.635 70.073 M 141.635 70.073 C 136.102 74.425, 139.378 83.400, 146.500 83.400 C 151.094 83.400, 154 80.324, 154 75.462 C 154 71.700, 150.281 68, 146.500 68 C 145.273 68, 143.084 68.933, 141.635 70.073 M 77.571 138.571 C 74.643 141.500, 75.699 144.524, 81.503 149.829 C 97.219 164.192, 127.781 164.192, 143.497 149.829 C 149.399 144.435, 150.353 141.534, 147.171 138.655 C 144.444 136.187, 142.548 136.613, 138.321 140.644 C 136.220 142.648, 132.025 145.461, 129 146.894 C 124.111 149.211, 122.279 149.500, 112.500 149.500 C 102.721 149.500, 100.889 149.211, 96 146.894 C 92.975 145.461, 88.780 142.648, 86.679 140.644 C 82.534 136.692, 80.023 136.120, 77.571 138.571 " stroke="none" fill="white" fill-rule="evenodd" transform="scale(0.13333333333333333) translate(0 0)"></path>
    </g>
</svg>