<svg width="60" height="60" viewBox="0 0 60 60" xmlns="http://www.w3.org/2000/svg">
    <rect fill="transparent" x="0" y="0" width="60" height="60" rx="4.8"></rect>

    <g width="30" height="30" viewBox="0 0 30 30" transform="translate(15, 15)" fill="#FFFFFF">
        <path d="M 411.168 118.603 C 399.605 124.366, 394.901 137.804, 400.351 149.507 C 403.400 156.055, 408.659 160.554, 415.631 162.581 C 435.377 168.321, 452.370 148.221, 443.633 129.459 C 437.871 117.086, 423.714 112.352, 411.168 118.603 M 699.973 147.277 C 681.974 153.413, 670 170.288, 670 189.516 C 670 224.957, 708.980 246.555, 738.500 227.471 C 758.132 214.779, 764.924 191.393, 755.084 170.365 C 749.655 158.765, 738.829 149.638, 726.650 146.395 C 718.771 144.297, 707.633 144.665, 699.973 147.277 M 544.350 249.017 C 465.633 260.935, 399.072 313.174, 367.873 387.523 L 365.346 393.546 355.923 395.334 C 336.392 399.042, 316.365 407.197, 299.830 418.176 C 287.830 426.144, 268.588 445.305, 260.340 457.500 C 235.431 494.331, 227.291 539.263, 237.911 581.312 C 241.302 594.741, 244.561 603.258, 251.267 616.219 L 256.295 625.938 247.243 635.407 C 227.021 656.560, 212.549 684.750, 205.869 716 C 202.840 730.170, 202.561 762.383, 205.340 776.995 C 207.817 790.012, 213.252 806.521, 219.040 818.607 C 234.494 850.876, 263.211 879.587, 294.521 894.072 C 305.661 899.225, 324.262 905.484, 333.355 907.138 C 337.125 907.823, 340.337 908.860, 340.492 909.442 C 340.647 910.024, 341.302 915.755, 341.946 922.178 C 346.744 970.005, 369.795 1012.887, 406.521 1042.309 C 459.575 1084.812, 530.830 1093.565, 592.335 1065.135 C 603.146 1060.137, 616.629 1051.959, 622.329 1046.941 L 626.575 1043.204 630.037 1046.169 C 640.271 1054.931, 659.632 1065.782, 673 1070.248 C 689.187 1075.656, 695.103 1076.502, 716.500 1076.469 C 734.987 1076.441, 737.273 1076.234, 746.721 1073.736 C 767.665 1068.201, 783.333 1060.223, 799.368 1046.930 C 818.758 1030.856, 833.636 1008.471, 840.964 984.345 L 843.102 977.306 858.301 976.679 C 908.589 974.605, 949.893 957.260, 984.864 923.531 C 1047.867 862.767, 1061.898 765.654, 1018.677 689.500 L 1014.136 681.500 1022.378 673 C 1042.419 652.330, 1052.665 628.423, 1053.738 599.824 C 1054.343 583.707, 1053.072 573.462, 1048.873 560.610 C 1038.190 527.915, 1012.134 501.350, 980.168 490.563 L 973.500 488.313 973.820 476.407 C 975.262 422.748, 955.400 371.492, 918.199 332.869 C 884.493 297.874, 841.446 277.109, 792.144 272.060 C 765.969 269.380, 741.256 271.891, 712.858 280.114 L 702.216 283.196 695.358 279.019 C 676.543 267.558, 650.385 257.225, 626.931 251.989 C 603.153 246.681, 568.110 245.420, 544.350 249.017 M 315.746 284.024 C 305.601 286.581, 297.273 293.326, 292.317 303 C 289.842 307.833, 289.501 309.592, 289.505 317.500 C 289.509 324.620, 289.964 327.485, 291.684 331.217 C 294.731 337.827, 302.239 345.479, 308.875 348.738 C 313.759 351.136, 315.686 351.499, 323.500 351.491 C 331.291 351.484, 333.258 351.112, 338.143 348.720 C 345.029 345.347, 351.299 338.748, 354.811 331.175 C 358.548 323.118, 358.559 311.904, 354.837 303.880 C 351.246 296.139, 345.906 290.571, 338.642 286.995 C 331.825 283.639, 322.220 282.393, 315.746 284.024 M 1040.383 391.949 C 1022.729 396.163, 1009.313 414.993, 1011.388 432.644 C 1012.540 442.443, 1015.708 448.891, 1022.909 456.091 C 1031.327 464.510, 1037.828 467.234, 1049.500 467.234 C 1061.172 467.234, 1067.673 464.510, 1076.091 456.091 C 1084.651 447.532, 1087.327 441.131, 1087.416 429 C 1087.471 421.505, 1087.113 419.726, 1084.386 413.953 C 1080.663 406.068, 1076.544 401.188, 1070.222 397.175 C 1061.753 391.798, 1049.791 389.703, 1040.383 391.949 M 662.459 439.347 C 652.258 441.922, 646.875 445.562, 624.844 464.778 C 615.093 473.284, 607.801 477.186, 600.532 477.789 C 594.649 478.277, 593.732 477.920, 560.382 462.165 C 536.041 450.665, 532.488 449.606, 518.500 449.681 C 498.141 449.790, 478.642 457.356, 460.235 472.290 C 443.780 485.641, 434.803 502.725, 415.198 558 C 397.205 608.730, 354.330 748.294, 351.913 764 C 349.915 776.978, 351.819 790.105, 357.516 802.629 C 369.353 828.656, 394.820 844.009, 426.500 844.217 C 445.963 844.345, 457.607 840.269, 468.540 829.500 C 482.397 815.852, 480.988 818.979, 534.998 682 C 576.389 577.027, 575.157 579.912, 580.660 575.068 C 588.099 568.520, 598.546 566.208, 605.300 569.614 C 614.036 574.020, 618.155 581.040, 618.790 592.601 C 619.207 600.183, 618.940 601.570, 614.626 614.290 C 612.090 621.763, 603.684 643.543, 595.945 662.689 C 557.722 757.250, 557.447 758.026, 558.232 769 C 559.608 788.235, 573.739 798.211, 597.500 796.721 C 611.609 795.836, 621.965 790.106, 631.098 778.130 C 634.137 774.145, 645.368 753.175, 661.090 722.130 C 716.194 613.322, 737.382 572.200, 741.649 565.778 C 749.449 554.041, 757.963 548.832, 766.676 550.467 C 776.245 552.262, 779.530 556.681, 779.335 567.500 C 779.143 578.138, 776.636 584.046, 741.998 655.500 C 710.354 720.777, 702.347 738.859, 699.537 751.385 C 693.628 777.719, 700.275 804.787, 718.191 827.349 C 734.550 847.951, 755.895 858.653, 792.500 864.606 C 805.648 866.744, 834.780 867.144, 842.596 865.294 C 856.175 862.079, 865.148 856.550, 868.981 849.038 C 873.285 840.600, 872.375 827.579, 866.959 820.102 C 861.069 811.971, 852.584 808.825, 824.983 804.540 C 799.816 800.632, 790.698 796.194, 785.314 785.230 C 782.699 779.905, 782.507 778.687, 782.597 768 C 782.821 741.611, 791.468 715.418, 825.047 639.422 C 834.494 618.042, 844.257 595.588, 846.742 589.525 C 867.508 538.862, 869.825 515.902, 856.874 489.128 C 849.414 473.704, 835.925 463.166, 817.500 458.369 C 812.004 456.938, 806.632 456.541, 792.500 456.523 C 771.020 456.496, 767.361 457.248, 753.123 464.624 C 742.095 470.337, 738.066 471.120, 733.046 468.524 C 731.476 467.712, 725.085 462.287, 718.845 456.468 C 710.504 448.690, 705.529 444.910, 700.055 442.194 C 692.777 438.583, 692.327 438.495, 680.055 438.287 C 672.471 438.158, 665.504 438.578, 662.459 439.347 M 1164.491 532.865 C 1150.628 539.163, 1147.849 557.636, 1159.257 567.653 C 1172.872 579.607, 1194 570.336, 1194 552.408 C 1194 545.857, 1193.031 543.244, 1188.826 538.454 C 1184.718 533.775, 1178.884 531.044, 1173 531.044 C 1170.525 531.044, 1166.696 531.863, 1164.491 532.865 M 135.856 570.316 C 127.859 573.042, 122.323 576.734, 116.467 583.248 C 96.741 605.188, 103.871 640.437, 130.720 653.706 C 137.407 657.011, 139.251 657.462, 147.552 657.825 C 158.503 658.304, 167.545 656.061, 175.259 650.952 C 189.819 641.308, 198.049 622.670, 195.081 606.063 C 190.053 577.932, 162.429 561.259, 135.856 570.316 M 1107.606 664.568 C 1094.252 669.462, 1086.346 685.360, 1090.375 699.219 C 1092.373 706.090, 1099.077 713.891, 1105.772 717.132 C 1112.170 720.231, 1122.591 720.331, 1129.089 717.356 C 1147.297 709.020, 1151.649 685.518, 1137.589 671.458 C 1129.684 663.553, 1117.817 660.826, 1107.606 664.568 M 279.907 942.327 C 273.315 945.807, 269.685 951.586, 269.188 959.391 C 268.701 967.040, 270.439 971.357, 276.046 976.423 C 290.881 989.825, 314.698 975.584, 310.026 956.107 C 306.857 942.899, 291.838 936.028, 279.907 942.327 M 899.265 1011.477 C 875.523 1018.163, 860.165 1040.981, 863.763 1064.223 C 867.373 1087.548, 887.269 1104.881, 910.540 1104.976 C 923.136 1105.027, 934.802 1100.156, 944.134 1090.950 C 950.273 1084.894, 953.880 1078.660, 956.539 1069.512 C 958.795 1061.755, 958.110 1048.837, 955.012 1040.676 C 950.303 1028.272, 938.328 1016.700, 926 1012.638 C 918.485 1010.162, 905.878 1009.615, 899.265 1011.477 M 616.734 1097.041 C 607.359 1099.368, 598.799 1106.722, 595.543 1115.247 C 593.261 1121.223, 593.747 1132.772, 596.521 1138.500 C 599.488 1144.625, 605.919 1150.452, 612.381 1152.869 C 623.890 1157.176, 634.259 1154.901, 643.009 1146.151 C 652.560 1136.600, 654.658 1124.151, 648.698 1112.390 C 642.854 1100.859, 628.713 1094.067, 616.734 1097.041 " stroke="none" fill="white" fill-rule="evenodd" transform="scale(0.023809523809523808) translate(0 0)"></path>
    </g>
</svg>