<svg width="60" height="60" viewBox="0 0 60 60" xmlns="http://www.w3.org/2000/svg">
    <rect fill="transparent" x="0" y="0" width="60" height="60" rx="4.8"></rect>

    <g width="30" height="30" viewBox="0 0 30 30" transform="translate(15, 15)" fill="#FFFFFF">
        <path d="M 240 9.588 C 238.075 9.815, 232.225 10.467, 227 11.036 C 147.692 19.676, 74.700 70.667, 38.101 143 C 2.762 212.843, 2.197 292.082, 36.537 362.500 C 70.934 433.035, 137.813 482.694, 216.500 496.127 C 231.906 498.757, 265.074 499.756, 281.141 498.074 C 379.662 487.758, 461.774 420.186, 490.861 325.491 C 497.570 303.650, 500.044 287.544, 500.717 261.346 C 501.320 237.851, 500.298 224.339, 496.492 205.500 C 483.645 141.910, 445.414 85.379, 390.987 49.491 C 361.563 30.090, 327.756 17.181, 292.500 11.883 C 280.170 10.030, 248.114 8.629, 240 9.588 M 240.988 50.071 C 212.041 52.038, 179.933 61.965, 153.957 76.981 C 134.103 88.457, 110.523 108.814, 96.017 127 C 72.570 156.396, 57.120 192.104, 51.886 229 C 49.948 242.658, 50.167 273.830, 52.297 287.500 C 62.895 355.523, 104.950 412.611, 166.500 442.526 C 195.743 456.740, 223.262 463, 256.500 463 C 303.039 463, 345.010 448.722, 382.500 420.135 C 390.683 413.895, 407.983 397.037, 415.056 388.408 C 466.658 325.464, 477.027 238.263, 441.566 165.466 C 409.070 98.753, 344.521 55.329, 270 50.047 C 262.025 49.482, 254.825 49.080, 254 49.155 C 253.175 49.229, 247.319 49.641, 240.988 50.071 M 250.539 110.520 C 241.420 112.869, 234.929 122.899, 236.434 132.313 C 238.228 143.534, 248.403 151.112, 259.451 149.455 C 264.963 148.629, 269.009 146.165, 272.609 141.445 C 278.004 134.372, 276.833 120.555, 270.356 114.871 C 265.069 110.230, 257.832 108.641, 250.539 110.520 M 161 146.121 C 154.760 148.602, 148.007 158.953, 148.032 166 C 148.049 170.860, 151.080 177.047, 155.108 180.443 C 165.454 189.166, 178.371 187.606, 185.658 176.753 C 191.379 168.233, 190.998 159.863, 184.547 152.327 C 182.633 150.090, 179.521 147.526, 177.632 146.630 C 173.841 144.831, 164.930 144.558, 161 146.121 M 295.455 194.324 C 262.130 221.822, 239.734 240.995, 238.513 243.074 C 235.367 248.429, 235.691 258.424, 239.183 263.700 C 246.707 275.070, 261.849 276.024, 271.635 265.745 C 277.827 259.241, 309.939 220.799, 336.309 188.323 C 357.208 162.585, 360 158.733, 360 155.630 C 360 151.621, 357.220 149, 352.970 149 C 351.035 149, 336.556 160.410, 295.455 194.324 M 124.500 234.514 C 113.894 240.214, 109.919 253.327, 115.762 263.333 C 121.573 273.282, 137.078 275.854, 145.998 268.348 C 151.101 264.055, 153.275 258.665, 152.816 251.451 C 152.365 244.362, 149.826 239.790, 144.200 235.935 C 139.689 232.844, 129.038 232.076, 124.500 234.514 M 370.384 234.913 C 360.854 239.241, 356.611 252.255, 361.554 262 C 364.580 267.967, 372.708 273, 379.319 273 C 396.163 273, 405.578 253.761, 395.350 240.241 C 390.099 233.300, 379.103 230.954, 370.384 234.913 M 164.123 319.981 C 153.576 322.538, 145.836 335.835, 148.915 346.109 C 151.176 353.658, 161.215 360.932, 169.434 360.978 C 179.119 361.032, 189.761 350.410, 189.951 340.500 C 190.075 334.013, 184.242 324.708, 178.075 321.554 C 174.496 319.723, 168.140 319.006, 164.123 319.981 M 337.625 320.469 C 329.727 323.284, 323.044 332.466, 323.044 340.500 C 323.044 345.920, 326.063 352.184, 330.195 355.335 C 342.712 364.882, 355.151 362.177, 361.617 348.500 C 367.176 336.740, 361.994 324.974, 349.252 320.427 C 344.519 318.738, 342.461 318.745, 337.625 320.469 M 247.384 357.913 C 239.235 361.614, 234.354 372.500, 236.932 381.225 C 239.872 391.176, 247.663 396.554, 258.052 395.803 C 269.735 394.958, 276.599 386.754, 275.823 374.567 C 275.523 369.854, 274.744 367.211, 272.776 364.238 C 267.751 356.644, 256.403 353.818, 247.384 357.913 " stroke="none" fill="white" fill-rule="evenodd" transform="scale(0.05859375) translate(0 0)"></path>
    </g>
</svg>