<svg width="60" height="60" viewBox="0 0 60 60" xmlns="http://www.w3.org/2000/svg">
    <rect fill="transparent" x="0" y="0" width="60" height="60" rx="4.8"></rect>

    <g width="30" height="30" viewBox="0 0 30 30" transform="translate(15, 15)" fill="#FFFFFF">
        <path d="M 708.500 0.684 C 688.602 2.411, 663.366 8.463, 645.048 15.900 C 620.633 25.812, 601.034 38.871, 581.938 57.949 C 569.314 70.560, 560.924 81.082, 552.641 94.687 C 542.238 111.773, 540.328 116.338, 507.457 202.656 C 497.581 228.592, 489.361 249.678, 489.191 249.514 C 489.021 249.349, 488.228 244.104, 487.429 237.857 C 481.977 195.222, 470.052 160.513, 453.465 139 C 448.216 132.193, 436.012 120.396, 430 116.318 C 402.105 97.398, 364.339 92.457, 305.362 100.013 C 296.638 101.131, 273.300 104.705, 253.500 107.956 C 210.536 115.011, 199.730 116.546, 179.236 118.510 C 161.113 120.246, 128.157 120.463, 114.211 118.938 C 74.749 114.624, 42.154 100.173, 16.181 75.477 C 8.162 67.853, 6.047 66.299, 5.625 67.721 C 5.335 68.699, 4.087 77.150, 2.853 86.500 C 1.004 100.508, 0.599 108.428, 0.554 131.500 C 0.497 161.113, 1.082 167.266, 5.644 185 C 10.203 202.725, 20.782 220.242, 30.500 226.157 L 33.500 227.983 33.152 240.287 C 32.741 254.822, 34.219 262.183, 40.089 274.844 C 48.284 292.518, 61.764 306.859, 77.367 314.504 C 86.831 319.141, 97.687 321.667, 103.070 320.485 C 105.702 319.906, 105.896 320.135, 107.482 325.690 C 113.128 345.471, 125.612 360.824, 143 369.369 C 167.424 381.373, 200.377 383.668, 265.500 377.900 C 283.086 376.342, 298.210 375.672, 316.500 375.638 C 339.796 375.595, 343.574 375.823, 352.825 377.829 C 366.269 380.745, 373.993 383.929, 382.081 389.891 C 405.248 406.967, 409.143 443.300, 393.670 498 C 392.347 502.675, 360.111 588.175, 322.033 688 C 283.955 787.825, 245.195 889.437, 235.900 913.805 C 226.605 938.172, 219 958.310, 219 958.555 C 219 958.800, 260.744 959, 311.765 959 L 404.531 959 406.368 953.750 C 409.604 944.503, 566.750 525.408, 597.506 444 C 661.981 273.341, 675.508 238.719, 680.963 230.398 C 705.172 193.467, 759.657 184.247, 803.295 209.697 C 807.582 212.197, 811.327 214.006, 811.617 213.717 C 812.082 213.252, 876.560 35.856, 877.681 31.956 C 878.022 30.770, 875.075 29.315, 864.954 25.672 C 829.350 12.858, 791.523 4.100, 758.500 1.026 C 748.348 0.081, 717.847 -0.128, 708.500 0.684 M 103 181.207 C 103 199.781, 111.323 214.213, 125.402 220.048 L 130.683 222.237 129.385 225.868 C 124.126 240.588, 134.431 263.165, 149.858 270.723 C 154.676 273.083, 156.784 273.495, 164.295 273.542 L 173.089 273.597 177.091 281.820 C 183.965 295.948, 195.309 305.258, 211 309.652 C 216.238 311.118, 220.995 311.459, 235.500 311.407 C 251.787 311.348, 256.546 310.879, 285.500 306.480 C 316.559 301.760, 318.162 301.617, 340 301.608 C 360.085 301.600, 363.359 301.835, 370.500 303.794 C 384.577 307.655, 394.360 313.204, 404.247 322.936 L 412.995 331.545 413.704 328.023 C 414.094 326.085, 414.418 312.575, 414.424 298 C 414.437 269.158, 413.177 256.645, 408.502 239.194 C 401.141 211.718, 385.679 192.812, 363.850 184.595 C 351.065 179.783, 342.133 178.517, 321 178.522 C 300.585 178.527, 295.863 178.964, 256 184.531 C 213.430 190.477, 206.979 191.136, 186 191.684 C 153.880 192.523, 134.075 189.088, 114 179.194 C 108.775 176.619, 104.162 174.360, 103.750 174.173 C 103.338 173.986, 103 177.151, 103 181.207 M 677.750 360.269 C 655.337 420.906, 637.025 471.189, 637.055 472.009 C 637.085 472.829, 654.787 518.050, 676.393 572.500 C 698 626.950, 715.499 671.837, 715.280 672.250 C 715.061 672.663, 680.596 673.012, 638.691 673.026 L 562.500 673.052 534.500 748.134 C 519.100 789.429, 506.355 823.842, 506.177 824.608 C 505.902 825.792, 525.938 826, 640.304 826 C 746.682 826, 774.957 826.261, 775.724 827.250 C 776.256 827.938, 788.569 857.862, 803.084 893.750 L 829.477 959 914.628 959 L 999.780 959 986.613 925.750 C 979.371 907.462, 916.309 747.949, 846.473 571.275 C 776.638 394.601, 719.275 250.043, 719 250.035 C 718.725 250.027, 700.163 299.633, 677.750 360.269 " stroke="none" fill="white" fill-rule="evenodd" transform="scale(0.03125) translate(-20 0)"></path>
    </g>
</svg>