<svg width="60" height="60" viewBox="0 0 60 60" xmlns="http://www.w3.org/2000/svg">
    <rect fill="transparent" x="0" y="0" width="60" height="60" rx="4.8"></rect>

    <g width="30" height="30" viewBox="0 0 30 30" transform="translate(15, 15)" fill="#FFFFFF">
        <path d="M 89.905 9.954 C 70.155 14.121, 53.602 23.285, 38.443 38.443 C 22.982 53.905, 14.068 70.222, 9.799 90.881 C 8.164 98.789, 7.896 103.079, 8.289 115 C 9.003 136.669, 13.592 151.440, 24.984 168.732 C 53.419 211.895, 108.932 227.744, 155.619 206.029 C 183.746 192.946, 204.937 167.414, 212.538 137.451 C 214.387 130.161, 214.750 126.983, 214.119 123.605 C 212.218 113.435, 204.073 106.523, 194.014 106.546 C 184.068 106.568, 176.312 113.048, 174.053 123.221 C 169.592 143.306, 157.341 159.298, 139.782 167.955 C 114.581 180.379, 86.813 175.829, 66.964 156.020 C 61.119 150.188, 58.503 146.592, 55.309 140 C 49.917 128.874, 48.506 122.635, 48.634 110.500 C 48.923 83.249, 65.803 60.373, 92.148 51.529 C 99.501 49.060, 102.115 48.706, 114 48.565 C 127.909 48.401, 131.285 47.580, 136.356 43.129 C 142 38.176, 143.782 26.413, 140.009 19.018 C 137.779 14.647, 133.195 10.844, 128.101 9.138 C 122.776 7.355, 99.907 7.844, 89.905 9.954 M 187 21.587 C 184.845 22.515, 169.653 36.917, 147.474 59.056 L 111.448 95.016 106.008 89.509 C 99.458 82.875, 94.091 80.545, 86.948 81.231 C 73.820 82.492, 64.949 97.661, 70.500 109.358 C 71.324 111.096, 81.001 121.511, 92.002 132.502 L 112.006 152.487 162.024 102.493 C 194.850 69.684, 212.722 51.103, 214.021 48.434 C 218.770 38.678, 214.701 26.986, 204.790 21.903 C 200.291 19.595, 191.963 19.448, 187 21.587 " stroke="none" fill="white" fill-rule="evenodd" transform="scale(0.13333333333333333) translate(0 0)"></path>
    </g>
</svg>