<svg width="60" height="60" viewBox="0 0 60 60" xmlns="http://www.w3.org/2000/svg">
    <rect fill="transparent" x="0" y="0" width="60" height="60" rx="4.8"></rect>

    <g width="30" height="30" viewBox="0 0 30 30" transform="translate(15, 15)" fill="#FFFFFF">
        <path d="M 71.047 1.138 C 35.900 6.965, 6.757 36.472, 1.058 72 C 0.362 76.335, 0.017 137.623, 0.021 256 C 0.027 456.497, -0.508 442.587, 7.878 460.480 C 19.564 485.418, 39.470 501.760, 66.671 508.746 C 73.058 510.386, 85.228 510.500, 254.500 510.500 C 426.446 510.500, 435.891 510.408, 443.311 508.668 C 476.551 500.873, 500.873 476.551, 508.668 443.311 C 510.408 435.891, 510.500 426.446, 510.500 254.500 C 510.500 85.228, 510.386 73.058, 508.746 66.671 C 501.760 39.470, 485.418 19.564, 460.480 7.878 C 442.561 -0.519, 456.673 0.013, 255 0.130 C 153.871 0.189, 74.136 0.626, 71.047 1.138 M 110.054 94.728 C 107.523 95.621, 103.609 98.296, 100.971 100.934 C 92.359 109.546, 93 97.066, 93 256.018 L 93 396.681 96.055 402.794 C 98.061 406.809, 100.548 409.965, 103.297 411.987 C 111.904 418.317, 103.892 418, 255.500 418 C 412.820 418, 400.453 418.677, 409.565 409.565 C 418.677 400.453, 418 412.820, 418 255.500 C 418 103.892, 418.317 111.904, 411.987 103.297 C 409.965 100.548, 406.809 98.061, 402.794 96.055 L 396.681 93 255.590 93.079 C 130.074 93.149, 114.009 93.331, 110.054 94.728 M 193.241 187.995 C 191.448 189.088, 189.088 191.448, 187.995 193.241 C 186.072 196.395, 186.007 198.390, 186.004 255.016 C 186 320.912, 185.694 318.185, 193.604 322.747 L 197.500 324.993 256.177 324.747 C 313.685 324.505, 314.910 324.459, 317.616 322.438 C 319.134 321.304, 321.304 319.134, 322.438 317.616 C 324.458 314.911, 324.506 313.661, 324.773 256.433 C 325.039 199.774, 324.987 197.894, 323.054 194.107 C 321.959 191.959, 319.533 189.256, 317.663 188.101 C 314.310 186.029, 313.463 186, 255.382 186.004 C 198.391 186.007, 196.395 186.071, 193.241 187.995 " stroke="none" fill="white" fill-rule="evenodd" transform="scale(0.05859375) translate(0 0)"></path>
    </g>
</svg>