<svg width="60" height="60" viewBox="0 0 60 60" xmlns="http://www.w3.org/2000/svg">
    <rect fill="transparent" x="0" y="0" width="60" height="60" rx="4.8"></rect>

    <g width="30" height="30" viewBox="0 0 30 30" transform="translate(15, 15)" fill="#FFFFFF">
        <path d="M 39.634 1.586 C 21.400 6, 5.878 21.691, 1.540 40.093 C -2.618 57.734, 2.511 75.556, 15.478 88.522 C 31.821 104.866, 55.921 108.515, 76.407 97.747 C 88.773 91.248, 100.744 75.556, 102.557 63.471 C 102.927 60.998, 103.629 58.729, 104.115 58.429 C 104.602 58.128, 105 54.732, 105 50.882 C 105 47.032, 104.600 44.129, 104.112 44.431 C 103.624 44.733, 102.922 42.967, 102.553 40.507 C 101.449 33.145, 95.321 22.176, 88.570 15.478 C 75.470 2.480, 57.278 -2.684, 39.634 1.586 M 29.040 14.452 C 28.377 15.251, 27.989 16.713, 28.178 17.702 C 28.571 19.768, 32.702 20.698, 34.315 19.085 C 35.796 17.604, 68.204 17.604, 69.685 19.085 C 71.455 20.855, 75.463 19.758, 75.798 17.412 C 76.231 14.382, 73.388 12.277, 70.932 13.810 C 68.522 15.316, 34.420 15.488, 33.500 14 C 32.605 12.553, 30.433 12.773, 29.040 14.452 M 6.960 34.358 C 0.275 49.470, 4.113 70.944, 15.860 84.152 C 34.894 105.554, 69.012 105.672, 87.919 84.403 C 99.891 70.935, 103.780 49.595, 97.040 34.358 L 95.112 30 52 30 L 8.888 30 6.960 34.358 M 56.263 55.226 L 45.037 66.452 40.730 62.226 C 38.362 59.902, 35.484 58, 34.335 58 C 31.500 58, 29.651 60.472, 30.363 63.311 C 31.221 66.729, 42.345 77, 45.190 77 C 48.375 77, 74 51.448, 74 48.272 C 74 46.115, 71.431 44, 68.810 44 C 68.083 44, 62.437 49.052, 56.263 55.226 M 0.336 52 C 0.336 56.125, 0.513 57.813, 0.728 55.750 C 0.944 53.688, 0.944 50.313, 0.728 48.250 C 0.513 46.188, 0.336 47.875, 0.336 52 " stroke="none" fill="white" fill-rule="evenodd" transform="scale(0.28846153846153844) translate(0 0)"></path>
    </g>
</svg>