<svg width="60" height="60" viewBox="0 0 60 60" xmlns="http://www.w3.org/2000/svg">
    <rect fill="transparent" x="0" y="0" width="60" height="60" rx="4.8"></rect>

    <g width="30" height="30" viewBox="0 0 30 30" transform="translate(15, 15)" fill="#FFFFFF">
        <path d="M 678 55.072 C 672.775 56.194, 664.900 58.565, 660.500 60.341 C 656.064 62.133, 585.037 102.759, 501.066 151.536 C 337.771 246.390, 340.891 244.425, 335.753 255.664 C 334.095 259.288, 333.543 262.379, 333.546 268 C 333.551 277.261, 336.267 283.038, 344.169 290.604 C 350.758 296.913, 347.903 295.196, 443 350.033 C 486.175 374.930, 547.375 410.247, 579 428.515 C 657.384 473.792, 657.056 473.610, 666.385 476.903 C 691.847 485.890, 727.949 484.719, 750.421 474.177 C 757.002 471.089, 1050.816 300.593, 1057.642 295.900 C 1062.787 292.363, 1069.213 285.150, 1071.606 280.225 C 1072.646 278.086, 1073.586 273.444, 1073.814 269.321 C 1074.148 263.284, 1073.820 261.288, 1071.755 256.775 C 1068.830 250.387, 1064.533 245.286, 1058.169 240.650 C 1052.404 236.450, 754.763 64.696, 747.437 61.343 C 744.531 60.012, 737.732 57.753, 732.327 56.322 C 723.928 54.098, 719.957 53.670, 705 53.377 C 690.265 53.088, 685.999 53.356, 678 55.072 M 261.132 348.078 C 245.975 351.056, 235.430 363.111, 231.376 382.094 C 229.326 391.690, 230.072 412.073, 232.891 423.500 C 236.880 439.668, 243.191 455.033, 251.785 469.500 C 262.042 486.767, 280.564 506.995, 294.500 516.151 C 298.350 518.680, 330.975 537.750, 367 558.529 C 403.025 579.307, 435.125 598.081, 438.333 600.248 C 466.855 619.511, 490.903 655.683, 500 693 C 502.918 704.970, 503.684 724.265, 501.625 733.906 C 498.398 749.009, 491.565 759.248, 480.826 765.070 C 474.707 768.388, 474.141 768.500, 463.500 768.490 C 454.128 768.482, 451.429 768.090, 445.262 765.845 C 441.073 764.319, 412.846 748.687, 378.262 728.739 C 345.393 709.781, 316.497 693.254, 314.048 692.012 C 293.384 681.530, 274.451 683.108, 262.264 696.330 C 253.390 705.956, 250.498 715.427, 250.606 734.500 C 250.692 749.708, 251.950 757.088, 257.056 772.327 C 266.331 800.012, 286.888 829.349, 307.954 844.966 C 311.674 847.723, 341.570 865.495, 374.391 884.458 C 407.212 903.421, 436.413 920.501, 439.283 922.413 C 466.506 940.553, 489.271 974.238, 498.755 1010.416 L 501.398 1020.500 502.020 1107.500 C 502.709 1203.833, 502.313 1197.983, 509.624 1220 C 525.002 1266.317, 561.871 1307.939, 597.163 1318.826 C 625.935 1327.701, 647.868 1315.356, 655.640 1285.912 C 657.184 1280.062, 657.394 1264.638, 658.037 1110 C 658.425 1016.775, 658.800 870.821, 658.871 785.657 C 658.998 632.962, 658.971 630.674, 656.939 620.700 C 653.656 604.591, 645.560 584.781, 636.324 570.259 C 626.163 554.283, 609.763 536.610, 597.734 528.676 C 588.461 522.559, 301.202 357.018, 293.471 353.336 C 282.126 347.932, 271.042 346.130, 261.132 348.078 M 1130.322 348.064 C 1122.382 349.442, 1113.209 353.243, 1101.322 360.082 C 951.090 446.514, 816.627 524.398, 810.118 528.755 C 783.338 546.682, 759.774 582.352, 751.334 617.739 L 748.767 628.500 748.885 758 C 748.950 829.225, 749.258 974.350, 749.569 1080.500 C 750.193 1293.224, 749.884 1283.461, 756.429 1297.478 C 764.828 1315.466, 781.197 1324.144, 800.853 1321.029 C 819.420 1318.087, 837.485 1307.393, 856.095 1288.329 C 883.458 1260.298, 900.968 1224.290, 905.053 1187.651 C 905.829 1180.695, 906.077 1153.737, 905.842 1102 C 905.463 1018.358, 905.345 1020.323, 911.988 999.979 C 922.220 968.642, 944.135 938.273, 967.755 922.700 C 971.465 920.254, 1000.825 903.069, 1033 884.512 C 1065.175 865.955, 1094.425 848.710, 1098 846.191 C 1111.501 836.674, 1127.399 818.370, 1137.867 800.290 C 1146.270 785.777, 1153.933 764.552, 1156.086 749.826 C 1157.784 738.212, 1156.765 719.144, 1154.029 711.326 C 1149.779 699.185, 1140.840 689.804, 1130.657 686.801 C 1124.401 684.956, 1111.451 685.277, 1105 687.438 C 1096.202 690.384, 1089.539 694.018, 1032 727.250 C 971.386 762.258, 965.950 765.181, 957.269 767.430 C 948.575 769.683, 937.338 769.472, 930.541 766.929 C 918.863 762.560, 909.010 749.558, 905.966 734.500 C 904.285 726.181, 904.532 708.852, 906.480 698.455 C 910.815 675.323, 922.003 651.049, 938.032 630 C 944.988 620.865, 960.494 605.792, 968.072 600.800 C 971.137 598.781, 1004.212 579.501, 1041.572 557.956 C 1078.933 536.411, 1111.750 517.186, 1114.500 515.233 C 1137.907 498.614, 1157.895 471.529, 1169.313 440.957 C 1176.550 421.582, 1179.374 396.739, 1176.072 381.500 C 1172.840 366.582, 1163.740 354.281, 1152.969 350.272 C 1146.220 347.759, 1137.166 346.877, 1130.322 348.064 " stroke="none" fill="white" fill-rule="evenodd" transform="scale(0.02145922746781116) translate(0 0)"></path>
    </g>
</svg>