<svg width="60" height="60" viewBox="0 0 60 60" xmlns="http://www.w3.org/2000/svg">
    <rect fill="transparent" x="0" y="0" width="60" height="60" rx="4.8"></rect>

    <g width="30" height="30" viewBox="0 0 30 30" transform="translate(15, 15)" fill="#FFFFFF">
        <path d="M 136 19.464 C 135.175 19.660, 131.125 20.366, 127 21.034 C 109.902 23.802, 93.109 32.025, 85.859 41.178 C 81.705 46.423, 78.053 55.496, 78.024 60.646 C 78.001 64.653, 77.707 65.025, 69.343 71.646 C 26.134 105.856, 20.762 162.193, 57.869 191.973 C 64.992 197.690, 74.723 202.486, 83.304 204.509 C 91.361 206.409, 106.002 206.400, 113.540 204.490 C 132.012 199.810, 149.062 186.170, 156.789 169.891 C 163.452 155.853, 165.227 143.464, 162.630 129.107 C 158.840 108.151, 145.167 90.596, 125.500 81.438 C 119.014 78.417, 105.970 75, 100.926 75 C 94.817 75, 75.174 94.961, 68.524 107.927 L 66.766 111.354 70.633 108.357 C 81.013 100.313, 89.366 97.558, 101.454 98.193 C 126.033 99.483, 144.732 122.573, 140.958 146.972 C 138.739 161.315, 129.748 173.369, 116.616 179.605 C 92.251 191.176, 65.074 178.488, 55.343 151 C 52.517 143.015, 52.173 128.980, 54.577 119.702 C 61.468 93.111, 82.948 70.693, 118.500 52.991 C 132.270 46.135, 158.945 35.997, 163.208 36.001 C 163.918 36.002, 156.435 40.301, 146.579 45.554 C 129.057 54.893, 108.022 67.795, 108.007 69.211 C 107.997 70.227, 117.321 72.867, 125.328 74.114 C 138.478 76.163, 151.688 71.815, 161.754 62.124 C 164.395 59.581, 171.841 50.881, 178.300 42.792 C 184.758 34.702, 191.019 27.400, 192.211 26.565 C 193.404 25.729, 194.086 24.753, 193.728 24.395 C 193.370 24.036, 189.572 22.858, 185.288 21.777 C 179.175 20.233, 173.199 19.735, 157.500 19.460 C 146.500 19.267, 136.825 19.269, 136 19.464 " stroke="none" fill="white" fill-rule="evenodd" transform="scale(0.13333333333333333) translate(0 0)"></path>
    </g>
</svg>