<svg width="60" height="60" viewBox="0 0 60 60" xmlns="http://www.w3.org/2000/svg">
    <rect fill="transparent" x="0" y="0" width="60" height="60" rx="4.8"></rect>

    <g width="30" height="30" viewBox="0 0 30 30" transform="translate(15, 15)" fill="#FFFFFF">
        <path d="M 330 0.895 C 330 1.387, 328.313 2.014, 326.250 2.289 C 321.331 2.943, 314.284 4.854, 310.349 6.601 C 308.616 7.371, 306.697 8, 306.085 8 C 305.473 8, 304.191 8.427, 303.236 8.949 C 302.281 9.471, 297.900 11.662, 293.500 13.818 C 283.449 18.742, 273.912 23.878, 272.143 25.318 C 270.678 26.510, 267.408 28.488, 265 29.638 C 264.175 30.032, 263.275 30.636, 263 30.980 C 262.725 31.324, 260.700 32.675, 258.500 33.983 C 256.300 35.290, 252.355 37.967, 249.734 39.930 C 247.112 41.894, 242.250 45.525, 238.929 48 C 232.440 52.836, 222.989 60.388, 211.019 70.303 C 202.899 77.029, 124 154.922, 124 156.212 C 124 156.645, 151 157, 184 157 L 244 157 244 217 C 244 250, 244.296 277, 244.657 277 C 245.019 277, 265.831 256.624, 290.907 231.720 C 315.983 206.816, 340.281 183.528, 344.903 179.970 C 354.883 172.286, 363.720 166, 364.542 166 C 364.867 166, 366.566 164.931, 368.317 163.625 C 371.701 161.101, 387.337 153.382, 395.246 150.331 L 399.993 148.500 399.996 74.250 L 400 0 365 0 C 345.072 0, 330 0.385, 330 0.895 M 78.289 200.250 C 61.881 215.177, 53.470 221.176, 35 231.125 C 33.705 231.823, 23.655 236.324, 17.500 238.963 C 15.243 239.931, 6.905 242.440, 2.750 243.402 L 0 244.038 0 322.019 L 0 400 34.750 399.940 C 53.863 399.908, 71.525 399.493, 74 399.020 C 80.788 397.720, 87.137 395.959, 90.651 394.399 C 92.384 393.629, 94.213 393, 94.714 393 C 95.640 393, 101.285 390.434, 113 384.688 C 120.737 380.893, 143.986 366.832, 149.144 362.829 C 151.148 361.273, 153.091 360, 153.461 360 C 153.832 360, 156.549 358.087, 159.499 355.750 C 162.449 353.413, 168.117 349.025, 172.093 346 C 181.738 338.664, 190.513 331.163, 200.637 321.602 L 209 313.704 209 252.852 L 209 192 148.179 192 L 87.358 192 78.289 200.250 " stroke="none" fill="white" fill-rule="evenodd" transform="scale(0.075) translate(0 0)"></path>
    </g>
</svg>