<svg width="60" height="60" viewBox="0 0 60 60" xmlns="http://www.w3.org/2000/svg">
    <rect fill="transparent" x="0" y="0" width="60" height="60" rx="4.8"></rect>

    <g width="30" height="30" viewBox="0 0 30 30" transform="translate(15, 15)" fill="#FFFFFF">
        <path d="M 100.315 28.938 C 67.428 34.187, 41.087 57.338, 31.410 89.500 C 29.023 97.432, 28.702 100.162, 28.702 112.500 C 28.702 124.853, 29.021 127.559, 31.417 135.500 C 40.086 164.239, 60.761 184.914, 89.500 193.583 C 97.441 195.979, 100.147 196.298, 112.500 196.298 C 124.838 196.298, 127.568 195.977, 135.500 193.590 C 164.024 185.007, 185.007 164.024, 193.590 135.500 C 195.977 127.568, 196.298 124.838, 196.298 112.500 C 196.298 100.162, 195.977 97.432, 193.590 89.500 C 182.886 53.926, 152.356 29.927, 116.010 28.518 C 110.229 28.294, 103.167 28.483, 100.315 28.938 M 104 60.617 C 85.545 81.646, 73.697 101.252, 70.014 116.854 C 68.240 124.370, 69.128 135.415, 71.948 140.918 C 75.820 148.475, 87.171 157.873, 108.633 171.293 L 112.767 173.878 126.898 164.359 C 149.680 149.015, 154.913 142.673, 155.783 129.354 C 156.040 125.424, 155.696 119.800, 155.019 116.854 C 153.362 109.641, 145.407 92.994, 139.274 83.907 C 131.487 72.367, 114.225 51.954, 112.324 52.035 C 111.871 52.054, 108.125 55.916, 104 60.617 M 104.855 78.750 C 88.295 99.552, 79.656 118.550, 81.417 130.292 C 82.352 136.529, 87.497 142.102, 100.478 150.939 L 110.959 158.072 111.229 114.536 C 111.378 90.591, 111.393 71, 111.262 71 C 111.131 71, 108.248 74.487, 104.855 78.750 " stroke="none" fill="white" fill-rule="evenodd" transform="scale(0.13333333333333333) translate(0 0)"></path>
    </g>
</svg>