<svg width="60" height="60" viewBox="0 0 60 60" xmlns="http://www.w3.org/2000/svg">
    <rect fill="transparent" x="0" y="0" width="60" height="60" rx="4.8"></rect>

    <g width="30" height="30" viewBox="0 0 30 30" transform="translate(15, 15)" fill="#FFFFFF">
        <path d="M 58.885 76.367 C 52.960 78.505, 49.324 81.708, 46.586 87.203 L 44 92.393 44 129.728 C 44 170.888, 44.057 171.327, 50.301 177.835 C 56.843 184.656, 55.581 184.468, 97.250 184.805 L 135 185.110 135 205.614 C 135 217.222, 135.383 225.881, 135.883 225.572 C 136.369 225.272, 143.354 216.058, 151.405 205.096 L 166.043 185.166 188.271 184.829 C 212.720 184.459, 213.516 184.282, 219.699 177.835 C 225.944 171.325, 226 170.896, 226 129.646 L 226 92.228 223.206 86.880 C 221.172 82.986, 219.085 80.711, 215.535 78.515 L 210.658 75.500 136.579 75.281 C 77.732 75.107, 61.757 75.330, 58.885 76.367 M 104.500 93.846 C 101.054 95.957, 91.407 106.068, 84.946 114.341 C 82.515 117.454, 80.235 120, 79.878 120 C 79.522 120, 80.522 116.287, 82.102 111.750 C 85.550 101.843, 85.893 95.548, 83.066 94.035 C 80.210 92.507, 74.763 92.777, 72.196 94.575 C 66.889 98.293, 54.908 128.638, 54.671 138.964 C 54.450 148.573, 59.422 153.077, 66.518 149.693 C 68.376 148.807, 74.336 142.851, 80.121 136.100 C 85.784 129.491, 90.604 124.271, 90.834 124.500 C 91.063 124.729, 90.490 126.816, 89.561 129.138 C 85.134 140.204, 85.830 147.998, 91.488 150.695 C 96.553 153.111, 99.539 151.337, 111.408 138.864 C 117.093 132.889, 121.933 128, 122.164 128 C 122.395 128, 122.564 133.063, 122.542 139.250 C 122.506 148.845, 122.802 151.014, 124.554 153.997 C 128.831 161.277, 137.958 164.284, 143.112 160.111 C 145.391 158.265, 145.417 158.056, 144.223 151.092 C 142.681 142.105, 142.674 135.637, 144.189 120.262 C 145.542 106.526, 144.957 103.225, 140.819 101.242 C 136.639 99.238, 133.404 101.173, 123.266 111.741 C 118.188 117.035, 113.818 121.152, 113.557 120.890 C 113.295 120.628, 114.188 116.929, 115.540 112.669 C 118.858 102.223, 118.763 98.609, 115.077 94.923 C 111.705 91.551, 108.739 91.249, 104.500 93.846 M 163.096 93.265 C 158.461 95.647, 156.707 99.341, 156.220 107.752 C 155.630 117.948, 158.265 127.911, 165.257 141.924 C 168.117 147.657, 170.017 152.499, 169.479 152.684 C 168.941 152.869, 166.187 154.346, 163.360 155.967 C 157.822 159.143, 153.546 165.778, 154.176 170.218 C 155.613 180.344, 181.804 160.931, 193.355 141.179 C 203.077 124.554, 213.869 97.427, 212.343 93.451 C 210.979 89.897, 201.015 93.316, 197.861 98.420 C 196.814 100.114, 195.230 103.975, 194.340 107 C 192.229 114.172, 184.104 135.253, 183.024 136.357 C 182.299 137.099, 181.466 133.995, 179.441 123 C 179.188 121.625, 178.343 115.325, 177.565 109 C 175.602 93.062, 175.114 91.996, 169.775 92.015 C 167.424 92.023, 164.418 92.585, 163.096 93.265 " stroke="none" fill="white" fill-rule="evenodd" transform="scale(0.1111111111111111) translate(0 0)"></path>
    </g>
</svg>