<svg width="60" height="60" viewBox="0 0 60 60" xmlns="http://www.w3.org/2000/svg">
    <rect fill="transparent" x="0" y="0" width="60" height="60" rx="4.8"></rect>

    <g width="30" height="30" viewBox="0 0 30 30" transform="translate(15, 15)" fill="#FFFFFF">
        <path d="M 94.785 1.551 C 52.115 8.195, 16.438 39.728, 4.551 81.305 C -11.935 138.965, 20.535 199.940, 77.500 218.295 C 90.657 222.534, 96.712 223.421, 112.500 223.421 C 128.288 223.421, 134.343 222.534, 147.500 218.295 C 176.363 208.995, 200.844 187.460, 213.981 159.815 C 218.701 149.882, 222.876 135.877, 223.698 127.218 C 224.027 123.763, 224.679 120.699, 225.148 120.409 C 225.616 120.119, 226 115.832, 226 110.882 C 226 105.932, 225.611 102.122, 225.136 102.416 C 224.660 102.710, 223.974 100.048, 223.610 96.500 C 222.110 81.855, 214.497 62.336, 204.825 48.336 C 194.784 33.801, 178.442 19.700, 162.237 11.588 C 142.771 1.843, 117.274 -1.951, 94.785 1.551 M 51 83 L 51 91 58.444 91 L 65.889 91 66.194 120.250 C 66.545 153.781, 66.553 153.816, 75.903 162.223 C 83.919 169.430, 96.016 172.988, 112.500 172.988 C 128.984 172.988, 141.081 169.430, 149.097 162.223 C 158.447 153.816, 158.455 153.781, 158.806 120.250 L 159.111 91 166.556 91 L 174 91 174 83 L 174 75 150.500 75 L 127 75 127 83 L 127 91 134.500 91 L 142 91 142 117.550 C 142 146.941, 141.785 148.116, 135.717 151.866 C 124.763 158.636, 100.237 158.636, 89.283 151.866 C 83.215 148.116, 83 146.941, 83 117.550 L 83 91 90.500 91 L 98 91 98 83 L 98 75 74.500 75 L 51 75 51 83 M 0.360 112 C 0.360 117.225, 0.529 119.362, 0.735 116.750 C 0.941 114.138, 0.941 109.862, 0.735 107.250 C 0.529 104.638, 0.360 106.775, 0.360 112 " stroke="none" fill="white" fill-rule="evenodd" transform="scale(0.13392857142857142) translate(-0.5 0)"></path>
    </g>
</svg>