<svg width="60" height="60" viewBox="0 0 60 60" xmlns="http://www.w3.org/2000/svg">
    <rect fill="transparent" x="0" y="0" width="60" height="60" rx="4.8"></rect>

    <g width="30" height="30" viewBox="0 0 30 30" transform="translate(15, 15)" fill="#FFFFFF">
        <path d="M 72 81.077 L 72 122.154 74.923 125.077 L 77.846 128 102.923 128 L 128 128 128 102.923 L 128 77.846 125.077 74.923 L 122.154 72 108.577 72 L 95 72 95 80.500 L 95 89 103 89 L 111 89 111 100 L 111 111 100 111 L 89 111 89 84 L 89 57 110.599 57 C 134.725 57, 137.325 57.554, 140.984 63.474 C 142.913 66.595, 143 68.382, 143 104.868 L 143 143 104.750 142.996 C 69.091 142.993, 66.291 142.865, 63.420 141.114 C 57.618 137.576, 57 134.639, 57 110.599 L 57 89 62 89 L 67 89 67 80.500 L 67 72 53.500 72 L 40 72 40 102.818 C 40 137.114, 40.408 140.008, 46.365 148 C 48.210 150.475, 52.352 154.075, 55.569 156 L 61.419 159.500 108.218 159.787 L 155.016 160.075 157.545 157.545 L 160.075 155.016 159.787 108.218 L 159.500 61.419 156 55.569 C 154.075 52.352, 150.475 48.210, 148 46.365 C 140.008 40.408, 137.114 40, 102.818 40 L 72 40 72 81.077 " stroke="none" fill="white" fill-rule="evenodd" transform="scale(0.15) translate(0 0)"></path>
    </g>
</svg>