<svg width="60" height="60" viewBox="0 0 60 60" xmlns="http://www.w3.org/2000/svg">
    <rect fill="transparent" x="0" y="0" width="60" height="60" rx="4.8"></rect>

    <g width="30" height="30" viewBox="0 0 30 30" transform="translate(15, 15)" fill="#FFFFFF">
        <path d="M 48.251 1.109 C 36.494 3.068, 22.848 10.806, 14.564 20.212 C 8.641 26.937, 3.383 37.534, 1.520 46.500 C 0.007 53.783, 0.334 142.924, 7.966 1799.500 C 9.065 2038.200, 10.417 2332.725, 10.970 2454 C 11.522 2575.275, 12.186 2679.675, 12.445 2686 C 12.704 2692.325, 13.653 2699.975, 14.554 2703 C 17.317 2712.275, 23.083 2722.090, 29.613 2728.636 C 39.482 2738.528, 57.046 2745.927, 70.792 2745.983 C 76.091 2746.004, 88.610 2743.479, 93.654 2741.371 C 95.719 2740.508, 202.729 2678.345, 331.454 2603.229 C 460.180 2528.114, 634.800 2426.226, 719.500 2376.811 C 804.200 2327.396, 873.616 2286.625, 873.758 2286.209 C 873.900 2285.793, 866.925 2284.397, 858.258 2283.108 C 770.492 2270.048, 674.923 2239.501, 592.026 2198.013 C 501.499 2152.707, 423.902 2096.825, 352.474 2025.500 C 282.053 1955.181, 225.701 1877.711, 181.533 1790.500 C 92.520 1614.742, 62.487 1415.505, 95.558 1220.171 C 130.716 1012.516, 236.965 823.112, 396.814 683.140 C 529.039 567.357, 693.470 491.224, 865.371 466.194 C 879.499 464.137, 883.898 463.172, 882.871 462.357 C 880.157 460.200, 89.357 8.606, 83.412 5.819 C 72.479 0.691, 60.437 -0.922, 48.251 1.109 M 978 782.039 C 913.355 784.456, 849.969 797.433, 789 820.730 C 666.570 867.512, 562.406 954.627, 493.337 1068 C 452.710 1134.688, 423.937 1215.518, 413.601 1292 C 406.940 1341.283, 406.206 1395.435, 411.559 1442.500 C 434.261 1642.070, 556.493 1816.886, 736 1906.515 C 802.717 1939.827, 865.950 1958.030, 945 1966.680 C 965.597 1968.934, 1033.031 1969.268, 1053 1967.215 C 1074.451 1965.009, 1095.266 1962.103, 1111.691 1959.020 C 1293.469 1924.898, 1449.366 1807.052, 1532.566 1640.867 C 1559.609 1586.852, 1577.539 1531.340, 1587.524 1470.711 C 1595.789 1420.526, 1597.263 1359.206, 1591.422 1308.500 C 1572.585 1144.965, 1488.657 998.421, 1357.500 900.058 C 1248.039 817.967, 1115.922 776.880, 978 782.039 M 980.191 944.250 C 974.508 973.081, 973.832 978.715, 973.329 1001.500 C 972.861 1022.662, 972.977 1024.452, 976.373 1048.500 C 982.006 1088.388, 981.441 1076.391, 989.008 1317 C 990.659 1369.525, 992.683 1431.850, 993.505 1455.500 C 994.327 1479.150, 994.999 1501.316, 995 1504.758 L 995 1511.015 983.033 1505.016 C 947.438 1487.174, 918.838 1479.502, 883.435 1478.300 C 851.927 1477.231, 824.029 1482.086, 794 1493.863 C 763.709 1505.744, 736.704 1527.385, 719.286 1553.738 C 685.875 1604.289, 686.311 1667.004, 720.439 1719.500 C 732.633 1738.256, 755.938 1763.331, 773.199 1776.266 C 813.730 1806.639, 861.902 1820.484, 914.883 1816.989 C 971.476 1813.256, 1010.891 1797.378, 1042.506 1765.577 C 1060.101 1747.878, 1070.841 1730.623, 1078.453 1707.822 C 1085.105 1687.899, 1085.698 1682.007, 1089.997 1593 C 1100.519 1375.169, 1103.577 1297.419, 1105.099 1209 C 1105.729 1172.425, 1106.304 1142.423, 1106.377 1142.328 C 1106.451 1142.234, 1115.508 1144.605, 1126.505 1147.598 C 1147.905 1153.422, 1176.793 1160.703, 1199.500 1165.995 C 1247.132 1177.097, 1284.353 1200.357, 1317.840 1239.950 C 1334.959 1260.190, 1360.221 1289.116, 1360.499 1288.795 C 1360.641 1288.633, 1359.477 1273.650, 1357.914 1255.500 C 1356.351 1237.350, 1354.616 1211.250, 1354.057 1197.500 C 1352.769 1165.780, 1352.320 1161.335, 1349.385 1151.203 C 1343.575 1131.148, 1332.808 1117.186, 1308.701 1098.446 C 1281.538 1077.330, 1255.543 1062.749, 1229.402 1053.967 C 1214.958 1049.114, 1203.987 1046.582, 1184.161 1043.525 C 1144.581 1037.421, 1114.469 1027.343, 1085.434 1010.483 C 1070.140 1001.602, 1058.341 992.737, 1037.456 974.435 C 1013.715 953.630, 984.036 928, 983.687 928 C 983.526 928, 981.953 935.313, 980.191 944.250 M 1847.925 1016.250 C 1848.407 1017.487, 1851.709 1025.700, 1855.264 1034.500 C 1887.639 1114.659, 1909.829 1208.181, 1916.953 1294.500 C 1917.543 1301.650, 1918.259 1310.200, 1918.543 1313.500 C 1921.231 1344.676, 1920.723 1411.645, 1917.508 1450 C 1910.253 1536.548, 1891.253 1621.248, 1861.510 1699.639 C 1859.094 1706.006, 1856.978 1711.339, 1856.809 1711.490 C 1856.639 1711.640, 1739.275 1780.271, 1596 1864.003 C 1452.725 1947.734, 1335.050 2016.704, 1334.500 2017.268 C 1333.833 2017.952, 1333.833 2018.121, 1334.500 2017.775 C 1338.865 2015.511, 2367.952 1414.859, 2372.809 1411.740 C 2381.295 1406.290, 2388.347 1398.167, 2392.983 1388.500 C 2397.489 1379.105, 2399.006 1372.586, 2398.985 1362.701 C 2398.952 1346.740, 2393 1332.655, 2381.573 1321.500 C 2374.687 1314.777, 2363.983 1308.548, 2111.330 1164.250 C 1966.639 1081.612, 1847.985 1014, 1847.653 1014 C 1847.321 1014, 1847.444 1015.013, 1847.925 1016.250 M 1327.250 2021.105 C 1324.362 2022.788, 1322 2024.396, 1322 2024.678 C 1322 2025.233, 1330.893 2020.288, 1332.450 2018.867 C 1334.145 2017.320, 1332.605 2017.983, 1327.250 2021.105 M 1315.250 2028.105 C 1312.362 2029.788, 1310 2031.396, 1310 2031.678 C 1310 2032.233, 1318.893 2027.288, 1320.450 2025.867 C 1322.145 2024.320, 1320.605 2024.983, 1315.250 2028.105 M 1303.250 2035.105 C 1300.362 2036.788, 1298 2038.396, 1298 2038.678 C 1298 2039.233, 1306.893 2034.288, 1308.450 2032.867 C 1310.145 2031.320, 1308.605 2031.983, 1303.250 2035.105 M 1283.300 2046.801 C 1276.039 2051.073, 1269.739 2054.962, 1269.300 2055.444 C 1268.267 2056.576, 1268.194 2056.616, 1283.750 2047.533 C 1295.038 2040.942, 1298.120 2038.923, 1296.750 2039.017 C 1296.612 2039.027, 1290.560 2042.529, 1283.300 2046.801 M 1262.250 2059.105 C 1259.362 2060.788, 1257 2062.396, 1257 2062.678 C 1257 2063.233, 1265.893 2058.288, 1267.450 2056.867 C 1269.145 2055.320, 1267.605 2055.983, 1262.250 2059.105 M 1250.250 2066.105 C 1247.362 2067.788, 1245 2069.396, 1245 2069.678 C 1245 2070.233, 1253.893 2065.288, 1255.450 2063.867 C 1257.145 2062.320, 1255.605 2062.983, 1250.250 2066.105 M 1238.250 2073.105 C 1235.362 2074.788, 1233 2076.396, 1233 2076.678 C 1233 2077.233, 1241.893 2072.288, 1243.450 2070.867 C 1245.145 2069.320, 1243.605 2069.983, 1238.250 2073.105 M 1226.250 2080.105 C 1223.362 2081.788, 1221 2083.396, 1221 2083.678 C 1221 2084.233, 1229.893 2079.288, 1231.450 2077.867 C 1233.145 2076.320, 1231.605 2076.983, 1226.250 2080.105 M 1217.441 2085.555 C 1215.577 2087.049, 1215.589 2087.067, 1217.750 2086.020 C 1218.987 2085.420, 1220 2084.720, 1220 2084.465 C 1220 2083.700, 1219.481 2083.921, 1217.441 2085.555 M 1211.750 2088.572 C 1208.012 2090.600, 1208.239 2091.445, 1212 2089.500 C 1213.650 2088.647, 1215 2087.735, 1215 2087.474 C 1215 2086.831, 1214.893 2086.867, 1211.750 2088.572 M 1205.441 2092.555 C 1203.577 2094.049, 1203.589 2094.067, 1205.750 2093.020 C 1206.987 2092.420, 1208 2091.720, 1208 2091.465 C 1208 2090.700, 1207.481 2090.921, 1205.441 2092.555 M 1199.750 2095.572 C 1196.012 2097.600, 1196.239 2098.445, 1200 2096.500 C 1201.650 2095.647, 1203 2094.735, 1203 2094.474 C 1203 2093.831, 1202.893 2093.867, 1199.750 2095.572 M 1193.441 2099.555 C 1191.577 2101.049, 1191.589 2101.067, 1193.750 2100.020 C 1194.987 2099.420, 1196 2098.720, 1196 2098.465 C 1196 2097.700, 1195.481 2097.921, 1193.441 2099.555 M 1187.750 2102.572 C 1184.012 2104.600, 1184.239 2105.445, 1188 2103.500 C 1189.650 2102.647, 1191 2101.735, 1191 2101.474 C 1191 2100.831, 1190.893 2100.867, 1187.750 2102.572 M 1181.441 2106.555 C 1179.577 2108.049, 1179.589 2108.067, 1181.750 2107.020 C 1182.987 2106.420, 1184 2105.720, 1184 2105.465 C 1184 2104.700, 1183.481 2104.921, 1181.441 2106.555 M 1175.750 2109.572 C 1172.012 2111.600, 1172.239 2112.445, 1176 2110.500 C 1177.650 2109.647, 1179 2108.735, 1179 2108.474 C 1179 2107.831, 1178.893 2107.867, 1175.750 2109.572 M 1169.441 2113.555 C 1167.577 2115.049, 1167.589 2115.067, 1169.750 2114.020 C 1170.987 2113.420, 1172 2112.720, 1172 2112.465 C 1172 2111.700, 1171.481 2111.921, 1169.441 2113.555 M 1163.750 2116.572 C 1160.012 2118.600, 1160.239 2119.445, 1164 2117.500 C 1165.650 2116.647, 1167 2115.735, 1167 2115.474 C 1167 2114.831, 1166.893 2114.867, 1163.750 2116.572 M 1157.441 2120.555 C 1155.577 2122.049, 1155.589 2122.067, 1157.750 2121.020 C 1158.987 2120.420, 1160 2119.720, 1160 2119.465 C 1160 2118.700, 1159.481 2118.921, 1157.441 2120.555 M 1152.441 2123.555 C 1150.577 2125.049, 1150.589 2125.067, 1152.750 2124.020 C 1153.987 2123.420, 1155 2122.720, 1155 2122.465 C 1155 2121.700, 1154.481 2121.921, 1152.441 2123.555 M 1145.441 2127.555 C 1143.577 2129.049, 1143.589 2129.067, 1145.750 2128.020 C 1146.987 2127.420, 1148 2126.720, 1148 2126.465 C 1148 2125.700, 1147.481 2125.921, 1145.441 2127.555 M 1140.441 2130.555 C 1138.577 2132.049, 1138.589 2132.067, 1140.750 2131.020 C 1141.987 2130.420, 1143 2129.720, 1143 2129.465 C 1143 2128.700, 1142.481 2128.921, 1140.441 2130.555 M 1133.441 2134.555 C 1131.577 2136.049, 1131.589 2136.067, 1133.750 2135.020 C 1134.987 2134.420, 1136 2133.720, 1136 2133.465 C 1136 2132.700, 1135.481 2132.921, 1133.441 2134.555 M 1128.441 2137.555 C 1126.577 2139.049, 1126.589 2139.067, 1128.750 2138.020 C 1129.987 2137.420, 1131 2136.720, 1131 2136.465 C 1131 2135.700, 1130.481 2135.921, 1128.441 2137.555 M 1121.441 2141.555 C 1119.577 2143.049, 1119.589 2143.067, 1121.750 2142.020 C 1122.987 2141.420, 1124 2140.720, 1124 2140.465 C 1124 2139.700, 1123.481 2139.921, 1121.441 2141.555 M 1116.441 2144.555 C 1114.577 2146.049, 1114.589 2146.067, 1116.750 2145.020 C 1117.987 2144.420, 1119 2143.720, 1119 2143.465 C 1119 2142.700, 1118.481 2142.921, 1116.441 2144.555 M 1109.441 2148.555 C 1107.577 2150.049, 1107.589 2150.067, 1109.750 2149.020 C 1110.987 2148.420, 1112 2147.720, 1112 2147.465 C 1112 2146.700, 1111.481 2146.921, 1109.441 2148.555 M 1104.441 2151.555 C 1102.577 2153.049, 1102.589 2153.067, 1104.750 2152.020 C 1105.987 2151.420, 1107 2150.720, 1107 2150.465 C 1107 2149.700, 1106.481 2149.921, 1104.441 2151.555 M 1097.441 2155.555 C 1095.577 2157.049, 1095.589 2157.067, 1097.750 2156.020 C 1098.987 2155.420, 1100 2154.720, 1100 2154.465 C 1100 2153.700, 1099.481 2153.921, 1097.441 2155.555 M 1092.441 2158.555 C 1090.577 2160.049, 1090.589 2160.067, 1092.750 2159.020 C 1093.987 2158.420, 1095 2157.720, 1095 2157.465 C 1095 2156.700, 1094.481 2156.921, 1092.441 2158.555 M 1085.441 2162.555 C 1083.577 2164.049, 1083.589 2164.067, 1085.750 2163.020 C 1086.987 2162.420, 1088 2161.720, 1088 2161.465 C 1088 2160.700, 1087.481 2160.921, 1085.441 2162.555 M 1080.441 2165.555 C 1078.577 2167.049, 1078.589 2167.067, 1080.750 2166.020 C 1081.987 2165.420, 1083 2164.720, 1083 2164.465 C 1083 2163.700, 1082.481 2163.921, 1080.441 2165.555 M 1068.441 2172.555 C 1066.577 2174.049, 1066.589 2174.067, 1068.750 2173.020 C 1069.987 2172.420, 1071 2171.720, 1071 2171.465 C 1071 2170.700, 1070.481 2170.921, 1068.441 2172.555 M 1056.441 2179.555 C 1054.577 2181.049, 1054.589 2181.067, 1056.750 2180.020 C 1057.987 2179.420, 1059 2178.720, 1059 2178.465 C 1059 2177.700, 1058.481 2177.921, 1056.441 2179.555 M 1044.441 2186.555 C 1042.577 2188.049, 1042.589 2188.067, 1044.750 2187.020 C 1045.987 2186.420, 1047 2185.720, 1047 2185.465 C 1047 2184.700, 1046.481 2184.921, 1044.441 2186.555 M 1032.441 2193.555 C 1030.577 2195.049, 1030.589 2195.067, 1032.750 2194.020 C 1033.987 2193.420, 1035 2192.720, 1035 2192.465 C 1035 2191.700, 1034.481 2191.921, 1032.441 2193.555 " stroke="none" fill="white" fill-rule="evenodd" transform="scale(0.0125) translate(0 -173)"></path>
    </g>
</svg>