<svg xmlns="http://www.w3.org/2000/svg" width="60" height="60" viewBox="0 0 60 60">
  <g fill="none" fill-rule="evenodd" transform="translate(5 5)">
    <rect width="48" height="48" x="1" y="1" stroke="#FFFFFF" stroke-opacity=".2" stroke-width="2" opacity="0" rx="4"/>
    <path fill="#FFFFFF" d="M27.0040399,30 L27.0040399,29.7737859 C27.0040399,24.5863916 27.0049413,19.3989972 27.0000004,14.2116368 C26.9998668,14.0423415 27.0365564,13.9997968 27.2059495,14.0000007 C31.4064902,14.0054717 35.6069975,14.0042144 39.8075382,14.0051659 C39.865861,14.0051999 39.927422,13.9884131 40,14.0302781 C35.6760701,19.3436415 31.3560128,24.6521795 27.0040399,30 Z M24.9955834,20 L24.9955834,20.2161928 C24.9955834,25.4088289 24.99464,30.6014651 25.0000132,35.7941012 C25.0001773,35.9536211 24.961908,36.0002369 24.7582565,35.9999991 C19.5833737,35.9946648 14.4084498,35.995786 9.23352603,35.995786 L9.00001377,35.995786 C14.3356849,30.6600406 19.6461303,25.3495398 24.9955834,20 Z M33.9885085,35.9964075 L27.2182487,35.9964075 C26.9940572,35.9964075 26.9940572,35.9963358 27.0025362,35.7628409 C27.1128715,32.7265824 29.1129543,30.1425075 32.0146174,29.2873274 C36.0255973,28.1052258 40.1995112,30.6934594 40.8992114,34.7971693 C40.9564449,35.1327309 40.9808401,35.4714473 40.9990916,35.8112392 C41.0070677,35.9593022 40.9639539,36.0006379 40.8126247,35.9999926 C39.3760027,35.9939697 37.9393088,35.9964075 36.5026509,35.9964075 L33.9885085,35.9964075 Z M17.9894219,14.0034846 C20.2570236,14.0034846 22.5246253,14.0051356 24.792227,14.0000033 C24.9528214,13.9996085 25.0062811,14.0348885 24.9994236,14.2042545 C24.9284073,15.9631979 24.3163319,17.5040366 23.1076911,18.7845276 C21.6825189,20.2943571 19.9122823,21.0269841 17.836403,20.9992409 C14.5197855,20.9549165 11.6316352,18.452256 11.1018496,15.177274 C11.0473846,14.8405162 11.0223602,14.501892 11.0010338,14.1617963 C10.9916631,14.0123136 11.0458767,14.0002904 11.1686652,14.0011159 C11.9045703,14.0059251 12.6405113,14.0034846 13.3764165,14.0034846 L17.9894219,14.0034846 Z"/>
  </g>
</svg>
