<svg xmlns="http://www.w3.org/2000/svg" width="360" height="360" viewBox="0 0 360 360">
  <path fill="#FFF" d="M259.808194,241.978535 C258.408295,252.39384 251.399464,261.399907 241.590834,265.40364 C236.784511,267.40084 231.576885,268.007466 226.369258,267.40084 C221.36695,266.803546 216.355309,265.19832 211.157015,262.20252 C203.952198,258.189454 196.738049,251.992534 188.329318,242.781148 C201.544371,226.560896 209.551797,211.749883 212.556915,198.534764 C213.956815,192.328511 214.162133,186.719552 213.55551,181.511899 C212.752901,176.509566 210.951697,171.899207 208.151897,167.895474 C201.945676,158.889407 191.530422,153.681755 179.920588,153.681755 C168.310753,153.681755 157.8955,159.085394 151.689278,167.895474 C148.889479,171.899207 147.088275,176.509566 146.285666,181.511899 C145.483056,186.719552 145.688375,192.524498 147.284261,198.534764 C150.289378,211.749883 158.49279,226.766216 171.511857,242.977135 C163.299113,252.188521 155.89831,258.394774 148.68416,262.398507 C143.476534,265.40364 138.474225,267.008866 133.471917,267.60616 C128.310954,268.184788 123.093995,267.494167 118.259675,265.608959 C108.451044,261.605226 101.442213,252.589827 100.042314,242.183854 C99.4450233,237.181521 99.8463278,232.179188 101.843518,226.570229 C102.440809,224.563696 103.448736,222.566496 104.447331,220.167989 C105.847231,216.966869 107.452449,213.560429 109.048335,210.15399 L109.253653,209.752683 C123.065997,179.916006 137.886268,149.482035 153.303829,119.850677 L153.90112,118.646757 C155.506338,115.650957 157.102223,112.440504 158.707442,109.435371 C160.31266,106.234251 162.113864,103.229118 164.316373,100.625292 C168.525405,95.8189454 174.125003,93.215119 180.331225,93.215119 C186.537447,93.215119 192.146378,95.8189454 196.346077,100.625292 C198.548586,103.229118 200.34979,106.234251 201.955008,109.435371 C203.560226,112.440504 205.156112,115.641624 206.76133,118.637424 L207.367954,119.841344 C222.580196,149.668689 237.400467,180.10266 251.212811,209.939337 L251.212811,210.135324 C252.818029,213.336444 254.217928,216.948203 255.813814,220.149323 C256.812409,222.557163 257.820337,224.554363 258.417627,226.551563 C260.013513,231.768549 260.610803,236.770882 259.808194,241.978535 Z M179.920588,232.561829 C169.113362,218.945404 162.104532,206.131591 159.696704,195.324312 C158.698109,190.713952 158.49279,186.710219 159.099414,183.107793 C159.500718,179.906673 160.704632,177.097527 162.300517,174.69902 C166.108245,169.29538 172.510452,165.888941 179.920588,165.888941 C187.330723,165.888941 193.93825,169.099393 197.540658,174.69902 C199.145876,177.10686 200.340457,179.906673 200.741762,183.107793 C201.339052,186.710219 201.143066,190.919272 200.144471,195.324312 C197.745977,205.935604 190.737146,218.749417 179.920588,232.561829 Z M270.223448,222.155856 C269.224853,219.75735 268.216925,217.153523 267.21833,214.951003 C265.613112,211.348577 264.017226,207.942137 262.607994,204.741017 L262.412008,204.54503 C248.599664,174.512366 233.779394,144.078395 218.165846,114.04573 L217.568556,112.841811 C215.963337,109.836678 214.367452,106.635558 212.762233,103.434438 C210.755711,99.8320112 208.75852,96.024265 205.557417,92.4218385 C199.145876,84.4050397 189.934537,80 180.125906,80 C170.111958,80 161.105936,84.4050397 154.489077,92.0111993 C151.48396,95.6136258 149.281451,99.4213719 147.284261,103.023798 C145.679042,106.224918 144.083157,109.426038 142.477938,112.431171 L141.880648,113.625758 C126.463086,143.658423 111.44683,174.092394 97.6344864,204.125058 L97.4385004,204.526365 C96.0386008,207.727485 94.4333825,211.133924 92.8281642,214.736351 C91.7549079,217.10686 90.7563128,219.514699 89.8230463,221.941204 C87.219233,229.351377 86.4166239,236.360243 87.4152189,243.565096 C89.6177277,258.581428 99.6316765,271.199253 113.44402,276.79888 C118.651646,279.0014 124.055259,280 129.66419,280 C131.269409,280 133.266599,279.804013 134.871817,279.598693 C141.479343,278.79608 148.282856,276.602893 154.890382,272.795147 C163.103127,268.19412 170.905234,261.586561 179.715269,251.973868 C188.525304,261.586561 196.53273,268.19412 204.540156,272.795147 C211.147683,276.602893 217.951195,278.79608 224.558721,279.598693 C226.163939,279.804013 228.16113,280 229.766348,280 C235.375279,280 240.974878,279.0014 245.986518,276.79888 C260.00418,271.189921 269.812811,258.376108 272.015319,243.565096 C273.620538,236.565562 272.817928,229.566029 270.223448,222.155856 Z"/>
</svg>
