<svg xmlns="http://www.w3.org/2000/svg" width="360" height="360" viewBox="0 0 360 360">
  <g fill="#FFF" fill-rule="evenodd" transform="translate(70 91)">
    <path d="M111.65,142.750205 C98.49987,142.750205 87.8395833,132.075009 87.8395833,118.906487 L135.465,118.906487 C135.465,132.075009 124.804713,142.750205 111.654583,142.750205 L111.65,142.750205 Z M58.4329167,89.4541026 C54.5309674,89.4528838 50.7885493,91.0048694 48.0298842,93.7682536 C45.2712191,96.5316379 43.7225672,100.279774 43.7249971,104.187179 L73.1316667,104.187179 C73.1316667,96.0553955 66.5487601,89.4632821 58.4283333,89.4632821 L58.4329167,89.4541026 Z M164.977083,89.4632821 C156.860236,89.4658154 150.280863,96.0543901 150.278333,104.18259 L179.680417,104.18259 C179.677886,96.0525982 173.095721,89.4632817 164.977083,89.4632821 Z M111.65,19.3090513 C116.680969,19.3090513 120.759375,15.2249411 120.759375,10.1869359 C120.759375,5.14893068 116.680969,1.06482051 111.65,1.06482051 C106.619031,1.06482051 102.540625,5.14893068 102.540625,10.1869359 C102.540625,15.2249411 106.619031,19.3090513 111.65,19.3090513 Z"/>
    <path d="M199.8425,155.059897 C196.900333,158.376455 192.741291,160.357041 188.315417,160.549231 C169.93625,161.407513 141.716667,162.431026 111.654583,162.431026 C81.5879167,162.431026 53.3729167,161.407513 34.99375,160.549231 C30.5673134,160.35534 26.4083577,158.37314 23.4666667,155.055308 C20.5142472,151.76629 19.0193087,147.419274 19.3233333,143.007231 C20.295,128.283333 21.6058333,115.248462 23.2191667,104.265205 C25.61625,87.9624359 29.2233333,71.4164103 31.8220833,60.4010256 C33.4596624,53.3246737 39.5587897,48.1757763 46.8004167,47.7562821 C60.12875,46.9255385 82.1975,45.9341538 111.654583,45.9341538 C141.107083,45.9341538 163.180417,46.9255385 176.50875,47.7562821 C183.74864,48.1777469 189.845406,53.326227 191.4825,60.4010256 C194.090417,71.4164103 197.692917,87.9716154 200.085417,104.265205 C201.703333,115.248462 203.014167,128.283333 203.98125,143.002641 C204.287984,147.416998 202.794699,151.767327 199.8425,155.059897 Z M214.632917,102.117205 C212.157917,85.3095641 208.46375,68.3091538 205.791667,57.0092051 C202.685847,43.6084184 191.135445,33.8581289 177.420833,33.0599231 C163.88625,32.22 141.4875,31.2102564 111.65,31.2102564 C81.8216667,31.2102564 59.4229167,32.22 45.8883333,33.0599231 C32.1731281,33.8566372 20.6219518,43.6075803 17.5175,57.0092051 C14.8454167,68.3045641 11.1466667,85.3003846 8.67166667,102.117205 C6.99875,113.49059 5.64666667,126.920179 4.65208333,142.038795 C4.07465231,150.397006 6.90584998,158.632542 12.49875,164.86359 C18.0632315,171.141083 25.9319995,174.890517 34.30625,175.254769 C52.84125,176.126821 81.30375,177.159513 111.654583,177.159513 C141.99625,177.159513 170.463333,176.122231 189.002917,175.254769 C197.375682,174.889814 205.242766,171.140394 210.805833,164.86359 C216.398733,158.632542 219.229931,150.397006 218.6525,142.038795 C217.657917,126.920179 216.305833,113.49059 214.632917,102.117205 Z"/>
  </g>
</svg>
