<svg xmlns="http://www.w3.org/2000/svg" width="360" height="360" viewBox="0 0 360 360">
  <path fill="#FFF" fill-rule="evenodd" d="M109.64941,6.00013455 C109.398043,6.0536072 108.37932,6.25355836 107.385734,6.44482594 C101.847887,7.51039426 94.8975844,10.8894547 89.770608,15.0086772 C81.876079,21.3520422 76.0802374,31.7634422 75.2644367,41.0674555 C75.012841,43.9364691 75.1881125,46.8991741 75.6531418,47.6420783 C75.9867746,48.1749767 76.0443605,48.1836603 78.2310264,48.0330686 C84.6870496,47.5886057 91.6083306,44.5836253 97.4775257,39.676938 C101.377602,36.4167057 104.891943,31.7952059 107.474627,26.5306631 C110.193963,20.9875598 111.397783,15.9602162 111.371047,10.258066 C111.350937,5.94460525 111.237137,5.6628455 109.64941,6.00013455 M43.2656234,47.1461994 C41.6762973,47.3255842 37.2035611,48.4092053 35.2856296,49.0794416 C24.1198995,52.9815742 13.5508237,62.5348981 8.20561493,73.5564348 C-0.889992155,92.31094 1.47925776,120.657617 14.2548803,145.930073 C19.5603274,156.425338 27.7167353,167.897279 33.7399499,173.335722 C40.259729,179.222284 46.5825276,181.717218 53.3938926,181.091085 C56.2914706,180.824864 58.8247947,180.057738 63.5756344,178.007724 C68.0947592,176.0578 70.7142337,175.14191 73.2480149,174.625236 C79.8541729,173.278365 87.6289597,173.684894 93.2575278,175.671609 C94.3470903,176.056201 96.9384574,177.125882 99.0161214,178.048857 C101.094014,178.971831 103.71943,180.008835 104.850582,180.353437 C106.735836,180.927696 107.231258,180.981169 110.791988,180.993738 C114.595859,181.006991 114.720629,180.991909 116.784353,180.270943 C121.301878,178.692814 124.546572,176.570818 128.903222,172.344878 C134.557612,166.860504 140.945538,158.188107 146.647002,148.256362 C149.915918,142.561753 153.341367,135.206063 153.004307,134.604153 C152.889364,134.398718 152.03403,133.895298 151.103285,133.485341 C144.398637,130.531776 138.146679,125.031634 134.208897,118.622457 C131.938823,114.927359 130.234325,110.580535 129.244853,105.963148 C128.676763,103.311682 128.628318,102.675951 128.633345,97.9417933 C128.637915,93.4786548 128.706698,92.4836978 129.154589,90.4007779 C131.387644,80.0147432 137.010727,71.921177 146.055604,66.074605 C146.975379,65.4800074 147.783639,64.8479332 147.851965,64.6694625 C148.018782,64.2348258 147.138311,63.1201266 144.638579,60.6009704 C138.231686,54.1440332 130.537108,49.7544767 122.103511,47.7446818 C120.164556,47.2826233 118.892638,47.1493987 115.476558,47.0504514 C109.195121,46.8683245 104.602643,47.644135 97.9951136,50.0031017 C86.7087273,54.0327461 85.5055926,54.3410136 81.084958,54.3373574 C76.8507921,54.3339296 74.3549445,53.7781797 66.0029273,50.9793204 C58.2571619,48.383383 56.2567362,47.8242053 52.9135527,47.3203283 C50.8797638,47.0136604 45.3270628,46.9135705 43.2656234,47.1461994" transform="translate(102 86.4)"/>
</svg>
