<svg width="60" height="60" viewBox="0 0 60 60" xmlns="http://www.w3.org/2000/svg">
    <rect fill="transparent" x="0" y="0" width="60" height="60" rx="4.8"></rect>

    <g width="30" height="30" viewBox="0 0 30 30" transform="translate(15, 15)" fill="#FFFFFF">
        <path d="M 225.500 32.471 C 183.868 38.163, 145.217 54.627, 112.311 80.686 C 102.940 88.107, 85.214 105.814, 77.459 115.500 C 58.120 139.655, 43.367 169.084, 35.599 199 C 28.473 226.448, 28.729 221.345, 28.277 344.770 C 27.824 468.384, 27.519 462.154, 34.474 471.263 C 36.965 474.524, 39.961 476.840, 44.726 479.186 L 51.459 482.500 162.480 482.500 C 247.313 482.500, 275.623 482.198, 282.500 481.220 C 319.154 476.009, 351.723 464.170, 379.500 445.959 C 437.303 408.065, 473.997 347.797, 481.094 279.096 C 482.565 264.863, 481.737 234.019, 479.536 221 C 475.521 197.256, 469.677 179.164, 459.024 157.500 C 446.633 132.302, 434.478 115.311, 414.991 95.948 C 397.665 78.731, 377.575 64.563, 354.710 53.433 C 333.107 42.918, 309.014 35.734, 284.630 32.538 C 270.601 30.699, 238.724 30.663, 225.500 32.471 M 132.500 160.236 C 123.379 163.514, 116.993 170.902, 115.006 180.470 C 113.079 189.751, 116.155 198.293, 123.962 205.347 C 131.719 212.355, 124.114 212, 266.500 212 C 412.427 212, 401.522 212.631, 410.432 203.667 C 416.256 197.808, 418 193.351, 418 184.330 C 418 173.568, 411.246 164.115, 400.965 160.488 C 397.311 159.198, 379.331 159.011, 266.124 159.079 C 175.433 159.134, 134.583 159.488, 132.500 160.236 M 128.969 234.536 C 126.478 235.304, 122.479 237.610, 120.083 239.661 C 105.943 251.765, 108.734 274.274, 125.500 283.338 L 129.500 285.500 239.500 285.500 L 349.500 285.500 353.568 283.322 C 370.481 274.270, 372.923 251.180, 358.251 239.045 C 350.667 232.772, 355.072 232.993, 239.068 233.070 C 151.679 233.127, 132.720 233.380, 128.969 234.536 M 128.500 311.353 C 118.226 316.147, 112.337 326.154, 113.232 337.297 C 114.029 347.228, 118.592 354.163, 127.380 358.799 L 132.500 361.500 188.884 361.782 C 254.471 362.110, 252.861 362.290, 261.415 353.684 C 267.212 347.852, 269 343.353, 269 334.602 C 269 324.391, 264.167 316.739, 254.745 312.030 L 248.681 309 191.090 309.010 L 133.500 309.020 128.500 311.353 " stroke="none" fill="white" fill-rule="evenodd" transform="scale(0.05859375) translate(0 0)"></path>
    </g>
</svg>