<svg width="60" height="60" viewBox="0 0 60 60" xmlns="http://www.w3.org/2000/svg">
    <rect fill="transparent" x="0" y="0" width="60" height="60" rx="4.8"></rect>

    <g width="30" height="30" viewBox="0 0 30 30" transform="translate(15, 15)" fill="#FFFFFF">
        <path d="M 325 106.611 C 291.876 108.371, 269.922 111.299, 247.500 116.948 C 213.732 125.455, 187.294 139.826, 165.538 161.500 C 133.903 193.016, 117.656 234.894, 111.803 300 C 110.023 319.802, 110.007 427.791, 111.781 448 C 115.083 485.610, 121.753 514.872, 132.464 538.740 L 135.187 544.808 143.019 538.485 C 151.727 531.454, 162.533 524.036, 171.250 519.106 C 174.413 517.317, 177 515.740, 177 515.602 C 177 515.463, 175.859 512.009, 174.464 507.925 C 167.813 488.451, 163.796 465.921, 161.924 437.589 C 160.251 412.279, 161.289 307.408, 163.368 291.605 C 169.574 244.442, 180.991 216.612, 202.636 195.884 C 223.710 175.702, 250.106 165.336, 295.605 159.375 C 311.469 157.296, 416.357 156.251, 441.572 157.921 C 545.674 164.812, 585.935 203.397, 593.997 304 C 597.004 341.513, 596.102 431.234, 592.427 460.222 C 590.030 479.128, 584.913 500.522, 579.546 514.070 C 579.091 515.219, 580.344 516.412, 584.212 518.515 C 591.960 522.726, 607.629 533.550, 614.335 539.322 C 620.777 544.868, 620.263 544.986, 624.427 537 C 632.828 520.889, 640.834 486.825, 644.169 453 C 646.042 434.006, 646.042 313.994, 644.169 295 C 638.100 233.446, 621.815 192.643, 591.068 161.953 C 577.996 148.904, 567.789 141.408, 551.631 132.988 C 525.829 119.543, 495.402 111.704, 454.500 107.964 C 443.274 106.937, 339.301 105.851, 325 106.611 M 343.816 268.080 C 331.729 269.360, 319.238 272.721, 310 277.177 C 303.244 280.436, 299.836 282.942, 293.389 289.389 C 276.100 306.677, 271.053 325.686, 271.017 373.644 C 270.989 411.040, 273.239 425.749, 281.596 442.823 C 291.707 463.480, 309.927 475.234, 338.382 479.459 C 350.620 481.277, 401.583 481.623, 414.702 479.978 C 436.473 477.248, 451.276 470.845, 463.061 459.061 C 474.845 447.276, 481.248 432.473, 483.978 410.702 C 485.623 397.583, 485.277 346.620, 483.459 334.382 C 477.343 293.187, 454.647 272.363, 411.144 268.031 C 399.221 266.844, 355.185 266.876, 343.816 268.080 M 327 535.616 C 253.801 538.995, 210.027 552.398, 173.926 582.488 L 166.742 588.475 172.621 593.836 C 184.613 604.770, 205.625 617.090, 224.951 624.519 C 243.315 631.577, 270.817 637.390, 299 640.169 C 317.994 642.042, 438.006 642.042, 457 640.169 C 514.524 634.497, 556.372 619.034, 584.588 593.026 L 589.364 588.624 583.932 583.727 C 577.080 577.550, 559.891 565.978, 550.675 561.336 C 525.299 548.557, 493.045 540.505, 453 536.951 C 441.220 535.906, 343.220 534.867, 327 535.616 " stroke="none" fill="white" fill-rule="evenodd" transform="scale(0.04054054054054054) translate(0 0)"></path>
    </g>
</svg>