<svg width="60" height="60" viewBox="0 0 60 60" xmlns="http://www.w3.org/2000/svg">
    <rect fill="transparent" x="0" y="0" width="60" height="60" rx="4.8"></rect>

    <g width="30" height="30" viewBox="0 0 30 30" transform="translate(15, 15)" fill="#FFFFFF">
        <path d="M 103.994 121.874 C 88.848 126.844, 81.129 143.284, 87.736 156.500 C 90.790 162.609, 94.388 166.288, 99.673 168.708 C 104.170 170.767, 106.291 171.123, 112.510 170.863 L 119.961 170.552 123.278 176.026 C 125.103 179.037, 127.859 183.393, 129.403 185.708 L 132.210 189.915 125.082 197.708 C 93.359 232.388, 78.254 277.782, 88.669 307.137 C 92.699 318.496, 104.131 329.617, 117.693 335.370 C 121.414 336.949, 128.784 339.308, 134.070 340.613 C 152.869 345.253, 165.049 346.134, 218.220 346.702 L 267.941 347.233 271.038 352.059 C 274.858 358.013, 285.746 368.395, 294.166 374.113 C 306.742 382.653, 327.349 390, 338.726 390 C 344.069 390, 348 388.752, 348 387.056 C 348 386.575, 345.255 383.553, 341.900 380.341 C 335.031 373.762, 330.369 367.193, 325.533 357.271 C 319.977 345.876, 319.752 346.542, 329.262 346.226 C 366.099 345.002, 393.732 337.059, 407.806 323.650 C 419.583 312.429, 424.018 294.743, 420.566 272.760 C 416.340 245.845, 402.436 219.079, 380.879 196.358 C 378.195 193.530, 376 190.641, 376 189.939 C 376 189.236, 378.587 184.482, 381.750 179.375 C 386.523 171.665, 387.835 170.189, 389.474 170.682 C 390.559 171.009, 394.086 171.239, 397.311 171.194 C 409.943 171.015, 420.079 161.687, 421.587 148.856 C 422.355 142.319, 421.032 137.434, 416.824 131.273 C 409.138 120.023, 392.080 117.736, 380.685 126.427 C 373.740 131.724, 369.681 143.388, 371.907 151.653 C 372.519 153.926, 372.750 156.397, 372.421 157.143 C 372.092 157.889, 368.099 161.758, 363.548 165.739 L 355.274 172.978 346.962 167.415 C 337.309 160.954, 317.794 151.277, 307 147.599 C 284.833 140.045, 258.768 137.319, 234.500 140.017 C 207.592 143.007, 179.026 153.953, 156.744 169.811 L 151.989 173.196 145.244 167.199 C 133.822 157.043, 133.999 157.328, 135.233 151.158 C 138.218 136.232, 127.654 122.265, 112.731 121.409 C 109.304 121.213, 105.372 121.422, 103.994 121.874 M 232 197.626 C 230.625 197.820, 225.675 198.469, 221 199.067 C 216.325 199.665, 207.526 201.452, 201.446 203.038 C 176.377 209.578, 158.376 220.419, 147.960 235.250 C 140.871 245.345, 138.500 253.052, 138.500 266 C 138.500 275.266, 138.808 277.146, 141.123 282 C 146.561 293.406, 155.139 298.613, 174.169 302.061 C 189.943 304.919, 313.888 304.872, 332.741 302.001 C 357.773 298.190, 369 286.953, 369 265.713 C 369 243.459, 355.194 224.111, 330.500 211.758 C 318.150 205.580, 296.598 199.940, 278.144 198.057 C 268.621 197.085, 237.859 196.798, 232 197.626 M 181.695 231.096 C 168.586 238.014, 166.614 263.563, 178.305 274.994 C 184.145 280.703, 191.122 280.997, 197.428 275.798 C 202.953 271.245, 205.271 265.862, 205.791 256.375 C 206.481 243.824, 202.523 234.884, 194.576 231.037 C 189.362 228.513, 186.566 228.526, 181.695 231.096 M 314 230.070 C 306.610 233.159, 301.856 241.359, 301.213 252.127 C 300.403 265.678, 306.038 276.351, 315.383 278.967 C 331.018 283.345, 342.346 259.541, 333.659 240.566 C 329.655 231.821, 320.940 227.168, 314 230.070 " stroke="none" fill="white" fill-rule="evenodd" transform="scale(0.05859375) translate(0 0)"></path>
    </g>
</svg>