<svg width="60" height="60" viewBox="0 0 60 60" xmlns="http://www.w3.org/2000/svg">
    <rect fill="transparent" x="0" y="0" width="60" height="60" rx="4.8"></rect>

    <g width="30" height="30" viewBox="0 0 30 30" transform="translate(15, 15)" fill="#FFFFFF">
        <path d="M 430.500 82.018 C 342.828 87.632, 263.159 118.368, 196.821 172.171 C 181.820 184.338, 153.792 212.551, 141.855 227.500 C 94.767 286.472, 67.219 354.986, 60.951 428.716 C 59.368 447.336, 60.243 495.200, 62.455 511 C 81.431 646.541, 165.975 773.612, 287.500 849.247 C 331.708 876.761, 377.631 895.042, 419.233 901.688 C 432.170 903.754, 467.564 904.037, 480.500 902.177 C 512.222 897.616, 535.310 886.446, 547.651 869.690 C 553.694 861.487, 555.778 857.229, 557.954 848.653 L 559.769 841.500 583.634 840.877 C 611.355 840.153, 628.343 837.941, 651.393 832.055 C 703.481 818.754, 747.802 792.265, 777.811 756.500 C 807.415 721.218, 822.506 681.672, 824.690 633.647 L 825.328 619.631 833.646 607.254 C 862.352 564.539, 876.107 510.721, 872.913 453.612 C 871.038 420.082, 864.621 391.652, 851.333 358 C 810.768 255.271, 739.134 174.654, 647.733 128.866 C 609.240 109.583, 562.154 94.239, 519.500 87.079 C 492.340 82.520, 455.436 80.422, 430.500 82.018 M 437 126.610 C 378.315 129.693, 325.164 144.722, 276.391 172.022 C 189.384 220.724, 128.746 302.617, 110.534 396.016 C 105.773 420.435, 104.641 432.777, 104.576 461 C 104.516 487.196, 105.245 497.585, 107.064 496.460 C 107.579 496.142, 108 495.008, 108 493.941 C 108 488.935, 118.816 459.674, 126.087 445.009 C 146.942 402.946, 176.979 369.351, 217.500 342.767 C 237.279 329.792, 265.951 316.095, 291.500 307.418 C 297.550 305.363, 303.007 303.295, 303.627 302.821 C 304.246 302.347, 306.814 298.413, 309.333 294.078 C 332.136 254.834, 371.939 222.606, 415.531 208.093 C 452.841 195.671, 489.694 195.119, 523.623 206.472 C 564.134 220.028, 594.971 249.294, 603.125 281.923 C 604.885 288.965, 605.148 292.327, 604.730 302.423 C 604.440 309.418, 603.500 317.025, 602.494 320.500 C 601.540 323.800, 600.573 327.400, 600.345 328.500 C 599.992 330.201, 602.171 331.598, 614.919 337.843 C 655.779 357.859, 692.854 384.224, 726.686 417.323 L 743.903 434.168 745.433 430.505 C 759.989 395.668, 761.304 352.680, 748.896 317.312 C 730.125 263.808, 669.497 194.419, 616 165.212 C 591.832 152.016, 549.404 137.944, 516 132.043 C 493.193 128.014, 457.282 125.545, 437 126.610 M 459.265 243.966 C 428.967 247.427, 399.110 261.396, 375.781 283.028 C 371.777 286.741, 368.725 289.982, 369 290.231 C 369.275 290.479, 374.225 290.266, 380 289.757 C 397.106 288.252, 445.941 289.508, 463.500 291.904 C 491.347 295.706, 512.245 300.128, 537.500 307.565 C 546.300 310.156, 554.390 312.327, 555.477 312.388 C 560.764 312.687, 561.395 295.459, 556.469 285.289 C 550.489 272.941, 533.021 258.775, 514.027 250.867 C 499.842 244.962, 476.406 242.009, 459.265 243.966 M 377.170 335.020 C 365.284 336.248, 346.497 339.032, 341.109 340.364 C 335.608 341.723, 334.502 343.629, 330.082 359.369 C 324.885 377.880, 323.499 389.193, 323.576 412.500 C 323.651 435.423, 325.111 446.573, 330.917 468.582 C 342.192 511.316, 368.967 556.383, 402.973 589.865 C 450.718 636.875, 516.550 667.547, 583.797 674.113 C 600.605 675.755, 633.277 674.724, 648.931 672.059 C 698.501 663.620, 740.072 642.959, 771.327 611.226 L 778.154 604.295 776.107 592.864 C 772.241 571.270, 765.808 552.494, 754.396 529.500 C 750.302 521.250, 746.114 513.409, 745.090 512.075 L 743.228 509.651 737.864 514.207 C 725.009 525.125, 703.471 536.897, 685.164 543.009 C 658.758 551.826, 630.240 554.051, 603 549.420 C 556.978 541.595, 513.407 509.433, 496.980 471.161 C 490.501 456.066, 489.491 450.665, 489.567 431.500 C 489.628 415.934, 489.864 413.746, 492.367 405.562 C 497.375 389.186, 506.805 373.691, 520.808 358.828 C 526.396 352.898, 526.910 352.025, 525.308 351.185 C 519.614 348.202, 479.766 339.581, 457 336.408 C 443.698 334.554, 390.618 333.631, 377.170 335.020 M 266.940 366.250 C 220.470 389.584, 186.203 423.428, 165.437 466.500 C 151.099 496.238, 145.115 524.553, 146.311 557 C 147.944 601.314, 164.389 642.746, 192.101 672.365 C 210.407 691.930, 230.092 702.737, 257.447 708.238 C 267.121 710.183, 271.681 710.463, 294 710.480 C 308.025 710.491, 331.425 709.911, 346 709.192 C 385.192 707.257, 406.902 709.210, 438.764 717.538 C 490.650 731.100, 528.509 755.671, 547.587 788.165 L 551.500 794.830 563 795.551 C 585.414 796.956, 616.807 793.865, 639.297 788.038 C 694.055 773.852, 734.408 745.681, 758.589 704.759 C 763.525 696.406, 770.813 679.667, 772.543 672.710 C 773.205 670.050, 772.728 670.252, 762.369 677.020 C 716.857 706.754, 656.016 722.892, 598.089 720.595 C 513.564 717.243, 430.419 681.051, 370.435 621.500 C 310.077 561.577, 275.566 480.086, 278.326 404 C 278.656 394.925, 279.632 383, 280.496 377.500 C 283.157 360.560, 283.311 359, 282.326 359 C 281.805 359, 274.882 362.263, 266.940 366.250 M 803 372.039 C 803 404.914, 793.649 440.035, 777.367 468.312 C 774.886 472.620, 774.741 473.352, 775.987 475.312 C 789.647 496.803, 801.150 519.309, 808.129 538.195 C 810.735 545.247, 812.758 549.416, 813.226 548.695 C 815.119 545.779, 821.167 525.106, 823.420 513.847 C 831.548 473.233, 828.398 430.408, 814.237 389 C 810.150 377.050, 804.113 362, 803.407 362 C 803.183 362, 803 366.518, 803 372.039 M 560.521 382.692 C 540.812 403.839, 535.210 413.720, 534.243 429.033 C 533.627 438.803, 535.244 446.268, 540.039 455.794 C 547.630 470.873, 561.260 484.037, 578.927 493.352 C 596.185 502.452, 610.787 506, 630.979 506 C 657.289 506, 679.085 499.347, 701.500 484.475 C 705.900 481.555, 711.030 477.575, 712.901 475.630 L 716.302 472.093 708.086 463.094 C 681.701 434.193, 647.210 407.243, 610.075 386.511 C 599.365 380.532, 575.709 369, 574.154 369 C 573.675 369, 567.540 375.162, 560.521 382.692 M 239 754.477 C 246.148 761.980, 264.374 777.460, 278.500 788.025 C 324.582 822.490, 371.614 845.260, 417.237 855.191 C 426.153 857.132, 430.518 857.430, 450.500 857.462 C 468.958 857.493, 475.140 857.146, 481.805 855.708 C 513.119 848.953, 520.680 837.765, 509.651 814.500 C 497.552 788.975, 462.209 768.492, 411.711 757.739 L 396.500 754.500 361 754.936 C 341.475 755.176, 311.775 755.377, 295 755.383 C 263.902 755.394, 260.990 755.140, 237.500 750.363 L 234.500 749.753 239 754.477 " stroke="none" fill="white" fill-rule="evenodd" transform="scale(0.031982942430703626) translate(0 -18)"></path>
    </g>
</svg>