<svg width="60" height="60" viewBox="0 0 60 60" xmlns="http://www.w3.org/2000/svg">
    <rect fill="transparent" x="0" y="0" width="60" height="60" rx="4.8"></rect>

    <g width="30" height="30" viewBox="0 0 30 30" transform="translate(15, 15)" fill="#FFFFFF">
        <path d="M 21 3 C 19.900 4.100, 19 5.900, 19 7 C 19 9.121, 22.275 13, 24.066 13 C 25.569 13, 29.360 10.911, 30.235 9.600 C 32.320 6.477, 28.987 1, 25 1 C 23.900 1, 22.100 1.900, 21 3 M 39.655 2.829 C 36.148 6.704, 38.975 13, 44.223 13 C 46.744 13, 50 9.425, 50 6.655 C 50 1.686, 43.024 -0.894, 39.655 2.829 M 21.223 18.557 C 16.984 21.526, 19.428 29, 24.638 29 C 27.233 29, 29.635 27.048, 30.461 24.267 C 30.945 22.638, 30.443 21.352, 28.608 19.517 C 25.685 16.594, 24.284 16.412, 21.223 18.557 M 40.223 18.557 C 37.583 20.405, 37.239 25.096, 39.571 27.429 C 41.904 29.761, 46.595 29.417, 48.443 26.777 C 50.538 23.786, 50.403 21.403, 48 19 C 45.597 16.597, 43.214 16.462, 40.223 18.557 M 40.223 34.557 C 37.829 36.233, 37.323 39.866, 39.035 43.066 C 40.397 45.611, 46.079 45.676, 48.345 43.171 C 50.749 40.515, 50.377 37.442, 47.365 35.073 C 44.209 32.590, 43.140 32.513, 40.223 34.557 M 20.571 35.571 C 16.890 39.253, 20.275 45.445, 25.630 44.825 C 27.414 44.618, 28.973 43.540, 29.909 41.865 C 31.227 39.505, 31.202 38.958, 29.667 36.615 C 27.680 33.583, 23.087 33.056, 20.571 35.571 " stroke="none" fill="white" fill-rule="evenodd" transform="scale(0.6521739130434783) translate(-2 0)"></path>
    </g>
</svg>