<svg width="60" height="60" viewBox="0 0 60 60" xmlns="http://www.w3.org/2000/svg">
    <rect fill="transparent" x="0" y="0" width="60" height="60" rx="4.8"></rect>

    <g width="30" height="30" viewBox="0 0 30 30" transform="translate(15, 15)" fill="#FFFFFF">
        <path d="M 384.500 139.480 C 383.950 139.658, 381.064 140.555, 378.087 141.475 C 366.949 144.916, 355.060 155.059, 349.938 165.489 C 343.892 177.804, 344.036 174.490, 344.017 301.250 L 344 417 407.811 417 L 471.623 417 473.921 419.141 C 475.939 421.021, 476.140 421.888, 475.564 426.230 C 475.203 428.951, 473.426 435.321, 471.616 440.386 C 459.339 474.735, 427.992 502.456, 385.529 516.513 C 375.146 519.951, 360.212 523.304, 349.750 524.547 L 344 525.230 344.006 553.365 C 344.009 569.632, 344.447 583.069, 345.044 585.219 C 346.357 589.948, 350.066 594.370, 354.130 596.054 C 360.627 598.745, 395.480 593.540, 422.095 585.903 C 490.439 566.294, 541.622 523.499, 572.077 460.500 C 584.123 435.582, 590.864 413.083, 596.199 380 C 598.298 366.979, 598.388 363.234, 598.744 274.363 C 599.148 173.501, 599.294 176.433, 593.297 164.600 C 590.029 158.151, 579.883 147.987, 573.472 144.741 C 561.708 138.784, 565.472 138.993, 471.568 139.079 C 424.231 139.122, 385.050 139.303, 384.500 139.480 M 123.500 203.670 C 105.304 207.942, 90.418 222.747, 86.468 240.497 C 84.087 251.202, 84.802 370.387, 87.338 385.458 C 96.076 437.385, 116.793 477.480, 153 512.539 C 190.227 548.586, 245.765 573.081, 290 572.964 C 300.967 572.935, 302.184 572.542, 305.296 568.027 C 306.764 565.898, 307 562.752, 307 545.357 L 307 525.159 300.250 524.450 C 283.683 522.708, 256.968 514.284, 241.260 505.847 C 218.351 493.543, 197.030 473.226, 186.789 453.942 C 181.738 444.431, 177 429.818, 177 423.751 C 177 416.639, 173.424 417, 243.829 417 L 307 417 307 331.947 C 307 237.340, 307.074 238.510, 300.378 227.343 C 294.318 217.236, 286.296 210.317, 275 205.454 C 270.698 203.602, 267.311 203.509, 198 203.358 C 158.125 203.272, 124.600 203.412, 123.500 203.670 " stroke="none" fill="white" fill-rule="evenodd" transform="scale(0.043478260869565216) translate(0 0)"></path>
    </g>
</svg>