<svg width="60" height="60" viewBox="0 0 60 60" xmlns="http://www.w3.org/2000/svg">
    <rect fill="transparent" x="0" y="0" width="60" height="60" rx="4.8"></rect>

    <g width="30" height="30" viewBox="0 0 30 30" transform="translate(15, 15)" fill="#FFFFFF">
        <path d="M 104.069 11.189 C 93.666 15.184, 87.438 19.707, 77.335 30.604 C 71.926 36.438, 65.901 42.029, 63.946 43.027 C 58.701 45.704, 48.865 47.187, 38.584 46.851 L 29.500 46.554 24 52.375 C 15.570 61.296, 15.515 60.366, 24.990 69.166 L 33.320 76.903 29.581 81.466 C 27.525 83.975, 25.991 86.404, 26.171 86.864 C 26.902 88.720, 38.874 99, 40.306 99 C 41.152 99, 43.361 97.228, 45.214 95.063 C 47.703 92.155, 48.966 91.363, 50.042 92.034 C 51.225 92.772, 50.799 93.647, 47.777 96.678 C 45.684 98.777, 43.040 100.432, 41.739 100.456 C 40.136 100.487, 37.048 103.110, 31.705 108.980 C 27.460 113.643, 24.139 117.918, 24.327 118.480 C 25.229 121.186, 29.050 118.952, 35.407 112 C 39.179 107.875, 42.556 104.383, 42.911 104.241 C 43.266 104.098, 46.642 106.721, 50.414 110.069 L 57.272 116.157 61.886 111.615 L 66.500 107.073 74.500 114.490 C 78.900 118.570, 83.020 121.928, 83.656 121.954 C 84.292 121.979, 87.762 118.815, 91.366 114.922 C 97.379 108.427, 97.860 107.583, 97.209 104.672 C 96.819 102.927, 96.500 95.650, 96.500 88.500 C 96.500 72.855, 96.573 72.682, 109.220 58.592 C 114.133 53.118, 119.418 46.133, 120.964 43.070 C 128.813 27.517, 128.950 13.576, 121.288 10.085 C 117.604 8.407, 110.056 8.891, 104.069 11.189 M 94.655 31.829 C 90.662 36.241, 93.914 45, 99.545 45 C 105.608 45, 109.271 36.271, 105 32 C 102.446 29.446, 96.894 29.355, 94.655 31.829 M 41.126 75.160 C 38.170 78.397, 34.852 82.190, 33.752 83.589 L 31.752 86.131 34.573 89.076 L 37.394 92.021 41.316 88.260 C 43.472 86.192, 46.999 82.303, 49.153 79.617 C 52.938 74.897, 53.009 74.668, 51.296 72.774 C 47.674 68.772, 46.764 68.986, 41.126 75.160 M 56.142 93.910 C 52.214 98.261, 49.025 102.198, 49.055 102.660 C 49.086 103.122, 50.511 104.609, 52.223 105.965 L 55.335 108.429 62.667 100.555 C 66.700 96.224, 70 92.110, 70 91.413 C 70 90.157, 65.398 86, 64.008 86 C 63.610 86, 60.071 89.560, 56.142 93.910 M 16.539 105.606 C 4.917 118.209, 2.965 121.415, 7.281 120.816 C 9.895 120.454, 31 98.131, 31 95.729 C 31 91.310, 27.550 93.667, 16.539 105.606 M 37.416 124.116 C 31.412 130.780, 26.365 136.798, 26.201 137.490 C 26.036 138.182, 26.711 139.064, 27.701 139.450 C 29.048 139.975, 30.601 138.940, 33.886 135.326 C 36.298 132.672, 41.624 126.806, 45.721 122.292 C 49.818 117.777, 52.880 113.615, 52.526 113.042 C 50.889 110.394, 47.620 112.790, 37.416 124.116 " stroke="none" fill="white" fill-rule="evenodd" transform="scale(0.21897810218978103) translate(0 -3)"></path>
    </g>
</svg>