<svg width="60" height="60" viewBox="0 0 60 60" xmlns="http://www.w3.org/2000/svg">
    <rect fill="transparent" x="0" y="0" width="60" height="60" rx="4.8"></rect>

    <g width="30" height="30" viewBox="0 0 30 30" transform="translate(15, 15)" fill="#FFFFFF">
        <path d="M 16.805 64.696 C 16.619 90.438, 16.800 116.225, 17.205 122 C 20.178 164.332, 51.799 199.711, 94.190 208.135 C 106.850 210.650, 124.017 210.190, 136.500 207 C 147.440 204.205, 163.234 196.299, 172.348 189.056 C 179.064 183.719, 191.945 169.744, 191.985 167.750 C 191.993 167.338, 165 167, 132 167 L 72 167 72 110.500 L 72 54 128.833 54 C 160.092 54, 185.951 53.716, 186.298 53.369 C 187.372 52.295, 176.064 41.293, 168.594 36.144 C 158.650 29.289, 148.481 24.392, 137.721 21.276 L 128.500 18.605 72.821 18.249 L 17.142 17.893 16.805 64.696 M 88.200 74.556 L 88.500 80.112 122.320 93.661 L 156.140 107.210 180.483 97.476 L 204.827 87.743 203.568 83.621 C 202.876 81.355, 201.285 77.138, 200.032 74.250 L 197.754 69 142.827 69 L 87.900 69 88.200 74.556 M 88 123.995 L 88 151.017 144.750 150.758 L 201.500 150.500 203.790 143.645 C 208.815 128.604, 210.338 102.956, 206.115 104.468 C 205.227 104.786, 193.618 109.384, 180.319 114.685 L 156.138 124.325 125.319 111.991 C 108.368 105.208, 93.037 99.054, 91.250 98.316 L 88 96.973 88 123.995 " stroke="none" fill="white" fill-rule="evenodd" transform="scale(0.13333333333333333) translate(0 0)"></path>
    </g>
</svg>