<svg width="60" height="60" viewBox="0 0 60 60" xmlns="http://www.w3.org/2000/svg">
    <rect fill="transparent" x="0" y="0" width="60" height="60" rx="4.8"></rect>

    <g width="30" height="30" viewBox="0 0 30 30" transform="translate(15, 15)" fill="#FFFFFF">
        <path d="M 39.385 3.250 C 28.685 11.266, 6.074 31.408, 5.079 33.809 C 4.250 35.810, 3.988 44.035, 4.199 61.420 C 4.499 86.068, 4.511 86.188, 6.861 88.090 C 9.088 89.892, 11.281 90, 45.500 90 C 79.719 90, 81.912 89.892, 84.139 88.090 C 86.489 86.188, 86.501 86.068, 86.801 61.420 C 87.013 43.963, 86.751 35.814, 85.915 33.794 C 84.896 31.334, 58.589 8.561, 50.061 2.757 C 46.584 0.390, 42.981 0.556, 39.385 3.250 M 19.455 26.455 C 17.164 28.745, 17 29.603, 17 39.276 L 17 49.642 25.726 54.423 C 31.122 57.380, 34.885 58.879, 35.586 58.352 C 43.335 52.527, 47.168 52.184, 52.473 56.843 L 55.936 59.883 64.968 54.857 L 74 49.831 74 39.370 C 74 29.597, 73.839 28.748, 71.545 26.455 L 69.091 24 45.500 24 L 21.909 24 19.455 26.455 M 39.719 29.614 C 38.334 30.999, 41.313 33, 44.759 33 L 48.274 33 43.637 37.957 C 40.636 41.165, 39 43.812, 39 45.457 C 39 47.920, 39.204 48, 45.500 48 C 50.389 48, 52 47.655, 52 46.607 C 52 44.906, 49.839 44, 45.781 44 L 42.726 44 47.429 38.972 C 50.669 35.508, 52.034 33.253, 51.816 31.722 C 51.539 29.774, 50.816 29.464, 45.960 29.206 C 42.913 29.045, 40.105 29.228, 39.719 29.614 " stroke="none" fill="white" fill-rule="evenodd" transform="scale(0.3333333333333333) translate(0 0)"></path>
    </g>
</svg>