<svg width="60" height="60" viewBox="0 0 60 60" xmlns="http://www.w3.org/2000/svg">
    <rect fill="transparent" x="0" y="0" width="60" height="60" rx="4.8"></rect>

    <g width="30" height="30" viewBox="0 0 30 30" transform="translate(15, 15)" fill="#FFFFFF">
        <path d="M 239.500 136.501 C 235.100 137.212, 229.490 138.530, 227.033 139.429 C 210.969 145.310, 199.123 158.380, 194.903 174.879 C 193.053 182.114, 193 190.809, 193 489.606 L 193 796.893 196.496 802.858 C 200.083 808.978, 206.514 815.404, 211.619 817.970 C 213.204 818.766, 215.072 819.836, 215.770 820.348 C 216.469 820.860, 220.069 822.421, 223.770 823.817 C 230.080 826.198, 231.684 826.360, 249.500 826.428 C 267.646 826.497, 268.818 826.382, 275.578 823.871 C 286.974 819.638, 298.630 811.305, 303.930 803.602 L 307 799.140 307 684.135 C 307 611.831, 307.362 568.178, 307.975 566.565 L 308.950 564 540.225 563.986 C 667.426 563.979, 772.512 563.701, 773.750 563.370 C 778.177 562.183, 779.829 564.596, 745.656 522.351 C 744.832 521.333, 741.761 517.611, 738.829 514.081 C 735.898 510.550, 730.350 503.752, 726.500 498.975 C 722.650 494.197, 712.975 482.273, 705 472.477 C 697.025 462.681, 688.700 452.330, 686.500 449.475 C 684.300 446.620, 681.246 442.757, 679.714 440.892 C 673.239 433.007, 665.787 423.816, 657.508 413.500 C 652.652 407.450, 646.748 400.250, 644.388 397.500 C 642.029 394.750, 639.063 391.075, 637.799 389.333 C 636.535 387.591, 631 380.698, 625.500 374.015 C 611.200 356.640, 609.051 353.725, 609.024 351.668 C 609.011 350.660, 614.737 342.689, 621.750 333.955 C 628.762 325.221, 636.750 315.222, 639.500 311.735 C 648.791 299.954, 661.042 284.509, 662.269 283.030 C 662.940 282.222, 665.261 279.297, 667.427 276.530 C 669.592 273.764, 671.641 271.275, 671.980 271 C 672.319 270.725, 673.677 268.925, 674.999 267 C 676.320 265.075, 678.882 261.700, 680.692 259.500 C 682.503 257.300, 695.977 240.425, 710.635 222 C 725.293 203.575, 737.562 188.275, 737.899 188 C 738.236 187.725, 740.511 184.800, 742.956 181.500 C 745.400 178.200, 752.598 168.983, 758.950 161.017 C 777.593 137.640, 777.464 137.854, 774.055 136.030 C 770.931 134.358, 249.926 134.817, 239.500 136.501 M 307.977 244.561 C 307.364 246.173, 307 285.415, 307 349.843 C 307 441.187, 307.172 452.801, 308.557 454.777 L 310.113 457 426.475 457 C 490.474 457, 543.548 456.727, 544.418 456.393 C 545.288 456.059, 546 455.158, 546 454.391 C 546 453.624, 542.063 448.160, 537.250 442.248 C 532.438 436.337, 527.825 430.642, 527 429.593 C 526.175 428.544, 524.120 426.069, 522.432 424.093 C 520.745 422.117, 513.069 412.625, 505.374 403 C 497.679 393.375, 485.672 378.406, 478.692 369.736 C 471.711 361.066, 466 353.395, 466 352.690 C 466 351.249, 466.422 350.650, 475.215 339.609 C 478.672 335.270, 483.265 329.420, 485.422 326.609 C 487.579 323.799, 493.104 316.775, 497.700 311 C 532.888 266.782, 548.895 246.053, 549.190 244.322 C 549.488 242.569, 544.942 242.490, 429.227 242.246 L 308.954 241.992 307.977 244.561 " stroke="none" fill="white" fill-rule="evenodd" transform="scale(0.03333333333333333) translate(0 0)"></path>
    </g>
</svg>