<svg width="60" height="60" viewBox="0 0 60 60" xmlns="http://www.w3.org/2000/svg">
    <rect fill="transparent" x="0" y="0" width="60" height="60" rx="4.8"></rect>

    <g width="30" height="30" viewBox="0 0 30 30" transform="translate(15, 15)" fill="#FFFFFF">
        <path d="M 779 284.926 L 779 344.878 701.750 345.284 C 618.704 345.721, 619.647 345.665, 603.029 351.132 C 575.260 360.267, 554.874 380.514, 545.768 408 C 540.459 424.026, 540.500 423.211, 540.500 514 C 540.500 597.182, 540.533 598.625, 542.640 606.500 C 547.743 625.578, 554.126 637.716, 565.383 649.750 C 580.271 665.666, 600.372 675.082, 625.697 678.005 C 632.360 678.774, 656.322 679.021, 700.500 678.776 L 765.500 678.416 775.074 675.810 C 796.748 669.911, 808.432 663.497, 822.092 650 C 836.085 636.174, 843.171 622.853, 847.695 601.873 C 849.398 593.972, 849.500 583.127, 849.500 409.500 L 849.500 225.500 814.250 225.237 L 779 224.974 779 284.926 M 259 346.527 C 224.649 351.913, 198.416 370.585, 185.057 399.156 C 179.899 410.186, 177.058 421.769, 175.905 436.462 C 175.346 443.576, 175.070 520.078, 175.230 623.500 L 175.500 798.500 210.750 798.763 L 246 799.026 246 739.074 L 246 679.122 323.750 678.729 C 398.684 678.351, 401.808 678.260, 410 676.235 C 448.687 666.667, 471.785 644.836, 481.739 608.429 L 484.454 598.500 484.770 514.866 C 485.078 433.231, 485.035 430.986, 482.988 420.943 C 478.945 401.101, 472.233 387.684, 459.705 374.400 C 444.453 358.228, 425.342 349.146, 400.026 346.040 C 386.960 344.436, 269.749 344.841, 259 346.527 M 266 416.911 C 257.331 418.700, 250.771 424.107, 247.948 431.789 C 246.845 434.789, 246.520 452.032, 246.250 521.792 L 245.917 608.084 320.708 607.781 C 403.773 607.445, 400.584 607.704, 407.774 600.735 C 414.076 594.626, 414.001 595.711, 413.994 511.568 C 413.991 463.695, 413.616 434.159, 412.984 431.882 C 411.344 425.979, 407.837 421.670, 402.499 419 L 397.500 416.500 333.500 416.344 C 298.300 416.259, 267.925 416.514, 266 416.911 M 633 416.649 C 623.177 418.128, 617.271 421.703, 613.741 428.308 L 611.500 432.500 611.220 509.892 C 610.972 578.621, 611.121 587.904, 612.551 592.822 C 614.449 599.352, 618.829 604.205, 624.547 606.112 C 629.862 607.885, 751.556 608.649, 759.689 606.961 C 766.718 605.502, 772.825 600.833, 776 594.493 L 778.500 589.500 778.782 502.750 L 779.063 416 707.282 416.136 C 667.802 416.211, 634.375 416.442, 633 416.649 " stroke="none" fill="white" fill-rule="evenodd" transform="scale(0.029296875) translate(0 0)"></path>
    </g>
</svg>