<svg width="60" height="60" viewBox="0 0 60 60" xmlns="http://www.w3.org/2000/svg">
    <rect fill="transparent" x="0" y="0" width="60" height="60" rx="4.8"></rect>

    <g width="30" height="30" viewBox="0 0 30 30" transform="translate(15, 15)" fill="#FFFFFF">
        <path d="M 338 174.566 C 323.278 177.138, 313.197 181.305, 305.845 187.855 C 297.929 194.908, 293.074 207.003, 293.024 219.792 C 292.979 231.582, 296.507 243.179, 316.970 298.500 C 324.877 319.877, 327.997 329.396, 327.306 330.040 C 326.592 330.705, 314.415 335.243, 279 348.040 C 261.550 354.346, 205.641 375.052, 203.500 376.002 C 199.922 377.590, 181.714 384.151, 172.820 387.058 C 136.473 398.938, 104.900 431.005, 94.457 466.647 C 91.038 478.317, 90.141 494.289, 92.275 505.500 C 93.971 514.407, 117.368 579.787, 122.540 590.071 C 134.847 614.540, 161.503 632.506, 194.500 638.571 C 208.155 641.081, 234.894 640.119, 248.753 636.619 C 254.392 635.195, 294.345 621.198, 337.538 605.515 C 380.731 589.832, 416.393 577, 416.787 577 C 417.182 577, 419.379 582.288, 421.670 588.750 C 431.689 617.010, 446.395 657.109, 449.267 664 C 460.843 691.774, 481.637 704.554, 505.284 698.426 C 522.721 693.908, 538.250 681.591, 557.620 656.914 C 563.054 649.991, 572.252 638.291, 578.059 630.914 C 586.996 619.561, 618.751 579.145, 653.026 535.500 C 795.983 353.460, 791.917 358.748, 797.074 348.142 C 807.953 325.765, 808.689 307.619, 799.432 290.003 C 792.612 277.024, 780.755 266.831, 764.705 260.150 C 755.750 256.422, 750.073 255.030, 711 246.984 C 602.106 224.561, 524.701 208.757, 507 205.332 C 499.575 203.896, 492.150 202.111, 490.500 201.366 C 488.850 200.621, 477.375 197.952, 465 195.435 C 436.582 189.653, 388.866 179.797, 373 176.431 C 366.414 175.034, 342.588 173.764, 338 174.566 M 520 211 C 520 211.550, 520.702 212, 521.559 212 C 522.416 212, 522.840 211.550, 522.500 211 C 522.160 210.450, 521.459 210, 520.941 210 C 520.423 210, 520 210.450, 520 211 M 525.750 213.662 C 526.438 213.940, 527.563 213.940, 528.250 213.662 C 528.938 213.385, 528.375 213.158, 527 213.158 C 525.625 213.158, 525.063 213.385, 525.750 213.662 M 506 221 C 506 221.550, 506.450 222, 507 222 C 507.550 222, 508 221.550, 508 221 C 508 220.450, 507.550 220, 507 220 C 506.450 220, 506 220.450, 506 221 M 182.500 389 C 182.160 389.550, 182.359 390, 182.941 390 C 183.523 390, 184 389.550, 184 389 C 184 388.450, 183.802 388, 183.559 388 C 183.316 388, 182.840 388.450, 182.500 389 " stroke="none" fill="white" fill-rule="evenodd" transform="scale(0.03333333333333333) translate(0 0)"></path>
    </g>
</svg>