<svg xmlns="http://www.w3.org/2000/svg" width="60" height="60" viewBox="0 0 60 60">
  <path fill="#FFFFFF" d="M21.7778906,40.252125 C21.7955859,40.46 21.7719141,40.72575 21.7614844,40.931625 L28.4252344,40.931625 C28.4314453,40.724875 28.4358984,40.51775 28.4358984,40.309875 C28.4358984,35.317125 26.5880859,30.776625 23.2783594,27.246125 C21.645,25.504 19.7912109,24.16375 17.7241406,23.23725 L15,29.791 C18.9830859,31.7685 21.3528516,35.263875 21.7778906,40.252125 Z M29.8869141,40.046625 C29.8995703,40.343 29.8796484,40.638125 29.8673437,40.931625 L36.6849609,40.931625 C36.6939844,40.63725 36.7001953,40.342375 36.7001953,40.046625 C36.7001953,36.443375 36.0369141,32.944125 34.7291016,29.64575 C33.4673437,26.46375 31.6624219,23.6075 29.3644922,21.156375 C28.7793058,20.5323264 28.1658376,19.9392003 27.5262891,19.379125 L23.1106641,24.9185 C27.4809375,29.082625 29.5916016,33.15075 29.8869141,40.046625 L29.8869141,40.046625 Z M42.5698828,27.04875 C41.5541016,24.223125 40.0705078,21.440125 38.2883203,19 L32.7863672,23.30525 C36.0084375,27.692625 37.9944141,33.269 38.1837891,39.25675 C38.2016016,39.8195 38.1645703,40.377875 38.1302344,40.931625 L44.9566406,40.931625 C44.983125,40.375625 45.0090234,39.817125 44.9969531,39.25675 C44.9026172,34.888625 44.0325,31.11675 42.57,27.048625 L42.5698828,27.04875 Z"/>
</svg>
