<svg xmlns="http://www.w3.org/2000/svg" width="60" height="60" viewBox="0 0 60 60" xmlns:xlink="http://www.w3.org/1999/xlink">
  <defs>
    <path id="a" d="M22.3206819,3.7359454 C17.2412339,-1.22569485 8.98754986,-1.24573587 3.88200029,3.67879874 L3.82207839,3.73703675 C-1.27534617,8.7193133 -1.27372117,16.8242186 3.82512526,21.8046101 L11.7007935,29.4966903 C12.0305221,29.8196008 12.4784483,30.0007466 12.945341,29.9999977 C13.3955678,29.9999977 13.8471149,29.8327246 14.190701,29.4966903 C14.8773655,28.8250186 14.8773655,27.7358587 14.190701,27.0644846 L6.31381408,19.3717099 C2.59906212,15.7434918 2.5871793,9.84468593 6.27928281,6.2011891 L6.31523595,6.1667622 C10.0423785,2.5281268 16.1057646,2.52921814 19.8305712,6.16795275 C22.8892291,9.15604876 23.3281824,14.2695841 20.8496499,18.0639838 C20.3269074,18.8640371 20.5677122,19.9274017 21.3867127,20.43815 C22.2076428,20.9504857 23.2947683,20.7141605 23.8171046,19.9144048 C27.2183329,14.7083038 26.5887466,7.9049733 22.3206819,3.7359454 M19.1688912,22.1990809 C19.8559618,22.8707526 19.8567743,23.9600117 19.1688912,24.6307906 C18.8399265,24.9543769 18.3922036,25.1360884 17.9253593,25.1354869 C17.4578099,25.1360402 17.0092662,24.9547617 16.6787805,24.6316835 L8.80341695,16.9396033 C6.4507204,14.6406405 6.4507204,10.8992205 8.80341695,8.59976168 C9.94345662,7.48718752 11.458973,6.87385298 13.0710755,6.87385298 L13.072802,6.87385298 C14.6845997,6.87385298 16.2003193,7.48798122 17.3395465,8.60234121 C18.9093755,10.1346331 19.491224,12.385168 18.8544535,14.4618588 C18.5745471,15.3719393 17.5955857,15.8901286 16.6635461,15.6176898 C15.7318112,15.3463423 15.2014516,14.3879451 15.479022,13.4772693 C15.7456028,12.6117257 15.5036912,11.6730974 14.8493342,11.0340509 C14.3743261,10.5694366 13.7438258,10.3137648 13.0719895,10.3134672 L13.0709739,10.3134672 C12.399036,10.3134672 11.7685357,10.5688413 11.293223,11.0323643 C10.3127381,11.9901662 10.3127381,13.5490995 11.293223,14.5070999 L19.1688912,22.1989817"/>
  </defs>
  <g fill="none" fill-rule="evenodd" transform="translate(17 15)">
    <use fill="#FFFFFF" fill-rule="nonzero" xlink:href="#a"/>
  </g>
</svg>
