<svg xmlns="http://www.w3.org/2000/svg" width="360" height="360" viewBox="0 0 360 360">
  <g fill="#FFF" fill-rule="evenodd" transform="translate(89 84)">
    <ellipse cx="142.828" cy="22.611" rx="21.936" ry="21.629"/>
    <path fill-rule="nonzero" d="M165.738625,58.4189785 L65.320517,58.4189785 L65.320517,51.9302375 C65.320517,39.1930791 78.2383805,38.9527554 84.8191788,38.9527554 C92.3749103,38.9527554 95.7871761,39.6737266 95.7871761,39.6737266 L95.7871761,4.58646016 C95.7871761,4.58646016 88.9626445,3.62516519 79.7007801,3.62516519 C58.7397187,3.62516519 19.9861283,9.39293501 19.9861283,53.1318562 L19.9861283,58.6593023 L1.70613291,58.6593023 L1.70613291,91.1030075 L19.9861283,91.1030075 L19.9861283,159.595274 L2.92479927,159.595274 L2.92479927,192.038979 L85.3066454,192.038979 L85.3066454,159.595274 L65.320517,159.595274 L65.320517,91.1030075 L120.160503,91.1030075 L120.160503,159.595274 L103.099174,159.595274 L103.099174,192.038979 L182.799954,192.038979 L182.799954,159.595274 L165.738625,159.595274 L165.738625,58.4189785 Z"/>
  </g>
</svg>
