<svg xmlns="http://www.w3.org/2000/svg" width="60" height="60" viewBox="0 0 60 60">
  <g fill="#FFFFFF" transform="translate(13 21)">
    <rect width="3.005" height="1" x="8.861" y="11.901"/>
    <rect width="3.005" height="1" x="30.858" y="11.901"/>
    <path d="M20.7070303,12.0790485 C21.1454242,11.4902913 22.4037677,8.37157282 22.4037677,7.9248932 C22.4037677,7.17221359 21.7306364,6.77586408 21.0047879,6.77586408 C18.6242727,6.77586408 14.7776364,10.9107961 13.9650707,10.9107961 C13.048101,10.9107961 14.4544646,8.92834951 14.4544646,8.15487379 C14.4544646,7.64091262 14.0037071,7.10982524 13.6410404,7.10982524 C12.9375152,7.10982524 10.7173838,9.2581165 9.25607071,9.75372816 C9.58147475,9.20271845 9.74409091,8.59578641 9.74409091,8.26724272 C9.74409091,5.6208932 2.37931313,6.6121165 2.37931313,5.12598058 C2.37931313,3.79205825 6.98854545,1.48893204 9.68982828,1.48893204 C10.0688081,1.48893204 12.5575051,1.64621359 12.5575051,2.53467961 C12.5575051,2.86479612 12.016596,2.97594175 12.016596,3.30361165 C12.016596,3.63565049 12.2913434,3.68807767 12.6176061,3.68860194 C13.1049394,3.68860194 13.4296566,3.24629126 13.4296566,2.69598058 C13.4255354,0.454368932 11.5050505,0 9.95959596,0 C5.97661616,0 1.24134343,3.52730097 1.24134343,5.12598058 C1.24134343,7.22306796 7.95548485,6.83860194 7.95548485,8.70780583 C7.95548485,10.1112816 5.17280808,11.4303495 3.06721212,12.3600583 L3.06721212,11.9016699 L0.0686868687,11.9016699 L0.0686868687,12.5307961 L2.67930303,12.5307961 C1.58443434,13.0194175 0.755555556,13.368932 0.755555556,13.5555728 C0.755555556,14.1147961 1.13333333,14.0623689 1.56262626,14.0536311 C2.62624242,14.0536311 4.31971717,13.3974175 6.07552525,12.5307961 L7.46368687,12.5307961 L7.46368687,11.9016699 L7.29591919,11.9016699 C9.96045455,10.4735534 12.4666667,8.79693204 12.8262424,8.43133981 C12.8798182,9.58700971 12.4007273,10.6853592 12.4007273,11.1793981 C12.4007273,11.6687184 12.7441616,12.2978447 13.2593131,12.3410097 L13.2593131,12.5307961 L16.2590404,12.5307961 L16.2590404,11.9016699 L14.260596,11.9016699 C14.6962424,11.6052816 15.2218687,11.207534 15.8555051,10.8560971 C15.8019293,11.2405631 16.1302525,11.8522136 16.5595455,11.8522136 C17.4794343,11.8522136 20.2961111,9.5363301 20.8387374,9.15168932 C20.7102929,10.1923689 20.0522727,11.4099029 19.6786162,11.8855922 C19.4227576,11.8036311 19.0350202,11.7634369 18.7650808,11.7634369 C18.6271919,11.7634369 18.4592525,11.814466 18.2712222,11.9058641 L17.6580202,11.9058641 L17.6580202,12.2917282 C16.3139899,13.2941359 14.5573232,15.4770291 14.5573232,16.6465049 C14.5573232,17.2581553 14.8835859,17.8523301 15.484596,17.8523301 C16.3115859,17.8523301 19.2929394,15.3394951 20.3869495,12.7992233 C20.8725657,12.8516505 21.6576566,13.2186408 21.6576566,12.834699 C21.6557677,12.4601942 21.1383838,12.1805825 20.7090909,12.0790485 L20.7070303,12.0790485 Z M16.8363535,10.9653204 C16.5119798,10.6355534 19.8019091,7.95652427 20.7896263,8.09965049 C20.4104747,9.26213592 17.1545455,11.2893204 16.8282828,10.9653204 L16.8363535,10.9653204 Z M15.7234545,16.5495146 C15.5330202,16.5495146 15.4088687,16.4661553 15.4088687,16.0234951 C15.4088687,14.6072621 18.3079697,12.6029709 19.3171515,12.6029709 C18.7305657,13.8932039 16.2616162,16.5495146 15.7292929,16.542699 L15.7234545,16.5495146 Z"/>
    <path d="M15.4572929 4.79429126C15.8309495 4.79429126 16.1331717 4.4603301 16.1331717 4.04947573 16.1331717 3.63914563 15.8309495 3.30745631 15.4572929 3.30745631 15.0800303 3.30745631 14.7778081 3.63914563 14.7778081 4.04947573 14.7778081 4.45631068 15.0767677 4.78834951 15.4545455 4.79429126L15.4572929 4.79429126zM32.332798 9.71266019C32.332798 9.54681553 32.1610808 9.2581165 31.9450606 9.2581165 31.8152424 9.2581165 30.1561111 11.296835 29.4524141 11.3027767 28.8560404 11.3027767 29.4524141 10.0354369 29.4524141 9.20866019 29.4524141 8.34920388 29.3208788 7.61067961 28.4770606 7.61067961 27.3408081 7.61067961 25.7168788 9.09908738 25.3368687 9.31893204 25.5008586 8.98846602 25.5549495 8.82262136 25.5549495 8.60172816 25.5549495 8.16081553 25.0123232 7.66450485 24.5780505 7.66450485 24.2026768 7.66450485 22.2011414 8.71042718 22.2011414 10.049068 22.2011414 10.3811068 23.3890808 9.20866019 23.8753838 9.37328155 23.4974343 9.8701165 22.5210505 11.0285825 22.5210505 11.4682718 22.5210505 11.6430291 22.5553939 11.8003107 22.6240808 11.9076117L22.0675455 11.9076117 22.0675455 12.5367379 25.0679596 12.5367379 25.0679596 11.9076117 23.6622828 11.9076117C24.7846263 11.1245243 26.756798 8.93429126 27.7795455 8.93429126 28.5052222 8.93429126 27.7173838 11.0313786 28.3290404 11.9076117L26.4590404 11.9076117 26.4590404 12.5367379 29.4587677 12.5367379 29.4587677 12.2440194C30.3851818 11.9533981 32.3343434 10.5553398 32.3343434 9.71266019L32.332798 9.71266019z"/>
  </g>
</svg>
