<svg xmlns="http://www.w3.org/2000/svg" width="60" height="60" viewBox="0 0 60 60">
  <path fill="#FFFFFF" fill-rule="evenodd" d="M29.3867791,24.010605 C31.5584107,23.934624 33.7440097,24.2669639 35.7923636,25.0063893 C38.8743072,26.1065703 41.6283199,28.1228481 43.6432734,30.7352374 C44.5299015,31.8811306 45.2726044,33.1406865 45.8543781,34.4731347 C45.9576157,34.6949006 46.0371693,34.9444644 45.9819068,35.1915572 C45.9138915,35.6060555 45.5568112,35.9488969 45.1456829,35.9909027 C44.7187654,36.0539114 44.2772732,35.7833447 44.124846,35.3737882 C42.9679785,32.6038772 40.9931055,30.1978104 38.5293724,28.5324045 C37.0069227,27.4970854 35.2986453,26.7434521 33.5144581,26.321541 C31.2128686,25.7742303 28.7904306,25.7742303 26.4888412,26.3196879 C23.2028516,27.0893821 20.1937816,29.0068228 18.0719469,31.6711016 C17.1719586,32.793521 16.4292557,34.0450463 15.8687367,35.3762592 C15.7478881,35.685743 15.4691468,35.927894 15.1442523,35.9822544 C14.830896,36.0440276 14.4896049,35.9340713 14.2709843,35.6962444 C14.0134978,35.4337083 13.9296932,35.0142681 14.0620801,34.6695736 C15.6039629,30.9625628 18.4581767,27.848575 21.9670378,25.9947607 C24.2528379,24.7778284 26.8094848,24.0989407 29.3867791,24.010605"/>
</svg>
