<svg xmlns="http://www.w3.org/2000/svg" width="60" height="60" viewBox="0 0 60 60">
  <path fill="#FFFFFF" fill-rule="evenodd" d="M25.1869218,28.188645 C24.4508265,28.188645 23.7116913,28.7722837 23.5429033,29.4889897 L22.0798325,35.7573735 C24.0828512,35.8723018 25.9379271,36.0538364 27.6482449,36.29269 L29.2379791,29.4889897 C29.4069119,28.7722837 28.9423829,28.188645 28.2064324,28.188645 L25.1869218,28.188645 Z M17.2835601,31.6479594 C16.5505047,31.6479594 15.8115143,32.231598 15.6456214,32.948304 L15,35.7000544 C15.4706088,35.6636314 15.9532325,35.6395429 16.4721906,35.6364956 C17.9472763,35.6183566 19.3528781,35.6364956 20.6952206,35.6909124 L21.340842,32.948304 C21.5067349,32.231598 21.039166,31.6479594 20.3061106,31.6479594 L17.2835601,31.6479594 Z M32.6949489,25.2102304 C31.9589984,25.2102304 31.2198632,25.7967713 31.0539703,26.5073826 L28.7281408,36.4559405 C30.7402794,36.7734446 32.541071,37.1695991 34.1519398,37.6081262 L36.746151,26.5073826 C36.9150837,25.7967713 36.4505548,25.2102304 35.7144595,25.2102304 L32.6949489,25.2102304 Z M40.9120015,20 C40.1759062,20 39.4369158,20.5836387 39.2710229,21.2972973 L35.3765939,37.9619082 C37.4580716,38.5969164 39.1804043,39.3044803 40.5952706,40 L44.9662435,21.2972973 C45.1321364,20.5836387 44.6705026,20 43.9345521,20 L40.9120015,20 Z"/>
</svg>
