<svg xmlns="http://www.w3.org/2000/svg" width="360" height="360" viewBox="0 0 360 360">
  <path fill="#FFF" fill-rule="evenodd" d="M196.617847,82.4472406 C194.454301,82.4472406 192.327469,82.7395048 190.310782,83.2248723 C182.354176,51.9108394 156.04283,27.8981945 123.455889,23.1019285 C122.970729,17.6454576 125.063469,9.06019383 138.805266,0.806336595 L138.404027,0 C138.404027,0 115.391761,7.24919866 110.183515,21.5466643 C110.411671,17.0791958 108.780487,10.3649451 98.7862147,5.5999929 C98.7862147,5.5999929 97.9942258,5.86877177 98.3954652,6.22366444 C100.385928,8.05553525 106.698238,14.1304575 104.018063,22.5878562 C69.3646071,25.7244782 40.9972365,50.5095361 32.6839734,83.2248723 C30.6725313,82.7395048 28.5666791,82.4472406 26.3821533,82.4472406 C11.8352545,82.4472406 0,94.197832 0,108.714496 C0,123.194627 11.8352545,134.971313 26.3821533,134.971313 C29.7808873,134.971313 33.0275183,134.295451 36.0197687,133.129004 C38.2960814,138.757701 41.1598303,144.091525 44.5847899,149 L66.5874001,134.243262 L66.2989273,134.060596 C60.5032457,126.662656 56.9655195,115.757544 56.372839,104.899403 C55.717219,92.9296133 58.6517749,81.0381096 66.3330195,74.0472516 C82.1675567,60.623969 99.4182324,66.7458627 110.23072,79.6081014 L113.102335,79.6081014 C123.925312,66.9989839 140.968812,61.1406503 156.67747,74.4204102 C164.266928,81.3616877 167.222464,93.0444312 166.648141,104.86287 C166.12889,115.820172 162.564939,126.892293 156.758767,134.35808 L178.433567,149 C181.837547,144.073258 184.727521,138.757701 186.990721,133.129004 C189.969859,134.295451 193.211245,134.971313 196.617847,134.971313 C211.198838,134.971313 223,123.194627 223,108.698839 C223,94.197832 211.198838,82.4472406 196.617847,82.4472406 M27.2790414,113.967425 C24.3812003,113.967425 21.9999884,111.621482 21.9999884,108.698839 C21.9999884,105.778805 24.3812003,103.427643 27.2790414,103.427643 C28.3935954,103.427643 29.4163626,103.777317 30.2739143,104.33836 C30.3027616,107.11748 30.5230499,109.875725 30.8429925,112.57656 C29.8831641,113.440305 28.6584659,113.967425 27.2790414,113.967425 M195.707846,113.972644 C194.341534,113.972644 193.103724,113.450743 192.172742,112.623531 C192.490062,109.89921 192.707728,107.140966 192.731331,104.33836 C193.58626,103.777317 194.614272,103.427643 195.707846,103.427643 C198.6188,103.427643 201.005257,105.797072 201.005257,108.714496 C201.005257,111.639748 198.6188,113.972644 195.707846,113.972644" transform="translate(69 92)"/>
</svg>
