<svg xmlns="http://www.w3.org/2000/svg" width="60" height="60" viewBox="0 0 60 60">
  <path fill="#FFFFFF" fill-rule="evenodd" d="M19.592138,19.1184569 C20.0515269,19.7905564 20.5110796,20.4624837 20.9706324,21.1345832 C21.4049355,21.770002 21.8394026,22.4052486 22.2737057,23.0406674 C22.6497953,23.5741511 23.0260613,24.1078012 23.4021633,24.641279 C23.7390976,25.13689 24.0761795,25.6326559 24.4130974,26.1282497 C24.4131346,26.1282638 24.4131717,26.1282779 24.4132089,26.128292 C24.7860221,26.6639944 25.1588353,27.1996968 25.5316486,27.7353992 C25.5317631,27.7354353 25.5316812,27.7354603 25.5315994,27.7354853 C25.8778625,28.3517917 26.2241256,28.9680982 26.5702247,29.5844046 C26.1784681,30.1640871 25.7866604,30.7438372 25.3948528,31.3237595 C25.0046138,31.8951492 24.6144121,32.466339 24.2242103,33.0377011 C23.8625465,33.5567223 23.500711,34.0759035 23.1390394,34.5949124 C22.7465698,35.1694163 22.3540754,35.7440462 21.961581,36.318504 C21.6152142,36.8288185 21.268798,37.3390333 20.9223818,37.8490759 C20.9225156,37.8491164 20.9224651,37.8491564 20.9224146,37.8491964 C19.9757654,39.1923622 19.0291162,40.5357002 18,41.9957903 C20.1756209,41.9957903 22.165486,42.0143879 24.1542035,41.9734042 C24.4145566,41.9678937 24.7442607,41.7154475 24.9136214,41.4769494 C25.7100921,40.3550616 26.4619683,39.198217 27.2297477,38.0537709 C27.496622,37.6598332 27.7634942,37.2660675 28.0303664,36.8723019 C28.4666382,36.2380863 28.90291,35.603871 29.3391818,34.9696556 C29.6596719,34.8712946 29.6926259,33.9028376 30.2839948,34.6255641 C30.7213088,35.2607878 31.1583793,35.8960057 31.5956138,36.5312236 C31.5956962,36.5312244 31.5956632,36.5312412 31.5956302,36.5312581 C31.9829744,37.0939078 32.3704825,37.6565576 32.7578268,38.2192073 C32.7578698,38.2193153 32.7579129,38.2194233 32.757956,38.2195313 C33.5429502,39.3856748 34.3217143,40.5566398 35.1211361,41.7119346 C35.2167191,41.8500396 35.4241163,41.9814287 35.5806888,41.9828063 C37.6636778,42.0007152 39.7468306,41.9946882 42,41.9946882 C40.9646537,40.5206498 40.0321042,39.1933265 39.0997187,37.8660032 C38.6936957,37.2868749 38.2875907,36.707936 37.8813218,36.1288249 C37.8813848,36.128879 37.8814271,36.1288347 37.8814694,36.1287905 C37.4883496,35.5585096 37.0952298,34.988401 36.70211,34.4181202 C36.7021261,34.4181009 36.7021422,34.4180815 36.7021583,34.4180622 C36.3821568,33.9545406 36.0621553,33.4911912 35.7421538,33.0276697 L34.5666888,31.3194821 C34.5666608,31.3194633 34.5666327,31.3194445 34.5666046,31.3194258 C34.134946,30.6322086 33.7031235,29.9449914 33.2714649,29.2577743 C33.2714429,29.2577469 33.2714209,29.2577195 33.271399,29.2576921 C33.6600584,28.6867726 34.0488817,28.115681 34.4375411,27.5445893 C34.4376135,27.5445357 34.4376859,27.5444821 34.4377583,27.5444286 C34.754669,27.082766 35.0717437,26.6212757 35.3886544,26.1596132 C35.7758389,25.5939108 36.1629256,25.0284035 36.5500124,24.4627241 C37.0344821,23.7603223 37.5189518,23.0579206 38.0034216,22.3555188 C38.0034524,22.355531 38.0034832,22.3555431 38.003514,22.3555553 C38.3902728,21.7919423 38.7770317,21.228157 39.1637905,20.664544 C39.1637476,20.6645238 39.1637047,20.6645035 39.1636618,20.6644833 C39.7416334,19.8527553 40.3192304,19.0408288 41.0019196,18.0814985 C39.3724173,18.0814985 37.9216208,18.2357903 36.5142712,18.0424089 C34.765577,17.8020167 33.7625289,18.5955177 33.0700027,20.1200108 C32.6405152,20.7541174 32.2111391,21.388146 31.781599,22.0220025 C31.7816436,22.0220426 31.7815803,22.0220828 31.7815171,22.022123 C31.3044216,22.7112704 30.8271622,23.4005899 30.3499028,24.0899095 C30.1272064,24.1419262 29.9042599,24.1939248 29.6814773,24.2457512 C29.6814011,24.2457034 29.6813249,24.2456556 29.6812487,24.2456077 C29.2783328,23.6788269 28.8755808,23.1120461 28.4726648,22.5454375 C28.0923068,21.9692401 27.711942,21.3932287 27.3315772,20.817045 C26.8392344,20.1303084 26.3468916,19.4435719 25.8547127,18.7568353 C25.6187167,18.531414 25.3870577,18.1164207 25.1460538,18.1103937 C23.0965107,18.0582169 21.0451642,18.080603 18.8190467,18.080603 C19.1421617,18.5145072 19.3670894,18.816531 19.5921716,19.11837 Z"/>
</svg>
