<svg xmlns="http://www.w3.org/2000/svg" width="60" height="60" viewBox="0 0 60 60">
  <path fill="#FFFFFF" d="M32.99103,0.0254245283 C30.56606,0.0254245283 28.5437,1.73669811 28.08143,4.00948113 L28.08143,0.0254245283 L23.058115,4.99948113 L18.04905,0.0254245283 L18.04905,4.00948113 C17.58678,1.73665094 15.5643725,0.0254245283 13.1394025,0.0254245283 C10.7147175,0.0254245283 8.6925,1.73632075 8.2299925,4.00872642 C8.050775,3.12886792 7.637905,2.33311321 7.058215,1.68830189 C6.1408475,0.667971698 4.80643,0.0254245283 3.320725,0.0254245283 L0,0.0254245283 L0,9.97377358 L3.320725,9.97377358 C4.8063825,9.97377358 6.1408,9.33122642 7.05812,8.3109434 C7.6378575,7.66617925 8.0507275,6.87037736 8.2299925,5.9904717 C8.6925475,8.26287736 10.7147175,9.97377358 13.1394025,9.97377358 C15.5643725,9.97377358 17.58678,8.2625 18.04905,5.98966981 L18.04905,9.97377358 L19.70908,9.97377358 L19.70908,4.02481132 L23.058115,7.35042453 L26.3925675,4.02481132 L26.3925675,9.97372642 L28.08143,9.97372642 L28.08143,5.98962264 C28.5437,8.26245283 30.5661075,9.97372642 32.99103,9.97372642 C35.7573825,9.97372642 38,7.74669811 38,4.99957547 C38,2.25240566 35.7573825,0.0254245283 32.99103,0.0254245283 Z M3.538275,8.31089623 L1.66003,8.31089623 L1.66003,1.68825472 L3.53951,1.68825472 C5.28333,1.80028302 6.66311,3.23948113 6.66311,4.9995283 C6.66311,6.76 5.2827125,8.1995283 3.538275,8.31089623 Z M13.1394025,8.31867925 C11.2934575,8.31867925 9.7970175,6.83264151 9.7970175,4.9995283 C9.7970175,3.16641509 11.2934575,1.68037736 13.1394025,1.68037736 C14.9853475,1.68037736 16.4817875,3.16641509 16.4817875,4.9995283 C16.4817875,6.83264151 14.9853475,8.31867925 13.1394025,8.31867925 Z M32.99103,8.31867925 C31.145085,8.31867925 29.6486925,6.83264151 29.6486925,4.9995283 C29.6486925,3.16641509 31.145085,1.68037736 32.99103,1.68037736 C34.8369275,1.68037736 36.333415,3.16641509 36.333415,4.9995283 C36.333415,6.83264151 34.8369275,8.31867925 32.99103,8.31867925 Z" transform="translate(11 25)"/>
</svg>
