<svg xmlns="http://www.w3.org/2000/svg" width="60" height="60" viewBox="0 0 60 60">
  <path fill="#FFFFFF" d="M29.941875,18 L29.9419922,18 C37.9853906,18 44.2864453,28.25 44.8828125,36.9071596 C42.3598828,41.2949531 36.2724609,42.9442488 29.9421094,42.9442488 C23.6112891,42.9442488 17.5242187,41.2949531 15,36.907277 C15.59625,28.25 21.898125,18 29.941875,18 Z M42.7809375,34.8450704 C42.7809375,34.8450704 41.004375,30.9981221 39.1986328,28.7537559 C37.3916016,26.5084507 35.1848438,24.063615 33.8800781,24.063615 C32.5760156,24.063615 28.9305469,30.528169 27.2581641,30.528169 C25.5854297,30.528169 24.7161328,27.5976526 22.6596094,27.5976526 C20.6022656,27.5976526 17.3336719,34.6644366 17.3336719,34.6644366 L17.1121875,35.8624413 C17.1121875,35.8624413 18.2477344,40.9048122 30.1275,40.9048122 C42.0077344,40.9048122 42.9571875,35.9451878 42.9571875,35.9451878 L42.7810547,34.8449531 L42.7809375,34.8450704 Z"/>
</svg>
