<svg xmlns="http://www.w3.org/2000/svg" width="60" height="60" viewBox="0 0 60 60">
  <g fill="#FFFFFF" fill-rule="evenodd" transform="translate(15 18)">
    <path d="M10.1478,6.96074094 C10.7101784,6.96444564 11.2759622,6.42839195 11.2321784,5.88009664 C11.1832054,5.26608322 10.8082865,4.89899597 10.1977459,4.83198926 C9.64152973,4.77094228 9.08125946,5.31150604 9.06958378,5.86640537 C9.05790811,6.42275436 9.58428649,6.95703624 10.1478,6.96074094 M11.0928811,11.9176268 L11.0893135,11.9176268 C11.0893135,10.8719356 11.1081243,9.8256 11.0820162,8.78055302 C11.0674216,8.19166711 10.7280162,7.79880805 10.1215297,7.80798926 C9.51471892,7.8170094 9.20725946,8.19891544 9.20758378,8.80986846 C9.20807027,10.7941369 9.20823243,12.7785664 9.20644865,14.7628349 C9.2058,15.4008483 9.50644865,15.8215732 10.1580162,15.8104591 C10.8073135,15.799506 11.0930432,15.3605799 11.0930432,14.7331973 C11.0928811,13.7947812 11.0928811,12.856204 11.0928811,11.9176268 M7.01936757,10.3022174 C7.01936757,8.80245906 7.03282703,7.30270067 7.01288108,5.80326443 C7.00477297,5.18699597 6.75731351,4.65964027 6.05012432,4.64401611 C5.38817838,4.62951946 5.08898919,5.10307651 5.08558378,5.69969396 C5.06871892,8.72562685 5.06920541,11.7515597 5.08461081,14.7773315 C5.08752973,15.3423785 5.37244865,15.7605262 5.99207027,15.8188349 C6.57828649,15.8740832 7.00525946,15.397949 7.01515135,14.6405799 C7.03396216,13.1946201 7.0205027,11.7483383 7.01936757,10.3022174 M13.6106108,9.6065396 C13.6106108,10.8740295 13.6023405,12.0761235 13.6125568,13.2782174 C13.6295838,15.2806872 14.6069351,16.1140832 16.5952054,15.8362309 C17.4450973,15.7175195 17.9802324,15.3013047 17.8779081,14.7786201 C17.7175297,13.960043 17.0857459,14.0462174 16.4743946,14.1230497 C16.3414216,14.1398013 16.1795838,14.1737879 16.0756378,14.1178953 C15.9092595,14.0284993 15.6569351,13.8732242 15.6540162,13.7411436 C15.6233676,12.3618685 15.6350432,10.9816268 15.6350432,9.55886174 C16.0717459,9.55886174 16.3673676,9.55612349 16.662827,9.55934497 C17.2456378,9.56594899 17.7163946,9.36927785 17.7235297,8.72627114 C17.7313135,8.03735839 17.2393135,7.83682148 16.6243946,7.84487517 C16.3112595,7.84890201 15.9979622,7.84551946 15.6883946,7.84551946 C15.6348811,7.46200268 15.6390973,7.18415034 15.552827,6.93722416 C15.3757459,6.43000268 15.0219081,6.22350604 14.5720703,6.62441879 C13.8892054,7.2329557 13.2212595,7.86307651 12.5992054,8.53201611 C12.1620162,9.0021906 12.3558,9.43902282 12.9932595,9.55225772 C13.1505568,9.58028456 13.3128811,9.58141208 13.6106108,9.6065396 M20.6398541,12.5946201 C21.0342324,12.5946201 21.3230432,12.5949423 21.6120162,12.5946201 C22.7199081,12.5936537 23.8279622,12.5984859 24.9360162,12.5889826 C25.5973135,12.583345 26.0100162,12.2724725 26.0721243,11.5890362 C26.2112595,10.0565799 25.0957459,8.38817718 23.6070973,7.8951302 C21.9509351,7.34651275 20.1233676,7.94184161 19.244773,9.31596242 C18.1967189,10.9550497 18.4170973,13.5786201 19.7109892,14.8651168 C20.9293135,16.0762309 23.6844486,16.3126872 25.2280703,15.260553 C25.5274216,15.0563114 25.800827,14.4967409 25.7413135,14.1615463 C25.6385027,13.5818416 25.0665568,13.5647678 24.552827,13.693949 C24.0580703,13.8186201 23.5732054,13.9940295 23.0724486,14.0803651 C21.9785027,14.2691436 21.0893676,13.7556403 20.6398541,12.5946201 M2.93823243,0.16117047 L26.9382324,0.16117047 C27.0313135,0.211425503 27.1188811,0.281009396 27.2184486,0.308875168 C29.0516919,0.824311409 29.8539081,1.7923651 29.8629892,3.65308993 C29.8835838,7.89368054 29.8983405,12.1347544 29.8401243,16.3747007 C29.8303946,17.0811705 29.5769351,17.8680161 29.1960162,18.4672107 C28.5592054,19.4686067 27.4856919,19.7707812 26.3074216,19.7691705 C19.2549892,19.759345 12.2025568,19.7554792 5.15012432,19.7864054 C4.72363784,19.7883383 4.20747568,20.008043 3.88947568,20.2963651 C2.83298919,21.2544322 1.8510973,22.2935195 0.832718919,23.2936268 C0.621097297,23.5015732 0.375421622,23.6752107 0.00520540541,23.9801235 L0.00520540541,22.8055732 C0.00520540541,17.5718013 0.00407027027,12.3380295 0.00601621622,7.10441879 C0.0065027027,5.81615034 -0.0196054054,4.52659329 0.0332594595,3.24041879 C0.0926108108,1.79445906 1.02034054,0.72202953 2.41866486,0.35526443 C2.59655676,0.30855302 2.76520541,0.226727517 2.93823243,0.16117047"/>
    <path d="M24.0996324,10.8700027 L20.7577946,10.8700027 C20.7999568,10.0652779 21.3929838,9.50087517 22.254227,9.41502282 C23.0559568,9.33529128 23.780173,9.87521074 24.0996324,10.8700027"/>
  </g>
</svg>
