<svg xmlns="http://www.w3.org/2000/svg" width="360" height="360" viewBox="0 0 360 360">
  <path fill="#FFF" fill-rule="evenodd" d="M216.125731,203.197427 C209.128045,203.197427 203.603557,209.45596 204.708455,216.81894 C205.813352,222.341174 210.969541,226.022664 216.49403,226.022664 L234.172392,226.022664 L244.484771,224.550068 C227.911306,248.847901 199.552266,259.89237 168.246832,254.738285 C142.834185,250.688646 121.104531,233.385644 111.89705,209.45596 C90.9039947,154.969911 130.680311,102.692755 182.610501,102.692755 C209.496345,102.692755 233.435794,118.523162 247.062865,137.666909 L247.062865,138.035058 C250.745857,143.189143 257.743543,144.661739 262.899732,140.98025 C267.687622,137.666909 269.160819,131.040227 266.214425,125.886141 C247.431164,96.4342228 213.547636,77.6586248 175.612816,80.2356676 C126.26072,84.2853064 86.1161048,124.781694 83.169711,174.481807 C79.855018,232.281197 125.524122,279.036117 182.610501,279.036117 C212.442738,279.036117 239.328582,266.150903 257.375244,244.798262 L255.165448,256.947179 L255.165448,267.991648 C255.165448,273.513883 258.84844,278.667968 264.372929,279.772415 C271.738913,281.245011 278,275.354628 278,268.359797 L278,203.197427 L216.125731,203.197427 Z"/>
</svg>
