<svg xmlns="http://www.w3.org/2000/svg" width="60" height="60" viewBox="0 0 60 60">
  <path fill="#FFFFFF" d="M0,15 C0,12.27999 0.67002,9.77001 2.01,7.47 C3.35001,5.16999 5.17002,3.35001 7.47,2.01 C9.77001,0.66999 12.28002,0 15,0 C17.72001,0 20.23002,0.66999 22.53,2.01 C24.83001,3.35001 26.65002,5.16999 27.99,7.47 C29.33001,9.77001 30,12.27999 30,15 C30,17.72001 29.33001,20.22999 27.99,22.53 C26.65002,24.83001 24.83001,26.64999 22.53,27.99 C20.23002,29.33001 17.72001,30 15,30 C12.28002,30 9.77001,29.33001 7.47,27.99 C5.17002,26.64999 3.35001,24.83001 2.01,22.53 C0.67002,20.22999 0,17.72001 0,15 Z M2.49,15 C2.49,18.12 3.54,20.87001 5.64,23.25 C6.6,21.36999 8.12001,19.58001 10.2,17.88 C12.28002,16.17999 14.31,15.11001 16.29,14.67 C15.99,13.97001 15.70002,13.34001 15.42,12.78 C11.98002,13.88001 8.26002,14.43 4.26,14.43 C3.48,14.43 2.90001,14.42001 2.52,14.4 C2.52,14.48001 2.51502,14.58 2.505,14.7 C2.49501,14.82 2.49,14.91999 2.49,15 Z M2.88,11.91 C3.32001,11.94999 3.97002,11.97 4.83,11.97 C8.17002,11.97 11.34,11.52 14.34,10.62 C12.82002,7.92 11.15001,5.67 9.33,3.87 C7.75002,4.67001 6.39501,5.78001 5.265,7.2 C4.13502,8.61999 3.34002,10.19001 2.88,11.91 Z M7.35,24.87 C9.61002,26.63001 12.16002,27.51 15,27.51 C16.48002,27.51 17.95002,27.23001 19.41,26.67 C19.01001,23.25 18.23001,19.94001 17.07,16.74 C15.23001,17.13999 13.37502,18.15 11.505,19.77 C9.63501,21.39 8.25,23.09001 7.35,24.87 Z M11.94,2.91 C13.70001,4.73001 15.33,6.99999 16.83,9.72 C19.55001,8.58 21.6,7.13001 22.98,5.37 C20.66001,3.45 18,2.49 15,2.49 C13.98,2.49 12.96,2.63001 11.94,2.91 Z M17.91,11.85 C18.21,12.48999 18.55002,13.29999 18.93,14.28 C20.41002,14.13999 22.02,14.07 23.76,14.07 C25.00002,14.07 26.23002,14.1 27.45,14.16 C27.29001,11.43999 26.31,9.02001 24.51,6.9 C23.21001,8.84001 21.01002,10.49001 17.91,11.85 Z M19.68,16.38 C20.7,19.34001 21.39,22.38 21.75,25.5 C23.33001,24.48 24.62001,23.16999 25.62,21.57 C26.62002,19.97001 27.22002,18.24 27.42,16.38 C25.96002,16.28001 24.63,16.23 23.43,16.23 C22.33002,16.23 21.08001,16.28001 19.68,16.38 Z" transform="translate(15 15)"/>
</svg>
