<svg xmlns="http://www.w3.org/2000/svg" width="60" height="60" viewBox="0 0 60 60">
  <path fill="#FFFFFF" d="M17.3935156,9.33398238 L17.3935156,0.815259912 L21.9160156,0.815259912 L21.9161328,0.815259912 L21.9161328,2.37499559 L21.9161328,19.1263965 L17.3935156,19.1263965 L17.3935156,9.33404405 L17.3935156,9.33398238 Z M0.140585937,2.27354185 L0.140585937,19.1265198 L4.66484375,19.1265198 L4.66484375,9.26361233 L4.66484375,0.815259912 L0.140585937,0.815259912 L0.140585937,2.27354185 Z M11.0062965,19.0658647 L8.30257812,14.8876652 L11.0292969,10.6654626 L11.0291797,10.6654626 L11.0353906,10.6571982 L13.7789844,14.8966696 L11.0629091,19.0771453 L14.1905469,23.8882467 L7.87109375,23.8882467 L7.87097656,23.8882467 L11.0062965,19.0658647 Z M11.0353906,10.6570749 L11.0291797,10.6654626 L8.30257813,14.8876652 L4.66484375,9.26361233 L4.66484375,0.815259912 L11.0353906,10.6570749 Z M11.0353906,10.6570749 L11.0353906,10.6571982 L17.3935156,0.815259912 L17.3935156,9.33404405 L13.7789844,14.8966696 L11.0353906,10.6570749 Z" transform="translate(19 18)"/>
</svg>
