<svg xmlns="http://www.w3.org/2000/svg" width="60" height="60" viewBox="0 0 60 60">
  <path fill="#FFFFFF" d="M22.4924387,33.8677013 L30.1385306,28.0751046 L30.1385306,44 L24.0319827,44 C23.3856519,43.91083 22.9593233,43.7634518 22.4919672,43.4786032 C22.0346344,43.1986713 21.6426408,42.8199262 21.3693613,42.3249663 L15.4090852,31.5638809 C15.1545961,31.1044077 15.020811,30.6523653 15,30.1383994 L22.4924387,33.8677013 Z M30.1385306,28.0751046 L37.5413077,30.0473716 L37.5413077,43.5417653 C37.0745463,43.8278524 36.5364328,44 35.9775082,44 L30.1385306,44 L30.1385306,28.0751046 Z M42.993795,25.5331403 L42.9943896,25.5331403 L44.5843515,28.4032997 C45.1385495,29.4034801 45.1385495,30.635532 44.5843515,31.6357123 L38.6234808,42.3967977 C38.3681763,42.8730101 37.9943399,43.2687528 37.5413077,43.5423845 L37.5413077,30.0473716 L42.993795,25.5331403 Z M22.2136942,31.0164762 L15.7295749,27.8168831 L21.3663883,17.6162065 C21.9195124,16.6164294 22.9430612,16.0002285 24.0510099,16.0000002 L35.9715622,16.0000002 C37.0796665,15.9996235 38.1035771,16.6156695 38.6567784,17.6155872 L41.8283779,23.3515714 L36.9859508,27.320875 L29.6093361,25.4817437 L22.2136942,31.0164762 Z"/>
</svg>
