<svg xmlns="http://www.w3.org/2000/svg" width="42" height="42" viewBox="0 0 42 42">
  <path d="M20.914062,0.0989740441 L9.804687,3.49741204 C8.457031,3.88022404 7.367187,5.28256804 7.367187,6.63022404 L7.367187,18.188818 C7.367187,18.188818 7.367187,18.345068 7.367187,18.348974 C7.367187,18.348974 6.5625,17.806005 4.769531,18.059912 C2.136718,18.434912 0,20.454443 0,22.575537 C0,24.69663 2.136718,25.993505 4.769531,25.618505 C7.40625,25.247412 9.335937,23.29038 9.335937,21.169287 C9.335937,21.169287 9.335937,12.10288 9.335937,11.161474 C9.335937,10.223974 10.464843,9.81772404 10.464843,9.81772404 L20.289062,6.73959904 C20.289062,6.73959904 21.375,6.37631804 21.375,7.38022404 C21.375,8.38803704 21.375,15.411474 21.375,15.411474 C21.375,15.411474 21.375,15.41538 21.375,15.419287 C21.375,15.419287 20.375,14.841162 18.582031,15.059912 C15.949218,15.380224 13.8125,17.356787 13.8125,19.47788 C13.8125,21.598974 15.949218,22.938818 18.582031,22.618505 C21.214843,22.302099 23.351562,20.32163 23.351562,18.200537 L23.351562,1.83725504 C23.351562,0.493505044 22.257812,-0.287744956 20.914062,0.0989740441 Z" transform="translate(9 8)"/>
</svg>
