<svg xmlns="http://www.w3.org/2000/svg" width="42" height="42" viewBox="0 0 42 42">
  <path d="M19,0 C18.449219,0 18,0.449219 18,1 L18,25 C18,25.550781 18.449219,26 19,26 L25,26 C25.550781,26 26,25.550781 26,25 L26,1 C26,0.449219 25.550781,0 25,0 L19,0 Z M10,8 C9.449219,8 9,8.449219 9,9 L9,25 C9,25.550781 9.449219,26 10,26 L16,26 C16.550781,26 17,25.550781 17,25 L17,9 C17,8.449219 16.550781,8 16,8 L10,8 Z M11,10 L15,10 L15,24 L11,24 L11,10 Z M1,16 C0.449219,16 0,16.449219 0,17 L0,25 C0,25.550781 0.449219,26 1,26 L7,26 C7.550781,26 8,25.550781 8,25 L8,17 C8,16.449219 7.550781,16 7,16 L1,16 Z" transform="translate(8 8)"/>
</svg>
