<svg xmlns="http://www.w3.org/2000/svg" width="42" height="42" viewBox="0 0 42 42">
  <path d="M5.8125,0 C5.335938,0.0898438 4.992188,0.511719 5,1 L5,2 L1.40625,2 C0.605469,2 0,2.605469 0,3.40625 L0,24.5 C0,25.398438 0.605469,26 1.40625,26 L18.5,26 C19.300781,26 19.90625,25.394531 19.90625,24.59375 L19.90625,3.40625 C20.007813,2.605469 19.394531,2 18.59375,2 L15,2 L15,1 C15,0.449219 14.550781,0 14,0 L6,0 C5.96875,0 5.9375,0 5.90625,0 C5.875,0 5.84375,0 5.8125,0 Z M7,2 L13,2 L13,4 L7,4 L7,2 Z M2,4 L5,4 L5,5 C5,5.550781 5.449219,6 6,6 L14,6 C14.550781,6 15,5.550781 15,5 L15,4 L18,4 L18,24 L2,24 L2,4 Z M4,9 L4,13 L8,13 L8,9 L4,9 Z M5,10 L7,10 L7,12 L5,12 L5,10 Z M10,10 L10,12 L16,12 L16,10 L10,10 Z M4,15 L4,19 L8,19 L8,15 L4,15 Z M10,16 L10,18 L16,18 L16,16 L10,16 Z" transform="translate(11 8)"/>
</svg>
