<svg xmlns="http://www.w3.org/2000/svg" width="42" height="42" viewBox="0 0 42 42">
  <path d="M15.5,0 C13.210938,0 11.3125,1.292969 10.15625,3.09375 C9.9375,3.0625 9.734375,3 9.5,3 C6.996094,3 5,4.734375 4.34375,7.03125 C1.945313,7.117188 0,9.082031 0,11.5 C0,13.972656 2.027344,16 4.5,16 L20.5,16 C23.527344,16 26,13.527344 26,10.5 C26,7.925781 24.179688,5.835938 21.78125,5.25 C21.183594,2.277344 18.640625,0 15.5,0 Z M15.5,2 C17.871094,2 19.78125,3.808594 19.96875,6.125 L20.0625,6.96875 L20.875,7.03125 C22.636719,7.21875 24,8.683594 24,10.5 C24,12.445313 22.445313,14 20.5,14 L4.5,14 C3.109375,14 2,12.890625 2,11.5 C2,10.109375 3.109375,9 4.5,9 C4.589844,9 4.699219,9.003906 4.875,9.03125 L5.9375,9.21875 L6.03125,8.15625 C6.207031,6.378906 7.675781,5 9.5,5 C9.761719,5 10.03125,5.027344 10.3125,5.09375 L11.09375,5.28125 L11.4375,4.5625 C12.160156,3.046875 13.699219,2 15.5,2 Z" transform="translate(8 13)"/>
</svg>
