<svg xmlns="http://www.w3.org/2000/svg" width="42" height="42" viewBox="0 0 42 42">
  <path d="M5,0 C2.253906,0 0,2.253906 0,5 L0,19 C0,21.746094 2.253906,24 5,24 L19,24 C21.746094,24 24,21.746094 24,19 L24,5 C24,2.253906 21.746094,0 19,0 L5,0 Z M5,2 L19,2 C20.65625,2 22,3.34375 22,5 L22,19 C22,20.65625 20.65625,22 19,22 L5,22 C3.34375,22 2,20.65625 2,19 L2,5 C2,3.34375 3.34375,2 5,2 Z M16.1875,6.0625 C16.039063,6.085938 15.914063,6.164063 15.8125,6.3125 L10.90625,13.59375 L8.59375,11.3125 C8.394531,11.011719 8.011719,10.988281 7.8125,11.1875 L6.90625,12.09375 C6.707031,12.394531 6.707031,12.800781 6.90625,13 L10.40625,16.5 C10.605469,16.601563 10.886719,16.8125 11.1875,16.8125 C11.386719,16.8125 11.707031,16.707031 11.90625,16.40625 L17.90625,7.59375 C18.105469,7.292969 17.992188,7.011719 17.59375,6.8125 L16.59375,6.09375 C16.492188,6.042969 16.335938,6.039063 16.1875,6.0625 Z" transform="translate(9 9)"/>
</svg>
