<svg xmlns="http://www.w3.org/2000/svg" width="42" height="42" viewBox="0 0 42 42">
  <path d="M8.56971363,0.00754478308 C8.55018263,0.0153577831 8.52674463,0.0270757831 8.50721363,0.0387947831 C8.25330763,0.124732783 8.08924463,0.366919783 8.10096363,0.632544783 L8.10096363,3.28879478 C8.08924463,3.42160778 8.12440163,3.55441978 8.19471363,3.66379478 C7.64783863,3.71848278 7.14393263,3.88254478 6.66346363,4.10129478 C6.66346363,3.96457578 6.62049463,3.83176378 6.53846363,3.72629478 L5.22596363,1.41379478 C5.21815163,1.39426378 5.20643263,1.37082578 5.19471363,1.35129478 C5.18299463,1.33957578 5.17518263,1.33176378 5.16346363,1.32004478 C5.15565163,1.30051378 5.14393263,1.27707578 5.13221363,1.25754478 C5.11268263,1.24582578 5.08924463,1.23410778 5.06971363,1.22629478 C5.01502663,1.17160778 4.95252663,1.13254478 4.88221363,1.10129478 C4.80018263,1.07395078 4.71815163,1.06223278 4.63221363,1.07004478 C4.60096363,1.07785778 4.56971363,1.08957578 4.53846363,1.10129478 C4.34705763,1.14426378 4.19080763,1.27707578 4.11658863,1.45676378 C4.04236963,1.63645078 4.05799463,1.84348278 4.16346363,2.00754478 L5.50721363,4.32004478 C5.55018263,4.43332578 5.62440163,4.53098278 5.72596363,4.60129478 C5.32361963,4.89816978 4.99158863,5.29660778 4.69471363,5.69504478 C4.62049463,5.57785778 4.51111963,5.49191978 4.38221363,5.44504478 L2.06971363,4.10129478 C2.04236963,4.07785778 2.00721363,4.05832578 1.97596363,4.03879478 C1.89393263,4.01145078 1.81190163,3.99973278 1.72596363,4.00754478 C1.68299463,4.01535778 1.64002663,4.02316978 1.60096363,4.03879478 C1.35486963,4.09738878 1.16736963,4.30441978 1.14002663,4.55832578 C1.11268263,4.80832578 1.24549463,5.05441978 1.47596363,5.16379478 L3.78846363,6.47629478 C3.88611963,6.55441978 4.00721363,6.59738878 4.13221363,6.60129478 C3.91736963,7.07004478 3.81580763,7.57004478 3.75721363,8.10129478 C3.72596363,8.08957578 3.69471363,8.07785778 3.66346363,8.07004478 C3.56580763,8.03098278 3.45643263,8.02316978 3.35096363,8.03879478 L0.694713634,8.03879478 C0.651744634,8.03488878 0.612682634,8.03488878 0.569713634,8.03879478 C0.550182634,8.03879478 0.526744634,8.03879478 0.507213634,8.03879478 C0.179088634,8.08957578 -0.0435673657,8.39816978 0.0072136343,8.72629478 C0.0579946343,9.05441978 0.366588634,9.27707578 0.694713634,9.22629478 L3.35096363,9.22629478 C3.43299463,9.24191978 3.51893263,9.24191978 3.60096363,9.22629478 C3.64783863,9.19895078 3.68690163,9.16770078 3.72596363,9.13254478 C3.78065163,9.67551378 3.91736963,10.1872328 4.13221363,10.6637948 C4.11268263,10.6637948 4.08924463,10.6637948 4.06971363,10.6637948 C4.03846363,10.6716078 4.00721363,10.6833258 3.97596363,10.6950448 C3.90955763,10.7145758 3.84315163,10.7458258 3.78846363,10.7887948 L1.47596363,12.1012948 C1.18299463,12.2653578 1.07752663,12.6364508 1.24158863,12.9294198 C1.40565163,13.2223888 1.77674463,13.3278578 2.06971363,13.1637948 L4.38221363,11.8200448 C4.61268263,11.7419198 4.77283863,11.5309828 4.78846363,11.2887948 L6.22596363,10.3200448 C5.89393263,9.83566978 5.69471363,9.26535778 5.69471363,8.63254478 C5.69471363,6.96457578 7.02674463,5.63254478 8.69471363,5.63254478 C9.82361963,5.63254478 10.8079946,6.24973278 11.3197136,7.16379478 L12.7572136,6.35129478 C12.9134636,6.57004478 13.1908076,6.65988878 13.4447136,6.57004478 C13.4994016,6.54660778 13.5540886,6.51535778 13.6009636,6.47629478 L15.9134636,5.16379478 C16.1283076,5.08957578 16.2845576,4.90598278 16.3158076,4.67941978 C16.3509636,4.45676378 16.2533076,4.23410778 16.0697136,4.10129478 C16.0228386,4.06223278 15.9681516,4.03098278 15.9134636,4.00754478 C15.8001826,3.97238878 15.6829946,3.97238878 15.5697136,4.00754478 C15.5384636,4.01535778 15.5072136,4.02707578 15.4759636,4.03879478 C15.4212766,4.05051378 15.3704946,4.07395078 15.3197136,4.10129478 L13.0072136,5.44504478 C12.8939326,5.48801378 12.7962766,5.56223278 12.7259636,5.66379478 C12.4251826,5.26145078 12.0736196,4.89426378 11.6634636,4.60129478 C11.7103386,4.56613878 11.7533076,4.52316978 11.7884636,4.47629478 C11.8001826,4.45676378 11.8119016,4.43332578 11.8197136,4.41379478 C11.8314326,4.40207578 11.8392446,4.39426378 11.8509636,4.38254478 C11.8626826,4.36301378 11.8744016,4.33957578 11.8822136,4.32004478 L13.2259636,2.00754478 C13.3509636,1.82004478 13.3665886,1.58176378 13.2572136,1.38254478 C13.1908076,1.25363878 13.0775266,1.15598278 12.9447136,1.10129478 C12.8626826,1.07395078 12.7806516,1.06223278 12.6947136,1.07004478 C12.6517446,1.07785778 12.6087766,1.08566978 12.5697136,1.10129478 C12.3939326,1.14035778 12.2454946,1.25363878 12.1634636,1.41379478 L10.8509636,3.72629478 C10.8392446,3.74582578 10.8275266,3.76926378 10.8197136,3.78879478 C10.7611196,3.88254478 10.7259636,3.99191978 10.7259636,4.10129478 C10.2494016,3.89426378 9.73377663,3.74973278 9.19471363,3.69504478 C9.20252663,3.69504478 9.21815163,3.66379478 9.22596363,3.66379478 C9.24158863,3.62473278 9.24940163,3.58176378 9.25721363,3.53879478 C9.27283863,3.48801378 9.28455763,3.43723278 9.28846363,3.38254478 C9.29236963,3.35129478 9.29236963,3.32004478 9.28846363,3.28879478 L9.28846363,0.632544783 C9.28846363,0.570044783 9.27674463,0.503638783 9.25721363,0.445044783 C9.24940163,0.413794783 9.23768263,0.382544783 9.22596363,0.351294783 C9.21033863,0.308325783 9.19080763,0.265357783 9.16346363,0.226294783 C9.15174463,0.214575783 9.14393263,0.206763783 9.13221363,0.195044783 C9.06190163,0.124732783 8.97596363,0.0700447831 8.88221363,0.0387947831 C8.78455763,-0.000267216921 8.67518263,-0.00808021692 8.56971363,0.00754478308 Z M16.6947136,6.63254478 C14.4329946,6.63254478 12.5267446,7.93332578 11.5072136,9.78879478 C11.2337766,9.73801378 10.9915886,9.63254478 10.6947136,9.63254478 C8.28846363,9.63254478 6.35096363,11.3903578 5.88221363,13.6637948 C5.81580763,13.6598888 5.76502663,13.6325448 5.69471363,13.6325448 C3.49940163,13.6325448 1.69471363,15.4372328 1.69471363,17.6325448 C1.69471363,19.8278578 3.49940163,21.6325448 5.69471363,21.6325448 L20.6947136,21.6325448 C23.4447136,21.6325448 25.6947136,19.3825448 25.6947136,16.6325448 C25.6947136,14.5739508 24.3900266,12.8630138 22.6009636,12.1012948 C22.3197136,9.05441978 19.8119016,6.63254478 16.6947136,6.63254478 Z M16.6947136,8.63254478 C18.9173696,8.63254478 20.6947136,10.4098888 20.6947136,12.6325448 C20.6947136,12.4958258 20.6986196,12.5387948 20.6947136,12.7575448 L20.6634636,13.5387948 L21.4447136,13.7262948 C22.7454946,14.0583258 23.6947136,15.2223888 23.6947136,16.6325448 C23.6947136,18.3005138 22.3626826,19.6325448 20.6947136,19.6325448 L5.69471363,19.6325448 C4.58143263,19.6325448 3.69471363,18.7458258 3.69471363,17.6325448 C3.69471363,16.5192638 4.58143263,15.6325448 5.69471363,15.6325448 C5.91736963,15.6325448 6.14393263,15.6716078 6.38221363,15.7575448 L7.81971363,16.2887948 L7.72596363,14.7575448 C7.72205763,14.6950448 7.69861963,14.6637948 7.69471363,14.6325448 C7.69471363,14.6052008 7.69080763,14.6091078 7.69471363,14.6012948 C7.69471363,14.5973888 7.69471363,14.5739508 7.69471363,14.5700448 C7.72986963,12.9333258 9.04627663,11.6325448 10.6947136,11.6325448 C11.0267446,11.6325448 11.3548696,11.6989508 11.6947136,11.8200448 L12.6322136,12.1325448 L12.9759636,11.2262948 C13.5462766,9.71066978 14.9720576,8.63254478 16.6947136,8.63254478 Z" transform="translate(8 10)"/>
</svg>
