<svg xmlns="http://www.w3.org/2000/svg" width="42" height="42" viewBox="0 0 42 42">
  <path d="M22,0 C21,0 20.1875,0.8125 20.1875,1.8125 C20.1875,1.9375 20.195313,2.070313 20.21875,2.1875 L17.78125,4.1875 C17.546875,4.074219 17.277344,4 17,4 C16.40625,4 15.894531,4.308594 15.5625,4.75 L13.75,4.375 C13.554688,3.582031 12.851563,3 12,3 C11,3 10.1875,3.8125 10.1875,4.8125 C10.1875,4.960938 10.214844,5.113281 10.25,5.25 L7.78125,7.1875 C7.546875,7.074219 7.277344,7 7,7 C6,7 5.1875,7.8125 5.1875,8.8125 C5.1875,8.863281 5.183594,8.917969 5.1875,8.96875 L2.9375,10.28125 C2.660156,10.109375 2.347656,10 2,10 C1,10 0.1875,10.8125 0.1875,11.8125 C0.1875,12.8125 1,13.625 2,13.625 C3,13.625 3.8125,12.8125 3.8125,11.8125 C3.8125,11.738281 3.789063,11.664063 3.78125,11.59375 L6.03125,10.3125 C6.316406,10.496094 6.636719,10.625 7,10.625 C8,10.625 8.8125,9.8125 8.8125,8.8125 C8.8125,8.6875 8.804688,8.554688 8.78125,8.4375 L11.28125,6.46875 C11.5,6.558594 11.75,6.625 12,6.625 C12.570313,6.625 13.074219,6.351563 13.40625,5.9375 L15.25,6.3125 C15.464844,7.078125 16.167969,7.625 17,7.625 C18,7.625 18.8125,6.8125 18.8125,5.8125 C18.8125,5.6875 18.804688,5.554688 18.78125,5.4375 L21.21875,3.4375 C21.453125,3.550781 21.722656,3.625 22,3.625 C23,3.625 23.8125,2.8125 23.8125,1.8125 C23.8125,0.8125 23,0 22,0 Z M21,9.8125 C20.449219,9.8125 20,10.261719 20,10.8125 L20,23.8125 C20,24.363281 20.449219,24.8125 21,24.8125 L23,24.8125 C23.550781,24.8125 24,24.363281 24,23.8125 L24,10.8125 C24,10.261719 23.550781,9.8125 23,9.8125 L21,9.8125 Z M11,11.8125 C10.449219,11.8125 10,12.261719 10,12.8125 L10,23.8125 C10,24.363281 10.449219,24.8125 11,24.8125 L13,24.8125 C13.550781,24.8125 14,24.363281 14,23.8125 L14,12.8125 C14,12.261719 13.550781,11.8125 13,11.8125 L11,11.8125 Z M16,13.8125 C15.449219,13.8125 15,14.261719 15,14.8125 L15,23.8125 C15,24.363281 15.449219,24.8125 16,24.8125 L18,24.8125 C18.550781,24.8125 19,24.363281 19,23.8125 L19,14.8125 C19,14.261719 18.550781,13.8125 18,13.8125 L16,13.8125 Z M6,14.8125 C5.449219,14.8125 5,15.261719 5,15.8125 L5,23.8125 C5,24.363281 5.449219,24.8125 6,24.8125 L8,24.8125 C8.550781,24.8125 9,24.363281 9,23.8125 L9,15.8125 C9,15.261719 8.550781,14.8125 8,14.8125 L6,14.8125 Z M1,16.8125 C0.449219,16.8125 0,17.261719 0,17.8125 L0,23.8125 C0,24.363281 0.449219,24.8125 1,24.8125 L3,24.8125 C3.550781,24.8125 4,24.363281 4,23.8125 L4,17.8125 C4,17.261719 3.550781,16.8125 3,16.8125 L1,16.8125 Z" transform="translate(9 8)"/>
</svg>
