<svg xmlns="http://www.w3.org/2000/svg" width="42" height="42" viewBox="0 0 42 42">
  <path d="M3,0 C1.34375,0 0,1.34375 0,3 L0,15 C0,16.65625 1.34375,18 3,18 L23,18 C24.65625,18 26,16.65625 26,15 L26,3 C26,1.34375 24.65625,0 23,0 L3,0 Z M3,2 L23,2 C23.550781,2 24,2.449219 24,3 L24,3.5 L13,9.4375 L2,3.5 L2,3 C2,2.449219 2.449219,2 3,2 Z M2,3.78125 L8.53125,8.875 L2.125,15.4375 L9.9375,9.875 L13,11.84375 L16.0625,9.875 L23.875,15.4375 L17.46875,8.875 L24,3.78125 L24,15 C24,15.164063 23.945313,15.300781 23.875,15.4375 C23.710938,15.761719 23.390625,16 23,16 L3,16 C2.609375,16 2.289063,15.761719 2.125,15.4375 C2.054688,15.300781 2,15.164063 2,15 L2,3.78125 Z" transform="translate(8 12)"/>
</svg>
