<svg xmlns="http://www.w3.org/2000/svg" width="42" height="42" viewBox="0 0 42 42">
  <path d="M5,0 C3.34375,0 2.625,1.421875 2,3 L0.0625,8.25 C0.347656,8.09375 0.652344,8 1,8 L25,8 C25.347656,8 25.652344,8.09375 25.9375,8.25 L24,3 C23.296875,1.46875 22.65625,0 21,0 L5,0 Z M1,9 C0.449219,9 0,9.449219 0,10 L0,13 C0,13.550781 0.449219,14 1,14 L25,14 C25.550781,14 26,13.550781 26,13 L26,10 C26,9.449219 25.550781,9 25,9 L1,9 Z M22.5,10 C23.328125,10 24,10.671875 24,11.5 C24,12.328125 23.328125,13 22.5,13 C21.671875,13 21,12.328125 21,11.5 C21,10.671875 21.671875,10 22.5,10 Z M1,15 C0.449219,15 0,15.449219 0,16 L0,19 C0,19.550781 0.449219,20 1,20 L25,20 C25.550781,20 26,19.550781 26,19 L26,16 C26,15.449219 25.550781,15 25,15 L1,15 Z M22.5,16 C23.328125,16 24,16.671875 24,17.5 C24,18.328125 23.328125,19 22.5,19 C21.671875,19 21,18.328125 21,17.5 C21,16.671875 21.671875,16 22.5,16 Z M1,21 C0.449219,21 0,21.449219 0,22 L0,25 C0,25.550781 0.449219,26 1,26 L25,26 C25.550781,26 26,25.550781 26,25 L26,22 C26,21.449219 25.550781,21 25,21 L1,21 Z M22.5,22 C23.328125,22 24,22.671875 24,23.5 C24,24.328125 23.328125,25 22.5,25 C21.671875,25 21,24.328125 21,23.5 C21,22.671875 21.671875,22 22.5,22 Z" transform="translate(8 8)"/>
</svg>
