<svg xmlns="http://www.w3.org/2000/svg" width="42" height="42" viewBox="0 0 42 42">
  <path d="M26,0 L19,1 L21.28125,3.28125 L17,7.5625 L15.71875,6.28125 L15,5.59375 L14.28125,6.28125 L9,11.5625 L7.71875,10.28125 L7,9.59375 L6.28125,10.28125 L0.28125,16.28125 L1.71875,17.71875 L7,12.4375 L8.28125,13.71875 L9,14.40625 L9.71875,13.71875 L15,8.4375 L16.28125,9.71875 L17,10.40625 L17.71875,9.71875 L22.71875,4.71875 L25,7 L26,0 Z M24,9 L24,26 L26,26 L26,9 L24,9 Z M20,11 L20,26 L22,26 L22,11 L20,11 Z M16,13 L16,26 L18,26 L18,13 L16,13 Z M12,15 L12,26 L14,26 L14,15 L12,15 Z M8,17 L8,26 L10,26 L10,17 L8,17 Z M4,19 L4,26 L6,26 L6,19 L4,19 Z M0,21 L0,26 L2,26 L2,21 L0,21 Z" transform="translate(8 8)"/>
</svg>
