<svg xmlns="http://www.w3.org/2000/svg" width="42" height="42" viewBox="0 0 42 42">
  <path d="M6.59375,0 C6.425781,0.019531 6.261719,0.085938 6.125,0.1875 L0.625,4.0625 C0.59375,4.082031 0.5625,4.101563 0.53125,4.125 C0.5,4.144531 0.46875,4.164063 0.4375,4.1875 C0.417969,4.195313 0.394531,4.207031 0.375,4.21875 C0.363281,4.230469 0.355469,4.238281 0.34375,4.25 C0.324219,4.257813 0.300781,4.269531 0.28125,4.28125 C0.28125,4.292969 0.28125,4.300781 0.28125,4.3125 C0.257813,4.332031 0.238281,4.351563 0.21875,4.375 C0.21875,4.386719 0.21875,4.394531 0.21875,4.40625 C0.199219,4.414063 0.175781,4.425781 0.15625,4.4375 C0.15625,4.449219 0.15625,4.457031 0.15625,4.46875 C0.144531,4.488281 0.132813,4.511719 0.125,4.53125 C0.125,4.542969 0.125,4.550781 0.125,4.5625 C0.050781,4.695313 0.007813,4.847656 0,5 L0,19 C0,19.550781 0.449219,20 1,20 L16,20 C16.011719,20 16.019531,20 16.03125,20 C16.09375,19.996094 16.15625,19.984375 16.21875,19.96875 C16.25,19.960938 16.28125,19.949219 16.3125,19.9375 C16.5625,19.863281 16.777344,19.695313 16.90625,19.46875 L20.78125,14.625 C20.921875,14.449219 21,14.226563 21,14 L21,1.1875 C21.058594,0.851563 20.9375,0.511719 20.6875,0.28125 C20.679688,0.261719 20.667969,0.238281 20.65625,0.21875 C20.644531,0.21875 20.636719,0.21875 20.625,0.21875 C20.605469,0.195313 20.585938,0.175781 20.5625,0.15625 C20.550781,0.15625 20.542969,0.15625 20.53125,0.15625 C20.480469,0.121094 20.429688,0.089844 20.375,0.0625 C20.285156,0.027344 20.191406,0.007813 20.09375,0 C20.0625,0 20.03125,0 20,0 L6.6875,0 C6.65625,0 6.625,0 6.59375,0 Z M7,2 L10.6875,2 L8.3125,4 L4.15625,4 L7,2 Z M13.1875,2 L17.5625,2 L15.5625,4 L10.84375,4 L13.1875,2 Z M2,6 L15,6 L15,18 L2,18 L2,6 Z M5.71875,7 C5.167969,7.078125 4.78125,7.589844 4.859375,8.140625 C4.9375,8.691406 5.449219,9.078125 6,9 L11,9 C11.359375,9.003906 11.695313,8.816406 11.878906,8.503906 C12.058594,8.191406 12.058594,7.808594 11.878906,7.496094 C11.695313,7.183594 11.359375,6.996094 11,7 L6,7 C5.96875,7 5.9375,7 5.90625,7 C5.875,7 5.84375,7 5.8125,7 C5.78125,7 5.75,7 5.71875,7 Z" transform="translate(10 11)"/>
</svg>
