<svg xmlns="http://www.w3.org/2000/svg" width="42" height="42" viewBox="0 0 42 42">
  <path d="M7,0 C6.398438,0 6,0.398438 6,1 L6,4 C6,4.601563 6.398438,5 7,5 C7.601563,5 8,4.601563 8,4 L8,1 C8,0.398438 7.601563,0 7,0 Z M19,0 C18.398438,0 18,0.398438 18,1 L18,4 C18,4.601563 18.398438,5 19,5 C19.601563,5 20,4.601563 20,4 L20,1 C20,0.398438 19.601563,0 19,0 Z M3,2 C1.300781,2 0,3.300781 0,5 L0,23 C0,24.699219 1.300781,26 3,26 L23,26 C24.699219,26 26,24.699219 26,23 L26,5 C26,3.300781 24.699219,2 23,2 L21,2 L21,4 C21,5.101563 20.101563,6 19,6 C17.898438,6 17,5.101563 17,4 L17,2 L9,2 L9,4 C9,5.101563 8.101563,6 7,6 C5.898438,6 5,5.101563 5,4 L5,2 L3,2 Z M2,9 L24,9 L24,23 C24,23.601563 23.601563,24 23,24 L3,24 C2.398438,24 2,23.601563 2,23 L2,9 Z M17.15625,11.09375 C16.914063,11.050781 16.667969,11.179688 16.59375,11.40625 L11.6875,18.6875 L9.40625,16.40625 C9.207031,16.207031 8.800781,16.207031 8.5,16.40625 L7.59375,17.3125 C7.394531,17.511719 7.394531,17.886719 7.59375,18.1875 L11.09375,21.6875 C11.292969,21.886719 11.605469,22 11.90625,22 C12.207031,22 12.492188,21.792969 12.59375,21.59375 L18.5,12.90625 C18.699219,12.507813 18.605469,12.105469 18.40625,11.90625 L17.40625,11.1875 C17.332031,11.136719 17.238281,11.109375 17.15625,11.09375 Z" transform="translate(8 8)"/>
</svg>
