<svg xmlns="http://www.w3.org/2000/svg" width="42" height="42" viewBox="0 0 42 42">
  <path d="M3.6875,0 C3.6875,0 0,3.539063 0,7.5625 C0,11.585938 3.78125,13 3.78125,13 C2.367188,9.28125 2.574219,7.269531 3.3125,4.78125 C3.3125,9.492188 4.71875,12.25 4.71875,12.25 C4.71875,12.25 7.53125,9.617188 6.84375,5.71875 C6.351563,2.921875 3.6875,0 3.6875,0 Z M12,9 C5.472656,9 5.03125,15.5 5.03125,15.5 C5.03125,15.5 6.890625,13.59375 8.625,12.9375 C12.894531,11.324219 16,13 16,13 C16,13 12.503906,12.8125 10.5,13.59375 C6.683594,15.082031 4.148438,19.007813 3.15625,20.5625 C2.886719,20.984375 2.996094,21.558594 3.40625,21.84375 C3.808594,22.132813 4.53125,22.003906 4.78125,21.5 C5.316406,20.429688 6.492188,18.210938 6.78125,17.84375 C6.78125,17.84375 8.929688,19 12.84375,19 C18.152344,19 22,13 22,13 C22,13 17.679688,9 12,9 Z" transform="translate(10 10)"/>
</svg>
