<svg xmlns="http://www.w3.org/2000/svg" width="42" height="42" viewBox="0 0 42 42">
  <path d="M12.9068932,0 C7.63736215,0 3.30533115,4.101563 2.93814315,9.28125 C0.352206154,12.082031 -0.714200846,14.902344 0.500643154,16.8125 C1.59048715,18.648438 4.42251815,19.210938 7.93814315,18.65625 C9.40689315,19.503906 11.0943932,20 12.9068932,20 C18.1568932,20 22.4459562,15.929688 22.8443932,10.78125 C25.4772062,7.941406 26.5865812,4.988281 25.4068932,3 C24.2662682,1.15625 21.3561122,0.53125 17.6881432,1.21875 C17.6803312,1.214844 17.6647062,1.222656 17.6568932,1.21875 C16.2389242,0.449219 14.6295492,0 12.9068932,0 Z M12.9068932,2 C16.2857992,2 19.1686122,4.078125 20.3443932,7.03125 C19.3795492,8.832031 17.2623622,10.84375 14.5006432,12.40625 C11.5006432,14.066406 8.46548715,14.800781 6.34439315,14.5625 C5.44595615,13.269531 4.90689315,11.703125 4.90689315,10 C4.90689315,5.570313 8.47720615,2 12.9068932,2 Z M20.2818932,13.125 C19.0709562,15.996094 16.2311122,18 12.9068932,18 C12.3639242,18 11.8248622,17.945313 11.3131432,17.84375 C12.9928312,17.304688 14.7506432,16.542969 16.5006432,15.59375 C17.8912682,14.835938 19.1529872,14.011719 20.2818932,13.125 Z" transform="translate(8 11)"/>
</svg>
