<svg xmlns="http://www.w3.org/2000/svg" width="42" height="42" viewBox="0 0 42 42">
  <path d="M15.1875,0 C12.984375,0 11.222656,1.660156 10.84375,3.78125 C9.316406,4.296875 8.1875,5.703125 8.1875,7.40625 C8.1875,9.359375 9.65625,10.96875 11.53125,11.21875 C12.132813,12.5625 13.292969,13.625 14.84375,13.625 C15.867188,13.625 16.71875,13.109375 17.40625,12.4375 C17.945313,12.796875 18.558594,13.0625 19.25,13.0625 C20.65625,13.0625 21.65625,12.070313 22.1875,10.84375 C24.191406,10.84375 25.8125,9.167969 25.8125,7.15625 C25.8125,5.453125 24.636719,4.066406 23.0625,3.65625 C22.496094,2.355469 21.339844,1.34375 19.84375,1.34375 C19.359375,1.34375 18.988281,1.605469 18.5625,1.78125 C17.742188,0.757813 16.589844,0 15.1875,0 Z M15.1875,2 C16.140625,2 16.953125,2.53125 17.375,3.34375 L17.90625,4.40625 L18.875,3.6875 C19.160156,3.46875 19.472656,3.34375 19.84375,3.34375 C20.640625,3.34375 21.304688,3.902344 21.46875,4.6875 L21.625,5.40625 L22.34375,5.5 C23.15625,5.585938 23.8125,6.257813 23.8125,7.15625 C23.8125,8.109375 23.085938,8.84375 22.1875,8.84375 C22.074219,8.84375 21.972656,8.832031 21.875,8.8125 L20.78125,8.59375 L20.65625,9.71875 C20.585938,10.496094 20,11.0625 19.25,11.0625 C18.796875,11.0625 18.394531,10.84375 18.125,10.5 L17.1875,9.3125 L16.46875,10.65625 C16.152344,11.242188 15.53125,11.625 14.84375,11.625 C13.957031,11.625 13.230469,10.96875 13.0625,10.09375 L12.90625,9.25 L12.0625,9.28125 C11.984375,9.285156 11.953125,9.3125 12,9.3125 C10.996094,9.3125 10.1875,8.472656 10.1875,7.40625 C10.1875,6.414063 10.914063,5.632813 11.8125,5.53125 L12.6875,5.4375 L12.6875,4.5625 C12.695313,3.132813 13.820313,2 15.1875,2 Z M6,7.8125 C4.34375,7.8125 3.519531,9.152344 3,10.8125 L0,18.84375 C0.839844,18.210938 1.871094,17.8125 3,17.8125 L21,17.8125 C22.128906,17.8125 23.160156,18.210938 24,18.84375 L22.25,13.53125 C21.417969,14.171875 20.378906,14.5625 19.25,14.5625 C18.710938,14.5625 18.183594,14.476563 17.6875,14.3125 C16.855469,14.835938 15.859375,15.125 14.84375,15.125 C12.9375,15.125 11.222656,14.082031 10.28125,12.5 C8.304688,11.816406 6.878906,10 6.71875,7.8125 L6,7.8125 Z M3,18.8125 C1.34375,18.8125 0,20.15625 0,21.8125 L0,22.8125 C0,24.46875 1.34375,25.8125 3,25.8125 L21,25.8125 C22.65625,25.8125 24,24.46875 24,22.8125 L24,21.8125 C24,20.15625 22.65625,18.8125 21,18.8125 L3,18.8125 Z M19.5,20.8125 C20.328125,20.8125 21,21.484375 21,22.3125 C21,23.140625 20.328125,23.8125 19.5,23.8125 C18.671875,23.8125 18,23.140625 18,22.3125 C18,21.484375 18.671875,20.8125 19.5,20.8125 Z" transform="translate(8 8)"/>
</svg>
