<svg xmlns="http://www.w3.org/2000/svg" width="42" height="42" viewBox="0 0 42 42">
  <path d="M13,0 C10.25,0 8,2.25 8,5 C8,7.75 10.25,10 13,10 C15.75,10 18,7.75 18,5 C18,2.25 15.75,0 13,0 Z M13,10 L4,10 C2.898438,10 2,10.898438 2,12 L2,20 C2,21.101563 2.898438,22 4,22 L6.40625,22 L4,26 L6,26 L9,22.25 L12,26 L14,26 L11.59375,22 L15,22 C16.101563,22 17,21.101563 17,20 L17,12 C17,10.898438 16.101563,10 15,10 L13,10 Z M4,10 C6.199219,10 8,8.199219 8,6 C8,3.800781 6.199219,2 4,2 C1.800781,2 0,3.800781 0,6 C0,8.199219 1.800781,10 4,10 Z M13,2 C14.667969,2 16,3.332031 16,5 C16,6.667969 14.667969,8 13,8 C11.332031,8 10,6.667969 10,5 C10,3.332031 11.332031,2 13,2 Z M4,4 C5.117188,4 6,4.882813 6,6 C6,7.117188 5.117188,8 4,8 C2.882813,8 2,7.117188 2,6 C2,4.882813 2.882813,4 4,4 Z M23,10 L18,13 L18,19 L23,22 L23,10 Z" transform="translate(10 8)"/>
</svg>
