<svg xmlns="http://www.w3.org/2000/svg" width="42" height="42" viewBox="0 0 42 42">
  <path d="M6.78125,0.00237580776 C6.738281,0.0101888078 6.695313,0.0219068078 6.65625,0.0336258078 L6.40625,0.0336258078 L6.28125,0.189875808 L6.25,0.221125808 C6.132813,0.314875808 6.035156,0.432063808 5.96875,0.564875808 L0.5,7.40862581 L0,8.03362581 L0.46875,8.65862581 L11.9375,23.4086258 L11.9375,23.4398758 C11.949219,23.4515948 11.957031,23.4594068 11.96875,23.4711258 C11.96875,23.4828448 11.96875,23.4906568 11.96875,23.5023758 C11.980469,23.5140948 11.988281,23.5219068 12,23.5336258 L12.03125,23.5648758 C12.03125,23.5765948 12.03125,23.5844068 12.03125,23.5961258 C12.042969,23.6078448 12.050781,23.6156568 12.0625,23.6273758 L12.09375,23.6586258 C12.105469,23.6703448 12.113281,23.6781568 12.125,23.6898758 L12.15625,23.7523758 C12.183594,23.7875318 12.214844,23.8187818 12.25,23.8461258 L12.875,24.6586258 L13.5,23.8461258 C13.535156,23.8070638 13.566406,23.7640948 13.59375,23.7211258 C13.617188,23.7015948 13.636719,23.6820638 13.65625,23.6586258 L13.71875,23.5648758 C13.742188,23.5336258 13.761719,23.5023758 13.78125,23.4711258 L25.28125,8.65862581 L25.75,8.03362581 L25.25,7.40862581 L19.8125,0.627375808 C19.804688,0.607844808 19.792969,0.584406808 19.78125,0.564875808 L19.65625,0.408625808 L19.65625,0.377375808 C19.636719,0.353938808 19.617188,0.334406808 19.59375,0.314875808 L19.34375,0.0336258078 L19.09375,0.0336258078 C18.992188,0.00628180776 18.886719,-0.00543619224 18.78125,0.00237580776 C18.75,0.0101888078 18.71875,0.0219068078 18.6875,0.0336258078 L13,0.0336258078 C12.980469,0.0219068078 12.957031,0.0101888078 12.9375,0.00237580776 C12.925781,0.00237580776 12.917969,0.00237580776 12.90625,0.00237580776 C12.875,0.00237580776 12.84375,0.00237580776 12.8125,0.00237580776 C12.78125,0.0101888078 12.75,0.0219068078 12.71875,0.0336258078 L7.0625,0.0336258078 C6.972656,0.0101888078 6.875,-0.00153019224 6.78125,0.00237580776 Z M7.875,2.03362581 L10.71875,2.03362581 L7.875,5.34612581 L7.875,2.03362581 Z M15.03125,2.03362581 L17.875,2.03362581 L17.875,5.34612581 L15.03125,2.03362581 Z M12.875,2.56487581 L16.71875,7.03362581 L9.0625,7.03362581 L12.875,2.56487581 Z M5.875,3.87737581 L5.875,7.03362581 L3.375,7.03362581 L5.875,3.87737581 Z M19.875,3.87737581 L22.375,7.03362581 L19.875,7.03362581 L19.875,3.87737581 Z M3.34375,9.03362581 L6.1875,9.03362581 L9.25,16.7211258 L3.34375,9.03362581 Z M8.34375,9.03362581 L17.375,9.03362581 L12.875,20.3148758 L8.34375,9.03362581 Z M19.5625,9.03362581 L22.40625,9.03362581 L16.5,16.7211258 L19.5625,9.03362581 Z" transform="translate(8 8)"/>
</svg>
