<svg xmlns="http://www.w3.org/2000/svg" width="42" height="42" viewBox="0 0 42 42">
  <path d="M25,0 C24.449219,0 24,0.449219 24,1 L24,1.8125 L2,8.34375 L2,8 C2,7.449219 1.550781,7 1,7 C0.449219,7 0,7.449219 0,8 L0,13 C0,13.550781 0.449219,14 1,14 C1.550781,14 2,13.550781 2,13 L2,12.75 L24,20.15625 L24,21 C24,21.550781 24.449219,22 25,22 C25.550781,22 26,21.550781 26,21 L26,1 C26,0.449219 25.550781,0 25,0 Z M23,4 L23,7 L3,10 L3,9.5 L23,4 Z M6.46875,14.84375 C6.4375,14.851563 6.40625,14.863281 6.375,14.875 C6.179688,14.933594 6.027344,15.085938 5.96875,15.28125 L5.71875,15.90625 C5.253906,17.296875 6.015625,18.816406 7.40625,19.28125 L9.90625,20.125 C11.296875,20.589844 12.816406,19.828125 13.28125,18.4375 L13.5,17.8125 C13.59375,17.605469 13.5625,17.367188 13.421875,17.1875 C13.28125,17.011719 13.054688,16.929688 12.832031,16.976563 C12.609375,17.023438 12.433594,17.1875 12.375,17.40625 L12.15625,18.03125 C12.144531,18.042969 12.136719,18.050781 12.125,18.0625 C11.867188,18.839844 11.058594,19.257813 10.28125,19 L7.78125,18.15625 C7.003906,17.898438 6.617188,17.089844 6.875,16.3125 L7.09375,15.65625 C7.167969,15.460938 7.136719,15.242188 7.007813,15.074219 C6.882813,14.910156 6.675781,14.820313 6.46875,14.84375 Z" transform="translate(8 10)"/>
</svg>
