<svg xmlns="http://www.w3.org/2000/svg" width="42" height="42" viewBox="0 0 42 42">
  <path d="M7.90625,0.00451724562 C7.863281,0.0123297456 7.820313,0.0240484456 7.78125,0.0357672456 C7.316406,0.141236246 6.988281,0.559205246 7,1.03576725 C7,2.22717325 6.191406,3.03576725 5,3.03576725 L4,3.03576725 C1.789063,3.03576725 0,4.82483025 0,7.03576725 C0,9.24670525 1.789063,11.0357672 4,11.0357672 L4,24.5357672 C4,25.3365482 4.699219,26.0357672 5.5,26.0357672 C6.300781,26.0357672 7,25.3365482 7,24.5357672 L7,16.5357672 C7,14.6373302 8.601563,13.0357672 10.5,13.0357672 C12.398438,13.0357672 14,14.6373302 14,16.5357672 L14,24.5357672 C14,25.3365482 14.699219,26.0357672 15.5,26.0357672 C16.300781,26.0357672 17,25.3365482 17,24.5357672 L17,16.0357672 C17,15.4342052 17.398438,15.0357672 18,15.0357672 C18.601563,15.0357672 19,15.4342052 19,16.0357672 L19,24.5357672 C19,25.3365482 19.699219,26.0357672 20.5,26.0357672 C21.300781,26.0357672 22,25.3365482 22,24.5357672 L22,10.8795172 C24.257813,10.6646732 26,9.08264225 26,7.12951725 L26,1.44201725 L23.8125,3.62951725 C23.113281,3.23108025 22.300781,3.03576725 21.5,3.03576725 C20.699219,3.03576725 19.886719,3.23498625 19.1875,3.53576725 L17,1.44201725 L17,7.03576725 C17,8.91858025 18.476563,10.4185802 20.46875,10.8170172 C18.691406,10.7701422 16,10.1295172 16,6.62951725 C15,6.32873625 12,5.03576725 11,5.03576725 C6.601563,5.03576725 4,9.03576725 4,9.03576725 C2.808594,9.03576725 2,8.22717325 2,7.03576725 C2,5.84436125 2.808594,5.03576725 4,5.03576725 L5,5.03576725 C7.210938,5.03576725 9,3.24670525 9,1.03576725 C9.011719,0.746705246 8.894531,0.469361246 8.6875,0.274048246 C8.476563,0.0748297456 8.191406,-0.0228265544 7.90625,0.00451724562 Z M20,6.03576725 C20.601563,6.03576725 21,6.43420525 21,7.03576725 C21,7.63733025 20.601563,8.03576725 20,8.03576725 C19.398438,8.03576725 19,7.63733025 19,7.03576725 C19,6.43420525 19.398438,6.03576725 20,6.03576725 Z M23,6.03576725 C23.601563,6.03576725 24,6.43420525 24,7.03576725 C24,7.63733025 23.601563,8.03576725 23,8.03576725 C22.398438,8.03576725 22,7.63733025 22,7.03576725 C22,6.43420525 22.398438,6.03576725 23,6.03576725 Z M10.5,14.0357672 C9.101563,14.0357672 8,15.1373302 8,16.5357672 L8,24.5357672 C8,25.3365482 8.699219,26.0357672 9.5,26.0357672 C10.300781,26.0357672 11,25.3365482 11,24.5357672 L11,14.1295172 C10.800781,14.0279552 10.699219,14.0357672 10.5,14.0357672 Z" transform="translate(8 7)"/>
</svg>
