<svg xmlns="http://www.w3.org/2000/svg" width="42" height="42" viewBox="0 0 42 42">
  <path d="M24.884691,0.00570411878 C24.751879,0.0213291188 24.626879,0.0642979188 24.509691,0.130704119 L0.509691015,13.1307041 C0.162035015,13.3221101 -0.0371839853,13.7049231 0.00578481473,14.0994541 C0.0448473147,14.4939851 0.318285015,14.8260171 0.697191015,14.9432041 L7.07219101,16.8494541 C7.22062901,18.0291421 7.88469101,23.1346101 8.00969101,24.1307041 C8.13469101,25.1228921 8.80656601,25.2947671 9.47844101,24.3807041 C9.93156601,23.7635171 12.603441,20.0057041 12.603441,20.0057041 L18.290941,25.6932041 C18.540941,25.9432041 18.904222,26.0408601 19.244066,25.9510171 C19.587816,25.8611731 19.853441,25.5955481 19.947191,25.2557041 L25.947191,1.25570412 C26.037035,0.939298119 25.95891,0.599454119 25.747972,0.349454119 C25.533129,0.0994541188 25.212816,-0.0294521812 24.884691,0.00570411878 Z M23.447191,2.94320412 L18.415941,23.0682041 L12.759691,17.4119541 L20.978441,6.00570412 L8.19719101,15.1307041 L3.54094101,13.7557041 L23.447191,2.94320412 Z" transform="translate(8 8)"/>
</svg>
