<svg xmlns="http://www.w3.org/2000/svg" width="42" height="42" viewBox="0 0 42 42">
  <path d="M25.1031598,19.0107425 L15.0484718,1.5966795 C13.8180028,-0.5322265 11.8101908,-0.5322265 10.5797218,1.5966795 L0.525034847,19.0107425 C-0.705434153,21.1396485 0.302377847,22.8779295 2.75940985,22.8779295 L22.8687848,22.8779295 C25.3258158,22.8779295 26.3297218,21.1396485 25.1031598,19.0107425 Z M11.4312848,6.5380855 C11.7945658,6.1474605 12.2515968,5.9521485 12.8140968,5.9521485 C13.3765968,5.9521485 13.8336278,6.1435545 14.1969098,6.5302735 C14.5523778,6.9130855 14.7359718,7.3974605 14.7359718,7.9794925 C14.7359718,8.4755855 13.9859718,12.1474605 13.7359718,14.8154295 L11.9273778,14.8154295 C11.7086278,12.1474605 10.8922218,8.4755855 10.8922218,7.9794925 C10.8922218,7.4052735 11.0758158,6.9248045 11.4312848,6.5380855 Z M14.1695658,19.2333985 C13.7906598,19.6005855 13.3375348,19.7880855 12.8140968,19.7880855 C12.2906598,19.7880855 11.8375348,19.6005855 11.4586278,19.2333985 C11.0797218,18.8623045 10.8922218,18.4169925 10.8922218,17.8896485 C10.8922218,17.3662105 11.0797218,16.9130855 11.4586278,16.5341795 C11.8375348,16.1552735 12.2906598,15.9677735 12.8140968,15.9677735 C13.3375348,15.9677735 13.7906598,16.1552735 14.1695658,16.5341795 C14.5484718,16.9130855 14.7359718,17.3662105 14.7359718,17.8896485 C14.7359718,18.4169925 14.5484718,18.8623045 14.1695658,19.2333985 Z" transform="translate(8 9)"/>
</svg>
