<svg xmlns="http://www.w3.org/2000/svg" width="42" height="42" viewBox="0 0 42 42">
  <path d="M4,0 L4,11 L7,16 L10,11 L10,4 L21,4 C21.550781,4 22,4.449219 22,5 L22,16 L7,16 L8.96875,19.28125 L8.71875,19.46875 L6,21.71875 L6,19 L3,19 C2.449219,19 2,18.550781 2,18 L2,5 C2,4.449219 2.449219,4 3,4 L3,2 C1.34375,2 0,3.34375 0,5 L0,18 C0,19.65625 1.34375,21 3,21 L4,21 L4,26 L10,21 L21,21 C22.65625,21 24,19.65625 24,18 L24,5 C24,3.34375 22.65625,2 21,2 L10,2 L10,0 L4,0 Z M7,10 L9,10.65625 L9,10.71875 L7.4375,13.3125 L6.5625,13.3125 L5,10.71875 L5,10.65625 L7,10 Z" transform="translate(9 8)"/>
</svg>
