<svg xmlns="http://www.w3.org/2000/svg" width="42" height="42" viewBox="0 0 42 42">
  <path d="M16.8559827,0.0122522142 C16.7270767,0.0317835142 16.5981707,0.0942832142 16.4809827,0.168502214 L10.5434827,3.91850221 C10.0747327,4.21537721 9.93410774,4.82475221 10.2309827,5.29350221 C10.5278577,5.76225221 11.1372327,5.90287721 11.6059827,5.60600221 L17.5434827,1.85600221 C18.0122327,1.55912721 18.1528577,0.949752214 17.8559827,0.481002214 C17.6372327,0.129440214 17.2387957,-0.0502477858 16.8559827,0.0122522142 Z M18.0747327,2.69975221 L12.1684827,6.44975221 C12.1684827,6.44975221 11.9145767,7.39897121 13.0122327,9.54350221 L1.23098274,16.5122522 C-0.136204763,17.3169402 -0.245580263,18.3247522 0.324732737,19.2310022 C0.895045737,20.1372522 1.88332674,20.5278772 3.19973274,19.6372522 L14.5434827,11.9810022 C15.9966077,13.8677212 16.9497327,14.0435022 16.9497327,14.0435022 L22.8872327,10.3247522 C22.8872327,10.3247522 23.2466077,9.02397121 21.3247327,5.98100221 C19.4028577,2.93803321 18.0747327,2.69975221 18.0747327,2.69975221 Z M23.7934827,11.0122522 C23.6645767,11.0317832 23.5356707,11.0942832 23.4184827,11.1685022 L17.4809827,14.8872522 C17.0122327,15.1841272 16.8716077,15.7935022 17.1684827,16.2622522 C17.4653577,16.7310022 18.1059827,16.8716272 18.5747327,16.5747522 L24.4809827,12.8560022 C24.9497327,12.5591272 25.0903577,11.9497522 24.7934827,11.4810022 C24.5708267,11.1294402 24.1762957,10.9497522 23.7934827,11.0122522 Z M13.9497327,23.9810022 C13.3950457,23.9810022 12.9497327,24.4302212 12.9497327,24.9810022 L12.9497327,25.9810022 L25.9497327,25.9810022 L25.9497327,24.9810022 C25.9497327,24.4302212 25.5044207,23.9810022 24.9497327,23.9810022 L13.9497327,23.9810022 Z" transform="translate(8 8)"/>
</svg>
