<svg xmlns="http://www.w3.org/2000/svg" width="42" height="42" viewBox="0 0 42 42">
  <path d="M11,0 C5.414063,0 0.246094,3.476563 1.21875,11.75 C1.046875,11.886719 0.878906,12.035156 0.75,12.21875 C0.246094,12.929688 0,13.851563 0,14.84375 C0,16.089844 0.734375,17.046875 1.5,17.75 C2.0625,18.265625 2.632813,18.625 3.28125,18.8125 C3.789063,20.453125 4.730469,21.8125 5.84375,22.75 C6.113281,23.003906 6.503906,23.089844 6.855469,22.96875 C7.207031,22.847656 7.460938,22.542969 7.519531,22.175781 C7.574219,21.808594 7.425781,21.441406 7.125,21.21875 C6.117188,20.371094 5.277344,19.242188 4.96875,17.78125 C4.867188,17.328125 4.464844,17.003906 4,17 C4.125,17 3.355469,16.75 2.84375,16.28125 C2.332031,15.8125 2,15.226563 2,14.84375 C2,14.378906 2.113281,13.992188 2.25,13.6875 C2.527344,14.003906 2.972656,14.109375 3.367188,13.957031 C3.757813,13.804688 4.011719,13.421875 4,13 L4,12.15625 C4,12.125 4,12.09375 4,12.0625 C4.039063,11.347656 4.132813,10.695313 4.28125,10.09375 C5.660156,9.621094 6.808594,10.390625 8,6.875 C9.742188,12.046875 14.246094,9.089844 17.34375,8.9375 C17.707031,9.824219 17.933594,10.863281 18,12.0625 C18,12.09375 18,12.125 18,12.15625 L18,13 C18,13.550781 18.449219,14 19,14 L19,16.46875 C18.566406,16.808594 18.085938,17 18,17 C17.535156,17.003906 17.132813,17.328125 17.03125,17.78125 C16.828125,18.746094 16.375,19.558594 15.8125,20.25 C15.457031,20.679688 15.523438,21.316406 15.953125,21.671875 C16.382813,22.027344 17.019531,21.960938 17.375,21.53125 C17.976563,20.792969 18.371094,19.824219 18.6875,18.8125 C19.277344,18.660156 19.824219,18.394531 20.3125,18 L21,18 C20.753906,19.28125 20.304688,20.246094 19.84375,20.9375 C19.195313,21.914063 18.632813,22.253906 18.59375,22.28125 C18.566406,22.296875 18.210938,22.492188 17.1875,22.71875 C16.40625,22.890625 15.285156,23.078125 13.78125,23.15625 C13.578125,22.042969 12.410156,21.1875 11,21.1875 C9.445313,21.1875 8.1875,22.222656 8.1875,23.5 C8.1875,24.777344 9.445313,25.8125 11,25.8125 C11.972656,25.8125 12.839844,25.398438 13.34375,24.78125 C15.195313,24.707031 16.601563,24.496094 17.5625,24.28125 C18.75,24.019531 19.34375,23.71875 19.34375,23.71875 C19.375,23.699219 19.40625,23.679688 19.4375,23.65625 C19.4375,23.65625 20.332031,23.050781 21.15625,21.8125 C21.824219,20.8125 22.484375,19.359375 22.71875,17.4375 C23.445313,16.890625 23.90625,16 23.90625,15 L23.90625,13 C23.90625,11.34375 22.65625,10 21,10 L20.84375,10 C20.847656,3.003906 16.175781,0 11,0 Z M19.65625,9.875 C19.6875,9.917969 19.722656,9.953125 19.75,10 L19.65625,10 C19.648438,9.957031 19.664063,9.917969 19.65625,9.875 Z M7,12 C5.894531,12 5,12.894531 5,14 C5,15.105469 5.894531,16 7,16 C8.105469,16 9,15.105469 9,14 C9,12.894531 8.105469,12 7,12 Z M15,12 C13.894531,12 13,12.894531 13,14 C13,15.105469 13.894531,16 15,16 C16.105469,16 17,15.105469 17,14 C17,12.894531 16.105469,12 15,12 Z" transform="translate(9 8)"/>
</svg>
