<svg xmlns="http://www.w3.org/2000/svg" width="42" height="42" viewBox="0 0 42 42">
  <path d="M13.6237592,0 L12.3112592,12.25 L25.3112592,9.875 C24.7136032,6.320313 22.5104782,3.085938 19.0612592,1.3125 C17.3346972,0.421875 15.4753222,0 13.6550092,0 L13.6237592,0 Z M11.7800092,1.84375 C7.50657223,1.855469 3.40110323,4.1875 1.31125923,8.25 C-1.66920977,14.050781 0.600322234,21.175781 6.40500923,24.15625 C12.2096972,27.136719 19.3307902,24.863281 22.3112592,19.0625 C23.5221972,16.710938 23.8425092,14.140625 23.4362592,11.71875 L10.4675092,14.09375 L11.7800092,1.84375 Z M15.4050092,2.15625 C16.3542282,2.324219 17.2878222,2.617188 18.1550092,3.0625 C20.3346972,4.183594 21.9596972,6.039063 22.8112592,8.28125 L14.5925092,9.78125 L15.4050092,2.15625 Z" transform="translate(8 8)"/>
</svg>
