<svg xmlns="http://www.w3.org/2000/svg" width="42" height="42" viewBox="0 0 42 42">
  <path d="M21.7076318,0 L16.5658048,5.14182692 L11.2373807,3.35877315 L5.94350962,9.09495192 L0.649640308,7.07692308 L0.0207336154,8.72866454 L6.44110577,11.1682692 L11.7626211,5.40444623 L17.0495798,7.15985577 L22.9654452,1.24399038 L21.7076318,0 Z M10.6153846,12.3431482 L10.6153846,22.9585328 L12.3846154,22.9585328 L12.3846154,12.3431482 L10.6153846,12.3431482 Z M21.2307692,12.3431482 L21.2307692,22.9585328 L23,22.9585328 L23,12.3431482 L21.2307692,12.3431482 Z M7.07692308,14.1123789 L7.07692308,22.9585328 L8.84615385,22.9585328 L8.84615385,14.1123789 L7.07692308,14.1123789 Z M14.1538462,14.1123789 L14.1538462,22.9585328 L15.9230769,22.9585328 L15.9230769,14.1123789 L14.1538462,14.1123789 Z M0,15.8816097 L0,22.9585328 L1.76923077,22.9585328 L1.76923077,15.8816097 L0,15.8816097 Z M3.53846154,15.8816097 L3.53846154,22.9585328 L5.30769231,22.9585328 L5.30769231,15.8816097 L3.53846154,15.8816097 Z M17.6923077,15.8816097 L17.6923077,22.9585328 L19.4615385,22.9585328 L19.4615385,15.8816097 L17.6923077,15.8816097 Z" transform="translate(10 9)"/>
</svg>
