<svg xmlns="http://www.w3.org/2000/svg" width="42" height="42" viewBox="0 0 42 42">
  <path d="M13,0 L0,6 L0,7 L2,7 C2,7.550781 2.445313,8 3,8 L23,8 C23.554688,8 24,7.550781 24,7 L26,7 L26,6 L13,0 Z M4,9 L4,21 L3,21 C2.445313,21 2,21.449219 2,22 L2,23 L24,23 L24,22 C24,21.449219 23.554688,21 23,21 L22,21 L22,9 L19,9 L19,21 L17,21 L17,9 L14,9 L14,21 L12,21 L12,9 L9,9 L9,21 L7,21 L7,9 L4,9 Z M1,24 C0.445313,24 0,24.449219 0,25 L0,26 L26,26 L26,25 C26,24.449219 25.554688,24 25,24 L1,24 Z" transform="translate(8 8)"/>
</svg>
