<svg xmlns="http://www.w3.org/2000/svg" width="88" height="28" viewBox="0 0 88 28">
    <g fill="none" fill-rule="evenodd">
        <rect width="88" height="28" fill="#41ADEE" rx="6"/>
        <path fill="#FFF" d="M12.717 21c5.661 0 8.757-5.001 8.757-9.338 0-.142-.003-.283-.01-.424A6.505 6.505 0 0 0 23 9.538a5.841 5.841 0 0 1-1.767.517 3.265 3.265 0 0 0 1.353-1.815 5.944 5.944 0 0 1-1.954.797A2.988 2.988 0 0 0 18.385 8c-1.7 0-3.077 1.47-3.077 3.281 0 .258.027.508.08.749-2.558-.138-4.826-1.443-6.344-3.43a3.441 3.441 0 0 0-.417 1.65c0 1.139.543 2.144 1.37 2.732a2.912 2.912 0 0 1-1.394-.41v.042c0 1.589 1.06 2.916 2.468 3.217a2.902 2.902 0 0 1-1.39.056c.392 1.304 1.528 2.253 2.875 2.28A5.935 5.935 0 0 1 8 19.525 8.323 8.323 0 0 0 12.718 21"/>
        <text fill="#FFF" font-size="13" font-weight="bold">
            <tspan x="39" y="19">Tweet</tspan>
        </text>
        <path stroke="#FFF" stroke-linecap="square" d="M29.5.5v27" opacity=".326"/>
    </g>
</svg>
