<!-- <svg xmlns="http://www.w3.org/2000/svg" width="60" height="60" viewBox="0 0 60 60">
  <path fill="#FFFFFF" fill-rule="evenodd" d="M0,22 L18,22 L18,26 L0,26 L0,22 Z M9.05992011,18 C3.73901465,18 0,13.8373571 0,8.98856417 C0,4.13977128 3.69107856,0 9.01198402,0 C14.3568575,0 18,4.18551461 18,9.01143583 C18,13.7916137 14.4047936,18 9.05992011,18 Z M9.03328895,14 C12.0026631,14 14,11.6620076 14,9.00635324 C14,6.3252859 11.976032,4 9.00665779,4 C6.0505992,4 4,6.29987294 4,8.99364676 C4,11.6874206 6.07723036,14 9.03328895,14 Z" transform="translate(21 17)"/>
</svg> -->

<svg xmlns="http://www.w3.org/2000/svg" width="360" height="360" viewBox="0 0 360 360">
  <path fill="#FFF" d="M180,84.8508287 C202.550683,84.8508287 221.189237,101.5908 224.1532,123.315192 L254.948718,123.315387 C257.186179,123.315387 259,125.128142 259,127.364288 L259,250.855766 C259,264.272643 248.117075,275.149171 234.692308,275.149171 L125.307692,275.149171 C111.882925,275.149171 101,264.272643 101,250.855766 L101,127.364288 C101,125.128142 102.813821,123.315387 105.051282,123.315387 L135.8468,123.315192 C138.810763,101.5908 157.449317,84.8508287 180,84.8508287 Z M135.846851,135.462662 L113.153846,135.46209 L113.153846,250.855766 C113.153846,257.564205 118.595308,263.002469 125.307692,263.002469 L234.692308,263.002469 C241.404692,263.002469 246.846154,257.564205 246.846154,250.855766 L246.846154,135.46209 L224.153149,135.462662 C221.189022,157.186871 202.550553,173.926649 180,173.926649 C157.449447,173.926649 138.810978,157.186871 135.846851,135.462662 Z M210.789744,191.589979 L210.789744,203.736682 L151.912915,203.736682 L151.912915,191.589979 L210.789744,191.589979 Z M211.918727,135.46209 C212.246413,133.43764 212.410256,131.413189 212.410256,129.388739 C212.410256,127.364288 212.246413,125.339838 211.918727,123.315387 L211.918727,123.315387 L148.114612,123.315387 C147.7647,125.339838 147.589744,127.364288 147.589744,129.388739 C147.589744,131.413189 147.7647,133.43764 148.114612,135.46209 L148.114612,135.46209 L148.15864,135.462687 C151.003322,150.448551 164.177588,161.779946 180,161.779946 C195.822412,161.779946 208.996678,150.448551 211.84136,135.462687 Z M180,96.9975314 C164.177588,96.9975314 151.003322,108.328926 148.15864,123.314791 L211.84136,123.314791 C208.996678,108.328926 195.822412,96.9975314 180,96.9975314 Z"/>
</svg>
