<svg xmlns="http://www.w3.org/2000/svg" width="60" height="60" viewBox="0 0 60 60">
  <g fill="#FFFFFF" transform="translate(16 15)">
    <path d="M24.4540625,14.042809 L24.4669687,14.114382 C24.5027344,14.295618 24.6575,14.4337079 24.8442031,14.4337079 L27.099625,14.4339326 C27.3094062,14.4297753 27.4764219,14.2492135 27.4764219,14.032809 C27.3215065,12.8849966 27.0275621,11.7615722 26.6014219,10.6886517 L27.7906562,9.69157303 C27.9551562,9.55359551 27.9993437,9.28842697 27.8886562,9.10224719 L26.6179375,6.96370787 C26.5073594,6.77752809 26.2576562,6.69662921 26.0630781,6.78393258 L24.4105312,7.52494382 C23.7717147,6.67450731 23.0368978,5.90496731 22.2215,5.23247191 L22.8948125,3.53606742 C22.9749844,3.33404494 22.8901094,3.07966292 22.70625,2.9705618 L20.5941094,1.71775281 C20.4103594,1.60876404 20.1533281,1.66044944 20.0231719,1.83269663 L18.9477969,3.25595506 C17.9752465,2.84980495 16.9584954,2.56583769 15.9196406,2.41022472 L15.6635937,0.492134831 C15.6347187,0.276179775 15.4374062,0.0971910112 15.225,0.0971910112 L12.7861562,0.0971910112 C12.5738594,0.0971910112 12.3765469,0.276179775 12.3475625,0.492134831 L12.0923906,2.40247191 C11.0530773,2.55416667 10.035385,2.83416891 9.06139062,3.23640449 L7.98153125,1.80719101 C7.851375,1.63494382 7.59434375,1.58337079 7.41059375,1.69235955 L5.29834375,2.94516854 C5.11459375,3.0541573 5.02960937,3.30876404 5.10978125,3.51078652 L5.78123437,5.20224719 C4.96373051,5.87147536 4.22641924,6.63799565 3.58476562,7.48573034 L1.9184375,6.75370787 C1.72320312,6.66797753 1.47415625,6.75089888 1.365,6.93786517 L0.109703125,9.08606742 C0.000328125,9.27314607 0.046484375,9.53786517 0.211859375,9.67449438 L1.38217187,10.6406742 C0.945555419,11.7269975 0.644994961,12.8658828 0.487703125,14.03 C0.487265625,14.2489888 0.65515625,14.4297753 0.864828125,14.4339326 L3.06982812,14.4339326 C3.3350625,14.4249438 3.49310937,14.2611236 3.50360937,14.0578652 C4.39217187,8.93629213 8.757875,5.05494382 13.9828281,5.05494382 C19.2155469,5.05494382 23.5711875,8.9358427 24.4540625,14.042809 L24.4540625,14.042809 Z M3.5126875,17.7869663 C3.47823437,17.6055056 3.32423437,17.4723596 3.13665625,17.4723596 C3.11970312,17.4723596 3.10876562,17.4730337 3.08590625,17.4732584 L3.08557812,17.4734831 L0.88134375,17.4734831 C0.671427738,17.4773444 0.50325044,17.6533102 0.50334375,17.8689888 L0.503453125,17.8703371 C1.42067187,24.6716854 7.10095312,29.908427 13.9738594,29.908427 L13.9736406,29.908427 C20.8466562,29.908427 26.5268281,24.6716854 27.4440469,17.8702247 L27.4439375,17.8703371 L27.444375,17.8679775 C27.4449403,17.652765 27.277048,17.4770372 27.0675781,17.4735955 L24.8614844,17.4735955 C24.8452969,17.4713483 24.829,17.4683146 24.8121562,17.4683146 C24.6072034,17.4685896 24.4383881,17.6337626 24.4281406,17.8440449 C24.4268281,17.8477528 24.423,17.8496629 24.4224531,17.8532584 C23.5395781,22.9602247 19.1984844,26.8361798 13.9736406,26.8361798 L13.9738594,26.8361798 C8.74901562,26.8361798 4.40792187,22.9602247 3.52504687,17.8532584 L3.5126875,17.7869663 L3.5126875,17.7869663 Z"/>
    <path d="M18.8058281,15.964382 C18.8058281,13.2508989 16.6565,11.0508989 14.00525,11.0508989 C11.3537812,11.0508989 9.20478125,13.2508989 9.20478125,15.964382 C9.20478125,18.6780899 11.3537812,20.8778652 14.00525,20.8778652 C16.6565,20.8778652 18.8058281,18.6780899 18.8058281,15.964382"/>
  </g>
</svg>
