<svg xmlns="http://www.w3.org/2000/svg" width="60" height="60" viewBox="0 0 60 60">
  <path fill="#FEFEFE" fill-rule="evenodd" d="M28.3448474,15 C28.807312,15 28.4741821,15.0028751 29.3129903,15.0197265 C31.8642108,15.0709796 33.7824243,17.2534874 34.5762312,19.9798904 C34.8108564,20.7860793 34.931937,21.6275682 35.1283791,22.446735 C35.7543812,25.0594514 37.3078311,26.0156651 39.8575588,25.4140084 C40.5770091,25.2442571 41.3240918,25.2032468 42.0500734,25.0589323 C43.4533029,24.7796472 44.262182,25.2515247 44.8600492,26.742429 C45.2162575,27.6321958 44.8640685,29.6017261 44.1255266,29.6593481 C42.7554562,29.765248 42.029977,31.3599757 40.5403332,31.011129 C39.79526,30.8367057 39.2330639,31.3407684 39.1345917,32.1241161 C39.0094917,33.125493 38.5713907,33.134318 37.7675357,32.8789124 C35.8860125,32.2798513 35.5152343,32.7527669 35.9417799,34.8001648 C36.60697,37.9932542 37.6529863,40.9812923 39.8088251,43.4569618 C39.9630648,43.6339807 40.0730924,43.8987304 40.1037394,44.1364861 C40.1685502,44.6374341 39.9444756,45.0620719 39.4224723,44.8980309 C33.5327269,43.0478975 28.2313029,40.2903474 25.1962477,34.3672212 C24.3130119,32.6437524 23.2242908,31.6818283 21.281976,31.9766869 C20.7067173,32.0638985 20.1666272,32.1184058 19.9299923,31.2686111 C19.7636948,30.6711073 19.1462337,30.5724751 18.5287725,30.430237 C17.5314899,30.2002681 16.5668638,29.7231995 15.6559956,29.2196559 C14.8998694,28.8017666 14.7777839,27.4889194 15.3922306,26.7195879 C16.0815363,25.8568152 16.8728311,25.1928645 18.0982077,25.7384565 C18.6151869,25.9684254 19.2025035,26.0312386 19.7586707,26.1656899 C21.4321964,26.5711204 22.4455562,25.7467624 22.5128791,23.914279 C22.5319706,23.3967193 22.6049805,23.3312442 22.5158935,22.5271981 C22.0732708,18.488467 24.6594334,15 28.3448474,15 Z"/>
</svg>
