<svg xmlns="http://www.w3.org/2000/svg" width="60" height="60" viewBox="0 0 60 60" xmlns:xlink="http://www.w3.org/1999/xlink">
  <defs>
    <path id="a" d="M0,8.82054974 C0,3.94909463 3.95135641,0 8.83050919,0 L17.6469339,0 C18.9464964,0 20,1.05143285 20,2.35318318 L20,23.6468168 C20,24.946444 18.9528725,26 17.6469339,26 L8.83050919,26 C3.95355363,26 0,22.0511596 0,17.1794503 L0,8.82054974 Z M12.3529412,11.1428571 L12.3529412,13 L18.2352941,13 L18.2352941,11.1428571 L12.3529412,11.1428571 Z M12.9411765,7.31253778 L12.9411765,7.54460507 C12.9411765,8.85448928 13.9946241,9.9047619 15.2941176,9.9047619 C16.602671,9.9047619 17.6470588,8.8480837 17.6470588,7.54460507 L17.6470588,7.31253778 C17.6470588,6.00265358 16.5936112,4.95238095 15.2941176,4.95238095 C13.9855643,4.95238095 12.9411765,6.00905916 12.9411765,7.31253778 Z M2.35294118,12.9129748 L2.35294118,13.0870252 C2.35294118,14.0694384 3.14302691,14.8571429 4.11764706,14.8571429 C5.09906208,14.8571429 5.88235294,14.0646342 5.88235294,13.0870252 L5.88235294,12.9129748 C5.88235294,11.9305616 5.09226721,11.1428571 4.11764706,11.1428571 C3.13623204,11.1428571 2.35294118,11.9353658 2.35294118,12.9129748 Z"/>
  </defs>
  <g fill="none" fill-rule="evenodd" transform="translate(15 17)">
    <mask id="b" fill="white">
      <use xlink:href="#a"/>
    </mask>
    <use fill="#FFFFFF" opacity=".6" xlink:href="#a"/>
    <path fill="#FFFFFF" d="M2.35294118,13 L0,13 L0,26 L20.5882353,26 L20.5882353,13 L5.88235294,13 L5.88235294,13.0870252 C5.88235294,14.0646342 5.09906208,14.8571429 4.11764706,14.8571429 C3.14302691,14.8571429 2.35294118,14.0694384 2.35294118,13.0870252 L2.35294118,13 Z" opacity=".3" mask="url(#b)"/>
    <path fill="#FFFFFF" d="M20,13.3382437 L20,2.00195313 C20,2.00195313 34.1704955,3.92800583 27.045869,20.9313994 L20,13.3382437 Z M20,18.0032024 L23.1130126,20.7237537 C23.1130126,20.7237537 23.1704694,21.4748197 20,21.8246137 L20,18.0032024 Z" opacity=".7"/>
    <path fill="#FFFFFF" d="M7,14 L20,14 L20,24 L9.35420193,24 C8.05401211,24 7,22.9487253 7,21.6554443 L7,14 Z" opacity=".5"/>
    <path fill="#FFFFFF" d="M7,8.49841309 C7,4.90943864 9.91745375,2 13.5,2 L20,2 L20,20 L13.5,20 C9.91014913,20 7,17.0879835 7,13.5015869 L7,8.49841309 Z M12.3529412,11.1428571 L12.3529412,13 L18.2352941,13 L18.2352941,11.1428571 L12.3529412,11.1428571 Z M12.9411765,7.31253778 L12.9411765,7.54460507 C12.9411765,8.85448928 13.9946241,9.9047619 15.2941176,9.9047619 C16.602671,9.9047619 17.6470588,8.8480837 17.6470588,7.54460507 L17.6470588,7.31253778 C17.6470588,6.00265358 16.5936112,4.95238095 15.2941176,4.95238095 C13.9855643,4.95238095 12.9411765,6.00905916 12.9411765,7.31253778 Z"/>
  </g>
</svg>
