<svg width="60" height="60" viewBox="0 0 60 60" xmlns="http://www.w3.org/2000/svg">
    <rect fill="transparent" x="0" y="0" width="60" height="60" rx="4.8"></rect>

    <g width="30" height="30" viewBox="0 0 30 30" transform="translate(15, 15)" fill="#FFFFFF">
        <path d="M 166.500 0.600 C 157.470 1.790, 140.361 6.120, 129.500 9.963 C 70.674 30.779, 19.375 85.129, 4.871 142 C 0.362 159.683, 0 163.527, 0 193.807 C 0 209.926, 0.430 225.001, 0.955 227.307 C 6.156 250.149, 9.669 260.387, 18.175 277.500 C 20.362 281.900, 24.785 289.550, 28.004 294.500 C 31.253 299.495, 34.599 306.096, 35.524 309.335 L 37.191 315.170 32.054 335.835 C 29.228 347.201, 26.485 358.188, 25.958 360.250 C 25.431 362.313, 24.550 365.800, 24 368 C 23.450 370.200, 22.573 373.688, 22.052 375.750 C 21.530 377.813, 20.151 383.325, 18.987 388 C 17.823 392.675, 16.644 397.287, 16.368 398.250 C 15.620 400.855, 19.314 400.506, 28.596 397.097 C 45.623 390.842, 67.882 382.632, 75.500 379.798 C 79.900 378.161, 84.625 376.452, 86 376.001 C 87.375 375.550, 91.648 374.015, 95.496 372.591 C 106.660 368.456, 110.697 368.944, 134.500 377.306 C 151.737 383.361, 176.327 387, 200 387 C 215.013 387, 234.304 385.238, 243.750 383.005 C 246.088 382.452, 250.137 381.490, 252.750 380.866 C 306.108 368.130, 357.912 326.717, 382.423 277.202 C 390.252 261.388, 396.644 242.553, 398.530 229.738 C 398.915 227.118, 399.629 224.729, 400.115 224.429 C 400.602 224.128, 401 209.707, 401 192.382 C 401 171.637, 400.659 161.093, 400 161.500 C 399.444 161.843, 398.997 161.092, 398.992 159.809 C 398.979 156.087, 393.470 135.198, 390.168 126.354 C 377.550 92.556, 353.110 61.194, 320 36.315 C 301.284 22.252, 274.663 9.732, 252.500 4.572 C 248.650 3.675, 243.925 2.442, 242 1.831 C 238.636 0.763, 173.337 -0.301, 166.500 0.600 M 0.446 193.500 C 0.447 211.100, 0.583 218.159, 0.749 209.187 C 0.914 200.215, 0.914 185.815, 0.748 177.187 C 0.581 168.559, 0.446 175.900, 0.446 193.500 M 97 170.372 C 91.033 172.352, 87.381 174.760, 83.283 179.416 C 73.555 190.468, 73.555 209.532, 83.283 220.584 C 97.961 237.259, 125.433 233.491, 134.921 213.500 C 138.311 206.357, 138.311 193.643, 134.921 186.500 C 129.679 175.456, 119.043 168.897, 106.712 169.105 C 103.296 169.163, 98.925 169.733, 97 170.372 M 188.424 171.057 C 181.679 173.652, 176.086 178.597, 172.497 185.141 C 169.826 190.009, 169.557 191.370, 169.557 200 C 169.557 208.630, 169.826 209.991, 172.497 214.859 C 181.553 231.368, 203.844 236.256, 218.761 225.005 C 227.872 218.133, 232.146 207.052, 230.462 194.667 C 227.840 175.376, 207.252 163.813, 188.424 171.057 M 281.097 171.179 C 274.566 173.687, 268.319 179.666, 265.089 186.500 C 262.281 192.439, 261.696 205.364, 263.978 211.059 C 271.256 229.229, 291.907 236.330, 309.635 226.760 C 314.471 224.150, 320.485 216.653, 322.332 210.935 C 328.078 193.145, 319.542 175.652, 302.500 170.289 C 296.522 168.408, 287.316 168.791, 281.097 171.179 " stroke="none" fill="white" fill-rule="evenodd" transform="scale(0.075) translate(0 0)"></path>
    </g>
</svg>