<svg width="60" height="60" viewBox="0 0 60 60" xmlns="http://www.w3.org/2000/svg">
    <rect fill="transparent" x="0" y="0" width="60" height="60" rx="4.8"></rect>

    <g width="30" height="30" viewBox="0 0 30 30" transform="translate(15, 15)" fill="#FFFFFF">
        <path d="M 352 177.787 C 345.172 184.869, 339.177 190.069, 331.577 195.500 C 330.038 196.600, 328.185 198.063, 327.461 198.750 C 326.736 199.438, 325.850 200, 325.492 200 C 325.133 200, 317.897 204.950, 309.411 211 C 300.925 217.050, 293.536 222, 292.991 222 C 292.446 222, 292 222.343, 292 222.763 C 292 223.182, 291.095 223.970, 289.989 224.513 C 288.882 225.056, 276.851 233.375, 263.253 243 C 249.655 252.625, 237.826 260.950, 236.966 261.500 C 236.106 262.050, 233.965 263.400, 232.208 264.500 C 230.450 265.600, 229.010 266.837, 229.006 267.250 C 229.003 267.663, 228.565 268, 228.034 268 C 227.503 268, 222.327 271.375, 216.532 275.500 C 206.295 282.788, 205.830 283, 200.119 283 L 194.241 283 177.572 271.250 C 168.403 264.788, 160.137 259.050, 159.201 258.500 C 158.266 257.950, 157.275 257.251, 157 256.947 C 156.725 256.643, 154.801 255.362, 152.723 254.099 C 150.646 252.837, 148.396 251.260, 147.723 250.596 C 147.051 249.932, 145.825 249.080, 145 248.704 C 143.534 248.034, 96.679 215.075, 94.292 213.033 C 93.628 212.465, 92.810 212, 92.475 212 C 91.647 212, 84.583 206.686, 84.167 205.750 C 83.983 205.337, 83.453 205, 82.989 205 C 82.524 205, 71.982 197.800, 59.562 189 C 47.141 180.200, 36.368 173, 35.620 173 C 33.608 173, 5.947 192.569, 2.750 196.255 C 0.994 198.278, 0 200.571, 0 202.596 C 0 206.524, 3.197 209.555, 18.582 220.213 C 24.677 224.435, 30.192 228.526, 30.837 229.304 C 31.798 230.462, 30.157 232.004, 21.755 237.841 C 16.115 241.759, 10.956 245.423, 10.292 245.982 C 9.628 246.542, 8.837 247, 8.534 247 C 7.313 247, 2 252.420, 2 253.665 C 2 254.399, 1.550 255, 1 255 C -0.478 255, -0.214 257.929, 1.411 259.554 C 2.187 260.329, 2.974 261.348, 3.161 261.816 C 3.347 262.285, 13.850 269.932, 26.500 278.810 C 39.150 287.688, 50.044 295.413, 50.708 295.976 C 51.372 296.539, 52.385 297, 52.958 297 C 53.531 297, 54 297.348, 54 297.773 C 54 298.198, 55.575 299.393, 57.500 300.430 C 59.425 301.467, 61 302.694, 61 303.157 C 61 303.621, 61.423 304, 61.941 304 C 62.731 304, 110.058 336.893, 113.708 339.979 C 114.372 340.540, 115.385 341, 115.958 341 C 116.531 341, 117 341.379, 117 341.843 C 117 342.306, 118.575 343.533, 120.500 344.570 C 122.425 345.607, 124 346.802, 124 347.227 C 124 347.652, 124.426 348, 124.946 348 C 125.466 348, 136.701 355.650, 149.913 365 C 163.125 374.350, 174.351 382, 174.860 382 C 175.369 382, 176.045 382.675, 176.362 383.500 C 176.678 384.325, 177.626 385, 178.469 385 C 179.311 385, 180 385.450, 180 386 C 180 386.550, 180.482 387, 181.071 387 C 181.661 387, 182.770 387.563, 183.537 388.250 C 186.203 390.641, 187.530 391.516, 192.635 394.250 C 195.460 395.763, 198.707 397, 199.851 397 C 202.132 397, 209.301 393.948, 209.833 392.750 C 210.017 392.337, 210.804 392, 211.583 392 C 212.362 392, 213 391.652, 213 391.227 C 213 390.802, 214.575 389.607, 216.500 388.570 C 218.425 387.533, 220 386.306, 220 385.843 C 220 385.379, 220.428 385, 220.952 385 C 221.475 385, 233.647 376.675, 248 366.500 C 262.353 356.325, 274.525 348, 275.048 348 C 275.572 348, 276 347.652, 276 347.227 C 276 346.802, 277.575 345.607, 279.500 344.570 C 281.425 343.533, 283 342.306, 283 341.843 C 283 341.379, 283.428 341, 283.952 341 C 284.475 341, 296.647 332.675, 311 322.500 C 325.353 312.325, 337.525 304, 338.048 304 C 338.572 304, 339 303.652, 339 303.227 C 339 302.802, 340.575 301.607, 342.500 300.570 C 344.425 299.533, 346 298.306, 346 297.843 C 346 297.379, 346.425 297, 346.945 297 C 348.725 297, 393.496 264.855, 397.250 260.882 C 400.830 257.093, 402.088 254, 400.048 254 C 399.525 254, 397.567 252.425, 395.697 250.500 C 393.828 248.575, 391.781 247, 391.149 247 C 390.517 247, 390 246.583, 390 246.073 C 390 245.564, 389.438 245.001, 388.750 244.823 C 386.287 244.186, 369.037 231.475, 369.019 230.284 C 369.008 229.614, 374.962 224.811, 382.250 219.609 C 389.538 214.406, 396.738 208.807, 398.250 207.165 C 401.617 203.510, 401.811 199.522, 398.750 196.874 C 394.207 192.943, 361.608 170, 360.571 170.004 C 359.982 170.006, 356.125 173.508, 352 177.787 M 0.252 202.500 C 0.263 204.700, 0.468 205.482, 0.707 204.238 C 0.946 202.994, 0.937 201.194, 0.687 200.238 C 0.437 199.282, 0.241 200.300, 0.252 202.500 M 0.158 257 C 0.158 258.375, 0.385 258.938, 0.662 258.250 C 0.940 257.563, 0.940 256.438, 0.662 255.750 C 0.385 255.063, 0.158 255.625, 0.158 257 " stroke="none" fill="white" fill-rule="evenodd" transform="scale(0.075) translate(0 0)"></path>
    </g>
</svg>