<svg xmlns="http://www.w3.org/2000/svg" width="60" height="60" viewBox="0 0 60 60">
  <path fill="#FFFFFF" fill-rule="evenodd" d="M25.6230064,15 C28.4612164,16.2773 31.3482785,17.4523771 34.1261418,18.8523446 C40.1033374,21.8635405 43.2854277,26.6534155 42.9798627,33.6230732 C42.7470969,38.9182216 39.669416,41.9118936 34.6673462,44.8237871 C36.0237098,40.0241765 37.2948218,36.0949213 33.7544829,32.5141976 C32.548507,39.5889989 31.68258,40.2286224 25.6823952,38.454811 L25.6823952,45 C21.3297708,44.4236573 18.6074647,42.351939 17.3938258,38.4353399 C16.1753975,34.5070583 17.9340723,31.5202012 20.6113578,28.9178971 C21.3000764,28.2480935 22.1133198,27.7126399 22.8355643,27.0769106 C26.5780167,23.7804641 26.987991,22.0777219 25.2762524,17.2956352 C25.0109186,16.5537887 24.8662781,15.7661853 24.6651225,15 L25.6230064,15 Z"/>
</svg>
