<svg xmlns="http://www.w3.org/2000/svg" width="60" height="60" viewBox="0 0 60 60">
  <g fill="#FFFFFF" fill-rule="evenodd" transform="translate(15 16)">
    <path d="M29.8810859,11.4879032 C29.8681549,11.4793083 29.8533105,11.4709647 29.836366,11.4629059 C29.6527915,11.3952073 29.4600894,11.4127233 29.2702596,11.4126594 C26.4924511,11.411253 23.7145787,11.4104219 20.9356851,11.4124676 C20.4533234,11.3758374 19.9928553,11.5683215 19.512217,11.5423032 C19.4670931,11.5398613 19.4251019,11.5486189 19.392252,11.5719165 C19.3477404,11.5718408 19.3032287,11.5717594 19.258717,11.5716712 C19.0354297,11.5712502 18.812099,11.5697892 18.5887964,11.5685012 C16.9954297,13.1897397 15.6764563,14.5302374 15.3020298,14.9039269 C15.1250936,15.0695616 14.9902213,15.0818356 14.8265617,14.917863 C13.8297319,13.9188767 12.8511574,12.9019909 11.8621149,11.8953973 C11.7401431,11.7834037 11.6181076,11.671474 11.4961358,11.5594804 L11.4895787,11.6371708 C11.3430951,11.6159085 11.1966061,11.57621 11.050117,11.5760822 C7.38807447,11.5738447 3.72603191,11.5758265 0.0639893617,11.5770411 C0.065393617,11.5999269 0.0667340426,11.6228767 0.0681382979,11.6457626 C0.151572855,11.6851556 0.234933237,11.7245979 0.318357447,11.7639763 C0.927357447,12.1315562 1.53252766,12.5056566 2.14618723,12.8652457 C3.42954894,13.6173461 4.71520851,14.365611 6.00386809,15.108442 C8.08414468,16.3075836 10.1673574,17.5014192 12.2498681,18.6967251 C12.9683362,19.1091178 13.6857191,19.5236201 14.4090383,19.9274466 C14.6241786,20.0475678 14.8544423,20.1404479 15.0792893,20.2430424 C21.7558159,16.377877 28.7535128,12.3279128 29.5292298,11.8702868 C29.6725915,11.7857114 29.7968043,11.6685333 29.9298894,11.5665059 C29.9078832,11.5400319 29.8911492,11.5138086 29.8810859,11.4879032 Z" opacity=".8"/>
    <path d="M21.8986867,4.83422129 C19.6658426,7.01362066 16.5042517,10.0974088 15.2310511,11.3829589 C15.0394979,11.5764018 14.9457319,11.5625297 14.7633702,11.3768858 C13.6607106,10.2543927 12.5427319,9.14705023 11.434966,8.02947945 C11.3113915,7.90482192 11.2399021,7.85412785 11.0903489,8.01170776 C10.6366468,8.4896895 10.1655191,8.95117808 9.69522128,9.41305023 C9.57879574,9.5273516 9.57496596,9.59242922 9.70090213,9.71389041 C10.2366255,10.2303562 10.7593277,10.7603744 11.2833064,11.2888584 C11.3635404,11.36979 11.425583,11.4688128 11.4961149,11.5594612 C11.5227067,11.5838776 11.5493015,11.6082909 11.5758981,11.6327026 C11.5629953,11.6527286 11.5468454,11.6732558 11.5270851,11.694347 C11.4941489,11.7137169 11.4600638,11.7265662 11.4228511,11.7341096 C9.4806383,11.7257991 7.53938298,11.7314247 5.59825532,11.730274 C4.18685106,11.7294429 2.77551064,11.7256712 1.36417021,11.7327671 C0.938361702,11.7349406 0.519319149,11.6725479 0.096893617,11.6433333 C0.0614042553,11.6228767 0.0290425532,11.599032 0,11.5707763 L0,11.3789954 C0.0540638298,10.8732694 0.136468085,10.3786027 0.529531915,10.003863 C0.529531915,10.003863 13.1312056,0.784953767 13.4224609,0.540625 C13.6252482,0.370451484 14.2666596,0.0707031963 14.5023191,0.0488401826 C14.9812979,0.00453881279 15.4639149,0.0109315068 15.9394468,0.112255708 C16.0776383,0.1416621 16.1929787,0.216584475 16.3038511,0.297835616 C18.1138723,1.62419178 19.9179574,2.95853881 21.722234,4.29275799 C22.0269402,4.51807531 22.0783373,4.62450862 21.8986867,4.83422129 Z M18.5895539,11.5677305 C20.3436248,9.78297616 22.4300648,7.65816423 23.9549561,6.10843997 C25.2106916,7.04417834 26.4661829,7.9801595 27.7221128,8.91551324 C28.2159638,9.28328493 28.7169638,9.64159543 29.2031553,10.0191479 C29.6217511,10.3442804 29.8768149,10.7748283 29.9421766,11.3086822 C29.9380915,11.3946 29.9340064,11.4805817 29.9299213,11.5664995 C27.1241073,11.5685643 19.7162704,11.5678526 18.5895539,11.5677305 Z"/>
    <path d="M3.00105257,27.9994212 C3.00070206,27.9996154 3.0003512,27.9998083 3,28 L1.70754894,28 C0.907314894,27.9284018 0.132868085,27.095063 0.0557617021,26.2875379 C0.058506383,23.1827342 0.0613148936,20.0778667 0.0639957447,16.973063 C0.0655276596,15.1973005 0.0667404255,13.4215379 0.0681446809,11.6457753 C0.151570213,11.6851543 0.234931915,11.7245973 0.318357447,11.7639763 C0.927357447,12.1315562 1.53252766,12.5056566 2.14618723,12.8652457 C3.42954894,13.6173461 4.71520851,14.365611 6.00386809,15.108442 C8.08414468,16.3075836 10.1673574,17.5014192 12.2498681,18.6967251 C12.9683362,19.1091178 13.6857191,19.5236201 14.4090383,19.9274466 C14.6241786,20.0475678 14.8544423,20.1404479 15.0792893,20.2430424 C8.91027756,23.814398 3.01546443,27.2279819 2.55642128,27.5041954 C2.41484681,27.58941 2.26331489,27.8080913 2.43571915,28 C2.43571915,28 2.63518504,27.9997839 3.00105257,27.9994212 Z" opacity=".9"/>
    <path d="M29.5292298,11.8702868 C29.6725915,11.7857114 29.7968043,11.6685333 29.9298894,11.5665059 C29.8553362,11.4768164 29.8412936,11.3900037 29.9421447,11.3086886 C29.9606553,11.4226703 29.9952511,11.5366521 29.9953149,11.6506338 C29.9992723,16.3918393 30.0006128,21.1329808 29.998634,25.8741863 C29.9985702,26.007474 29.9583574,26.1406977 29.9369106,26.2739215 C29.6429745,27.3571635 28.8785489,28.0029406 27.6611872,28 C19.7832511,27.9812055 2.43571915,28 2.43571915,28 C2.26331489,27.8080913 2.41484681,27.58941 2.55642128,27.5041954 C3.51227234,26.9290447 28.0367617,12.7507525 29.5292298,11.8702868 Z" opacity=".7"/>
  </g>
</svg>
