<svg xmlns="http://www.w3.org/2000/svg" width="60" height="60" viewBox="0 0 60 60">
  <g fill="#FFFFFF" transform="translate(15 15)">
    <path d="M2.12390244,14.9414634 C2.12390244,20.0153659 5.07243902,24.3997561 9.34804878,26.4778049 L3.23365854,9.72487805 C2.50068153,11.3662432 2.12251558,13.1438725 2.12390244,14.9414634 L2.12390244,14.9414634 Z M23.595122,14.2946341 C23.595122,12.7104878 23.0260976,11.6134146 22.5380488,10.7595122 C21.8882927,9.70365854 21.2795122,8.8095122 21.2795122,7.75365854 C21.2795122,6.57536585 22.1729268,5.47853659 23.4317073,5.47853659 C23.4885366,5.47853659 23.542439,5.48560976 23.5980488,5.48878049 C21.3173171,3.3995122 18.2790244,2.12390244 14.9419512,2.12390244 C10.4639024,2.12390244 6.52414634,4.42146341 4.23219512,7.90146341 C4.53292683,7.9104878 4.81658537,7.91658537 5.05707317,7.91658537 C6.39780488,7.91658537 8.47317073,7.75390244 8.47317073,7.75390244 C9.16414634,7.71317073 9.24560976,8.72804878 8.55560976,8.8097561 C8.55560976,8.8097561 7.86097561,8.89146341 7.08829268,8.93195122 L11.7560976,22.8160976 L14.5614634,14.4031707 L12.5641463,8.93170732 C11.8739024,8.89121951 11.22,8.8095122 11.22,8.8095122 C10.5292683,8.76902439 10.6102439,7.71292683 11.3009756,7.75365854 C11.3009756,7.75365854 13.4178049,7.91634146 14.6773171,7.91634146 C16.0178049,7.91634146 18.0934146,7.75365854 18.0934146,7.75365854 C18.784878,7.71292683 18.8660976,8.72780488 18.1756098,8.8095122 C18.1756098,8.8095122 17.4797561,8.89121951 16.7085366,8.93170732 L21.3407317,22.7107317 L22.6190244,18.4382927 C23.1734146,16.6653659 23.595122,15.3919512 23.595122,14.2946341 L23.595122,14.2946341 Z"/>
    <path d="M15.1668293,16.0626829 L11.3209756,27.2378049 C12.4967516,27.5843138 13.7161789,27.7602544 14.9419512,27.7602439 C16.4346341,27.7602439 17.8660976,27.5019512 19.1985366,27.0336585 C19.1627945,26.9777099 19.13226,26.9186004 19.1073171,26.8570732 L15.1668293,16.0626829 Z M26.1892683,8.79170732 C26.2443902,9.2 26.2756098,9.63853659 26.2756098,10.1097561 C26.2756098,11.4104878 26.0326829,12.8726829 25.3009756,14.7009756 L21.3856098,26.0212195 C25.1963415,23.7990244 27.7595122,19.6704878 27.7595122,14.9414634 C27.7629306,12.7919456 27.2227751,10.6764625 26.1892683,8.79170732 L26.1892683,8.79170732 Z"/>
    <path d="M14.9419512,0 C6.70317073,0 0,6.70268293 0,14.9414634 C0,23.1812195 6.70292683,29.8839024 14.9419512,29.8839024 C23.1804878,29.8839024 29.8846341,23.1814634 29.8846341,14.9414634 C29.8843902,6.70268293 23.1804878,0 14.9419512,0 Z M14.9419512,29.1987805 C7.08097561,29.1987805 0.685121951,22.8029268 0.685121951,14.9414634 C0.685121951,7.08073171 7.08073171,0.685365854 14.9419512,0.685365854 C22.8026829,0.685365854 29.1980488,7.08073171 29.1980488,14.9414634 C29.1980488,22.8029268 22.802439,29.1987805 14.9419512,29.1987805 Z"/>
  </g>
</svg>
