<svg xmlns="http://www.w3.org/2000/svg" width="60" height="60" viewBox="0 0 60 60">
  <path fill="#FFFFFF" d="M34.0192412,22.7846765 C33.4562451,22.2171471 32.5432879,22.2171471 31.980642,22.7846765 L22.8058949,32.0315 C21.6793191,33.1659706 19.8541051,33.1659706 18.7283463,32.0315 C17.6014202,30.8965588 17.6014202,29.0567941 18.7283463,27.9212647 L27.7264786,18.8529118 C26.6004864,17.7177353 24.774572,17.7177353 23.6485798,18.8529118 L16.6888132,25.8670294 C14.4370623,28.1369118 14.4370623,31.8164412 16.6888132,34.0865588 C18.9411479,36.3565588 22.5919261,36.3565588 24.8442607,34.0865588 L34.0192412,24.8396176 C34.5818872,24.2722059 34.5818872,23.3520882 34.0192412,22.7846765 L34.0192412,22.7846765 Z M37.0774903,19.7026765 C34.8251556,17.4324412 31.1743774,17.4324412 28.9220428,19.7026765 L19.7475292,28.9490294 C19.1848833,29.5160882 19.1848833,30.4367941 19.7475292,31.0039706 C20.3105253,31.5713824 21.2230156,31.5713824 21.7861284,31.0039706 L30.9614591,21.7576176 C32.0874514,20.6224412 33.9126654,20.6224412 35.0384241,21.7576176 C35.6020039,22.3246765 36.5146109,22.3246765 37.077607,21.7576176 C37.6406031,21.1896176 37.6406031,20.2700882 37.077607,19.7026765 L37.0774903,19.7026765 Z M40.1359728,28.9490294 C39.5729767,28.3822059 38.659786,28.3822059 38.0967899,28.9490294 L28.9220428,38.1957353 C27.7960506,39.3305588 25.9702529,39.3305588 24.8442607,38.1957353 C24.2816148,37.6286765 23.3688911,37.6286765 22.8058949,38.1957353 C22.2420817,38.7633824 22.2420817,39.6835 22.8058949,40.2503235 C25.0572957,42.5203235 28.7090078,42.5203235 30.9613424,40.2503235 L40.1359728,31.0039706 C40.6986187,30.4369118 40.6986187,29.5162059 40.1359728,28.9490294 Z M43.194572,25.8671471 C40.9422374,23.5975 37.2908755,23.5975 35.0391245,25.8671471 L25.8637938,35.1140882 C25.3007977,35.6809118 25.3007977,36.6016176 25.8637938,37.1686765 C26.4271401,37.7364412 27.3400973,37.7364412 27.9027432,37.1686765 L37.0774903,27.9219706 C38.2031323,26.7869118 40.0292802,26.7869118 41.1550389,27.9219706 C42.2810311,29.0569118 42.2810311,30.8966765 41.1550389,32.0316176 L32.1569066,41.1005588 C33.2828988,42.2350294 35.1078794,42.2350294 36.2348054,41.1005588 L43.194572,34.0864412 C45.446323,31.8162059 45.446323,28.1367941 43.194572,25.8671471 L43.194572,25.8671471 Z"/>
</svg>
