<svg xmlns="http://www.w3.org/2000/svg" width="60" height="60" viewBox="0 0 60 60">
  <path fill="#FFFFFF" d="M31.748961,33.4137931 L31.7532468,38.4712644 L28.2467532,39.4827586 L28.2467532,34.5517241 L31.748961,33.4137931 Z M32.6623377,38.4712644 L32.6623377,33.4137931 L36.1566234,34.5551379 L36.1688312,39.4827586 L32.6623377,38.4712644 Z M35.4545455,40.0167011 L32.1864935,41 L28.961039,40.0167011 L32.1911688,39.1737471 L35.4545455,40.0167011 Z M40.5801299,33.4137931 L40.5844156,38.4712644 L37.0779221,39.4827586 L37.0779221,34.5517241 L40.5801299,33.4137931 Z M41.4935065,38.4712644 L41.4935065,33.4137931 L44.9877922,34.5551379 L45,39.4827586 L41.4935065,38.4712644 Z M44.2857143,40.0167011 L41.0176623,41 L37.7922078,40.0167011 L41.0223377,39.1737471 L44.2857143,40.0167011 Z M18.5064935,31.2643678 L15,32.2758621 L15,27.3448276 L18.5022338,26.2068966 L18.5064935,31.2643678 Z M19.4155844,31.2643678 L19.4155844,26.2068966 L22.9099091,27.3481402 L22.9220779,32.2758621 L19.4155844,31.2643678 Z M22.2077922,32.8098046 L18.9397273,33.7931034 L15.7142857,32.8098046 L18.9444545,31.9668506 L22.2077922,32.8098046 Z M27.3334026,26.2068966 L27.3376623,31.2643678 L23.8311688,32.2758621 L23.8311688,27.3448276 L27.3334026,26.2068966 Z M28.2467532,31.2643678 L28.2467532,26.2068966 L31.741039,27.3481402 L31.7532468,32.2758621 L28.2467532,31.2643678 Z M31.038961,32.8098046 L27.7708961,33.7931034 L24.5454545,32.8098046 L27.7756234,31.9668506 L31.038961,32.8098046 Z M22.9178182,19 L22.9220779,24.0574713 L19.4155844,25.0689655 L19.4155844,20.137931 L22.9178182,19 Z M23.8311688,24.0574713 L23.8311688,19 L27.3254935,20.1412399 L27.3376623,25.0689655 L23.8311688,24.0574713 Z M26.6233766,25.602908 L23.3553117,26.5862069 L20.1298701,25.602908 L23.360039,24.7599414 L26.6233766,25.602908 Z"/>
</svg>
