<svg xmlns="http://www.w3.org/2000/svg" width="60" height="60" viewBox="0 0 60 60">
  <path fill="#FFFFFF" fill-rule="evenodd" d="M36.8655609,32.9722803 C36.4924582,32.7865083 34.6581623,31.8882185 34.3161337,31.764228 C33.974105,31.6403088 33.7253699,31.5783848 33.4766348,31.95 C33.2278998,32.3217577 32.5129117,33.1581948 32.295179,33.4061045 C32.0775895,33.6538005 31.8599284,33.6849406 31.4868974,33.4990261 C31.1137232,33.3131116 29.9115036,32.9210451 28.4863962,31.6558432 C27.3771838,30.6712589 26.628401,29.4552969 26.4107399,29.0834679 C26.1931504,28.7117815 26.3876134,28.5108314 26.5744153,28.3256295 C26.7422434,28.1592399 26.9475179,27.8918765 27.1340334,27.6751069 C27.3206205,27.458266 27.3827685,27.3032779 27.507136,27.0556532 C27.6315036,26.8077435 27.5693556,26.5909026 27.4760621,26.4050594 C27.3827685,26.2192162 26.6365632,24.3913539 26.3256802,23.6477672 C26.0228162,22.923848 25.7152267,23.0219002 25.4861814,23.0103563 C25.2688067,22.9995962 25.0197852,22.9973159 24.7711217,22.9973159 C24.5223866,22.9973159 24.1181384,23.0902375 23.7761814,23.461924 C23.4341527,23.833753 22.4702864,24.732114 22.4702864,26.5598337 C22.4702864,28.3876247 23.8072554,30.1532779 23.9938425,30.4011164 C24.180358,30.6490261 26.6247494,34.3996675 30.3675895,36.0081948 C31.2577804,36.3907838 31.9527924,36.6193112 32.4945823,36.7903325 C33.3884248,37.0730879 34.20179,37.0331829 34.8446062,36.9375534 C35.5614558,36.8309501 37.0520764,36.0392637 37.363031,35.1719002 C37.6739141,34.3043943 37.6739141,33.5609501 37.5806205,33.4061045 C37.4873986,33.2511876 37.2386635,33.1581948 36.8655609,32.9722803 M30.0577804,42.2234679 L30.0527685,42.2234679 C27.8257518,42.2226128 25.6414081,41.6271734 23.7357995,40.5017102 L23.2826492,40.2339905 L18.5852506,41.4603563 L19.8390215,36.902209 L19.5439618,36.4348931 C18.3015752,34.4682185 17.6454415,32.1952732 17.6463723,29.8612589 C17.6490931,23.0507601 23.216778,17.5099525 30.0627208,17.5099525 C33.3777566,17.5110926 36.4939618,18.7976722 38.8372554,21.1324703 C41.1804773,23.4671971 42.4701909,26.5707363 42.4689737,29.8711639 C42.4661814,36.6822328 36.8984964,42.2234679 30.0577804,42.2234679 M40.6206444,19.3583373 C37.801432,16.5492399 34.0522196,15.0015677 30.0576372,15 C21.8271122,15 15.1284487,21.666342 15.1251551,29.8602613 C15.1240811,32.4795962 15.8116468,35.0362233 17.118401,37.2900713 L15,44.9910926 L22.9158473,42.9244418 C25.0968974,44.1084086 27.5525298,44.7324941 30.0516945,44.7333492 L30.0577804,44.7333492 L30.057852,44.7333492 C38.2875179,44.7333492 44.9868258,38.0662945 44.9901193,29.8721615 C44.9916229,25.9012589 43.4398568,22.1673634 40.6206444,19.3583373"/>
</svg>
