<svg xmlns="http://www.w3.org/2000/svg" width="60" height="60" viewBox="0 0 60 60">
  <g fill="#FFFFFF" transform="rotate(180 22.98 22.48)">
    <polygon points="5.504 0 5.504 0 10.989 17.1 .019 17.1" transform="translate(9.447 .071)"/>
    <polygon points="13.226 0 7.741 17.1 .054 17.1" transform="translate(1.726 .071)" opacity=".8"/>
    <path d="M1.7741935,17.1553606 L1.7741935,17.1553606 L0.107338707,11.9588385 C-0.0446774182,11.4848604 0.121854836,10.9656248 0.519919342,10.6727583 L14.9461286,0.0554689994 L1.7741935,17.1553606 L1.7741935,17.1553606 Z" transform="translate(.005 .016)" opacity=".6"/>
    <path d="M0,0 L7.68701595,0 L4.38346763,10.2991799 C4.21346764,10.8291171 3.47338701,10.8291171 3.30346766,10.2991799 L0,0 L0,0 Z" transform="translate(1.78 17.171)"/>
    <polygon points="0 0 5.485 17.1 13.172 17.1" transform="translate(14.951 .071)" opacity=".8"/>
    <path d="M13.2258061,17.1553606 L13.2258061,17.1553606 L14.8926609,11.9588385 C15.044677,11.4848604 14.8781448,10.9656248 14.4800803,10.6727583 L0.0538709664,0.0554689994 L13.2258061,17.1553606 L13.2258061,17.1553606 Z" transform="translate(14.898 .016)" opacity=".6"/>
    <path d="M7.7419353,0 L0.0549193534,0 L3.35846766,10.2991799 C3.52846766,10.8291171 4.26854828,10.8291171 4.43846763,10.2991799 L7.7419353,0 L7.7419353,0 Z" transform="translate(20.381 17.171)"/>
  </g>
</svg>
