<svg xmlns="http://www.w3.org/2000/svg" width="60" height="60" viewBox="0 0 60 60">
  <g fill="#FEFEFE" transform="translate(15 20)">
    <path d="M9.9908848,10.0245549 L0,19.8837209 L10.0182422,19.8837209 L10.0182656,19.8836746 L10.0182656,10.051575 L9.9908848,10.0245549 Z" opacity=".7"/>
    <path d="M19.98172,19.8837209 L10.0182656,19.8837209 L10.0182656,10.051575 L20.036625,19.8837209 L20.0204656,19.8455349 L19.9817227,19.8837674 Z" opacity=".9"/>
    <path d="M9.99084375,9.97047441 L0,0.111348837 L10.0182422,0.111348837 L10.0182656,9.94341406 L9.99084375,9.97047441 Z" opacity=".7"/>
    <path d="M20.0199139,0.149071263 L20.036625,0.111348837 L10.0182656,0.111348837 L10.0182656,9.94341406 L19.9816875,0.111348837 L20.0199139,0.149071263 Z" opacity=".9"/>
    <path d="M19.9816992,9.99748837 L19.9817227,9.99751604 L19.9817227,19.883715 L19.9816992,19.8837674 L9.96345703,9.99748837 L19.9816875,9.99751163 Z" opacity=".8"/>
    <path d="M29.9997919,9.9973757 L29.9999648,9.99748837 L19.9817227,19.8837674 L19.9817227,9.99751163 L29.9999297,9.99751163 Z"/>
    <path d="M19.9816875,9.99751163 L9.96344531,9.99751163 L19.9816875,0.111348837 L19.9816875,9.99751163 Z" opacity=".7"/>
    <polygon points="19.982 .111 19.982 9.998 30 9.998" opacity=".9"/>
  </g>
</svg>
