<svg xmlns="http://www.w3.org/2000/svg" width="60" height="60" viewBox="0 0 60 60">
  <path fill="#FEFEFE" d="M20.173175,20.2596474 C21.1459,21.0176995 21.5108,20.9598545 23.3373,20.8429655 L40.557,19.8510873 C40.92225,19.8510873 40.6185,19.5015713 40.49675,19.4434865 L37.636925,17.4602338 C37.08895,17.052151 36.3589,16.5847843 34.959675,16.7016853 L18.285825,17.8683143 C17.67775,17.9261592 17.556275,18.2178063 17.798475,18.4516084 L20.173175,20.2596474 Z M21.207025,24.1092637 L21.207025,41.4897345 C21.207025,42.4238396 21.693625,42.7732597 22.788825,42.7154627 L41.71325,41.6650441 C42.809,41.6072471 42.931,40.964765 42.931,40.2059695 L42.931,22.9421479 C42.931,22.1845754 42.62725,21.7760154 41.9565,21.83434 L22.18025,22.9421479 C21.45045,23.0009761 21.207025,23.3511876 21.207025,24.1092637 Z M39.889175,25.0415941 C40.0105,25.5670672 39.889175,26.0920367 39.34045,26.1510808 L38.428575,26.3253591 L38.428575,39.15675 C37.636925,39.5649263 36.906875,39.7982727 36.29855,39.7982727 C35.324575,39.7982727 35.08065,39.5064098 34.3511,38.6320203 L28.386775,29.649982 L28.386775,38.3403733 L30.2741,38.7489333 C30.2741,38.7489333 30.2741,39.7982727 28.751425,39.7982727 L24.5537,40.031859 C24.43175,39.7982727 24.5537,39.2155062 24.979475,39.0987131 L26.0749,38.8074978 L26.0749,27.3172373 L24.55395,27.2003243 C24.432,26.6748751 24.735775,25.9172787 25.5883,25.8584745 L30.091525,25.5672831 L36.29855,34.6662344 L36.29855,26.6170062 L34.716,26.4427518 C34.594525,25.8003897 35.08065,25.3339606 35.689225,25.2761157 L39.889175,25.0415941 Z M16.88585,16.2936073 L34.229375,15.0684153 C36.35915,14.893183 36.907125,15.0105624 38.24575,15.9433814 L43.782,19.6760895 C44.6955,20.317972 45,20.49273 45,21.1924575 L45,41.6650441 C45,42.9480896 44.51275,43.7068851 42.80925,43.8229588 L22.66835,44.9896909 C21.3896,45.0482073 20.781,44.8733774 20.111325,44.0563052 L16.0343375,38.9820159 C15.30379,38.0480067 15,37.3492146 15,36.5316388 L15,18.3342397 C15,17.2849962 15.4873625,16.4097913 16.88585,16.2936073 Z"/>
</svg>
