<svg xmlns="http://www.w3.org/2000/svg" width="60" height="60" viewBox="0 0 60 60">
  <path fill="#FEFEFE" fill-rule="evenodd" d="M13.6484531,11.2556308 L13.6484531,19.3024 C13.8764219,19.3197846 14.0539219,19.3419385 14.2315781,19.3456308 C15.3467344,19.3700923 15.3357969,19.3687077 15.3325156,18.2990154 C15.3259531,16.2510154 15.3331406,14.2031692 15.3345469,12.1553231 C15.3347031,11.8620923 15.3345469,11.5688615 15.3345469,11.2556308 L13.6484531,11.2556308 Z M5.78282812,11.2785538 C5.78282812,13.8784 5.77860937,16.4327077 5.79642187,18.9867077 C5.79720312,19.1060923 5.98751562,19.3157846 6.10392187,19.3260923 C6.55454687,19.3660923 7.01110937,19.3424 7.40142187,19.3424 C7.75954687,18.2262462 6.97689062,16.9851692 8.20345312,16.1530154 C8.81782812,16.9545538 9.40970312,17.7290154 10.0039219,18.5014769 C10.7003281,19.4068615 11.4500156,19.6048615 12.6573594,19.1711692 C11.6593906,17.9404 10.6853281,16.7136308 9.67892187,15.5133231 C9.37142187,15.1467077 9.36892187,14.9233231 9.70782812,14.5517846 C10.6507969,13.5182462 11.5323594,12.4300923 12.4703281,11.3254769 C11.1851719,11.0610154 10.1879844,11.1624 9.48267187,12.3619385 C8.99001562,13.2000923 8.27173437,13.9096308 7.65423437,14.6767077 C7.59782812,14.6554769 7.54157812,14.6342462 7.48517187,14.6131692 L7.48517187,11.2785538 L5.78282812,11.2785538 Z M18.7148594,14.3554769 C18.7722031,14.3319385 18.8295469,14.3082462 18.8867344,14.2847077 C19.0687656,14.5213231 19.2542344,14.7556308 19.4322031,14.9953231 C20.4125156,16.3159385 21.4151719,17.6211692 22.3593906,18.9662462 C22.8412656,19.6527077 23.4900156,19.2579385 24.0606406,19.2951692 C24.1325156,19.2999385 24.3207969,18.7210154 24.3242344,18.4110154 C24.3472031,16.3368615 24.3347031,14.2622462 24.3337656,12.1877846 C24.3336094,11.8891692 24.3337656,11.5905538 24.3337656,11.2730154 L22.5286094,11.2730154 L22.5286094,16.2625538 C21.4025156,14.7627077 20.4164219,13.4605538 19.4429844,12.1490154 C18.6693906,11.1065538 18.3534531,10.9954769 17.0201719,11.3616308 L17.0201719,19.2993231 L18.7148594,19.2993231 L18.7148594,14.3554769 Z M1.5625e-05,24.6153231 L1.5625e-05,2.92301538 C0.231578125,2.94178462 0.463140625,2.97701538 0.694859375,2.97701538 C8.75032813,2.97963077 16.8059531,2.98193846 24.8615781,2.97593846 C26.5743906,2.97470769 28.2872031,2.94147692 30.0000156,2.92301538 L30.0000156,24.6153231 C29.4726719,26.3525538 28.3520469,27.5056308 26.5625156,27.9999385 L3.43751563,27.9999385 C2.88876563,27.7465538 2.31892188,27.5291692 1.79579688,27.2319385 C0.776421875,26.6527077 0.408609375,25.6148615 1.5625e-05,24.6153231 Z M0,2 L0,0 L30,0 L30,2 C29.76875,2.01984615 29.5371875,2.05692308 29.3059375,2.05692308 C19.76875,2.05984615 10.2314062,2.05984615 0.69421875,2.05692308 C0.4628125,2.05692308 0.23140625,2.01984615 0,2 Z" transform="translate(15 16)"/>
</svg>
