<svg xmlns="http://www.w3.org/2000/svg" width="60" height="60" viewBox="0 0 60 60">
  <path fill="#FEFEFE" d="M30.0002125,15 L30.0002125,15.0004249 L30.0002125,15 C22.8436351,15 17,16.9230878 17,19.3109626 C17,19.9399544 18.560527,28.9582655 19.1795949,32.5346608 C19.4571447,34.1386855 23.6038155,36.4902355 29.9968122,36.4902355 L30.0034003,36.4711172 L30.0034003,36.4902355 C36.3961845,36.4902355 40.5428553,34.1386855 40.8204051,32.5346608 C41.439473,28.9582655 43,19.9399544 43,19.3109626 C43.0002125,16.9233002 37.15679,15 30.0002125,15 Z M30.0002125,33.5929645 C27.7179709,33.5929645 25.8677805,31.7433759 25.8677805,29.4623511 C25.8677805,27.1809015 27.7179709,25.3317378 30.0002125,25.3317378 C32.2824541,25.3317378 34.1326446,27.1809015 34.1326446,29.4623511 C34.1326446,31.7433759 32.2824541,33.5929645 30.0002125,33.5929645 Z M29.9978748,20.6435076 C25.3998136,20.6360727 21.6737179,19.8375653 21.6752056,18.8595584 C21.6766932,17.8815516 25.4057642,17.09494 30.0038253,17.1023749 C34.6018865,17.1095974 38.3279822,17.9081047 38.3264946,18.886324 C38.3247944,19.8645434 34.595936,20.65073 29.9978748,20.6435076 Z M39.3438231,36.1191282 C39.5797191,36.1191282 39.8037142,36.2775976 39.8037142,36.6274624 C39.8037142,36.6644244 39.8001014,36.7013864 39.7933007,36.7374988 C39.2964313,39.3957911 38.9334489,41.2817045 38.8696932,41.5689037 C38.4359419,43.5242802 34.6093247,44.9997876 30.0006376,45 L30.000425,45 L30.0002125,45 C25.3917379,44.9997876 21.5649082,43.5242802 21.1311569,41.5689037 C21.0674012,41.2819169 20.7044188,39.3957911 20.2075493,36.7374988 C20.2007487,36.7013864 20.1971359,36.6644244 20.1971359,36.6274624 C20.1971359,36.2775976 20.4209184,36.1191282 20.657027,36.1191282 C20.8544572,36.1191282 21.0129964,36.2589042 21.0129964,36.2589042 C21.0129964,36.2589042 24.2141701,38.7929276 30.000425,38.7931401 C35.7864674,38.7929276 38.9878537,36.2589042 38.9878537,36.2589042 C38.9878537,36.2589042 39.1461804,36.1191282 39.3438231,36.1191282 Z M29.9961747,31.5311628 C28.8523942,31.5311628 27.925177,30.6043536 27.925177,29.4610766 C27.925177,28.3177995 28.8523942,27.3909903 29.9961747,27.3909903 C31.1399551,27.3909903 32.0671724,28.3177995 32.0671724,29.4610766 C32.0671724,30.6043536 31.1399551,31.5311628 29.9961747,31.5311628 Z"/>
</svg>
