<svg xmlns="http://www.w3.org/2000/svg" width="60" height="60" viewBox="0 0 60 60">
  <g fill="#FFFFFF" transform="translate(17 15)">
    <path d="M10.3108571,12.585 C9.464,12.585 8.79542857,13.335 8.79542857,14.25 C8.79542857,15.165 9.47885714,15.915 10.3108571,15.915 C11.1577143,15.915 11.8262857,15.165 11.8262857,14.25 C11.8411429,13.335 11.1577143,12.585 10.3108571,12.585 Z M15.7337143,12.585 C14.8868571,12.585 14.2182857,13.335 14.2182857,14.25 C14.2182857,15.165 14.9017143,15.915 15.7337143,15.915 C16.5805714,15.915 17.2491429,15.165 17.2491429,14.25 C17.2491429,13.335 16.5805714,12.585 15.7337143,12.585 Z"/>
    <path d="M22.9542857,0 L3.04571429,0 C1.36685714,0 0,1.38 0,3.09 L0,23.37 C0,25.08 1.36685714,26.46 3.04571429,26.46 L19.8937143,26.46 L19.1062857,23.685 L21.008,25.47 L22.8057143,27.15 L26,30 L26,3.09 C26,1.38 24.6331429,0 22.9542857,0 Z M17.2194286,19.59 C17.2194286,19.59 16.6845714,18.945 16.2388571,18.375 C18.1851429,17.82 18.928,16.59 18.928,16.59 C18.3188571,16.995 17.7394286,17.28 17.2194286,17.475 C16.4765714,17.79 15.7634286,18 15.0651429,18.12 C13.6388571,18.39 12.3314286,18.315 11.2171429,18.105 C10.3702857,17.94 9.64228571,17.7 9.03314286,17.46 C8.69142857,17.325 8.32,17.16 7.94857143,16.95 C7.904,16.92 7.85942857,16.905 7.81485714,16.875 C7.78514286,16.86 7.77028571,16.845 7.75542857,16.83 C7.488,16.68 7.33942857,16.575 7.33942857,16.575 C7.33942857,16.575 8.05257143,17.775 9.93942857,18.345 C9.49371429,18.915 8.944,19.59 8.944,19.59 C5.66057143,19.485 4.41257143,17.31 4.41257143,17.31 C4.41257143,12.48 6.552,8.565 6.552,8.565 C8.69142857,6.945 10.7268571,6.99 10.7268571,6.99 L10.8754286,7.17 C8.20114286,7.95 6.968,9.135 6.968,9.135 C6.968,9.135 7.29485714,8.955 7.84457143,8.7 C9.43428571,7.995 10.6971429,7.8 11.2171429,7.755 C11.3062857,7.74 11.3805714,7.725 11.4697143,7.725 C12.376,7.605 13.4011429,7.575 14.4708571,7.695 C15.8822857,7.86 17.3977143,8.28 18.9428571,9.135 C18.9428571,9.135 17.7691429,8.01 15.2434286,7.23 L15.4514286,6.99 C15.4514286,6.99 17.4868571,6.945 19.6262857,8.565 C19.6262857,8.565 21.7657143,12.48 21.7657143,17.31 C21.7657143,17.31 20.5028571,19.485 17.2194286,19.59 L17.2194286,19.59 Z"/>
  </g>
</svg>
