<svg xmlns="http://www.w3.org/2000/svg" width="60" height="60" viewBox="0 0 60 60">
  <path fill="#FFFFFF" fill-rule="evenodd" d="M28.9741106,31.2611184 L31.0243963,31.2611184 L31.0243963,20.8782468 L28.9741106,20.8782468 L28.9741106,31.2611184 Z M31.9326898,23.3174311 C31.9326898,23.8998959 31.9444349,24.4528459 31.9275701,25.0045912 C31.9191376,25.285885 31.9865971,25.4409881 32.2729986,25.5750092 C34.4925353,26.6122422 35.7242728,29.1044326 35.2002573,31.4379058 C34.5657168,34.264396 32.079655,35.9876967 29.1876319,35.606113 C26.2585663,35.2197106 24.1513616,32.2028803 24.7952381,29.3131441 C25.1843346,27.5672556 26.1880952,26.3092642 27.7983886,25.5286288 C27.9086126,25.4753216 28.0546744,25.3464204 28.0582883,25.2482386 C28.0817786,24.6136712 28.0703346,23.977598 28.0703346,23.3358025 C25.5125971,23.8869455 22.5401647,26.604713 22.673879,30.6482353 C22.7985586,34.4083558 25.8884427,37.5266807 29.6243114,37.6914213 C33.6170681,37.8676063 36.9722727,34.8992646 37.3068596,30.966272 C37.6122341,27.3787225 35.2002573,24.1567948 31.9326898,23.3174311 L31.9326898,23.3174311 Z M29.9826898,44.9999389 C21.7538404,45.0234302 14.9064042,38.2708744 15.0009679,29.8221232 C15.0931223,21.6206334 21.8200952,14.89699 30.2001261,15.0011952 C38.3982573,15.1032921 45.0213306,21.8094677 44.9999484,30.0395687 C44.9785661,38.3172547 38.2789986,45.0035529 29.9826898,44.9999389 L29.9826898,44.9999389 Z"/>
</svg>
