<svg xmlns="http://www.w3.org/2000/svg" width="60" height="60" viewBox="0 0 60 60">
  <path fill="#FFFFFF" fill-rule="evenodd" d="M29.214223,20.8585976 C21.1636418,21.778186 16.8723402,29.9687967 19.6971369,36.3826669 C19.2082318,33.2625841 19.7790592,30.5006717 21.656438,28.0532752 C23.5384439,25.5999905 26.0866606,24.200405 29.214223,23.7562452 L29.214223,20.8585976 Z M39.422654,19.408251 C34.5225608,15.5040105 26.6358244,14.9966023 21.0207247,19.9341361 C15.7655996,24.5551236 15.331064,31.6127463 18.1192638,36.3831745 C18.0471216,36.1259171 18.0141003,36.0007402 17.9770827,35.8767816 C17.292889,33.5860339 17.2313684,31.2788396 17.8586686,28.9740819 C19.4077269,23.2820348 24.599123,19.4242915 30.695556,19.4116012 C33.3934204,19.4060175 36.0911795,19.4091647 38.7889387,19.408251 L39.422654,19.408251 L39.422654,19.408251 Z M29.1979227,43.5415071 L29.1979227,25.1681149 C25.4389586,25.5149148 21.2862625,28.7544893 20.9283911,33.6355767 C20.5425462,38.8996061 24.5502219,42.9423229 29.1979227,43.5415071 L29.1979227,43.5415071 Z M45,24.6775595 L35.1494404,24.6775595 L35.1494404,29.8158027 L44.1164163,29.8158027 L44.1164163,35.011203 L35.1347175,35.011203 L35.1347175,44.3067817 C27.9075666,46.6165141 18.8719189,43.0507487 15.9443775,35.1565828 C12.7579236,26.5642486 17.9636218,17.6674492 26.625308,15.5131475 C35.9260729,13.1998618 42.9963199,19.1408414 45,24.6775595 L45,24.6775595 Z"/>
</svg>
