<svg xmlns="http://www.w3.org/2000/svg" width="60" height="60" viewBox="0 0 60 60">
  <g fill="#FFFFFF" fill-rule="evenodd" transform="translate(15 22)">
    <path d="M3.29626667 13.2570392C3.5596 13.2713897 3.7251 13.2888742 3.89043333 13.2878845 4.8606 13.2826062 5.8316 13.2971216 6.8006 13.2595134 8.60643333 13.1894103 9.6696 12.3562557 9.90893333 10.5664 10.1034333 9.11237938 10.1569333 7.61530722 10.0522667 6.15287423 9.94343333 4.63419381 9.3021 3.23180206 7.61143333 2.91081237 6.22176667 2.64705979 4.77026667 2.70182268 3.29626667 2.61242062L3.29626667 13.2570392zM-.0000666666667 15.8622351L-.0000666666667.0972865979C.2256.0661113402.433433333.0126680412.641266667.0123381443 2.7796.00771958763 4.91776667.00903917526 7.0561.0138226804 9.95076667.020585567 11.9359333 1.42099794 12.8849333 4.06446186 13.8596 6.77934845 13.8722667 9.5584 12.7514333 12.2699876 11.9179333 14.2869773 10.3657667 15.6370804 8.21326667 15.8101113 5.51726667 16.0268536 2.78993333 15.8622351-.0000666666667 15.8622351L-.0000666666667 15.8622351zM19.63725 2.74535258L19.63725 13.2416825C19.7939167 13.2613113 19.9005833 13.2868784 20.0069167 13.2862186 21.06025 13.2812701 22.11475 13.2984247 23.1670833 13.2576825 24.9144167 13.1900536 26.0129167 12.331167 26.23575 10.6092701 26.4279167 9.12522887 26.4939167 7.59764124 26.37425 6.10832165 26.2119167 4.08918763 25.1394167 2.95797113 23.3294167 2.76910515 22.12925 2.64390928 20.90475 2.74535258 19.63725 2.74535258M16.34275 15.9229196L16.34275.0862185567C16.5579167.0576824742 16.7420833.012156701 16.92625.0118268041 19.0635833.00786804124 21.2014167-.016214433 23.3380833.0182597938 26.4934167.0690639175 28.6349167 1.69941443 29.4264167 4.72473402 30.0780833 7.21545567 30.1169167 9.71854845 29.1165833 12.1517031 28.1269167 14.5586309 26.2719167 15.8262598 23.6730833 15.9069196 21.2639167 15.9818062 18.8505833 15.9229196 16.34275 15.9229196"/>
  </g>
</svg>
