<svg xmlns="http://www.w3.org/2000/svg" width="360" height="360" viewBox="0 0 360 360">
  <path fill="#FFF" d="M108.061011,263 C86,263 86,263 86,240.837617 L86,119.162383 C86,97 86,97 108.061011,97 L112.456602,97 C134.517613,97 134.517613,97 134.517613,119.162383 L134.517613,240.837617 C134.517613,263 134.517613,263 112.456602,263 L108.061011,263 L108.061011,263 Z M166.125256,263 C158.611618,263 154.908195,259.279559 154.908195,251.731396 L154.908195,108.26728 C154.908195,100.720441 158.611618,97 166.125256,97 L215.61454,97 C258.038446,97 285,139.744672 285,180.474823 C285,221.204974 257.803768,263 215.61454,263 L166.125256,263 L166.125256,263 Z"/>
</svg>
