<svg xmlns="http://www.w3.org/2000/svg" width="360" height="360" viewBox="0 0 360 360">
  <path fill="#FFF" d="M262.870987,228.345953 C257.837012,237.121207 249.656803,241.508833 239.588853,242.762441 C230.15015,244.016048 222.599187,240.255226 216.935965,232.73358 C213.160484,227.092346 213.160484,220.824308 214.418978,214.55627 C216.306718,204.527409 221.340693,195.752155 226.374668,186.976902 C231.408643,178.201649 236.442618,169.426396 240.847347,160.651142 C242.10584,158.143927 243.364334,155.009908 241.476593,152.502693 C239.588853,149.995478 236.442618,151.875889 233.925631,152.502693 C219.452953,157.517123 209.385003,168.172788 201.83404,180.708864 C195.541571,190.737725 190.507596,200.766586 184.844374,210.795447 C181.068893,217.690289 177.922659,223.958327 174.147178,230.853169 C171.63019,235.240795 167.854709,236.494403 162.820734,234.613991 C158.416006,232.73358 156.528265,228.345953 158.416006,223.958327 C161.56224,217.690289 164.708474,211.422251 167.854709,205.781016 C176.664165,190.737725 185.473621,176.321237 194.283078,161.277946 C197.429312,156.263516 199.317053,151.249085 201.204793,146.234655 C201.83404,143.72744 201.83404,140.593421 199.9463,138.086205 C198.058559,135.57899 194.912324,137.459402 192.395337,138.086205 C185.473621,140.593421 179.810399,145.607851 174.147178,150.622281 C159.045252,166.292377 147.089562,183.842883 135.763118,202.646997 C130.099896,212.049054 124.436674,222.077915 118.773452,231.479972 C116.885712,233.987188 115.627218,237.121207 113.11023,239.001618 C109.963996,242.135637 106.188515,242.762441 101.783787,240.882029 C97.3790585,239.001618 96.1205648,235.240795 96.1205648,230.226365 C96.7498117,227.092346 98.0083054,224.585131 99.896046,221.451111 C109.334749,203.900605 121.29044,188.23051 132.616884,171.933611 C139.538599,161.277946 147.089562,151.249085 151.49429,139.339813 C152.752784,135.57899 154.011277,132.444971 150.865043,129.310952 C147.718809,126.176933 144.572574,127.430541 140.797093,128.057344 C135.133871,129.310952 130.099896,131.818167 125.065921,135.57899 C118.773452,139.966617 113.11023,144.354243 107.447009,148.74187 C101.783787,152.502693 97.3790585,150.622281 96.1205648,143.72744 C95.4913179,138.713009 97.3790585,134.325382 100.525293,131.191363 C114.997971,118.655287 131.35839,114.267661 150.235796,118.655287 C161.56224,121.789306 166.596215,129.937756 164.708474,141.847028 C164.708474,143.100636 164.079228,144.354243 163.449981,146.861459 C168.483956,142.473832 172.259437,138.713009 176.664165,135.57899 C182.327387,131.191363 189.249103,128.057344 196.170818,127.430541 C207.497262,126.176933 215.677471,134.952186 213.160484,146.234655 C212.531237,149.368674 211.90199,152.502693 210.643496,156.263516 C213.789731,154.383104 215.677471,152.502693 217.565212,151.249085 C223.228434,146.861459 229.520903,143.72744 237.071865,142.473832 C249.027556,139.966617 257.207765,149.368674 252.803037,160.651142 C249.027556,171.306807 243.993581,181.962472 238.959606,191.991333 C234.554878,200.766586 229.520903,209.541839 227.003915,219.5707 C226.374668,221.451111 225.745421,223.331523 226.374668,225.838738 C227.003915,232.106776 230.779396,234.613991 237.071865,232.73358 C242.735087,230.853169 247.769062,227.71915 252.17379,223.331523 C254.061531,221.451111 255.949272,218.317092 259.095506,220.824308 C264.758728,222.077915 264.758728,225.211934 262.870987,228.345953 Z"/>
</svg>
