<svg xmlns="http://www.w3.org/2000/svg" width="60" height="60" viewBox="0 0 60 60">
  <path fill="#FFFFFF" d="M43.7477242,32.1717327 C43.8596716,31.4634453 43.9186096,30.7388369 43.9186096,29.9992328 C43.9186096,22.3119952 37.6870844,16.0807399 29.9994768,16.0807399 C29.2618102,16.0807399 28.5350942,16.1414901 27.8274197,16.2521796 C26.5455008,15.4590093 25.032503,15 23.4110454,15 C18.7658243,15 15,18.7652573 15,23.4108695 C15,25.0319444 15.4592979,26.5436551 16.2521361,27.8281278 C16.1424207,28.537601 16.082018,29.2599077 16.082018,29.9995118 C16.082018,37.6873073 22.3134036,43.9166795 29.9991978,43.9166795 C30.7374921,43.9166795 31.4644174,43.8597654 32.1720221,43.7480994 C33.4552663,44.5397352 34.9670085,45 36.5881174,45 C41.234594,45 44.9999998,41.2337662 44.9999998,36.5882936 C45.0003485,34.9665909 44.5413296,33.455229 43.7477242,32.1717327 Z M36.6079959,36.3295298 C36.0191739,37.177173 35.1542152,37.8395664 34.0240005,38.3158732 C32.8914842,38.7934354 31.552929,39.0310656 30.0071492,39.0310656 C28.1544733,39.0310656 26.6205508,38.7068785 25.409776,38.052227 C24.5515131,37.5834531 23.853464,36.9546082 23.3168144,36.1704354 C22.7790487,35.3856348 22.5063994,34.6170854 22.5063994,33.8677166 C22.5063994,33.425656 22.674983,33.0412069 23.0031526,32.727761 C23.3347399,32.4120133 23.7618137,32.2537559 24.2658905,32.2537559 C24.6788053,32.2537559 25.0334795,32.378116 25.3222408,32.6245344 C25.6088399,32.8708831 25.8492651,33.2290373 26.0458879,33.7016474 C26.2815701,34.2491665 26.5375494,34.7068506 26.8099196,35.0720493 C27.0806159,35.4327144 27.4615856,35.7338151 27.9549908,35.9694924 C28.4429556,36.2057974 29.0923896,36.3239499 29.9050365,36.3239499 C31.0171861,36.3239499 31.9159731,36.0833903 32.6038389,35.6088273 C33.2951921,35.1299399 33.6272676,34.547268 33.6272676,33.8432352 C33.6272676,33.2816968 33.4482216,32.8357303 33.0810623,32.4880383 C32.710555,32.1358126 32.2320761,31.8675632 31.6383019,31.6804302 C31.042226,31.4913443 30.2419247,31.2908198 29.2390022,31.0795542 C27.8922864,30.7856376 26.7659777,30.4435253 25.8538686,30.0506368 C24.9405737,29.6562836 24.21323,29.117204 23.6741391,28.4362576 C23.1339322,27.7486155 22.8645611,26.8939278 22.8645611,25.8816103 C22.8645611,24.9163028 23.1489283,24.0530361 23.7182205,23.3017144 C24.2872338,22.5483002 25.1104825,21.9716267 26.1839214,21.5699499 C27.2535937,21.1684127 28.512914,20.9675394 29.9556046,20.9675394 C31.1093247,20.9675394 32.1072949,21.1010365 32.9520264,21.3666355 C33.7944562,21.6341875 34.4966903,21.9872501 35.0581706,22.4302872 C35.6160938,22.8723478 36.026637,23.3386109 36.2866617,23.8278907 C36.5464772,24.3186352 36.6773265,24.797941 36.6773265,25.2656688 C36.6773265,25.7005454 36.5087429,26.0949684 36.1802246,26.4406378 C35.851776,26.7867954 35.4316074,26.9632569 34.9409224,26.9616527 C34.4985735,26.9616527 34.1515717,26.8596119 33.9109372,26.6436034 C33.6765802,26.4346395 33.4304356,26.1019432 33.1642032,25.6382608 C32.8276638,24.9912815 32.4245837,24.4872153 31.9558696,24.1266896 C31.4995012,23.7728598 30.7465595,23.5886562 29.6988581,23.5908882 C28.729485,23.5908882 27.9538748,23.7889715 27.3684705,24.17635 C26.7794393,24.569936 26.4978621,25.0265739 26.4965369,25.5616081 C26.4975134,25.8968851 26.5939066,26.1795723 26.7878789,26.4213177 C26.9848504,26.665295 27.2588947,26.8767001 27.6111277,27.0549054 C27.9635002,27.2359005 28.3219409,27.3758841 28.6821253,27.4765997 C29.0465644,27.5798959 29.6512195,27.7292257 30.4916963,27.9269603 C31.5457448,28.1541284 32.5017959,28.4079401 33.3608957,28.6845593 C34.2183216,28.9625734 34.9500595,29.2978504 35.5545751,29.6972952 C36.1639033,30.0955543 36.6401502,30.6033172 36.9801074,31.2166083 C37.3225058,31.8308759 37.4930424,32.5811514 37.4930424,33.4640172 C37.4943676,34.5271109 37.1982129,35.4832117 36.6079959,36.3295298 Z"/>
</svg>
