<svg xmlns="http://www.w3.org/2000/svg" width="60" height="60" viewBox="0 0 60 60">
  <g fill="#FFFFFF" transform="translate(15 15)">
    <path d="M7.05882353,22.8529412 L6.79411765,23.0294118 C6.17647059,23.3823529 6.17647059,24.2647059 6.79411765,24.7058824 L13.5882353,29.2058824 C14.4705882,29.8235294 15.7058824,29.8235294 16.5882353,29.2058824 L23.2941176,24.7941176 C23.9117647,24.4411765 23.9117647,23.5588235 23.2941176,23.1176471 L22.9411765,22.9411765 L20.6470588,24.5294118 L16.0588235,27.6176471 C15.4411765,28.0588235 14.6470588,28.0588235 14.0294118,27.6176471 L9.44117647,24.5294118 L7.05882353,22.8529412 L7.05882353,22.8529412 Z"/>
    <path d="M3.79411765,15.6176471 L3.44117647,15.8823529 C2.64705882,16.4117647 2.64705882,17.6470588 3.44117647,18.1764706 L12.9705882,24.6176471 C14.2058824,25.5 15.8823529,25.5 17.2058824,24.6176471 L26.6470588,18.3529412 C27.4411765,17.8235294 27.4411765,16.5882353 26.6470588,16.0588235 L26.2058824,15.7941176 L22.9411765,17.9117647 L16.5,22.2352941 C15.6176471,22.8529412 14.4705882,22.7647059 13.5882353,22.2352941 L3.79411765,15.6176471 L3.79411765,15.6176471 Z"/>
    <path d="M28.9411765,8.91176471 L17.4705882,1.14705882 C15.9705882,0.0882352941 13.9411765,0.0882352941 12.3529412,1.14705882 L1.05882353,8.73529412 C0.0882352941,9.44117647 0.0882352941,10.8529412 1.05882353,11.5588235 L12.5294118,19.2352941 C14.0294118,20.2941176 16.0588235,20.2941176 17.5588235,19.2352941 L28.9411765,11.6470588 C29.9117647,11.0294118 29.9117647,9.52941176 28.9411765,8.91176471 L28.9411765,8.91176471 Z M24.5294118,11.2058824 L16.7647059,16.4117647 C15.7058824,17.1176471 14.3823529,17.1176471 13.3235294,16.4117647 L5.47058824,11.1176471 C4.76470588,10.6764706 4.76470588,9.70588235 5.47058824,9.17647059 L13.2352941,3.97058824 C14.2941176,3.26470588 15.6176471,3.26470588 16.6764706,3.97058824 L24.5294118,9.26470588 C25.2352941,9.79411765 25.2352941,10.7647059 24.5294118,11.2058824 L24.5294118,11.2058824 Z"/>
  </g>
</svg>
