<svg xmlns="http://www.w3.org/2000/svg" width="360" height="360" viewBox="0 0 360 360">
  <path fill="#FFF" d="M117.3,89.9166667 L117.3,20.75 L69,20.75 L69,143.628906 C77.553125,139.089844 85.2078125,134.154514 91.9640625,128.822917 C108.854688,115.565972 117.3,102.597222 117.3,89.9166667 Z M138,6.91666667 L138,89.9166667 C138,96.1128472 136.796094,102.254991 134.388281,108.343099 C131.980469,114.431207 128.997656,119.834852 125.439844,124.554036 C121.882031,129.27322 117.641406,133.866319 112.717969,138.333333 C107.794531,142.800347 103.248438,146.510851 99.0796875,149.464844 C94.9109375,152.418837 90.5625,155.21072 86.034375,157.840495 C81.50625,160.470269 78.2898437,162.253472 76.3851562,163.190104 C74.4804688,164.126736 72.953125,164.847222 71.803125,165.351562 C70.940625,165.783854 70.00625,166 69,166 C67.99375,166 67.059375,165.783854 66.196875,165.351562 C65.046875,164.847222 63.5195312,164.126736 61.6148437,163.190104 C59.7101563,162.253472 56.49375,160.470269 51.965625,157.840495 C47.4375,155.21072 43.0890625,152.418837 38.9203125,149.464844 C34.7515625,146.510851 30.2054687,142.800347 25.2820312,138.333333 C20.3585938,133.866319 16.1179687,129.27322 12.5601563,124.554036 C9.00234375,119.834852 6.01953125,114.431207 3.61171875,108.343099 C1.20390625,102.254991 0,96.1128472 0,89.9166667 L0,6.91666667 C0,5.04340278 0.6828125,3.42230903 2.0484375,2.05338542 C3.4140625,0.684461806 5.03125,0 6.9,0 L131.1,0 C132.96875,0 134.585938,0.684461806 135.951562,2.05338542 C137.317188,3.42230903 138,5.04340278 138,6.91666667 Z" transform="translate(111 97)"/>
</svg>
