<svg xmlns="http://www.w3.org/2000/svg" width="60" height="60" viewBox="0 0 60 60">
  <g fill="none" fill-rule="evenodd" transform="translate(5 5)">
    <rect width="48" height="48" x="1" y="1" stroke="#FFFFFF" stroke-opacity=".2" stroke-width="2" opacity="0" rx="4"/>
    <g fill="#FFFFFF" transform="translate(10 14)">
      <path fill-opacity=".5" d="M27.9883504,22.6869149 L1.8930726,22.6869149 C0.881214895,22.6869149 0.0291241938,21.861452 0.0291241938,20.8229665 L0.0291241938,1.97045974 C0.0291241938,0.958602039 0.854587061,0.106511338 1.8930726,0.106511338 L27.9883504,0.106511338 C29.000208,0.106511338 29.8522988,0.931974204 29.8522988,1.97045974 L29.8522988,20.8229665 C29.8522988,21.861452 29.0268359,22.6869149 27.9883504,22.6869149 L27.9883504,22.6869149 Z"/>
      <path d="M0.0432874511,1.7205706 C0.0339361406,1.79022139 0.0291241938,1.86454306 0.0291241938,1.94383191 L0.0291241938,20.8229665 C0.0291241938,21.861452 0.854587061,22.6869149 1.8930726,22.6869149 L3.75702101,22.6869149 L3.75702101,5.61444616 L14.9140836,13.7133347 L26.124402,5.57376027 L26.124402,22.6869149 L27.9883504,22.6869149 C29.0268359,22.6869149 29.8522988,21.861452 29.8522988,20.8495943 L29.8522988,2.27245692 C29.9581226,1.77408301 29.8582746,1.23756565 29.5327648,0.798835032 C28.9203245,-0.0532556688 27.7486998,-0.239650509 26.9232369,0.372789682 L14.9407114,9.1333472 L3.03806948,0.47930102 C2.18597878,-0.133139171 0.987726232,0.0532556688 0.375286041,0.878718536 C0.185141643,1.13500012 0.0771317287,1.42464883 0.0432874511,1.7205706 Z"/>
    </g>
  </g>
</svg>
