<svg xmlns="http://www.w3.org/2000/svg" width="60" height="60" viewBox="0 0 60 60">
  <path fill="#FFFFFF" d="M15,29.9993238 C15,34.5864284 18.6162006,38.3053369 23.0739897,38.3053369 L24.2311738,38.3053369 L24.2311738,35.219319 L23.0739897,35.219319 C20.2770229,35.219319 17.998159,32.8770828 17.998159,29.9993238 C17.998159,27.1188602 20.2770229,24.7793287 23.0739897,24.7793287 L25.8486017,24.7793287 L25.8486017,40.9126298 C25.8486017,42.616566 27.1898834,44 28.8467608,44 L28.8467608,21.6933108 L23.0739897,21.6933108 C18.6162006,21.6933108 15,25.4122193 15,29.9993238 L15,29.9993238 Z M36.9246954,21.6960155 L35.7714561,21.6960155 L35.7714561,24.7793287 L36.9260103,24.7793287 C39.7242921,24.7793287 42.001841,27.1215648 42.001841,29.9993238 C42.001841,32.8797875 39.7242921,35.219319 36.9260103,35.219319 L34.1540282,35.219319 L34.1540282,19.0860179 C34.1540282,17.3820816 32.8101166,16 31.1532392,16 L31.1532392,38.3053369 L36.9260103,38.3053369 C41.3864294,38.3053369 45,34.5864284 45,30.0020285 C45,25.4122193 41.3864294,21.6946631 36.9260103,21.6946631 L36.9246954,21.6960155 Z"/>
</svg>
