<svg xmlns="http://www.w3.org/2000/svg" width="60" height="60" viewBox="0 0 60 60">
  <path fill="#FFFFFF" fill-rule="evenodd" d="M19.0148929,16.9527571 C18.1880621,17.5220363 0,30 0,30 L0,27.4583097 C0,26.6643836 0.116872417,26.2545355 1.02644169,25.656325 C1.90194626,25.0785932 16.5418781,15.03759 16.5418781,15.03759 C16.5418781,15.03759 2.0931102,5.08021954 1.16159273,4.42758251 C0.515055632,3.9743719 0,3.65956404 0,2.71623999 L0,0 C0,0 18.5033684,12.7678948 19.0136467,13.1316315 C19.6175336,13.5618895 20,14.0979082 20,14.7855926 C20,15.7091939 20,14.4163582 20,15.0774478 C20,15.7381938 19.7783717,16.4271152 19.0148929,16.9527571 Z M0,9.00257014 C0,8.16081475 0.778087807,7.83274387 1.48063781,8.29495684 C2.35863492,8.87138302 10.6825405,14.6025216 10.6825405,14.6025216 C10.6825405,14.6025216 10.1199189,14.9879739 9.52205551,15.425585 C8.55875816,16.1309993 7.76246097,16.1793784 6.81882698,15.5582153 C5.71200089,14.8314977 0,10.8704576 0,10.8704576 L0,9.00257014 Z" transform="translate(20 15)"/>
</svg>
