<svg xmlns="http://www.w3.org/2000/svg" width="60" height="60" viewBox="0 0 60 60">
  <path fill="#FFFFFF" fill-rule="evenodd" d="M2.751836,5.12081267 C3.21748251,4.79139256 3.51178379,4.50304929 3.86240689,4.3459908 C9.52235208,1.80405957 15.1402542,2.13428511 20.6558252,4.76803515 C21.7656028,5.29800687 22.9523271,6.2234438 23.7027558,4.81474998 C24.6126306,3.10804774 23.0023028,2.46289979 21.7973334,1.99816776 C14.439008,-0.840966457 7.20125893,-0.729817372 0.102331174,2.81567732 L0.102331174,11.4200662 L2.40755903,11.4200662 C2.52654876,9.24138306 2.64157218,7.14002103 2.751836,5.12081267 M1.0658141e-14,16.9968507 C1.73804344,22.8990281 5.41799939,27.1122227 10.8090278,29.838597 C11.4682309,30.1720443 12.6660609,29.9473298 13.3681004,29.5421995 C14.9585966,28.6232059 16.5395735,27.5858145 17.8682923,26.318876 C22.2947105,22.1000434 25.0386139,17.1812937 23.6273956,10.7362577 C21.3102688,9.96949011 20.90967,11.2364286 21.0611836,12.9656828 C21.5831519,18.9459868 18.3172802,22.7121688 13.9035542,25.876696 C12.3836586,26.9656348 11.0604928,26.8923409 9.5873998,25.8042074 C6.87840011,23.8043294 4.55730695,21.5088591 3.25079963,18.29359 C2.7383505,17.0330949 2.16481996,15.7226633 1.0658141e-14,16.9968507" transform="translate(18 15)"/>
</svg>
