<svg xmlns="http://www.w3.org/2000/svg" width="360" height="360" viewBox="0 0 360 360">
  <path fill="#FFF" d="M279.750198,243.716645 L242.581435,113.425008 C242.000609,111.564041 240.593104,110.078811 238.77091,109.404062 C236.566916,108.584109 234.093317,109.03121 232.312393,110.571433 L180.062993,156.552902 L127.716716,110.701141 C126.141984,109.297674 123.984816,108.753112 121.936343,109.241927 C119.728678,109.85334 118.008532,111.592983 117.415381,113.814132 L80.2789105,243.749072 C79.6299153,245.894523 80.130596,248.224408 81.6029064,249.910199 C83.1116947,251.553734 85.357008,252.301202 87.5447418,251.888246 L180.062993,234.442526 L272.613537,251.920673 C274.782689,252.236876 276.963503,251.426759 278.405485,249.769112 C279.847467,248.111466 280.353786,245.832559 279.750198,243.716645 Z M220.880819,134.697112 L200.988587,174.776869 L188.071554,163.427423 L220.880819,134.697112 Z M172.086725,163.557131 L159.169692,174.906577 L139.27746,134.761966 L172.086725,163.557131 Z M124.196824,127.887445 L150.999668,182.072941 L94.6814027,231.524097 L124.196824,127.887445 Z M102.916011,238.139203 L155.811263,191.833464 L172.345066,225.200835 L102.916011,238.139203 Z M163.916702,184.504965 L180.062993,170.399226 L196.209285,184.504965 L180.062993,216.931953 L163.916702,184.504965 Z M187.716336,225.0387 L204.250138,191.67133 L257.339145,238.333765 L187.716336,225.0387 Z M209.126318,182.072941 L235.864578,128.082007 L265.283121,231.297108 L209.126318,182.072941 Z"/>
</svg>
