<svg xmlns="http://www.w3.org/2000/svg" width="60" height="60" viewBox="0 0 60 60">
  <path fill="#FFFFFF" fill-rule="evenodd" d="M48,31.6185854 C47.8304167,32.6137738 47.7366667,33.6296688 47.4791667,34.601615 C45.745,41.1521097 41.70375,45.5284031 35.3520833,47.6802075 C34.4275,47.9933432 33.4608333,48.0977217 32.4941667,47.8978389 C30.7166667,47.5310349 29.4508333,46.112416 29.2204167,44.0831614 C29.0858333,42.897387 29.1291667,41.6900608 29.1108333,40.4920315 C29.0954167,39.5310725 29.1075,38.569691 29.1075,37.5588669 L30.7583333,37.5588669 C30.77,37.7080395 30.79125,37.8534089 30.7916667,37.9992008 C30.7941667,39.6384092 30.7841667,41.2776176 30.7991667,42.916826 C30.8033333,43.335608 30.8408333,43.7636869 30.93625,44.1697914 C31.3404167,45.8901361 32.57625,46.6114892 34.4075,46.1656618 C36.63375,45.62433 38.5991667,44.5294115 40.3483333,43.0579695 C47.3283333,37.1853015 48.37375,26.9815569 42.6570833,19.8343717 C39.5308333,15.9254576 35.4033333,13.8471831 30.42,13.7347754 C22.2720833,13.5509508 15.3725,19.2769817 13.9195833,27.3403318 C12.4658333,35.4049497 17.2179167,43.4737934 24.91125,46.0059245 C25.00625,46.0371958 25.1029167,46.0638187 25.1954167,46.1014288 C25.6633333,46.2915922 25.8841667,46.7074161 25.7516667,47.1422564 C25.6091667,47.6125938 25.1845833,47.866145 24.6841667,47.7085207 C24.0495833,47.5086378 23.41125,47.2981904 22.8116667,47.0112549 C16.5666667,44.0252672 12.95125,39.0848225 12.0916667,32.1092069 C12.07125,31.9443986 12.0308333,31.7821259 12,31.6185854 L12,28.8802326 C12.03125,28.7175373 12.0741667,28.5561097 12.0920833,28.391724 C12.5708333,23.9368298 14.3725,20.1268007 17.58875,17.0524926 C21.6575,13.1638627 26.52625,11.42915 32.0608333,12.1657162 C39.7095833,13.1837242 44.7570833,17.5752307 47.2141667,24.9746993 C47.6291667,26.224284 47.7458333,27.5757118 48,28.8802326 L48,31.6185854 Z M29.9999583,28.0181586 C31.4162083,28.0181586 32.832875,28.0312588 34.249125,28.0105521 C34.7220417,28.0037907 34.9657917,28.168599 34.875375,28.6549947 C34.645375,29.8948599 34.3870417,31.1296542 34.152875,32.3686743 C33.984125,33.261597 33.8262083,34.1570553 33.685375,35.0546264 C33.6395417,35.3483232 33.7499583,35.5507416 34.0270417,35.7603439 C34.211625,35.9002196 34.2095417,36.343089 34.2107917,36.6511537 C34.2112083,36.7339804 33.9220417,36.8916047 33.7649583,36.8924499 C31.265375,36.907663 28.7657917,36.9068178 26.2662083,36.8937177 C26.1157917,36.8928725 25.840375,36.7631388 25.8382917,36.6879186 C25.830375,36.3730926 25.8037083,35.867258 25.9687083,35.7759796 C26.4237083,35.5249639 26.4387083,35.1818246 26.3595417,34.7960042 C26.0674583,33.3765402 25.737875,31.9646827 25.4474583,30.5447961 C25.319125,29.9193699 25.2374583,29.2829564 25.1570417,28.6490785 C25.1024583,28.2146608 25.2757917,28.0029455 25.7507917,28.0101295 C27.1670417,28.0321039 28.5837083,28.0181586 29.9999583,28.0181586 Z M30.0507917,25.5197921 C31.5670417,25.5197921 33.0832917,25.5176791 34.5995417,25.5206372 C35.289125,25.521905 35.6945417,25.8849057 35.6920417,26.485822 C35.6895417,27.090119 35.2882917,27.4510069 34.5932917,27.4514295 C31.544125,27.4548101 28.4949583,27.4543876 25.4457917,27.4514295 C24.765375,27.4510069 24.3495417,27.0736382 24.352875,26.4799059 C24.3557917,25.876454 24.7557917,25.521905 25.451625,25.5206372 C26.9849583,25.5176791 28.517875,25.5197921 30.0507917,25.5197921 Z M31.59275,22.236093 C31.5919167,21.4429004 31.5873333,20.6492852 31.5931667,19.8560926 C31.5981667,19.2099596 31.9444167,18.8592138 32.5760833,18.8423104 C33.2565,18.8237167 33.6706667,19.1457267 33.6798333,19.7948177 C33.7035833,21.448394 33.6994167,23.1028154 33.6760833,24.7563917 C33.674,24.9110579 33.45775,25.0623435 33.3410833,25.2157419 C33.23025,25.0581176 33.02525,24.9026062 33.0231667,24.7432916 C32.9985833,23.2076166 33.0169167,21.671519 32.9969167,20.135844 C32.9944167,19.9389193 32.8856667,19.6194448 32.7519167,19.5721152 C32.3585833,19.4339298 32.2394167,19.7056522 32.2406667,20.0728788 C32.2465,21.5075559 32.24275,22.942233 32.2423333,24.3769101 C32.2423333,24.5290408 32.2798333,24.6968072 32.229,24.8286538 C32.1723333,24.9744457 32.0335833,25.0881212 31.93025,25.2157419 C31.8181667,25.0834727 31.6131667,24.9541616 31.6085833,24.8176666 C31.5785833,23.9581281 31.5931667,23.0968992 31.59275,22.236093 Z M26.35575,22.2426853 C26.3561667,21.4655509 26.3449167,20.6884166 26.3595,19.9117048 C26.3736667,19.1776741 26.7461667,18.8273509 27.45575,18.8421414 C28.117,18.8556641 28.4728333,19.2258488 28.4761667,19.9429761 C28.4836667,21.5137257 28.4786667,23.0844752 28.47825,24.6552248 C28.47825,24.705935 28.4978333,24.7722809 28.4736667,24.8043974 C28.36575,24.9472312 28.2453333,25.079923 28.1295,25.2164181 C28.0224167,25.0769649 27.8315833,24.9425828 27.8228333,24.7967909 C27.78825,24.1912261 27.8078333,23.5818581 27.8078333,22.9737579 C27.8078333,22.0111086 27.8095,21.0484592 27.8065833,20.0858099 C27.8053333,19.8060585 27.8015833,19.5360265 27.3999167,19.5368716 C27.0011667,19.5377168 27.04825,19.818736 27.0474167,20.0642581 C27.0428333,21.4997803 27.0449167,22.9353026 27.0445,24.3712475 C27.0445,24.5060522 27.08575,24.6640991 27.0315833,24.7710132 C26.9461667,24.9375118 26.7953333,25.0689358 26.6724167,25.2155729 C26.5674167,25.0689358 26.382,24.9277923 26.372,24.775239 C26.3353333,24.2034811 26.35575,23.6274973 26.3553333,23.0532039 C26.3553333,22.7831719 26.3553333,22.5127173 26.35575,22.2426853 Z"/>
</svg>
