<svg xmlns="http://www.w3.org/2000/svg" width="360" height="360" viewBox="0 0 360 360">
  <g fill="#FFF" transform="translate(66 139)">
    <polygon points="31.878 80.136 10.282 53.348 10.08 53.348 10.08 80.123 0 80.123 0 .113 10.067 .113 10.067 45.335 10.282 45.335 29.056 26.687 41.492 26.687 18.522 48.812 44.201 80.123"/>
    <path d="M54.3185996 5.19119996C55.6010778 6.38958686 56.3192301 8.07289928 56.2967996 9.82799993 56.2967996 11.6297999 55.6415996 13.1921999 54.3185996 14.5151999 53.0957418 15.7926032 51.3997082 16.5084023 49.6313996 16.4933999 47.7413996 16.4933999 46.1537997 15.8633999 44.8811997 14.5655999 43.6120015 13.3203342 42.9142687 11.6056443 42.9533997 9.82799993 42.9533997 8.08919994 43.5959997 6.56459995 44.8811997 5.24159996 46.1154658 3.94282091 47.8401055 3.22460226 49.6313996 3.26339998 51.4331996 3.26339998 52.9955996 3.90599997 54.3185996 5.19119996L54.3185996 5.19119996zM44.6543997 80.1233994L44.6543997 26.6615998 54.7091996 26.6615998 54.7091996 80.1359994 44.6543997 80.1233994zM97.4483993 80.1359994L97.4483993 47.6909996C97.4483993 46.1159997 97.3475993 44.5409997 97.1585993 43.0037997 96.9928589 41.5342768 96.5930024 40.100749 95.9741993 38.7575997 95.3909273 37.5027163 94.4760119 36.4309582 93.3281993 35.6579997 91.9291677 34.8010602 90.3050138 34.3840477 88.6661993 34.4609997 85.7429994 34.4609997 82.9457994 35.2547997 80.2871994 36.8423997 77.6159994 38.4299997 75.2471994 40.1183997 73.1429994 41.9327997L73.1429994 80.1233994 63.0755995 80.1233994 63.0755995 26.6615998 71.5427995 26.6615998 72.8027994 32.7725998C75.6031014 30.6823336 78.5990564 28.8678819 81.7487994 27.3545998 84.8831465 25.9440619 88.2915293 25.2468927 91.7279993 25.3133998 93.6809993 25.3133998 95.5961993 25.6535998 97.4735993 26.3213998 99.3635992 27.0017998 101.039399 28.1231998 102.551399 29.6603998 104.147119 31.3703523 105.373773 33.3904716 106.154999 35.5949997 107.115875 38.3902514 107.572372 41.3340157 107.503199 44.2889997L107.503199 80.1359994 97.4483993 80.1359994zM150.229799 80.0855994C146.71366 80.9200097 143.108072 81.3178093 139.494599 81.2699994 135.651599 81.2699994 132.035399 80.7029994 128.645999 79.5689994 125.367304 78.5076904 122.346125 76.7739456 119.775599 74.4785994 117.255599 72.2105995 115.239599 69.4007995 113.727599 66.0113995 112.215599 62.6093995 111.459599 58.6151996 111.459599 54.0161996 111.459599 49.8833996 112.177799 46.0529997 113.601599 42.5501997 116.352986 35.6981926 121.76218 30.2526343 128.595599 27.4553998 132.124554 26.0076296 135.907161 25.2793813 139.721399 25.3133998 142.417417 25.2917714 145.108048 25.5578777 147.747599 26.1071998L147.747599.100799999 157.814999.100799999 157.814999 77.3135994C155.405867 78.5360392 152.859464 79.4666186 150.229799 80.0855994L150.229799 80.0855994zM147.747599 34.8137997C146.718596 34.4422179 145.66085 34.1556573 144.584999 33.9569997 143.526599 33.7679997 142.064999 33.6797997 140.174999 33.6797997 137.604599 33.6797997 135.197999 34.1333997 132.942599 35.0405997 128.34033 36.8630393 124.724161 40.5478699 122.988599 45.1835997 121.977482 47.8028414 121.477077 50.5914177 121.514399 53.3987996 121.514399 59.0687996 123.152399 63.7307995 126.377999 67.3973995 129.616199 71.0639995 134.441999 72.9035994 140.855399 72.9035994 142.127999 72.9035994 143.400599 72.7775994 144.635399 72.5633995 145.705786 72.3884855 146.750882 72.083842 147.747599 71.6561995L147.747599 34.8137997zM178.945199 80.8163994C177.659999 81.1187994 176.299199 81.2699994 174.875399 81.2699994 171.145799 81.2699994 168.474599 80.2619994 166.874399 78.2711994 165.223804 76.1195981 164.376992 73.4588259 164.480399 70.7489995L164.480399.113399999 174.535199.113399999 174.535199 66.3641995C174.535199 68.6951995 174.862799 70.2701995 175.505399 71.0513995 176.135399 71.8451995 177.218999 72.2357995 178.718399 72.2357995 179.790888 72.2684483 180.860921 72.1149773 181.880999 71.7821995L183.128399 79.1279994C181.616399 79.9595994 180.230399 80.5139994 178.945199 80.8289994L178.945199 80.8163994zM192.968999 55.6037996C192.968999 58.0229996 193.346999 60.2657995 194.102999 62.3321995 194.846399 64.4111995 195.942599 66.2381995 197.378999 67.8131995 198.843135 69.4182848 200.634945 70.6901689 202.633198 71.5427995 204.906674 72.4903864 207.352661 72.9538365 209.815198 72.9035994 212.154079 72.9041149 214.478965 72.5428437 216.707398 71.8325995 218.832511 71.1753244 220.877894 70.2836387 222.805798 69.1739995L225.628198 75.8015994C223.127461 77.5960811 220.341428 78.9550175 217.387798 79.8209994 214.310866 80.7745813 211.1087 81.2629752 207.887398 81.2699994 203.515198 81.2699994 199.722598 80.4887994 196.522199 78.9263994 193.441875 77.4635431 190.735679 75.317547 188.609399 72.6515995 186.495278 69.9536015 184.920966 66.8734268 183.972599 63.5795995 182.948867 60.0722994 182.439559 56.4349921 182.460599 52.7813996 182.460599 48.9383996 182.977199 45.3599997 184.035599 42.0461997 185.005459 38.8848068 186.556595 35.9320949 188.609399 33.3395997 190.549384 30.8978204 193.000879 28.9108186 195.791399 27.5183998 198.67109 26.1029817 201.84391 25.3863993 205.052398 25.4267998 208.529998 25.4267998 211.629598 26.0819998 214.376398 27.4049998 217.112561 28.7089996 219.513434 30.6228009 221.394598 32.9993998 223.40128 35.5833045 224.878483 38.5377116 225.741598 41.6933997 226.762232 45.3769908 227.258514 49.1860653 227.215798 53.0081996L227.215798 55.6037996 192.968999 55.6037996zM215.850598 42.5501997C215.359198 40.8491997 214.653598 39.3245997 213.708598 37.9763997 211.749626 35.0765574 208.450189 33.3722439 204.951598 33.4529997 201.507362 33.3892424 198.23618 34.9594095 196.131599 37.6865997 195.051221 39.0516909 194.227296 40.6013529 193.699799 42.2603997 193.132294 44.0144016 192.847335 45.8474933 192.855424 47.6909996L216.593998 47.6909996C216.593998 45.9521997 216.341998 44.2385997 215.863198 42.5501997L215.850598 42.5501997z"/>
  </g>
</svg>
