<svg xmlns="http://www.w3.org/2000/svg" width="360" height="360" viewBox="0 0 360 360">
  <path fill="#FFF" d="M100.799999,201.599999 C45.1296969,201.599999 0,156.470302 0,100.799999 C0,45.1296969 45.1296969,0 100.799999,0 C156.470302,0 201.599999,45.1296969 201.599999,100.799999 C201.599999,156.470302 156.470302,201.599999 100.799999,201.599999 Z M48.4615381,120.184614 C48.4615381,120.184614 48.4615381,131.779363 48.4615381,154.968859 L73.6630333,129.442809 L120.462943,129.442809 C141.304461,129.442809 158.006005,113.24294 158.006005,92.4004582 L158.006005,88.2016297 C158.006005,67.3587622 141.047208,50.3999997 120.205884,50.3999997 C99.6192605,50.3999997 84.1044779,50.3999997 73.6615382,50.3999997 L50.3999997,75.6020524 C65.5220335,75.6020524 88.7906623,75.6020524 120.205884,75.6020524 C127.154021,75.6020524 132.805667,81.2522041 132.805667,88.2016297 L132.805667,92.4004582 C132.805667,99.3502701 127.410502,104.57113 120.462943,104.57113 C95.5610719,104.57113 76.7298343,104.57113 63.9692304,104.57113 L48.4615381,120.184614 Z" transform="translate(79 79)"/>
</svg>
