<svg xmlns="http://www.w3.org/2000/svg" width="360" height="360" viewBox="0 0 360 360">
  <path fill="#FFF" d="M252.943925,158.17757 L242.67757,158.17757 C237.149533,158.17757 232.411215,153.439252 232.411215,147.911215 C232.411215,118.691589 208.719626,95 179.5,95 L147.911215,95 C118.691589,95 95,118.691589 95,147.911215 L95,211.088785 C95,240.308411 118.691589,264 147.911215,264 L211.088785,264 C240.308411,264 264,240.308411 264,211.088785 L264,169.233645 C264,162.915888 259.261682,158.17757 252.943925,158.17757 Z M147.121495,137.64486 L185.028037,137.64486 C190.556075,137.64486 195.294393,142.383178 195.294393,147.911215 C195.294393,153.439252 190.556075,158.17757 185.028037,158.17757 L147.121495,158.17757 C141.593458,158.17757 136.85514,153.439252 136.85514,147.911215 C136.85514,142.383178 141.593458,137.64486 147.121495,137.64486 L147.121495,137.64486 Z M211.878505,221.35514 L147.911215,221.35514 C142.383178,221.35514 137.64486,216.616822 137.64486,211.088785 C137.64486,205.560748 142.383178,200.82243 147.911215,200.82243 L211.878505,200.82243 C217.406542,200.82243 222.14486,205.560748 222.14486,211.088785 C222.14486,216.616822 217.406542,221.35514 211.878505,221.35514 Z"/>
</svg>
