<svg xmlns="http://www.w3.org/2000/svg" width="60" height="60" viewBox="0 0 60 60">
  <g fill="#FFFFFF" transform="translate(15 15)">
    <path d="M19.7443359,18.0477866 C19.7805469,19.0632806 20.3173828,19.0556917 20.9558203,19.0319763 C21.8157422,19.016087 22.2877734,18.7494071 22.7192578,18.9596443 C22.7124609,18.935336 22.5776953,18.527668 21.9821484,18.5985771 C22.0512891,18.447747 22.0807031,18.2435573 22.0597266,17.9631225 C21.9813281,16.9483399 21.3978516,16.142253 20.7577734,16.1651383 C20.1193359,16.1871937 19.7089453,17.0299209 19.7443359,18.0477866 L19.7443359,18.0477866 Z M20.6976563,16.8097233 C20.78429,16.8079464 20.8680468,16.8412033 20.9303655,16.9021242 C20.9926841,16.963045 21.0284181,17.0465986 21.0296484,17.1342688 C21.0329182,17.3165388 20.8898493,17.4671373 20.7097266,17.4710277 C20.5288739,17.4738668 20.3799317,17.3279344 20.3769141,17.1449407 C20.3754415,17.0574291 20.4084239,16.9729174 20.4685904,16.9100356 C20.5287569,16.8471537 20.6111678,16.8110644 20.6976563,16.8097233 Z M10.9785938,19.2149407 C11.0449219,19.2164822 11.1141797,19.2149407 11.1848438,19.2133992 C11.2467188,19.2133992 11.3084766,19.2118577 11.3731641,19.2096047 C12.0139453,19.2034387 12.5448047,19.2643874 12.5364844,18.2480632 C12.5259375,17.2318577 12.0801563,16.4089328 11.4394922,16.4158103 C10.8002344,16.4218577 10.18125,17.255336 10.2181641,18.2709486 C10.2294141,18.536087 10.2678516,18.7265217 10.3294922,18.8644269 C9.77238281,19.0069565 9.61816406,19.3550988 9.60902344,19.3771542 C9.95988281,19.1860079 10.3566797,19.2133992 10.9785938,19.2149407 L10.9785938,19.2149407 Z M11.5290234,17.0550593 C11.7097266,17.0488933 11.8594922,17.1936759 11.8655859,17.3765217 C11.8698491,17.5590392 11.7274322,17.7106735 11.5470703,17.7156522 C11.4603467,17.7182665 11.3761681,17.685807 11.3131587,17.6254552 C11.2501492,17.5651034 11.2135031,17.4818344 11.2113281,17.3940711 C11.2087134,17.3063874 11.240784,17.2212724 11.3004262,17.1576061 C11.3600683,17.0939399 11.4423513,17.0569857 11.5290234,17.0549407 L11.5290234,17.0550593 Z M13.0326563,6.22505929 L14.8291406,6.22505929 L14.8291406,5.47541502 L15.2334375,5.47541502 L15.2334375,8.93881423 L14.6228906,8.93881423 L14.6228906,10.8763636 L17.7678516,10.8763636 L17.7678516,8.93881423 L17.1564844,8.93881423 L17.1564844,5.47541502 L17.5616016,5.47541502 L17.5616016,6.22505929 L19.3596094,6.22505929 L19.3596094,3.65833992 L13.0326562,3.65833992 L13.0326562,6.22505929 L13.0326563,6.22505929 Z"/>
    <path d="M29.8835156,11.1741107 C29.8720707,10.9546719 29.8514664,10.7358206 29.8217578,10.5181423 C29.8066406,10.4084585 29.7908203,10.2987747 29.7683203,10.1913439 C29.7472266,10.0801186 29.7261328,9.97719368 29.6907422,9.85612648 L29.668125,9.77075099 L29.6087109,9.72272727 C29.2660547,9.4515415 28.8978516,9.24581028 28.5236719,9.06462451 C28.2142969,8.91675889 27.9002344,8.78798419 27.5832422,8.66988142 C26.6970703,6.183083 25.1760937,3.97826087 23.1740625,2.44316206 C21.1057031,0.85541502 18.6728906,0.0150592885 16.14,0.0150592885 C13.6057031,0.0150592885 11.1735938,0.85541502 9.10453125,2.44316206 C7.52871094,3.65146245 6.25242187,5.27573123 5.34808594,7.12482213 L5.34375,7.12482213 C5.09730659,7.6268606 4.87937428,8.14271875 4.69101562,8.66988142 C4.37320312,8.78798419 4.05925781,8.91675889 3.74976562,9.06450593 C3.37476562,9.24592885 3.00738281,9.4515415 2.66472656,9.72272727 L2.60449219,9.77075099 L2.58199219,9.85612648 C2.55054794,9.96652514 2.52438473,10.0783943 2.50359375,10.1913439 C2.4825,10.2987747 2.46527344,10.4084585 2.45085937,10.5181423 C2.4290625,10.6743083 2.41476562,10.8328458 2.40199219,10.9912648 L2.40726562,10.9912648 C2.40181804,11.0524019 2.39752039,11.1136382 2.394375,11.1749407 C2.37229742,11.6140717 2.38491566,12.0542854 2.43210937,12.4913834 C2.47815576,12.9296744 2.55872442,13.363544 2.67304687,13.7888538 C2.73300483,14.0029376 2.80312525,14.2139729 2.88316406,14.4212253 C2.92300781,14.5255731 2.96671875,14.6292095 3.01558594,14.7335573 C3.03972656,14.7853755 3.06609375,14.8364822 3.09246094,14.8890119 L3.13535156,14.9659684 C3.151875,14.9949012 3.16324219,15.0155336 3.18808594,15.0527668 L3.23097656,15.1214229 L3.30023437,15.1572332 C3.37324219,15.1952964 3.43429687,15.2235178 3.500625,15.2555336 L3.69328125,15.3438735 C3.72867187,15.3583399 3.76335937,15.3735178 3.80015625,15.3888142 C2.92148437,16.2100791 1.96675781,17.2775099 1.14082031,18.5970356 L0.0978515625,20.2601976 L1.56234375,18.9596443 C1.58800781,18.9375889 2.81519531,17.8625692 4.86328125,16.6428854 L4.891875,16.8812253 L4.96640625,17.4824111 L5.34140625,20.5656522 C5.34960937,20.6243478 5.37972656,20.676996 5.42800781,20.7104348 L6.19675781,21.2567194 C6.21023437,21.3001186 6.22300781,21.3436364 6.23589844,21.3885771 C6.25394531,21.4502372 6.27046875,21.5111858 6.28933594,21.5728458 L6.46476562,22.1084585 C6.84949219,23.3191304 7.39464844,24.4108696 8.05792969,25.3700395 C8.02628906,25.38 7.99394531,25.3890119 7.96230469,25.3982609 C7.56257812,25.2109091 6.16582031,24.5556522 5.69671875,24.341502 L4.715625,23.8958893 L5.29617187,24.8123715 C5.33835937,24.8786561 6.33972656,26.4588142 7.15675781,27.5238735 C7.92246094,28.5181423 8.96976562,29.5329249 10.9454297,29.5329249 C11.193731,29.5318437 11.4418056,29.5175949 11.6886328,29.4902372 C12.2782031,29.4208696 12.7209375,29.3676285 13.0575,29.3233992 C15.1311328,30.0959289 17.4185156,30.141581 19.5892969,29.3103557 C20.1580081,29.0919589 20.7046614,28.8187664 21.2217188,28.4945455 C21.2322656,28.493004 21.2419922,28.4898024 21.2510156,28.487668 C22.0582031,28.2910672 22.9744922,28.0693281 23.4270703,27.9413834 C23.4992578,27.921581 23.5904297,27.8994071 23.6845312,27.8766403 C24.3147656,27.7311462 25.3680469,27.4827273 25.9290234,26.3460474 C26.4944531,25.1986957 27.4176563,23.4417391 27.4266797,23.4243083 L27.8588672,22.6067194 L27.0193359,22.9763241 C26.9733984,22.9961265 25.90875,23.4660474 25.3552734,23.7595257 C25.3365234,23.7709091 25.3123828,23.7808696 25.2905859,23.7915415 C25.7408203,22.8627273 25.9652344,22.1229249 26.0457422,21.8388142 L26.3492578,20.5718182 L27.2233594,18.5932411 C27.2233594,18.5932411 27.46875,16.4303953 27.4741406,16.4318182 L27.5599219,15.6043874 C27.6366797,15.5716601 28.1035547,15.5389328 28.1946094,15.5024111 C28.3249219,15.4504743 28.4551172,15.3994862 28.5854297,15.342332 L28.7773828,15.2539921 C28.8452344,15.2219763 28.9054688,15.1937549 28.9784766,15.1555731 L29.0476172,15.1198814 L29.0914453,15.0513439 C29.1154688,15.0139921 29.1289453,14.9926482 29.1433594,14.9644269 L29.1855469,14.8874704 C29.2148438,14.8349407 29.2396875,14.783834 29.2630078,14.7321344 C29.3108126,14.6293822 29.3555207,14.5251839 29.3970703,14.4196838 C29.4759397,14.2121656 29.5455413,14.0011617 29.6056641,13.7873123 C29.7200391,13.358419 29.8028906,12.9264427 29.8466016,12.4898419 C29.8947656,12.0540711 29.9053125,11.6137945 29.8835156,11.1741107 L29.8835156,11.1741107 Z M9.93503906,16.5125692 C9.95378906,16.4995257 10.7391797,15.978498 12.0214453,15.3438735 C13.4189396,15.2366876 14.8199421,15.1830524 16.2214453,15.183083 C16.5888281,15.183083 16.9494141,15.188419 17.3055469,15.194585 C17.0571094,15.3972332 16.7950781,15.5883794 16.5225,15.7537945 L15.6167578,16.3083794 C15.0452344,16.3784585 14.5498828,16.5224111 14.5226953,16.5301186 C14.5060745,16.5347722 14.4901498,16.5416723 14.4753516,16.5506324 C14.4308203,16.5766008 14.3969531,16.61917 14.3819531,16.6695652 L13.4558203,19.7558893 L8.51285156,20.8674308 L6.95496094,19.7634783 L6.50167969,16.05083 C7.385625,15.8855336 8.56921875,15.6958103 9.98917969,15.5350198 C9.8336185,15.7213567 9.68692843,15.9150945 9.54960938,16.1155731 L8.70398438,17.3437945 L9.93503906,16.5125692 L9.93503906,16.5125692 Z M16.6061719,29.4292885 C15.7906641,29.4841897 14.9625,29.3874308 14.1515625,29.1626087 C14.2192969,29.1489723 14.2682812,29.1412648 14.3285156,29.1345059 C14.3947266,29.1252569 15.8501953,28.9317391 16.5044531,27.9475494 L16.5662109,27.9489723 L16.7288672,27.9474308 C16.8365625,27.9474308 16.9344141,27.9383004 17.0390625,27.9337945 C17.2875,27.9131621 17.5277344,27.8766403 17.7664453,27.8279051 C17.7919922,27.8530435 17.8161328,27.8781818 17.8425,27.9055731 C18.3341016,28.398498 18.9447656,28.6810672 19.6155469,28.7306324 C18.4870312,29.1946245 17.4246094,29.3745059 16.6061719,29.4292885 L16.6061719,29.4292885 Z M16.68,27.6237154 C16.8025781,27.3470751 16.8952734,27.131502 16.9652344,26.96917 C17.1395216,27.1659002 17.3172846,27.3594492 17.4984375,27.5497233 C17.3378906,27.5741502 17.1798047,27.5947826 17.0239453,27.6077075 C16.9216406,27.6122134 16.8146484,27.6237154 16.7167969,27.6237154 L16.6798828,27.6237154 L16.68,27.6237154 Z M14.2546875,21.2529249 L14.6966016,21.1523715 C14.7691672,21.1359583 14.8273263,21.0811899 14.8487109,21.0091304 L15.7719141,17.9364427 C15.9315234,17.9150988 16.0715625,17.9037154 16.1927344,17.9037154 C16.3101563,17.9037154 16.4525391,17.9152174 16.6114453,17.9364427 L17.5616016,21.1005534 C17.5857422,21.1813043 17.6541797,21.24 17.7355078,21.2491304 L18.0878906,21.2894466 L18.1782422,21.2994071 L24.2485547,21.9980632 C24.2989453,22.0041107 24.3486328,21.9896443 24.39,21.9607115 L24.9999609,21.5294466 L25.5638672,21.1301976 L25.7724609,20.9817391 C25.7384766,21.1287747 25.7009766,21.2749802 25.6617188,21.4190514 C25.6040742,21.6043354 25.5435982,21.7887053 25.4803125,21.9720949 C25.2310547,22.6898419 24.9517969,23.3411858 24.6475781,23.9293281 C24.5588291,23.9352319 24.469917,23.9382769 24.3809766,23.9384585 C24.0857813,23.9384585 23.7861328,23.9141502 23.4540234,23.8828458 C22.8774609,23.8287747 21.9641016,23.7228854 21.6764062,23.6901581 C21.425625,23.4882213 20.5741406,22.8048617 19.8670313,22.2403162 C19.8400781,22.2189723 19.8159375,22.196087 19.7910937,22.1762846 C19.666875,22.0695652 19.5253125,21.9492095 19.2384375,21.9492095 C18.9764063,21.9492095 18.5954297,22.0452569 17.6745703,22.3262846 C18.1542187,21.9637945 18.1579687,21.4967194 18.1579687,21.4967194 C18.1579687,21.4967194 17.4758203,22.1397628 16.3749609,22.2814625 C15.2771484,22.4247036 14.4135937,21.7412253 14.4135937,21.7412253 C14.4496875,21.8601581 14.5008984,22.1289723 14.7501562,22.3568775 C14.4571875,22.3224901 14.1410156,22.2981818 13.8089062,22.2981818 C13.6899609,22.2981818 13.5679687,22.3012648 13.45125,22.3073123 C12.7750781,22.3439526 11.8235156,23.376996 11.1555469,24.42 C10.8273047,24.5251779 9.80109375,24.8550593 8.61445312,25.2078261 C7.9134375,24.2264822 7.43835937,23.2306719 7.16953125,22.59 C7.01285156,22.2167194 6.92554687,21.9629644 6.90597656,21.9028458 L6.90597656,21.9013043 C6.88417969,21.8403557 6.86074219,21.7756126 6.84046875,21.710751 L7.12511719,21.9119763 L7.12511719,21.9133992 L7.8290625,22.4132016 L8.06402344,22.5786166 C8.09941406,22.6037549 8.14230469,22.6165613 8.18296875,22.6165613 C8.19796875,22.6165613 8.21308594,22.6151383 8.22890625,22.6120553 L14.2546875,21.2529249 L14.2546875,21.2529249 Z M17.9997656,16.6695652 C17.9788815,16.601701 17.9256941,16.5489966 17.8582031,16.5292885 C17.8273828,16.5194466 17.2167187,16.3434783 16.5684375,16.2878656 L16.6873828,16.2786166 C16.7898047,16.2710277 18.4921875,16.0607905 20.5259766,15.350751 C22.7779687,15.5251779 24.6166406,15.8049012 25.8740625,16.0363636 L25.4291016,19.1951383 L23.8584375,20.3066798 L18.9213281,19.7390514 L17.9997656,16.6695652 Z M28.8384375,12.4144269 C28.7833594,12.8212648 28.60125,13.6135968 28.60125,13.6135968 L28.4588672,13.6373123 C28.3843359,13.6166798 27.6901172,13.4345455 26.4944531,13.2106719 C26.5328906,13.202253 26.5698047,13.193834 26.6058984,13.1855336 C26.8539854,13.1239932 27.0975419,13.0450676 27.3348047,12.9493281 C27.4522266,12.8983399 27.5696484,12.8441502 27.6803906,12.7801186 C27.7903125,12.7153755 27.8980078,12.6437549 27.9822656,12.546996 C26.7850781,12.9431621 24.3110156,12.7633992 22.1116406,12.5333597 C20.1019922,12.323004 18.0848437,12.1874704 16.0579687,12.1828458 C14.0317969,12.1874704 12.0169922,12.323834 10.0051172,12.5333597 C7.80574219,12.7633992 5.33238281,12.9431621 4.13519531,12.546996 C4.21957031,12.6430435 4.32785156,12.7153755 4.43859375,12.7801186 C4.54851562,12.8441502 4.66523437,12.8975099 4.78265625,12.9493281 C5.0202415,13.0448347 5.26401568,13.1237548 5.51226562,13.1855336 C5.59957031,13.2060474 5.68851562,13.2258498 5.77734375,13.2418577 C4.68632812,13.4513834 4.0546875,13.6175099 3.98378906,13.6373123 C3.98378906,13.6373123 3.73230469,13.6784585 3.67734375,13.4833992 C3.56824219,13.0932806 3.49511719,12.8205534 3.44015625,12.4144269 C3.38761917,12.0093223 3.36248257,11.6010604 3.36492187,11.1924901 C3.365625,11.1253755 3.36410156,10.9912648 3.36410156,10.9912648 C3.36785156,10.8541897 3.37394531,10.716996 3.38671875,10.5798024 C3.39421875,10.4785375 3.76242187,10.1541107 4.07871094,9.96960474 C4.42054687,9.76849802 4.77972656,9.58719368 5.14558594,9.41881423 C5.50769531,9.24509881 6.6815625,8.99288538 7.389375,8.86339921 C8.0971875,8.73237154 10.6284375,8.39264822 10.8182812,8.32090909 C11.0073047,8.24786561 12.10125,7.3944664 12.2925,7.32367589 C11.8905469,7.39067194 6.33527344,8.24928854 6.0853125,8.32932806 C7.88859375,3.55778656 11.428125,1.23403162 16.1392969,1.23403162 C20.8489453,1.23403162 24.3892969,3.42818182 26.1939844,8.20055336 C23.8117969,7.55988142 20.5123828,7.26118577 20.1103125,7.19335968 C20.3015625,7.26426877 21.3835547,8.03442688 21.5845312,8.06039526 C23.2319531,8.27679842 25.8296484,8.85960474 26.0178516,8.93501976 C26.3913281,9.08810277 26.7655078,9.24581028 27.1284375,9.41881423 C27.4952344,9.58719368 27.8535937,9.76849802 28.1954297,9.96960474 C28.5116016,10.1548221 28.8791016,10.4785375 28.8880078,10.5799209 C28.9054687,10.7841107 28.9129687,10.9874704 28.9151953,11.1917787 C28.9182422,11.6000395 28.8903516,12.0099605 28.8384375,12.4144269 L28.8384375,12.4144269 Z"/>
  </g>
</svg>
