<svg xmlns="http://www.w3.org/2000/svg" width="60" height="60" viewBox="0 0 60 60">
  <g fill="#FFFFFF" transform="translate(15 18)">
    <path d="M22.4623418 15.8728L23.0418987 15.8728C23.9092405 15.8728 24.6187975 15.14 24.6187975 14.2446L24.6187975 1.699C24.6187975.8034 23.9092405.0708 23.0418987.0708L4.81689873.0708C3.94974684.0708 3.24018987.8034 3.24018987 1.699L3.24018987 2.3272 20.8856329 2.3272C21.7527848 2.3272 22.4623418 3.06 22.4623418 3.9556L22.4623418 15.8728zM29.2296835 15.55L26.9479747 13.8434C26.4744304 13.4892 26.1955063 12.933 26.1955063 12.3422L26.1955063 3.6012C26.1955063 3.0104 26.4744304 2.4542 26.9479747 2.1L29.2296835.3934C29.5177215.178 29.9286076.3832 29.9286076.7424L29.9286076 15.201C29.9286076 15.5602 29.5177215 15.7654 29.2296835 15.55"/>
    <path d="M19.8856329,3.3272 C20.7527848,3.3272 21.4623418,4.06 21.4623418,4.9556 L21.4623418,17.501 C21.4623418,18.3966 20.7527848,19.1294 19.8856329,19.1294 L14.5636709,19.1294 L14.5636709,23.972 L6.98031646,19.1294 L1.66063291,19.1294 C0.793481013,19.1294 0.0839240506,18.3966 0.0839240506,17.501 L0.0839240506,4.9556 C0.0839240506,4.06 0.793481013,3.3272 1.66063291,3.3272 L19.8856329,3.3272 Z M14.565,15.0698 L14.565,7.354 L13.1284177,7.354 L13.1284177,8.64 L13.0963291,8.64 C12.5056329,7.7168 11.611519,7.1232 10.5098734,7.1232 C8.33867089,7.1232 6.98126582,9.052 6.98126582,11.1622 C6.98126582,13.3716 8.27449367,15.3334 10.5575316,15.3334 C11.6276582,15.3334 12.5213924,14.74 13.0963291,13.8662 L13.1284177,13.8662 L13.1284177,15.0698 L14.565,15.0698 Z M13.2081646,11.2118 C13.2081646,12.7286 12.3459494,14.0146 10.7812025,14.0146 C9.2643038,14.0146 8.41841772,12.6626 8.41841772,11.2118 C8.41841772,9.7774 9.29639241,8.442 10.7812025,8.442 C12.3298101,8.442 13.2081646,9.7116 13.2081646,11.2118 Z"/>
  </g>
</svg>
