<svg xmlns="http://www.w3.org/2000/svg" width="360" height="360" viewBox="0 0 360 360">
  <g fill="#FFF" fill-rule="evenodd" transform="translate(81.5 102.5)">
    <path d="M14.2569895 125.793457C6.39265288 125.810554.0093846499 132.222829.0264135212 140.08546.0418043496 147.949796 6.45407968 154.334771 14.3184163 154.317742 22.1827529 154.300645 28.5660211 147.890076 28.5489923 140.025739 28.5318951 132.161403 22.1213261 125.776428 14.2569895 125.793457M86.4990007 73.7612382L16.4536801 96.2809854 16.339358 42.3328989 86.3846786 19.8541029 86.4990007 73.7612382zM99.7330633 29.7967129L99.6733428 1.4926088 2.99097324 32.5762756 3.16501584 114.615179 99.7330633 83.4206195 99.7330633 29.7967129z"/>
    <path d="M171.3806,74.6894654 L99.8780988,97.666501 L99.7637767,43.7900791 L165.632075,22.5654136 L150.594453,54.4766358 L171.3806,74.6894654 Z M189.407659,0.99948811 L86.5894346,33.9254248 L86.5894346,115.990456 L196.224327,80.699054 L166.437449,51.7346118 L189.407659,0.99948811 Z"/>
  </g>
</svg>
