<svg xmlns="http://www.w3.org/2000/svg" width="360" height="360" viewBox="0 0 360 360">
  <path fill="#FFF" d="M156.6,2.7 L162,5.4 L162,75.6 C162,105.58019 146.39562,122.556737 129.625834,130.139379 L129.65076,130.14 L88.4975598,153.838235 C88.1802018,154.024859 87.8616558,154.208281 87.541992,154.388506 L87.075324,154.657231 L87.0850764,154.643515 C78.207606,159.547833 68.4972828,162 59.4,162 C32.4,162 0,140.4 0,97.2 L0,32.4 L10.8,37.8 L10.8,97.2 C10.8,140.4 43.2,151.2 59.4,151.2 C69.4370124,151.2 85.692654,147.054258 96.608322,133.625608 C76.5813204,128.912234 54,111.664996 54,75.6 L54,11.88 L10.8,37.8 L0,32.4 L54,0 L59.4,2.7 L64.8,5.4 L64.8,75.6 C64.8,113.075773 89.1825282,122.105264 102.694727,123.840187 C105.979244,116.756586 108,107.988671 108,97.2 L108,27 L118.8,32.4 L118.8,97.2 C118.8,107.204283 117.062404,116.050158 114.056667,123.737652 C127.700404,121.765772 151.2,112.390978 151.2,75.6 L151.2,12.15 L118.8,32.4 L108,27 L151.2,0 L156.6,2.7 Z" transform="translate(99 99)"/>
</svg>
