<svg xmlns="http://www.w3.org/2000/svg" width="60" height="60" viewBox="0 0 60 60">
  <path fill="#FFFFFF" d="M29.4398437,22.8694261 C30.1177734,24.0922957 30.1833984,25.3782261 29.6200781,26.3947478 C29.0575781,27.4121217 27.9569531,27.9947652 26.6003906,27.9947652 L24.0438281,27.9947652 C24.0741797,27.4995304 24.0943359,27.0001565 24.0943359,26.4971304 C24.0943359,25.9337217 24.0691406,25.3773739 24.0321094,24.8227304 L25.71375,24.8210261 C26.1271875,24.8210261 26.4614062,24.472 26.4614062,24.0415304 C26.4613685,23.9118262 26.4304505,23.7841452 26.3714062,23.6698609 L15.6534375,4.3169913 C15.5216379,4.07320193 15.2733715,3.92236697 15.0042188,3.92255652 C14.7421453,3.92263746 14.4992828,4.06539394 14.3642578,4.29873043 L12.6624609,7.3717913 C17.8344141,11.4220522 21.3113672,17.6968522 21.7871484,24.8210261 C21.8241797,25.3746957 21.849375,25.9311652 21.849375,26.4953043 C21.849375,26.9983304 21.8292187,27.4969739 21.7996875,27.9929391 L13.4505469,27.9929391 C13.4960156,27.4995304 13.5221484,27.0010087 13.5221484,26.4953043 C13.5221484,25.9293391 13.4901563,25.371287 13.4312109,24.8210261 C13.0187109,20.9002957 11.1711328,17.4256174 8.45039063,14.9735478 L7.27816406,17.088887 C9.33363281,19.0762783 10.7366016,21.7829043 11.1180469,24.8210261 C11.1871875,25.3694609 11.2258594,25.9276348 11.2258594,26.4953043 C11.2258594,27.0010087 11.1938672,27.5013565 11.1391406,27.9929391 L3.39960937,27.9929391 C2.04304687,27.9929391 0.942421875,27.4094435 0.379921875,26.3920696 C-0.183398437,25.3755478 -0.117773437,24.0905913 0.56015625,22.8667478 L2.14921875,20.0377739 C3.05698103,20.5450194 3.87732636,21.2053932 4.57675781,21.9919304 L3.62953125,23.6680348 C3.57067157,23.782448 3.5396904,23.9100993 3.53929688,24.0398261 C3.53892349,24.2461473 3.61755028,24.4441529 3.75784409,24.5901926 C3.8981379,24.7362324 4.08857991,24.8183159 4.2871875,24.8183478 L8.04105469,24.8201739 C7.72617188,22.9507478 6.89589844,21.2641739 5.70691406,19.9283304 C5.00625,19.1437217 4.1878125,18.4796348 3.27667969,17.9714957 L7.46847656,10.4054087 C8.35849283,10.9223213 9.20396547,11.5179633 9.99550781,12.1857217 C13.6080469,15.2307826 16.0475391,19.7280696 16.4895703,24.8193217 L18.7362891,24.8193217 C18.2780859,18.8672522 15.3991406,13.6185913 11.1264844,10.143913 C10.3241788,9.49109603 9.47515903,8.90273226 8.58679688,8.38393043 L12.1647656,1.92627826 C12.8417578,0.702434783 13.8773437,0 15.0042187,0 C16.1300391,0 17.1649219,0.702434783 17.8428516,1.92627826 L29.4398437,22.8694261 L29.4398437,22.8694261 Z" transform="translate(15 16)"/>
</svg>
