<svg xmlns="http://www.w3.org/2000/svg" width="60" height="60" viewBox="0 0 60 60" xmlns:xlink="http://www.w3.org/1999/xlink">
  <defs>
    <path id="a" d="M29.2776306,29.253709 L29.5376836,29.1817773 C31.4618572,28.6089126 33.3494822,27.9207093 35.1902239,27.1209351 C37.0570998,26.3915913 38.8087653,25.3983304 40.3912834,24.1717368 C42.0725735,22.8411268 43.3380257,21.0607615 44.0392487,19.0394126 C44.1897156,18.7071091 44.3000465,18.3581983 44.3679268,18 C41.839634,21.4383336 31.816759,21.7943953 31.816759,21.7943953 L34.1825187,19.6364454 C27.2974391,19.6590837 20.5912523,21.8217454 15,25.8225686 C18.7818724,26.2272789 22.3388626,27.8107131 25.1637371,30.3470703 C26.5217915,29.9298666 27.9051288,29.6277536 29.2740188,29.2680953 L29.2776306,29.253709 Z M45,28.9156302 C45,28.9156302 35.7500602,28.1963135 26.1461594,31.2929717 C27.4278154,32.6253325 28.4972513,34.1450824 29.3173609,35.7994905 C34.3739465,32.9977521 41.3664821,29.4191518 45,28.9156302 L45,28.9156302 Z M29.9494341,37.2345272 C30.5480841,38.7634238 30.9333256,40.3668555 31.0943896,42 L39.8964604,32.9725761 L29.9494341,37.2345272 Z M34.5545389,41.6511314 L34.5545389,41.5540237 C34.5520996,41.5149789 34.5382941,41.4774866 34.5148086,41.4461262 C34.4963944,41.4157539 34.4637385,41.3967851 34.4281242,41.395774 L34.4859138,41.3741945 C34.5286678,41.3448002 34.5542932,41.2964519 34.5545389,41.2447175 C34.5615262,41.166651 34.5158992,41.0933701 34.4425716,41.0648884 C34.3821799,41.0445254 34.3184052,41.0359766 34.2547556,41.0397123 L34.0272092,41.0397123 L34.0272092,41.7122733 L34.1572357,41.7122733 L34.1572357,41.4641091 L34.2511438,41.4641091 C34.2929319,41.4602868 34.3350327,41.466452 34.3739465,41.482092 C34.4183957,41.5141265 34.4407847,41.5684691 34.4317361,41.6223588 L34.4317361,41.7230631 L34.5617626,41.7230631 L34.5545389,41.6511314 Z M34.1933542,41.1260303 L34.2800385,41.1260303 C34.3268436,41.122684 34.3737961,41.1300662 34.4172887,41.1476098 C34.4459532,41.1665058 34.461356,41.19997 34.457019,41.2339278 C34.4595567,41.2751857 34.4345905,41.3132079 34.3956176,41.3274389 C34.3597321,41.3332152 34.3231478,41.3332152 34.2872622,41.3274389 L34.1933542,41.3274389 L34.1933542,41.1260303 Z"/>
  </defs>
  <g fill="none" fill-rule="evenodd">
    <use fill="#FFFFFF" fill-rule="nonzero" xlink:href="#a"/>
  </g>
</svg>
