<svg xmlns="http://www.w3.org/2000/svg" width="60" height="60" viewBox="0 0 60 60">
  <path fill="#FFFFFF" d="M27.1644837,31.3043828 L32.7249003,40.6353444 L31.9961188,41.8594614 C31.5741398,42.5680936 30.8169414,43 30.0006457,43 C29.1835957,43 28.4263973,42.5680936 28.0044182,41.8594614 L15.3349872,20.5824023 C14.9006857,19.8533851 14.8878604,18.9424321 15.3012892,18.2016935 C15.7147181,17.4589165 16.4900229,17 17.3314662,17 L38.806881,17 L36.0016507,21.7239602 L21.4599706,21.7239602 L24.3514576,26.5809322 L33.117708,26.5809322 L30.3122262,31.3043828 L27.1644837,31.3043828 Z M38.5320163,21.7239602 L38.5320163,21.7239602 L41.3377495,17 L42.6690708,17 C43.5102627,17 44.2855675,17.4589165 44.6984934,18.2016935 C45.1121737,18.9424321 45.0993483,19.8533851 44.6650469,20.5824023 L43.9848005,21.7259987 L38.5398121,21.7249794 L38.5398121,21.7239602 L38.5320163,21.7239602 Z M37.2032097,23.9706378 L42.6479467,23.9706378 L33.9913405,38.5071543 L31.2768935,33.9414324 L37.2032097,23.9706378 Z"/>
</svg>
