<svg xmlns="http://www.w3.org/2000/svg" width="60" height="60" viewBox="0 0 60 60">
  <g fill="#FFFFFF" fill-rule="evenodd" transform="translate(15 11)">
    <path d="M19.7352927,8.28299335 C19.7854046,8.35905441 19.833601,8.4365105 19.8798125,8.51529153 C20.4946092,8.25712502 21.1690937,8.11458333 21.8765823,8.11458333 C24.7481134,8.11458333 27.0759494,10.4627565 27.0759494,13.359375 C27.0759494,13.5113114 27.0695447,13.6617389 27.056993,13.8103976 C29.3215449,14.3772286 31,16.4414105 31,18.9010417 C31,20.1356764 30.5770912,21.2706725 29.8694298,22.1666667 C30.5770912,23.0626609 31,24.197657 31,25.4322917 C31,27.8872664 29.3278939,29.9482878 27.0698479,30.5197004 C27.0739,30.6046333 27.0759494,30.6900961 27.0759494,30.7760417 C27.0759494,33.6726601 24.7481134,36.0208333 21.8765823,36.0208333 C21.1322375,36.0208333 20.424425,35.8630535 19.7842197,35.5788404 C18.8603284,37.0348695 17.2428466,38 15.4018987,38 C13.5886549,38 11.9922018,37.063699 11.0617576,35.6442396 C10.4627528,35.8871534 9.80856139,36.0208333 9.12341772,36.0208333 C6.25188657,36.0208333 3.92405063,33.6726601 3.92405063,30.7760417 C3.92405063,30.6900961 3.92609999,30.6046333 3.93015209,30.5197004 C1.67210612,29.9482878 0,27.8872664 0,25.4322917 C0,24.1517451 0.454946747,22.9783853 1.210691,22.0677083 C0.454946747,21.1570314 0,19.9836716 0,18.703125 C0,16.3216131 1.573531,14.3108298 3.72904555,13.6709855 C3.72824859,13.6331846 3.7278481,13.5952853 3.7278481,13.5572917 C3.7278481,12.8852318 3.85315808,12.2426954 4.08149476,11.6521604 L17.3692117,18.8153788 L19.7352927,8.28299335 Z M11.8706102,20.6631044 C11.7645463,19.8627151 11.3960799,18.7603353 10.170917,18.7603353 C8.24749988,18.7603353 7.22931604,20.6144511 7.22931604,21.6782532 C7.22931604,22.7420553 8.0492855,24.357666 10.0301838,24.357666 C11.2341804,24.357666 11.6676654,23.2936022 11.8224915,22.4589576 C11.5845277,22.9887313 11.0803438,23.3541667 10.4968354,23.3541667 C9.68413795,23.3541667 9.02531646,22.6452842 9.02531646,21.7708333 C9.02531646,20.8963825 9.68413795,20.1875 10.4968354,20.1875 C10.7892688,20.1875 11.0617786,20.2792847 11.2908393,20.4375409 C11.1127065,20.5413693 10.9873418,20.7890717 10.9873418,21.078125 C10.9873418,21.4606972 11.2069489,21.7708333 11.4778481,21.7708333 C11.7487473,21.7708333 11.9683544,21.4606972 11.9683544,21.078125 C11.9683544,20.9224529 11.931993,20.7787745 11.8706102,20.6631044 Z M21.2971684,20.4375409 C21.1190356,20.5413693 20.9936709,20.7890717 20.9936709,21.078125 C20.9936709,21.4606972 21.213278,21.7708333 21.4841772,21.7708333 C21.6802555,21.7708333 21.8494622,21.6083548 21.9279726,21.3735329 C21.958463,21.5004907 21.9746835,21.6336238 21.9746835,21.7708333 C21.9746835,22.6452842 21.3158621,23.3541667 20.5031646,23.3541667 C19.7940187,23.3541667 19.2020341,22.814423 19.0626892,22.0959055 C19.1486638,22.9365962 19.5010867,24.3994141 20.9127676,24.3994141 C22.8936659,24.3994141 23.7136354,22.7838033 23.7136354,21.7200012 C23.7136354,20.6561991 22.6954515,18.8020833 20.7720344,18.8020833 C18.8486173,18.8020833 19.0366767,21.5190887 19.0366767,21.5190887 C19.0366767,21.5190887 19.0349843,21.5655987 19.0360943,21.6467984 C19.0948939,20.8303207 19.7292612,20.1875 20.5031646,20.1875 C20.7955979,20.1875 21.0681077,20.2792847 21.2971684,20.4375409 Z M9.90707822,28.2433268 C9.90707822,28.2433268 10.3756459,30.7201843 15.6381465,30.7201843 C20.9006471,30.7201843 21.5128203,28.2433268 21.5128203,28.2433268 L9.90707822,28.2433268 Z"/>
    <polygon points="4.224 9.651 16.369 16.815 19.172 2.889 14.729 4.792 12.698 .107 6.381 2.864 8.526 7.61"/>
  </g>
</svg>
