<svg xmlns="http://www.w3.org/2000/svg" width="60" height="60" viewBox="0 0 60 60">
  <g fill="#FFFFFF" transform="translate(14.958 20)">
    <path d="M4.43593105,3.13510019 C4.30683109,3.13510019 4.20217487,3.03139541 4.20217487,2.90346908 C4.20217487,2.77554275 4.30683109,2.67183796 4.43593105,2.67183796 C4.565031,2.67183796 4.66968722,2.77554275 4.66968722,2.90346908 C4.66968722,3.03139541 4.565031,3.13510019 4.43593105,3.13510019 Z M4.43593105,1.75070028 C4.30683109,1.75070028 4.20217487,1.6469955 4.20217487,1.51906917 C4.20217487,1.39114284 4.30683109,1.28743805 4.43593105,1.28743805 C4.565031,1.28743805 4.66968722,1.39114284 4.66968722,1.51906917 C4.66968722,1.6469955 4.565031,1.75070028 4.43593105,1.75070028 Z M3.70204539,9.3675932 C3.57294542,9.3675932 3.46828922,9.2638884 3.46828922,9.13596208 C3.46828922,9.00803576 3.57294542,8.90433096 3.70204539,8.90433096 C3.83114536,8.90433096 3.93580156,9.00803576 3.93580156,9.13596208 C3.93580156,9.2638884 3.83114536,9.3675932 3.70204539,9.3675932 Z M3.70204539,7.98319328 C3.57294542,7.98319328 3.46828922,7.87948848 3.46828922,7.75156216 C3.46828922,7.62363584 3.57294542,7.51993104 3.70204539,7.51993104 C3.83114536,7.51993104 3.93580156,7.62363584 3.93580156,7.75156216 C3.93580156,7.87948848 3.83114536,7.98319328 3.70204539,7.98319328 Z M3.70204539,10.7519931 C3.57294542,10.7519931 3.46828922,10.6482883 3.46828922,10.520362 C3.46828922,10.3924356 3.57294542,10.2887309 3.70204539,10.2887309 C3.83114536,10.2887309 3.93580156,10.3924356 3.93580156,10.520362 C3.93580156,10.6482883 3.83114536,10.7519931 3.70204539,10.7519931 Z M4.43593105,12.8258996 C4.30683109,12.8258996 4.20217487,12.7221948 4.20217487,12.5942685 C4.20217487,12.4663422 4.30683109,12.3626374 4.43593105,12.3626374 C4.565031,12.3626374 4.66968722,12.4663422 4.66968722,12.5942685 C4.66968722,12.7221948 4.565031,12.8258996 4.43593105,12.8258996 Z M4.43593105,11.4414997 C4.30683109,11.4414997 4.20217487,11.3377949 4.20217487,11.2098686 C4.20217487,11.0819422 4.30683109,10.9782374 4.43593105,10.9782374 C4.565031,10.9782374 4.66968722,11.0819422 4.66968722,11.2098686 C4.66968722,11.3377949 4.565031,11.4414997 4.43593105,11.4414997 Z M3.70204539,6.59879336 C3.57294542,6.59879336 3.46828922,6.4950886 3.46828922,6.36716224 C3.46828922,6.23923592 3.57294542,6.13553112 3.70204539,6.13553112 C3.83114536,6.13553112 3.93580156,6.23923592 3.93580156,6.36716224 C3.93580156,6.4950886 3.83114536,6.59879336 3.70204539,6.59879336 Z M4.43593105,4.51950012 C4.30683109,4.51950012 4.20217487,4.41579532 4.20217487,4.287869 C4.20217487,4.15994268 4.30683109,4.05623788 4.43593105,4.05623788 C4.565031,4.05623788 4.66968722,4.15994268 4.66968722,4.287869 C4.66968722,4.41579532 4.565031,4.51950012 4.43593105,4.51950012 Z M4.43593105,8.67269984 C4.30683109,8.67269984 4.20217487,8.56899508 4.20217487,8.44106872 C4.20217487,8.3131424 4.30683109,8.20943764 4.43593105,8.20943764 C4.565031,8.20943764 4.66968722,8.3131424 4.66968722,8.44106872 C4.66968722,8.56899508 4.565031,8.67269984 4.43593105,8.67269984 Z M4.43593105,5.90390004 C4.30683109,5.90390004 4.20217487,5.80019524 4.20217487,5.67226892 C4.20217487,5.54434256 4.30683109,5.4406378 4.43593105,5.4406378 C4.565031,5.4406378 4.66968722,5.54434256 4.66968722,5.67226892 C4.66968722,5.80019524 4.565031,5.90390004 4.43593105,5.90390004 Z M4.43593105,7.28829992 C4.30683109,7.28829992 4.20217487,7.18459516 4.20217487,7.05666884 C4.20217487,6.92874248 4.30683109,6.82503772 4.43593105,6.82503772 C4.565031,6.82503772 4.66968722,6.92874248 4.66968722,7.05666884 C4.66968722,7.18459516 4.565031,7.28829992 4.43593105,7.28829992 Z M4.43593105,10.0570998 C4.30683109,10.0570998 4.20217487,9.953395 4.20217487,9.82546864 C4.20217487,9.69754232 4.30683109,9.59383752 4.43593105,9.59383752 C4.565031,9.59383752 4.66968722,9.69754232 4.66968722,9.82546864 C4.66968722,9.953395 4.565031,10.0570998 4.43593105,10.0570998 Z M2.24514647,3.82999354 C2.1160465,3.82999354 2.0113903,3.72628875 2.0113903,3.59836242 C2.0113903,3.47043609 2.1160465,3.36673131 2.24514647,3.36673131 C2.37424644,3.36673131 2.47890264,3.47043609 2.47890264,3.59836242 C2.47890264,3.72628875 2.37424644,3.82999354 2.24514647,3.82999354 Z M2.97359593,1.75070028 C2.84449596,1.75070028 2.73983976,1.6469955 2.73983976,1.51906917 C2.73983976,1.39114284 2.84449596,1.28743805 2.97359593,1.28743805 C3.1026959,1.28743805 3.2073521,1.39114284 3.2073521,1.51906917 C3.2073521,1.6469955 3.1026959,1.75070028 2.97359593,1.75070028 Z M2.24514647,5.21439344 C2.1160465,5.21439344 2.0113903,5.11068868 2.0113903,4.98276232 C2.0113903,4.854836 2.1160465,4.75113124 2.24514647,4.75113124 C2.37424644,4.75113124 2.47890264,4.854836 2.47890264,4.98276232 C2.47890264,5.11068868 2.37424644,5.21439344 2.24514647,5.21439344 Z M3.70204539,5.21439344 C3.57294542,5.21439344 3.46828922,5.11068868 3.46828922,4.98276232 C3.46828922,4.854836 3.57294542,4.75113124 3.70204539,4.75113124 C3.83114536,4.75113124 3.93580156,4.854836 3.93580156,4.98276232 C3.93580156,5.11068868 3.83114536,5.21439344 3.70204539,5.21439344 Z M2.97359593,3.13510019 C2.84449596,3.13510019 2.73983976,3.03139541 2.73983976,2.90346908 C2.73983976,2.77554275 2.84449596,2.67183796 2.97359593,2.67183796 C3.1026959,2.67183796 3.2073521,2.77554275 3.2073521,2.90346908 C3.2073521,3.03139541 3.1026959,3.13510019 2.97359593,3.13510019 Z M2.24514647,1.06119371 C2.1160465,1.06119371 2.0113903,0.957488928 2.0113903,0.829562596 C2.0113903,0.701636264 2.1160465,0.59793148 2.24514647,0.59793148 C2.37424644,0.59793148 2.47890264,0.701636264 2.47890264,0.829562596 C2.47890264,0.957488928 2.37424644,1.06119371 2.24514647,1.06119371 Z M2.24514647,2.44559362 C2.1160465,2.44559362 2.0113903,2.34188884 2.0113903,2.21396251 C2.0113903,2.08603618 2.1160465,1.9823314 2.24514647,1.9823314 C2.37424644,1.9823314 2.47890264,2.08603618 2.47890264,2.21396251 C2.47890264,2.34188884 2.37424644,2.44559362 2.24514647,2.44559362 Z M3.70204539,2.44559362 C3.57294542,2.44559362 3.46828922,2.34188884 3.46828922,2.21396251 C3.46828922,2.08603618 3.57294542,1.9823314 3.70204539,1.9823314 C3.83114536,1.9823314 3.93580156,2.08603618 3.93580156,2.21396251 C3.93580156,2.34188884 3.83114536,2.44559362 3.70204539,2.44559362 Z M3.70204539,3.82999354 C3.57294542,3.82999354 3.46828922,3.72628875 3.46828922,3.59836242 C3.46828922,3.47043609 3.57294542,3.36673131 3.70204539,3.36673131 C3.83114536,3.36673131 3.93580156,3.47043609 3.93580156,3.59836242 C3.93580156,3.72628875 3.83114536,3.82999354 3.70204539,3.82999354 Z M2.97359593,4.51950012 C2.84449596,4.51950012 2.73983976,4.41579532 2.73983976,4.287869 C2.73983976,4.15994268 2.84449596,4.05623788 2.97359593,4.05623788 C3.1026959,4.05623788 3.2073521,4.15994268 3.2073521,4.287869 C3.2073521,4.41579532 3.1026959,4.51950012 2.97359593,4.51950012 Z M3.70204539,1.06119371 C3.57294542,1.06119371 3.46828922,0.957488928 3.46828922,0.829562596 C3.46828922,0.701636264 3.57294542,0.59793148 3.70204539,0.59793148 C3.83114536,0.59793148 3.93580156,0.701636264 3.93580156,0.829562596 C3.93580156,0.957488928 3.83114536,1.06119371 3.70204539,1.06119371 Z M2.97359593,7.28829992 C2.84449596,7.28829992 2.73983976,7.18459516 2.73983976,7.05666884 C2.73983976,6.92874248 2.84449596,6.82503772 2.97359593,6.82503772 C3.1026959,6.82503772 3.2073521,6.92874248 3.2073521,7.05666884 C3.2073521,7.18459516 3.1026959,7.28829992 2.97359593,7.28829992 Z M2.97359593,5.90390004 C2.84449596,5.90390004 2.73983976,5.80019524 2.73983976,5.67226892 C2.73983976,5.54434256 2.84449596,5.4406378 2.97359593,5.4406378 C3.1026959,5.4406378 3.2073521,5.54434256 3.2073521,5.67226892 C3.2073521,5.80019524 3.1026959,5.90390004 2.97359593,5.90390004 Z M1.51669701,1.75070028 C1.38759704,1.75070028 1.28294084,1.6469955 1.28294084,1.51906917 C1.28294084,1.39114284 1.38759704,1.28743805 1.51669701,1.28743805 C1.64579698,1.28743805 1.75045318,1.39114284 1.75045318,1.51906917 C1.75045318,1.6469955 1.64579698,1.75070028 1.51669701,1.75070028 Z M5.89282998,16.9790993 C5.76372999,16.9790993 5.65907381,16.8753946 5.65907381,16.7474682 C5.65907381,16.6195419 5.76372999,16.5158371 5.89282998,16.5158371 C6.02192994,16.5158371 6.12658612,16.6195419 6.12658612,16.7474682 C6.12658612,16.8753946 6.02192994,16.9790993 5.89282998,16.9790993 Z M5.89282998,10.0570998 C5.76372999,10.0570998 5.65907381,9.953395 5.65907381,9.82546864 C5.65907381,9.69754232 5.76372999,9.59383752 5.89282998,9.59383752 C6.02192994,9.59383752 6.12658612,9.69754232 6.12658612,9.82546864 C6.12658612,9.953395 6.02192994,10.0570998 5.89282998,10.0570998 Z M5.89282998,15.5946994 C5.76372999,15.5946994 5.65907381,15.4909946 5.65907381,15.3630683 C5.65907381,15.235142 5.76372999,15.1314372 5.89282998,15.1314372 C6.02192994,15.1314372 6.12658612,15.235142 6.12658612,15.3630683 C6.12658612,15.4909946 6.02192994,15.5946994 5.89282998,15.5946994 Z M4.43593105,0.371687136 C4.30546249,0.371687136 4.19673869,0.263951734 4.19673869,0.140056022 C4.19673869,0.0915750916 4.21304727,0.0430941608 4.24022821,0.00538677008 L4.6261977,0.00538677008 C4.65337864,0.0430941608 4.66968722,0.0915750916 4.66968722,0.140056022 C4.66968722,0.269338505 4.5663996,0.371687136 4.43593105,0.371687136 Z M5.89282998,11.4414997 C5.76372999,11.4414997 5.65907381,11.3377949 5.65907381,11.2098686 C5.65907381,11.0819422 5.76372999,10.9782374 5.89282998,10.9782374 C6.02192994,10.9782374 6.12658612,11.0819422 6.12658612,11.2098686 C6.12658612,11.3377949 6.02192994,11.4414997 5.89282998,11.4414997 Z M5.89282998,12.8258996 C5.76372999,12.8258996 5.65907381,12.7221948 5.65907381,12.5942685 C5.65907381,12.4663422 5.76372999,12.3626374 5.89282998,12.3626374 C6.02192994,12.3626374 6.12658612,12.4663422 6.12658612,12.5942685 C6.12658612,12.7221948 6.02192994,12.8258996 5.89282998,12.8258996 Z M5.89282998,14.2102995 C5.76372999,14.2102995 5.65907381,14.1065947 5.65907381,13.9786684 C5.65907381,13.850742 5.76372999,13.7470373 5.89282998,13.7470373 C6.02192994,13.7470373 6.12658612,13.850742 6.12658612,13.9786684 C6.12658612,14.1065947 6.02192994,14.2102995 5.89282998,14.2102995 Z M7.34972888,19.2846369 C7.48019743,19.2846369 7.58348505,19.3869856 7.58892123,19.516268 C7.58892123,19.5432019 7.58348505,19.5755225 7.57261265,19.6024564 L7.13228128,19.6024564 C7.12140892,19.5755225 7.1159727,19.5485887 7.1159727,19.516268 C7.1159727,19.3869856 7.21926032,19.2846369 7.34972888,19.2846369 Z M8.80662781,19.2846369 C8.93709637,19.2846369 9.04582017,19.3869856 9.04582017,19.516268 C9.04582017,19.5432019 9.04038399,19.5755225 9.02951159,19.6024564 L8.58918022,19.6024564 C8.57830782,19.5755225 8.57287164,19.5485887 8.57287164,19.516268 C8.57287164,19.3869856 8.67615926,19.2846369 8.80662781,19.2846369 Z M4.92518816,0.829562596 C4.92518816,0.705666884 5.01760338,0.60870502 5.13176335,0.592544712 L5.27310431,1.02887309 C5.24048715,1.05042017 5.20243381,1.06119371 5.15894429,1.06119371 C5.02847574,1.06119371 4.92518816,0.958845076 4.92518816,0.829562596 Z M0.29355426,0.134669252 C0.29355426,0.237017884 0.23375617,0.317819436 0.14677713,0.355526826 L0.03261714,0 L0.25006474,0 C0.27724569,0.0377073906 0.29355426,0.0861883216 0.29355426,0.134669252 Z M2.97359593,0.371687136 C2.84312737,0.371687136 2.73983976,0.263951734 2.73440357,0.140056022 C2.73440357,0.0915750916 2.75071214,0.0430941608 2.77789309,0.00538677008 L3.16386258,0.00538677008 C3.19104353,0.0430941608 3.2073521,0.0915750916 3.2073521,0.140056022 C3.2073521,0.269338505 3.10406449,0.371687136 2.97359593,0.371687136 Z M1.51669701,0.371687136 C1.38622845,0.371687136 1.28294084,0.263951734 1.27750465,0.140056022 C1.27750465,0.0915750916 1.29381322,0.0430941608 1.32099417,0.00538677008 L1.70696366,0.00538677008 C1.73414461,0.0430941608 1.75045318,0.0915750916 1.75045318,0.140056022 C1.75045318,0.269338505 1.64716557,0.371687136 1.51669701,0.371687136 Z M10.2635267,19.2846369 C10.3939953,19.2846369 10.5027191,19.3869856 10.5027191,19.516268 C10.5027191,19.5432019 10.4972829,19.5755225 10.4864105,19.6024564 L10.0460791,19.6024564 C10.0352068,19.5755225 10.0297706,19.5485887 10.0297706,19.516268 C10.0297706,19.3869856 10.1330582,19.2846369 10.2635267,19.2846369 Z M5.16438051,6.59879336 C5.03528052,6.59879336 4.93062434,6.4950886 4.93062434,6.36716224 C4.93062434,6.23923592 5.03528052,6.13553112 5.16438051,6.13553112 C5.29348047,6.13553112 5.39813669,6.23923592 5.39813669,6.36716224 C5.39813669,6.4950886 5.29348047,6.59879336 5.16438051,6.59879336 Z M5.16438051,7.98319328 C5.03528052,7.98319328 4.93062434,7.87948848 4.93062434,7.75156216 C4.93062434,7.62363584 5.03528052,7.51993104 5.16438051,7.51993104 C5.29348047,7.51993104 5.39813669,7.62363584 5.39813669,7.75156216 C5.39813669,7.87948848 5.29348047,7.98319328 5.16438051,7.98319328 Z M5.16438051,5.21439344 C5.03528052,5.21439344 4.93062434,5.11068868 4.93062434,4.98276232 C4.93062434,4.854836 5.03528052,4.75113124 5.16438051,4.75113124 C5.29348047,4.75113124 5.39813669,4.854836 5.39813669,4.98276232 C5.39813669,5.11068868 5.29348047,5.21439344 5.16438051,5.21439344 Z M5.16438051,2.44559362 C5.03528052,2.44559362 4.93062434,2.34188884 4.93062434,2.21396251 C4.93062434,2.08603618 5.03528052,1.9823314 5.16438051,1.9823314 C5.29348047,1.9823314 5.39813669,2.08603618 5.39813669,2.21396251 C5.39813669,2.34188884 5.29348047,2.44559362 5.16438051,2.44559362 Z M5.89282998,8.67269984 C5.76372999,8.67269984 5.65907381,8.56899508 5.65907381,8.44106872 C5.65907381,8.3131424 5.76372999,8.20943764 5.89282998,8.20943764 C6.02192994,8.20943764 6.12658612,8.3131424 6.12658612,8.44106872 C6.12658612,8.56899508 6.02192994,8.67269984 5.89282998,8.67269984 Z M5.16438051,3.82999354 C5.03528052,3.82999354 4.93062434,3.72628875 4.93062434,3.59836242 C4.93062434,3.47043609 5.03528052,3.36673131 5.16438051,3.36673131 C5.29348047,3.36673131 5.39813669,3.47043609 5.39813669,3.59836242 C5.39813669,3.72628875 5.29348047,3.82999354 5.16438051,3.82999354 Z M5.16438051,9.3675932 C5.03528052,9.3675932 4.93062434,9.2638884 4.93062434,9.13596208 C4.93062434,9.00803576 5.03528052,8.90433096 5.16438051,8.90433096 C5.29348047,8.90433096 5.39813669,9.00803576 5.39813669,9.13596208 C5.39813669,9.2638884 5.29348047,9.3675932 5.16438051,9.3675932 Z M5.89282998,5.90390004 C5.76372999,5.90390004 5.65907381,5.80019524 5.65907381,5.67226892 C5.65907381,5.54434256 5.76372999,5.4406378 5.89282998,5.4406378 C6.02192994,5.4406378 6.12658612,5.54434256 6.12658612,5.67226892 C6.12658612,5.80019524 6.02192994,5.90390004 5.89282998,5.90390004 Z M5.89282998,7.28829992 C5.76372999,7.28829992 5.65907381,7.18459516 5.65907381,7.05666884 C5.65907381,6.92874248 5.76372999,6.82503772 5.89282998,6.82503772 C6.02192994,6.82503772 6.12658612,6.92874248 6.12658612,7.05666884 C6.12658612,7.18459516 6.02192994,7.28829992 5.89282998,7.28829992 Z M5.16438051,13.5207929 C5.03528052,13.5207929 4.93062434,13.4170882 4.93062434,13.2891618 C4.93062434,13.1612355 5.03528052,13.0575307 5.16438051,13.0575307 C5.29348047,13.0575307 5.39813669,13.1612355 5.39813669,13.2891618 C5.39813669,13.4170882 5.29348047,13.5207929 5.16438051,13.5207929 Z M5.16438051,14.9051928 C5.03528052,14.9051928 4.93062434,14.8014881 4.93062434,14.6735617 C4.93062434,14.5456354 5.03528052,14.4419306 5.16438051,14.4419306 C5.29348047,14.4419306 5.39813669,14.5456354 5.39813669,14.6735617 C5.39813669,14.8014881 5.29348047,14.9051928 5.16438051,14.9051928 Z M5.16438051,12.136393 C5.03528052,12.136393 4.93062434,12.0326882 4.93062434,11.9047619 C4.93062434,11.7768356 5.03528052,11.6731308 5.16438051,11.6731308 C5.29348047,11.6731308 5.39813669,11.7768356 5.39813669,11.9047619 C5.39813669,12.0326882 5.29348047,12.136393 5.16438051,12.136393 Z M5.16438051,10.7519931 C5.03528052,10.7519931 4.93062434,10.6482883 4.93062434,10.520362 C4.93062434,10.3924356 5.03528052,10.2887309 5.16438051,10.2887309 C5.29348047,10.2887309 5.39813669,10.3924356 5.39813669,10.520362 C5.39813669,10.6482883 5.29348047,10.7519931 5.16438051,10.7519931 Z M9.53507728,16.2895928 C9.40597728,16.2895928 9.3013211,16.185888 9.3013211,16.0579616 C9.3013211,15.9300353 9.40597728,15.8263305 9.53507728,15.8263305 C9.66417724,15.8263305 9.76883342,15.9300353 9.76883342,16.0579616 C9.76883342,16.185888 9.66417724,16.2895928 9.53507728,16.2895928 Z M7.34972888,12.8258996 C7.22062892,12.8258996 7.1159727,12.7221948 7.1159727,12.5942685 C7.1159727,12.4663422 7.22062892,12.3626374 7.34972888,12.3626374 C7.47882883,12.3626374 7.58348505,12.4663422 7.58348505,12.5942685 C7.58348505,12.7221948 7.47882883,12.8258996 7.34972888,12.8258996 Z M7.34972888,11.4414997 C7.22062892,11.4414997 7.1159727,11.3377949 7.1159727,11.2098686 C7.1159727,11.0819422 7.22062892,10.9782374 7.34972888,10.9782374 C7.47882883,10.9782374 7.58348505,11.0819422 7.58348505,11.2098686 C7.58348505,11.3377949 7.47882883,11.4414997 7.34972888,11.4414997 Z M7.34972888,14.2102995 C7.22062892,14.2102995 7.1159727,14.1065947 7.1159727,13.9786684 C7.1159727,13.850742 7.22062892,13.7470373 7.34972888,13.7470373 C7.47882883,13.7470373 7.58348505,13.850742 7.58348505,13.9786684 C7.58348505,14.1065947 7.47882883,14.2102995 7.34972888,14.2102995 Z M7.31359333,7.28829992 C7.19735635,7.26675284 7.11017859,7.169791 7.11599046,7.05666884 C7.11599046,6.99741436 7.13923784,6.94354664 7.17992081,6.90045248 L7.31359333,7.28829992 Z M7.34972888,8.67269984 C7.22062892,8.67269984 7.1159727,8.56899508 7.1159727,8.44106872 C7.1159727,8.3131424 7.22062892,8.20943764 7.34972888,8.20943764 C7.47882883,8.20943764 7.58348505,8.3131424 7.58348505,8.44106872 C7.58348505,8.56899508 7.47882883,8.67269984 7.34972888,8.67269984 Z M7.34972888,10.0570998 C7.22062892,10.0570998 7.1159727,9.953395 7.1159727,9.82546864 C7.1159727,9.69754232 7.22062892,9.59383752 7.34972888,9.59383752 C7.47882883,9.59383752 7.58348505,9.69754232 7.58348505,9.82546864 C7.58348505,9.953395 7.47882883,10.0570998 7.34972888,10.0570998 Z M7.34972888,15.5946994 C7.22062892,15.5946994 7.1159727,15.4909946 7.1159727,15.3630683 C7.1159727,15.235142 7.22062892,15.1314372 7.34972888,15.1314372 C7.47882883,15.1314372 7.58348505,15.235142 7.58348505,15.3630683 C7.58348505,15.4909946 7.47882883,15.5946994 7.34972888,15.5946994 Z M8.07817834,12.136393 C7.94907839,12.136393 7.84442217,12.0326882 7.84442217,11.9047619 C7.84442217,11.7768356 7.94907839,11.6731308 8.07817834,11.6731308 C8.2072783,11.6731308 8.31193452,11.7768356 8.31193452,11.9047619 C8.31193452,12.0326882 8.2072783,12.136393 8.07817834,12.136393 Z M8.07817834,10.7519931 C7.94907839,10.7519931 7.84442217,10.6482883 7.84442217,10.520362 C7.84442217,10.3924356 7.94907839,10.2887309 8.07817834,10.2887309 C8.2072783,10.2887309 8.31193452,10.3924356 8.31193452,10.520362 C8.31193452,10.6482883 8.2072783,10.7519931 8.07817834,10.7519931 Z M8.07817834,13.5207929 C7.94907839,13.5207929 7.84442217,13.4170882 7.84442217,13.2891618 C7.84442217,13.1612355 7.94907839,13.0575307 8.07817834,13.0575307 C8.2072783,13.0575307 8.31193452,13.1612355 8.31193452,13.2891618 C8.31193452,13.4170882 8.2072783,13.5207929 8.07817834,13.5207929 Z M7.34972888,16.9790993 C7.22062892,16.9790993 7.1159727,16.8753946 7.1159727,16.7474682 C7.1159727,16.6195419 7.22062892,16.5158371 7.34972888,16.5158371 C7.47882883,16.5158371 7.58348505,16.6195419 7.58348505,16.7474682 C7.58348505,16.8753946 7.47882883,16.9790993 7.34972888,16.9790993 Z M1.51669701,3.13510019 C1.38759704,3.13510019 1.28294084,3.03139541 1.28294084,2.90346908 C1.28294084,2.77554275 1.38759704,2.67183796 1.51669701,2.67183796 C1.64579698,2.67183796 1.75045318,2.77554275 1.75045318,2.90346908 C1.75045318,3.03139541 1.64579698,3.13510019 1.51669701,3.13510019 Z M8.04229949,9.33527256 C7.925372,9.29756516 7.84442217,9.2221504 7.84442217,9.13596208 C7.84442217,9.09825468 7.85341658,9.06593408 7.88039988,9.03361344 L8.04229949,9.33527256 Z M6.62127941,17.6739927 C6.49217945,17.6739927 6.38752323,17.5702879 6.38752323,17.4423616 C6.38752323,17.3144352 6.49217945,17.2107304 6.62127941,17.2107304 C6.75037941,17.2107304 6.85503559,17.3144352 6.85503559,17.4423616 C6.85503559,17.5702879 6.75037941,17.6739927 6.62127941,17.6739927 Z M6.62127941,6.59879336 C6.49217945,6.59879336 6.38752323,6.4950886 6.38752323,6.36716224 C6.38752323,6.23923592 6.49217945,6.13553112 6.62127941,6.13553112 C6.75037941,6.13553112 6.85503559,6.23923592 6.85503559,6.36716224 C6.85503559,6.4950886 6.75037941,6.59879336 6.62127941,6.59879336 Z M6.62127941,7.98319328 C6.49217945,7.98319328 6.38752323,7.87948848 6.38752323,7.75156216 C6.38752323,7.62363584 6.49217945,7.51993104 6.62127941,7.51993104 C6.75037941,7.51993104 6.85503559,7.62363584 6.85503559,7.75156216 C6.85503559,7.87948848 6.75037941,7.98319328 6.62127941,7.98319328 Z M6.38208705,4.98276232 C6.38208705,4.896574 6.42557657,4.826546 6.48537467,4.78345184 L6.62671563,5.21439344 L6.61584323,5.21439344 C6.48537467,5.21439344 6.38208705,5.1120448 6.38208705,4.98276232 Z M6.62127941,9.3675932 C6.49217945,9.3675932 6.38752323,9.2638884 6.38752323,9.13596208 C6.38752323,9.00803576 6.49217945,8.90433096 6.62127941,8.90433096 C6.75037941,8.90433096 6.85503559,9.00803576 6.85503559,9.13596208 C6.85503559,9.2638884 6.75037941,9.3675932 6.62127941,9.3675932 Z M6.62127941,19.0583926 C6.49217945,19.0583926 6.38752323,18.9546878 6.38752323,18.8267615 C6.38752323,18.6988352 6.49217945,18.5951304 6.62127941,18.5951304 C6.75037941,18.5951304 6.85503559,18.6988352 6.85503559,18.8267615 C6.85503559,18.9546878 6.75037941,19.0583926 6.62127941,19.0583926 Z M10.9539228,18.5951304 L11.0898276,19.0314587 C11.0572105,19.047619 11.0245933,19.0583926 10.98654,19.0583926 C10.8560714,19.0583926 10.7527838,18.956044 10.7527838,18.8267615 C10.7527838,18.7082525 10.8397629,18.6112907 10.9539228,18.5951304 Z M6.62127941,13.5207929 C6.49217945,13.5207929 6.38752323,13.4170882 6.38752323,13.2891618 C6.38752323,13.1612355 6.49217945,13.0575307 6.62127941,13.0575307 C6.75037941,13.0575307 6.85503559,13.1612355 6.85503559,13.2891618 C6.85503559,13.4170882 6.75037941,13.5207929 6.62127941,13.5207929 Z M6.62127941,10.7519931 C6.49217945,10.7519931 6.38752323,10.6482883 6.38752323,10.520362 C6.38752323,10.3924356 6.49217945,10.2887309 6.62127941,10.2887309 C6.75037941,10.2887309 6.85503559,10.3924356 6.85503559,10.520362 C6.85503559,10.6482883 6.75037941,10.7519931 6.62127941,10.7519931 Z M8.07817834,14.9051928 C7.94907839,14.9051928 7.84442217,14.8014881 7.84442217,14.6735617 C7.84442217,14.5456354 7.94907839,14.4419306 8.07817834,14.4419306 C8.2072783,14.4419306 8.31193452,14.5456354 8.31193452,14.6735617 C8.31193452,14.8014881 8.2072783,14.9051928 8.07817834,14.9051928 Z M6.62127941,14.9051928 C6.49217945,14.9051928 6.38752323,14.8014881 6.38752323,14.6735617 C6.38752323,14.5456354 6.49217945,14.4419306 6.62127941,14.4419306 C6.75037941,14.4419306 6.85503559,14.5456354 6.85503559,14.6735617 C6.85503559,14.8014881 6.75037941,14.9051928 6.62127941,14.9051928 Z M6.62127941,16.2895928 C6.49217945,16.2895928 6.38752323,16.185888 6.38752323,16.0579616 C6.38752323,15.9300353 6.49217945,15.8263305 6.62127941,15.8263305 C6.75037941,15.8263305 6.85503559,15.9300353 6.85503559,16.0579616 C6.85503559,16.185888 6.75037941,16.2895928 6.62127941,16.2895928 Z M6.62127941,12.136393 C6.49217945,12.136393 6.38752323,12.0326882 6.38752323,11.9047619 C6.38752323,11.7768356 6.49217945,11.6731308 6.62127941,11.6731308 C6.75037941,11.6731308 6.85503559,11.7768356 6.85503559,11.9047619 C6.85503559,12.0326882 6.75037941,12.136393 6.62127941,12.136393 Z M7.34972888,18.3634992 C7.22062892,18.3634992 7.1159727,18.2597945 7.1159727,18.1318681 C7.1159727,18.0039418 7.22062892,17.900237 7.34972888,17.900237 C7.47882883,17.900237 7.58348505,18.0039418 7.58348505,18.1318681 C7.58348505,18.2597945 7.47882883,18.3634992 7.34972888,18.3634992 Z M10.2635267,18.3634992 C10.1344268,18.3634992 10.0297706,18.2597945 10.0297706,18.1318681 C10.0297706,18.0039418 10.1344268,17.900237 10.2635267,17.900237 C10.3926267,17.900237 10.4972829,18.0039418 10.4972829,18.1318681 C10.4972829,18.2597945 10.3926267,18.3634992 10.2635267,18.3634992 Z M4.47942057,13.752424 C4.5924933,13.7685844 4.67729789,13.8655462 4.67729789,13.9786684 C4.67729789,14.0433096 4.64902971,14.0971773 4.60945421,14.1402715 L4.47942057,13.752424 Z M6.12658612,18.1318681 C6.12658612,18.2342168 6.06135184,18.3204051 5.96350044,18.3527257 L5.82215948,17.9110106 C5.84390424,17.9056238 5.87108522,17.900237 5.89282998,17.900237 C6.02329854,17.900237 6.12658612,18.0025856 6.12658612,18.1318681 Z M5.39813669,16.0579616 C5.39813669,16.1387632 5.35464717,16.214178 5.28941289,16.2572721 L5.14807193,15.8263305 L5.16438051,15.8263305 C5.29484907,15.8263305 5.39813669,15.9286792 5.39813669,16.0579616 Z M5.65363759,2.90346908 C5.65363759,2.80112045 5.71887186,2.71493213 5.81128712,2.68261151 L5.95262804,3.12432665 C5.93088328,3.12971342 5.90913852,3.13510019 5.88739376,3.13510019 C5.7569252,3.13510019 5.65363759,3.03275156 5.65363759,2.90346908 Z M5.89282998,4.51950012 C5.76372999,4.51950012 5.65907381,4.41579532 5.65907381,4.287869 C5.65907381,4.15994268 5.76372999,4.05623788 5.89282998,4.05623788 C6.02192994,4.05623788 6.12658612,4.15994268 6.12658612,4.287869 C6.12658612,4.41579532 6.02192994,4.51950012 5.89282998,4.51950012 Z M3.81620538,11.6946779 C3.92804908,11.737772 4.0140827,11.8131868 4.0140827,11.9047619 C4.0140827,11.9424693 3.99687598,11.9747899 3.97106589,12.0071105 L3.81620538,11.6946779 Z M1.02743991,2.21396251 C1.02743991,2.33247145 0.93502468,2.42943331 0.826300882,2.44559362 L0.684959941,2.00926524 C0.71757708,1.99310494 0.755630411,1.9823314 0.793683739,1.9823314 C0.924152301,1.9823314 1.02743991,2.08468002 1.02743991,2.21396251 Z M1.75588937,4.287869 C1.75588937,4.41715148 1.64716557,4.52488688 1.51669701,4.52488688 L1.49495225,4.52488688 L1.36448369,4.11549236 C1.40797321,4.07778496 1.46233511,4.05623788 1.5221332,4.05623788 C1.65260176,4.05623788 1.75588937,4.15858652 1.75588937,4.287869 Z M0.788247551,1.06119371 C0.659147583,1.06119371 0.554491379,0.957488928 0.554491379,0.829562596 C0.554491379,0.701636264 0.659147583,0.59793148 0.788247551,0.59793148 C0.917347519,0.59793148 1.02200372,0.701636264 1.02200372,0.829562596 C1.02200372,0.957488928 0.917347519,1.06119371 0.788247551,1.06119371 Z M2.97359593,8.6780866 C2.91379784,8.6780866 2.85943594,8.65115276 2.81594642,8.62421892 L2.74527595,8.39797456 C2.76702071,8.29023916 2.85943594,8.2148244 2.97359593,8.2148244 C3.10406449,8.2148244 3.2073521,8.31717304 3.2073521,8.44645552 C3.2073521,8.575738 3.10406449,8.6780866 2.97359593,8.6780866 Z M2.48433883,6.36716224 C2.48433883,6.49644472 2.37561503,6.59879336 2.25601885,6.60418012 C2.22340171,6.60418012 2.19622076,6.59879336 2.16903981,6.58801984 L2.05487982,6.24326652 C2.09293315,6.17862528 2.16903981,6.13553112 2.25058266,6.13553112 C2.38105122,6.13553112 2.48433883,6.23787976 2.48433883,6.36716224 Z M3.16386258,9.68541264 C3.28258897,9.74350992 3.34195217,9.80160724 3.34195217,9.87422888 L3.34195217,9.88149104 L3.16386258,9.68541264 Z M9.53507728,19.0583926 C9.40597728,19.0583926 9.3013211,18.9546878 9.3013211,18.8267615 C9.3013211,18.6988352 9.40597728,18.5951304 9.53507728,18.5951304 C9.66417724,18.5951304 9.76883342,18.6988352 9.76883342,18.8267615 C9.76883342,18.9546878 9.66417724,19.0583926 9.53507728,19.0583926 Z M8.80662781,12.3626374 C8.86642591,12.3626374 8.91535161,12.3841844 8.95884113,12.4111183 L9.03494777,12.6481362 C9.00776683,12.7504848 8.91535161,12.8258996 8.80662781,12.8258996 C8.67615926,12.8258996 8.57287164,12.723551 8.57287164,12.5942685 C8.57287164,12.464986 8.67615926,12.3626374 8.80662781,12.3626374 Z M8.71138574,11.4167205 L8.57287164,11.2206421 C8.57287164,11.2888433 8.63223482,11.3570445 8.71138574,11.4167205 Z M8.80662781,15.5946994 C8.67752782,15.5946994 8.57287164,15.4909946 8.57287164,15.3630683 C8.57287164,15.235142 8.67752782,15.1314372 8.80662781,15.1314372 C8.93572777,15.1314372 9.04038399,15.235142 9.04038399,15.3630683 C9.04038399,15.4909946 8.93572777,15.5946994 8.80662781,15.5946994 Z M8.80662781,14.2102995 C8.67752782,14.2102995 8.57287164,14.1065947 8.57287164,13.9786684 C8.57287164,13.850742 8.67752782,13.7470373 8.80662781,13.7470373 C8.93572777,13.7470373 9.04038399,13.850742 9.04038399,13.9786684 C9.04038399,14.1065947 8.93572777,14.2102995 8.80662781,14.2102995 Z M8.07817834,19.0583926 C7.94907839,19.0583926 7.84442217,18.9546878 7.84442217,18.8267615 C7.84442217,18.6988352 7.94907839,18.5951304 8.07817834,18.5951304 C8.2072783,18.5951304 8.31193452,18.6988352 8.31193452,18.8267615 C8.31193452,18.9546878 8.2072783,19.0583926 8.07817834,19.0583926 Z M8.07817834,17.6739927 C7.94907839,17.6739927 7.84442217,17.5702879 7.84442217,17.4423616 C7.84442217,17.3144352 7.94907839,17.2107304 8.07817834,17.2107304 C8.2072783,17.2107304 8.31193452,17.3144352 8.31193452,17.4423616 C8.31193452,17.5702879 8.2072783,17.6739927 8.07817834,17.6739927 Z M8.80662781,18.3634992 C8.67752782,18.3634992 8.57287164,18.2597945 8.57287164,18.1318681 C8.57287164,18.0039418 8.67752782,17.900237 8.80662781,17.900237 C8.93572777,17.900237 9.04038399,18.0039418 9.04038399,18.1318681 C9.04038399,18.2597945 8.93572777,18.3634992 8.80662781,18.3634992 Z M8.07817834,16.2895928 C7.94907839,16.2895928 7.84442217,16.185888 7.84442217,16.0579616 C7.84442217,15.9300353 7.94907839,15.8263305 8.07817834,15.8263305 C8.2072783,15.8263305 8.31193452,15.9300353 8.31193452,16.0579616 C8.31193452,16.185888 8.2072783,16.2895928 8.07817834,16.2895928 Z M9.53507728,17.6739927 C9.40597728,17.6739927 9.3013211,17.5702879 9.3013211,17.4423616 C9.3013211,17.3144352 9.40597728,17.2107304 9.53507728,17.2107304 C9.66417724,17.2107304 9.76883342,17.3144352 9.76883342,17.4423616 C9.76883342,17.5702879 9.66417724,17.6739927 9.53507728,17.6739927 Z M8.80662781,16.9790993 C8.67752782,16.9790993 8.57287164,16.8753946 8.57287164,16.7474682 C8.57287164,16.6195419 8.67752782,16.5158371 8.80662781,16.5158371 C8.93572777,16.5158371 9.04038399,16.6195419 9.04038399,16.7474682 C9.04038399,16.8753946 8.93572777,16.9790993 8.80662781,16.9790993 Z M10.0297706,16.7474682 C10.0297706,16.6181857 10.1330582,16.5158371 10.2635267,16.5158371 L10.2852715,16.5158371 L10.41574,16.9252316 C10.3722505,16.9575522 10.3233248,16.9790993 10.2635267,16.9790993 C10.1330582,16.9790993 10.0297706,16.8767507 10.0297706,16.7474682 Z M9.3013211,14.6735617 C9.3013211,14.5442792 9.40460872,14.4365438 9.53507728,14.4365438 C9.56225822,14.4365438 9.58943916,14.4419306 9.6166201,14.4527042 L9.73078012,14.8028442 C9.6872906,14.8674854 9.6166201,14.9051928 9.53507728,14.9051928 C9.40460872,14.9051928 9.3013211,14.8028442 9.3013211,14.6735617 Z"/>
    <path d="M14.221073 4.78345184L12.3184066 1.10428787 12.6717589 0 14.221073 4.78345184zM14.1558388 10.6819651L11.1170086 4.82115924 11.5138504 3.58758888 14.5526806 9.44839476 14.1558388 10.6819651zM12.3510237 16.2518854L9.31762964 10.3964663 9.71447154 9.16289592 12.7478656 15.018315 12.3510237 16.2518854zM10.9158695 5.44602456L13.9546997 11.3068304 13.5524217 12.5404008 10.5135915 6.67959492 10.9158695 5.44602456zM10.3124524 7.30446024L13.3512827 13.1598793 12.9490046 14.3934497 9.91561055 8.5380306 10.3124524 7.30446024zM11.5464676 18.7297996L11.2637857 19.6024564 10.0406429 15.8263305 11.5464676 18.7297996zM9.11649063 11.0213316L12.1498847 16.8713639 11.7476066 18.1049343 9.17085255 13.1329455 8.80119163 11.9909502 9.11649063 11.0213316zM12.1172675 1.7291532L15.0962996 7.48222364 15.1452253 7.62766644 14.7538197 8.8289162 11.7149895 2.96272355 12.1172675 1.7291532zM29.4315327.134669252C29.4315327.263951734 29.328245.366300366 29.1977765.366300366 29.0673079.366300366 28.9640203.263951734 28.9640203.134669252 28.9640203.0861883216 28.9803289.0377073906 29.0075098 0L27.9311442 0C27.9583252.0377073906 27.9746337.0861883216 27.9746337.134669252 27.9746337.263951734 27.8713462.366300366 27.7408776.366300366 27.610409.366300366 27.5071214.263951734 27.5071214.134669252 27.5071214.0861883216 27.52343.0377073906 27.5506109 0L26.4742453 0C26.5014263.0377073906 26.5177348.0861883216 26.5177348.134669252 26.5177348.263951734 26.4144472.366300366 26.2839787.366300366 26.1535101.366300366 26.0502225.263951734 26.0502225.134669252 26.0502225.0861883216 26.0665311.0377073906 26.093712 0L25.3435178 0 24.919495 1.30359836C25.006474 1.34130575 25.0608359 1.4221073 25.0608359 1.51906917 25.0608359 1.64835165 24.9575483 1.75070028 24.8270797 1.75070028 24.8107712 1.75070028 24.7944626 1.75070028 24.778154 1.74531351L24.2399712 3.4044387C24.2997693 3.44753286 24.3323864 3.5121741 24.3323864 3.59297565 24.3323864 3.72225814 24.2290989 3.82460676 24.1040665 3.82460676L23.5550113 5.52143936C23.5876284 5.55914672 23.603937 5.61301444 23.603937 5.66688212 23.603937 5.77461752 23.5332665 5.86080588 23.4354151 5.88773972L22.859179 7.66537384C22.8700513 7.68692092 22.8754875 7.71385476 22.8754875 7.74078864 22.8754875 7.82159016 22.8374342 7.8916182 22.7776361 7.92932556L21.7828133 10.9997845C21.8208667 10.9782374 21.8643562 10.9620771 21.9132819 10.9620771 22.0437505 10.9620771 22.1470381 11.0644258 22.1470381 11.1937082 22.1470381 11.3229907 22.0437505 11.4253394 21.9132819 11.4253394 21.8154305 11.4253394 21.7284515 11.3660849 21.6958343 11.2798966L21.4729505 11.9747899 22.0546229 13.7739711C22.1144209 13.8170653 22.1524742 13.8870933 22.1524742 13.9625081 22.1524742 13.9894419 22.1470381 14.010989 22.1416019 14.0379229L22.717838 15.815557C22.8156894 15.8478776 22.8863599 15.9340659 22.8863599 16.0364146 22.8863599 16.0902823 22.8700513 16.1387632 22.8374342 16.1764706L23.3864894 17.8786899C23.5115217 17.8840767 23.6148094 17.9864253 23.6148094 18.110321 23.6148094 18.1857358 23.576756 18.2503771 23.5223941 18.2934712L23.9409808 19.5809093 24.1203751 19.0368455 24.1095027 19.0368455C23.9790341 19.0368455 23.8757465 18.9344969 23.8757465 18.8052144 23.8757465 18.6759319 23.9790341 18.5735833 24.1095027 18.5735833 24.1638646 18.5735833 24.2127903 18.5951304 24.2508436 18.6220642L24.7890264 16.9575522C24.6803026 16.9360052 24.5987598 16.8390433 24.5987598 16.7259211 24.5987598 16.5966386 24.7020474 16.49429 24.8325159 16.49429 24.8651331 16.49429 24.8977502 16.4996768 24.9303673 16.5158371L25.463114 14.8674854C25.3815711 14.8297781 25.321773 14.7489765 25.321773 14.6520146 25.321773 14.5227322 25.4250606 14.4203835 25.5555292 14.4203835 25.5718378 14.4203835 25.5881464 14.4203835 25.6044549 14.4257703L26.1426377 12.7612584C26.0882758 12.7181642 26.0502225 12.653523 26.0502225 12.5781082 26.0502225 12.4488257 26.1535101 12.346477 26.2785425 12.346477L26.8275977 10.6442577C26.7949805 10.6065503 26.778672 10.5580694 26.778672 10.4988149 26.778672 10.3910795 26.8493424 10.3048912 26.9471938 10.2779573L27.52343 8.50570996C27.5125576 8.47877612 27.5071214 8.45184228 27.5071214 8.42490844 27.5071214 8.34410688 27.5506109 8.27407888 27.610409 8.23098472L28.5997956 5.17129928C28.5617423 5.19823312 28.5128165 5.21439344 28.4638908 5.21439344 28.3334223 5.21439344 28.2301347 5.1120448 28.2301347 4.98276232 28.2301347 4.85347984 28.3334223 4.75113124 28.4638908 4.75113124 28.5671785 4.75113124 28.6541575 4.81577248 28.6867746 4.90734756L29.2630108 3.12971342C29.241266 3.13510019 29.2195213 3.14048696 29.1923403 3.14048696 29.0618718 3.14048696 28.9585841 3.03813833 28.9585841 2.90885585 28.9585841 2.77957337 29.0618718 2.67722474 29.1923403 2.67722474 29.268447 2.67722474 29.3336812 2.71493213 29.3771708 2.76879983L29.926226 1.06658048 29.9153536 1.06658048C29.784885 1.06658048 29.6815974.964231848 29.6815974.834949364 29.6815974.705666884 29.784885.603318252 29.9153536.603318252 29.9697155.603318252 30.0186412.624865332 30.0621307.65179918L30.2795783 0 29.3880431 0C29.4152241.0377073906 29.4315327.0861883216 29.4315327.134669252L29.4315327.134669252zM21.9078457 12.8312864C21.7773772 12.8312864 21.6740895 12.7289377 21.6740895 12.5996552 21.6740895 12.4703728 21.7773772 12.3680241 21.9078457 12.3680241 22.0383143 12.3680241 22.1416019 12.4703728 22.1416019 12.5996552 22.1416019 12.7289377 22.0383143 12.8312864 21.9078457 12.8312864L21.9078457 12.8312864zM22.6362952 14.9051928C22.5058266 14.9051928 22.402539 14.8028442 22.402539 14.6735617 22.402539 14.5442792 22.5058266 14.4419306 22.6362952 14.4419306 22.7667637 14.4419306 22.8700513 14.5442792 22.8700513 14.6735617 22.8700513 14.8028442 22.7667637 14.9051928 22.6362952 14.9051928L22.6362952 14.9051928zM22.6362952 13.5207929C22.5058266 13.5207929 22.402539 13.4184443 22.402539 13.2891618 22.402539 13.1598793 22.5058266 13.0575307 22.6362952 13.0575307 22.7667637 13.0575307 22.8700513 13.1598793 22.8700513 13.2891618 22.8700513 13.4184443 22.7667637 13.5207929 22.6362952 13.5207929L22.6362952 13.5207929zM22.6362952 12.136393C22.5058266 12.136393 22.402539 12.0340444 22.402539 11.9047619 22.402539 11.7754794 22.5058266 11.6731308 22.6362952 11.6731308 22.7667637 11.6731308 22.8700513 11.7754794 22.8700513 11.9047619 22.8700513 12.0340444 22.7667637 12.136393 22.6362952 12.136393L22.6362952 12.136393zM22.6362952 10.7519931C22.5058266 10.7519931 22.402539 10.6496445 22.402539 10.520362 22.402539 10.3910795 22.5058266 10.2887309 22.6362952 10.2887309 22.7667637 10.2887309 22.8700513 10.3910795 22.8700513 10.520362 22.8700513 10.6496445 22.7667637 10.7519931 22.6362952 10.7519931L22.6362952 10.7519931zM22.6362952 9.3675932C22.5058266 9.3675932 22.402539 9.26524456 22.402539 9.13596208 22.402539 9.0066796 22.5058266 8.90433096 22.6362952 8.90433096 22.7667637 8.90433096 22.8700513 9.0066796 22.8700513 9.13596208 22.8700513 9.26524456 22.7667637 9.3675932 22.6362952 9.3675932L22.6362952 9.3675932zM23.3647446 16.9844861C23.2342761 16.9844861 23.1309885 16.8821375 23.1309885 16.752855 23.1309885 16.6235725 23.2342761 16.5212239 23.3647446 16.5212239 23.4952132 16.5212239 23.5985008 16.6235725 23.5985008 16.752855 23.5985008 16.8767507 23.4952132 16.9844861 23.3647446 16.9844861L23.3647446 16.9844861zM23.3647446 15.6000862C23.2342761 15.6000862 23.1309885 15.4977376 23.1309885 15.3684551 23.1309885 15.2391726 23.2342761 15.136824 23.3647446 15.136824 23.4952132 15.136824 23.5985008 15.2391726 23.5985008 15.3684551 23.5985008 15.4977376 23.4952132 15.6000862 23.3647446 15.6000862L23.3647446 15.6000862zM23.3647446 14.2156863C23.2342761 14.2156863 23.1309885 14.1133376 23.1309885 13.9840552 23.1309885 13.8547727 23.2342761 13.752424 23.3647446 13.752424 23.4952132 13.752424 23.5985008 13.8547727 23.5985008 13.9840552 23.5985008 14.1079509 23.4952132 14.2156863 23.3647446 14.2156863L23.3647446 14.2156863zM23.3647446 12.8312864C23.2342761 12.8312864 23.1309885 12.7289377 23.1309885 12.5996552 23.1309885 12.4703728 23.2342761 12.3680241 23.3647446 12.3680241 23.4952132 12.3680241 23.5985008 12.4703728 23.5985008 12.5996552 23.5985008 12.7289377 23.4952132 12.8312864 23.3647446 12.8312864L23.3647446 12.8312864zM23.3647446 11.4468864C23.2342761 11.4468864 23.1309885 11.3445378 23.1309885 11.2152553 23.1309885 11.0859728 23.2342761 10.9836242 23.3647446 10.9836242 23.4952132 10.9836242 23.5985008 11.0859728 23.5985008 11.2152553 23.5985008 11.339151 23.4952132 11.4468864 23.3647446 11.4468864L23.3647446 11.4468864zM23.3647446 10.0624865C23.2342761 10.0624865 23.1309885 9.96013792 23.1309885 9.8308554 23.1309885 9.70157292 23.2342761 9.59922432 23.3647446 9.59922432 23.4952132 9.59922432 23.5985008 9.70157292 23.5985008 9.8308554 23.5985008 9.96013792 23.4952132 10.0624865 23.3647446 10.0624865L23.3647446 10.0624865zM23.3647446 8.6780866C23.2342761 8.6780866 23.1309885 8.575738 23.1309885 8.44645552 23.1309885 8.31717304 23.2342761 8.2148244 23.3647446 8.2148244 23.4952132 8.2148244 23.5985008 8.31717304 23.5985008 8.44645552 23.5985008 8.5703512 23.4952132 8.6780866 23.3647446 8.6780866L23.3647446 8.6780866zM23.3647446 7.29368672C23.2342761 7.29368672 23.1309885 7.19133808 23.1309885 7.0620556 23.1309885 6.93277312 23.2342761 6.83042448 23.3647446 6.83042448 23.4952132 6.83042448 23.5985008 6.93277312 23.5985008 7.0620556 23.5985008 7.19133808 23.4952132 7.29368672 23.3647446 7.29368672L23.3647446 7.29368672zM24.0931941 17.6739927C23.9627255 17.6739927 23.8594379 17.571644 23.8594379 17.4423616 23.8594379 17.3130791 23.9627255 17.2107304 24.0931941 17.2107304 24.2236626 17.2107304 24.3269503 17.3130791 24.3269503 17.4423616 24.3269503 17.571644 24.2236626 17.6739927 24.0931941 17.6739927L24.0931941 17.6739927zM24.0931941 16.2895928C23.9627255 16.2895928 23.8594379 16.1872441 23.8594379 16.0579616 23.8594379 15.9286792 23.9627255 15.8263305 24.0931941 15.8263305 24.2236626 15.8263305 24.3269503 15.9286792 24.3269503 16.0579616 24.3269503 16.1872441 24.2236626 16.2895928 24.0931941 16.2895928L24.0931941 16.2895928zM24.0931941 14.9051928C23.9627255 14.9051928 23.8594379 14.8028442 23.8594379 14.6735617 23.8594379 14.5442792 23.9627255 14.4419306 24.0931941 14.4419306 24.2236626 14.4419306 24.3269503 14.5442792 24.3269503 14.6735617 24.3269503 14.8028442 24.2236626 14.9051928 24.0931941 14.9051928L24.0931941 14.9051928zM24.0931941 13.5207929C23.9627255 13.5207929 23.8594379 13.4184443 23.8594379 13.2891618 23.8594379 13.1598793 23.9627255 13.0575307 24.0931941 13.0575307 24.2236626 13.0575307 24.3269503 13.1598793 24.3269503 13.2891618 24.3269503 13.4184443 24.2236626 13.5207929 24.0931941 13.5207929L24.0931941 13.5207929zM24.0931941 12.136393C23.9627255 12.136393 23.8594379 12.0340444 23.8594379 11.9047619 23.8594379 11.7754794 23.9627255 11.6731308 24.0931941 11.6731308 24.2236626 11.6731308 24.3269503 11.7754794 24.3269503 11.9047619 24.3269503 12.0340444 24.2236626 12.136393 24.0931941 12.136393L24.0931941 12.136393zM24.0931941 10.7519931C23.9627255 10.7519931 23.8594379 10.6496445 23.8594379 10.520362 23.8594379 10.3910795 23.9627255 10.2887309 24.0931941 10.2887309 24.2236626 10.2887309 24.3269503 10.3910795 24.3269503 10.520362 24.3269503 10.6496445 24.2236626 10.7519931 24.0931941 10.7519931L24.0931941 10.7519931zM24.0931941 9.3675932C23.9627255 9.3675932 23.8594379 9.26524456 23.8594379 9.13596208 23.8594379 9.0066796 23.9627255 8.90433096 24.0931941 8.90433096 24.2236626 8.90433096 24.3269503 9.0066796 24.3269503 9.13596208 24.3269503 9.26524456 24.2236626 9.3675932 24.0931941 9.3675932L24.0931941 9.3675932zM24.0931941 7.98319328C23.9627255 7.98319328 23.8594379 7.88084464 23.8594379 7.75156216 23.8594379 7.62227968 23.9627255 7.51993104 24.0931941 7.51993104 24.2236626 7.51993104 24.3269503 7.62227968 24.3269503 7.75156216 24.3269503 7.88084464 24.2236626 7.98319328 24.0931941 7.98319328L24.0931941 7.98319328zM24.0931941 6.59879336C23.9627255 6.59879336 23.8594379 6.49644472 23.8594379 6.36716224 23.8594379 6.23787976 23.9627255 6.13553112 24.0931941 6.13553112 24.2236626 6.13553112 24.3269503 6.23787976 24.3269503 6.36716224 24.3269503 6.49644472 24.2236626 6.59879336 24.0931941 6.59879336L24.0931941 6.59879336zM24.0931941 5.21439344C23.9627255 5.21439344 23.8594379 5.1120448 23.8594379 4.98276232 23.8594379 4.85347984 23.9627255 4.75113124 24.0931941 4.75113124 24.2236626 4.75113124 24.3269503 4.85347984 24.3269503 4.98276232 24.3269503 5.1120448 24.2236626 5.21439344 24.0931941 5.21439344L24.0931941 5.21439344zM24.8216435 15.6000862C24.691175 15.6000862 24.5878874 15.4977376 24.5878874 15.3684551 24.5878874 15.2391726 24.691175 15.136824 24.8216435 15.136824 24.9521121 15.136824 25.0553997 15.2391726 25.0553997 15.3684551 25.0553997 15.4977376 24.9521121 15.6000862 24.8216435 15.6000862L24.8216435 15.6000862zM24.8216435 14.2156863C24.691175 14.2156863 24.5878874 14.1133376 24.5878874 13.9840552 24.5878874 13.8547727 24.691175 13.752424 24.8216435 13.752424 24.9521121 13.752424 25.0553997 13.8547727 25.0553997 13.9840552 25.0608359 14.1079509 24.9521121 14.2156863 24.8216435 14.2156863L24.8216435 14.2156863zM24.8216435 12.8312864C24.691175 12.8312864 24.5878874 12.7289377 24.5878874 12.5996552 24.5878874 12.4703728 24.691175 12.3680241 24.8216435 12.3680241 24.9521121 12.3680241 25.0553997 12.4703728 25.0553997 12.5996552 25.0553997 12.7289377 24.9521121 12.8312864 24.8216435 12.8312864L24.8216435 12.8312864zM24.8216435 11.4468864C24.691175 11.4468864 24.5878874 11.3445378 24.5878874 11.2152553 24.5878874 11.0859728 24.691175 10.9836242 24.8216435 10.9836242 24.9521121 10.9836242 25.0553997 11.0859728 25.0553997 11.2152553 25.0608359 11.339151 24.9521121 11.4468864 24.8216435 11.4468864L24.8216435 11.4468864zM24.8216435 10.0624865C24.691175 10.0624865 24.5878874 9.96013792 24.5878874 9.8308554 24.5878874 9.70157292 24.691175 9.59922432 24.8216435 9.59922432 24.9521121 9.59922432 25.0553997 9.70157292 25.0553997 9.8308554 25.0553997 9.96013792 24.9521121 10.0624865 24.8216435 10.0624865L24.8216435 10.0624865zM24.8216435 8.6780866C24.691175 8.6780866 24.5878874 8.575738 24.5878874 8.44645552 24.5878874 8.31717304 24.691175 8.2148244 24.8216435 8.2148244 24.9521121 8.2148244 25.0553997 8.31717304 25.0553997 8.44645552 25.0608359 8.5703512 24.9521121 8.6780866 24.8216435 8.6780866L24.8216435 8.6780866zM24.8216435 7.29368672C24.691175 7.29368672 24.5878874 7.19133808 24.5878874 7.0620556 24.5878874 6.93277312 24.691175 6.83042448 24.8216435 6.83042448 24.9521121 6.83042448 25.0553997 6.93277312 25.0553997 7.0620556 25.0553997 7.19133808 24.9521121 7.29368672 24.8216435 7.29368672L24.8216435 7.29368672zM24.8216435 5.9092868C24.691175 5.9092868 24.5878874 5.80693816 24.5878874 5.67765568 24.5878874 5.5483732 24.691175 5.44602456 24.8216435 5.44602456 24.9521121 5.44602456 25.0553997 5.5483732 25.0553997 5.67765568 25.0608359 5.8015514 24.9521121 5.9092868 24.8216435 5.9092868L24.8216435 5.9092868zM24.8216435 4.52488688C24.691175 4.52488688 24.5878874 4.42253824 24.5878874 4.29325576 24.5878874 4.16397328 24.691175 4.06162464 24.8216435 4.06162464 24.9521121 4.06162464 25.0553997 4.16397328 25.0553997 4.29325576 25.0553997 4.42253824 24.9521121 4.52488688 24.8216435 4.52488688L24.8216435 4.52488688zM24.8216435 3.14048696C24.691175 3.14048696 24.5878874 3.03813833 24.5878874 2.90885585 24.5878874 2.77957337 24.691175 2.67722474 24.8216435 2.67722474 24.9521121 2.67722474 25.0553997 2.77957337 25.0553997 2.90885585 25.0608359 3.03275156 24.9521121 3.14048696 24.8216435 3.14048696L24.8216435 3.14048696zM25.550093 13.5207929C25.4196245 13.5207929 25.3163368 13.4184443 25.3163368 13.2891618 25.3163368 13.1598793 25.4196245 13.0575307 25.550093 13.0575307 25.6805616 13.0575307 25.7838492 13.1598793 25.7838492 13.2891618 25.7838492 13.4184443 25.6805616 13.5207929 25.550093 13.5207929L25.550093 13.5207929zM25.550093 12.136393C25.4196245 12.136393 25.3163368 12.0340444 25.3163368 11.9047619 25.3163368 11.7754794 25.4196245 11.6731308 25.550093 11.6731308 25.6805616 11.6731308 25.7838492 11.7754794 25.7838492 11.9047619 25.7838492 12.0340444 25.6805616 12.136393 25.550093 12.136393L25.550093 12.136393zM25.550093 10.7519931C25.4196245 10.7519931 25.3163368 10.6496445 25.3163368 10.520362 25.3163368 10.3910795 25.4196245 10.2887309 25.550093 10.2887309 25.6805616 10.2887309 25.7838492 10.3910795 25.7838492 10.520362 25.7838492 10.6496445 25.6805616 10.7519931 25.550093 10.7519931L25.550093 10.7519931zM25.550093 9.3675932C25.4196245 9.3675932 25.3163368 9.26524456 25.3163368 9.13596208 25.3163368 9.0066796 25.4196245 8.90433096 25.550093 8.90433096 25.6805616 8.90433096 25.7838492 9.0066796 25.7838492 9.13596208 25.7838492 9.26524456 25.6805616 9.3675932 25.550093 9.3675932L25.550093 9.3675932zM25.550093 7.98319328C25.4196245 7.98319328 25.3163368 7.88084464 25.3163368 7.75156216 25.3163368 7.62227968 25.4196245 7.51993104 25.550093 7.51993104 25.6805616 7.51993104 25.7838492 7.62227968 25.7838492 7.75156216 25.7838492 7.88084464 25.6805616 7.98319328 25.550093 7.98319328L25.550093 7.98319328zM25.550093 6.59879336C25.4196245 6.59879336 25.3163368 6.49644472 25.3163368 6.36716224 25.3163368 6.23787976 25.4196245 6.13553112 25.550093 6.13553112 25.6805616 6.13553112 25.7838492 6.23787976 25.7838492 6.36716224 25.7838492 6.49644472 25.6805616 6.59879336 25.550093 6.59879336L25.550093 6.59879336zM25.550093 5.21439344C25.4196245 5.21439344 25.3163368 5.1120448 25.3163368 4.98276232 25.3163368 4.85347984 25.4196245 4.75113124 25.550093 4.75113124 25.6805616 4.75113124 25.7838492 4.85347984 25.7838492 4.98276232 25.7838492 5.1120448 25.6805616 5.21439344 25.550093 5.21439344L25.550093 5.21439344zM25.550093 3.82999354C25.4196245 3.82999354 25.3163368 3.7276449 25.3163368 3.59836242 25.3163368 3.46907994 25.4196245 3.36673131 25.550093 3.36673131 25.6805616 3.36673131 25.7838492 3.46907994 25.7838492 3.59836242 25.7838492 3.7276449 25.6805616 3.82999354 25.550093 3.82999354L25.550093 3.82999354zM25.550093 2.44559362C25.4196245 2.44559362 25.3163368 2.34324499 25.3163368 2.21396251 25.3163368 2.08468002 25.4196245 1.9823314 25.550093 1.9823314 25.6805616 1.9823314 25.7838492 2.08468002 25.7838492 2.21396251 25.7838492 2.34324499 25.6805616 2.44559362 25.550093 2.44559362L25.550093 2.44559362zM25.550093 1.06119371C25.4196245 1.06119371 25.3163368.958845076 25.3163368.829562596 25.3163368.700280112 25.4196245.59793148 25.550093.59793148 25.6805616.59793148 25.7838492.700280112 25.7838492.829562596 25.7838492.958845076 25.6805616 1.06119371 25.550093 1.06119371L25.550093 1.06119371zM26.2785425 11.4468864C26.1480739 11.4468864 26.0447863 11.3445378 26.0447863 11.2152553 26.0447863 11.0859728 26.1480739 10.9836242 26.2785425 10.9836242 26.409011 10.9836242 26.5122987 11.0859728 26.5122987 11.2152553 26.5177348 11.339151 26.409011 11.4468864 26.2785425 11.4468864L26.2785425 11.4468864zM26.2785425 10.0624865C26.1480739 10.0624865 26.0447863 9.96013792 26.0447863 9.8308554 26.0447863 9.70157292 26.1480739 9.59922432 26.2785425 9.59922432 26.409011 9.59922432 26.5122987 9.70157292 26.5122987 9.8308554 26.5122987 9.96013792 26.409011 10.0624865 26.2785425 10.0624865L26.2785425 10.0624865zM26.2785425 8.6780866C26.1480739 8.6780866 26.0447863 8.575738 26.0447863 8.44645552 26.0447863 8.31717304 26.1480739 8.2148244 26.2785425 8.2148244 26.409011 8.2148244 26.5122987 8.31717304 26.5122987 8.44645552 26.5177348 8.5703512 26.409011 8.6780866 26.2785425 8.6780866L26.2785425 8.6780866zM26.2785425 7.29368672C26.1480739 7.29368672 26.0447863 7.19133808 26.0447863 7.0620556 26.0447863 6.93277312 26.1480739 6.83042448 26.2785425 6.83042448 26.409011 6.83042448 26.5122987 6.93277312 26.5122987 7.0620556 26.5122987 7.19133808 26.409011 7.29368672 26.2785425 7.29368672L26.2785425 7.29368672zM26.2785425 5.9092868C26.1480739 5.9092868 26.0447863 5.80693816 26.0447863 5.67765568 26.0447863 5.5483732 26.1480739 5.44602456 26.2785425 5.44602456 26.409011 5.44602456 26.5122987 5.5483732 26.5122987 5.67765568 26.5177348 5.8015514 26.409011 5.9092868 26.2785425 5.9092868L26.2785425 5.9092868zM26.2785425 4.52488688C26.1480739 4.52488688 26.0447863 4.42253824 26.0447863 4.29325576 26.0447863 4.16397328 26.1480739 4.06162464 26.2785425 4.06162464 26.409011 4.06162464 26.5122987 4.16397328 26.5122987 4.29325576 26.5122987 4.42253824 26.409011 4.52488688 26.2785425 4.52488688L26.2785425 4.52488688zM26.2785425 3.14048696C26.1480739 3.14048696 26.0447863 3.03813833 26.0447863 2.90885585 26.0447863 2.77957337 26.1480739 2.67722474 26.2785425 2.67722474 26.409011 2.67722474 26.5122987 2.77957337 26.5122987 2.90885585 26.5177348 3.03275156 26.409011 3.14048696 26.2785425 3.14048696L26.2785425 3.14048696zM26.2785425 1.75608705C26.1480739 1.75608705 26.0447863 1.65373842 26.0447863 1.52445594 26.0447863 1.39517345 26.1480739 1.29282482 26.2785425 1.29282482 26.409011 1.29282482 26.5122987 1.39517345 26.5122987 1.52445594 26.5122987 1.65373842 26.409011 1.75608705 26.2785425 1.75608705L26.2785425 1.75608705zM27.0069919 9.3675932C26.8765234 9.3675932 26.7732358 9.26524456 26.7732358 9.13596208 26.7732358 9.0066796 26.8765234 8.90433096 27.0069919 8.90433096 27.1374605 8.90433096 27.2407481 9.0066796 27.2407481 9.13596208 27.2407481 9.26524456 27.1374605 9.3675932 27.0069919 9.3675932L27.0069919 9.3675932zM27.0069919 7.98319328C26.8765234 7.98319328 26.7732358 7.88084464 26.7732358 7.75156216 26.7732358 7.62227968 26.8765234 7.51993104 27.0069919 7.51993104 27.1374605 7.51993104 27.2407481 7.62227968 27.2407481 7.75156216 27.2407481 7.88084464 27.1374605 7.98319328 27.0069919 7.98319328L27.0069919 7.98319328zM27.0069919 6.59879336C26.8765234 6.59879336 26.7732358 6.49644472 26.7732358 6.36716224 26.7732358 6.23787976 26.8765234 6.13553112 27.0069919 6.13553112 27.1374605 6.13553112 27.2407481 6.23787976 27.2407481 6.36716224 27.2407481 6.49644472 27.1374605 6.59879336 27.0069919 6.59879336L27.0069919 6.59879336zM27.0069919 5.21439344C26.8765234 5.21439344 26.7732358 5.1120448 26.7732358 4.98276232 26.7732358 4.85347984 26.8765234 4.75113124 27.0069919 4.75113124 27.1374605 4.75113124 27.2407481 4.85347984 27.2407481 4.98276232 27.2407481 5.1120448 27.1374605 5.21439344 27.0069919 5.21439344L27.0069919 5.21439344zM27.0069919 3.82999354C26.8765234 3.82999354 26.7732358 3.7276449 26.7732358 3.59836242 26.7732358 3.46907994 26.8765234 3.36673131 27.0069919 3.36673131 27.1374605 3.36673131 27.2407481 3.46907994 27.2407481 3.59836242 27.2407481 3.7276449 27.1374605 3.82999354 27.0069919 3.82999354L27.0069919 3.82999354zM27.0069919 2.44559362C26.8765234 2.44559362 26.7732358 2.34324499 26.7732358 2.21396251 26.7732358 2.08468002 26.8765234 1.9823314 27.0069919 1.9823314 27.1374605 1.9823314 27.2407481 2.08468002 27.2407481 2.21396251 27.2407481 2.34324499 27.1374605 2.44559362 27.0069919 2.44559362L27.0069919 2.44559362zM27.0069919 1.06119371C26.8765234 1.06119371 26.7732358.958845076 26.7732358.829562596 26.7732358.700280112 26.8765234.59793148 27.0069919.59793148 27.1374605.59793148 27.2407481.700280112 27.2407481.829562596 27.2407481.958845076 27.1374605 1.06119371 27.0069919 1.06119371L27.0069919 1.06119371zM27.7354414 7.29368672C27.6049728 7.29368672 27.5016852 7.19133808 27.5016852 7.0620556 27.5016852 6.93277312 27.6049728 6.83042448 27.7354414 6.83042448 27.8659099 6.83042448 27.9691976 6.93277312 27.9691976 7.0620556 27.9691976 7.19133808 27.8713462 7.29368672 27.7354414 7.29368672L27.7354414 7.29368672zM27.7354414 5.9092868C27.6049728 5.9092868 27.5016852 5.80693816 27.5016852 5.67765568 27.5016852 5.5483732 27.6049728 5.44602456 27.7354414 5.44602456 27.8659099 5.44602456 27.9691976 5.5483732 27.9691976 5.67765568 27.9746337 5.8015514 27.8713462 5.9092868 27.7354414 5.9092868L27.7354414 5.9092868zM27.7354414 4.52488688C27.6049728 4.52488688 27.5016852 4.42253824 27.5016852 4.29325576 27.5016852 4.16397328 27.6049728 4.06162464 27.7354414 4.06162464 27.8659099 4.06162464 27.9691976 4.16397328 27.9691976 4.29325576 27.9691976 4.42253824 27.8713462 4.52488688 27.7354414 4.52488688L27.7354414 4.52488688zM27.7354414 3.14048696C27.6049728 3.14048696 27.5016852 3.03813833 27.5016852 2.90885585 27.5016852 2.77957337 27.6049728 2.67722474 27.7354414 2.67722474 27.8659099 2.67722474 27.9691976 2.77957337 27.9691976 2.90885585 27.9746337 3.03275156 27.8713462 3.14048696 27.7354414 3.14048696L27.7354414 3.14048696zM27.7354414 1.75608705C27.6049728 1.75608705 27.5016852 1.65373842 27.5016852 1.52445594 27.5016852 1.39517345 27.6049728 1.29282482 27.7354414 1.29282482 27.8659099 1.29282482 27.9691976 1.39517345 27.9691976 1.52445594 27.9691976 1.65373842 27.8713462 1.75608705 27.7354414 1.75608705L27.7354414 1.75608705zM28.469327 3.82999354C28.3388585 3.82999354 28.2355709 3.7276449 28.2355709 3.59836242 28.2355709 3.46907994 28.3388585 3.36673131 28.469327 3.36673131 28.5997956 3.36673131 28.7030832 3.46907994 28.7030832 3.59836242 28.7030832 3.7276449 28.5997956 3.82999354 28.469327 3.82999354L28.469327 3.82999354zM28.469327 2.44559362C28.3388585 2.44559362 28.2355709 2.34324499 28.2355709 2.21396251 28.2355709 2.08468002 28.3388585 1.9823314 28.469327 1.9823314 28.5997956 1.9823314 28.7030832 2.08468002 28.7030832 2.21396251 28.7030832 2.34324499 28.5997956 2.44559362 28.469327 2.44559362L28.469327 2.44559362zM28.469327 1.06119371C28.3388585 1.06119371 28.2355709.958845076 28.2355709.829562596 28.2355709.700280112 28.3388585.59793148 28.469327.59793148 28.5997956.59793148 28.7030832.700280112 28.7030832.829562596 28.7030832.958845076 28.5997956 1.06119371 28.469327 1.06119371L28.469327 1.06119371zM29.1977765 1.75608705C29.0673079 1.75608705 28.9640203 1.65373842 28.9640203 1.52445594 28.9640203 1.39517345 29.0673079 1.29282482 29.1977765 1.29282482 29.328245 1.29282482 29.4315327 1.39517345 29.4315327 1.52445594 29.4315327 1.65373842 29.328245 1.75608705 29.1977765 1.75608705L29.1977765 1.75608705z"/>
    <path d="M15.1343529,3.68455074 L16.6184328,5.15513896 L18.1025127,3.68455074 L19.0918993,4.66494292 L18.939686,4.18552036 L18.1025127,3.36134454 L16.6184328,4.83193276 L15.1343529,3.36134454 L14.0960407,4.39021764 L14.1775835,4.63800904 L15.1343529,3.68455074 L15.1343529,3.68455074 Z M19.5920288,16.7582418 L21.0761086,15.2876535 L22.5601885,16.7582418 L22.8972323,16.424262 L22.8156894,16.1764706 L22.5601885,16.4296488 L21.0761086,14.9590606 L19.5920288,16.4296488 L18.1025127,14.9590606 L17.6513089,15.4061625 L17.7328518,15.6539539 L18.1025127,15.2876535 L19.5920288,16.7582418 L19.5920288,16.7582418 Z M15.1343529,2.39711269 L16.6184328,3.86770093 L18.1025127,2.39711269 L18.4776098,2.76879983 L18.3253965,2.28937729 L18.1025127,2.06851972 L16.6184328,3.53910795 L15.1343529,2.06851972 L13.7807417,3.40982547 L13.8622845,3.65761689 L15.1343529,2.39711269 L15.1343529,2.39711269 Z M15.1343529,4.9719888 L16.6184328,6.44257704 L18.1025127,4.9719888 L19.5865926,6.44257704 L19.6463907,6.38332256 L19.5485392,6.08166344 L18.1025127,4.6487826 L16.6184328,6.11937084 L15.1343529,4.6487826 L14.4113397,5.365223 L14.4928826,5.61301444 L15.1343529,4.9719888 L15.1343529,4.9719888 Z M23.7615865,19.1068735 L23.261457,19.6024564 L23.5876284,19.6024564 L23.8376931,19.354665 L23.7615865,19.1068735 L23.7615865,19.1068735 Z M15.1343529,1.10428787 L16.6184328,2.5748761 L17.9829165,1.22279681 L17.9013737,0.975005388 L16.6184328,2.24628313 L15.1343529,0.775694892 L13.6448369,2.2516699 L13.2860484,1.89614307 L13.4382617,2.37556561 L13.6448369,2.58026288 L15.1343529,1.10428787 L15.1343529,1.10428787 Z M18.1025127,7.55225168 L19.5865926,9.02283992 L20.2769887,8.33872012 L20.1954458,8.09092868 L19.5811564,8.69963368 L18.1025127,7.22365868 L16.6184328,8.69424692 L15.1343529,7.22365868 L15.0419377,7.3152338 L15.1452253,7.62227968 L15.1615339,7.57379876 L16.6184328,9.01745312 L18.1025127,7.55225168 L18.1025127,7.55225168 Z M21.0761086,18.8267615 L20.2932973,19.6024564 L20.6194687,19.6024564 L21.0761086,19.1499677 L21.5327486,19.6024564 L21.85892,19.6024564 L21.0761086,18.8267615 L21.0761086,18.8267615 Z M23.4462875,18.1318681 L22.5601885,19.0099116 L21.0761086,17.5393234 L19.5920288,19.0099116 L18.4613013,17.8894635 L18.6135146,18.368886 L19.5920288,19.3385046 L21.0761086,17.8679164 L22.5601885,19.3385046 L23.5278303,18.3796596 L23.4462875,18.1318681 L23.4462875,18.1318681 Z M18.1025127,10.1271278 L19.5865926,11.597716 L20.9075867,10.2887309 L20.8260439,10.0409394 L19.5811564,11.2745098 L18.1025127,9.80392156 L16.6184328,11.2745098 L16.1781014,10.8381814 L16.3303148,11.317604 L16.6129966,11.597716 L18.1025127,10.1271278 L18.1025127,10.1271278 Z M21.0761086,16.5750916 L22.5601885,18.0456798 L23.2125313,17.3992674 L23.1309885,17.151476 L22.5601885,17.7224736 L21.0761086,16.2518854 L19.5920288,17.7224736 L18.1025127,16.2518854 L17.966608,16.3865546 L18.0481508,16.634346 L18.1025127,16.5804784 L19.5865926,18.0510666 L21.0761086,16.5750916 L21.0761086,16.5750916 Z M18.1025127,8.83968972 L19.5865926,10.310278 L20.5922877,9.31372548 L20.5107449,9.06593408 L19.5811564,9.98707176 L18.1025127,8.51648352 L16.6184328,9.98707176 L15.6453548,9.02283992 L15.6453548,9.02283992 L15.563812,8.94203836 L15.7160253,9.42146088 L16.6129966,10.310278 L18.1025127,8.83968972 L18.1025127,8.83968972 Z M18.1025127,13.9948287 L19.5865926,15.4654169 L21.0706724,13.9948287 L22.5547523,15.4654169 L22.5764971,15.4438698 L22.4405923,15.0237018 L21.0706724,13.6662357 L19.5865926,15.136824 L18.1025127,13.6716225 L17.3414461,14.4311571 L17.422989,14.6789485 L18.1025127,13.9948287 L18.1025127,13.9948287 Z M14.9495225,0 L14.6233511,0 L13.6448369,0.964231848 L12.6717589,0 L12.8239722,0.47942254 L13.6448369,1.28743805 L14.9495225,0 L14.9495225,0 Z M17.6676175,0.253178194 L17.5860746,0.00538677008 L16.6184328,0.964231848 L15.6453548,0 L15.3191834,0 L16.6184328,1.28743805 L17.6676175,0.253178194 L17.6676175,0.253178194 Z M16.6184328,7.73540184 L18.1025127,6.2648136 L19.5865926,7.73540184 L19.9616897,7.36371472 L19.8801468,7.11592328 L19.5865926,7.40680888 L18.1025127,5.93622064 L16.6184328,7.40680888 L15.1343529,5.93622064 L14.7266387,6.3402284 L14.8081816,6.58801984 L15.1343529,6.2648136 L16.6184328,7.73540184 L16.6184328,7.73540184 Z M18.1025127,11.4199526 L19.5865926,12.8905408 L21.0706724,11.4199526 L21.3696629,11.716225 L21.2174496,11.2368024 L21.0761086,11.0967464 L19.5920288,12.5673346 L18.1025127,11.0913596 L16.7054119,12.4757595 L16.7869547,12.723551 L18.1025127,11.4199526 L18.1025127,11.4199526 Z M18.1025127,12.7073906 L19.5865926,14.1779789 L21.0706724,12.7073906 L21.9785162,13.6069812 L21.8263029,13.1275587 L21.0706724,12.3787977 L19.5865926,13.8493859 L18.1025127,12.3841844 L17.0207109,13.4561517 L17.1022538,13.7039431 L18.1025127,12.7073906 L18.1025127,12.7073906 Z"/>
  </g>
</svg>
