<svg xmlns="http://www.w3.org/2000/svg" width="60" height="60" viewBox="0 0 60 60">
  <g fill="#FFFFFF" transform="translate(15 17)">
    <path d="M13.3896949.328074324L2.21020339 5.12279054C1.58850847 5.38946622 1.59494915 6.30473649 2.22054237 6.56175L13.4468136 11.1760473C14.4332542 11.5815068 15.5317288 11.5815068 16.518 11.1760473L27.7444407 6.56175C28.3698644 6.30473649 28.3764746 5.38946622 27.7546102 5.12279054L16.5752881.328074324C15.5552881-.109358108 14.4095254-.109358108 13.3896949.328074324M15.9784068 13.6958162L15.9784068 25.2229514C15.9784068 25.7712351 16.5117966 26.1466541 17.0034915 25.944627L29.5129831 20.9118703C29.7985763 20.7945189 29.9858644 20.5085189 29.9858644 20.1901946L29.9858644 8.66305946C29.9858644 8.11477568 29.4524746 7.73935676 28.9607797 7.94138378L16.4512881 12.9741405C16.1658644 13.0914919 15.9784068 13.3774919 15.9784068 13.6958162M13.0573559 14.2905838L9.34481356 16.1485297 8.96786441 16.3373811 1.13091525 20.2294757C.634135593 20.4778811.0000677966102 20.1026378.0000677966102 19.5306378L.0000677966102 8.71147568C.0000677966102 8.50452973.102440678 8.32586757.239728814 8.1913.297016949 8.13174595.361932203 8.08273243.429389831 8.04390811.616677966 7.92743514.88379661 7.89634054 1.11091525 7.98944865L12.9949831 12.8698946C13.5990508 13.1183 13.6465085 13.9956243 13.0573559 14.2905838"/>
    <path d="M13.0573559,14.2905838 L9.34481356,16.1485297 L0.239728814,8.1913 C0.297016949,8.13174595 0.361932203,8.08273243 0.429389831,8.04390811 C0.616677966,7.92743514 0.88379661,7.89634054 1.11091525,7.98944865 L12.9949831,12.8698946 C13.5990508,13.1183 13.6465085,13.9956243 13.0573559,14.2905838"/>
  </g>
</svg>
