<svg xmlns="http://www.w3.org/2000/svg" width="360" height="360" viewBox="0 0 360 360">
  <path fill="#FFF" d="M175.491587,195.677227 C194.269746,209.210569 198.848499,235.240023 185.815874,254.369091 C172.78325,273.498159 146.883818,278.762841 127.417188,266.240027 C91.7127296,246.491116 75.5697435,203.785868 89.2823878,165.356828 C89.2999878,165.317228 89.3307878,165.282028 89.3307878,165.246828 C94.278147,151.508952 102.735048,139.305227 113.860788,129.848828 C170.163187,76.0544281 275.573987,88.123628 275.573987,88.123628 C275.573987,88.123628 215.764787,87.463628 174.637987,110.317228 C174.796387,110.348028 174.959187,110.348028 175.117587,110.348028 C174.153987,110.788028 173.225587,111.228028 172.310387,111.668028 C163.853587,116.644428 156.276787,122.668028 150.310388,129.972028 C136.960788,151.914828 153.570788,179.674428 175.522387,195.611227 L175.491587,195.677227 Z M213.811187,123.926428 C239.367659,140.879225 253.547805,170.498798 250.727235,201.036889 C247.906666,231.57498 228.541224,258.096204 200.311987,270.081227 C213.366787,260.625627 221.475987,249.132827 224.045587,236.126427 C230.817187,204.477227 219.566387,194.484827 197.328787,170.355228 C170.805587,141.574828 213.432787,124.027628 213.811187,123.926428 Z"/>
</svg>
