<svg xmlns="http://www.w3.org/2000/svg" width="60" height="60" viewBox="0 0 60 60">
  <g fill="#FFFFFF" transform="translate(15 18)">
    <path d="M30,2.61826866 C29.9459766,1.23343284 29.9075391,-0.873074627 26.8824609,0.386029851 C21.8353125,2.2758209 16.7591016,4.0958806 11.7574219,6.10722388 C7.96757812,7.632 3.81679687,9.30268657 1.68,17.4643582 C1.1203125,19.6028657 0.56015625,21.7418507 0,23.880597 L4.81113281,23.880597 C5.26382812,22.1509254 5.71699219,20.4214925 6.16992188,18.6919403 C7.69980469,12.8471642 10.7046094,11.638209 13.4478516,10.5345672 C17.3846484,8.95164179 21.3739453,7.50519403 25.3467188,6.01755224 L25.3467188,23.880597 L30,23.880597 L30,2.61826866 Z"/>
    <path d="M11.5994531 12.9139104C11.1100781 13.1911642 10.6420312 13.512597 10.2030469 13.910806 8.72414062 15.2517015 7.92234375 17.1663284 7.41984375 19.0780896L6.15480469 23.8875224 11.5994531 23.8875224 11.5994531 12.9139104zM17.6626172 10.4035821C16.4031363 10.8812556 15.1477377 11.3700301 13.8965625 11.8698507 13.5621094 12.0038209 13.2317578 12.1367164 12.9076172 12.2761791L12.9076172 23.8875224 17.6626172 23.8875224 17.6626172 10.4034627 17.6626172 10.4035821zM23.9826562 23.8875224L23.9826562 8.04656716C22.3113281 8.66555224 20.6390625 9.28202985 18.9706641 9.90913433L18.9706641 23.887403 23.9826562 23.887403 23.9826562 23.8875224z" opacity=".6"/>
  </g>
</svg>
