<svg xmlns="http://www.w3.org/2000/svg" width="60" height="60" viewBox="0 0 60 60">
  <g fill="#FFFFFF" transform="translate(11 22)">
    <path d="M2.052,0.152380952 L2.052,10.8190476 C2.052,11.2761905 2.052,11.7333333 2.09,12.152381 C2.128,12.5714286 2.204,12.952381 2.318,13.2571429 C2.47,13.5619048 2.66,13.7904762 2.964,13.9809524 C3.23,14.1714286 3.648,14.247619 4.18,14.247619 C5.016,14.247619 5.624,13.9809524 5.928,13.4857143 C6.232,12.9904762 6.422,12.1142857 6.422,10.9333333 L6.422,0.152380952 L8.094,0.152380952 L8.094,10.8190476 C8.094,11.0857143 8.094,11.3904762 8.056,11.7714286 C8.056,12.1142857 7.98,12.4952381 7.942,12.8380952 C7.866,13.1809524 7.752,13.5619048 7.6,13.9047619 C7.448,14.247619 7.22,14.552381 6.916,14.8190476 C6.612,15.0857143 6.27,15.3142857 5.814,15.4666667 C5.358,15.6190476 4.826,15.7333333 4.142,15.7333333 C3.192,15.7333333 2.47,15.5809524 1.938,15.2761905 C1.406,14.9714286 1.026,14.5904762 0.798,14.1333333 C0.57,13.6761905 0.418,13.1428571 0.38,12.5714286 C0.342,12 0.304,11.4285714 0.304,10.8571429 L0.304,0.19047619 L2.052,0.19047619 L2.052,0.152380952 L2.052,0.152380952 Z"/>
    <polygon points="9.652 .152 11.514 .152 13.566 5.638 15.694 .152 17.404 .152 14.402 7.162 17.784 15.39 15.808 15.39 13.376 9.067 10.944 15.429 9.234 15.429 12.578 7.467"/>
    <path d="M19.266.152380952L22.23.152380952C23.028.152380952 23.712.228571429 24.282.380952381 24.814.533333333 25.308.876190476 25.726 1.37142857 25.84 1.52380952 25.954 1.67619048 26.068 1.86666667 26.182 2.05714286 26.296 2.28571429 26.41 2.55238095 26.524 2.81904762 26.6 3.12380952 26.638 3.46666667 26.714 3.80952381 26.714 4.22857143 26.714 4.68571429 26.714 5.2952381 26.638 5.86666667 26.486 6.4 26.334 6.93333333 26.106 7.42857143 25.764 7.84761905 25.422 8.26666667 25.004 8.57142857 24.472 8.83809524 23.94 9.06666667 23.294 9.18095238 22.496 9.18095238L21.014 9.18095238 21.014 15.3904762 19.266 15.3904762C19.266 15.3904762 19.266.152380952 19.266.152380952zM21.014 7.73333333L22.458 7.73333333C22.8 7.73333333 23.142 7.6952381 23.446 7.61904762 23.75 7.54285714 24.016 7.39047619 24.244 7.2 24.472 6.97142857 24.662 6.66666667 24.776 6.28571429 24.89 5.9047619 24.966 5.37142857 24.966 4.76190476 24.966 4 24.852 3.39047619 24.662 2.97142857 24.472 2.55238095 24.206 2.24761905 23.94 2.05714286 23.674 1.86666667 23.37 1.75238095 23.066 1.71428571 22.762 1.67619048 22.534 1.67619048 22.306 1.67619048L20.976 1.67619048 20.976 7.73333333 21.014 7.73333333zM29.754.152380952L29.754 2.0952381 28.044 2.0952381 28.044.152380952 29.754.152380952zM28.12 4.11428571L29.678 4.11428571 29.678 15.3904762 28.12 15.3904762 28.12 4.11428571zM31.464 4.11428571L32.908 4.11428571 32.908 5.82857143C32.946 5.71428571 33.022 5.52380952 33.136 5.2952381 33.25 5.06666667 33.402 4.83809524 33.592 4.64761905 33.782 4.41904762 34.048 4.22857143 34.314 4.07619048 34.618 3.92380952 34.96 3.84761905 35.378 3.84761905 35.872 3.84761905 36.29 3.96190476 36.632 4.15238095 36.974 4.38095238 37.278 4.64761905 37.43 4.99047619 37.62 5.33333333 37.734 5.79047619 37.772 6.4 37.81 6.97142857 37.81 7.58095238 37.81 8.22857143L37.81 15.3904762 36.29 15.3904762 36.29 8.26666667C36.29 7.92380952 36.29 7.58095238 36.252 7.2 36.252 6.85714286 36.176 6.55238095 36.1 6.24761905 36.024 5.98095238 35.872 5.75238095 35.682 5.56190476 35.492 5.37142857 35.226 5.2952381 34.884 5.2952381 34.466 5.2952381 34.162 5.40952381 33.896 5.67619048 33.668 5.94285714 33.478 6.24761905 33.364 6.59047619 33.25 6.97142857 33.174 7.35238095 33.136 7.77142857 33.098 8.19047619 33.098 8.57142857 33.098 8.87619048L33.098 15.3904762 31.54 15.3904762 31.54 4.11428571 31.464 4.11428571z"/>
  </g>
</svg>
