<svg xmlns="http://www.w3.org/2000/svg" width="60" height="60" viewBox="0 0 60 60">
  <g fill="#FFFFFF" transform="translate(18 18)">
    <path d="M23.875,2.03125 L23.875,11.875 C23.875,18.78125 18.484375,23.890625 11.78125,23.890625 L2.03125,23.890625 C0.984375,23.890625 0.125,23.03125 0.125,21.984375 L0.125,2.03125 C0.125,0.984375 0.984375,0.125 2.03125,0.125 L21.96875,0.125 C23.015625,0.125 23.875,0.984375 23.875,2.03125 Z M2.03125,0.125 C0.984375,0.125 0.125,0.984375 0.125,2.03125 L0.125,15.75 L7.921875,15.75 C12.359375,15.75 15.75,12.15625 15.75,7.90625 L15.75,0.125 L2.03125,0.125 Z"/>
    <path d="M2.03125,0.125 C0.984375,0.125 0.125,0.984375 0.125,2.03125 L0.125,15.75 L7.921875,15.75 C12.359375,15.75 15.75,12.15625 15.75,7.90625 L15.75,0.125 L2.03125,0.125 Z" opacity=".5"/>
  </g>
</svg>
