<svg xmlns="http://www.w3.org/2000/svg" width="60" height="60" viewBox="0 0 60 60">
  <g fill="#FFFFFF" transform="translate(16 16)">
    <path d="M9.61868952,4.74193573 L8.27285581,4.74193573 C6.30435575,4.74193573 4.70967692,6.33704996 4.70967692,8.30472308 L4.70967692,18.8335688 C5.99088041,19.6171214 7.4103075,19.9826107 8.54427067,20.1506065 C8.38537619,19.8317243 8.29601468,19.4730895 8.29601468,19.0952526 L8.29601468,10.7089664 C8.29601468,10.706418 8.29601873,10.7038705 8.2960268,10.7013239 C8.29558072,10.5623766 8.30038163,7.42991509 9.61868952,4.74193573 Z"/>
    <path d="M19.7713571,-0.507893626 L18.4255233,-0.507893626 C16.4570233,-0.507893626 14.8623445,1.08722061 14.8623445,3.05489372 L14.8623445,13.5837395 C16.143548,14.3672921 17.5629751,14.7327813 18.6969383,14.9007771 C18.5380437,14.5818949 18.4486823,14.2232601 18.4486823,13.8454233 L18.4486823,5.45913701 C18.4486823,5.45658859 18.4486863,5.45404111 18.4486944,5.45149458 C18.4482483,5.31254727 18.4530492,2.18008573 19.7713571,-0.507893626 Z" transform="rotate(90 17.317 7.196)"/>
    <path d="M24.9412704,9.61251564 L23.5954367,9.61251564 C21.6269366,9.61251564 20.0322578,11.2076299 20.0322578,13.175303 L20.0322578,23.7041487 C21.3134612,24.4877013 22.7328884,24.8531906 23.8668516,25.0211864 C23.7079571,24.7023042 23.6185956,24.3436694 23.6185956,23.9658326 L23.6185956,15.5795462 C23.6185956,15.5769979 23.6185996,15.5744504 23.6186077,15.5719039 C23.6181616,15.4329565 23.6229625,12.300495 24.9412704,9.61251564 Z" transform="rotate(180 22.487 17.317)"/>
    <path d="M14.8040038,14.782429 L13.4581701,14.782429 C11.48967,14.782429 9.89499116,16.3775433 9.89499116,18.3452164 L9.89499116,28.8740621 C11.1761946,29.6576147 12.5956217,30.023104 13.7295849,30.1910998 C13.5706905,29.8722174 13.4813289,29.5135828 13.4813289,29.1357459 L13.4813289,20.7494596 C13.4813289,20.7469112 13.481333,20.7443637 13.481341,20.7418172 C13.480895,20.6028699 13.4856959,17.4704084 14.8040038,14.782429 Z" transform="rotate(-90 12.35 22.487)"/>
    <path d="M16.423813,3.88578059e-15 L7.1462477,3.88578059e-15 C3.21196675,3.88578059e-15 0.012627252,3.18689069 3.72857266e-05,7.12293134 L0.0110565385,7.12259818 C0.0110565385,7.12259818 0.307523119,13.9483878 2.97572234,17.2128959 C3.16037186,17.4388123 3.35638,17.647673 3.56129033,17.840757 L3.56129033,8.31703122 C3.56129033,5.69050805 5.68319479,3.56129033 8.31703122,3.56129033 L10.3238068,3.56129033 C10.6643844,3.0813097 11.0625369,2.63831491 11.5279946,2.25787963 C12.7485676,1.26026172 14.5928504,0.527055356 16.423813,3.55271368e-15 L16.423813,3.88578059e-15 Z"/>
    <path d="M28.9709755,-0.708476889 L19.6934102,-0.708476889 C15.7591292,-0.708476889 12.5597898,2.47841381 12.5471999,6.41445446 L12.5582191,6.41412128 C12.5582191,6.41412128 12.8546856,13.2399109 15.5228849,16.504419 C15.7075344,16.7303353 15.9035425,16.9391962 16.1084528,17.1322801 L16.1084528,7.60855433 C16.1084528,4.98203115 18.2303573,2.85281343 20.8641937,2.85281343 L22.8709693,2.85281343 C23.211547,2.37283281 23.6096994,1.92983803 24.0751572,1.54940275 C25.2957301,0.551784833 27.140013,-0.181421533 28.9709755,-0.708476889 Z" transform="rotate(90 20.76 8.212)"/>
    <path d="M29.6818408,11.8387091 L20.4042754,11.8387091 C16.4699945,11.8387091 13.2706549,15.0255997 13.258065,18.9616404 L13.2690842,18.9613073 C13.2690842,18.9613073 13.5655508,25.7870969 16.23375,29.051605 C16.4183995,29.2775214 16.6144076,29.4863821 16.8193181,29.6794661 L16.8193181,20.1557404 C16.8193181,17.5292171 18.9412225,15.3999994 21.575059,15.3999994 L23.5818344,15.3999994 C23.9224121,14.9200188 24.3205645,14.477024 24.7860223,14.0965888 C26.0065952,13.0989708 27.8508781,12.3657644 29.6818408,11.8387091 Z" transform="rotate(180 21.47 20.76)"/>
    <path d="M17.1645245,12.5495745 L7.88695924,12.5495745 C3.95267829,12.5495745 0.753338789,15.7364652 0.740748824,19.6725059 L0.751768076,19.6721727 C0.751768076,19.6721727 1.04823466,26.4979624 3.71643388,29.7624705 C3.9010834,29.9883868 4.09709153,30.1972476 4.30200186,30.3903315 L4.30200186,20.8666057 C4.30200186,18.2400826 6.42390633,16.1108649 9.05774276,16.1108649 L11.0645183,16.1108649 C11.4050959,15.6308842 11.8032484,15.1878894 12.2687062,14.8074541 C13.4892791,13.8098362 15.333562,13.0766298 17.1645245,12.5495745 Z" transform="rotate(-90 8.953 21.47)"/>
  </g>
</svg>
