<svg xmlns="http://www.w3.org/2000/svg" width="60" height="60" viewBox="0 0 60 60">
  <g fill="#FFFFFF" transform="translate(15 15)">
    <path d="M14.9178082,21.3380282 C11.3424658,21.3380282 8.42465753,18.3380282 8.42465753,14.6619718 C8.42465753,10.9859155 11.3424658,8.02816901 14.9178082,8.02816901 C17.1780822,8.02816901 19.2328767,9.16901408 20.4246575,11.1549296 C20.630137,11.5774648 20.5479452,12.084507 20.1369863,12.3802817 C19.7260274,12.5915493 19.2328767,12.5070423 18.9452055,12.084507 C18.0410959,10.6478873 16.5205479,9.76056338 14.9178082,9.76056338 C12.2876712,9.76056338 10.1506849,11.9577465 10.1506849,14.6619718 C10.1506849,17.3661972 12.2876712,19.5633803 14.9178082,19.5633803 C16.3561644,19.5633803 17.2191781,18.6338028 18.3287671,17.3661972 C18.739726,16.9014085 19.1506849,16.4366197 19.6027397,15.971831 C19.9315068,15.6338028 20.5068493,15.6338028 20.7945205,16.0140845 C21.1232877,16.3521127 21.1232877,16.943662 20.7534247,17.2394366 C20.3013699,17.6619718 19.9315068,18.084507 19.5205479,18.5492958 C18.3287671,19.9859155 17.0958904,21.3380282 14.9178082,21.3380282 L14.9178082,21.3380282 Z"/>
    <path d="M20.5068493,21.084507 C20.0547945,21.084507 19.6849315,20.6619718 19.6849315,20.2394366 L19.6849315,16.4788732 L16.3150685,16.4788732 C15.8630137,16.4788732 15.4931507,16.056338 15.4931507,15.6338028 C15.4931507,15.2112676 15.9041096,14.7887324 16.3150685,14.7887324 L20.5068493,14.7887324 C20.9589041,14.7887324 21.3287671,15.2112676 21.3287671,15.6338028 L21.3287671,20.2394366 C21.4109589,20.7042254 21.0410959,21.084507 20.5068493,21.084507 L20.5068493,21.084507 Z"/>
    <path d="M16.2739726,29.7887324 C8.87671233,29.7887324 2.83561644,23.5774648 2.83561644,15.971831 C2.83561644,8.36619718 8.87671233,2.15492958 16.2739726,2.15492958 C23.6712329,2.15492958 29.7123288,8.36619718 29.7123288,15.971831 C29.7123288,23.5774648 23.6712329,29.7887324 16.2739726,29.7887324 L16.2739726,29.7887324 Z M16.2739726,3.12676056 C9.36986301,3.12676056 3.78082192,8.87323944 3.78082192,15.971831 C3.78082192,23.0704225 9.36986301,28.8169014 16.2739726,28.8169014 C23.1780822,28.8169014 28.7671233,23.0704225 28.7671233,15.971831 C28.7671233,8.87323944 23.1369863,3.12676056 16.2739726,3.12676056 L16.2739726,3.12676056 Z"/>
    <path d="M13.5205479,29.7887324 C6.12328767,29.7887324 0.0821917808,23.5774648 0.0821917808,15.971831 C0.0821917808,8.36619718 6.12328767,2.15492958 13.5205479,2.15492958 C20.9178082,2.15492958 26.9589041,8.36619718 26.9589041,15.971831 C26.9589041,23.5774648 20.9178082,29.7887324 13.5205479,29.7887324 L13.5205479,29.7887324 Z M13.5205479,3.12676056 C6.61643836,3.12676056 1.02739726,8.87323944 1.02739726,15.971831 C1.02739726,23.0704225 6.61643836,28.8169014 13.5205479,28.8169014 C20.4246575,28.8169014 26.0136986,23.0704225 26.0136986,15.971831 C26.0136986,8.87323944 20.4246575,3.12676056 13.5205479,3.12676056 Z"/>
    <path d="M14.9589041,27.7183099 C7.56164384,27.7183099 1.52054795,21.5070423 1.52054795,13.9014085 C1.52054795,6.29577465 7.56164384,0.0845070423 14.9589041,0.0845070423 C22.3561644,0.0845070423 28.3972603,6.29577465 28.3972603,13.9014085 C28.3972603,21.5070423 22.3561644,27.7183099 14.9589041,27.7183099 L14.9589041,27.7183099 Z M14.9589041,1.05633803 C8.05479452,1.05633803 2.46575342,6.8028169 2.46575342,13.9014085 C2.46575342,21 8.05479452,26.7464789 14.9589041,26.7464789 C21.8630137,26.7464789 27.4520548,21 27.4520548,13.9014085 C27.4520548,6.8028169 21.8630137,1.05633803 14.9589041,1.05633803 Z"/>
  </g>
</svg>
