<svg width="60" height="60" viewBox="0 0 60 60" xmlns="http://www.w3.org/2000/svg">
    <rect fill="transparent" x="0" y="0" width="60" height="60" rx="4.8"></rect>

    <g width="30" height="30" viewBox="0 0 30 30" transform="translate(15, 15)" fill="#FFFFFF">
        <path d="M 0 195.003 L 0 390.005 195.250 389.753 L 390.500 389.500 390.753 194.750 L 391.005 -0 195.503 -0 L 0 0 0 195.003 M 0.490 195.500 C 0.490 302.750, 0.607 346.477, 0.750 292.670 C 0.893 238.864, 0.893 151.114, 0.750 97.670 C 0.607 44.227, 0.490 88.250, 0.490 195.500 M 65 90.027 C 65 91.143, 70.292 98.448, 76.772 106.277 C 83.246 114.100, 89.546 121.798, 90.772 123.385 L 93 126.270 93 189.558 L 93 252.847 89.328 257.673 C 87.309 260.328, 80.334 268.904, 73.828 276.731 C 65.621 286.606, 62 291.733, 62 293.481 L 62 296 101 296 L 140 296 140 293.502 C 140 291.759, 135.619 285.699, 125.520 273.473 C 117.556 263.832, 110.577 255.078, 110.011 254.021 C 109.334 252.755, 109.071 234.259, 109.241 199.898 L 109.500 147.697 142.378 219.599 C 160.460 259.144, 175.900 292.538, 176.688 293.807 C 177.825 295.637, 178.853 296.050, 181.665 295.807 L 185.210 295.500 214.355 221.380 L 243.500 147.261 243.758 207.857 L 244.016 268.454 232.508 279.992 C 224.705 287.815, 221 292.250, 221 293.765 L 221 296 272.500 296 C 321.062 296, 324 295.899, 324 294.234 C 324 293.262, 318.825 287.307, 312.500 281 L 301 269.533 301 191.853 L 301 114.172 312.500 103.436 C 320.857 95.634, 324 92.057, 324 90.349 L 324 88 287.750 88.023 L 251.500 88.046 226.027 151.602 C 212.017 186.558, 200.317 215.303, 200.027 215.481 C 199.737 215.658, 186.450 187.062, 170.500 151.933 L 141.500 88.062 103.250 88.031 C 65.486 88, 65 88.026, 65 90.027 " stroke="none" fill="white" fill-rule="evenodd" transform="scale(0.07692307692307693) translate(0 0)"></path>
    </g>
</svg>