<svg xmlns="http://www.w3.org/2000/svg" width="60" height="60" viewBox="0 0 60 60">
  <path fill="#FFFFFF" d="M44.3894994,44 L37.3931624,44 C37.0512821,44 36.7826618,43.7245081 36.7826618,43.3738819 L36.7826618,16.6261181 C36.7826618,16.2754919 37.0512821,16 37.3931624,16 L44.3894994,16 C44.7313797,16 45,16.2754919 45,16.6261181 L45,43.3613596 C45,43.7119857 44.7191697,44 44.3894994,44 Z M33.5714286,43.9874776 L26.4163614,43.9874776 C26.1233211,43.9874776 25.8791209,43.7370304 25.8791209,43.4364937 L25.8791209,23.0876565 C25.8791209,22.7871199 26.1233211,22.5366726 26.4163614,22.5366726 L33.5714286,22.5366726 C33.8644689,22.5366726 34.1086691,22.7871199 34.1086691,23.0876565 L34.1086691,43.4490161 C34.1086691,43.7495528 33.8644689,43.9874776 33.5714286,43.9874776 Z M22.7777778,43.9874776 L15.4517705,43.9874776 C15.2075702,43.9874776 15,43.7871199 15,43.5241503 L15,29.3738819 C15,29.1234347 15.1953602,28.9105546 15.4517705,28.9105546 L22.7777778,28.9105546 C23.021978,28.9105546 23.2295482,29.1109123 23.2295482,29.3738819 L23.2295482,43.5241503 C23.2173382,43.7871199 23.021978,43.9874776 22.7777778,43.9874776 Z"/>
</svg>
