<svg xmlns="http://www.w3.org/2000/svg" width="60" height="60" viewBox="0 0 60 60">
  <path fill="#FFFFFF" fill-rule="evenodd" d="M22.7920218,15.8490566 L20.4163254,15.8490566 C16.6982139,15.8490566 13.6842105,18.864206 13.6842105,22.5849057 C13.6842105,22.6632648 13.6855476,22.7413112 13.6882003,22.8190234 C13.2171673,22.8784629 12.7371952,22.9090909 12.2500905,22.9090909 L1.57889918,22.9090909 C0.706897237,22.9090909 0,22.1999283 0,21.3242862 L0,11.4545454 C0,5.12837469 5.10880241,0 11.4118813,0 L12.2500905,0 C18.5526986,0 23.6619718,5.12876599 23.6619718,11.4545454 C23.6619718,13.0114619 23.3525379,14.4958293 22.7920217,15.8490568 L22.7920218,15.8490566 Z M10.2738193,17.6060606 C10.4804114,17.6060606 10.6478873,17.4380115 10.6478873,17.2304845 L10.6478873,10.7881773 C10.6478873,10.4767246 10.3967525,10.2242424 10.0866594,10.2242424 L6.7120225,10.2242424 C6.50547114,10.2242424 6.33802816,10.3924368 6.33802816,10.5998218 L6.33802816,11.1873836 C6.33802816,11.3948104 6.50551079,11.5629629 6.71199333,11.5629629 L8.94058882,11.5629629 C9.14712408,11.5629629 9.31455399,11.7308972 9.31455399,11.9387025 L9.31455399,17.230321 C9.31455399,17.4378363 9.48207149,17.6060606 9.68862197,17.6060606 L10.2738193,17.6060606 Z M13.5023474,11.9387025 C13.5023474,11.7311873 13.66983,11.5629629 13.8763126,11.5629629 L16.1049081,11.5629629 C16.3114433,11.5629629 16.4788732,11.3947686 16.4788732,11.1873836 L16.4788732,10.5998218 C16.4788732,10.392395 16.3112444,10.2242424 16.1048789,10.2242424 L12.730242,10.2242424 C12.4202844,10.2242424 12.1690141,10.4762058 12.1690141,10.7881773 L12.1690141,17.2304845 C12.1690141,17.4379094 12.3365316,17.6060606 12.5430821,17.6060606 L13.1282794,17.6060606 C13.3348715,17.6060606 13.5023474,17.4381264 13.5023474,17.230321 L13.5023474,11.9387025 Z M6.33802816,7.79982181 L6.33802816,8.38738358 C6.33802816,8.59476862 6.50567991,8.76296294 6.71248886,8.76296294 L16.1044125,8.76296294 C16.3113207,8.76296294 16.4788732,8.59481035 16.4788732,8.38738358 L16.4788732,7.79982181 C16.4788732,7.59243677 16.3112215,7.42424244 16.1044125,7.42424244 L6.71248886,7.42424244 C6.5055807,7.42424244 6.33802816,7.59239503 6.33802816,7.79982181 Z M30,22.4848485 L30,26.413757 C30,27.2890031 29.2936414,28 28.422304,28 L20.2857243,28 C17.2495914,28 14.7887324,25.5307826 14.7887324,22.4848485 C14.7887324,19.4382447 17.2498195,16.9696969 20.2857243,16.9696969 L24.5030081,16.9696969 C27.539141,16.9696969 30,19.4389144 30,22.4848485 Z M19.0968187,23.3333333 C19.537428,23.3333333 19.8946124,22.9771962 19.8946124,22.5378788 C19.8946124,22.0985614 19.537428,21.7424242 19.0968187,21.7424242 C18.6562093,21.7424242 18.2990249,22.0985614 18.2990249,22.5378788 C18.2990249,22.9771962 18.6562093,23.3333333 19.0968187,23.3333333 Z M22.3943662,23.3333333 C22.8349755,23.3333333 23.19216,22.9771962 23.19216,22.5378788 C23.19216,22.0985614 22.8349755,21.7424242 22.3943662,21.7424242 C21.9537569,21.7424242 21.5965725,22.0985614 21.5965725,22.5378788 C21.5965725,22.9771962 21.9537569,23.3333333 22.3943662,23.3333333 Z M25.6919137,23.3333333 C26.132523,23.3333333 26.4897075,22.9771962 26.4897075,22.5378788 C26.4897075,22.0985614 26.132523,21.7424242 25.6919137,21.7424242 C25.2513044,21.7424242 24.89412,22.0985614 24.89412,22.5378788 C24.89412,22.9771962 25.2513044,23.3333333 25.6919137,23.3333333 Z" transform="translate(15 16)"/>
</svg>
