<svg xmlns="http://www.w3.org/2000/svg" width="60" height="60" viewBox="0 0 60 60">
  <path fill="#FFFFFF" fill-rule="evenodd" d="M39.5174247,29.0988048 L39.5174247,35.85251 C39.5174247,40.2401594 35.8011263,43.2071713 30.49858,43.2071713 C25.1960337,43.2071713 20.4825753,40.2401594 20.4825753,35.85251 L20.4825753,32.1959761 L20.4825753,31.7658167 C20.4825753,30.6474502 21.434324,29.7441036 22.6127515,29.7441036 L24.8787841,29.7441036 L28.6403679,29.7441036 C29.6828133,29.7441036 30.49858,30.5183665 30.49858,31.5077689 C30.49858,32.4971713 29.6374021,33.2714343 28.6403679,33.2714343 L25.3320157,33.2714343 C24.9693549,33.2714343 24.6521053,33.57251 24.6521053,33.9167331 C24.6521053,34.2608367 24.9693549,34.5619124 25.3320157,34.5619124 L27.5980483,34.5619124 C28.8216354,34.5619124 29.8186696,35.5082869 29.8186696,36.6267729 L29.8186696,38.0893625 C29.8186696,38.4334661 30.136045,38.7346614 30.49858,38.7346614 C30.861115,38.7346614 31.1783646,38.4334661 31.1783646,38.0893625 L31.1783646,36.6698008 C31.1783646,35.7234263 30.7704184,34.8631076 30.0906338,34.2608367 C30.49858,34.0887251 30.8158296,33.7876494 31.1330792,33.4865737 C31.5863108,33.7015936 32.0848279,33.8306773 32.583345,33.8306773 C34.3508605,33.8306773 35.8011263,32.4541434 35.8011263,30.7764143 L35.8011263,29.1418327 L37.3968087,18.556494 C37.3968087,17.5670916 38.2578608,16.7928287 39.254895,16.7928287 C40.2519292,16.7928287 41.1131071,17.5670916 41.1131071,18.556494 L39.5174247,29.0988048 Z M20.745105,16.7928287 C21.7421392,16.7928287 22.6033171,17.5670916 22.6033171,18.556494 L24.1988737,28.4965339 L22.6127515,28.4965339 C21.796859,28.4965339 21.071789,28.7547012 20.4825753,29.1848606 L20.4825753,29.1418327 L18.8868929,18.556494 C18.8868929,17.5670916 19.7480708,16.7928287 20.745105,16.7928287 L20.745105,16.7928287 Z M25.6038541,24.4960159 C25.5585687,23.5926693 26.4196208,22.775259 27.4620662,22.775259 C28.5043858,22.775259 29.3201525,23.5496414 29.3201525,24.5390438 L29.3201525,28.4965339 C29.0935996,28.453506 28.8670466,28.4104781 28.6403679,28.4104781 L25.6038541,28.4104781 L25.6038541,24.4960159 Z M30.6345621,24.5390438 C30.6798475,23.5926693 31.5408996,22.775259 32.5379338,22.775259 C33.5803792,22.775259 34.3961459,23.5496414 34.3961459,24.5390438 L34.3961459,29.0988048 L34.3961459,30.733506 C34.3961459,31.7227888 33.5350938,32.4971713 32.5379338,32.4971713 C32.2660954,32.4971713 31.9941313,32.4111155 31.7221671,32.3250598 C31.8128638,32.067012 31.8128638,31.8088446 31.8128638,31.5507968 C31.8128638,30.6044223 31.3596321,29.7441036 30.6345621,29.1848606 L30.6345621,24.5390438 Z M39.254895,15 C37.2425867,15 35.5959582,16.5150598 35.5130607,18.4072112 L34.9964294,21.8352191 C34.3430613,21.3014343 33.4870409,20.9824303 32.5379338,20.9824303 C31.5830402,20.9824303 30.6962006,21.3388446 30.0205671,21.9201992 C29.3558777,21.3353785 28.4603583,20.9824303 27.4620662,20.9824303 C26.5766103,20.9824303 25.7135455,21.2831474 25.035522,21.8181275 L24.4864361,18.3975299 C24.3986327,16.5099203 22.7540169,15 20.745105,15 C18.6800894,15 17,16.5953785 17,18.556494 L17,18.6842629 L18.5956824,29.2696016 L18.5956824,35.8523904 C18.5956824,38.5042231 19.9404081,40.9069721 22.3821732,42.6180478 C24.5741138,44.1540239 27.4565313,45 30.49858,45 C33.5642777,45 36.2347343,44.149004 38.2210035,42.5392829 C40.2738172,40.8754183 41.4043176,38.500757 41.4043176,35.8523904 L41.4043176,29.2270518 L43,18.684741 L43,18.556494 C43,16.5953785 41.3199106,15 39.254895,15 L39.254895,15 Z"/>
</svg>
