<svg xmlns="http://www.w3.org/2000/svg" width="60" height="60" viewBox="0 0 60 60">
  <g fill="#FFFFFF" fill-rule="evenodd" transform="translate(17 15)">
    <path d="M17.2795031,24.3243243 L15.9875776,24.3243243 C15.0496398,23.5065405 14.1247826,22.673027 13.1710186,21.8743784 C11.4309565,20.417027 9.67329193,18.9807568 7.92386335,17.5345946 C6.5242236,16.3774054 5.10762733,15.2396757 3.73301863,14.0532973 C2.72886957,13.1865405 1.78059627,12.2542703 0.807453416,11.3513514 L0.807453416,10.5405405 C1.93853416,9.14464865 3.05685714,7.73789189 4.20392547,6.35513514 C5.96821118,4.22805405 7.75219876,2.11751351 9.52795031,0 L10.6583851,0 C11.6450932,0.830432432 12.627118,1.66637838 13.6189938,2.49048649 C17.4721615,5.69156757 21.3303354,8.88664865 25.1817267,12.0898378 C26.0629814,12.8226486 26.095118,13.4622162 25.3730932,14.3712973 C24.8067453,15.0846486 24.2943354,15.8416216 23.7182981,16.5467027 C22.3462733,18.2258919 20.9495404,19.884973 19.5649193,21.5541081 C18.8007453,22.4753514 18.0412547,23.4008108 17.2795031,24.3243243"/>
    <path d="M15.9875776,26.1031946 C14.976,25.4509784 13.980087,24.7729784 12.9502609,24.1514108 C9.60772671,22.1342757 6.23870807,20.1614108 2.91264596,18.1176811 C2.04204969,17.5827081 1.29063354,16.8520054 0.48447205,16.2113027 L0.48447205,15.7248162 L2.43091925,13.5455189 C4.03791304,14.8705459 5.61163975,16.1605459 7.17713043,17.4604378 C10.0477888,19.8438973 12.9121491,22.2353027 15.7828075,24.6187622 C16.3935652,25.1258432 17.0456646,25.0830324 17.5461242,24.4812486 C19.4011677,22.2511946 21.2397391,20.0073568 23.0957516,17.7781135 C23.3297516,17.4972486 23.6307702,17.2726541 23.9006211,17.0221135 L23.9006211,17.3464378 C22.4391304,19.349627 20.9931429,21.3646541 19.5093665,23.3509784 C18.8031677,24.2963838 18.0251056,25.1874649 17.2795031,26.1031946 L15.9875776,26.1031946 Z" opacity=".8"/>
    <path d="M15.9875776,28.2162162 C15.1051925,27.8322162 14.2342733,27.4191892 13.338646,27.0694054 C9.99578882,25.7643243 6.63807453,24.497027 3.30070807,23.1778378 C2.2308323,22.7549189 1.20665839,22.2157297 0.161490683,21.7297297 L0.161490683,21.2432432 L2.58385093,18.8108108 L2.9068323,18.8108108 C3.96831056,19.4871892 5.01864596,20.1822162 6.09352795,20.8365405 C9.21288199,22.7352973 12.341764,24.6184865 15.4688696,26.5044324 C15.6723478,26.6271892 15.8869689,26.7355135 16.1059503,26.8277838 C16.7750062,27.1092973 17.3132547,26.9708108 17.724087,26.4102162 C18.5851553,25.2351892 19.4232919,24.0424865 20.3131056,22.89 C20.5007578,22.6469189 20.869764,22.5452432 21.1552795,22.3783784 L21.1552795,22.5405405 C21.0039627,22.7130811 20.8274534,22.8694054 20.7053665,23.0607568 C19.6117516,24.7756216 18.5278261,26.4968108 17.4409938,28.2162162 L15.9875776,28.2162162 Z" opacity=".6"/>
    <path d="M3.73763727,23.8378378 C4.64376149,24.2224865 5.54164969,24.6285405 6.45762484,24.9877297 C9.66256894,26.2446486 12.8751031,27.4819459 16.0818236,28.7348108 C16.9569416,29.0766486 17.4617615,28.938 17.972072,28.1766486 C18.1782957,27.8688649 18.3643329,27.54 18.614159,27.2721081 C18.7703205,27.1047568 19.0283826,27.0334054 19.2407429,26.9189189 L19.2407429,27.0810811 C19.1159106,27.2648108 18.9734758,27.438973 18.8691528,27.6338919 C18.4483081,28.4190811 18.0392522,29.2107568 17.625836,30 L15.8494385,30 C15.7552894,29.9534595 15.6656621,29.8821081 15.5665068,29.8641081 C11.5917366,29.1431351 7.61567453,28.4292973 3.64090435,27.7084865 C2.48850683,27.4994595 1.33933913,27.2717838 -6.45962733e-05,27.0167027 C0.2496,26.6766486 0.376208696,26.4327568 0.566121739,26.2576216 C1.45222112,25.4406486 2.35576149,24.6426486 3.25316522,23.8378378 L3.73763727,23.8378378 Z" opacity=".4"/>
  </g>
</svg>
