<svg xmlns="http://www.w3.org/2000/svg" width="60" height="60" viewBox="0 0 60 60">
  <path fill="#FFFFFF" fill-rule="evenodd" d="M18.0005794,31.2194264 C18.2323926,26.3691139 20.3708115,21.3443523 25.0331266,17.4630745 C26.6716249,16.0988884 28.5492539,15.2334954 30.7005512,15.0416299 C33.0412213,14.8329192 35.1568101,15.3936687 36.8494567,17.0710637 C38.8637735,19.0670924 38.6998652,22.3824814 36.5239815,24.1875011 C35.8812266,24.7211269 35.1799329,24.8407572 34.6533772,24.5067058 C34.1110161,24.1629469 33.9356927,23.5725039 34.2734611,22.7202445 C34.7113306,21.6161617 34.9308507,20.5431999 34.3817577,19.4137064 C33.6470969,17.9019096 32.3165122,17.2934791 30.7827981,18.032104 C29.7592489,18.5251867 28.7617494,19.2155597 27.9890385,20.0307022 C25.6123671,22.537801 24.3051978,25.5953709 23.6120995,28.9121874 C23.1891574,30.936482 23.1353018,32.9684854 23.5930745,35.0002033 C23.9012807,36.3686721 24.4872532,37.6118002 25.3588945,38.7207367 C27.0828593,40.9140556 29.5048982,41.7391911 32.2333872,40.9665902 C34.938168,40.200556 37.1708342,38.7430068 38.7177195,36.3900856 C39.0069007,35.9501085 39.2603733,35.4841496 39.5837996,35.0698687 C40.0567923,34.4637224 40.663546,34.3249626 41.2462988,34.6256089 C41.793343,34.9076967 42.1074031,35.5780837 41.9663249,36.1999333 C41.9244697,36.3838043 41.8559794,36.5691029 41.7620248,36.7327025 C39.5799946,40.5294682 36.5471043,43.3594833 32.1716289,44.5891923 C26.7491887,46.1135517 21.9504784,43.1581959 19.8703056,39.6309555 C18.5801125,37.4436324 17.9786273,35.1329673 18.0005794,31.2194264"/>
</svg>
