<svg xmlns="http://www.w3.org/2000/svg" width="60" height="60" viewBox="0 0 60 60">
  <g fill="#FFFFFF" fill-rule="evenodd" transform="translate(14 19)">
    <path d="M32 .847514286C25.8528571 7.53065714 19.7082857 14.2158 13.5525714 20.8909429 13.176 21.2992286 12.71 21.6258 12.2857143 21.9903714L11.4285714 21.9903714C11.2874286 21.8786571 11.1488571 21.7640857 11.0048571 21.6560857 9.73885714 20.7060857 9.62485714 19.6612286 10.7528571 18.5632286 11.8405714 17.5038 12.9934286 16.5106571 14.1211429 15.4923714 19.5137143 10.6246571 24.9085714 5.7598 30.2988571.889514286 30.8085714.429228571 31.2931429-.0519142857 32 .5618L32 .847514286zM0 4.84751429L22.978 4.84751429C23.0328571 4.93008571 23.0877143 5.01237143 23.1422857 5.09494286 21.8548571 6.14094286 20.5882857 7.21465714 19.2614286 8.20808571 19.0102857 8.39608571 18.5208571 8.2798 18.1411429 8.28008571 12.0942857 8.28094286 6.04714286 8.27808571 0 8.27608571L0 4.84751429zM3.91157143 3.53514286L3.91157143.123142857 29.3338571.123142857C27.933 1.29571429 26.6578571 2.39142857 25.343 3.43714286 25.1155714 3.618 24.7198571 3.64514286 24.4018571 3.64542857 17.7035714 3.654 11.0055714 3.64857143 4.30728571 3.64257143 4.217 3.64228571 4.12671429 3.59514286 3.91157143 3.53514286M18.3696857 9.55011429C16.9854 10.7069714 15.8356857 11.6918286 14.6542571 12.6369714 14.3794 12.8569714 13.9979714 13.0635429 13.6622571 13.0692571 11.3945429 13.1066857 9.12568571 13.0886857 6.7674 13.0886857L6.7674 9.55011429 18.3696857 9.55011429z"/>
  </g>
</svg>
