<svg xmlns="http://www.w3.org/2000/svg" width="60" height="60" viewBox="0 0 60 60">
  <g fill="#FFFFFF" fill-rule="evenodd">
    <path d="M15,16.9918842 C15,15.8917969 15.8933973,15 16.9918842,15 L30,15 L30,30 L15,30 L15,16.9918842 Z M26.8451613,17 L19,17 L19,28 L27,28 L27,25.9609756 L21.3225806,25.9609756 L21.3225806,23.2780488 L26.4322581,23.2780488 L26.4322581,21.4 L21.3225806,21.4 L21.3225806,19.0390244 L26.8451613,19.0390244 L26.8451613,17 Z"/>
    <path d="M30,15 L43.0081158,15 C44.1082031,15 45,15.8933973 45,16.9918842 L45,30 L30,30 L30,15 Z M41.9767442,21.4416404 L41.0813953,18.9432177 C40.8895349,18.4574132 40.5697674,18.0410095 39.8662791,18.0410095 L38.5872093,18.0410095 L38.5872093,17.2776025 C38.5872093,17.1388013 38.4593023,17 38.3953488,17 L36.6046512,17 C36.4767442,17 36.4127907,17.1388013 36.4127907,17.2776025 L36.4127907,18.0410095 L35.1337209,18.0410095 C34.4302326,18.0410095 34.0465116,18.4574132 33.9186047,18.9432177 L32.9593023,21.4416404 C32.6395349,21.511041 32,21.9274448 32,22.829653 L32,26.022082 L32.8953488,26.022082 L32.8953488,27.0630915 C32.8953488,28.3123028 34.5581395,28.3123028 34.5581395,27.0630915 L34.5581395,26.022082 L37.5,26.022082 L40.4418605,26.022082 L40.4418605,27.0630915 C40.4418605,28.3123028 42.1046512,28.3123028 42.1046512,27.0630915 L42.1046512,26.022082 L43,26.022082 L43,22.829653 C42.9360465,21.9274448 42.2965116,21.511041 41.9767442,21.4416404 Z M33.7267442,24.0788644 C33.2790698,24.0788644 32.9593023,23.7318612 32.9593023,23.2460568 C32.9593023,22.7602524 33.2790698,22.4132492 33.7267442,22.4132492 C34.1744186,22.4132492 34.494186,22.829653 34.494186,23.2460568 C34.494186,23.7318612 34.1744186,24.0788644 33.7267442,24.0788644 Z M37.5,21.4416404 L33.9186047,21.4416404 L34.622093,19.4290221 C34.6860465,19.1514196 34.8139535,18.9432177 35.1337209,18.9432177 L37.5,18.9432177 L39.8662791,18.9432177 C40.1860465,18.9432177 40.3139535,19.1514196 40.377907,19.4290221 L41.0174419,21.4416404 L37.5,21.4416404 Z M41.2093023,24.0788644 C40.7616279,24.0788644 40.4418605,23.7318612 40.4418605,23.2460568 C40.4418605,22.7602524 40.7616279,22.4132492 41.2093023,22.4132492 C41.6569767,22.4132492 41.9767442,22.829653 41.9767442,23.2460568 C41.9767442,23.7318612 41.6569767,24.0788644 41.2093023,24.0788644 Z" opacity=".8"/>
    <path d="M15,30 L30,30 L30,45 L16.9918842,45 C15.8917969,45 15,44.1066027 15,43.0081158 L15,30 Z M26.8122082,32.1963302 L23.9989177,34.9142345 L17.9606358,33.4873347 L17,34.4386013 L22.0776462,36.9526628 L20.019141,38.9910911 L18.4409536,38.7872482 L17.6175516,39.6026195 L19.4015894,40.5538861 L20.3622252,42.3205239 L21.1170104,41.5731002 L20.9111599,40.0103052 L22.9696651,37.9718769 L25.5084882,43 L26.5377408,41.9807859 L25.0281703,35.9334487 L27.7728439,33.2155443 C28.4590123,32.5360682 27.4297597,31.5848017 26.8122082,32.1963302 Z" opacity=".6"/>
    <path d="M30,30 L45,30 L45,43.0081158 C45,44.1082031 44.1066027,45 43.0081158,45 L30,45 L30,30 Z M37.7692308,35.9008746 L37.7692308,35.9008746 L37.7692308,32.2623907 C37.7692308,31.9825073 37.3736264,31.9825073 37.3736264,32.2623907 L37.3736264,34.9212828 L36.978022,34.9212828 L36.978022,32.2623907 C36.978022,31.9825073 36.5824176,31.9825073 36.5824176,32.2623907 L36.5824176,34.9212828 L36.1868132,34.9212828 L36.1868132,32.2623907 C36.1868132,31.9825073 35.7912088,31.9825073 35.7912088,32.2623907 L35.7912088,34.9212828 L35.4615385,34.9212828 L35.4615385,32.2623907 C35.4615385,31.9125364 35,31.9825073 35,32.2623907 L35,35.9008746 C35,36.3906706 35.3956044,36.7405248 35.7912088,36.7405248 L35.7912088,43.3177843 C35.7912088,44.2274052 36.978022,44.2274052 36.978022,43.3177843 L36.978022,36.7405248 C37.4395604,36.7405248 37.7692308,36.3206997 37.7692308,35.9008746 Z M41,33.1020408 C41,31.6326531 39.1538462,31.6326531 39.1538462,33.1020408 L39.1538462,39.2594752 L39.8131868,39.2594752 L39.8131868,43.3177843 C39.8131868,44.2274052 41,44.2274052 41,43.3177843 L41,33.1020408 Z" opacity=".4"/>
  </g>
</svg>
