<svg xmlns="http://www.w3.org/2000/svg" width="60" height="60" viewBox="0 0 60 60">
  <path fill="#FFFFFF" fill-rule="evenodd" d="M44.3358701,39.6840354 L44.3358701,18.0914791 C44.3358701,16.9258237 43.4030087,16 42.2522659,16 L18.0836042,16 C16.9427851,16 16,16.9363871 16,18.0914791 L16,41.7346079 C16,42.9002632 16.9328614,43.826087 18.0836042,43.826087 L35.8074876,43.826087 L30.2422702,38.2608696 L21.667174,38.2608696 L21.667174,21.5652174 L38.6686961,21.5652174 L38.6686961,34.0168613 L34.5266445,29.8748097 L30.3144977,29.9130435 L30.276264,34.1251903 L43.2109692,47.0598955 C43.7421534,47.5910797 44.6306678,47.5968733 45.1751135,47.0524277 L47.4538819,44.7736592 C48.0008315,44.2267097 48.001671,43.3498363 47.4613497,42.809515 L44.3358701,39.6840354 Z"/>
</svg>
