<svg xmlns="http://www.w3.org/2000/svg" width="60" height="60" viewBox="0 0 60 60">
  <g fill="#FFFFFF" transform="translate(15 15)">
    <path d="M14.8770652,29.9032584 L0,14.5247191 L0.805434783,14.0807865 L14.8770652,6.32460674 L29.7547826,14.5247191 L14.8770652,29.9032584 L14.8770652,29.9032584 Z M14.8777174,26.198764 L27.5259783,14.5247191 L14.8777174,7.0041573 L2.22945652,14.5247191 L14.8777174,26.198764 Z"/>
    <path d="M20.6631522,15.0913483 L22.2697826,16.2835955 L22.2088043,11.0635955 L16.4501087,11.9629213 L17.6109783,12.8248315 C15.7620652,14.6642697 14.5121739,17.4155056 13.8903261,20.3538202 C13.4152174,22.6021348 13.3483696,27.2494382 13.6183696,28.1962921 L14.6592391,29.7144944 L15.1043478,29.3180899 C15.0544565,28.3378652 15.1636957,27.2349438 15.1636957,27.2349438 L15.2038043,27.2073034 C14.8046739,22.2825843 17.2229348,17.8735955 20.6631522,15.0913483 Z" opacity=".6"/>
    <path d="M20.5633696,6.4452809 L23.4661957,8.02348315 L21.9482609,0 L12.948587,2.30629213 L15.0466304,3.44595506 C12.5794565,6.57168539 11.321413,11.0059551 11.1225,15.6262921 C10.9708696,19.1629213 12.1284783,26.3238202 12.8191304,27.7368539 L14.9038043,29.9069663 L15.51,29.2257303 C15.1633696,27.7253933 15.0391304,26.0116854 15.0391304,26.0116854 C15.0391304,26.0116854 13.886413,13.3473034 20.5633696,6.4452809 Z"/>
    <path d="M15.183913,7.03314607 L1.50097826,14.1053933 C1.50097826,14.1053933 13.3992391,27.9421348 14.1427174,27.788427 C14.8861957,27.6347191 28.1230435,14.412809 28.1230435,14.412809 L15.183913,7.03314607 Z" opacity=".2"/>
  </g>
</svg>
