<svg xmlns="http://www.w3.org/2000/svg" width="60" height="60" viewBox="0 0 60 60">
  <g fill="#FFFFFF" transform="translate(13 13)">
    <path d="M12.4858359,7.81548437 L16.2781641,14.3833281 C16.8972936,14.218012 17.5549162,14.2766669 18.1350156,14.5489453 L20.1286641,11.0960859 L16.7963984,5.32591406 L12.4467891,7.83779687 L12.4470547,7.83779687 L12.4858359,7.81548437 L12.4858359,7.81548437 Z M6.76905469,16.3117656 L14.3553047,16.3117656 C14.4158666,16.0810471 14.5066081,15.8593288 14.6251797,15.6523516 C14.8244964,15.3072247 15.0976043,15.0103978 15.4249766,14.7830937 L13.4317266,11.3312969 L6.7670625,11.3312969 L6.7670625,16.3546641 L6.76905469,16.3546641 L6.76905469,16.3117656 Z M19.3418828,18.3756719 C19.1428109,18.7201102 18.8702807,19.0164471 18.5436797,19.2436016 L20.5385234,22.6983203 L27.2013281,22.6983203 L27.2013281,17.7185156 L19.6121563,17.7185156 C19.5506792,17.9483141 19.4598397,18.1692304 19.3418828,18.3758047 L19.3418828,18.3756719 Z M18.9063906,15.0894922 C19.3606231,15.5423135 19.6400688,16.1411929 19.6952969,16.7801953 L23.6811328,16.7801953 L27.0133984,11.0097578 L22.7009766,8.51925781 L18.9065234,15.0894922 L18.9063906,15.0894922 Z M11.26675,25.5110234 L15.0612031,18.938 C14.6090717,18.4850313 14.3301744,17.8878037 14.2730938,17.2503516 L10.2851328,17.2503516 L6.95286719,23.018 L11.3014141,25.5316094 L11.26675,25.5110234 Z M21.4828203,26.2129375 L17.6912891,19.6448281 C17.0720238,19.8120595 16.4134781,19.7537365 15.8332422,19.4802734 L13.8390625,22.9341953 L17.1693359,28.7029062 L21.5192109,26.1920859 L21.4828203,26.2129375 L21.4828203,26.2129375 Z"/>
    <path d="M16.9852578,0.0309453125 C7.61971875,0.0309453125 0,7.64867188 0,17.01275 C0,26.3794844 7.61971875,34 16.9852578,34 C26.35,34 33.9679922,26.3794844 33.9679922,17.01275 C33.968125,7.64867188 26.35,0.0309453125 16.9853906,0.0309453125 L16.9852578,0.0309453125 Z M16.9852578,3.46946094 C24.4652578,3.46946094 30.5289453,9.53235156 30.5289453,17.01275 C30.5289453,24.4951406 24.4652578,30.5612188 16.9852578,30.5612188 C9.50419531,30.5612188 3.43944531,24.4951406 3.43944531,17.01275 C3.43944531,9.53235156 9.50419531,3.46932812 16.9852578,3.46932812 L16.9852578,3.46946094 Z"/>
  </g>
</svg>
