<svg xmlns="http://www.w3.org/2000/svg" width="60" height="60" viewBox="0 0 60 60">
  <path fill="#FFFFFF" d="M35.4023477,21.7718838 C32.6396597,19.0386521 28.0228268,19.6849285 26.1224607,23.0707268 L23.2268102,28.0926087 C23.1296628,28.2608187 23.1327892,28.4685453 23.234955,28.6337764 L26.2841334,33.5621156 L21.7255353,30.8396384 L15.2443767,42.2914122 C14.3403132,43.8887395 16.1197302,45.6587454 17.7209816,44.7547702 L22.6566801,41.9683755 L21.0189811,38.7838664 L24.2565061,40.6242829 C24.4778143,40.7501233 24.7491808,40.7508938 24.971205,40.6263121 L35.0431656,34.9756042 L32.3594814,30.0557873 C32.3594814,30.0557873 36.8653424,32.6287181 37.9215086,33.2220343 C40.4740629,31.0368693 40.7241057,27.036652 38.2212342,24.5607134 L35.4023477,21.7718838 Z M44.4364677,21.908241 C43.8109535,21.5259538 42.9932239,21.2893578 42.0802011,21.1256074 L43.7433523,17.1775385 C43.9638705,16.6540242 43.4446448,16.1232051 42.9138129,16.32977 L39.0171767,17.8461353 C38.9860231,17.1805822 38.6398727,16.3794836 38.1603524,15.5211636 C37.8997215,14.8142164 36.8905911,14.8304494 36.6533762,15.545716 C36.3852114,16.9271445 35.8684291,18.403536 35.194861,19.9397866 C36.8044607,21.2995034 38.4380873,22.8887143 40.1057181,24.8084696 C41.7136888,24.1662515 43.2072263,23.6567381 44.4203819,23.4718848 C45.1849672,23.234883 45.1959626,22.1604612 44.4364677,21.908241 L44.4364677,21.908241 Z"/>
</svg>
