<svg xmlns="http://www.w3.org/2000/svg" width="60" height="60" viewBox="0 0 60 60" xmlns:xlink="http://www.w3.org/1999/xlink">
  <defs>
    <polygon id="a" points="27.697 0 27.697 29.66 0 29.66 0 0"/>
  </defs>
  <g fill="none" fill-rule="evenodd" transform="translate(16 15)">
    <mask id="b" fill="white">
      <use xlink:href="#a"/>
    </mask>
    <path fill="#FEFEFE" d="M6.93976316,27.4035375 C6.94344737,27.4061625 6.94713158,27.4084125 6.95081579,27.4110375 C6.94713158,27.4084125 6.94344737,27.4061625 6.93976316,27.4035375 M1.54460526,29.6602875 C1.0255,29.6602875 0.647131579,29.4829125 0.340973684,29.0861625 C-0.308552632,28.2217875 -0.0525,27.1106625 1.30365789,23.1457875 C1.46355263,22.6777875 1.65107895,22.1299125 1.76123684,21.7751625 C0.637184211,19.6545375 0.0650263158,17.3115375 0.0650263158,14.8125375 C0.0650263158,6.6450375 6.59344737,3.75e-05 14.6176579,3.75e-05 C19.2977105,3.75e-05 23.7117632,2.3081625 26.4251842,6.1747875 C26.8389211,6.7642875 26.7048158,7.5840375 26.1252895,8.0055375 C25.5457632,8.4266625 24.7403947,8.2901625 24.3262895,7.7002875 C22.0962368,4.5221625 18.4669211,2.6250375 14.6176579,2.6250375 C8.01555263,2.6250375 2.64397368,8.0921625 2.64397368,14.8125375 C2.64397368,17.0134125 3.17965789,19.0612875 4.23592105,20.8999125 C4.58813158,21.5265375 4.45844737,21.9052875 3.73892105,24.0082875 C3.51418421,24.6660375 3.14428947,25.7475375 2.88307895,26.6347875 C3.57939474,26.3801625 4.38071053,26.0572875 4.92671053,25.8371625 C7.16413158,24.9360375 7.63018421,24.7470375 8.30144737,25.1745375 C10.1973421,26.3674125 12.3831842,27.0000375 14.6176579,27.0000375 C19.1135,27.0000375 23.1922895,24.4699125 25.2617105,20.3970375 C25.5888684,19.7531625 26.3669737,19.5011625 26.9995526,19.8341625 C27.6321316,20.1671625 27.8797105,20.9591625 27.5525526,21.6030375 C25.0380789,26.5511625 20.0817105,29.6250375 14.6176579,29.6250375 C12.0821842,29.6250375 9.59828947,28.9545375 7.39955263,27.6814125 C7.00313158,27.8239125 6.37239474,28.0781625 5.87576316,28.2780375 C3.76876316,29.1270375 2.44465789,29.6602875 1.54460526,29.6602875" mask="url(#b)"/>
  </g>
</svg>
