<svg xmlns="http://www.w3.org/2000/svg" width="60" height="60" viewBox="0 0 60 60">
  <g fill="#FFFFFF" fill-rule="evenodd" transform="translate(12 20)">
    <path d="M32.5799452,0 C32.8156884,0.239289941 32.8086372,0.345601578 32.5440627,0.551676529 C28.580067,3.63940828 24.615993,6.7270217 20.6526242,9.81558185 C20.5444283,9.89984221 20.4474751,9.99877712 20.3389267,10.0824852 C19.8065262,10.4930572 19.3129462,10.4891124 18.7868918,10.0738856 C17.9345262,9.40114398 17.0854903,8.72406312 16.2292857,8.05633136 C13.5104435,5.93597633 10.7889375,3.81905325 8.06841088,1.70086785 C7.57287225,1.31502959 7.07639347,0.930335306 6.58175582,0.543274162 C6.34260457,0.356134122 6.34056757,0.200078895 6.56906376,0 L32.5799452,0 Z M6.45154472,20 C5.96070686,19.8469034 5.59228466,19.5476529 5.52236083,19.0203156 C5.46947726,18.6213412 5.51190163,18.2095464 5.51190163,17.7785799 C5.6106568,17.797002 5.71583634,17.8128205 5.8192531,17.836568 C6.92773188,18.0909665 8.05113558,18.2273373 9.18617367,18.2780276 C12.3338429,18.4185799 15.413351,18.029783 18.4269702,17.0983037 C20.1985306,16.5507298 21.9078842,15.8489152 23.5813946,15.0525838 C25.643462,14.0713215 27.6335687,12.9527416 29.632215,11.8498619 C30.5445545,11.34643 31.4322542,10.7884418 32.4362194,10.4735306 C32.7850942,10.3641026 33.1387482,10.2803945 33.532672,10.3013807 C33.5370202,10.3936884 33.5443064,10.4762525 33.5443064,10.5587771 C33.544894,13.2730572 33.5450507,15.9873373 33.5446198,18.7016174 C33.5445415,19.3504931 33.2722107,19.7395266 32.6634229,19.9670611 C32.6468918,19.9732544 32.6338081,19.9887968 32.6191182,20 L6.45154472,20 Z M33.5286372,8.7072071 C33.2426742,8.7072071 32.9629397,8.69426824 32.6846938,8.70957396 C31.7244457,8.76235503 30.8159843,9.03971203 29.924524,9.38113215 C28.4291726,9.95391321 27.0800931,10.7977396 25.743079,11.666142 C24.5720409,12.4266943 23.4130289,13.209929 22.2091247,13.9145049 C19.6171247,15.4313886 16.8566024,16.5222761 13.901116,17.0851558 C12.8230355,17.2904418 11.7384131,17.4564379 10.639845,17.4336371 C9.46786681,17.4093373 8.29635865,17.3457475 7.12575147,17.2798698 C6.64509859,17.2528087 6.1679321,17.1674832 5.68778847,17.1240513 C5.52424113,17.1092584 5.48318781,17.0429862 5.48424548,16.8896923 C5.48976888,16.1010138 5.48667421,15.3122564 5.48667421,14.523499 L5.48667421,1.60602367 L5.48667421,1.29616174 C5.56180805,1.3507574 5.60348814,1.3759645 5.63929227,1.40783826 C9.47809097,4.82263116 13.3164588,8.23793688 17.154709,11.6533215 C17.6436666,12.0883905 18.1303521,12.5260237 18.620955,12.9592387 C19.208276,13.4778185 19.9489593,13.4662209 20.5341258,12.9450375 C23.368881,10.4202249 26.2057906,7.89793688 29.0417602,5.37454438 C30.4450942,4.12590533 31.8479974,2.87675345 33.2514098,1.62815385 C33.3330464,1.55553057 33.4173467,1.48586588 33.5286372,1.3906785 L33.5286372,8.7072071 Z" opacity=".6"/>
    <path d="M36,11.1242604 C35.8554516,12.0248915 35.1998128,12.5554635 34.5798999,13.1115582 C34.5564353,13.1326233 34.5253711,13.1451282 34.4893319,13.1667061 C34.456074,13.0813807 34.5168705,13.0432742 34.5521654,12.9955819 C34.8133319,12.6425641 35.0214189,12.265286 35.1106159,11.8272584 C35.2906942,10.9431164 34.6827682,10.2154635 33.7963221,10.1810651 C33.1777802,10.1570414 32.6040522,10.3558185 32.0459935,10.5994872 C31.0122568,11.050927 30.0527922,11.6452071 29.0672383,12.1884813 C26.393445,13.6624458 23.7142067,15.1236292 20.8604135,16.226075 C19.0559478,16.9231558 17.2069032,17.496568 15.3024287,17.8379882 C13.9719956,18.0765286 12.6300457,18.2166469 11.2827291,18.2704536 C10.8381153,18.2707692 10.3935016,18.3105325 9.94888792,18.3108876 C8.75132971,18.2647732 7.56007835,18.2003945 6.38520131,17.9502959 C4.94073558,17.6428008 3.55322742,17.0273767 2.30262894,16.2118343 C2.28131882,16.1979093 2.2640827,16.177712 2.24492709,16.1604339 C2.25515125,16.1502564 2.26537541,16.1400394 2.27559956,16.1298619 C3.33401523,16.603787 4.46717301,16.781854 5.59754951,16.9531361 C6.77653972,17.1317554 7.965284,17.2231953 9.15641785,17.2953057 C11.7027813,17.4493886 14.1816888,17.0936095 16.6143721,16.3563708 C19.3692144,15.521499 21.9126398,14.24 24.3128096,12.654714 C25.6511948,11.7707298 26.9688575,10.8529389 28.3826507,10.089783 C29.6261589,9.41857988 30.9236474,8.89763314 32.3185593,8.64674556 C32.4719608,8.6191716 32.6289271,8.61140039 32.7842089,8.59439842 C33.0473341,8.59487179 33.31042,8.59530572 33.573506,8.59573964 C34.4154516,8.68552268 35.0897367,9.06343195 35.5880566,9.76130178 C35.8065637,10.0672584 35.905123,10.4157791 36,10.7692308 L36,11.1242604 Z M0.0430746464,13.5266391 C0.820032209,13.8946864 1.64517258,14.0982367 2.48437606,14.2555542 C3.20915517,14.3914122 3.93557954,14.5151598 4.66874168,14.5962643 C4.99121393,14.631925 5.31258934,14.6785523 5.63549249,14.708927 C5.73761654,14.7185523 5.74858498,14.7661262 5.74717476,14.8479408 C5.74411926,15.0252584 5.74658716,15.2026154 5.74619543,15.3799724 C5.74572535,15.5983156 5.72421937,15.619144 5.51182329,15.5784339 C5.12483308,15.5041933 4.73784287,15.429716 4.35234124,15.3480197 C3.17307682,15.0981183 2.03596257,14.722931 0.966931012,14.1572899 C0.635958215,13.9821815 0.30890272,13.795712 0.0150267682,13.5584734 C0.0243499456,13.5479408 0.033712296,13.5372899 0.0430746464,13.5266391 Z"/>
  </g>
</svg>
