<svg xmlns="http://www.w3.org/2000/svg" width="360" height="360" viewBox="0 0 360 360">
  <path fill="#FFF" fill-rule="evenodd" d="M181.162228,280.067801 C166.98305,280.067801 153.966101,277.743345 142.111379,272.861989 C130.256657,267.980633 120.029053,261.239713 111.428569,252.639228 C102.828084,244.038743 96.0871637,233.81114 91.2058076,221.956418 C86.3244515,210.101696 83.9999962,197.084746 83.9999962,182.905569 C83.9999962,168.493946 86.7893425,155.012106 92.1355897,142.460047 C97.4818369,129.907988 105.152539,118.983048 114.682806,109.685227 C124.213073,100.387406 135.602904,93.1815946 148.387408,87.8353474 C161.171912,82.4891002 175.118644,79.9321994 189.995158,79.9321994 C201.152543,79.9321994 211.612592,81.5593181 221.142859,84.58111 C230.905571,87.8353474 239.27361,92.2518125 246.479422,97.8305052 C253.685233,103.409198 259.263926,110.150118 263.447945,117.820821 C267.631965,125.491523 269.723975,133.859562 269.723975,142.460047 C269.723975,152.222759 266.702183,160.125907 260.658599,166.634382 C254.615015,173.142857 247.176758,176.397094 238.343828,176.397094 C229.278452,176.397094 221.60775,173.142857 215.564166,166.866828 C209.520582,160.590798 206.49879,152.455205 206.49879,142.924938 C206.49879,140.135592 206.731236,137.578691 207.428573,135.02179 C208.125909,132.464889 209.055691,128.745761 210.217919,123.864405 C211.380147,119.447939 212.309929,116.426148 212.77482,114.101692 C213.239711,112.009683 213.239711,109.685227 213.239711,107.128326 C213.239711,100.619852 211.147701,95.0411589 206.731236,90.8571393 C202.547216,86.6731198 197.200969,84.58111 190.692494,84.58111 C184.881356,84.58111 179.767554,86.4406742 174.886198,90.1598027 C170.004842,93.8789312 165.820823,98.9927329 162.101694,105.268762 C158.382566,111.544791 155.593219,119.215494 153.50121,128.048424 C151.4092,136.881354 150.246972,146.179175 150.246972,156.174333 C150.246972,179.418886 156.05811,197.782083 167.680387,211.263924 C179.302663,224.97821 194.876514,231.71913 214.634384,231.71913 C225.791769,231.71913 235.786927,229.627121 244.852303,225.443101 C253.917678,221.259082 262.750609,214.750607 271.351093,205.917677 L276.000004,208.242132 C254.847461,255.893465 223.002423,280.067801 181.162228,280.067801"/>
</svg>
