<svg xmlns="http://www.w3.org/2000/svg" width="60" height="60" viewBox="0 0 60 60">
  <g fill="#FFFFFF" transform="translate(13 20)">
    <path d="M5,10 C5,8.8954305 5.89702625,8 7.0049466,8 L26.9950534,8 C28.1023548,8 29,8.8976781 29,10 C29,11.1045695 28.1029737,12 26.9950534,12 L7.0049466,12 C5.89764515,12 5,11.1023219 5,10 Z M10,18 C10,16.8954305 10.8970601,16 11.9984195,16 L22.0015805,16 C23.1052771,16 24,16.8976781 24,18 C24,19.1045695 23.1029398,20 22.0015805,20 L11.9984195,20 C10.8947229,20 10,19.1023219 10,18 Z M0,2 C0,0.8954305 0.89194115,0 1.9999204,0 L32.0000796,0 C33.1046051,0 34,0.8976781 34,2 C34,3.1045695 33.1080588,4 32.0000796,4 L1.9999204,4 C0.895394865,4 0,3.1023219 0,2 Z" opacity=".4"/>
    <path d="M5,10 C5,8.8954305 5.8909254,8 6.9974219,8 L22.0025781,8 C23.1057237,8 24,8.8976781 24,10 C24,11.1045695 23.1090746,12 22.0025781,12 L6.9974219,12 C5.89427625,12 5,11.1023219 5,10 Z M10,18 C10,16.8954305 10.8958578,16 11.9973917,16 L17.0026083,16 C18.1057373,16 19,16.8976781 19,18 C19,19.1045695 18.1041422,20 17.0026083,20 L11.9973917,20 C10.8942627,20 10,19.1023219 10,18 Z M0,2 C0,0.8954305 0.89971268,0 2.00472931,0 L26.9952707,0 C28.1024521,0 29,0.8976781 29,2 C29,3.1045695 28.1002873,4 26.9952707,4 L2.00472931,4 C0.897547885,4 0,3.1023219 0,2 Z"/>
  </g>
</svg>
