<svg xmlns="http://www.w3.org/2000/svg" width="60" height="60" viewBox="0 0 60 60">
  <path fill="#FFFFFF" fill-rule="evenodd" d="M0,23.2450728 C1.34481159,19.6730861 4.42542029,18.2010993 7.8117971,17.2170596 C13.6609565,15.5175894 19.2871304,16.0422914 24.5842029,19.1424238 C26.2307246,20.1061987 27.3306377,21.5028874 28,23.2450728 L28,29.991894 L0,29.991894 L0,23.2450728 Z M14.8115942,3.97350993e-05 C15.8106667,0.442887417 16.9046957,0.75202649 17.7913623,1.35381457 C20.4742899,3.1746755 21.1836232,6.76215894 19.5265507,9.54361589 C17.8966667,12.2791788 14.2850725,13.3931523 11.3353333,12.0703709 C8.32817391,10.7217616 6.80014493,7.28447682 7.9246087,4.27533775 C8.66214493,2.30129801 10.0933913,0.985271523 12.1455072,0.333417219 C12.4932754,0.222953642 12.8408406,0.111099338 13.1884058,3.97350993e-05 L14.8115942,3.97350993e-05 Z" transform="translate(16 15)"/>
</svg>
