<svg xmlns="http://www.w3.org/2000/svg" width="60" height="60" viewBox="0 0 60 60">
  <path fill="#FFFFFF" d="M26.5732353,11.9233333 C26.5138235,10.4421212 26.1720588,9.10545455 25.5576471,7.87727273 L23.9135294,10.219697 C24.1408824,11 24.2323529,11.8421212 24.1641176,12.7218182 C23.8511765,16.750303 20.2988235,20.0160606 16.2288235,20.0160606 C15.2735294,20.0160606 14.3741176,19.8360606 13.5623529,19.5084848 L23.3882353,8.93272727 L27.5376471,4.59636364 L24.5811765,6.20666667 C22.6211765,3.66484848 19.4717647,2.15575758 15.86,2.30454545 C9.64705882,2.56060606 4.36852941,7.76818182 4.07,13.9363636 C3.77147059,20.1042424 8.565,24.8969697 14.7776471,24.6412121 C20.2570588,24.4157576 25.0097059,20.3372727 26.2602941,15.1472727 C26.2602941,15.1472727 26.477554,14.5556271 26.5732353,13.5411118 C26.6689166,12.5265965 26.5732353,11.9233333 26.5732353,11.9233333 Z M25.4788235,23.2012121 C22.6094118,27.159697 18.0694118,29.7633333 13.1473529,29.7633333 C5.27411765,29.7633333 -0.590294118,23.1012121 0.0473529412,14.8815152 C0.686176471,6.66242424 7.58558824,0 15.4588235,0 C19.45,0 22.9252941,1.71181818 25.2985294,4.47181818 L29.8270588,2.68454545 L27.1517647,7.28030303 C27.4173549,7.82018021 27.6477664,8.37767551 27.8414706,8.94909091 C27.8414706,8.94909091 29.0110869,11.8193655 28.4297059,16.0100024 C27.8483249,20.2006392 25.4788235,23.2012121 25.4788235,23.2012121 Z M9.425,12.7215152 C9.73823529,8.69333333 13.2911765,5.42666667 17.3608824,5.42666667 C19.4011765,5.42666667 21.1844118,6.24818182 22.4158824,7.57424242 L10.3476471,16.7681818 C9.65617647,15.6106061 9.30941176,14.2187879 9.425,12.7221212 L9.425,12.7215152 Z" transform="translate(15 15)"/>
</svg>
