<svg xmlns="http://www.w3.org/2000/svg" width="60" height="60" viewBox="0 0 60 60">
  <g fill="#FFFFFF" transform="translate(15 15)">
    <path d="M20.15,10.9 C20.2,10.9 20.2,10.95 20.2,10.95 L20.2,23.25 C20.2,23.3 20.15,23.3 20.15,23.3 L16.1,23.3 C15.5,23.3 14.95,23.5 14.5,23.85 L11.3,26.5 L8.2,23.85 C7.75,23.45 7.2,23.25 6.6,23.25 L3,23.25 C2.95,23.25 2.95,23.2 2.95,23.2 L2.95,11 C2.95,10.95 3,10.95 3,10.95 L20.15,10.95 L20.15,10.9 Z M20.15,8.45 L2.95,8.45 C1.55,8.45 0.4,9.6 0.4,11 L0.4,23.3 C0.4,24.7 1.55,25.85 2.95,25.85 L6.55,25.85 L10.6,29.3 C10.8,29.45 11.05,29.55 11.3,29.55 C11.55,29.55 11.75,29.45 11.95,29.3 L16.1,25.85 L20.15,25.85 C21.55,25.85 22.7,24.7 22.7,23.3 L22.7,11 C22.7,9.6 21.55,8.45 20.15,8.45 L20.15,8.45 Z"/>
    <path d="M27.05,0.05 L9.85,0.05 C8.45,0.05 7.3,1.2 7.3,2.6 L7.3,7.3 L9.8,7.3 L9.8,2.6 C9.8,2.55 9.85,2.55 9.85,2.55 L27.05,2.55 C27.1,2.55 27.1,2.6 27.1,2.6 L27.1,14.9 C27.1,14.95 27.05,14.95 27.05,14.95 L24,14.95 L24,17.45 L27.05,17.45 C28.45,17.45 29.6,16.3 29.6,14.9 L29.6,2.6 C29.6,1.15 28.45,0.05 27.05,0.05 L27.05,0.05 Z"/>
  </g>
</svg>
