<svg xmlns="http://www.w3.org/2000/svg" width="360" height="360" viewBox="0 0 360 360">
  <path fill="#FFF" d="M184.916682,255.823807 L139.869281,254.998465 C125.283527,254.71139 110.661936,255.285541 96.3628801,252.307133 C74.6096798,247.857463 73.0686788,226.039728 71.4560034,207.738667 C69.2340949,182.009528 70.0941885,155.813892 74.2871447,130.30006 C76.6524021,115.982171 85.9700826,107.441676 100.37665,106.508681 C149.007775,103.135544 197.961435,103.530273 246.485048,105.109188 C251.609772,105.252726 256.770335,106.042183 261.823383,106.939294 C286.766098,111.317195 287.37533,136.041569 288.988005,156.854541 C290.600682,177.882818 289.919773,199.01875 286.837771,219.90349 C284.365003,237.199787 279.634487,251.697098 259.673149,253.09659 C234.658761,254.926697 210.217769,256.397958 185.131706,255.931461 C185.131706,255.823807 184.988357,255.823807 184.916682,255.823807 Z M158.432967,212.044799 C177.283352,201.2077 195.775364,190.550023 214.518236,179.784693 C195.632015,168.947595 177.17584,158.289918 158.432967,147.524588 L158.432967,212.044799 Z"/>
</svg>
