<svg xmlns="http://www.w3.org/2000/svg" width="60" height="60" viewBox="0 0 60 60">
  <path fill="#FFFFFF" d="M30.0033757,34.2116586 C32.3338067,34.2107277 34.2222387,32.3235949 34.2213065,29.9966293 C34.2203743,27.6696638 32.330431,25.78404 30,25.7849708 C27.6808975,25.7849708 25.793884,27.6725488 25.793884,29.9983147 C25.7837569,32.3240805 27.6741461,34.2116586 30.0033757,34.2116586 Z M30,17.7964707 C36.717633,17.7964707 42.196386,23.2738178 42.196386,29.9983147 C42.196386,36.7228115 36.7210087,42.2001586 30,42.2001586 C23.2589827,42.1890023 17.800229,36.7293169 17.8002383,29.9983147 C17.8002383,23.2738178 23.2688642,17.7964707 30,17.7964707 Z M30,47 C39.3709293,47 47,39.3755329 47,30.0016853 C47,20.6312085 39.3709293,13 30,13 C20.6083363,13.0185837 13.003704,20.6239699 13,30.0016853 C13,39.3687915 20.6290707,47 30,47 Z"/>
</svg>
