<svg xmlns="http://www.w3.org/2000/svg" width="60" height="60" viewBox="0 0 60 60">
  <g fill="#FFFFFF" fill-rule="evenodd" transform="translate(19 14)">
    <path d="M10.056695 20.5436718C11.67397 21.709347 12.8907075 22.0006291 14.44102 21.6063726 16.593445 21.0588171 18.1099325 18.8932103 17.8693075 16.7105094 17.6185075 14.4359111 15.66202 12.6231248 13.4005575 12.570065 11.0757075 12.5153641 8.9818575 14.1838769 8.687745 16.4084239 8.6210575 16.9137231 8.4115075 17.0675692 7.99502 17.229347 6.6812075 17.7399795 6.34942 19.3671932 7.324845 20.3736889 8.026645 21.0975179 8.9054075 21.1600137 10.056695 20.5436718L10.056695 20.5436718zM21.999945 18.4614838C21.6703575 19.3718427 21.4426575 20.3356718 20.993445 21.1833983 19.006295 24.9340991 14.72812 26.6615521 10.65372 25.3971419 10.204095 25.2576547 9.9553575 25.2562872 9.6286575 25.6638085 8.9106325 26.5596718 7.512395 26.6662017 6.5912825 25.982441 5.652845 25.2859624 5.403695 23.9866803 6.0220325 22.990988 6.128595 22.8192274 6.2544075 22.6592274 6.3913575 22.4654496 4.880645 20.5517402 4.502795 18.3455179 4.5340075 15.9779282 4.592445 11.5576889 4.58282 7.13580855 4.529745 2.71543248 4.5153075 1.50763761 4.8431075.599740171 5.912445-.0000547008547L7.287445-.0000547008547C8.37067.585654701 8.7090575 1.49560342 8.6689075 2.69984274 8.59837 4.81266325 8.6480075 6.92958632 8.650895 9.04486838 8.65117 9.25847521 8.67537 9.47208205 8.692145 9.74544957 8.985295 9.60185983 9.20557 9.49245812 9.4270825 9.38579145 14.3237325 7.02763761 20.125545 9.55030427 21.6634825 14.7068171 21.778295 15.0915009 21.88802 15.4776889 21.999945 15.8631932L21.999945 18.4614838zM0 27.7606838C.07865 27.6047863.166925 27.4529915.2343 27.2924444.88495 25.7404444 2.3144 24.9389402 4.036175 25.1649915 5.4571 25.3513846 6.7018875 26.590906 6.8795375 27.9964444 7.098025 29.7255385 6.3009375 31.1143932 4.7235375 31.7620513 4.5640375 31.8274188 4.41595 31.92 4.2625 32L2.75 32C1.3644125 31.5545983.43065 30.6599658 0 29.2649573L0 27.7606838z"/>
    <path d="M10.786765 26.3580444C11.65329 26.3480615 12.330615 26.9741128 12.3601775 27.8126769 12.38974 28.6463179 11.6625025 29.386694 10.81344 29.3871043 9.9962775 29.3875145 9.2840275 28.6873436 9.26904 27.8691556 9.2540525 27.0408479 9.9300025 26.3677538 10.786765 26.3580444M13.6265938 13.1293402C15.1022438 13.1315282 17.1981563 15.0440068 17.2825813 16.5266735 17.2964688 16.7732376 17.0158313 17.0363487 16.8713188 17.2919385 16.6306938 17.135494 16.2551813 17.0304684 16.1718563 16.8139897 15.7046313 15.6018188 14.8829313 14.9388444 13.5625188 14.8580239 12.9920313 14.8231521 12.6148688 14.4842803 12.6647813 13.8713573 12.7105688 13.3105368 13.1080813 13.1226393 13.6265938 13.1293402"/>
  </g>
</svg>
