<svg xmlns="http://www.w3.org/2000/svg" width="60" height="60" viewBox="0 0 60 60">
  <path fill="#FFFFFF" d="M42.8,30.000501 L36.4,30.000501 L36.4,23.6003006 L30,23.6003006 L30,17.2001002 L42.8,17.2001002 L42.8,30.000501 Z M46,30.000501 L39.6,30.000501 C39.6,35.3016062 35.302,39.5997996 30,39.5997996 C24.698,39.5997996 20.4,35.3016062 20.4,30.000501 C20.4,24.6983938 24.698,20.4002004 30,20.4002004 L30,14 C21.163,14 14,21.1636557 14,30.000501 C14,38.8373462 21.163,46 30,46 C38.837,46 46,38.8363443 46,29.999499 L46,30.000501 Z"/>
</svg>
