<svg xmlns="http://www.w3.org/2000/svg" width="60" height="60" viewBox="0 0 60 60">
  <path fill="#FFFFFF" d="M29.9149091,23.7274693 C30.1330909,23.5221401 28.8370909,23.2526456 27.8334545,23.9370762 C27.4859377,24.1929976 27.2768419,24.5906234 27.2657878,25.0165764 C27.2547337,25.4425294 27.4429344,25.8500635 27.7767273,26.1229763 C27.8346761,26.1725122 27.8959003,26.2182405 27.96,26.2598624 C28.1981558,26.1533677 28.4430199,26.0619234 28.6930909,25.9860901 C29.0678935,25.8629354 29.4535476,25.774149 29.8450909,25.7208733 C30.0753903,25.4427712 30.1766407,25.0829678 30.1243636,24.728449 C30.0632727,24.0055192 29.5134545,24.1210169 29.928,23.731747 L29.9149091,23.7274693 Z M36.7221818,27.6543896 C36.3580847,27.5956557 35.9866426,27.5956557 35.6225455,27.6543896 C35.0050391,27.7143498 34.4035125,27.8824156 33.8465455,28.1506018 C33.7175659,28.2672222 33.6498452,28.4351161 33.662588,28.6066712 C33.6753309,28.7782263 33.7671475,28.9347323 33.912,29.0318061 C34.5970909,29.5408514 35.1949091,29.8873443 35.8276364,29.7975128 C36.216,29.7461805 36.5607273,29.1344707 36.8007273,28.5783709 C36.9665455,28.1976564 36.9665455,27.7827204 36.7221818,27.6501119 L36.7221818,27.6543896 Z M34.0865455,23.1285926 C34.0429091,23.2269795 33.9730909,23.2954225 34.0865455,23.620527 L34.0865455,23.620527 L34.0865455,23.6633039 L34.1301818,23.7616908 C34.2721761,24.1384181 34.5298211,24.4627246 34.8676364,24.6899498 C34.9585753,24.6745599 35.0503784,24.6645605 35.1425455,24.6600059 C35.3680139,24.6363088 35.5958078,24.6732802 35.8014545,24.7669482 C35.8119637,24.6674013 35.8119637,24.5670568 35.8014545,24.4675098 C35.7752727,23.9841308 35.8974545,23.1585364 34.9636364,22.7264896 C34.6369964,22.561287 34.2423433,22.5963063 33.9512727,22.8163211 L34.0298182,22.8163211 C34.2785455,22.9018749 34.1083636,22.9874288 34.0647273,23.0900933 L34.0865455,23.1285926 Z M43.7170909,29.767569 L42.9098182,29.9215658 L41.3476364,14 L15,17.0414383 L18.2465455,43.2936279 L21.3316364,42.8658588 C20.9671315,42.363954 20.5356546,41.9122013 20.0487273,41.5226638 C19.1410909,40.7697902 19.4596364,39.4950383 19.9963636,38.6865547 C20.7076364,37.3219713 24.36,35.5937841 24.1549091,33.4121617 C24.0807273,32.6207889 23.9541818,31.5898653 23.2167273,30.8840463 C23.2011479,31.0767209 23.2084698,31.2705177 23.2385455,31.4615346 C23.0412452,31.184382 22.8936699,30.8762377 22.8021818,30.5503864 C22.643237,30.3831436 22.4973698,30.2044008 22.3658182,30.0156751 C22.2943489,30.2324777 22.2604251,30.4594837 22.2654545,30.6872725 C22.1219999,30.3432492 22.0251747,29.9822729 21.9774545,29.6135721 C21.875228,29.8125412 21.8130062,30.0289327 21.7941818,30.2509481 C21.6288568,29.7965026 21.5447148,29.3175118 21.5454545,28.8350323 C21.1275105,27.8109136 20.970253,26.702428 21.0872727,25.6053756 C21.8901818,26.1657532 23.6618182,26.0331447 24.3556364,25.019332 C24.5825455,24.6856721 24.7396364,23.7702462 24.2421818,21.9650606 C23.8470417,20.7529378 23.3658666,19.5694048 22.8021818,18.4231325 L22.7629091,18.4487986 C22.9243636,18.9749546 23.2647273,20.0785989 23.3912727,20.6133103 C23.784,22.2388328 23.8887273,22.803488 23.7054545,23.552084 C23.5483636,24.202293 23.1730909,24.6300621 22.2218182,25.1048858 C21.2705455,25.5797095 20.0094545,24.4204552 19.9265455,24.3562899 C19.0058182,23.6376378 18.2901818,22.4398843 18.2203636,21.8452853 C18.1505455,21.2506862 18.5869091,20.8271948 18.8181818,20.3095942 C18.5829873,20.3805669 18.3526936,20.4662977 18.1287273,20.5662557 C18.4282119,20.269942 18.750628,19.996781 19.0930909,19.7492167 C19.2972033,19.6191333 19.49252,19.4762454 19.6778182,19.3214476 C19.3418182,19.3214476 19.0669091,19.3214476 19.0669091,19.3214476 C19.4373272,19.1258493 19.8190661,18.951594 20.2101818,18.7995693 C19.7738182,18.7995693 19.3767273,18.7995693 19.3767273,18.7995693 C19.3767273,18.7995693 20.6334545,18.2391918 21.624,17.8285334 C22.3047273,17.5504835 22.9723636,17.6317596 23.3476364,18.1707487 C23.8155473,18.8926367 24.5826354,19.3772805 25.4465455,19.4968329 C25.9942599,19.2138803 26.5704331,18.9873769 27.1658182,18.8209577 C27.4974035,18.3918058 27.9538005,18.0711636 28.4749091,17.9012542 C28.2877,18.088093 28.1602926,18.3245071 28.1083636,18.581407 C28.3877688,18.3634971 28.6791123,18.1607174 28.9810909,17.9739749 C28.8460329,18.1511686 28.7304805,18.3418747 28.6363636,18.5429078 L28.6756364,18.5985178 C29.0193045,18.3993682 29.376507,18.22357 29.7447273,18.0723618 C29.7447273,18.0723618 29.5789091,18.2819687 29.3869091,18.5471855 C29.7578182,18.5471855 30.5083636,18.5471855 30.8007273,18.5942401 C32.52,18.6327393 32.8778182,16.7633884 33.5367273,16.5281154 C34.3658182,16.2329547 34.7323636,16.0575694 36.1549091,17.4349859 C37.368,18.624184 38.2930909,20.741641 37.8567273,21.2164647 C37.464,21.6100123 36.6872727,21.0624678 35.8276364,19.9973228 C35.3359459,19.3919456 35.0059938,18.6759372 34.8676364,17.9140873 C34.7786844,17.4753849 34.5457413,17.0772657 34.2043636,16.7804991 C34.3821019,17.1874179 34.4854932,17.6217962 34.5098182,18.0638064 C34.5098182,18.3931886 34.5490909,19.6166083 35.0770909,20.3053165 C35.0247273,20.4079811 35.0029091,20.8015287 34.9418182,20.8785271 C34.3265455,20.1384866 33.0087273,19.5952198 32.7949091,19.454056 C33.5236364,20.0486551 35.1949091,21.4132385 35.8494545,22.7179342 C36.456,23.9541869 36.0981818,25.087775 36.408,25.378658 C36.4952727,25.4642118 37.7170909,26.9742368 37.9483636,27.7356658 C38.2769853,28.9484347 38.0862693,30.2401561 37.4203636,31.3118154 L35.9236364,31.5428107 C35.7268259,31.5015223 35.5371992,31.4323532 35.3607273,31.3374816 C35.4934401,31.095651 35.598793,30.8403253 35.6749091,30.5760526 L35.592,30.4306111 C35.0813169,31.1033541 34.4371347,31.6679159 33.6981818,32.0903552 C32.9411334,32.485749 32.052355,32.5614448 31.2370909,32.299962 C29.8223541,31.8149102 28.4963495,31.1100821 27.3098182,30.2124488 C27.3098182,30.2124488 27.3098182,30.4691103 27.3752727,30.5247203 C28.1243906,31.3113273 28.9650434,32.0090806 29.88,32.6036781 L27.7330909,32.8389511 L28.7498182,40.7141802 C28.3134545,40.7783456 28.2305455,40.8082894 27.7374545,40.8810102 C27.4257975,39.6174457 26.6487418,38.5113834 25.5556364,37.7754065 C24.6602023,37.2664605 23.5998179,37.1133678 22.5927273,37.3476374 L22.5272727,37.4246358 C23.404126,37.3286975 24.2875053,37.5376228 25.0232727,38.0149572 C25.896,38.5667793 26.6029091,39.9912504 26.8647273,40.8467886 C27.1963636,41.9418775 27.4276364,43.1139648 26.5330909,44.3544952 C25.896,45.2356996 24.0370909,45.7233563 22.536,44.6710444 C22.8645475,45.3260853 23.4798296,45.7985373 24.2072727,45.9543517 C25.2894545,46.0997932 26.3192727,45.9115748 27.0261818,45.188645 C27.6283636,44.5683798 27.9512727,43.2765171 27.8683636,41.9119337 L28.824,41.7750476 L29.1687273,44.2218868 L45,42.322592 L43.7170909,29.767569 Z M28.5621818,33.3950509 L30.552,33.1212787 C30.8524101,33.2511071 31.1652134,33.3514107 31.4858182,33.4207171 C32.2585435,33.6748724 33.104835,33.5971923 33.816,33.2068325 C34.1728413,32.9789334 34.4909076,32.6974458 34.7585455,32.3726828 L42.9185455,30.8968794 L43.752,40.9280648 L29.7883636,43.4390694 L28.5621818,33.3950509 Z M40.1389091,36.7230945 L37.4683636,34.9692412 L35.2385455,38.6651662 L32.6465455,37.9080149 L30.3643636,41.3772223 L30.4821818,42.4680335 L42.8923636,40.1965796 L42.168,32.4710697 L40.1389091,36.7230945 Z"/>
</svg>
