<svg xmlns="http://www.w3.org/2000/svg" width="60" height="60" viewBox="0 0 60 60">
  <g fill="#FFFFFF" fill-rule="evenodd" transform="translate(15 14)">
    <path d="M14.72251,26.8018366 L9.76279503,30.7950909 C8.83385443,30.4070058 7.93853269,29.9282293 7.07411696,29.3765264 C3.29041861,26.9620067 1.13736573,23.5184208 0.318797656,19.2326438 C-0.598057935,14.4322443 0.466414373,10.0856076 3.46455441,6.19327078 C5.79211398,3.17176491 8.93082371,1.22461201 12.7249071,0.45992759 C18.0754568,-0.618363369 23.122057,0.145605059 27.6325266,3.3230192 C27.7564059,3.4101918 27.8817689,3.49646939 27.9995284,3.59115995 C28.2576722,3.79915698 28.5113653,4.01216598 28.8312633,4.27618975 C27.6521841,5.6346144 26.492206,6.97084315 25.2849386,8.36130865 C24.975982,8.12592475 24.7234016,7.92455069 24.4617343,7.73516957 C22.4106779,6.25108751 20.1906783,5.36593665 17.5534203,5.18317851 C14.9530665,5.00292635 12.6501715,5.43932631 10.5742651,6.90336046 C8.1348803,8.62390042 6.68152325,10.9414026 6.25072723,13.848886 C5.76800572,17.1081028 6.0691735,20.2183922 8.16900276,22.9520674 C9.8434536,25.1322823 12.0129038,26.4375582 14.72251,26.8018366 Z M24.3788485,19.0271528 L23.1098174,19.0271528 C21.1327548,19.0271528 19.1553213,19.0074629 17.1786296,19.0378927 C16.5143544,19.0480957 16.2319169,18.8703495 16.2573233,18.1813817 C16.3046125,16.9038647 16.270861,15.6236627 16.270861,14.268639 L29.95341,14.268639 C29.9577082,14.3543072 29.9631321,14.4403322 29.9686197,14.5266163 L24.3788485,19.0271528 Z"/>
    <path d="M14.72251,26.8018366 C15.0795569,26.8498378 15.4459828,26.8815 15.821891,26.896672 C18.5939698,27.0085465 21.2260352,26.6449992 23.6559622,25.2593666 C24.1928345,24.9530991 24.4502365,24.6124637 24.4354007,23.9895466 C24.396642,22.3839241 24.4224193,20.7766906 24.4224193,19.0271528 L24.3788485,19.0271528 L29.9686197,14.5266164 C29.9813631,14.7269872 29.9944499,14.9287556 29.9945795,15.130699 C29.9973612,18.9174263 30.0138661,22.7048696 29.9708421,26.4912389 C29.9662059,26.890407 29.7114002,27.4118316 29.3924294,27.6635044 C26.5268848,29.9248008 23.206065,31.2970084 19.5850046,31.8678367 C18.0148153,32.1153926 16.3665522,31.9483864 14.756306,31.8993406 C12.9877646,31.8452023 11.3275831,31.4488149 9.76279503,30.7950909 L14.72251,26.8018366 Z" opacity=".45"/>
  </g>
</svg>
