<svg xmlns="http://www.w3.org/2000/svg" width="60" height="60" viewBox="0 0 60 60">
  <path fill="#FFFFFF" d="M20.706395,39.99881 C14.9669817,39.99881 11,35.991044 11,30.5589027 L11,30.499405 C11,25.2874053 15.0859212,21 20.6667485,21 C23.9900577,21 25.9840432,21.9019853 27.9162268,23.525083 L25.377685,26.5904052 C23.9492451,25.4075907 22.6805573,24.7257469 20.5454769,24.7257469 C17.5836504,24.7257469 15.2480054,27.3317467 15.2480054,30.4375274 L15.2480054,30.499405 C15.2480054,33.8669756 17.5649932,36.330181 20.8474899,36.330181 C22.3167424,36.330181 23.646066,35.9708148 24.6745428,35.2294733 L24.6745428,32.6032442 L20.5851234,32.6032442 L20.5851234,29.1166781 L28.601878,29.1166781 L28.601878,37.0929417 C26.7081748,38.6779608 24.0891739,40 20.7075611,40 L20.706395,39.99881 Z M41.62925,39.99881 C36.3119553,39.99881 32.3846201,35.8304002 32.3846201,30.5196342 C32.3846201,25.268366 36.290966,21 41.708543,21 C45.0516755,21 47.0654842,22.1828146 48.8985516,23.9058684 L47.4677796,25.4290098 C45.9169019,23.9653661 44.1654597,22.9027369 41.6677305,22.9027369 C37.5806432,22.9027369 34.5197005,26.1893906 34.5197005,30.4589466 C34.5197005,34.7273126 37.6004664,38.074654 41.6677305,38.074654 C44.2062722,38.074654 45.8585983,37.110791 47.6298638,35.4281957 L49,36.772844 C47.0876396,38.7148494 44.9723825,39.9976201 41.6304161,39.9976201 L41.62925,39.99881 Z"/>
</svg>
