<svg xmlns="http://www.w3.org/2000/svg" width="360" height="360" viewBox="0 0 360 360">
  <path fill="#FFF" d="M237.223731,253.738546 L215.563937,186.996604 L272.263895,145.7593 L202.176028,145.7593 L180.513972,79.0188677 L180.507187,79.0007547 L250.605608,79.0007547 L272.272941,145.751753 L272.274449,145.750244 L272.292543,145.740432 C284.875278,184.464555 271.915589,228.509376 237.223731,253.738546 L237.223731,253.738546 Z M123.798182,253.738546 L123.780842,253.751376 L180.495878,295 L237.223731,253.740055 L180.513972,212.490676 L123.798936,253.738546 L123.798182,253.738546 Z M88.7452017,145.741942 C75.4990277,186.562646 90.8749935,229.816532 123.787627,253.746848 L123.792905,253.725716 L145.456468,186.987547 L88.7685729,145.757791 L158.839854,145.757791 L180.502663,79.018113 L180.507187,79 L110.404996,79 L88.7444478,145.741942 L88.7452017,145.741942 Z"/>
</svg>
