<svg xmlns="http://www.w3.org/2000/svg" width="360" height="360" viewBox="0 0 360 360">
  <g fill="#FFF" transform="translate(101 67)">
    <path d="M79.8065864,226.800009 C35.9396253,226.800009 0,191.180321 0,147.420006 L0,79.3800033 C0,35.619688 35.9396253,0 79.8065864,0 C118.767842,0 151.899129,27.8345466 158.333424,66.1559275 C159.364333,72.3413823 155.276245,78.1713512 149.09079,79.2378089 C142.905335,80.2687181 137.110915,76.1095329 136.044457,69.9240781 C131.42314,42.5516632 108.103265,22.6800009 80.2331695,22.6800009 C48.8793124,22.6800009 23.6042643,48.132792 23.6042643,79.3800033 L23.6042643,147.420006 C23.6042643,178.702766 48.8793124,204.120008 80.2331695,204.120008 C108.067716,204.120008 131.494237,184.248346 136.080006,156.875931 C137.110915,150.690476 142.940884,146.531291 149.09079,147.562201 C155.276245,148.59311 159.257687,154.458627 158.226778,160.608533 C151.86358,198.965463 118.732293,226.800009 79.8065864,226.800009 Z"/>
    <path d="M11.2333547,80.9441413 C4.97680272,80.9441413 0.319937317,75.8606928 0.319937317,69.6041408 L0.319937317,36.7927915 C0.319937317,16.6011919 16.6011919,0.177742954 36.8638887,0.177742954 C50.6922905,0.177742954 63.1342973,7.85623857 69.4619465,20.2271482 C72.3058337,25.8082769 70.0662725,32.6336064 64.4851438,35.4774936 C58.904015,38.3213809 52.043137,36.1173683 49.1992497,30.5362395 C46.7819455,25.7727283 41.7340456,22.8221953 36.4728542,22.8221953 C28.7232614,22.8221953 22.1823207,29.0787473 22.1823207,36.7572429 L22.1823207,69.5685922 C22.1467721,75.8606928 17.4899067,80.9441413 11.2333547,80.9441413 Z" opacity=".5" transform="translate(43.37 42.658)"/>
  </g>
</svg>
