<svg xmlns="http://www.w3.org/2000/svg" width="60" height="60" viewBox="0 0 60 60">
  <path fill="#FFFFFF" d="M38.9695072,45.8113245 C38.9383417,45.9367568 38.8147185,45.999473 38.5991571,45.999473 L34.4770005,45.999473 C34.2292348,45.999473 34.0141929,45.8898514 33.8287581,45.6700814 L27.0206549,36.8834942 L25.1221566,38.7159656 L25.1221566,45.5298923 C25.1221566,45.8434731 24.967368,46 24.6588296,46 L21.4633271,46 C21.1542692,46 21,45.8434731 21,45.5298923 L21,14.4695807 C21,14.1570539 21.1542692,14 21.4633271,14 L24.6588296,14 C24.967368,14 25.1221566,14.1570539 25.1221566,14.4695807 L25.1221566,33.5943213 L33.2729734,25.2304094 C33.4890542,25.0116934 33.705135,24.9015448 33.9212158,24.9015448 L38.1825783,24.9015448 C38.3674936,24.9015448 38.4905973,24.9800718 38.5529283,25.1360717 C38.6147399,25.3242202 38.5991571,25.4649363 38.5066995,25.559274 L29.8920362,34.0164696 L38.8765301,45.3412168 C38.9996338,45.4666491 39.0307993,45.623176 38.9695072,45.8113245"/>
</svg>
