<svg xmlns="http://www.w3.org/2000/svg" width="60" height="60" viewBox="0 0 60 60">
  <path fill="#FFFFFF" fill-rule="evenodd" d="M30.9527692,28.78672 C32.8363077,31.07792 34.0784615,29.58352 35.1496923,28.45232 C37.4173846,26.05552 37.3666154,22.52032 35.1784615,20.05552 C33.2103077,17.83712 29.4711538,17.11632 26.7253846,18.42512 C23.7943077,19.82192 22.1874615,23.16592 23.3069231,26.21312 C24.0616923,28.26592 25.1058462,30.41312 28.9473846,29.52352 C28.0140769,28.15872 27.2990769,27.14592 26.6196154,26.11152 C25.4536154,24.33712 25.8166154,22.55712 27.5343077,21.57872 C28.6334615,20.95312 30.5076923,20.83152 31.7244615,21.26352 C33.7493077,21.98272 34.0006154,23.89312 33.2653077,25.65152 C32.8219231,26.71232 31.8666154,27.58192 30.9527692,28.78672 M19,27.60032 L19,21.20032 C20.6880769,17.99632 23.2290769,15.59872 26.6153846,14.00032 L33.3846154,14.00032 C36.8902308,15.84432 39.4151538,18.52192 41,22.00032 L41,26.80032 C38.9387692,29.34112 36.8792308,31.88192 34.7570769,34.49792 C38.0934615,39.02112 37.8455385,41.44672 33.3846154,46.00032 L31.6923077,46.00032 C30.8283846,44.61872 30.6413846,43.44592 32.1568462,42.18432 C33.8787692,40.75072 34.0674615,38.92672 32.343,37.30592 C30.814,35.86912 28.9736154,35.81952 27.47,37.24032 C25.8436923,38.77712 25.7920769,40.75472 27.5309231,42.15872 C29.0700769,43.40272 28.6275385,44.62192 28.3076923,46.00032 L26.6153846,46.00032 C21.7322308,41.85392 21.4733077,39.92992 24.8579231,34.21472 C22.8567692,31.95472 20.9283846,29.77792 19,27.60032"/>
</svg>
