<svg xmlns="http://www.w3.org/2000/svg" width="60" height="60" viewBox="0 0 60 60">
  <g fill="#FFFFFF" transform="translate(14 14)">
    <path d="M23.8139535,17.9809524 L32,11.2761905 C31.627907,10.1333333 31.1813953,8.99047619 30.5860465,7.92380952 L27.7581395,7.6952381 L27.5348837,7.46666667 C26.7906977,6.32380952 25.8232558,5.33333333 24.7069767,4.4952381 L24.4837209,4.26666667 L24.2604651,1.44761905 C23.2186047,0.838095238 22.027907,0.380952381 20.8372093,0 L18.6790698,1.82857143 L18.3813953,1.75238095 C17.2651163,1.6 16.1488372,1.6 15.0325581,1.67619048 L22.027907,10.6666667 C23.3674419,12.1142857 24.0372093,14.0190476 24.0372093,16 C24.0372093,16.6095238 23.9627907,17.2952381 23.8139535,17.9809524 Z"/>
    <path d="M11.5348837 9.82857143C11.6837209 9.67619048 11.8325581 9.6 11.9813953 9.44761905L12.1302326 9.37142857C12.2790698 9.2952381 12.427907 9.14285714 12.6511628 9.06666667L12.7255814 8.99047619C12.9488372 8.91428571 13.0976744 8.76190476 13.3209302 8.68571429L13.3953488 8.60952381C13.6186047 8.53333333 13.7674419 8.45714286 13.9906977 8.38095238L14.1395349 8.3047619C14.3627907 8.22857143 14.5860465 8.15238095 14.7348837 8.15238095L14.8093023 8.15238095C15.0325581 8.07619048 15.255814 8.07619048 15.4790698 8.07619048L15.5534884 8.07619048C16.0744186 8 16.5209302 8 17.0418605 8.07619048 17.1162791 8.07619048 17.1906977 8.07619048 17.3395349 8.15238095L17.5627907 8.15238095C17.6372093 8.15238095 17.7116279 8.15238095 17.8604651 8.22857143 18.0093023 8.22857143 18.1581395 8.3047619 18.3813953 8.38095238L18.455814 8.38095238 11.9069767 0C11.6837209.0761904762 11.4604651.152380952 11.1627907.228571429 10.7906977.380952381 10.4930233.457142857 10.1209302.60952381 9.5255814.838095238 9.00465116 1.14285714 8.48372093 1.44761905L8.26046512 4.26666667 7.9627907 4.4952381C6.92093023 5.33333333 5.95348837 6.32380952 5.13488372 7.39047619L4.91162791 7.61904762 2.08372093 7.84761905C1.93488372 8.15238095 1.71162791 8.53333333 1.5627907 8.99047619 1.19069767 9.75238095.893023256 10.5904762.669767442 11.352381L2.45581395 13.5619048 2.38139535 13.8666667C2.30697674 14.552381 2.23255814 15.2380952 2.23255814 15.9238095 2.23255814 16.3809524 2.23255814 16.8380952 2.30697674 17.3714286L11.0883721 10.1333333C11.1627907 10.0571429 11.1627907 10.0571429 11.2372093 9.98095238 11.4604651 9.9047619 11.5348837 9.9047619 11.5348837 9.82857143zM20.3162791 22.7047619L20.3162791 22.7047619C18.455814 23.7714286 16.2976744 24.0761905 14.2883721 23.4666667L20.9860465 32C22.1023256 31.6190476 23.2186047 31.1619048 24.2604651 30.552381L24.4837209 27.7333333 24.7069767 27.5047619C25.8232558 26.6666667 26.7906977 25.6761905 27.5348837 24.6095238L27.7581395 24.3809524 30.5860465 24.152381C31.1813953 23.0857143 31.627907 21.8666667 32 20.647619L32 20.4952381 30.2139535 18.3619048 30.2883721 18.0571429C30.3627907 17.3714286 30.4372093 16.7619048 30.4372093 16.152381L30.4372093 16.0761905 30.4372093 16C30.4372093 15.5428571 30.4372093 15.0857143 30.3627907 14.552381L21.8790698 21.4857143C21.5069767 21.8666667 21.0604651 22.247619 20.6139535 22.552381L20.3162791 22.7047619z" opacity=".6"/>
    <path d="M2.15813953,24 L4.98604651,24.2285714 L5.20930233,24.4571429 C5.95348837,25.6 6.92093023,26.5904762 7.9627907,27.4285714 L8.18604651,27.6571429 L8.40930233,30.4761905 C9.45116279,31.0857143 10.6418605,31.5428571 11.8325581,31.9238095 L13.9906977,30.0952381 L14.2883721,30.1714286 C15.4046512,30.3238095 16.5209302,30.3238095 17.6372093,30.247619 L10.0465116,20.4190476 L10.0465116,20.4190476 C9.15348837,19.1238095 8.70697674,17.6 8.70697674,16 C8.70697674,15.3142857 8.78139535,14.6285714 9.00465116,13.9428571 L0.744186047,20.5714286 C1.11627907,21.7904762 1.5627907,22.9333333 2.15813953,24 Z"/>
  </g>
</svg>
