<svg xmlns="http://www.w3.org/2000/svg" width="60" height="60" viewBox="0 0 60 60">
  <path fill="#FFFFFF" fill-rule="evenodd" d="M31.4491884,23.2904659 C31.4491884,22.8990212 31.6775845,22.543568 32.0336294,22.3808996 L44.584441,16.6467349 C44.7148742,16.5871431 44.8565985,16.5563012 45,16.5563012 C45.5522847,16.5563012 46,17.0040164 46,17.5563012 L46,17.5563012 L46,35.560708 C46,35.9284528 45.7981594,36.2665251 45.4744377,36.4409971 L45.4744377,36.4409971 L32.9236261,43.2053418 C32.7778335,43.2839178 32.6148074,43.3250528 32.4491884,43.3250528 C31.8969036,43.3250528 31.4491884,42.8773375 31.4491884,42.3250528 L31.4491884,42.3250528 L31.4491884,23.2904659 Z M27.6965208,30.0024718 L27.6965208,30.0024718 C28.0501459,30.1661416 28.2764935,30.5203187 28.2764935,30.9099833 L28.2764935,34.577208 C28.2764935,34.7190328 28.2463259,34.8592353 28.1879933,34.9885085 C27.9608383,35.491916 27.3686004,35.7158628 26.865193,35.4887078 L26.865193,35.4887078 L14.5886995,29.949126 C14.2303537,29.7874279 14,29.4307648 14,29.0376261 L14,29.0376261 L14,25.2280029 C14,25.0829428 14.0315593,24.9396193 14.0924885,24.8079756 C14.3244632,24.3067709 14.9188226,24.0885168 15.4200273,24.3204915 L15.4200273,24.3204915 L27.6965208,30.0024718 Z M27.6965208,37.6657262 L27.6965208,37.6657262 C28.0501459,37.829396 28.2764935,38.183573 28.2764935,38.5732376 L28.2764935,42.2404624 C28.2764935,42.3822871 28.2463259,42.5224896 28.1879933,42.6517628 C27.9608383,43.1551703 27.3686004,43.3791172 26.865193,43.1519622 L14.5886995,37.6123803 C14.2303537,37.4506822 14,37.0940191 14,36.7008805 L14,36.7008805 L14,32.8912573 C14,32.7461972 14.0315593,32.6028737 14.0924885,32.47123 C14.3244632,31.9700252 14.9188226,31.7517711 15.4200273,31.9837458 L15.4200273,31.9837458 L27.6965208,37.6657262 Z M27.6965208,22.3392175 L27.6965208,22.3392175 C28.0501459,22.5028873 28.2764935,22.8570643 28.2764935,23.246729 L28.2764935,26.9139537 C28.2764935,27.0557784 28.2463259,27.195981 28.1879933,27.3252542 C27.9608383,27.8286616 27.3686004,28.0526085 26.865193,27.8254535 L26.865193,27.8254535 L14.5886995,22.2858716 C14.2303537,22.1241735 14,21.7675104 14,21.3743718 L14,21.3743718 L14,17.5647486 C14,17.4196885 14.0315593,17.276365 14.0924885,17.1447213 C14.3244632,16.6435166 14.9188226,16.4252625 15.4200273,16.6572371 L15.4200273,16.6572371 L27.6965208,22.3392175 Z"/>
</svg>
