<svg xmlns="http://www.w3.org/2000/svg" width="60" height="60" viewBox="0 0 60 60">
  <path fill="#FFFFFF" fill-rule="evenodd" d="M14,34.9438704 L14,33.0124835 C14.0269397,32.9400319 14.0650981,32.869695 14.0792013,32.7948224 C14.6951495,29.5252258 16.5878799,27.373511 19.7444221,26.3425416 C20.0405127,26.2458314 20.1951281,26.1298901 20.266154,25.8052941 C21.3276378,20.9543186 25.9320338,17.5387502 30.84451,18.0507757 C35.0116329,18.4851164 37.8517496,20.7255901 39.4081821,24.6000372 C39.9949205,26.0606038 40.0420587,27.6029973 40.0070508,29.1512945 C40.0010918,29.4147858 40.0062062,29.6785252 40.0062062,29.9513269 C40.1226342,29.9635791 40.1874753,29.9723463 40.2526069,29.9769669 C41.7173904,30.0808416 43.0060237,30.5979838 44.0932027,31.5998595 C46.8967475,34.1834248 46.5581615,38.7790817 43.4109344,40.9240948 C42.3475021,41.6488902 41.1755649,41.9976218 39.897518,41.9982253 C34.0807407,42.0009793 28.2639633,42.0004048 22.4471882,41.9973535 C22.0594397,41.9971523 21.6707416,41.9787036 21.2841192,41.948083 C18.0677833,41.6933501 15.2358823,39.3917695 14.333543,36.2954791 C14.2038205,35.8503503 14.1102835,35.3946704 14,34.9438704"/>
</svg>
