<svg xmlns="http://www.w3.org/2000/svg" width="60" height="60" viewBox="0 0 60 60">
  <path fill="#FFFFFF" fill-rule="evenodd" d="M11.9156522,24.0612049 C14.4891304,27.9022456 16.8773913,31.4668014 19.4069565,35.2422208 C21.9391304,31.474676 24.3395652,27.9035581 26.9217391,24.0612049 L11.9156522,24.0612049 Z M44.5556522,24.2265709 C43.103913,23.7890947 42.126087,24.0248944 41.3130435,25.4086315 C40.2526087,27.2132207 38.8995652,28.8480691 37.8982609,30.6810942 C37.5378261,31.3408083 37.5256522,32.5281186 37.8808696,33.1873952 C39.1252174,35.4968319 41.9778261,36.4759036 44.6156522,35.7396312 C47.2208696,35.0116708 49.0434783,32.6239259 49.0226087,29.9662582 C49.0013043,27.2915289 47.1534783,25.0092157 44.5556522,24.2265709 Z M30.0026087,30.0966261 C31.2408696,31.8701545 32.3295652,33.429757 33.5643478,35.1984731 C36.1321739,31.3701192 38.5165217,27.8147504 41.1269565,23.9229624 C37.873913,23.9229624 35.1186957,24.1508875 32.4169565,23.8634656 C29.2969565,23.5314212 27.42,24.6504853 25.8404348,27.3663373 C23.5517391,31.3018729 23.3621739,31.190754 26.5408696,35.0637305 C27.7247826,33.3650105 28.7821739,31.8474057 30.0026087,30.0966261 Z M40.8695652,37 C39.2969565,35.7632549 37.7243478,34.5256348 36.0178261,33.1834579 C35.3469565,34.3996417 34.63,35.6998208 33.9130435,37 L33.4782609,37 C32.3569565,35.3568395 31.2352174,33.713679 29.9756522,31.8679671 C28.6947826,33.7709884 27.6082609,35.3857129 26.5217391,37 L26.0869565,37 C25.103913,35.3279661 24.1208696,33.6563697 22.9717391,31.7017261 C21.6504348,33.7569892 20.6078261,35.3787133 19.5652174,37 L19.1304348,37 C16.0869565,32.4795588 13.0434783,27.9591175 10,23.4382388 C10.58,23.2925592 11.1591304,23.0208865 11.7391304,23.0195741 C22.753913,22.9942005 33.7682609,23.0007626 44.7826087,23.0007626 C47.2273913,24.041081 49.0047826,25.7524877 50,28.2504767 L50,31.750286 C49.0013043,34.2452126 47.2286957,35.9614316 44.7826087,37 L40.8695652,37 Z"/>
</svg>
