<svg xmlns="http://www.w3.org/2000/svg" width="60" height="60" viewBox="0 0 60 60">
  <g fill="none" fill-rule="evenodd" transform="translate(5 5)">
    <rect width="48" height="48" x="1" y="1" stroke="#FFFFFF" stroke-opacity=".2" stroke-width="2" opacity="0" rx="4"/>
    <path fill="#FFFFFF" d="M16.7067594,17.432407 C18.1752921,17.432407 19.4055117,16.2566223 19.4055117,14.7155865 C19.4055117,13.1756083 18.1752921,12 16.7067594,12 C15.2382267,12 14.0083522,13.1756083 14.0083522,14.7155865 C14.0083522,16.2564461 15.2382267,17.432407 16.7067594,17.432407 M11.1111495,31.9789956 C10.9525617,32.6682487 10.873009,33.4125009 10.873009,34.0196077 C10.873009,36.4118975 12.1429188,38 14.8416711,38 C17.0798461,38 18.8943726,36.6422949 20.2008663,34.4499061 L19.4030958,37.7204206 L23.8475211,37.7204206 L26.3876857,27.3130521 C27.0227269,24.6780254 28.2529466,23.3102724 30.11838,23.3102724 C31.5867401,23.3102724 32.4994392,24.2431437 32.4994392,25.7831219 C32.4994392,26.2292855 32.4597491,26.7152882 32.3009888,27.2425403 L30.9912164,32.0262385 C30.7927661,32.7154916 30.713731,33.4050972 30.713731,34.0532771 C30.713731,36.3242866 32.0229857,37.9853688 34.7614282,37.9853688 C37.1029699,37.9853688 38.9680581,36.4455669 40,32.7562122 L38.2539819,32.0676642 C37.3808004,34.5392798 36.626689,34.9861485 36.0313379,34.9861485 C35.4359868,34.9861485 35.1184662,34.5810581 35.1184662,33.770701 C35.1184662,33.4058023 35.1981915,33.0008882 35.3169166,32.5132989 L36.5871715,27.8528201 C36.9045195,26.7584767 37.0237623,25.7880577 37.0237623,24.8964358 C37.0237623,21.4099788 34.9598785,19.5904212 32.4597491,19.5904212 C30.11838,19.5904212 27.7369756,21.7479067 26.5466186,24.0185636 L27.419455,19.9429803 L20.6334881,19.9429803 L19.6809263,23.5327371 L22.8559596,23.5327371 L20.9007921,31.5287776 C19.3654765,35.0152346 16.5452381,35.0718204 16.1913061,34.990908 C15.6101054,34.8569356 15.2383993,34.631474 15.2383993,33.8600747 C15.2383993,33.4149688 15.3177794,32.7756029 15.5162298,32.0047324 L18.4929852,19.9429803 L10.9525617,19.9429803 L10,23.5327371 L13.134998,23.5327371 L11.111322,31.9789956"/>
  </g>
</svg>
