<svg xmlns="http://www.w3.org/2000/svg" width="60" height="60" viewBox="0 0 60 60">
  <g fill="#FFFFFF" transform="translate(14 16)">
    <path d="M30.3626667,12.5658182 C29.5217778,12.836 28.8842667,12.6901818 28.56,12.6901818 C27.0158222,12.6901818 26.6414222,11.4378182 26.6414222,9.84654545 C26.6414222,8.91054545 25.8545778,4.27309091 26.9628444,5.73709091 C28.0714667,7.20072727 29.1352889,7.36509091 30.3797333,7.97490909 C31.6241778,8.58436364 32,9.44945455 32,10.3196364 C32,11.5763636 31.2035556,12.296 30.3626667,12.5658182 L30.3626667,12.5658182 Z M1.63733333,12.5658182 C2.47822222,12.836 3.11573333,12.6901818 3.44,12.6901818 C4.98417778,12.6901818 5.35893333,11.4378182 5.35893333,9.84654545 C5.35893333,8.91054545 6.1504,4.29018182 5.04213333,5.75381818 C3.93386667,7.21745455 2.80071111,7.35090909 1.55626667,7.96072727 C0.311822222,8.57018182 0,9.44945455 0,10.3196364 C0,11.5763636 0.796444444,12.296 1.63733333,12.5658182 L1.63733333,12.5658182 Z" opacity=".8"/>
    <path d="M2.48888889,13.8370909 C2.48888889,6.20581818 8.53795556,0.0189090909 16,0.0189090909 C23.4620444,0.0189090909 29.5111111,6.20581818 29.5111111,13.8370909 C29.5111111,21.4687273 23.4620444,27.6552727 16,27.6552727 C8.53795556,27.6552727 2.48888889,21.4687273 2.48888889,13.8370909 Z M11.2519111,15.7276364 C11.8040889,15.736 12.3089778,15.6469091 12.9265778,15.4607273 C13.0986533,15.4087853 13.2698206,15.3537464 13.44,15.2956364 L13.6081778,15.2396364 C14.6296889,14.9003636 15.2128,14.7749091 16.032,14.7850909 C16.8586667,14.7952727 17.3287111,14.9050909 18.1127111,15.2032727 L18.2456889,15.2541818 C19.0218667,15.5498182 19.4940444,15.6712727 20.2368,15.7036364 C21.4243556,15.7556364 22.336,15.4127273 23.1587556,14.7690909 C23.2778667,14.6756364 23.3884444,14.5821818 23.5210667,14.4647273 L23.6654222,14.3356364 C23.7162667,14.2901818 23.7518222,14.2592727 23.7838222,14.2316364 C23.8976938,14.1346336 23.9691765,13.9953026 23.9825155,13.8443514 C23.9958546,13.6934002 23.9499552,13.5432196 23.8549333,13.4269091 C23.6566727,13.1843496 23.3038005,13.1518075 23.0663111,13.3541818 C23.0264889,13.3883636 22.9852444,13.4243636 22.928,13.4752727 C22.9468444,13.4589091 22.8206222,13.5716364 22.7868444,13.6018182 C22.6863172,13.6916512 22.583159,13.7783575 22.4775111,13.8618182 C21.8506667,14.352 21.1882667,14.6014545 20.2844444,14.5618182 C19.6810667,14.5352727 19.3127111,14.4407273 18.6371556,14.1836364 C18.592841,14.1663131 18.5483952,14.1493429 18.5038222,14.1327273 C17.6088889,13.792 17.0193778,13.6541818 16.0458667,13.6418182 C15.0769778,13.6301818 14.3896889,13.7781818 13.2618667,14.1527273 C12.7747556,14.3145455 12.7772444,14.3138182 12.6094222,14.3643636 C12.0913778,14.5207273 11.6920889,14.5912727 11.2682667,14.5847273 C10.1116444,14.5672727 9.28071111,14.1232727 8.76551111,13.5276364 C8.56093416,13.2907851 8.20749339,13.26801 7.97546667,13.4767273 C7.86405636,13.5768631 7.79619165,13.7182278 7.78685251,13.8696174 C7.77751337,14.021007 7.82746767,14.169974 7.92568889,14.2836364 C8.63786667,15.1072727 9.7568,15.7054545 11.2519111,15.7276364 L11.2519111,15.7276364 Z M18.8867556,9.70436364 C18.8867556,8.99563636 17.5406222,8.42072727 15.8801778,8.42072727 C14.2197333,8.42072727 12.8736,8.99563636 12.8736,9.70436364 C12.8736,10.4134545 14.2197333,11.4898182 15.8801778,11.4898182 C17.5406222,11.4898182 18.8867556,10.4134545 18.8867556,9.70436364 Z M23.3376,7.74690909 C25.0872889,7.96872727 25.5925333,7.31163636 25.6540444,6.79527273 C25.7155556,6.27927273 25.4371556,4.97345455 23.6942222,4.75272727 C21.9509333,4.532 21.5591111,5.55563636 21.5075556,5.99090909 C21.4556444,6.42618182 21.5882667,7.52509091 23.3376,7.74690909 Z M8.39715556,7.98763636 L8.39715556,7.98727273 C10.1550222,7.73272727 10.4686222,6.75636364 10.3978667,6.23818182 C10.3271111,5.72072727 9.92462222,4.66436364 8.17386667,4.91818182 C6.42275556,5.17163636 6.11413333,6.33672727 6.17386667,6.77309091 C6.23324444,7.20981818 6.63964444,8.24218182 8.39715556,7.98763636 Z"/>
  </g>
</svg>
