<svg xmlns="http://www.w3.org/2000/svg" width="60" height="60" viewBox="0 0 60 60">
  <g fill="#FFFFFF" fill-rule="evenodd" transform="translate(15 21)">
    <path d="M6.77951608,0 L0,0 L-8.8817842e-16,12 C-3.47095419e-16,16.418278 3.581722,20 8,20 L9.77777778,20 C14.1960558,20 17.7777778,16.418278 17.7777778,12 L17.7777778,8.69565217 L14.2222222,8.69565217 L14.2222222,11.1884058 C14.2222222,14.1339245 11.8344076,16.5217391 8.88888889,16.5217391 C5.94337022,16.5217391 3.55555556,14.1339245 3.55555556,11.1884058 L3.55555556,0 L6.77951608,0 Z"/>
    <path d="M21.0017383,0 L14.2222222,0 L14.2222222,12 C14.2222222,16.418278 17.8039442,20 22.2222222,20 L24,20 C28.418278,20 32,16.418278 32,12 L32,8.69565217 L28.4444444,8.69565217 L28.4444444,11.1884058 C28.4444444,14.1339245 26.0566298,16.5217391 23.1111111,16.5217391 C20.1655924,16.5217391 17.7777778,14.1339245 17.7777778,11.1884058 L17.7777778,0 L21.0017383,0 Z" transform="rotate(180 23.111 10)"/>
  </g>
</svg>
