<svg xmlns="http://www.w3.org/2000/svg" width="60" height="60" viewBox="0 0 60 60">
  <path fill="#FFFFFF" fill-rule="evenodd" d="M32,38 C34.209139,38 36,39.790861 36,42 C36,44.209139 34.209139,46 32,46 C29.790861,46 28,44.209139 28,42 C28,39.790861 29.790861,38 32,38 Z M42,40 C43.1045695,40 44,40.8954305 44,42 C44,43.1045695 43.1045695,44 42,44 C40.8954305,44 40,43.1045695 40,42 C40,40.8954305 40.8954305,40 42,40 Z M42,28 C43.1045695,28 44,28.8954305 44,30 C44,31.1045695 43.1045695,32 42,32 C40.8954305,32 40,31.1045695 40,30 C40,28.8954305 40.8954305,28 42,28 Z M42,16 C43.1045695,16 44,16.8954305 44,18 C44,19.1045695 43.1045695,20 42,20 C40.8954305,20 40,19.1045695 40,18 C40,16.8954305 40.8954305,16 42,16 Z M32,28 C33.1045695,28 34,28.8954305 34,30 C34,31.1045695 33.1045695,32 32,32 C30.8954305,32 30,31.1045695 30,30 C30,28.8954305 30.8954305,28 32,28 Z M32,16 C33.1045695,16 34,16.8954305 34,18 C34,19.1045695 33.1045695,20 32,20 C30.8954305,20 30,19.1045695 30,18 C30,16.8954305 30.8954305,16 32,16 Z M20,38 L20,38 C22.209139,38 24,39.790861 24,42 C24,44.209139 22.209139,46 20,46 C17.790861,46 16,44.209139 16,42 C16,39.790861 17.790861,38 20,38 L20,38 Z M20,26 L20,26 C22.209139,26 24,27.790861 24,30 C24,32.209139 22.209139,34 20,34 C17.790861,34 16,32.209139 16,30 C16,27.790861 17.790861,26 20,26 L20,26 Z M20,14 L20,14 C22.209139,14 24,15.790861 24,18 L24,18 C24,20.209139 22.209139,22 20,22 C17.790861,22 16,20.209139 16,18 L16,18 L16,18 C16,15.790861 17.790861,14 20,14 L20,14 Z"/>
</svg>
