<svg xmlns="http://www.w3.org/2000/svg" width="60" height="60" viewBox="0 0 60 60">
  <g fill="#FFFFFF" transform="translate(14 15)">
    <path d="M6.08 10.9285714C5.12 12.3214286 4.48 14.1428571 4.48 15.75 4.48 15.8571429 4.69333333 15.9642857 4.69333333 15.9642857 5.33333333 14.8928571 6.08 13.5 6.93333333 12.5357143 6.72 12 6.4 11.4642857 6.08 10.9285714M29.9733333 17.8928571C29.3333333 18.75 28.48 19.7142857 27.52 20.4642857 28.9066667 23.7857143 29.0133333 26.5714286 27.52 27.75 25.7066667 29.25 21.9733333 27.9642857 17.92 24.8571429 17.6 24.6428571 17.28 24.3214286 16.8533333 24.1071429 16.8533333 24.1071429 16.8533333 24.1071429 16.8533333 24.1071429L16.7466667 24C15.04 22.6071429 13.2266667 20.7857143 11.52 18.8571429 10.0266667 17.1428571 8.85333333 15.4285714 7.78666667 13.8214286 7.04 15 6.4 16.1785714 5.97333333 17.3571429 7.04 18.75 8.21333333 20.1428571 9.6 21.4285714 10.3466667 22.1785714 11.0933333 22.8214286 11.9466667 23.4642857 12.8 24.1071429 13.5466667 24.75 14.4 25.2857143 20.3733333 29.25 26.4533333 30.2142857 29.44 27.3214286 31.36 25.2857143 31.4666667 21.75 29.9733333 17.8928571"/>
    <path d="M13.5466667,6.10714286 C12.48,6.96428571 11.4133333,7.82142857 10.3466667,8.89285714 C9.06666667,10.0714286 8,11.3571429 7.04,12.5357143 C6.18666667,13.6071429 5.54666667,14.6785714 4.90666667,15.6428571 C4.90666667,15.6428571 4.8,15.75 4.8,15.75 C4.90666667,16.7142857 5.12,17.6785714 5.65333333,18.5357143 C5.76,18.1071429 5.86666667,17.6785714 6.08,17.25 C6.50666667,16.0714286 7.14666667,14.8928571 7.89333333,13.7142857 C8.74666667,12.3214286 9.81333333,11.0357143 10.9866667,9.75 C12.5866667,8.14285714 14.2933333,6.75 16,5.67857143 C15.04,5.78571429 14.2933333,5.89285714 13.5466667,6.10714286"/>
    <path d="M29.3333333,2.25 C26.6666667,-0.321428571 20.9066667,0.964285714 15.1466667,4.92857143 C15.4666667,5.14285714 15.7866667,5.35714286 16.1066667,5.67857143 C20.16,3.32142857 24,2.78571429 26.1333333,4.71428571 C28.48,6.85714286 27.9466667,11.3571429 25.0666667,15.8571429 C25.28,16.2857143 25.6,16.7142857 25.8133333,17.0357143 C26.6666667,15.9642857 27.4133333,15.1071429 28.0533333,14.0357143 C30.9333333,9.21428571 31.5733333,4.39285714 29.3333333,2.25"/>
    <path d="M16.1066667 5.57142857C15.7866667 5.35714286 15.4666667 5.03571429 15.1466667 4.82142857 15.1466667 4.82142857 15.04 4.71428571 15.04 4.71428571 15.04 4.71428571 14.9333333 4.71428571 14.9333333 4.71428571 11.2 5.46428571 7.89333333 7.07142857 5.44 9 4.37333333 9.85714286 3.52 10.7142857 2.77333333 11.6785714 1.28 13.6071429.533333333 15.8571429.853333333 18 1.06666667 19.1785714 1.6 20.3571429 2.45333333 21.3214286 3.30666667 22.3928571 4.48 23.25 5.86666667 23.8928571 8.21333333 24.9642857 11.0933333 25.5 14.2933333 25.3928571 13.44 24.8571429 12.6933333 24.2142857 11.84 23.5714286 8.96 22.7142857 6.72 21 5.54666667 18.75 5.12 17.8928571 4.8 16.9285714 4.69333333 15.9642857 4.69333333 15.8571429 4.69333333 15.8571429 4.69333333 15.75 4.69333333 15.75 4.69333333 15.6428571 4.69333333 15.6428571 4.69333333 14.0357143 5.12 12.4285714 6.08 11.0357143 7.68 8.57142857 10.3466667 6.85714286 13.5466667 6.10714286 14.2933333 5.89285714 15.04 5.78571429 15.8933333 5.78571429 15.8933333 5.78571429 16 5.78571429 16 5.78571429 16.1066667 5.78571429 16.1066667 5.78571429 16.2133333 5.78571429 16.1066667 5.67857143 16.1066667 5.67857143 16.1066667 5.57142857M31.8933333 11.6785714C31.1466667 6.96428571 25.4933333 4.07142857 18.6666667 4.28571429 19.52 4.92857143 20.48 5.67857143 21.3333333 6.42857143 25.1733333 7.71428571 27.84 10.6071429 28.0533333 14.0357143 28.0533333 14.0357143 28.0533333 14.1428571 28.0533333 14.1428571 28.16 15.75 27.6266667 17.3571429 26.7733333 18.75 24.8533333 21.6428571 21.2266667 23.6785714 16.8533333 24 17.1733333 24.3214286 17.4933333 24.5357143 17.92 24.75 17.92 24.75 17.92 24.75 17.92 24.75 21.76 24 25.0666667 22.3928571 27.52 20.3571429 28.48 19.6071429 29.3333333 18.75 29.9733333 17.7857143 31.4666667 15.8571429 32.2133333 13.7142857 31.8933333 11.6785714"/>
    <path d="M28.0533333,14.1428571 C28.0533333,14.0357143 28.0533333,14.0357143 28.0533333,14.1428571 C26.7733333,12 25.1733333,10.0714286 23.2533333,8.14285714 C22.6133333,7.5 21.9733333,6.96428571 21.3333333,6.42857143 C20.48,5.67857143 19.52,5.03571429 18.56,4.39285714 C12.5866667,0.428571429 6.4,-0.642857143 3.41333333,2.25 C1.38666667,4.28571429 1.28,7.71428571 2.77333333,11.6785714 C3.52,10.7142857 4.37333333,9.85714286 5.33333333,9.10714286 C3.94666667,5.78571429 3.84,3 5.33333333,1.82142857 C7.14666667,0.321428571 10.88,1.60714286 15.04,4.71428571 C15.4666667,5.03571429 15.7866667,5.35714286 16.2133333,5.67857143 C17.92,7.07142857 19.6266667,8.78571429 21.3333333,10.7142857 C23.68,13.3928571 25.4933333,16.1785714 26.7733333,18.75 C27.6266667,17.3571429 28.16,15.75 28.0533333,14.1428571"/>
    <path d="M25.0666667,15.75 C24.2133333,17.1428571 23.1466667,18.4285714 21.9733333,19.7142857 C20.3733333,21.4285714 18.56,22.8214286 16.7466667,23.8928571 C16.64,23.8928571 16.64,24 16.5333333,24 C12.6933333,26.25 8.85333333,26.6785714 6.72,24.9642857 C6.72,24.9642857 6.61333333,24.8571429 6.61333333,24.8571429 C6.29333333,24.5357143 5.97333333,24.2142857 5.76,23.7857143 C4.37333333,23.1428571 3.2,22.2857143 2.34666667,21.2142857 C2.02666667,22.6071429 1.92,23.7857143 2.24,24.8571429 L2.24,24.8571429 C2.45333333,25.8214286 2.88,26.5714286 3.52,27.2142857 C6.29333333,29.8928571 12.6933333,28.2857143 18.88,23.6785714 C20.0533333,22.8214286 21.3333333,21.75 22.4,20.5714286 C23.68,19.3928571 24.7466667,18.1071429 25.7066667,16.9285714 C25.6,16.6071429 25.3866667,16.1785714 25.0666667,15.75"/>
  </g>
</svg>
