<svg xmlns="http://www.w3.org/2000/svg" width="60" height="60" viewBox="0 0 60 60">
  <path fill="#FFFFFF" d="M45.5111928,36.9686839 L44.0800879,36.9686839 C43.6632578,36.9686839 43.26488,36.7835802 42.9871153,36.460855 L38.9588563,31.7817182 L37.6472646,33.3053323 L41.5296149,37.8149811 C42.1780175,38.5680914 43.1076062,39 44.0800879,39 L45.5111928,39 C45.7812589,39 46,38.7726197 46,38.4921711 L46,37.476513 C46,37.1960644 45.7812589,36.9686839 45.5111928,36.9686839 L45.5111928,36.9686839 Z M21.0411438,31.7817182 L17.0128846,36.460855 C16.7349978,36.7835802 16.3367422,36.9686839 15.919912,36.9686839 L14.4888071,36.9686839 C14.2187412,36.9686839 14,37.1960644 14,37.476513 L14,38.4921711 C14,38.7726197 14.2187412,39 14.4888071,39 L15.919912,39 C16.8925159,39 17.8221048,38.5680914 18.470263,37.8149811 L22.3527354,33.3052053 L21.0411438,31.7817182 Z M30,37.1011002 C29.1664617,37.1011002 28.369584,36.730893 27.8139325,36.0854422 L17.0128846,23.5391452 C16.7349978,23.2164198 16.3367422,23.0313161 15.919912,23.0313161 L14.4888071,23.0313161 C14.2188634,23.0313161 14,22.8039357 14,22.5234871 L14,21.507829 C14,21.2273804 14.2188634,21 14.4888071,21 L15.919912,21 C16.8925159,21 17.8221048,21.4319086 18.470263,22.185019 L29.2504143,34.7069404 C29.4313952,34.9171815 29.6831308,35.0564536 29.9544187,35.0687686 C30.2539353,35.0824799 30.5307223,34.9612358 30.7286891,34.7311891 L41.529737,22.185019 C42.1780175,21.4319086 43.1076062,21 44.0800879,21 L45.5111928,21 C45.7812589,21 46,21.2273804 46,21.507829 L46,22.5234871 C46,22.8039357 45.7812589,23.0313161 45.5111928,23.0313161 L44.0800879,23.0313161 C43.6632578,23.0313161 43.26488,23.2164198 42.9871153,23.5391452 L32.1860675,36.0854422 C31.630416,36.730893 30.8336605,37.1011002 30,37.1011002 Z"/>
</svg>
