<svg xmlns="http://www.w3.org/2000/svg" width="60" height="60" viewBox="0 0 60 60">
  <path fill="#FFFFFF" d="M25,14 L35,14 L35,17.3009514 L25,17.3009514 L25,14 Z M25,42.6990486 L35,42.6990486 L35,46 L25,46 L25,42.6990486 Z M25,33.2769154 C25,33.7416124 25.0816993,34.2063095 25.245098,34.6229344 C25.2614379,34.6549825 25.2777778,34.7030546 25.2941176,34.7351027 C25.3267974,34.7991988 25.3431373,34.879319 25.375817,34.9434151 C25.3921569,34.9914872 25.4248366,35.0395593 25.4411765,35.0876314 C25.4575163,35.1196795 25.4738562,35.1357036 25.4901961,35.1677516 C25.9150327,35.9529294 26.5522876,36.5618428 27.3039216,36.9944917 C27.875817,37.3149725 28.5294118,37.539309 29.2156863,37.6354532 C29.4607843,37.6675013 29.7222222,37.6835253 29.9836601,37.6835253 C30.3104575,37.6835253 30.620915,37.6514772 30.9313725,37.6034051 C31.8627451,37.4431647 32.7124183,37.0585879 33.3986928,36.4817226 C33.8071895,36.1452178 34.1503268,35.7446169 34.4117647,35.2799199 C34.4444444,35.2158237 34.4934641,35.1517276 34.5261438,35.0876314 C34.7058824,34.7190786 34.8366013,34.3184777 34.9183007,33.9018528 C34.9509804,33.6935403 34.9673203,33.4852278 34.9673203,33.2769154 C34.9673203,32.5237857 34.754902,31.8027041 34.379085,31.2098147 C34.0196078,30.6009014 33.5130719,30.1041562 32.9248366,29.7356034 L32.8594771,29.7035553 L29.4771242,27.8287431 L28.8562092,27.4922384 C28.6972814,27.3883283 28.563438,27.251603 28.4640523,27.0916375 C28.388982,26.9769105 28.3492668,26.843376 28.3496732,26.7070606 C28.3496732,26.6429644 28.3496732,26.5948923 28.3660131,26.5307962 C28.3823529,26.4827241 28.3986928,26.4186279 28.4313725,26.3705558 C28.5130719,26.1942914 28.6928105,26.002003 28.9542484,25.8577867 C29.2156863,25.7135704 29.5751634,25.6014021 29.9673203,25.6014021 C30.0490196,25.6014021 30.130719,25.6014021 30.1960784,25.6174261 C30.6372549,25.6494742 30.996732,25.8097146 31.2254902,26.018027 C31.372549,26.1301953 31.4705882,26.2583876 31.5196078,26.3705558 C31.5849673,26.4827241 31.6013072,26.5948923 31.6013072,26.7070606 L34.9509804,26.7070606 C34.9509804,26.1141713 34.8202614,25.55333 34.5751634,25.0405608 L34.5261438,24.8963445 C34.5062353,24.8718999 34.4897493,24.8449544 34.4771242,24.8162243 C34.0522876,24.0470706 33.4150327,23.4221332 32.6633987,23.0055083 C31.9934641,22.6209314 31.2254902,22.3965949 30.4248366,22.3324987 C30.2777778,22.3164747 30.130719,22.3164747 29.9836601,22.3164747 C29.6568627,22.3164747 29.3464052,22.3485228 29.0359477,22.3965949 C28.1045752,22.5568353 27.254902,22.9414121 26.5686275,23.5182774 C26.1601307,23.8387581 25.8169935,24.239359 25.5555556,24.7040561 C25.5065359,24.7681522 25.4738562,24.8322484 25.4411765,24.8963445 C25.2614379,25.2648973 25.1143791,25.6654982 25.0490196,26.0821232 C25.0163399,26.2904357 25,26.4987481 25,26.7070606 C25,27.4601903 25.2124183,28.1812719 25.5882353,28.7741612 C25.9477124,29.3830746 26.4542484,29.8798197 27.0424837,30.2483726 L27.0915033,30.2804206 L30.4901961,32.1552328 L31.0947712,32.4917376 C31.2745098,32.6199299 31.4052288,32.7481222 31.4869281,32.8763145 C31.5686275,33.0205308 31.6013072,33.132699 31.6013072,33.2769154 C31.6013072,33.3410115 31.6013072,33.3890836 31.5849673,33.4531798 C31.5686275,33.5012519 31.5522876,33.565348 31.5196078,33.6134201 C31.4379085,33.7896845 31.2581699,33.981973 30.996732,34.1261893 C30.573659,34.3548311 30.0833415,34.4340283 29.6078431,34.3505258 C29.248366,34.2864296 28.9379085,34.1422133 28.7418301,33.9659489 C28.624789,33.8650063 28.5254299,33.7459147 28.4477124,33.6134201 C28.3900134,33.5105372 28.3617824,33.3942585 28.3660131,33.2769154 L25,33.2769154 Z"/>
</svg>
