<svg xmlns="http://www.w3.org/2000/svg" width="60" height="60" viewBox="0 0 60 60">
  <path fill="#FFFFFF" fill-rule="evenodd" d="M18.2928932,41.7071068 C18.1119288,41.5261424 18,41.2761424 18,41 L18,20 L15,20 C14.4477153,20 14,19.5522847 14,19 C14,18.4477153 14.4477153,18 15,18 L15,18 L18,18 L18,15 L18,15 C18,14.4477153 18.4477153,14 19,14 C19.5522847,14 20,14.4477153 20,15 L20,18 L41,18 C41.2761424,18 41.5261424,18.1119288 41.7071068,18.2928932 C41.8880712,18.4738576 42,18.7238576 42,19 L42,40 L45,40 C45.5522847,40 46,40.4477153 46,41 C46,41.5522847 45.5522847,42 45,42 L42,42 L42,45 C42,45.5522847 41.5522847,46 41,46 C40.4477153,46 40,45.5522847 40,45 L40,42 L19,42 C18.7238576,42 18.4738576,41.8880712 18.2928932,41.7071068 Z M20,40 L40,40 L40,20 L20,20 L20,40 Z M27.2387415,24 C27.9201539,24 28.4725478,24.6015271 28.4725478,25.3435485 L28.4725478,33.5795007 L32.8895744,33.5795007 C33.5028455,33.5795007 34,34.1208751 34,34.7886943 C34,35.4565135 33.5028455,35.9978879 32.8895744,35.9978879 L27.2140654,35.9978879 C26.900083,36.0177825 26.5923651,35.8964598 26.3628576,35.6622856 C26.1333501,35.4281115 26.0021744,35.1016162 26,34.7591362 L26,25.3542969 C26.0049352,24.6015271 26.5573291,24 27.2387415,24 Z"/>
</svg>
