<svg xmlns="http://www.w3.org/2000/svg" width="60" height="60" viewBox="0 0 60 60">
  <path fill="#FFF" fill-rule="evenodd" d="M27.4284591,24.8151765 C29.4235959,24.8151765 25.7960745,35.1077788 26.279744,39.6145987 C26.7634136,44.1214186 31.7814848,42.8424562 31.4187326,40.1627254 C30.8141457,35.7777115 33.8975389,21.7700279 36.9204734,21.7700279 C39.1574449,21.7700279 34.4416671,31.3926975 35.4090061,37.3611887 C36.013593,41.3198819 41.3944164,40.1018225 40.7898295,37.6048006 C39.1574449,29.7483172 44.6591856,22.1354458 43.9336814,16.5932753 C43.5709292,14.2789624 42.3012967,13 40.7293708,13 C35.6508409,13 31.53965,23.1707963 31.53965,23.1707963 C31.53965,23.1707963 32.0233195,17.385014 27.9121287,17.1414021 C21.9871771,16.8368872 15.8808495,31.6363094 16.0017668,45.0349632 C16.1226842,49.2981712 21.5035076,48.6282385 21.1407554,45.1567691 C20.838462,39.1882779 24.345066,24.8151765 27.4284591,24.8151765 L27.4284591,24.8151765 Z"/>
</svg>
