<svg xmlns="http://www.w3.org/2000/svg" width="60" height="60" viewBox="0 0 60 60">
  <g fill="#FFF" fill-rule="evenodd" transform="translate(15 15)">
    <path d="M23.4414085,0.0127849666 L24,0.571376452 L24,1.27926627 L22.781866,0.0611322235 C23.0000415,0.0391127148 23.219942,0.0229439257 23.4414085,0.0127849666 Z M22.1547748,0.141147876 L24,1.98637305 L24,2.69426287 L21.5552331,0.249495937 C21.7533373,0.208447082 21.9532284,0.172287185 22.1547748,0.141147876 Z M20.981805,0.383174677 L24,3.40136965 L24,4.10925947 L20.4310082,0.540267704 C20.6127918,0.483654709 20.7964287,0.431252379 20.981805,0.383174677 Z M19.902273,0.718639224 L24,4.81636625 L24,5.52425607 L19.392966,0.917222107 C19.5608413,0.847286889 19.7306443,0.781058568 19.902273,0.718639224 Z M18.9030157,1.13437856 L23.7792714,6.01063421 C23.5596541,6.01858435 23.3430476,6.03835157 23.1300665,6.06931914 L18.4303496,1.36960228 C18.5859236,1.2878448 18.7435102,1.20940557 18.9030157,1.13437856 Z M17.9752039,1.62156339 L22.5394893,6.18584878 C22.3546834,6.23212029 22.1732733,6.28697148 21.9957058,6.34995509 L17.5359092,1.89015844 C17.6802596,1.79758766 17.8267206,1.7080265 17.9752039,1.62156339 Z M17.112905,2.17426102 L21.4931059,6.55446196 C21.3335041,6.62804083 21.1776806,6.70842829 21.0260066,6.79525252 L16.7048345,2.47408034 C16.8386621,2.37135345 16.9747139,2.27138538 17.112905,2.17426102 Z M16.3122822,2.78863482 L20.5923719,7.06872454 C20.4536457,7.16472376 20.3191566,7.26642317 20.1892421,7.37348461 L15.9341528,3.11839525 C16.0578669,3.00589627 16.1839376,2.89594846 16.3122822,2.78863482 Z M15.5711442,3.46249351 L19.8163497,7.70769894 C19.6967607,7.82417863 19.5820074,7.94560885 19.47242,8.07165909 L15.2223974,3.82163647 C15.3361612,3.69951809 15.4524377,3.57977626 15.5711442,3.46249351 Z M14.8887107,4.19505658 L19.1584318,8.46477766 C19.0580389,8.6018245 18.963312,8.74329132 18.8745966,8.88883226 L14.5694551,4.58369079 C14.6732037,4.45189056 14.77965,4.32231801 14.8887107,4.19505658 Z M14.2655321,4.98687455 L18.6232309,9.34457335 C18.5439408,9.50436873 18.4715492,9.66820061 18.4064463,9.83567853 L13.9765547,5.40578694 C14.0699887,5.26402173 14.1663431,5.12435564 14.2655321,4.98687455 Z M13.7035457,5.83988476 L18.2287072,10.3650463 C18.1752424,10.5530258 18.130694,10.7447654 18.0955489,10.9397778 L13.4463932,6.29062212 C13.5289487,6.13835968 13.6146962,5.9880839 13.7035457,5.83988476 Z M13.2062805,6.75761621 L18.0162664,11.5676021 C18.0054855,11.7147548 18,11.8633804 18,12.0132886 L17.7540631,12.0132886 L12.9834325,7.24265795 C13.0542175,7.07905856 13.1285323,6.91734589 13.2062805,6.75761621 Z M12.7792635,7.74559577 L17.0469563,12.0132886 L16.3390665,12.0132886 L12.5944435,8.26866556 C12.6521254,8.09247786 12.7137671,7.91808611 12.7792635,7.74559577 Z M12.4307445,8.81207337 L15.6319597,12.0132886 L14.9240699,12.0132886 L12.2894724,9.37869105 C12.3320774,9.18806824 12.3792077,8.99915604 12.4307445,8.81207337 Z M12.1729906,9.96931608 L14.2169631,12.0132886 L13.5090733,12.0132886 L12.0835975,10.5878127 C12.1081416,10.3799754 12.1379857,10.1737634 12.1729906,9.96931608 Z M12.024713,11.2360351 L12.8019665,12.0132886 L12.0940767,12.0132886 L12.0003575,11.9195694 C12.0021086,11.6901366 12.0102842,11.4622347 12.024713,11.2360351 Z"/>
    <path d="M29.4414085,18.012785 L30,18.5713765 L30,19.2792663 L28.781866,18.0611322 C29.0000415,18.0391127 29.219942,18.0229439 29.4414085,18.012785 Z M28.1547748,18.1411479 L30,19.9863731 L30,20.6942629 L27.5552331,18.2494959 C27.7533373,18.2084471 27.9532284,18.1722872 28.1547748,18.1411479 Z M26.981805,18.3831747 L30,21.4013697 L30,22.1092595 L26.4310082,18.5402677 C26.6127918,18.4836547 26.7964287,18.4312524 26.981805,18.3831747 Z M25.902273,18.7186392 L30,22.8163663 L30,23.5242561 L25.392966,18.9172221 C25.5608413,18.8472869 25.7306443,18.7810586 25.902273,18.7186392 Z M24.9030157,19.1343786 L29.7792714,24.0106342 C29.5596541,24.0185843 29.3430476,24.0383516 29.1300665,24.0693191 L24.4303496,19.3696023 C24.5859236,19.2878448 24.7435102,19.2094056 24.9030157,19.1343786 Z M23.9752039,19.6215634 L28.5394893,24.1858488 C28.3546834,24.2321203 28.1732733,24.2869715 27.9957058,24.3499551 L23.5359092,19.8901584 C23.6802596,19.7975877 23.8267206,19.7080265 23.9752039,19.6215634 Z M23.112905,20.174261 L27.4931059,24.554462 C27.3335041,24.6280408 27.1776806,24.7084283 27.0260066,24.7952525 L22.7048345,20.4740803 C22.8386621,20.3713534 22.9747139,20.2713854 23.112905,20.174261 Z M22.3122822,20.7886348 L26.5923719,25.0687245 C26.4536457,25.1647238 26.3191566,25.2664232 26.1892421,25.3734846 L21.9341528,21.1183953 C22.0578669,21.0058963 22.1839376,20.8959485 22.3122822,20.7886348 Z M21.5711442,21.4624935 L25.8163497,25.7076989 C25.6967607,25.8241786 25.5820074,25.9456089 25.47242,26.0716591 L21.2223974,21.8216365 C21.3361612,21.6995181 21.4524377,21.5797763 21.5711442,21.4624935 Z M20.8887107,22.1950566 L25.1584318,26.4647777 C25.0580389,26.6018245 24.963312,26.7432913 24.8745966,26.8888323 L20.5694551,22.5836908 C20.6732037,22.4518906 20.77965,22.322318 20.8887107,22.1950566 Z M20.2655321,22.9868746 L24.6232309,27.3445733 C24.5439408,27.5043687 24.4715492,27.6682006 24.4064463,27.8356785 L19.9765547,23.4057869 C20.0699887,23.2640217 20.1663431,23.1243556 20.2655321,22.9868746 Z M19.7035457,23.8398848 L24.2287072,28.3650463 C24.1752424,28.5530258 24.130694,28.7447654 24.0955489,28.9397778 L19.4463932,24.2906221 C19.5289487,24.1383597 19.6146962,23.9880839 19.7035457,23.8398848 Z M19.2062805,24.7576162 L24.0162664,29.5676021 C24.0054855,29.7147548 24,29.8633804 24,30.0132886 L23.7540631,30.0132886 L18.9834325,25.2426579 C19.0542175,25.0790586 19.1285323,24.9173459 19.2062805,24.7576162 Z M18.7792635,25.7455958 L23.0469563,30.0132886 L22.3390665,30.0132886 L18.5944435,26.2686656 C18.6521254,26.0924779 18.7137671,25.9180861 18.7792635,25.7455958 Z M18.4307445,26.8120734 L21.6319597,30.0132886 L20.9240699,30.0132886 L18.2894724,27.3786911 C18.3320774,27.1880682 18.3792077,26.999156 18.4307445,26.8120734 Z M18.1729906,27.9693161 L20.2169631,30.0132886 L19.5090733,30.0132886 L18.0835975,28.5878127 C18.1081416,28.3799754 18.1379857,28.1737634 18.1729906,27.9693161 Z M18.024713,29.2360351 L18.8019665,30.0132886 L18.0940767,30.0132886 L18.0003575,29.9195694 C18.0021086,29.6901366 18.0102842,29.4622347 18.024713,29.2360351 Z" transform="rotate(180 24 24)"/>
    <path d="M24 3L24 0 0 0 0 6 13.6053863 6C15.6802429 2.41319178 19.5583059 1.59903403e-15 24 0L24 3zM24 5.25L24 3.75C24.1380712 3.75 24.25 3.63807119 24.25 3.5 24.25 3.36192881 24.1380712 3.25 24 3.25L24 1.75C24.1380712 1.75 24.25 1.63807119 24.25 1.5 24.25 1.36192881 24.1380712 1.25 24 1.25L24 0 30 0 30 1.25C29.8619288 1.25 29.75 1.36192881 29.75 1.5 29.75 1.63807119 29.8619288 1.75 30 1.75L30 3.25C29.8619288 3.25 29.75 3.36192881 29.75 3.5 29.75 3.63807119 29.8619288 3.75 30 3.75L30 5.25C29.8619288 5.25 29.75 5.36192881 29.75 5.5 29.75 5.63807119 29.8619288 5.75 30 5.75L30 6 24 6 24 5.75C24.1380712 5.75 24.25 5.63807119 24.25 5.5 24.25 5.36192881 24.1380712 5.25 24 5.25zM25 .75C25.1380712.75 25.25.638071187 25.25.5 25.25.361928813 25.1380712.25 25 .25 24.8619288.25 24.75.361928813 24.75.5 24.75.638071187 24.8619288.75 25 .75zM27 .75C27.1380712.75 27.25.638071187 27.25.5 27.25.361928813 27.1380712.25 27 .25 26.8619288.25 26.75.361928813 26.75.5 26.75.638071187 26.8619288.75 27 .75zM29 .75C29.1380712.75 29.25.638071187 29.25.5 29.25.361928813 29.1380712.25 29 .25 28.8619288.25 28.75.361928813 28.75.5 28.75.638071187 28.8619288.75 29 .75zM26 1.75C26.1380712 1.75 26.25 1.63807119 26.25 1.5 26.25 1.36192881 26.1380712 1.25 26 1.25 25.8619288 1.25 25.75 1.36192881 25.75 1.5 25.75 1.63807119 25.8619288 1.75 26 1.75zM28 1.75C28.1380712 1.75 28.25 1.63807119 28.25 1.5 28.25 1.36192881 28.1380712 1.25 28 1.25 27.8619288 1.25 27.75 1.36192881 27.75 1.5 27.75 1.63807119 27.8619288 1.75 28 1.75zM25 2.75C25.1380712 2.75 25.25 2.63807119 25.25 2.5 25.25 2.36192881 25.1380712 2.25 25 2.25 24.8619288 2.25 24.75 2.36192881 24.75 2.5 24.75 2.63807119 24.8619288 2.75 25 2.75zM27 2.75C27.1380712 2.75 27.25 2.63807119 27.25 2.5 27.25 2.36192881 27.1380712 2.25 27 2.25 26.8619288 2.25 26.75 2.36192881 26.75 2.5 26.75 2.63807119 26.8619288 2.75 27 2.75zM29 2.75C29.1380712 2.75 29.25 2.63807119 29.25 2.5 29.25 2.36192881 29.1380712 2.25 29 2.25 28.8619288 2.25 28.75 2.36192881 28.75 2.5 28.75 2.63807119 28.8619288 2.75 29 2.75zM26 3.75C26.1380712 3.75 26.25 3.63807119 26.25 3.5 26.25 3.36192881 26.1380712 3.25 26 3.25 25.8619288 3.25 25.75 3.36192881 25.75 3.5 25.75 3.63807119 25.8619288 3.75 26 3.75zM28 3.75C28.1380712 3.75 28.25 3.63807119 28.25 3.5 28.25 3.36192881 28.1380712 3.25 28 3.25 27.8619288 3.25 27.75 3.36192881 27.75 3.5 27.75 3.63807119 27.8619288 3.75 28 3.75zM25 4.75C25.1380712 4.75 25.25 4.63807119 25.25 4.5 25.25 4.36192881 25.1380712 4.25 25 4.25 24.8619288 4.25 24.75 4.36192881 24.75 4.5 24.75 4.63807119 24.8619288 4.75 25 4.75zM27 4.75C27.1380712 4.75 27.25 4.63807119 27.25 4.5 27.25 4.36192881 27.1380712 4.25 27 4.25 26.8619288 4.25 26.75 4.36192881 26.75 4.5 26.75 4.63807119 26.8619288 4.75 27 4.75zM29 4.75C29.1380712 4.75 29.25 4.63807119 29.25 4.5 29.25 4.36192881 29.1380712 4.25 29 4.25 28.8619288 4.25 28.75 4.36192881 28.75 4.5 28.75 4.63807119 28.8619288 4.75 29 4.75zM26 5.75C26.1380712 5.75 26.25 5.63807119 26.25 5.5 26.25 5.36192881 26.1380712 5.25 26 5.25 25.8619288 5.25 25.75 5.36192881 25.75 5.5 25.75 5.63807119 25.8619288 5.75 26 5.75zM28 5.75C28.1380712 5.75 28.25 5.63807119 28.25 5.5 28.25 5.36192881 28.1380712 5.25 28 5.25 27.8619288 5.25 27.75 5.36192881 27.75 5.5 27.75 5.63807119 27.8619288 5.75 28 5.75z"/>
    <g transform="translate(0 12)">
      <rect width="18" height="6" x="12"/>
      <rect width="6" height="6"/>
    </g>
    <g transform="translate(0 24)">
      <path d="M28.3946137 0L30 0 30 6 18 6 18 3 18 6C22.4416941 6 26.3197571 3.58680822 28.3946137 2.41362486e-13zM0 0L12 0 12 6 0 6 0 0zM12 5.25L12 3.75C12.1380712 3.75 12.25 3.63807119 12.25 3.5 12.25 3.36192881 12.1380712 3.25 12 3.25L12 1.75C12.1380712 1.75 12.25 1.63807119 12.25 1.5 12.25 1.36192881 12.1380712 1.25 12 1.25L12 0 18 0 18 1.25C17.8619288 1.25 17.75 1.36192881 17.75 1.5 17.75 1.63807119 17.8619288 1.75 18 1.75L18 3.25C17.8619288 3.25 17.75 3.36192881 17.75 3.5 17.75 3.63807119 17.8619288 3.75 18 3.75L18 5.25C17.8619288 5.25 17.75 5.36192881 17.75 5.5 17.75 5.63807119 17.8619288 5.75 18 5.75L18 6 12 6 12 5.75C12.1380712 5.75 12.25 5.63807119 12.25 5.5 12.25 5.36192881 12.1380712 5.25 12 5.25zM13 .75C13.1380712.75 13.25.638071187 13.25.5 13.25.361928813 13.1380712.25 13 .25 12.8619288.25 12.75.361928813 12.75.5 12.75.638071187 12.8619288.75 13 .75zM15 .75C15.1380712.75 15.25.638071187 15.25.5 15.25.361928813 15.1380712.25 15 .25 14.8619288.25 14.75.361928813 14.75.5 14.75.638071187 14.8619288.75 15 .75zM17 .75C17.1380712.75 17.25.638071187 17.25.5 17.25.361928813 17.1380712.25 17 .25 16.8619288.25 16.75.361928813 16.75.5 16.75.638071187 16.8619288.75 17 .75zM14 1.75C14.1380712 1.75 14.25 1.63807119 14.25 1.5 14.25 1.36192881 14.1380712 1.25 14 1.25 13.8619288 1.25 13.75 1.36192881 13.75 1.5 13.75 1.63807119 13.8619288 1.75 14 1.75zM16 1.75C16.1380712 1.75 16.25 1.63807119 16.25 1.5 16.25 1.36192881 16.1380712 1.25 16 1.25 15.8619288 1.25 15.75 1.36192881 15.75 1.5 15.75 1.63807119 15.8619288 1.75 16 1.75zM13 2.75C13.1380712 2.75 13.25 2.63807119 13.25 2.5 13.25 2.36192881 13.1380712 2.25 13 2.25 12.8619288 2.25 12.75 2.36192881 12.75 2.5 12.75 2.63807119 12.8619288 2.75 13 2.75zM15 2.75C15.1380712 2.75 15.25 2.63807119 15.25 2.5 15.25 2.36192881 15.1380712 2.25 15 2.25 14.8619288 2.25 14.75 2.36192881 14.75 2.5 14.75 2.63807119 14.8619288 2.75 15 2.75zM17 2.75C17.1380712 2.75 17.25 2.63807119 17.25 2.5 17.25 2.36192881 17.1380712 2.25 17 2.25 16.8619288 2.25 16.75 2.36192881 16.75 2.5 16.75 2.63807119 16.8619288 2.75 17 2.75zM14 3.75C14.1380712 3.75 14.25 3.63807119 14.25 3.5 14.25 3.36192881 14.1380712 3.25 14 3.25 13.8619288 3.25 13.75 3.36192881 13.75 3.5 13.75 3.63807119 13.8619288 3.75 14 3.75zM16 3.75C16.1380712 3.75 16.25 3.63807119 16.25 3.5 16.25 3.36192881 16.1380712 3.25 16 3.25 15.8619288 3.25 15.75 3.36192881 15.75 3.5 15.75 3.63807119 15.8619288 3.75 16 3.75zM13 4.75C13.1380712 4.75 13.25 4.63807119 13.25 4.5 13.25 4.36192881 13.1380712 4.25 13 4.25 12.8619288 4.25 12.75 4.36192881 12.75 4.5 12.75 4.63807119 12.8619288 4.75 13 4.75zM15 4.75C15.1380712 4.75 15.25 4.63807119 15.25 4.5 15.25 4.36192881 15.1380712 4.25 15 4.25 14.8619288 4.25 14.75 4.36192881 14.75 4.5 14.75 4.63807119 14.8619288 4.75 15 4.75zM17 4.75C17.1380712 4.75 17.25 4.63807119 17.25 4.5 17.25 4.36192881 17.1380712 4.25 17 4.25 16.8619288 4.25 16.75 4.36192881 16.75 4.5 16.75 4.63807119 16.8619288 4.75 17 4.75zM14 5.75C14.1380712 5.75 14.25 5.63807119 14.25 5.5 14.25 5.36192881 14.1380712 5.25 14 5.25 13.8619288 5.25 13.75 5.36192881 13.75 5.5 13.75 5.63807119 13.8619288 5.75 14 5.75zM16 5.75C16.1380712 5.75 16.25 5.63807119 16.25 5.5 16.25 5.36192881 16.1380712 5.25 16 5.25 15.8619288 5.25 15.75 5.36192881 15.75 5.5 15.75 5.63807119 15.8619288 5.75 16 5.75z"/>
    </g>
  </g>
</svg>
