<svg xmlns="http://www.w3.org/2000/svg" width="60" height="60" viewBox="0 0 60 60">
  <path fill="#FFF" d="M19,11.9 C18.2,11.9 17.5,12.399875 17.1,13.1 L5.3,13.1 C3.3,13.1 1.7,11.4 1.7,9.4 C1.7,7.4 3.3,5.7 5.3,5.7 L7,5.7 C7,5.3 7.2,4.9 7.3,4.5 C7.4,4.4 7.4,4.2 7.5,4.1 C8.3,2.6 9.9,1.6 11.7,1.6 C13.3,1.6 14.7,2.4 15.6,3.6 C16.1,3.4 16.6,3.2 17.2,3.1 C16.1,1.2 14.1,0 11.7,0 C9,0 6.7,1.7 5.7,4.1 L5.3,4.1 C2.4,4.1 0,6.5 0,9.5 C0,12.5 2.4,14.8 5.3,14.8 L17.2,14.8 C17.5,15.5 18.2,16 19.1,16 C20.200125,16 21.1,15.1 21.1,13.9 C21.1,12.7 20.2,11.9 19,11.9 Z M25.6,7.799875 C24.4,5.399875 21.9,3.699875 19.1,3.699875 C15.6,3.699875 12.7,6.199875 12,9.499875 C10.3,9.699875 8.8,10.599875 7.9,11.899875 L16.6,11.899875 C17.2,11.099875 18.100125,10.699875 19.1,10.699875 C20.9,10.699875 22.3,12.199875 22.3,13.999875 C22.3,15.799875 20.8,17.299875 19.1,17.299875 C18.1,17.299875 17.2,16.799875 16.6,16.099875 L6.9,16.099875 C7.3,18.899875 9.7,21.099875 12.5,21.099875 L25.5,21.099875 C29.1,21.099875 32,18.199875 32,14.499875 C32,10.799875 29.1,7.899875 25.6,7.799875 Z" transform="translate(14 19)"/>
</svg>
