<svg xmlns="http://www.w3.org/2000/svg" width="60" height="60" viewBox="0 0 60 60">
  <path fill="#FFF" d="M32.1560284,36.5 C35.1820331,36.5 37.6028369,38.9 37.6028369,41.75 C37.6028369,44.675 35.1820331,47 32.1560284,47 C29.2056738,47 26.78487,44.675 26.78487,41.75 C26.78487,38.9 29.2056738,36.5 32.1560284,36.5 Z M16.572104,34.4 C18.0094563,34.4 19.144208,35.525 19.144208,36.875 C19.144208,38.225 18.0094563,39.35 16.572104,39.35 C15.1347518,39.35 14,38.225 14,36.875 C14,35.525 15.1347518,34.4 16.572104,34.4 Z M46,20.375 C46,23.9 43.1252955,26.675 39.56974,26.75 C39.4940898,26.75 39.3427896,26.75 39.2671395,26.75 C39.0401891,26.75 38.8888889,26.75 38.7375887,26.75 C37.1489362,26.6 33.9716312,26.375 32.534279,27.125 C30.5673759,28.175 30.1134752,30.125 29.8865248,31.025 C29.8865248,31.025 29.8865248,31.1 29.8865248,31.1 C29.8865248,31.175 29.8108747,31.325 29.8108747,31.4 C29.2056738,33.05 27.5413712,34.25 25.5744681,34.25 C23.1536643,34.25 21.1867612,32.375 21.1867612,29.975 C21.1867612,29.525 21.2624113,29.15 21.3380615,28.7 C21.4137116,28.625 21.4137116,28.55 21.4893617,28.4 C21.7163121,27.725 22.2458629,25.925 21.8676123,25.1 C21.4893617,24.125 20.5059102,23.75 19.4468085,23.225 C19.4468085,23.225 19.3711584,23.225 19.3711584,23.225 C18.3120567,22.7 17.6312057,21.65 17.6312057,20.45 C17.6312057,18.725 18.9929078,17.3 20.8085106,17.3 C22.5484634,17.3 23.9858156,18.725 23.9858156,20.45 C23.9858156,20.75 23.9101655,21.05 23.8345154,21.35 C23.6832151,22.025 23.3049645,23.45 23.8345154,24.35 C24.5153664,25.4 25.8014184,25.625 26.5579196,25.775 C29.7352246,26.3 30.4160757,25.4 31.0969267,24.875 C32.534279,23.6 32.6855792,20.825 32.9125296,19.625 C33.2907801,16.475 36.0141844,14 39.4184397,14 C43.0496454,14 46,16.85 46,20.375 Z"/>
</svg>
