<svg xmlns="http://www.w3.org/2000/svg" width="60" height="60" viewBox="0 0 60 60">
  <g fill="#FFF" fill-rule="evenodd" transform="translate(16 11)">
    <path d="M10 11.0145889L10 11 7 11 7 12.4743468 8.90314145 12.4743468C8.58676567 13.2674059 7.81173479 13.8278174 6.90581279 13.8278174 5.71864149 13.8278174 4.75624899 12.8654249 4.75624899 11.6782536 4.75624899 10.4910823 5.71864149 9.52868983 6.90581279 9.52868983 7.43731072 9.52868983 7.93386807 9.71968853 8.32428091 10.0630751L9.64515362 8.56131108C8.91433072 7.91851768 7.95559635 7.52868983 6.90581279 7.52868983 4.61407199 7.52868983 2.75624899 9.38651282 2.75624899 11.6782536 2.75624899 13.9699944 4.61407199 15.8278174 6.90581279 15.8278174 9.1975536 15.8278174 11.0553766 13.9699944 11.0553766 11.6782536 11.0553766 11.4523617 11.0373267 11.2306856 11.0025905 11.0145889L10 11.0145889zM3 4.64840382L14.444989 4.64840382C14.1330593 6.9590717 13.9800437 8.6212274 13.9859421 9.63487093 13.9797878 10.6549127 14.5072251 12.4022566 15.5682541 14.8769026L0 30.7899003 0 7.64840382-8.8817842e-16 7.64840382C-1.09108455e-15 5.99154957 1.34314575 4.64840382 3 4.64840382L3 4.64840382zM18.4205178 14.2205667C16.9917137 12.7754793 16.1095327 10.7887898 16.1095327 8.59605583 16.1095327 4.17777783 19.6912547.596055831 24.1095327.596055831 28.5278107.596055831 32.1095327 4.17777783 32.1095327 8.59605583 32.1095327 10.5554416 31.4051224 12.3503035 30.2357268 13.7412167 28.9934859 15.5188295 27.9546397 17.0276625 27.1191881 18.2677156 25.6528517 20.4441855 25.0971496 25.9287857 24.0956311 25.9287857 23.0941126 25.9287857 22.4607915 21.2970985 21.2025744 18.5252208 20.3857331 17.177632 19.4583809 15.7427473 18.4205178 14.2205667zM24.1095327 11C25.766387 11 27.1095327 9.65685425 27.1095327 8 27.1095327 6.34314575 25.766387 5 24.1095327 5 22.4526785 5 21.1095327 6.34314575 21.1095327 8 21.1095327 9.65685425 22.4526785 11 24.1095327 11z"/>
    <path d="M28.5331411,10.4094585 L28.5331411,30.7899003 L17.4358701,19.0391336 L28.5331411,10.4094585 Z" opacity=".4"/>
    <polygon points="6.077 25.458 22.369 25.382 6.241 41.851" opacity=".4" transform="rotate(45 14.223 33.617)"/>
  </g>
</svg>
