<svg xmlns="http://www.w3.org/2000/svg" width="60" height="60" viewBox="0 0 60 60">
  <path fill="#FFF" d="M35.1638279,14.0000117 C29.4036432,13.9916052 24.6449433,18.5168272 24.3346424,24.297881 C18.4477896,24.5537529 13.851209,29.5044804 14.0036861,35.424793 C14.1561632,41.3451057 19.0014282,46.0501817 24.8935681,45.9995959 L41.6368862,45.9995959 C42.790633,46.0042601 43.8988678,45.5475954 44.7173135,44.7302598 C45.5357593,43.9129241 45.997227,42.8020154 46,41.6423999 L46,24.8596468 C45.9865116,18.8553205 41.1378124,13.9961226 35.1638279,14.0000117 Z M23.5172135,41.2035204 C21.2709947,40.6185394 19.5103022,38.8663286 18.9060765,36.6145961 L18.9060765,36.6145961 C18.8525178,36.3979696 18.8174576,36.1771428 18.8012779,35.9545212 L23.5172135,35.9545212 L23.5172135,41.2035204 Z M24.8202091,41.4001384 L24.8202091,31.1198244 L29.2671617,31.1198244 L29.2671617,41.4036495 L24.8202091,41.4001384 Z M35.2336936,41.4001384 L30.8042074,41.4001384 L30.8042074,22.6722712 L35.2336936,22.6722712 L35.2336936,41.4001384 Z M41.2770778,40.4626918 C41.280809,40.7115984 41.1855184,40.9517023 41.0123635,41.1296924 C40.8392085,41.3076825 40.60252,41.4088281 40.3548504,41.4106716 L36.7882057,41.4106716 L36.7882057,26.2921495 L41.2770778,26.2921495 L41.2770778,40.4626918 Z"/>
</svg>
