<svg xmlns="http://www.w3.org/2000/svg" width="60" height="60" viewBox="0 0 60 60">
  <g fill="none" fill-rule="evenodd" transform="translate(5 5)">
    <rect width="48" height="48" x="1" y="1" stroke="#FFFFFF" stroke-opacity=".2" stroke-width="2" opacity="0" rx="4"/>
    <path fill="#FEFEFE" d="M26.2718041,17.1351985 C20.171027,17.5832559 17.9311622,18.9582559 16.2354527,21.5226562 L17.2102331,17.2633657 C19.1117027,9.27371199 29.158375,13.6972762 37.2098108,10.0813556 C36.0606723,13.8554265 32.3728007,16.687141 26.2718041,17.1351985 Z M23.0994747,17.8604941 C22.174103,19.0688978 21.6209443,21.809185 21.5298125,22.2872255 C17.4787314,23.2006546 15.9330051,25.1208404 15.0686807,26.6229519 L15.758647,23.6083826 C15.758647,23.6083826 15.9112652,22.7849029 16.3458429,22.0186444 C17.6956909,19.63731 20.1009105,18.2815245 23.0994747,17.8604941 Z M14.439103,29.3740709 C16.4591537,20.1073902 27.1160794,23.2672297 31.6816706,20.7507601 C30.6798801,24.0415118 28.1606909,26.5738176 22.9281909,27.6403294 C22.1861807,27.7915118 16.1774139,28.7972128 13.3852686,33.9790118 L14.439103,29.3740709 Z M12.8777196,36.1977407 C13.8142905,32.0683066 18.0570777,29.5015836 19.9820439,28.8466005 C18.9725676,33.4511191 18.2900676,39.2473606 12.1021115,39.5868877 L12.8777196,36.1977407 Z"/>
  </g>
</svg>
