<svg xmlns="http://www.w3.org/2000/svg" width="60" height="60" viewBox="0 0 60 60">
  <path fill="#FFF" d="M19.0967737,22.4 C19.0967737,22.4 19.0967737,22.4 19.0967737,22.4 L19.2,22.4 C19.2,27.6906667 14.8906667,32 9.6,32 C4.30933333,32 0,27.6906667 0,22.4 L0,21.3333333 C0,20.2666667 1.06666667,19.2 1.06666667,18.1333333 C1.06666667,17.3866667 0.554666667,16.6613333 0.234666667,15.9146667 C0.0853333333,15.616 0,15.2746667 0,14.9333333 C0,13.76 0.96,12.8 2.13333333,12.8 C3.30666667,12.8 4.26666667,13.76 4.26666667,14.9333333 C4.26666667,15.296 4.18133333,15.616 4.032,15.9146667 C3.712,16.64 3.2,17.3866667 3.2,18.1333333 C3.2,19.2 4.26666667,20.2666667 4.26666667,21.3333333 L4.26666667,22.4 C4.26666667,24.7893333 5.84533333,26.816 8.02133333,27.4986667 C6.99733333,26.048 6.4,24.32 6.4,22.4 L6.4,21.3333333 C6.4,20.2666667 7.46666667,19.2 7.46666667,18.1333333 C7.46666667,17.408 6.95466667,16.6613333 6.63466667,15.9146667 C6.48533333,15.616 6.4,15.2746667 6.4,14.9333333 C6.4,13.76 7.36,12.8 8.53333333,12.8 C9.70666667,12.8 10.6666667,13.76 10.6666667,14.9333333 C10.6666667,15.296 10.5813333,15.616 10.432,15.9146667 C10.112,16.64 9.6,17.3866667 9.6,18.1333333 C9.6,19.2 10.6666667,20.2666667 10.6666667,21.3333333 L10.6666667,22.4 C10.6666667,24.0853333 11.4133333,25.728 12.6933333,26.752 C13.9694587,25.8202259 14.8416912,24.3499281 14.9265354,22.6698168 C14.9311276,22.5087909 14.9333333,22.3477067 14.9333333,22.1866667 C14.9333333,22.1226667 14.9333333,7.18651138 14.9333333,7.18651138 L19.2,7.18651138 L19.2,21.12 C19.1907911,21.5543544 19.1556329,21.9814209 19.0967737,22.4 L14.9333333,22.4 L14.9333333,3.56266667 L20.2666667,0 L25.6,3.56266667 L25.6,21.12 C25.472,27.1573333 20.3306667,31.7866667 16.2133333,31.7866667 C20.2666667,29.2906667 21.3333333,25.728 21.3333333,22.1866667 C21.3333333,22.1226667 21.3333333,5.632 21.3333333,5.632 L20.2666667,4.928 L19.2,5.632 L19.2,22.4 L19.0967737,22.4 Z M8.53333333,11.3066667 C7.35512587,11.3066667 6.4,10.3515408 6.4,9.17333333 C6.4,7.99512587 7.35512587,7.04 8.53333333,7.04 C9.7115408,7.04 10.6666667,7.99512587 10.6666667,9.17333333 C10.6666667,10.3515408 9.7115408,11.3066667 8.53333333,11.3066667 Z M8.53333333,5.54666667 C7.35512587,5.54666667 6.4,4.5915408 6.4,3.41333333 C6.4,2.23512587 7.35512587,1.28 8.53333333,1.28 C9.7115408,1.28 10.6666667,2.23512587 10.6666667,3.41333333 C10.6666667,4.5915408 9.7115408,5.54666667 8.53333333,5.54666667 Z M2.13333333,11.3066667 C0.955125867,11.3066667 0,10.3515408 0,9.17333333 C0,7.99512587 0.955125867,7.04 2.13333333,7.04 C3.3115408,7.04 4.26666667,7.99512587 4.26666667,9.17333333 C4.26666667,10.3515408 3.3115408,11.3066667 2.13333333,11.3066667 Z M2.13333333,5.54666667 C0.955125867,5.54666667 0,4.5915408 0,3.41333333 C0,2.23512587 0.955125867,1.28 2.13333333,1.28 C3.3115408,1.28 4.26666667,2.23512587 4.26666667,3.41333333 C4.26666667,4.5915408 3.3115408,5.54666667 2.13333333,5.54666667 Z" transform="translate(17 14)"/>
</svg>
