<svg xmlns="http://www.w3.org/2000/svg" width="60" height="60" viewBox="0 0 60 60">
  <g fill="#FFF" fill-rule="evenodd" transform="translate(14 18.5)">
    <path d="M11.9998029,3.10995792 L9.53640202,3.10995792 L8.51585022,8.6569425 L8.4665822,8.6569425 L7.22784347,3.10995792 L4.84890202,3.10995792 L3.62423986,8.6569425 L3.57497184,8.6569425 L2.55442004,3.10995792 L0.0417511227,3.10995792 L2.07581644,10.915007 L4.72221283,10.915007 L5.97502815,5.62047686 L6.02429617,5.62047686 L7.28414977,10.915007 L9.9727759,10.915007 L11.9998029,3.10995792 Z M12.6809966,10.915007 L15.179589,10.915007 L15.179589,3.10995792 L12.6809966,3.10995792 L12.6809966,10.915007 Z M13.9267736,2.46479663 C14.6376408,2.46479663 15.2147804,1.94586255 15.2147804,1.23758766 C15.2147804,0.536325386 14.6376408,0.0103786816 13.9267736,0.0103786816 C13.2229448,0.0103786816 12.6458052,0.536325386 12.6458052,1.23758766 C12.6458052,1.94586255 13.2229448,2.46479663 13.9267736,2.46479663 Z M16.2408502,5.47321178 C16.2408502,6.65834502 17.0502534,7.45778401 18.5775619,7.78036466 L20.0485642,8.08892006 C20.6749718,8.22215989 20.9142736,8.40448808 20.9142736,8.72706872 C20.9142736,9.14782609 20.4919764,9.4002805 19.7951858,9.4002805 C19.042089,9.4002805 18.5564471,9.05666199 18.4790259,8.46760168 L16.0578547,8.46760168 C16.1634291,10.0524544 17.4936655,11.08331 19.7459178,11.08331 C21.9207489,11.08331 23.3847128,10.0524544 23.3847128,8.44656381 C23.3847128,7.2684432 22.7231137,6.63730715 21.1606137,6.30771388 L19.5418074,5.97110799 C18.9365146,5.84488079 18.6409065,5.62748948 18.6409065,5.31192146 C18.6409065,4.89817672 19.0561655,4.62468443 19.6896115,4.62468443 C20.4075169,4.62468443 20.8720439,4.98232819 20.8931588,5.54333801 L23.1735642,5.54333801 C23.1594876,3.94446003 21.8292511,2.94165498 19.7177646,2.94165498 C17.5851633,2.94165498 16.2408502,3.92342216 16.2408502,5.47321178 Z M24.29817,10.915007 L26.7897241,10.915007 L26.7897241,6.51809257 C26.7897241,5.62748948 27.2894426,5.00336606 28.1692286,5.00336606 C29.0278998,5.00336606 29.4713119,5.55736325 29.4713119,6.45497896 L29.4713119,10.915007 L31.9699043,10.915007 L31.9699043,5.92201964 C31.9699043,4.07769986 30.9915822,2.97671809 29.2460867,2.97671809 C28.0495777,2.97671809 27.2049831,3.53071529 26.7897241,4.57559607 L26.7404561,4.57559607 L26.7404561,0.29088359 L24.29817,0.29088359 L24.29817,10.915007 Z"/>
    <path d="M5.33271396,12.8437588 C7.11269707,12.8437588 8.15788288,14.1691445 8.15788288,16.4475456 C8.15788288,18.7259467 7.11903153,20.0576438 5.3580518,20.0576438 C4.33186937,20.0576438 3.55273085,19.571669 3.19800112,18.7638149 L3.15365991,18.7638149 L3.15365991,22.2350631 L0.911261258,22.2350631 L0.911261258,12.9384292 L3.14099099,12.9384292 L3.14099099,14.1691445 L3.1853322,14.1691445 C3.54006193,13.3423562 4.32553491,12.8437588 5.33271396,12.8437588 Z M4.50289977,18.2967742 C5.3263795,18.2967742 5.8584741,17.5772791 5.8584741,16.4475456 C5.8584741,15.3304348 5.3263795,14.6046283 4.50289977,14.6046283 C3.67942004,14.6046283 3.14732545,15.3367461 3.14732545,16.4538569 C3.14732545,17.5835905 3.67942004,18.2967742 4.50289977,18.2967742 Z M12.3687782,20.114446 C10.1453829,20.114446 8.77713964,18.7701262 8.77713964,16.4475456 C8.77713964,14.1691445 10.1770552,12.7869565 12.3687782,12.7869565 C14.5668356,12.7869565 15.9604167,14.1565217 15.9604167,16.4475456 C15.9604167,18.7764376 14.5921734,20.114446 12.3687782,20.114446 Z M12.3687782,18.4671809 C13.1859234,18.4671809 13.6863457,17.7413745 13.6863457,16.4475456 C13.6863457,15.1852735 13.179589,14.4342216 12.3687782,14.4342216 C11.5516329,14.4342216 11.0512106,15.1852735 11.0512106,16.4475456 C11.0512106,17.7413745 11.5452984,18.4671809 12.3687782,18.4671809 Z M16.8013795,19.9629734 L19.0437782,19.9629734 L19.0437782,15.999439 C19.0437782,15.2042076 19.4998592,14.6424965 20.2599944,14.6424965 C21.0327984,14.6424965 21.412866,15.1284712 21.412866,15.9426367 L21.412866,19.9629734 L23.6615991,19.9629734 L23.6615991,15.4629734 C23.6615991,13.8030856 22.7811092,12.8185133 21.2101633,12.8185133 C20.1333052,12.8185133 19.4048423,13.3171108 19.0247748,14.2575035 L18.9804336,14.2575035 L18.9804336,12.9384292 L16.8013795,12.9384292 L16.8013795,19.9629734 Z M27.2897241,20.0576438 C25.5414133,20.0576438 24.4708896,18.6880785 24.4708896,16.4349229 C24.4708896,14.2070126 25.5540822,12.8437588 27.3087275,12.8437588 C28.3349099,12.8437588 29.1140484,13.3865358 29.4244369,14.1691445 L29.4687782,14.1691445 L29.4687782,10.4012623 L31.9743479,10.4012623 L31.9743479,19.9629734 L29.4814471,19.9629734 L29.4814471,18.7575035 L29.4434403,18.7575035 C29.1520552,19.5085554 28.3349099,20.0576438 27.2897241,20.0576438 Z M28.1258727,14.6046283 C27.2897241,14.6046283 26.763964,15.3115007 26.763964,16.4475456 C26.763964,17.5962132 27.2833896,18.2967742 28.1258727,18.2967742 C28.9620214,18.2967742 29.4814471,17.5962132 29.4814471,16.4538569 C29.4814471,15.3178121 28.9620214,14.6046283 28.1258727,14.6046283 Z"/>
  </g>
</svg>
