<svg xmlns="http://www.w3.org/2000/svg" width="60" height="60" viewBox="0 0 60 60">
  <path fill="#FFF" fill-rule="evenodd" d="M11,37 L11,24 L14.5893224,24 L16.5010267,29.32 C16.6180704,29.6800018 16.72861,30.0533314 16.8326489,30.44 C16.9366877,30.8266686 17.0472273,31.2133314 17.164271,31.6 L17.2422998,31.6 C17.3593435,31.2133314 17.4698831,30.8266686 17.573922,30.44 C17.6779608,30.0533314 17.7885004,29.6800018 17.9055441,29.32 L19.7392197,24 L23.3285421,24 L23.3285421,37 L20.2854209,37 L20.2854209,33.16 C20.2854209,32.826665 20.3016768,32.460002 20.3341889,32.06 C20.3667011,31.659998 20.4024639,31.2500021 20.4414784,30.83 C20.480493,30.4099979 20.5260093,30.000002 20.5780287,29.6 C20.6300482,29.199998 20.6755645,28.8400016 20.7145791,28.52 L20.6365503,28.52 L19.5831622,31.64 L18.0225873,35.94 L16.2279261,35.94 L14.6673511,31.64 L13.6529774,28.52 L13.5749487,28.52 C13.6139632,28.8400016 13.6594795,29.199998 13.711499,29.6 C13.7635184,30.000002 13.8090347,30.4099979 13.8480493,30.83 C13.8870639,31.2500021 13.9228267,31.659998 13.9553388,32.06 C13.9878509,32.460002 14.0041068,32.826665 14.0041068,33.16 L14.0041068,37 L11,37 Z M26.137577,37 L26.137577,24 L30.936345,24 C31.6125975,24 32.2595794,24.066666 32.8773101,24.2 C33.4950407,24.333334 34.0347342,24.5599984 34.4964066,24.88 C34.958079,25.2000016 35.3254606,25.6299973 35.5985626,26.17 C35.8716646,26.7100027 36.0082136,27.3866626 36.0082136,28.2 C36.0082136,29.133338 35.8228971,29.9066636 35.4522587,30.52 C35.0816203,31.1333364 34.584192,31.6133316 33.9599589,31.96 L36.7104723,37 L32.9650924,37 L30.7802875,32.64 L29.4928131,32.64 L29.4928131,37 L26.137577,37 Z M29.4928131,29.92 L30.7022587,29.92 C32.0547638,29.92 32.7310062,29.3466724 32.7310062,28.2 C32.7310062,27.6399972 32.5586944,27.2533344 32.2140657,27.04 C31.869437,26.8266656 31.3655064,26.72 30.7022587,26.72 L29.4928131,26.72 L29.4928131,29.92 Z M38.4271047,37 L38.4271047,24 L43.2258727,24 C43.9021252,24 44.5491071,24.066666 45.1668378,24.2 C45.7845685,24.333334 46.3242619,24.5599984 46.7859343,24.88 C47.2476067,25.2000016 47.6149884,25.6299973 47.8880903,26.17 C48.1611923,26.7100027 48.2977413,27.3866626 48.2977413,28.2 C48.2977413,29.133338 48.1124249,29.9066636 47.7417864,30.52 C47.371148,31.1333364 46.8737198,31.6133316 46.2494867,31.96 L49,37 L45.2546201,37 L43.0698152,32.64 L41.7823409,32.64 L41.7823409,37 L38.4271047,37 Z M41.7823409,29.92 L42.9917864,29.92 C44.3442915,29.92 45.0205339,29.3466724 45.0205339,28.2 C45.0205339,27.6399972 44.8482221,27.2533344 44.5035934,27.04 C44.1589647,26.8266656 43.6550341,26.72 42.9917864,26.72 L41.7823409,26.72 L41.7823409,29.92 Z"/>
</svg>
