<svg xmlns="http://www.w3.org/2000/svg" width="60" height="60" viewBox="0 0 60 60">
  <g fill="#FFF" fill-rule="evenodd" transform="translate(14 14)">
    <path fill-opacity=".5" d="M32,21.5 L32,5 C32,2.23857625 29.7614237,-5.07265313e-16 27,0 L5,0 L5,0 C2.23857625,5.07265313e-16 -3.38176876e-16,2.23857625 0,5 L0,5 L0,21.5 L0,16 L32,16 L32,21.5 Z"/>
    <path d="M26.75,26.75 L26.75,10.25 C26.75,7.48857625 24.5114237,5.25 21.75,5.25 L-0.25,5.25 L-0.25,5.25 C-3.01142375,5.25 -5.25,7.48857625 -5.25,10.25 L-5.25,10.25 L-5.25,26.75 L-5.25,21.25 L26.75,21.25 L26.75,26.75 Z" transform="rotate(-90 10.75 16)"/>
  </g>
</svg>
