<svg xmlns="http://www.w3.org/2000/svg" width="360" height="360" viewBox="0 0 360 360"><path fill="#FFF" d="M198.583507,192.137154 C195.211226,191.170514 191.492825,191.154475 188.015904,191.300879 C183.9716,191.471342 179.688813,191.980679 175.954501,193.634392 C172.881729,194.994551 170.416772,197.448916 171.706718,200.993945 C172.616289,203.494191 174.632357,205.727738 176.962722,206.986626 C179.582674,208.402922 182.461515,208.172779 185.082965,206.892816 C188.026199,205.455445 190.474308,203.117457 192.693481,200.75858 C193.856885,199.521512 194.966939,198.237073 196.062205,196.940325 C196.567626,196.343706 199.994754,192.933517 198.583507,192.137154 L198.583507,192.137154 Z M254.640492,190.918364 C249.453938,192.120555 243.325615,191.689922 238.125957,192.518178 C229.935517,193.823691 217.735778,203.338275 211.122626,213.009334 C206.527601,219.729372 204.334635,226.573807 200.821773,234.913988 C198.370107,240.73546 193.024064,259.148239 185.548139,250.529797 C182.469564,246.980478 179.023342,235.296317 176.505784,235.460999 C174.641155,235.02906 174.336966,238.649809 173.746934,240.197216 C172.675629,243.007054 172.107499,246.257783 170.672103,248.907417 C169.524797,251.025146 168.018456,253.561946 165.71149,254.59125 C161.601295,256.696857 156.645736,250.350569 154.186582,242.825028 C153.135119,238.789686 146.06634,230.967421 142.987952,229.075545 C128.981427,220.464376 100.869558,211.392175 98.0024398,181.183148 C97.9907402,181.057819 98.0024398,180.676795 98.478466,181.019959 C101.831112,183.438703 139.859022,210.726923 115.453798,157.979694 C100.502492,125.663754 172.69023,105.084513 176.401143,105.000355 C176.901323,104.989808 176.86482,105.216389 176.881667,105.365721 C182.642156,156.943676 239.550308,151.514044 252.803007,163.866815 C265.936463,176.106752 266.204149,187.954848 254.640492,190.918364" transform="matrix(1 0 0 -1 0 360)"/></svg>