<?xml version="1.0" encoding="UTF-8"?>
<svg width="60px" height="60px" viewBox="0 0 60 60" version="1.1" xmlns="http://www.w3.org/2000/svg" xmlns:xlink="http://www.w3.org/1999/xlink">
    <!-- Generator: Sketch 46.2 (44496) - http://www.bohemiancoding.com/sketch -->
    <title>provider-svg--bitly</title>
    <desc>Created with Sketch.</desc>
    <defs></defs>
    <g id="Week-38-Batch-#4" stroke="none" stroke-width="1" fill="none" fill-rule="evenodd">
        <g id="provider-svg--bitly" fill-rule="nonzero" fill="#FFFFFF">
            <path d="M28.41519,39.4851545 C28.3856201,38.9301113 28.395339,38.4545623 28.4222468,38.0983488 C28.5899846,35.9363038 29.980246,34.5358654 31.5092203,34.2368804 C33.4109539,33.865823 34.6780275,34.7145005 34.6780275,37.14448 C34.6780275,38.7866665 34.2112602,41.5568493 31.3325066,41.6059841 C29.5984707,41.6356409 28.4922788,40.9649072 28.41519,39.4851545 Z M35.8726286,43.8031957 C40.7143973,42.0112705 45,36.9168901 45,29.7402746 C45,22.5636591 38.9966883,15 30.1150926,15 C21.2334969,15 15,22.4980754 15,29.7402746 C15,36.9824738 19.6157843,40.8468351 20.0443804,41.2304639 C20.4729766,41.6140926 21.5028684,42.4635917 22.4269383,41.9499843 C23.3510082,41.4363768 22.7896459,40.161448 22.4269383,39.9000066 C22.0642307,39.6385652 17.8057164,36.3590461 17.8057164,29.7402746 C17.8057164,23.1215031 24.2970049,18.503117 30.1150926,18.484319 C35.9331802,18.4655209 41.9488963,23.0114355 41.9488963,29.5642901 C41.9488963,33.9328599 40.5149364,37.2364217 37.6470166,39.4749757 C39.0676609,35.9795091 37.2032303,30.6280246 32.7218702,30.6280246 C30.5691511,30.6280246 29.2807865,31.3797983 28.4042777,32.0795003 C28.4042777,30.4718071 28.459192,27.6173189 28.459192,27.6173189 C28.459192,25.6351089 27.7475924,24.0489761 25.2683767,24.0146542 C23.8335739,23.9945046 22.7692727,24.6369445 22.1050286,26.0891087 C21.8651245,26.6332817 21.9538314,27.2253896 22.4269383,27.4935179 C22.8180194,27.7150771 23.4616811,27.5507632 23.7806045,27.1357279 C23.9930356,26.8765672 24.1127209,26.8212244 24.2970049,26.8408823 C24.6021991,26.8724698 24.6131114,27.3519503 24.6256014,27.6578318 C24.6340352,27.8928551 24.8690253,30.6961288 24.7403555,39.4749757 C24.7403555,41.8935904 26.6825884,45 31.3330144,45 C33.6688178,44.9552568 35.870345,43.8133404 35.8726286,43.8031957 Z" id="icon"></path>
        </g>
    </g>
</svg>