<?xml version="1.0" encoding="UTF-8"?>
<svg width="60px" height="60px" viewBox="0 0 60 60" version="1.1" xmlns="http://www.w3.org/2000/svg" xmlns:xlink="http://www.w3.org/1999/xlink">
    <!-- Generator: Sketch 46.2 (44496) - http://www.bohemiancoding.com/sketch -->
    <title>provider-svg--simple-note</title>
    <desc>Created with Sketch.</desc>
    <defs></defs>
    <g id="Week-38-Batch-#4" stroke="none" stroke-width="1" fill="none" fill-rule="evenodd">
        <g id="provider-svg--simple-note" fill-rule="nonzero" fill="#FFFFFF">
            <g id="icon" transform="translate(15.000000, 15.000000)">
                <path d="M4.21078886,25.3781903 C1.98793503,22.9596752 0.228515081,19.8212297 0,15.6127378 C0,15.2040835 0,14.7942459 0,14.3853828 C0.0898607889,12.607935 0.543341067,10.9973318 1.11118329,9.53157773 C1.84726218,7.63183295 2.98426914,5.81554524 4.32786543,4.67853828 C4.32654292,5.58730858 4.35041763,6.45563805 4.44431555,7.0174942 C4.7287239,8.72331787 5.67946636,10.5913921 6.84243619,11.7537355 C7.78447796,12.6957773 9.0475406,13.342761 10.3508353,14.0337355 C12.9514385,15.4138747 15.4250116,16.6327378 18.01058,18.0094664 C19.6738747,18.8963109 21.3858237,19.9917633 21.8695128,21.7523666 C22.5539443,24.2417401 21.1019026,26.5505568 19.9394896,27.7748492 C18.8681206,28.9037123 17.4631323,29.6771694 15.7881439,29.9383991 C15.1256381,29.9383991 14.4629234,29.9383991 13.8000696,29.9383991 C9.69382831,29.47942 6.4425522,27.8061021 4.21078886,25.3781903 Z M14.0922042,10.3506961 C16.4895592,11.6070766 18.9650116,12.8817633 21.4021114,14.1511601 C22.6580046,14.8059397 23.8001624,15.4823666 24.6760093,16.4312993 C26.2710209,18.159536 27.2663805,20.4139907 27.0733643,23.6820418 C27.4680974,23.3000464 27.8267053,22.7679118 28.1252436,22.2201856 C28.9945476,20.6296984 29.6985383,18.6025754 29.8807657,16.2558237 C29.8710209,16.1873318 29.8924594,16.1519026 29.9386079,16.1388863 C29.9386079,15.3588863 29.9386079,14.5792343 29.9386079,13.7997912 C28.9087935,5.5737355 23.3115313,0.634315545 15.4370534,0.000139211137 C15.1834803,0.000139211137 14.930464,0.000139211137 14.676891,0.000139211137 C13.1383991,0.257610209 11.6395128,0.697099768 10.7596288,1.69670534 C10.1412529,2.39756381 9.65450116,3.64273782 9.58935035,4.44466357 C9.31294664,7.88436195 11.7785847,9.13719258 14.0922042,10.3506961 Z" id="Simplenote"></path>
            </g>
        </g>
    </g>
</svg>