<svg xmlns="http://www.w3.org/2000/svg" width="60" height="60" viewBox="0 0 60 60">
  <g fill="#FFF" fill-rule="evenodd" transform="translate(15 16)">
    <path fill-opacity=".4" d="M0,10.7962036 L13.7267663,1.19288823 L13.7267663,1.19288823 C14.4071076,0.716918 15.3125901,0.717643852 15.9921674,1.19470422 L29.6696008,10.7962036 L14.6480609,22.0801652 L0,10.7962036 Z"/>
    <path d="M20.9468093,11.6389181 C19.9667439,8.59746665 17.144513,6.4 13.8157895,6.4 C10.4642086,6.4 7.62610007,8.62774902 6.66484121,11.7016914 C3.107813,12.2963086 0.394736842,15.4270933 0.394736842,19.2 C0.394736842,23.3973641 3.75260122,26.8 7.89473684,26.8 C10.9988691,26.8 13.6625498,24.889059 14.8026316,22.1647665 C15.9427134,24.889059 18.6063941,26.8 21.7105263,26.8 C25.8526619,26.8 29.2105263,23.3973641 29.2105263,19.2 C29.2105263,15.0026359 25.8526619,11.6 21.7105263,11.6 C21.4527087,11.6 21.1979295,11.6131823 20.9468093,11.6389181 Z" opacity=".5"/>
    <path d="M22.1389445,27.6 L2.36842105,27.6 C1.06037822,27.6 0,26.5254834 0,25.2 L0,10.8"/>
    <path d="M29.4695637,22.0181795 L22.1006194,27.6029965 L16.9736842,27.6 C15.6656414,27.6 14.6052632,26.5254834 14.6052632,25.2 L14.6052632,10.8 L29.4695637,22.0181795 Z" transform="matrix(-1 0 0 1 44.075 0)"/>
    <path d="M22.8082636,1.14610819 C22.1859584,0.949640569 21.5103882,1.26960241 21.2733854,1.8870158 L21.2733854,1.8870158 L17.0724586,12.8308042 L17.0724586,12.8308042 C16.8262306,13.47225 17.146618,14.1918518 17.7880638,14.4380798 L17.7880638,14.4380798 L17.7880638,14.4380798 C18.4295097,14.6843078 19.1491115,14.3639204 19.3953395,13.7224746 L23.0816934,4.11919411 L26.2353511,6.16720332 C26.8115861,6.54141472 27.5820752,6.37764221 27.9562866,5.80140719 C28.330498,5.22517216 28.1667254,4.4546831 27.5904904,4.0804717 L23.3736006,1.3419914 L23.3736006,1.3419914 C23.1976611,1.22773499 23.0036126,1.16363152 22.8082636,1.14610819 Z"/>
  </g>
</svg>
