<?xml version="1.0" encoding="UTF-8"?>
<svg width="60px" height="60px" viewBox="0 0 60 60" version="1.1" xmlns="http://www.w3.org/2000/svg" xmlns:xlink="http://www.w3.org/1999/xlink">
    <!-- Generator: Sketch 46.2 (44496) - http://www.bohemiancoding.com/sketch -->
    <title>provider-svg--meet</title>
    <desc>Created with Sketch.</desc>
    <defs></defs>
    <g id="Week-38-Batch-#4" stroke="none" stroke-width="1" fill="none" fill-rule="evenodd">
        <g id="provider-svg--meet" fill="#FFFFFF">
            <path d="M41.9949591,28.3512085 L42.0145481,28.3321917 C41.7527171,34.2989067 37.7632163,39.4283099 30.0460458,43.7204015 L30.0460458,39.9999135 C30.030704,39.9999712 30.0153554,40 30,40 C23.372583,40 18,34.627417 18,28 C18,21.372583 23.372583,16 30,16 C36.627417,16 42,21.372583 42,28 C42,28.1174714 41.9983121,28.2345485 41.9949591,28.3512085 Z M25,23.7424248 C24.4477153,23.7424248 24,24.19014 24,24.7424248 L24,24.7424248 L24,31 C24,31.5522847 24.4477153,32 25,32 L33.0925919,32 C33.6448767,32 34.0925919,31.5522847 34.0925919,31 L34.0925919,24.7424248 C34.0925919,24.19014 33.6448767,23.7424248 33.0925919,23.7424248 L25,23.7424248 Z M34.0925919,26.6225192 L34.0925919,28.844893 L37,31.662485 L37,23.7424248 L34.0925919,26.6225192 Z" id="Combined-Shape"></path>
        </g>
    </g>
</svg>