<?xml version="1.0" encoding="UTF-8"?>
<svg width="60px" height="60px" viewBox="0 0 60 60" version="1.1" xmlns="http://www.w3.org/2000/svg" xmlns:xlink="http://www.w3.org/1999/xlink">
    <!-- Generator: Sketch 46.2 (44496) - http://www.bohemiancoding.com/sketch -->
    <title>provider-svg--survey-gizmo</title>
    <desc>Created with Sketch.</desc>
    <defs></defs>
    <g id="Week-38-Batch-#4" stroke="none" stroke-width="1" fill="none" fill-rule="evenodd">
        <g id="provider-svg--survey-gizmo" fill="#FEFEFE">
            <g id="Page-1" transform="translate(15.000000, 17.000000)">
                <path d="M26.8248125,7.3831122 C26.8679375,10.5849171 25.1285625,12.5450634 21.8391875,13.0339902 C20.9173125,13.1709659 20.9904375,13.752478 20.9760625,14.324478 C20.9604375,14.9345268 21.2535625,15.2059415 21.9448125,15.2357463 C23.3373125,15.2953561 24.7085625,15.5699415 25.9973125,16.166039 C27.8291875,17.0138927 28.8379375,18.4426244 28.8329375,20.4928195 C28.8285625,22.5417463 27.7923125,23.9698439 25.9954375,24.841161 C24.0385625,25.7898439 21.9416875,25.9407707 19.8229375,25.8722829 C18.4285625,25.8278927 17.0460625,25.6592098 15.7216875,25.1461854 C13.5273125,24.2957951 12.4029375,22.7281854 12.4198125,20.4896488 C12.4366875,18.2295512 13.6235625,16.5725268 15.8123125,15.7963317 C16.3316875,15.6124293 16.8698125,15.455161 17.4116875,15.3739902 C17.7754375,15.3200878 17.8648125,15.1869171 17.7935625,14.8622341 C17.7879375,14.8362341 17.7929375,14.8076976 17.7860625,14.7823317 C17.6235625,14.2039902 18.0566875,13.4595024 17.7566875,13.1031122 C17.4510625,12.738478 16.6823125,12.8063317 16.1466875,12.6034049 C14.2641875,11.8912585 13.2154375,10.5081854 13.0341875,8.46686829 C12.5810625,3.38101463 16.3979375,0.989014634 20.7566875,1.30101463 C21.6254375,1.36252683 22.4741875,1.56418537 23.2410625,2.01252683 C23.5691875,2.20467317 23.7566875,2.16916098 24.0041875,1.83433171 C25.1866875,0.23755122 26.7698125,-0.167668293 28.6398125,0.291453659 C29.2341875,0.436673171 29.5585625,0.756282927 29.6016875,1.3676 C29.6223125,1.65994146 29.6591875,1.95672195 29.6323125,2.24652683 C29.5216875,3.42667317 29.4748125,3.46916098 28.3073125,3.44886829 C27.5866875,3.43618537 26.8935625,3.50847805 26.2441875,3.86867317 C25.9298125,4.04242927 25.8291875,4.20540488 26.0466875,4.54150244 C26.6441875,5.46545366 26.8616875,6.49847805 26.8248125,7.3831122 Z M20.5216875,22.9042244 C21.4491875,22.9308585 22.3648125,22.8262244 23.2579375,22.5757366 C24.3916875,22.2580293 24.9623125,21.5718829 24.9716875,20.5724683 C24.9810625,19.5711512 24.4998125,18.9154439 23.3666875,18.5704683 C21.6523125,18.0485659 19.8979375,17.9211024 18.1329375,18.266078 C16.9816875,18.4899317 16.3660625,19.1900293 16.2948125,20.2496878 C16.2204375,21.3626146 16.7448125,22.1476878 17.8760625,22.5319805 C18.7304375,22.8224195 19.6185625,22.9352976 20.5216875,22.9042244 Z M19.7923125,10.4185171 C21.8916875,10.4229561 23.0310625,9.45905366 23.0285625,7.67773659 C23.0260625,5.6909561 21.8766875,4.47656585 19.9854375,4.46134634 C17.9798125,4.44549268 16.8123125,5.6034439 16.8135625,7.60924878 C16.8141875,9.44193171 17.8454375,10.414078 19.7923125,10.4185171 Z" id="Combined-Shape"></path>
                <path d="M6.9535625,1.3225122 C8.4554375,1.30285366 9.8629375,1.70617073 11.2435625,2.2654878 C11.6573125,2.43290244 11.7935625,2.66563415 11.7623125,3.10763415 C11.7004375,3.98846341 11.4091875,4.76339024 10.9048125,5.47934146 C10.6323125,5.86617073 10.4248125,5.89534146 10.0123125,5.62773171 C8.7604375,4.8147561 7.4135625,4.35119512 5.8916875,4.73104878 C5.2985625,4.87880488 4.8873125,5.18129268 4.7985625,5.82241463 C4.7066875,6.48446341 4.9779375,6.96070732 5.5560625,7.26763415 C6.6854375,7.86753659 7.9635625,8.00704878 9.1404375,8.46426829 C13.2310625,10.0521707 13.3654375,14.1278293 11.9185625,16.3004146 C10.7760625,18.0157805 9.0160625,18.6473902 7.1091875,18.8389024 C4.9423125,19.0557805 2.8198125,18.8401707 1.0685625,17.3239268 C0.0273125,16.4221707 -0.0239375,16.4608537 0.8166875,15.1741707 C1.1985625,14.5894878 1.7516875,14.1734878 2.3348125,13.7904634 C2.7448125,13.5209512 2.9666875,13.6141707 3.2135625,13.9984634 C4.1191875,15.4075366 5.4560625,15.7563171 7.0073125,15.5185122 C7.9141875,15.3796341 8.6216875,14.7645122 8.7666875,14.0143171 C8.9366875,13.134122 8.5998125,12.3744146 7.7516875,11.8537805 C6.9123125,11.3375854 5.9698125,11.0858293 5.0254375,10.8435854 C3.2966875,10.4003171 1.7941875,9.63173171 1.1804375,7.76987805 C0.2441875,4.92826829 1.7716875,2.30226829 4.7616875,1.55968293 C5.4816875,1.38085366 6.2148125,1.3225122 6.9535625,1.3225122" id="Fill-6"></path>
            </g>
        </g>
    </g>
</svg>