<?xml version="1.0" encoding="UTF-8"?>
<svg width="60px" height="60px" viewBox="0 0 60 60" version="1.1" xmlns="http://www.w3.org/2000/svg" xmlns:xlink="http://www.w3.org/1999/xlink">
    <!-- Generator: Sketch 46.2 (44496) - http://www.bohemiancoding.com/sketch -->
    <title>provider-svg--zeplin</title>
    <desc>Created with Sketch.</desc>
    <defs></defs>
    <g id="Week-38-Batch-#4" stroke="none" stroke-width="1" fill="none" fill-rule="evenodd">
        <g id="provider-svg--zeplin" fill="#FFFFFF">
            <g id="LogoMark" transform="translate(11.000000, 16.000000)">
                <g id="Group" transform="translate(18.941209, 13.940582) rotate(-20.000000) translate(-18.941209, -13.940582) translate(1.941209, 5.440582)">
                    <path d="M1.95,8.49043716 L0,3.60655738 L6.19076294,3.99199786 C6.19076294,3.99199786 4.93790775,5.23499627 4.48764761,6.17809355 C4.03738747,7.12119083 3.92686986,8.42082224 3.92686986,8.42082224 L1.95,8.49043716 Z" id="Rectangle-74" fill-opacity="0.5"></path>
                    <path d="M1.95,13.2864838 L0,8.40260404 L6.21250641,8.70257476 C6.21250641,8.70257476 4.80517717,10.2556427 4.42684193,11.032702 C4.04850669,11.8097613 3.97450746,13.2991803 3.97450746,13.2991803 L1.95,13.2864838 Z" id="Rectangle-74-Copy" fill-opacity="0.5" transform="translate(3.106253, 10.850892) scale(1, -1) translate(-3.106253, -10.850892) "></path>
                    <path d="M33.5992986,8.49795082 C33.5210338,13.1906584 26.9027574,16.9808743 18.75,16.9808743 C10.5972426,16.9808743 3.97896616,13.1906584 3.90070138,8.49795082 L33.5992986,8.49795082 L33.5992986,8.49795082 Z" id="Path" fill-opacity="0.5"></path>
                    <path d="M33.5995305,8.49795082 C33.5354128,3.79833495 26.911615,0 18.75,0 C10.588385,0 3.96458715,3.79833495 3.90046946,8.49795082 L33.5995305,8.49795082 L33.5995305,8.49795082 Z" id="Path" fill-opacity="0.5"></path>
                    <path d="M18.75,14.1256831 C10.6222792,14.1256831 4.01962928,11.6138079 3.90160731,8.49795082 L33.5983927,8.49795082 C33.4803707,11.6138079 26.8777208,14.1256831 18.75,14.1256831 Z" id="Path" fill-opacity="0.600000024"></path>
                    <path d="M33.5989243,8.49795082 C33.5021711,5.37518432 26.8911412,2.85519126 18.75,2.85519126 C10.6088588,2.85519126 3.99782891,5.37518432 3.90107574,8.49795082 L33.5989243,8.49795082 L33.5989243,8.49795082 Z" id="Path" fill-opacity="0.5"></path>
                </g>
                <path d="M21.6642945,4.22440447 C20.9353286,1.69936013 20.1057026,0.29859036 19.1631784,0.32551777 C17.3398906,0.377608118 16.7268965,6.16870487 17.316936,13.5895148 C17.9132196,21.0888569 19.4599626,26.7225196 21.3884169,26.6717221 C22.5384722,26.6414284 23.1860526,24.7984083 23.4132122,21.5984401 C23.4178542,21.5330487 23.3451988,21.5783706 23.3494904,21.5118497 C23.3494904,21.5118497 23.3401135,21.3949688 23.296864,21.3921684 C23.2153737,21.3868919 23.0523931,21.3763389 23.0523931,21.3763389 C22.8519615,24.4830874 22.2450925,26.2733434 21.3785603,26.2961688 C19.7937269,26.337915 18.2636549,20.7649724 17.6907519,13.5596838 C17.1272912,6.4731492 17.73392,0.742186702 19.1738681,0.701048161 C19.8554017,0.681577114 20.6188838,1.9713635 21.2947855,4.29692813 C21.2947855,4.29692813 21.6646661,4.22569179 21.6642945,4.22440447 Z" id="Shape" fill-rule="nonzero"></path>
                <path d="M12.629837,2.42258597 C11.0768213,3.38100197 13.4362366,8.70329419 17.6508846,14.834347 C21.9101348,21.0302829 26.0613634,25.1343978 27.7061012,24.1244223 C28.625321,23.5599618 28.3672793,21.8464952 27.1836988,19.2596868 C27.1405493,19.1653801 27.0292581,19.1239728 26.9351229,19.1672009 C26.8409878,19.210429 26.7996558,19.3219229 26.8428053,19.4162295 C27.9431747,21.8211736 28.1798648,23.3928603 27.5101299,23.8041209 C26.1584591,24.6341342 22.0519729,20.5742538 17.9597303,14.6212642 C13.934934,8.76638874 11.6000186,3.49936274 12.8265184,2.74245024 C13.477899,2.34046229 15.0269064,3.31027842 17.0737762,5.40535317 C17.0965489,5.42866224 17.2276712,5.56458884 17.2567652,5.57346324 C17.3202106,5.59281574 17.288188,5.45795426 17.338926,5.408203 C17.4129306,5.3356375 17.4142042,5.21670966 17.3417706,5.14257025 C15.1551034,2.90440566 13.514009,1.87693497 12.629837,2.42258597 Z" id="Shape" fill-rule="nonzero"></path>
            </g>
        </g>
    </g>
</svg>