<?xml version="1.0" encoding="UTF-8"?>
<svg width="60px" height="60px" viewBox="0 0 60 60" version="1.1" xmlns="http://www.w3.org/2000/svg" xmlns:xlink="http://www.w3.org/1999/xlink">
    <!-- Generator: Sketch 46.2 (44496) - http://www.bohemiancoding.com/sketch -->
    <title>provider-svg--userengage</title>
    <desc>Created with Sketch.</desc>
    <defs></defs>
    <g id="Week-38-Batch-#4" stroke="none" stroke-width="1" fill="none" fill-rule="evenodd">
        <g id="provider-svg--userengage" fill="#FFFFFF">
            <g id="Group-3" transform="translate(15.000000, 24.000000)">
                <path d="M21.3771969,5.51054365 C21.4697927,3.57187694 22.7968091,1.37379206 25.8564672,1.44116024 C29.0317621,1.51107453 29.6365381,3.23316557 29.7871504,3.5986052 C30.0057811,4.22306307 30.0559852,5.15378722 29.9377626,6.39077763 L19.9224547,6.39077763 L19.9224547,10.4370194 L19.9224547,10.4370194 C19.9224547,11.4311319 19.1165673,12.2370193 18.1224548,12.2370193 L6.40198536,12.2370193 C5.93153383,12.2370193 5.47977851,12.0528346 5.14343737,11.723898 L0.756293836,7.43333747 L0.756293836,7.43333747 C0.0455703987,6.73826061 0.0328863402,5.5986343 0.727963199,4.88791086 C0.734876687,4.88084175 0.741848307,4.87382972 0.748877348,4.86687549 L5.14209427,0.520416535 L5.14209427,0.520416535 C5.47908928,0.187008234 5.93400523,4.52797386e-15 6.40805874,4.4408921e-15 L6.40805874,3.0897458e-15 L18.1224548,8.24413779e-16 L18.1224548,2.22044605e-16 C19.1165673,3.94310778e-17 19.9224547,0.805887402 19.9224547,1.79999989 L19.9224547,4.8878561 L21.4529604,4.8878561 C21.4141116,5.1040599 21.3888571,5.31162242 21.3771969,5.51054365 Z M21.4118451,6.31898482 C21.4155786,6.34247974 21.4195602,6.36581701 21.4237898,6.38899661 C21.5244811,6.38899661 22.2853822,6.38899661 23.706493,6.38899661 C23.9280673,7.41664491 24.7553513,8.03297785 25.8564672,8.03297785 C26.718683,8.03297785 27.4879529,7.80823091 28.1642772,7.35873702 L29.4557552,8.84846125 C29.1212575,9.66480876 27.9214948,10.0745013 25.8564672,10.0775387 C23.0610481,10.0816505 21.6587927,8.15578023 21.4118451,6.31898482 Z M23.6705827,5.32233528 C23.6801861,5.2264155 23.6929832,5.1328068 23.7093157,5.04181708 C23.6919223,5.12737786 23.6790113,5.22088392 23.6705827,5.32233528 Z M23.7437973,4.87589977 C23.7464709,4.87589977 23.7491288,4.87589977 23.751771,4.87589977 C23.7505178,4.87986278 23.7492773,4.88384822 23.7480494,4.8878561 L27.886483,4.8878561 C27.6944931,3.89444476 27.0178212,3.39773909 25.8564672,3.39773909 C24.5417555,3.39773909 23.9533569,3.99478987 23.7437978,4.87589977 Z M4.20099597,6.99258245 C4.75228347,6.99258245 5.19919029,6.54534162 5.19919029,5.9936421 C5.19919029,5.44194258 4.75228347,4.99470175 4.20099597,4.99470175 C3.64970847,4.99470175 3.20280165,5.44194258 3.20280165,5.9936421 C3.20280165,6.54534162 3.64970847,6.99258245 4.20099597,6.99258245 Z M8.22699755,1.76788111 C8.22699755,3.40274629 8.22699755,5.06353225 8.22699755,6.750239 C8.22699755,9.28029912 9.67798587,10.2120106 11.6388076,10.2120106 C12.946022,10.2120106 13.7972697,9.80170797 14.1925506,8.98110263 L14.3570498,8.98110263 L14.3570498,10.0529886 L16.386861,10.0529886 L16.386861,1.76788111 L14.004212,1.76788111 C14.004212,4.06900414 14.004212,5.46842718 14.004212,5.96615023 C14.004212,6.71273482 14.1349454,8.02353018 12.2696838,8.02353018 C10.4044222,8.02353018 10.4799229,6.87711914 10.4799229,5.96615023 C10.4799229,5.35883763 10.4799229,3.95941459 10.4799229,1.76788111 L8.22699755,1.76788111 Z" id="Combined-Shape"></path>
            </g>
        </g>
    </g>
</svg>