<?xml version="1.0" encoding="UTF-8"?>
<svg width="60px" height="60px" viewBox="0 0 60 60" version="1.1" xmlns="http://www.w3.org/2000/svg" xmlns:xlink="http://www.w3.org/1999/xlink">
    <!-- Generator: Sketch 46.2 (44496) - http://www.bohemiancoding.com/sketch -->
    <title>provider-svg--roadmap</title>
    <desc>Created with Sketch.</desc>
    <defs></defs>
    <g id="Week-38-Batch-#4" stroke="none" stroke-width="1" fill="none" fill-rule="evenodd">
        <g id="provider-svg--roadmap" fill="#FFFFFF">
            <g id="Group-4" transform="translate(13.000000, 14.000000)">
                <path d="M2.06351236,16.0635124 L2,16 C2,7.163444 9.163444,0 18,0 C26.836556,0 34,7.163444 34,16 C34,20.9274618 31.7725788,25.3346816 28.2696979,28.2696979 L16.2928932,16.2928932 C16.1053568,16.1053568 15.8510029,16 15.5857864,16 L15.5857864,16 L2.41421356,16 C2.29328689,16 2.17461849,16.0219031 2.06351236,16.0635124 Z" id="Combined-Shape"></path>
                <path d="M2.41421356,16 L15.5857864,16 L15.5857864,16 C15.8510029,16 16.1053568,16.1053568 16.2928932,16.2928932 L30.2928932,30.2928932 L30.2928932,30.2928932 C30.6834175,30.6834175 30.6834175,31.3165825 30.2928932,31.7071068 C30.1053568,31.8946432 29.8510029,32 29.5857864,32 L16.4142136,32 L16.4142136,32 C16.1489971,32 15.8946432,31.8946432 15.7071068,31.7071068 L1.70710678,17.7071068 L1.70710678,17.7071068 C1.31658249,17.3165825 1.31658249,16.6834175 1.70710678,16.2928932 C1.89464316,16.1053568 2.14899707,16 2.41421356,16 Z" id="Rectangle-7" opacity="0.517153533"></path>
            </g>
        </g>
    </g>
</svg>