<?xml version="1.0" encoding="UTF-8"?>
<svg width="60px" height="60px" viewBox="0 0 60 60" version="1.1" xmlns="http://www.w3.org/2000/svg" xmlns:xlink="http://www.w3.org/1999/xlink">
    <!-- Generator: Sketch 46.2 (44496) - http://www.bohemiancoding.com/sketch -->
    <title>provider-svg--instant-magazine</title>
    <desc>Created with Sketch.</desc>
    <defs></defs>
    <g id="Week-38-Batch-#4" stroke="none" stroke-width="1" fill="none" fill-rule="evenodd">
        <g id="provider-svg--instant-magazine" fill="#FFFFFF">
            <g id="Group-3" transform="translate(15.000000, 15.152600)">
                <path d="M14.9318255,20.30616 C14.1514228,18.01536 12.9230336,16.22876 11.1063221,14.87216 C9.19538255,13.44516 7.04142282,12.72376 4.64927517,12.71496 C3.37477852,12.71036 2.09947651,12.69076 0.825785235,12.72336 C0.25538255,12.73796 -0.00575838926,12.63436 0.000684563758,11.97196 C0.0339060403,8.50736 0.00954362416,5.04216 0.0206174497,1.57736 C0.0238389262,0.55236 0.520147651,0.05596 1.57618792,0.05476 C10.4978658,0.04516 19.4195436,0.04476 28.3414228,0.05396 C29.3408859,0.05516 29.8651812,0.54976 29.8700134,1.50196 C29.8881342,5.00036 29.8667919,8.49856 29.8885369,11.99676 C29.8923624,12.57696 29.680953,12.73036 29.1284698,12.72456 C27.4857181,12.70736 25.825047,12.59036 24.2028322,12.77916 C19.6396107,13.30996 16.6317584,15.86776 14.9318255,20.30616 Z M14.9383289,30.79894 C10.6132953,30.79894 6.28826174,30.80034 1.96342953,30.79834 C0.538731544,30.79754 0.0180604027,30.28934 0.0172550336,28.90034 C0.0152416107,25.43654 0.0363825503,21.97294 0.000342281879,18.50994 C-0.00710738255,17.80394 0.198463087,17.61134 0.898127517,17.62574 C3.0428255,17.66934 5.18953691,17.66914 7.33463758,17.63534 C10.1093356,17.59154 12.4481275,18.56174 14.3417517,20.55294 C14.813698,21.04894 15.0468523,21.07194 15.5445705,20.55234 C17.3838322,18.63174 19.6499396,17.62174 22.3527584,17.63954 C24.5653087,17.65394 26.7788658,17.66814 28.9908121,17.62634 C29.693094,17.61294 29.9008792,17.81654 29.8940336,18.51974 C29.859604,22.01614 29.8837651,25.51314 29.8741007,29.00994 C29.8706779,30.27814 29.3258456,30.79554 28.0134966,30.79714 C23.6552416,30.80234 19.2965839,30.79914 14.9383289,30.79894 Z" id="Combined-Shape"></path>
            </g>
        </g>
    </g>
</svg>