<?xml version="1.0" encoding="UTF-8"?>
<svg width="60px" height="60px" viewBox="0 0 60 60" version="1.1" xmlns="http://www.w3.org/2000/svg" xmlns:xlink="http://www.w3.org/1999/xlink">
    <!-- Generator: Sketch 46.2 (44496) - http://www.bohemiancoding.com/sketch -->
    <title>provider-svg--diffeo </title>
    <desc>Created with Sketch.</desc>
    <defs></defs>
    <g id="Week-38-Batch-#4" stroke="none" stroke-width="1" fill="none" fill-rule="evenodd">
        <g id="provider-svg--diffeo-" fill="#FFFFFF">
            <g id="Page-1" transform="translate(11.000000, 24.000000)">
                <path d="M10.8039031,6.68652418 C11.2801108,6.67305398 11.7570488,6.66909598 12.2324607,6.68634615 C12.6312173,6.70076923 12.8398233,6.58134615 12.820877,6.15403846 C12.81299,5.97635948 12.7757613,5.74102065 13.0364817,5.66883298 C13.0364656,5.66828288 13.0364494,5.66773279 13.0364332,5.66718269 C13.0416361,4.46727885 13.1032853,3.27093269 13.4542343,2.11304808 C13.754038,1.12410577 14.3594372,0.392951923 15.4089463,0.0851634615 C15.6404254,0.0841057692 15.8721008,0.0830480769 16.1035798,0.0819903846 C16.9104188,0.323432692 17.3178141,0.803144231 17.2740314,1.46391346 C17.2489005,1.84189423 17.1021401,2.15247115 16.720072,2.29391346 C16.4092736,2.40900962 16.1063285,2.37631731 15.8537435,2.14314423 C15.5525654,1.86506731 15.5984097,1.54574038 15.7911126,1.17218269 C15.2802487,1.10102885 15.0148037,1.36189423 14.8287762,1.73256731 C14.5704974,2.24718269 14.5356479,2.80814423 14.5107134,3.36881731 C14.5099637,3.37281117 14.5092198,3.37680519 14.5084817,3.38079938 C14.5222462,3.37717652 14.536823,3.3739529 14.5522579,3.37115385 C14.7070681,3.56403846 14.6775196,3.79384615 14.679483,4.01403846 C14.685962,4.73115385 14.6889071,5.44846154 14.6790903,6.16538462 C14.6741819,6.52375 14.8076898,6.68798077 15.1906414,6.68067308 C15.9224804,6.66663462 16.6550065,6.66817308 17.3869437,6.68009615 C17.75625,6.68605769 17.924411,6.54913462 17.9121401,6.17798077 C17.9000654,5.81201923 17.8962369,5.44461538 17.9185209,5.07875 C17.929712,4.89692308 17.9000654,4.68278846 18.1412631,4.59721154 C18.1428845,4.59895052 18.1444924,4.60069182 18.1460869,4.60243543 C18.1552249,3.80582162 18.2614573,3.01850989 18.4769961,2.25322115 C18.774051,1.19870192 19.3636453,0.382067308 20.5128927,0.0820673077 C20.7443717,0.083125 20.9760471,0.0840865385 21.2075262,0.0851442308 C22.0870092,0.390625 22.4415903,0.893125 22.3070026,1.64293269 C22.2168848,2.14466346 21.7589332,2.44543269 21.2670157,2.32600962 C20.7867801,2.20927885 20.6241165,1.86649038 20.7882526,1.32024038 C20.8004254,1.27966346 20.8025851,1.23620192 20.8144634,1.16302885 C20.2578534,1.12177885 20.0111584,1.45466346 19.833377,1.86975962 C19.5816754,2.45754808 19.5772579,3.08793269 19.5589987,3.70649038 C19.5296936,4.69935225 19.5432559,5.69335844 19.5413869,6.68690874 C20.0361137,6.67413916 20.5313928,6.67068744 21.0255236,6.68682692 C21.4285013,6.7 21.6891361,6.61048077 21.6595877,6.14490385 C21.6499673,5.99432692 21.6681283,5.82067308 21.8581806,5.74951923 C21.8629914,5.75212357 21.8676627,5.75479563 21.8721988,5.75753293 C21.9864475,4.75817138 22.473479,4.19232695 23.4578109,3.94090385 C24.4365412,3.691 25.4280334,3.68215385 26.4147153,3.87321154 C27.5510046,4.09330769 28.1217507,4.77119231 28.1707363,5.91080769 C28.1819523,6.17133326 28.1787518,6.43235554 28.1792449,6.69314304 C28.5617509,6.69731031 28.9451416,6.68571536 29.3270615,6.70259615 C29.6854712,6.71836538 29.8841623,6.58923077 30.0272906,6.25153846 C30.8803665,4.23807692 32.9861584,3.32038462 35.0573953,4.09471154 C36.4106348,4.60057692 37.2027487,5.59634615 37.4018325,7.01923077 L37.4018325,7.11538462 C37.3186846,7.43586538 37.3186846,7.75644231 37.4018325,8.07692308 L37.4018325,8.26923077 C37.1504254,8.67711538 37.0981021,9.16557692 36.8178338,9.56826923 C35.8957461,10.8925 34.6108312,11.4744231 33.0200262,11.2219231 C31.4653469,10.9750962 30.4285995,10.0448077 30.0361257,8.53211538 C29.9198953,8.08442308 29.7421139,7.97538462 29.2936846,7.98201923 C27.4638416,8.00913462 25.633017,8.00759615 23.8031741,7.98278846 C23.3730039,7.97682692 23.2017997,8.07894231 23.2677683,8.50932692 C23.2939791,8.67942308 23.2561846,8.85894231 23.2475458,9.03413462 C23.2475543,9.03420284 23.2475746,9.0342745 23.2475949,9.03434615 C23.3597022,9.72376923 23.6565609,10.0360769 24.3594404,10.1875192 C25.3737075,10.4060769 26.3717768,10.2533846 27.366803,10.0503077 C27.5245582,10.0180962 27.6823135,9.98559615 27.8383017,9.95357692 C27.8545975,10.0012692 27.8741329,10.0314615 27.873642,10.0613654 C27.8571499,11.2228077 28.0876473,10.9533846 26.9332952,11.1477115 C25.8834915,11.3244423 24.8206315,11.3469423 23.766803,11.1506923 C22.6366983,10.9401154 22.0222677,10.3733846 21.86893,9.43040385 C21.7261453,9.07644231 21.8144961,8.70778846 21.8104712,8.34711538 C21.8075262,8.07980769 21.7275196,7.98182692 21.4469568,7.98817308 C20.8120092,8.00269231 20.1763743,7.98865385 19.541034,7.98625 C19.5323992,9.49014785 19.5974693,11.0014479 19.2265052,12.4775577 C18.9359293,13.6340962 18.3879581,14.6004423 17.085373,14.9176538 L16.3897579,14.9176538 C15.6096204,14.6847692 15.241983,14.2526538 15.2721204,13.6038077 C15.297055,13.0683269 15.7239856,12.6541923 16.2069699,12.6970769 C16.7268652,12.7433269 16.9355694,13.0666923 16.8136453,13.6990962 C16.7650524,13.9509231 16.8957134,13.9438077 17.0518979,13.9062115 C17.5540249,13.7857308 17.7377945,13.3836154 17.8465641,12.9571731 C18.0093259,12.3188077 18.0517343,11.6622692 18.0630236,11.0048654 C18.0666122,10.7992864 18.0730755,10.5937074 18.0782479,10.3880356 C18.0702864,10.3900898 18.0620409,10.3919965 18.0535013,10.39375 C17.848233,10.1419231 17.9345223,9.84221154 17.9116492,9.56048077 C17.8755236,9.11711538 18.1004254,8.56144231 17.797873,8.25682692 C17.4739202,7.93067308 16.8936518,8.15865385 16.4266688,8.13375 C16.0189791,8.11192308 15.6084424,8.14115385 15.2001636,8.12634615 C14.8236911,8.11259615 14.6569045,8.26451923 14.6787958,8.63423077 C14.6902814,8.82557692 14.6933246,9.01990385 14.6688809,9.21038462 C14.6480754,9.37209943 14.6738097,9.56903494 14.4504941,9.62668705 C14.4607142,10.6347722 14.3968453,11.6392652 14.1263874,12.6138654 C13.8166688,13.7298269 13.2481806,14.6438654 11.9813285,14.9189615 C11.7815576,14.9198269 11.5817866,14.9205962 11.3820157,14.9212692 C10.5318848,14.718 10.1081937,14.1947308 10.2145092,13.4794423 C10.2884293,12.9825192 10.7492277,12.6250192 11.2121859,12.7053077 C11.6896728,12.7881923 11.8973953,13.1180962 11.7578992,13.6756923 C11.6877094,13.9561731 11.8150327,13.9506923 11.9954647,13.9064615 C12.3616296,13.8168462 12.5584555,13.5507885 12.687644,13.2233846 C12.9025327,12.6793462 12.9330628,12.1058846 12.9716427,11.5334808 C12.9718215,11.5326343 12.9720001,11.5317878 12.9721784,11.5309413 C12.9612901,11.5331726 12.9499016,11.535139 12.9379908,11.5368269 C12.7789594,11.3447115 12.8090969,11.11375 12.8071335,10.8927885 C12.8003599,10.1410577 12.7977094,9.38903846 12.8073298,8.63740385 C12.8119437,8.27125 12.6628272,8.11903846 12.2855694,8.12740385 C11.7963024,8.13817308 11.3059555,8.14403846 10.8164921,8.12153846 C10.8123082,8.12176944 10.8081238,8.12199818 10.8039392,8.12222462 C10.8012034,9.04679833 10.7904763,9.97143491 10.8052618,10.8956346 C10.8097775,11.1791923 10.7487173,11.3008269 10.4341885,11.2716923 C10.0961976,11.2404423 9.75378927,11.2547692 9.41314791,11.2492885 C9.41312477,11.2376322 9.41310423,11.2259759 9.41308618,11.2143195 C9.13239832,11.2360047 9.20410104,10.9740474 9.19751309,10.8290385 C9.16678665,10.1424038 9.19388089,9.45451923 9.18013743,8.76740385 C9.17581806,8.55625 9.27202225,8.26182692 8.99901832,8.17461538 C8.66014398,8.06625 8.28534031,8.06173077 7.94361911,8.19076923 C7.76750654,8.25721154 7.80412304,8.46384615 7.80215969,8.61932692 C7.79352094,9.29057692 7.80922775,9.96211538 7.79450262,10.6334615 C7.78272251,11.1773077 7.67935209,11.2890385 7.12990838,11.2844231 C6.76285995,11.2814423 6.32925393,11.4218269 6.1279123,10.9156731 C6.04682592,10.7119231 5.87699607,10.8567308 5.75791885,10.92125 C5.11295812,11.2705769 4.42509817,11.3823077 3.68864529,11.3999038 C2.06632853,11.4386538 -0.036223822,10.0003846 0.0506544503,7.88461538 C0.0506544503,7.68865385 0.0504581152,7.49278846 0.0506544503,7.29692308 C-0.0620418848,5.14067308 2.62931937,2.92798077 5.47509817,4.16942308 C6.13390052,4.45692308 6.13596204,4.45307692 6.13655105,3.75461538 C6.13743455,2.82528846 6.13066099,1.89586538 6.13920157,0.966538462 C6.14509162,0.342692308 6.24512435,0.253269231 6.89018325,0.242980769 C7.02104058,0.240961538 7.15170157,0.245961538 7.2825589,0.250865385 C7.6236911,0.26375 7.78203534,0.443557692 7.79420812,0.769230769 C7.80098168,0.945480769 7.80284686,1.12163462 7.80294503,1.29778846 C7.8036322,2.90019231 7.79950916,4.50259615 7.80530105,6.10490385 C7.8072644,6.64798077 7.85948953,6.68394231 8.4976767,6.68365385 C9.13242801,6.68326923 9.17130236,6.65288462 9.17837042,6.09615385 C9.18592932,5.50336538 9.16384162,4.91 9.19064136,4.31788462 C9.19830504,4.14838654 9.11596637,3.89162549 9.413026,3.85784636 C9.41303722,3.85423091 9.41304841,3.85061545 9.41305955,3.847 C10.7985962,3.77132692 10.7980072,3.77132692 10.7987925,5.10526923 C10.7991543,5.6323857 10.8019327,6.15942055 10.8039031,6.68652418 Z M26.7371922,6.65501383 C26.6114558,6.43333661 26.6800311,6.18199135 26.6681839,5.94523077 C26.6327454,5.23128846 26.364748,4.93407692 25.6484195,4.85388462 C25.4392245,4.83042308 25.2282624,4.81936538 25.0173986,4.81138462 C24.2664169,4.78282692 23.5976014,4.91311538 23.247536,5.67321154 C23.2449677,5.67830327 23.2424801,5.68340161 23.2400708,5.68850633 C23.2580396,5.68711806 23.2775987,5.68684124 23.2988874,5.68778846 C23.4257199,5.85355769 23.4178665,6.04971154 23.4114856,6.23778846 C23.4002945,6.57076923 23.5679647,6.68586538 23.8874018,6.68182692 C24.8372644,6.6698941 25.7876109,6.70373822 26.7371922,6.65501383 Z M3.81847186,10.0950288 C5.18201898,10.0981058 6.34550065,8.96675962 6.36366165,7.62041346 C6.3810373,6.32166346 5.16101113,5.12522115 3.82367474,5.12993269 C2.4619928,5.13474038 1.28898887,6.283875 1.28908704,7.61300962 C1.28918521,8.95339423 2.44942736,10.0919519 3.81847186,10.0950288 Z M36.159591,7.69775 C36.2203567,6.34976923 35.0866198,5.17803846 33.674087,5.12890385 C32.3847546,5.084 31.170913,6.20419231 31.1197677,7.48582692 C31.0647938,8.86832692 32.1648593,10.0458269 33.5560897,10.0934231 C34.9363253,10.1407308 36.0976473,9.07217308 36.159591,7.69775 Z M10.7986257,1.89152885 C10.7986257,2.596625 10.7986257,2.596625 9.94132853,2.59633654 C9.34162304,2.59614423 9.34162304,2.59614423 9.34201571,1.726625 C9.34221204,1.13729808 9.34221204,1.13729808 10.2332788,1.137875 C10.7986257,1.13825962 10.7986257,1.13825962 10.7986257,1.89152885 Z" id="Combined-Shape"></path>
            </g>
        </g>
    </g>
</svg>