<svg xmlns="http://www.w3.org/2000/svg" width="60" height="60" viewBox="0 0 60 60">
  <g fill="none" fill-rule="evenodd" transform="translate(5 5)">
    <rect width="48" height="48" x="1" y="1" stroke="#FFFFFF" stroke-opacity=".2" stroke-width="2" opacity="0" rx="4"/>
    <path fill="#FFFFFF" d="M14.1509009,10.7162162 C16.0728228,10.7162162 17.6351351,12.2785285 17.6351351,14.2042042 C17.6351351,16.1276276 16.0728228,17.6899399 14.1509009,17.6899399 C12.2237237,17.6899399 10.6659159,16.1276276 10.6659159,14.2042042 C10.6659159,12.2785285 12.2237237,10.7162162 14.1509009,10.7162162 L14.1509009,10.7162162 Z M11.1433934,39.6801802 L11.1433934,20.3333333 L17.1584084,20.3333333 L17.1584084,39.6801802 L11.1433934,39.6801802 Z M20.9294294,20.3333333 L26.6966967,20.3333333 L26.6966967,22.978979 L26.7792793,22.978979 C27.5818318,21.4572072 29.5435435,19.8536036 32.4684685,19.8536036 C38.5578078,19.8536036 39.6816817,23.8596096 39.6816817,29.0690691 L39.6816817,39.6801802 L33.6711712,39.6801802 L33.6711712,30.271021 C33.6711712,28.027027 33.6313814,25.1411411 30.5465465,25.1411411 C27.4174174,25.1411411 26.9399399,27.5870871 26.9399399,30.1103604 L26.9399399,39.6801802 L20.9294294,39.6801802 L20.9294294,20.3333333 Z"/>
  </g>
</svg>
