<svg xmlns="http://www.w3.org/2000/svg" width="60" height="60" viewBox="0 0 60 60">
  <path fill="#FFF" fill-rule="evenodd" d="M15,28.9155179 C15.3970687,25.6865251 17.474812,23.8023217 20.0582559,22.3613868 C22.3407767,21.0902674 24.5421357,19.8940667 25.5672723,17.183261 C26.1766104,15.5712619 27.3553301,15.6224563 28.183181,17.2382013 C28.5053311,17.8687665 28.7363302,18.5480287 28.8749296,18.8801679 C29.3119549,19.3683876 29.3968627,19.2772366 29.581662,19.0524808 C30.2709134,18.2108948 30.2259622,16.4740314 31.5857353,16.566431 C33.034162,16.6650739 33.1502859,18.3170296 33.563587,19.4283225 C35.2554993,23.9733859 37.636663,27.5794691 43.1831386,27.7530306 C44.8900347,27.8067223 45.40073,29.0890794 44.6877544,30.6798516 C43.9086007,32.420461 42.4664171,33.3307223 40.6995862,33.8738824 C38.7204858,34.4819719 36.7301476,35.073829 34.8097335,35.837999 C32.8293845,36.6258932 31.3160282,38.0118878 30.3133672,39.946037 C28.3817153,43.6794819 28.3417587,43.7169412 24.4597252,41.9338779 C22.9626013,41.2471238 21.5116773,40.4030407 20.1731312,39.4453309 C17.8981022,37.818348 16.9166682,35.7156319 18.3675923,32.9898426 C18.4150407,32.8999402 18.4287758,32.7925568 18.4537487,32.6914167 C18.8133581,31.2404926 20.2305688,29.7084067 19.0456058,28.3324013 C17.7907188,26.875234 16.5520642,29.094074 15,28.9155179 Z M33.4212416,27.7181934 C32.143879,25.8277467 31.4084278,24.2407205 29.3069604,24.8125993 C28.7325842,24.9686798 28.1145056,25.6754122 28.4229206,26.2660207 C29.3931168,28.1339918 31.197407,27.5696048 33.4212416,27.7181934 Z"/>
</svg>
