<svg xmlns="http://www.w3.org/2000/svg" width="60" height="60" viewBox="0 0 60 60">
  <path fill="#FEFEFE" fill-rule="evenodd" d="M15.346297,43.810024 C15.283671,43.7432083 15.2212655,43.6763925 15.1586395,43.6095768 C14.9544435,43.4452938 15.0058232,43.2126514 15.0056027,43.0000758 C15.002736,38.6517587 15.002736,34.3034416 15.0053822,29.954904 C15.0053822,29.7405643 14.9614999,29.5116707 15.1394548,29.3337159 C15.4845593,27.3188787 16.1143475,25.4674425 17.6552999,23.9840443 C20.3649769,21.3755833 26.1949281,20.8915549 29.0228006,24.9360036 C29.8876568,26.1730876 30.5752197,27.4966131 31.2069926,28.858949 C31.8215653,30.1840181 32.4334919,31.5082052 33.3045225,32.6983197 C34.574463,34.4337655 36.2790369,35.0721537 38.3205562,34.5603405 C40.2066131,34.0873378 41.2498652,32.7496994 41.5385181,30.8292423 C41.4225277,30.2437775 41.4181174,29.6587536 41.5411643,29.0737298 C41.1464441,25.3518931 37.0307694,23.9522903 34.253174,26.1505951 C33.7691456,26.5334076 33.4893133,26.5852284 33.1307574,26.078487 C32.9631667,25.8414344 32.7397859,25.6429717 32.538236,25.4303962 C31.4069988,24.236974 31.3772294,24.1924301 32.7344936,23.3008917 C35.3456008,21.5852922 38.0654214,21.5250918 40.8370629,22.9260178 C41.5228616,22.9551256 41.2251676,22.4236867 41.2300189,22.1484851 C41.2593473,20.4650807 41.2333267,18.7810147 41.2542755,17.0976102 C41.2582447,16.7595621 41.0758796,16.3696932 41.4212046,16.0801582 C42.5508983,15.974532 43.6805919,15.9716653 44.8102855,16.0812608 C45.0629946,16.2159949 44.990225,16.4583399 44.9904455,16.6654026 C44.9944148,20.9438167 44.9939737,25.2222309 44.9915481,29.500645 C44.9913276,29.7143232 45.0393996,29.9452014 44.8477729,30.1167613 C44.5613251,32.2685377 43.9471934,34.2699235 42.2408555,35.7656705 C39.3261004,38.3203261 35.4792323,38.3842752 32.4740664,36.4056023 C31.1251818,35.5175921 30.2651769,33.949296 29.5096957,32.4337028 C28.5678801,30.5436766 27.8829633,28.5200189 26.5034273,26.8522709 C25.2171687,25.2969851 23.6195442,24.6387506 21.6821075,25.1216765 C19.7898762,25.5935766 18.7402292,26.9252611 18.455325,28.8534362 C18.5858693,29.5114502 18.5572025,30.1705668 18.4707609,30.8301244 C19.2851194,34.4200936 22.7968061,35.7628038 25.7194997,33.5457553 C26.2904107,33.1126656 26.5603199,33.1629428 26.9261528,33.6688021 C27.0756613,33.8756443 27.2681701,34.0520556 27.4448019,34.2386105 C28.5996341,35.4578328 28.6280804,35.5012741 27.1718054,36.4366948 C24.5770163,38.1031197 21.8825548,38.1425917 19.1470776,36.7632762 C18.4698789,36.7507069 18.7722037,37.2750893 18.7671319,37.5487473 C18.737142,39.2237723 18.7629421,40.8996792 18.7433163,42.5749247 C18.7391266,42.9187061 18.9009839,43.3015186 18.6024079,43.6111204 C18.5382383,43.6772746 18.4738481,43.7436493 18.4096785,43.810024 C17.3884779,44.0497229 16.3672772,44.0495023 15.346297,43.810024"/>
</svg>
