<svg xmlns="http://www.w3.org/2000/svg" width="60" height="60" viewBox="0 0 60 60">
  <path fill="#FFFFFF" fill-rule="evenodd" d="M17.5766364,9.15243114 C17.4809005,9.05821395 17.4271079,8.9303667 17.4271079,8.79705121 C17.4271079,8.66373573 17.4809005,8.53588847 17.5766364,8.44167129 L21.3148864,4.7567018 C21.5143961,4.56016428 21.8378436,4.56016428 22.0373532,4.7567018 L29.5902282,12.1978184 C30.1409696,12.7614129 30.1359354,13.6546123 29.5788751,14.2121464 L21.8257737,21.8515437 C21.7301405,21.9463112 21.6001805,21.9997209 21.4645402,22 L13.9808157,22 C13.7703014,22.0000492 13.5814008,21.8726271 13.5053103,21.6792498 C13.4292197,21.4858724 13.4815859,21.2663048 13.6371279,21.1265483 L21.322111,13.5512109 C21.4174057,13.4573822 21.4709464,13.3300896 21.4709464,13.1973563 C21.4709464,13.0646229 21.4174057,12.9373303 21.322111,12.8435016 L17.5756043,9.15243114 L17.5766364,9.15243114 Z M12.4244156,12.8475689 C12.5201516,12.941786 12.5739442,13.0696333 12.5739442,13.2029488 C12.5739442,13.3362643 12.5201516,13.4641115 12.4244156,13.5583287 L8.6861657,17.2432982 C8.48665602,17.4398357 8.16320851,17.4398357 7.96369884,17.2432982 L0.408759691,9.80218155 C-0.1410263,9.23844176 -0.13553635,8.34600356 0.421144837,7.78887041 L8.17527842,0.147439467 C8.27120862,0.0532335443 8.40106486,0.000231988818 8.53651185,1.42340932e-08 L16.0192043,1.42340932e-08 C16.2297186,-4.91708744e-05 16.4186191,0.127372945 16.4947097,0.32075025 C16.5708002,0.514127554 16.518434,0.733695232 16.3628921,0.873451668 L8.67790893,8.44878906 C8.58288394,8.54286157 8.52914427,8.66992836 8.52825508,8.80264374 C8.52825508,8.93178037 8.57985986,9.06091699 8.67790893,9.15751525 L12.4244156,12.8485857 L12.4244156,12.8475689 Z" transform="translate(15 19)"/>
</svg>
