<svg xmlns="http://www.w3.org/2000/svg" width="60" height="60" viewBox="0 0 60 60">
  <path fill="#FEFEFE" fill-rule="evenodd" d="M44.3801528,43.6956727 C44.4339405,44.016561 44.5624795,44.3120588 44.690768,44.6075567 C44.8188895,44.9296977 44.6883459,44.997851 44.372803,44.995763 C42.4250062,44.9833183 40.4768753,44.9763861 38.5292456,44.999772 C38.1007821,45.0050338 37.7098195,44.7355053 37.6466617,44.4204973 C37.6362353,44.420604 37.3078322,43.3797122 37.1605009,42.9579304 C37.0009755,42.5626248 36.8808721,42.154958 36.7821501,41.7406931 C36.6577036,41.3169068 36.4917471,40.9057321 36.3918558,40.4744289 C36.246863,40.2026511 36.2000077,39.9034783 36.1473058,39.6056419 C36.0069068,39.2515957 35.8900607,38.8898656 35.7799798,38.5253793 C35.6795038,38.1458592 35.3896854,38.1065207 35.0615308,38.1066878 C32.9743372,38.1078571 30.8870601,38.1079406 28.7998665,38.10769 C27.7562697,38.107523 26.7125059,38.1154575 25.6690761,38.103681 C25.2886373,38.0994214 25.0175276,38.2095023 24.9055258,38.5947019 C24.8598397,38.9083238 24.7449146,39.2020677 24.6408472,39.4989019 C24.5776217,39.7695104 24.4951028,40.0346901 24.4044824,40.2975311 C24.2500517,40.7602383 24.1505781,41.2401508 23.9676667,41.6937542 C23.8566671,42.1051794 23.7631234,42.5220335 23.5843046,42.9121608 C23.4226912,43.3744504 22.748425,44.9895824 21.9556422,44.9895824 C20.0927864,44.9894989 18.2298471,44.9854064 16.3669913,44.9935914 C16.0654799,44.9949278 15.9024467,44.9558399 16.0628073,44.604884 C16.1474977,44.4196341 16.1849152,44.2128357 16.2436306,44.0158093 C16.4556072,43.5605355 16.6158008,43.086887 16.7435047,42.6017962 C16.9350187,42.20031 17.0703229,41.7787788 17.1888394,41.351234 C17.3391775,40.9305379 17.4894321,40.5097584 17.6397701,40.0889788 C17.8048079,39.6564228 17.9855477,39.2291285 18.0870259,38.7749405 C18.2986685,38.310897 18.4637063,37.8303163 18.5970896,37.3385437 C18.7186129,37.0024546 18.8401361,36.6665325 18.9615759,36.3304434 C19.0788396,35.9963588 19.1960198,35.6623577 19.3132835,35.3282731 C19.4233644,35.0567458 19.546224,34.7893946 19.5902396,34.4959848 C19.7403271,34.2040784 19.8562545,33.9007296 19.9057825,33.5744124 C20.0389988,33.2468425 20.2126392,32.9338052 20.2682643,32.5780051 C20.391291,32.2418324 20.5143176,31.9057433 20.6373443,31.5695707 L20.9837065,30.5673169 C21.1218505,30.1775236 21.2598275,29.787814 21.3979714,29.3980207 C21.5135647,29.0640196 21.6290745,28.7300186 21.7446677,28.3959339 L22.1576798,27.2265543 C22.2663409,26.9203657 22.3750854,26.6140937 22.4837464,26.3078216 C22.592825,26.0357097 22.7156847,25.7681915 22.7619554,25.4750322 C22.9088691,25.1816224 23.0203698,24.8756844 23.0879384,24.5542115 C23.2350192,24.2613863 23.3392536,23.9533603 23.4151743,23.6352283 C23.5840541,23.2564598 23.7229498,22.8671677 23.8280194,22.4658486 L24.4147555,20.795342 C24.5564909,20.4707788 24.6904588,20.1434594 24.7581944,19.7934223 C24.965661,19.3645412 25.0982926,18.9085157 25.2430347,18.4568333 C25.4125827,18.0196836 25.5903157,17.5852901 25.6965546,17.1266754 C25.8783801,16.623377 26.0602892,16.120162 26.2421983,15.6169471 C26.3270558,15.0915155 26.6436009,14.9927935 27.1463147,15.0003939 C29.2675015,15.0323825 31.3897739,15.0310462 33.5111277,15.0013127 C34.0145932,14.9942969 34.3715626,15.0574389 34.459928,15.6170306 C34.5953993,16.0723044 34.7388051,16.5247385 34.943599,16.9549559 C35.0638694,17.444724 35.2377605,17.9156162 35.4447259,18.3748155 C35.5416939,18.8082903 35.7053954,19.2187132 35.877616,19.6260459 C35.9642275,19.8766094 36.0508389,20.1271728 36.1374503,20.3777363 C36.284364,20.8001027 36.4311942,21.2223022 36.5780244,21.6445851 C36.7298659,22.0579313 36.8816238,22.471194 37.0334652,22.8845401 C37.1037065,23.2051778 37.2057694,23.5145402 37.3605341,23.8051938 C37.433114,24.1535605 37.5548878,24.4848889 37.7098195,24.8045244 C37.7495756,25.0423091 37.8277514,25.2661458 37.9498593,25.4742805 C38.0417326,25.8806944 38.1820481,26.269903 38.3627879,26.644913 C38.4477289,27.0529973 38.6121821,27.4343549 38.7597639,27.8213084 C38.9268898,28.2946228 39.0939321,28.7678536 39.2609744,29.241168 C39.4170754,29.683329 39.5733435,30.1253229 39.7294445,30.5674004 C39.8512184,30.9049094 39.9729922,31.2422513 40.094766,31.5795932 C40.220883,31.9382331 40.347167,32.2968729 40.4733674,32.6554292 C40.57827,33.0281006 40.6896872,33.3984334 40.8688401,33.7441274 C40.9402507,34.1218936 41.099442,34.4701768 41.2329088,34.8270627 C41.3424885,35.1332512 41.4522353,35.4395233 41.5618151,35.7457118 C41.6769908,36.0797964 41.7922499,36.4139646 41.9074256,36.7480492 C42.0314545,37.0839713 42.155567,37.4198098 42.2796794,37.7558154 C42.3490855,38.0763696 42.4632589,38.3814724 42.5972268,38.6798934 C42.7627657,39.153876 42.9283047,39.6278585 43.0939271,40.1018411 C43.2506128,40.5429163 43.4072985,40.984075 43.5639841,41.4252337 C43.7064712,41.8780019 43.8406062,42.3337768 44.0483233,42.7629085 C44.1218219,43.0870541 44.22472,43.400676 44.3801528,43.6956727 Z M30.3927044,18.3558788 L26,32.8932321 L34.8420203,32.8932321 L30.3927044,18.3558788 Z"/>
</svg>
