<svg xmlns="http://www.w3.org/2000/svg" width="60" height="60" viewBox="0 0 60 60">
  <path fill="#FFF" fill-rule="evenodd" d="M21.2145352,43.9639876 C24.4222933,37.7128416 28.5150377,32.2211365 33.5299604,27.3870935 C27.1157142,30.7831697 21.5343857,35.2146328 16.4265739,40.7379057 C16.0096615,38.8919163 15.5709782,37.276154 15.2894081,35.6335409 C14.7612828,32.5509654 14.9267415,29.496692 16.0281667,26.5420204 C17.6598944,22.163896 20.9855781,19.4976886 25.1410952,17.7460397 C28.929773,16.1491455 32.9263627,15.4076655 37.0154787,15.1914081 C39.395399,15.0654998 41.782032,15.0640484 44.1655807,15.0014571 C44.6351061,14.9891203 44.9823517,15.042459 44.9901529,15.662022 C45.0596383,21.2622186 44.7936707,26.827219 43.1454335,32.2303891 C42.174815,35.412385 40.7508178,38.3547198 38.3389669,40.7368171 C35.8022963,43.24192 32.7476601,44.5254949 29.2111617,44.837 C26.8027578,45.0489032 24.462388,44.7459251 22.1265537,44.2488233 C21.8428065,44.1884091 21.5699448,44.0766519 21.2145352,43.9639876"/>
</svg>
