<svg xmlns="http://www.w3.org/2000/svg" width="60" height="60" viewBox="0 0 60 60">
  <g fill="none" fill-rule="evenodd" transform="translate(15 15)">
    <path d="M4.7732967,14.6403297 C4.7732967,14.4540659 4.81087912,14.278022 4.86791209,14.1112088 L2.33802198,11.248022 C2.33967033,11.2951648 2.33967033,11.3423077 2.34164835,11.3894505 C2.40098901,12.7727473 2.53252747,14.1550549 2.69703297,15.5301099 C2.82263736,16.5827473 2.96307692,17.6373626 3.15131868,18.6817582 L5.00340659,15.4681319 C4.85434375,15.2176176 4.77490238,14.9318336 4.7732967,14.6403297 L4.7732967,14.6403297 Z M7.99153846,14.1524176 L15.3494505,15.7842857 C15.6762925,15.1114082 16.2144843,14.5640691 16.8817582,14.2259341 L14.5638462,4.04736264 L7.89791209,13.9140659 C7.93582418,13.9905495 7.96615385,14.07 7.99153846,14.1524176 L7.99153846,14.1524176 Z M16.1492308,3.66032967 L18.4724176,13.86 C19.0476923,13.8689011 19.5883516,14.0185714 20.0610989,14.2786813 L25.4231868,8.37428571 C25.1793617,7.9036141 25.104753,7.36342806 25.2118681,6.84428571 C23.3334066,5.85824176 21.3227473,5.06835165 19.3638462,4.30384615 C18.4331868,3.94087912 17.4962637,3.58186813 16.5441758,3.27395604 C16.4305759,3.41998817 16.2977199,3.54996081 16.1492308,3.66032967 Z M21.2620879,15.3830769 C21.634775,15.9416534 21.8332683,16.5982874 21.8324176,17.2697802 C21.8324176,17.5836264 21.7865934,17.8862637 21.7071429,18.1750549 L25.2365934,20.1128571 C25.5397182,19.8512933 25.9056467,19.6730437 26.2984615,19.5956044 C26.5757143,16.9087912 26.7431868,14.2035165 26.822967,11.5038462 C26.8424176,10.8543956 26.8608791,10.200989 26.8598901,9.54824176 C26.7821744,9.52634911 26.7055962,9.50060299 26.6304396,9.4710989 L21.2620879,15.3830769 Z M15.0105495,17.3812088 L7.74032967,15.7684615 L11.8931868,26.3208791 C13.2603297,24.1048352 14.6278022,21.8891209 15.9956044,19.6730769 C15.3887497,19.0615093 15.0366815,18.2423736 15.0105495,17.3812088 L15.0105495,17.3812088 Z M3.30692308,9.2456044 C3.30692308,9.43186813 3.26901099,9.60824176 3.21197802,9.77538462 L6.08373626,13.0256044 C6.19529958,13.0021763 6.30897059,12.9902458 6.42296703,12.99 C6.46516484,12.99 6.50472527,12.9992308 6.54593407,13.0025275 L12.8838462,3.62142857 C11.1323077,4.40043956 9.44175824,5.38054945 7.78912088,6.30593407 C6.61153846,6.96593407 5.44021978,7.64076923 4.29395604,8.35351648 C3.97714286,8.55065934 3.61714286,8.76659341 3.28087912,8.98516484 C3.2943956,9.07054945 3.30692308,9.15626374 3.30692308,9.2456044 L3.30692308,9.2456044 Z M24.4252747,21.8749451 C24.4252747,21.7625275 24.4361538,21.6527473 24.4516484,21.5442857 L20.9093407,19.5995604 C20.2661389,20.291153 19.3641324,20.6838698 18.4196703,20.6835165 C18.0603297,20.6835165 17.7141758,20.6274725 17.3891209,20.5246154 L13.5052747,26.8186813 C13.5893407,26.79 13.6750549,26.7662637 13.7587912,26.7365934 C16.3051648,25.8474725 18.8086813,24.8228571 21.2792308,23.7438462 C22.35,23.2763736 23.4161538,22.7986813 24.4635165,22.2807692 C24.43859,22.1469199 24.4257909,22.0110946 24.4252747,21.8749451 L24.4252747,21.8749451 Z M6.28714286,16.5128571 L4.26593407,20.0198901 C4.4151483,20.2702191 4.49460363,20.5559396 4.49604396,20.8473626 C4.49604396,21.0217582 4.46175824,21.1869231 4.41131868,21.3451648 C6.06197802,23.038022 7.83362637,24.6082418 9.7256044,26.0278022 C9.86835165,26.1346154 10.0120879,26.2407692 10.1571429,26.3462637 L6.28714286,16.5128571 Z"/>
    <path fill="#FFF" fill-rule="nonzero" d="M29.8137363,7.31208791 C29.8138237,6.69556392 29.5689493,6.10426603 29.1330009,5.66831773 C28.6970526,5.23236943 28.1057548,4.98749496 27.4892308,4.98758242 C26.9561538,4.98758242 26.4669231,5.1689011 26.0746154,5.47054945 L26.0221978,5.44450549 C23.5127473,4.17923077 20.8846154,3.10582418 18.2465934,2.14252747 C17.8157143,1.98461538 17.3789011,1.82241758 16.9374725,1.67538462 C16.7651164,0.707753406 15.9238505,0.00290152137 14.940989,0.00263736264 C13.889507,0.00289745974 13.0125368,0.806595979 12.9207692,1.85406593 C10.6589011,2.81868132 8.49,4.03120879 6.3567033,5.23978022 C5.22758242,5.87868132 4.10835165,6.53604396 3.01252747,7.23 C2.76725275,7.38593407 2.50747253,7.54351648 2.25098901,7.71 C2.06156961,7.63523389 1.85990205,7.59633127 1.65626374,7.59527473 C0.744811827,7.59527473 0.00593406593,8.33415249 0.00593406593,9.2456044 C0.00593406593,9.79318681 0.275604396,10.2748352 0.686043956,10.5751648 C0.688021978,10.6701099 0.69032967,10.7624176 0.691648352,10.8510989 C0.709120879,12.1786813 0.840989011,13.5079121 0.983406593,14.8275824 C1.13043956,16.2194505 1.32065934,17.6067033 1.55307692,18.987033 C1.59065934,19.2069231 1.62395604,19.4505495 1.66318681,19.6997802 C1.3637334,20.0065892 1.19608763,20.4183092 1.19604396,20.847033 C1.19603584,21.3439262 1.41995655,21.8143642 1.8056141,22.127687 C2.19127164,22.4410098 2.69759453,22.5638493 3.18395604,22.4620879 C3.4678022,22.7363736 3.76054945,23.0010989 4.03516484,23.2625275 C5.08380922,24.2593867 6.16460042,25.2218736 7.27582418,26.1484615 C8.17516484,26.8981319 9.10186813,27.6441758 10.0978022,28.2675824 C10.167033,29.1141758 10.8682418,29.7827473 11.732967,29.7834066 C12.4697802,29.7840659 13.0869231,29.2978022 13.2992308,28.6312088 C15.2037363,28.0928571 17.066044,27.2541758 18.8802198,26.5140659 C20.7748352,25.7406593 22.6592308,24.9382418 24.5116484,24.0672527 C24.7532967,23.9538462 25.0338462,23.8371429 25.3265934,23.7102198 C25.7331618,24.0277858 26.2342165,24.2003351 26.7501099,24.2004396 C28.0338546,24.1995298 29.0741041,23.1586901 29.0742857,21.8749451 C29.0741803,21.0402618 28.6259373,20.2699031 27.9003297,19.8573626 C28.0213187,18.7691209 28.1113187,17.6789011 28.1897802,16.5867033 C28.3618681,14.2035165 28.5141758,11.8005495 28.4884615,9.40879121 C29.2975225,9.02386299 29.8131775,8.20805053 29.8137363,7.31208791 L29.8137363,7.31208791 Z M26.822967,11.5035165 C26.7431868,14.2031868 26.5757143,16.9084615 26.2984615,19.5952747 C25.9056952,19.6728584 25.539802,19.8510908 25.2365934,20.1125275 L21.7071429,18.1747253 C21.7865934,17.8859341 21.8324176,17.5832967 21.8324176,17.2694505 C21.8324176,16.5718681 21.6217582,15.9234066 21.2620879,15.3827473 L26.6304396,9.47043956 C26.7052747,9.50010989 26.7817582,9.52549451 26.8598901,9.54758242 C26.8608791,10.2006593 26.8424176,10.8540659 26.822967,11.5035165 L26.822967,11.5035165 Z M11.8931868,26.3208791 L7.74032967,15.7684615 L15.0105495,17.3812088 C15.0365605,18.2423351 15.3885131,19.0614762 15.9952747,19.6730769 L11.8931868,26.3208791 Z M3.15131868,18.6814286 C2.96307692,17.637033 2.82263736,16.5827473 2.69703297,15.5297802 C2.53252747,14.1550549 2.40098901,12.7727473 2.34164835,11.3891209 C2.33967033,11.341978 2.33967033,11.2948352 2.33802198,11.2476923 L4.86791209,14.1108791 C4.80742568,14.2808323 4.77545607,14.459617 4.7732967,14.64 C4.7732967,14.942967 4.86098901,15.2235165 5.00340659,15.4674725 C4.38626374,16.5392308 3.76879121,17.6103297 3.15131868,18.6814286 L3.15131868,18.6814286 Z M14.5638462,4.04736264 L16.8817582,14.2259341 C16.2144117,14.5639698 15.6761921,15.1113373 15.3494505,15.7842857 C12.8967033,15.2406593 10.4442857,14.6967033 7.99153846,14.1524176 C7.96672851,14.0705999 7.93542007,13.9908957 7.89791209,13.9140659 L14.5638462,4.04736264 L14.5638462,4.04736264 Z M19.3638462,4.30351648 C21.3227473,5.06802198 23.3334066,5.85791209 25.2118681,6.84395604 C25.1046442,7.36309478 25.179258,7.9033174 25.4231868,8.37395604 L20.0610989,14.2783516 C19.5738185,14.0107899 19.028275,13.8670173 18.4724176,13.8596703 L16.1492308,3.66 C16.2977941,3.549718 16.4306611,3.41973454 16.5441758,3.27362637 C17.4962637,3.58153846 18.4331868,3.94054945 19.3638462,4.30351648 L19.3638462,4.30351648 Z M7.78912088,6.30593407 C9.44175824,5.38087912 11.1323077,4.40076923 12.8838462,3.62142857 L6.54593407,13.0025275 C6.50472527,12.9995604 6.46516484,12.99 6.42296703,12.99 C6.30897059,12.9902458 6.19529958,13.0021763 6.08373626,13.0256044 L3.21197802,9.77538462 C3.27270132,9.60525566 3.30478507,9.42623277 3.30692308,9.2456044 C3.30692308,9.15626374 3.29406593,9.07054945 3.28054945,8.98483516 C3.61714286,8.76659341 3.97681319,8.55065934 4.29362637,8.35318681 C5.44021978,7.64076923 6.61153846,6.96593407 7.78912088,6.30593407 L7.78912088,6.30593407 Z M4.41131868,21.3448352 C4.46175824,21.1869231 4.49604396,21.0217582 4.49604396,20.847033 C4.4944435,20.5556322 4.41499965,20.269953 4.26593407,20.0195604 L6.28714286,16.5125275 L10.1568132,26.3456044 C10.0120879,26.2404396 9.86802198,26.133956 9.72527473,26.0271429 C7.83362637,24.6082418 6.06197802,23.0376923 4.41131868,21.3448352 L4.41131868,21.3448352 Z M13.7581319,26.7362637 C13.6743956,26.7659341 13.5886813,26.7896703 13.5046154,26.8183516 C14.7995604,24.7206593 16.0938462,22.6223077 17.3884615,20.5242857 C17.7138462,20.6271429 18.06,20.6831868 18.419011,20.6831868 C19.4020879,20.6831868 20.2859341,20.2648352 20.9086813,19.5992308 L24.450989,21.543956 C24.4354945,21.6524176 24.4246154,21.7621978 24.4246154,21.8746154 C24.4246154,22.0130769 24.4387912,22.1482418 24.4621978,22.2797802 C23.4148352,22.7976923 22.3483516,23.2757143 21.2779121,23.7428571 C18.808022,24.8225275 16.3045055,25.8468132 13.7581319,26.7362637 L13.7581319,26.7362637 Z"/>
  </g>
</svg>
