<svg xmlns="http://www.w3.org/2000/svg" width="60" height="60" viewBox="0 0 60 60">
  <path fill="#FFF" d="M23.2025316,23.2025316 C24.721519,21.721519 27.1898734,21.721519 28.6708861,23.2025316 C30.1518987,24.721519 30.1898734,27.1898734 28.6708861,28.6708861 C27.1518987,30.1518987 24.6835443,30.1898734 23.2025316,28.6708861 C21.721519,27.1518987 21.721519,24.6835443 23.2025316,23.2025316 Z M15,7.93670886 C13.1012658,7.97468354 11.278481,8.69620253 9.98734177,9.79746835 C8.62025316,11.1265823 8.01265823,12.9113924 8.01265823,14.6962025 C8.05063291,16.4810127 8.62025316,18.2278481 9.98734177,19.5949367 C11.3924051,21.0379747 13.2151899,21.7594937 15.1139241,21.7974684 C16.0632911,21.7974684 17.0506329,22.1772152 17.8101266,22.9367089 C19.2911392,24.4556962 19.3291139,26.9240506 17.8101266,28.4050633 C16.2911392,29.8860759 13.8227848,29.8860759 12.3417722,28.4050633 C11.5822785,27.6455696 11.2025316,26.6582278 11.2025316,25.6329114 C11.0886076,23.7721519 10.3670886,21.9493671 9,20.5822785 C7.63291139,19.2151899 5.84810127,18.6455696 4.02531646,18.6455696 C3.98734177,18.6455696 3.98734177,18.6455696 3.98734177,18.6455696 C3.83544304,18.6075949 3.75949367,18.6075949 3.64556962,18.6075949 C3.60759494,18.6075949 3.60759494,18.6075949 3.60759494,18.6075949 C3.4556962,18.6075949 3.37974684,18.6075949 3.26582278,18.5696203 L3.2278481,18.5696203 C3.07594937,18.5316456 3,18.5316456 2.88607595,18.4936709 C2.84810127,18.4556962 2.84810127,18.4556962 2.81012658,18.4556962 C2.69620253,18.4556962 2.62025316,18.4177215 2.5443038,18.3797468 C2.50632911,18.3797468 2.46835443,18.3417722 2.43037975,18.3417722 C2.39240506,18.3037975 2.3164557,18.2658228 2.24050633,18.2278481 C2.20253165,18.2278481 2.12658228,18.1898734 2.08860759,18.1518987 C2.05063291,18.1518987 1.97468354,18.1139241 1.93670886,18.0759494 C1.86075949,18.0379747 1.82278481,17.9620253 1.74683544,17.9240506 C1.74683544,17.8860759 1.70886076,17.8860759 1.67088608,17.8481013 C1.59493671,17.7341772 1.48101266,17.6582278 1.40506329,17.5822785 C0.64556962,16.8227848 0.265822785,15.8734177 0.265822785,14.8481013 C0.265822785,13.8607595 0.64556962,12.8734177 1.40506329,12.1139241 C1.48101266,12.0379747 1.59493671,11.9620253 1.67088608,11.8860759 C1.70886076,11.8481013 1.78481013,11.8101266 1.82278481,11.7721519 C1.86075949,11.7341772 1.93670886,11.6962025 1.97468354,11.6582278 C2.05063291,11.6202532 2.08860759,11.5822785 2.16455696,11.5443038 C2.20253165,11.5063291 2.24050633,11.5063291 2.27848101,11.4683544 C2.35443038,11.4303797 2.43037975,11.3924051 2.50632911,11.3544304 C2.5443038,11.3544304 2.58227848,11.3164557 2.62025316,11.3164557 C2.69620253,11.278481 2.7721519,11.278481 2.84810127,11.2405063 C2.84810127,11.2405063 2.88607595,11.2025316 2.92405063,11.2025316 C3,11.164557 3.11392405,11.164557 3.18987342,11.1265823 C3.2278481,11.1265823 3.2278481,11.1265823 3.26582278,11.1265823 C3.34177215,11.1265823 3.4556962,11.0886076 3.53164557,11.0886076 C3.56962025,11.0886076 3.56962025,11.0886076 3.60759494,11.0886076 C3.6835443,11.0886076 3.79746835,11.0886076 3.87341772,11.0886076 L3.91139241,11.0886076 C5.73417722,11.0886076 7.51898734,10.5189873 8.88607595,9.15189873 C10.2911392,7.78481013 11.0126582,5.96202532 11.0886076,4.10126582 C11.0886076,3.11392405 11.4683544,2.08860759 12.2278481,1.32911392 C13.7468354,-0.151898734 16.2151899,-0.189873418 17.6962025,1.32911392 C19.1772152,2.84810127 19.1772152,5.3164557 17.6962025,6.79746835 C16.9746835,7.55696203 15.9873418,7.93670886 15,7.93670886 Z M28.6708861,6.79746835 C27.1898734,8.27848101 24.6835443,8.3164557 23.2025316,6.79746835 C21.721519,5.27848101 21.6835443,2.81012658 23.2025316,1.32911392 C24.721519,-0.151898734 27.1898734,-0.189873418 28.6708861,1.32911392 C30.1518987,2.84810127 30.1518987,5.3164557 28.6708861,6.79746835 Z" transform="translate(14 15)"/>
</svg>
