<svg xmlns="http://www.w3.org/2000/svg" width="60" height="60" viewBox="0 0 60 60">
  <path fill="#FFF" d="M30,45 C38.2842712,45 45,38.2842712 45,30 C45,21.7157288 38.2842712,15 30,15 C21.7157288,15 15,21.7157288 15,30 C15,30.8934018 15.7242453,31.6176471 16.6176471,31.6176471 C17.5110489,31.6176471 18.2352941,30.8934018 18.2352941,30 C18.2352941,23.5025324 23.5025324,18.2352941 30,18.2352941 C36.4974676,18.2352941 41.7647059,23.5025324 41.7647059,30 C41.7647059,36.4974676 36.4974676,41.7647059 30,41.7647059 C29.1065982,41.7647059 28.3823529,42.4889511 28.3823529,43.3823529 C28.3823529,44.2757547 29.1065982,45 30,45 Z"/>
</svg>
