<svg xmlns="http://www.w3.org/2000/svg" width="60" height="60" viewBox="0 0 60 60">
  <g fill="#FFF" transform="translate(15 18)">
    <path d="M29.5147059,9.33529412 C29.5147059,9.33529412 28.8352941,10.6941176 25.4117647,12.8647059 C23.9558824,13.7470588 20.9294118,14.7529412 17.0470588,15.1323529 C14.9470588,15.3352941 11.0911765,15.1323529 9.43235294,15.1323529 C7.77352941,15.1323529 7.00588235,15.4852941 5.50588235,17.1705882 L0,23.4 L3.35294118,23.4 C4.79117647,23.4 13.8,23.9205882 17.7970588,22.8264706 C30.7852941,19.2617647 29.5147059,9.33529412 29.5147059,9.33529412 Z"/>
    <path d="M29.1705882,5.39117647 C29.7970588,1.57941176 27.6441176,0.538235294 27.6441176,0.538235294 C27.6441176,0.538235294 27.7323529,3.63529412 22.0588235,4.28823529 C16.9764706,4.87941176 0,4.41176471 0,4.41176471 L5.45294118,10.6676471 C6.92647059,12.3617647 7.71176471,12.5558824 9.37058824,12.6794118 C11.9736372,12.7864162 14.5806288,12.7481214 17.1794118,12.5647059 C19.9058824,12.3529412 23.8235294,11.4705882 26.4,9.45882353 C27.7885661,8.48607559 28.7738696,7.03949942 29.1705882,5.39117647 Z"/>
  </g>
</svg>
