<svg xmlns="http://www.w3.org/2000/svg" width="60" height="60" viewBox="0 0 60 60">
  <g fill="none" fill-rule="evenodd" transform="translate(5 5)">
    <rect width="48" height="48" x="1" y="1" stroke="#FFFFFF" stroke-opacity=".2" stroke-width="2" opacity="0" rx="4"/>
    <path fill="#FEFEFE" d="M10,20.666443 C10.2925087,19.3551434 10.5765909,18.0757074 10.8642543,16.7972085 C10.9152353,16.5702068 10.9652683,16.3525766 11.2082707,16.2178334 C12.9796497,15.2355822 14.8347682,14.6835931 16.8725335,15.193514 C18.2484937,15.5378694 19.3486932,16.2429285 19.8203727,17.708027 C20.236858,17.3632551 20.6106835,17.030458 21.0086303,16.7287956 C22.4086064,15.6675103 23.9735334,15.0531478 25.7578683,15.0197223 C27.8116442,14.9811945 28.9797832,15.813916 29.5887111,17.8765081 C29.8035897,17.63472 29.96517,17.4211509 30.1582447,17.2404867 C31.9746008,15.5405768 34.1124321,14.7017116 36.6088156,15.1460311 C38.7507549,15.5272482 39.8820274,17.204458 39.6156412,19.3536856 C39.293218,21.9549383 38.5186017,24.46841 38.0877912,27.048941 C37.9570734,27.8318887 37.7859079,28.6083805 37.6576127,29.3916407 C37.4685407,30.5452886 38.0376529,31.0715578 39.1982079,30.8249798 C39.4462663,30.7721862 39.6842127,30.6725346 40,30.5710085 C39.7235018,31.7838019 39.4537449,32.9668142 39.183988,34.1499307 C39.1534416,34.2837368 39.0741261,34.3571479 38.938879,34.4091084 C37.7102791,34.8807097 36.4402834,35.1263506 35.1306827,34.9344404 C33.0440431,34.6286128 31.9887154,33.2545233 32.089308,31.0117876 C32.1673595,29.2707467 32.6496777,27.5972856 33.0374071,25.9103918 C33.4377765,24.167893 33.7391332,22.407484 34.0480738,20.6488452 C34.2574751,19.4562529 33.6863615,18.9410214 32.4819881,19.1713553 C30.9879499,19.4570859 29.2141483,21.1751144 28.9025743,22.6394839 C28.0990969,26.4155228 27.2928809,30.1911451 26.4980408,33.9689541 C26.4212533,34.333823 26.3013848,34.5123005 25.867625,34.4995967 C24.6623036,34.4640886 23.4545595,34.4639845 22.2492381,34.4986595 C21.7598626,34.512717 21.7222589,34.3374675 21.8085263,33.9379236 C22.6421288,30.0761864 23.4690954,26.2129914 24.2841594,22.3474014 C24.4216185,21.6952399 24.5250551,21.032249 24.587096,20.3690499 C24.6709408,19.4718723 24.3282938,19.1384505 23.428437,19.1435528 C22.8833406,19.1465725 22.3748999,19.2956856 21.9224962,19.5751685 C20.9998876,20.1453803 20.2164235,20.8689744 19.5928542,21.7583423 C19.2864416,22.1952686 19.2797003,22.7132074 19.1745783,23.1996993 C18.3965914,26.7969482 17.6292431,30.3964879 16.8814867,34.0000887 C16.8022766,34.3818265 16.6648175,34.5020958 16.277404,34.4955357 C14.9801272,34.4736685 13.6817971,34.4704405 12.3846256,34.4964728 C11.9457045,34.5053238 11.8584891,34.377349 11.9478112,33.9694747 C12.8054295,30.0571307 13.651672,26.1422876 14.4935958,22.2266115 C14.6301069,21.5916313 14.7570327,20.949258 14.7539781,20.298242 C14.7481848,19.1027341 14.0800598,18.5868778 12.9056009,18.8436606 C11.9231633,19.0583751 11.1501271,19.6135922 10.4653596,20.3150068 C10.3442271,20.4390247 10.2723902,20.6292689 10,20.666443"/>
  </g>
</svg>
