<svg xmlns="http://www.w3.org/2000/svg" width="60" height="60" viewBox="0 0 60 60">
  <defs>
    <linearGradient id="provider-svg--google-optimize-a" x1="-12.284%" x2="60.11%" y1="39.14%" y2="103.141%">
      <stop offset="0%" stop-color="#37474F" stop-opacity=".2"/>
      <stop offset="100%" stop-color="#37474F" stop-opacity=".02"/>
    </linearGradient>
  </defs>
  <g fill="none" transform="translate(18 18)">
    <path fill="#FFF" d="M5.75,2 L5.75,7.625 L16.375,18.40625 L22,18.40625 C23.03125,18.40625 23.875,17.5625 23.875,16.53125 L23.875,2 C23.875,0.96875 23.03125,0.125 22,0.125 L7.625,0.125 C6.59375,0.125 5.75,0.96875 5.75,2 Z" opacity=".4"/>
    <polygon fill="url(#provider-svg--google-optimize-a)" points="16.375 7.625 16.375 18.406 26.844 18.406" opacity=".481"/>
    <path fill="#FFF" d="M16.375,7.625 L6.0625,7.625 L6.0625,7.625 L6.0625,7.625 L2,7.625 C0.96875,7.625 0.125,8.46875 0.125,9.5 L0.125,22 C0.125,23.03125 0.96875,23.875 2,23.875 L14.5,23.875 C15.53125,23.875 16.375,23.03125 16.375,22 L16.375,17.9375 L16.375,17.9375 L16.375,17.9375 L16.375,7.625 Z"/>
  </g>
</svg>
