<svg xmlns="http://www.w3.org/2000/svg" width="60" height="60" viewBox="0 0 60 60">
  <path fill="#FFF" d="M22.1607143,6.22758621 C22.1607143,6.22758621 19.75,13.9034483 19.5535714,14.537069 C19.4821429,13.8853448 17.7142857,0.10862069 17.7142857,0.10862069 C13.6071429,0.10862069 11.4107143,3.07758621 10.25,6.20948276 C10.25,6.20948276 7.32142857,13.9034483 7.07142857,14.5551724 C7.05357143,13.9577586 6.625,6.3 6.625,6.3 C6.375,2.46206897 2.91071429,0.126724138 0.107142857,0.126724138 L3.5,21 C7.80357143,20.9818966 10.125,18.0310345 11.3392857,14.8991379 C11.3392857,14.8991379 13.9285714,8.11034483 14.0357143,7.80258621 C14.0535714,8.09224138 15.8928571,21 15.8928571,21 C20.2142857,21 22.5357143,18.2301724 23.7857143,15.2068966 L29.8392857,0.126724138 C25.5714286,0.126724138 23.3214286,3.07758621 22.1607143,6.22758621 Z" transform="translate(15 20)"/>
</svg>
