<svg xmlns="http://www.w3.org/2000/svg" width="60" height="60" viewBox="0 0 60 60">
  <path fill="#FFF" d="M25.6744186,30 C24.9767442,28.9534884 24.0174419,28.4302326 22.9709302,28.1686047 C24.5406977,26.4244186 26.1976744,26.0755814 26.8953488,26.1627907 C28.0290698,26.25 28.6395349,27.2093023 30.2093023,30.2616279 L30.994186,31.8313953 C33.872093,24.505814 38.755814,18.9244186 42.5930233,15.4360465 C42.5930233,15.0872093 42.5930233,15 42.5930233,15 L18.3488372,15 C18.3488372,15 18.3488372,39.9418605 18.3488372,41.8604651 C18.3488372,43.6918605 18,44.8255814 18,45 C19.6569767,44.7383721 23.6686047,44.0406977 27.4186047,42.6453488 C34.744186,40.0290698 37.5348837,37.2383721 37.5348837,37.2383721 C37.5348837,37.2383721 38.4069767,39.244186 39.3662791,40.377907 C41.0232558,42.2965116 42.0697674,42.122093 42.3313953,39.5930233 C42.5930233,36.5406977 42.5930233,22.6744186 42.505814,17.1802326 C35.0930233,25.7267442 29.9476744,39.6802326 29.9476744,39.6802326 C29.9476744,39.6802326 26.0232558,30.5232558 25.6744186,30 Z"/>
</svg>
