<svg xmlns="http://www.w3.org/2000/svg" width="60" height="60" viewBox="0 0 60 60">
  <path fill="#FFF" d="M0.15922895,0.142210137 L29.8577899,0.142210137 L29.8577899,29.8407711 L0.15922895,29.8407711 L0.15922895,0.142210137 Z M3.16620824,23.8268124 L3.16620824,25.7943421 L14.0433061,25.7943421 L14.0433061,23.8268124 L3.16620824,23.8268124 Z M7.13839075,11.910265 L7.13096612,11.910265 L7.13096612,17.0703898 L9.98945255,17.0703898 L9.98945255,11.8731417 L15.0010848,4.04014627 L11.7416678,4.04014627 L8.5861956,9.27451763 L5.46784671,4.04014627 L2.1267586,4.04014627 L7.13839075,11.910265 Z M19.3890471,6.67589353 L19.3890471,17.0332666 L22.2475336,17.0332666 L22.2475336,6.67589353 L26.182593,6.67589353 L26.182593,4.04014627 L15.4168645,4.04014627 L15.4168645,6.67589353 L19.3890471,6.67589353 Z" transform="translate(15 15)"/>
</svg>
