<svg xmlns="http://www.w3.org/2000/svg" width="60" height="60" viewBox="0 0 60 60">
  <g fill="#FFF" transform="matrix(1 0 0 -1 13.002 44.996)">
    <path d="M23.6742944 29.9832189C23.6514111 29.9816934 19.7276888 29.7330282 14.955759 29.4317315 9.5682685 29.0907704 6.23264683 28.8764302 6.15713196 28.8672769 5.83905416 28.8268497 5.56369184 28.7467582 5.31273837 28.6216629 5.05949657 28.495042 4.8604119 28.3340961 4.71014493 28.1350114 4.63615561 28.0358505 4.5812357 27.9305873 4.52555301 27.7765065 4.48207475 27.6582761 4.47597254 27.6277651 4.45232647 27.4294432 4.42105263 27.1678108 4.47749809 26.7925248 4.59267735 26.5003814 4.66666667 26.3112128 10.9450801 11.5491991 10.9855072 11.4691076 11.2250191 10.9916095 11.6361556 10.495042 12.0976354 10.1273837 12.4561404 9.84286804 12.778032 9.64836003 13.2540046 9.43249428 13.4569031 9.33943555 13.5026697 9.32112891 13.6628528 9.266209 14.1624714 9.09610984 14.682685 9.00457666 15.1556064 9.00457666 15.2997712 9.00457666 16.7833715 9.09687262 24.0076278 9.55377574 28.7810831 9.85583524 32.7177727 10.1060259 32.7551487 10.1106026 33.01373 10.1411137 33.2578185 10.2028986 33.4683448 10.2913806 33.8779558 10.4630053 34.0602593 10.5926773 34.3005339 10.8810069 34.4286804 11.0343249 34.5278413 11.2898551 34.5591152 11.5469108 34.5728452 11.6559878 34.5652174 11.8977879 34.5446224 12.01373 34.5133486 12.1884058 34.4668192 12.3478261 34.3966438 12.5171625 34.3302822 12.6788711 28.0663616 27.4149504 28.0282227 27.5003814 27.7971014 28.01373 27.3508772 28.5400458 26.7826087 28.9672006 26.0861937 29.4919908 25.1914569 29.8573608 24.3569794 29.9572845 24.1289092 29.9847445 23.8588863 29.9946606 23.6742944 29.9832189zM22.1067887 21.8749047C21.6788711 21.8474447 21.3272311 21.8230359 21.3257056 21.8215103 21.32418 21.8207475 21.4500381 21.5125858 21.6064073 21.1372998L21.890923 20.4553776 21.9298246 20.4584287C21.9519451 20.460717 22.3249428 20.4843631 22.7589626 20.5110603 23.1929825 20.5385202 23.5728452 20.5644546 23.6018307 20.5690313 23.7757437 20.597254 23.9237223 20.6849733 24.0038139 20.8077803 24.0953471 20.948894 24.0961098 21.1426392 24.0061022 21.3279939 23.8932113 21.559878 23.6369184 21.7688787 23.3470633 21.8649886 23.1243326 21.9389779 23.1052632 21.9389779 22.1067887 21.8749047zM22.771167 23.4782609C23.5499619 23.4042715 24.3234172 23.0770404 24.955759 22.553013 25.0671243 22.460717 25.3135011 22.2143402 25.402746 22.1067887 25.733791 21.7048055 25.935164 21.273074 25.9938978 20.8352403 26.006865 20.7398932 26.006865 20.4996186 25.9938978 20.4080854 25.928299 19.942029 25.6651411 19.553013 25.2486651 19.3081617L25.1685736 19.2608696 25.1861175 19.2448513C25.1960336 19.2356979 25.7086194 18.8070175 26.3264683 18.2921434 27.0640732 17.6773455 27.4698703 17.3340961 27.5110603 17.2898551 27.6864989 17.1029748 27.7803204 16.8832952 27.7681159 16.6872616 27.7536232 16.4416476 27.5797101 16.2570557 27.2929062 16.1815408 27.2311213 16.1647597 27.2097635 16.1632342 27.0572082 16.1639969 26.9138063 16.1639969 26.8787185 16.1662853 26.8138825 16.180778 26.6430206 16.2189169 26.4706331 16.2921434 26.3386728 16.382151 26.3005339 16.4088482 25.5919146 16.9923722 24.7643021 17.6796339L23.2601068 18.9298246 22.9176201 18.907704C22.7292143 18.8962624 22.5720824 18.8848207 22.5682685 18.8825324 22.5644546 18.8802441 22.7688787 18.389016 23.0228833 17.791762 23.2768879 17.1937452 23.4935164 16.67582 23.5041953 16.6399695 23.5293669 16.5537757 23.5354691 16.4309687 23.518688 16.3501144 23.5041953 16.2822273 23.4591915 16.1868802 23.4126621 16.1281465 23.3226545 16.0152555 23.1601831 15.9336384 22.9733028 15.9069413 22.8832952 15.8939741 22.6926011 15.9023646 22.5949657 15.9229596 22.201373 16.0061022 21.8405797 16.2608696 21.6872616 16.5636918 21.6750572 16.5865751 21.0999237 17.9374523 20.4080854 19.5652174 19.5163997 21.66209 19.1441648 22.546148 19.1304348 22.597254 19.1136537 22.6613272 19.1121281 22.6811594 19.1151793 22.7726926 19.1197559 22.9336384 19.157132 23.0228833 19.2654462 23.1319603 19.3569794 23.2242563 19.4736842 23.2829901 19.6209001 23.3112128 19.6659039 23.3196034 20.129672 23.35164 20.9740656 23.4057971 22.3722349 23.495042 22.5270786 23.5011442 22.771167 23.4782609zM16.3470633 23.0846682C16.7398932 23.0259344 17.1235698 22.7787948 17.3051106 22.467582 17.3394355 22.4088482 19.8375286 16.5362319 19.8688024 16.4408848 19.9816934 16.0961098 19.8093059 15.7948131 19.4416476 15.6956522 19.3737605 15.6773455 19.3569794 15.67582 19.2044241 15.67582 19.0617849 15.6750572 19.0305111 15.6773455 18.9618612 15.6926011 18.5743707 15.7772693 18.2212052 16.020595 18.0625477 16.3127384 18.0450038 16.3440122 17.8245614 16.856598 17.5720824 17.4523265 17.3188406 18.0480549 17.1113654 18.5362319 17.1106026 18.5377574 17.1075515 18.5408085 14.6948894 18.3874905 14.6910755 18.3836766 14.68955 18.382151 14.8977879 17.8871091 15.1540809 17.2845156 15.4103738 16.6811594 15.6270023 16.1601831 15.6361556 16.1258581 15.6582761 16.0450038 15.6598017 15.9054157 15.6392067 15.8314264 15.6155606 15.7444699 15.5690313 15.6666667 15.5011442 15.5987796 15.4080854 15.5057208 15.2990084 15.4492754 15.1540809 15.4187643 15.0419527 15.3951182 14.8672769 15.3951182 14.7398932 15.4187643 14.35164 15.4897025 13.9839817 15.7376049 13.8161709 16.0396644 13.7772693 16.109077 11.2669718 22.0213577 11.2486651 22.0869565 11.2257818 22.1655225 11.2204424 22.2997712 11.2364607 22.375286 11.2837529 22.6003051 11.4782609 22.7643021 11.7559115 22.8154081 11.8512586 22.8329519 12.0602593 22.8268497 12.1670481 22.8039664 12.553013 22.7208238 12.9031274 22.4790236 13.0678871 22.1815408 13.0816171 22.1563692 13.2997712 21.64836 13.5522502 21.0526316 13.805492 20.4569031 14.0144928 19.9664378 14.0175439 19.9633867 14.0213577 19.9588101 16.4355454 20.1067887 16.4393593 20.1128909 16.4408848 20.1136537 16.2341724 20.6018307 15.9801678 21.1975591 15.726926 21.7932876 15.5110603 22.3081617 15.4996186 22.3417239 15.4805492 22.3974066 15.4790236 22.4134249 15.4790236 22.5247902 15.4782609 22.6437834 15.4790236 22.64836 15.5026697 22.7093822 15.5850496 22.9237223 15.784897 23.0617849 16.0587338 23.0930587 16.1273837 23.1006865 16.2669718 23.0968726 16.3470633 23.0846682zM1.73531655 22.1495042C-.0327993898 18.5606407.058733791 18.7536232.0190694127 18.5430969-.00457665904 18.4195271-.00610221205 18.1250953.0152555301 17.9938978.0358504958 17.8710908.0823798627 17.6948894.125858124 17.5781846.180015256 17.4286804 6.50419527 2.55072464 6.56216629 2.43478261 6.76277651 2.03279939 7.11823036 1.59572845 7.56750572 1.19755912 7.77040427 1.01830664 7.9382151.898550725 8.20900076.739893211 8.38901602.633867277 8.77879481.437833715 8.78947368.447749809 8.79099924.450038139 11.7215866 8.37452326 11.7559115 8.47139588L11.7658276 8.49809306 11.6277651 8.58962624C10.8398169 9.10831426 10.245614 9.71319603 9.80167811 10.4462243 9.71014493 10.5980168 9.62700229 10.7482838 9.58276125 10.8443936 9.56445461 10.8832952 9.54080854 10.9344012 9.53012967 10.9572845 9.5194508 10.9801678 8.13348589 14.2395118 6.45080092 18.1998474 4.76811594 22.1601831 3.38520214 25.4134249 3.37833715 25.4294432L3.36536995 25.4584287 1.73531655 22.1495042zM33.2051869 8.62700229C33.1891686 8.62090008 32.979405 8.59267735 32.8657513 8.5812357 32.7116705 8.56598017 15.4385965 7.47368421 15.2494279 7.467582 15.1426392 7.46376812 15.0739893 7.46605645 14.98627 7.47520976 14.921434 7.48131198 14.8077803 7.48893974 14.7345538 7.49122807 14.5804729 7.49656751 14.3455378 7.52555301 14.0976354 7.5713196 13.7978642 7.62623951 13.6636156 7.66056445 13.3600305 7.75896262 13.2479024 7.7955759 13.1540809 7.82379863 13.1525553 7.8215103 13.1411137 7.81006865 10.2723112.0312738368 10.2776506.0266971777 10.2921434.0129672006 10.5156369-2.46790435e-14 10.733791.000762776506 10.948894.000762776506 11.4706331.0335621663 19.6239512.551487414 24.3874905.854309687 28.3142639 1.10526316 28.3501144 1.10983982 28.6163234 1.14263921 28.8573608 1.20823799 29.0861937 1.30968726 29.2601068 1.38749047 29.317315 1.4157132 29.402746 1.46910755 29.4385965 1.49046529 29.5133486 1.53546911 29.5697941 1.5682685 29.6681922 1.62547674 29.6742944 1.63081617 29.7368421 1.70633105 29.8184592 1.80549199 29.9199085 1.94126621 29.9504195 1.99084668 29.9702517 2.02364607 32.979405 8.12585812 33.1601831 8.49961861 33.1952708 8.5713196 33.2212052 8.63081617 33.2181541 8.63005339 33.215103 8.63005339 33.2097635 8.62852784 33.2051869 8.62700229z"/>
  </g>
</svg>
