<svg xmlns="http://www.w3.org/2000/svg" width="60" height="60" viewBox="0 0 60 60">
  <path fill="#FFF" d="M45.5370868,42.0929937 C46.4917111,42.8016193 45.5370868,43.1559321 45.1631102,43.2149843 C43.0373489,43.5889811 40.8623801,43.3330886 38.8743996,42.4965166 C38.6874114,42.4177804 38.3528008,42.5260427 37.9591413,42.7130411 C34.0815951,45.1440208 29.3084736,45.665648 24.997902,44.1401344 C17.1837609,41.374526 13.0995435,32.8021241 15.8650015,24.9974 C18.6304595,17.1926759 27.1827123,13.0983944 34.9968535,15.8640029 C42.8109947,18.6296113 46.8952121,27.2020132 44.129754,35.0067372 L44.129754,35.0165793 C44.0018147,35.3708921 43.8640339,35.7252049 43.7065701,36.0696757 C43.4506914,36.8078274 43.1948127,37.8215558 43.2538616,38.7270219 C43.3719595,40.4198498 44.572621,41.384368 45.5370868,42.0929937 Z M25.5785498,23.1963099 C24.6436085,23.1963099 23.8858139,23.9541456 23.8858139,24.8891378 L23.8858139,24.9580319 C23.8858139,25.8930241 24.6436085,26.6508599 25.5785498,26.6508599 L35.6562332,26.6508599 C36.5911745,26.6508599 37.348969,25.8930241 37.348969,24.9580319 L37.348969,24.8891378 C37.348969,23.9541456 36.5911745,23.1963099 35.6562332,23.1963099 L25.5785498,23.1963099 Z M25.5785498,28.3240038 C24.6436085,28.3240038 23.8858139,29.0818395 23.8858139,30.0168317 L23.8858139,30.0955679 C23.8858139,31.03056 24.6436085,31.7883958 25.5785498,31.7883958 L31.9459923,31.7883958 C32.8809337,31.7883958 33.6387282,31.03056 33.6387282,30.0955679 L33.6387282,30.0168317 C33.6387282,29.0818395 32.8809337,28.3240038 31.9459923,28.3240038 L25.5785498,28.3240038 Z M25.5785498,33.3631194 C24.6436085,33.3631194 23.8858139,34.1209552 23.8858139,35.0559474 L23.8858139,35.1248415 C23.8858139,36.0598337 24.6436085,36.8176694 25.5785498,36.8176694 L26.7300039,36.8176694 C27.6649452,36.8176694 28.4227397,36.0598337 28.4227397,35.1248415 L28.4227397,35.0559474 C28.4227397,34.1209552 27.6649452,33.3631194 26.7300039,33.3631194 L25.5785498,33.3631194 Z"/>
</svg>
