<svg xmlns="http://www.w3.org/2000/svg" width="60" height="60" viewBox="0 0 60 60">
  <g fill="none" fill-rule="evenodd" transform="translate(7 25)">
    <path fill="#FFF" fill-rule="nonzero" d="M38.0653757,4.65219409 C37.6664611,4.65219409 37.3188919,4.50327378 37.0226681,4.20543314 C36.7264453,3.90758243 36.5783339,3.51567838 36.5783339,3.02972098 C36.5783339,2.54376358 36.730395,2.15577967 37.0345174,1.86576926 C37.3386397,1.57576187 37.7000326,1.43075817 38.1186959,1.43075817 C38.541308,1.43075817 38.8809777,1.6071145 39.137705,1.95982714 L39.137705,0.243291607 L39.8012448,0.243291607 L39.8012448,4.60516742 L39.137705,4.60516742 L39.137705,4.13488558 C38.892826,4.47975792 38.5353829,4.65219409 38.0653757,4.65219409 Z M37.2418737,3.05910698 C37.2418737,3.35695769 37.3386402,3.59994143 37.5321734,3.7880582 C37.7257055,3.97616489 37.9528101,4.07021823 38.2134871,4.07021823 C38.4741641,4.07021823 38.6953441,3.97616489 38.8770269,3.7880582 C39.0587108,3.59602128 39.1495527,3.3510825 39.1495527,3.05324187 C39.1495527,2.75539116 39.0587108,2.50653224 38.8770269,2.3066651 C38.6953441,2.10679191 38.4721893,2.00685532 38.2075625,2.00685532 C37.9429357,2.00685532 37.7158311,2.10679191 37.5262487,2.3066651 C37.3366654,2.50653224 37.2418737,2.7573462 37.2418737,3.05910698 Z M35.850272,4.60516742 L35.2459755,4.60516742 L35.2459755,4.18779247 C34.9852985,4.49739355 34.6357549,4.65219409 34.1973448,4.65219409 C33.8695239,4.65219409 33.5969981,4.56010082 33.3797674,4.37591428 C33.1664865,4.19171766 33.059846,3.94677385 33.059846,3.64108284 C33.059846,3.33148176 33.174386,3.1002635 33.403466,2.94742808 C33.6325449,2.79458257 33.9425919,2.71815982 34.333607,2.71815982 L35.1926553,2.71815982 L35.1926553,2.60058558 C35.1926553,2.1851697 34.9596261,1.97746176 34.4935676,1.97746176 C34.2012936,1.97746176 33.8971707,2.08327606 33.5811991,2.29490465 L33.2849762,1.88340539 C33.6680918,1.58164058 34.1025526,1.43075817 34.5883588,1.43075817 C34.9596261,1.43075817 35.2617741,1.52481454 35.4948028,1.71292728 C35.7317823,1.89712188 35.850272,2.18908784 35.850272,2.58882513 L35.850272,4.60516742 Z M35.1867307,3.4412157 L35.1867307,3.17668122 L34.4402474,3.17668122 C33.9623407,3.17668122 33.7233874,3.32560657 33.7233874,3.62345728 C33.7233874,3.77629271 33.7826317,3.89386191 33.9011205,3.97616489 C34.0196102,4.05454771 34.1835207,4.09373913 34.3928518,4.09373913 C34.6061328,4.09373913 34.7917664,4.03495201 34.9497527,3.91737777 C35.107738,3.7998136 35.1867307,3.64109292 35.1867307,3.4412157 Z M32.5729287,3.32952168 L30.1024242,3.32952168 C30.1182232,3.55682986 30.2228888,3.74102648 30.4164209,3.88211154 C30.6099541,4.01927645 30.8311345,4.0878589 31.0799623,4.0878589 C31.474927,4.0878589 31.7751001,3.96440948 31.9804815,3.71751063 L32.3596478,4.12900535 C32.0199776,4.47779784 31.5776172,4.65219409 31.0325667,4.65219409 C30.5902058,4.65219409 30.2130144,4.50719392 29.9009925,4.21719359 C29.5929194,3.92326303 29.4388828,3.53135897 29.4388828,3.04148142 C29.4388828,2.54768372 29.5968692,2.15577967 29.9128418,1.86576926 C30.2288134,1.57576187 30.6000802,1.43075817 31.026642,1.43075817 C31.4571536,1.43075817 31.8224957,1.56008581 32.1226683,1.81874107 C32.4228419,2.0734782 32.5729287,2.42619135 32.5729287,2.87688051 L32.5729287,3.32952168 Z M30.1024242,2.81221317 L31.9093874,2.81221317 C31.9093874,2.5496438 31.826445,2.34781457 31.6605602,2.20672548 C31.4946743,2.06564043 31.2892924,1.9950979 31.0444144,1.9950979 C30.8034862,1.9950979 30.586256,2.06955957 30.3927239,2.21848291 C30.1991907,2.36348408 30.1024242,2.56139417 30.1024242,2.81221317 Z M26.3794517,4.60516742 L26.3794517,0.496068665 L27.0785394,0.496068665 L27.0785394,3.94677888 L28.9684445,3.94677888 L28.9684445,4.60516742 L26.3794517,4.60516742 Z M24.6259916,2.00685532 L24.6259916,3.59405616 C24.6259916,3.74298152 24.6654881,3.86251583 24.7444813,3.95265911 C24.8234745,4.03887216 24.9340647,4.08197868 25.076252,4.08197868 C25.2184392,4.08197868 25.3547019,4.01339623 25.4850399,3.87623132 L25.7575657,4.34063294 C25.524537,4.54834037 25.2658353,4.65219409 24.9814608,4.65219409 C24.701036,4.65219409 24.4601072,4.55618067 24.2586746,4.36415383 C24.0611927,4.16819677 23.9624517,3.90562236 23.9624517,3.57643061 L23.9624517,2.00685532 L23.5655116,2.00685532 L23.5655116,1.47778636 L23.9624517,1.47778636 L23.9624517,0.496068665 L24.6259916,0.496068665 L24.6259916,1.47778636 L25.4554182,1.47778636 L25.4554182,2.00685532 L24.6259916,2.00685532 Z M22.9136367,4.60516742 L22.3093402,4.60516742 L22.3093402,4.18779247 C22.0486642,4.49739355 21.6991207,4.65219409 21.2607095,4.65219409 C20.9328886,4.65219409 20.6603628,4.56010082 20.4431321,4.37591428 C20.2298512,4.19171766 20.1232107,3.94677385 20.1232107,3.64108284 C20.1232107,3.33148176 20.2377507,3.1002635 20.4668307,2.94742808 C20.6959107,2.79458257 21.0059581,2.71815982 21.3969732,2.71815982 L22.25602,2.71815982 L22.25602,2.60058558 C22.25602,2.1851697 22.0229913,1.97746176 21.5569339,1.97746176 C21.2646598,1.97746176 20.9605369,2.08327606 20.6445653,2.29490465 L20.3483409,1.88340539 C20.7314565,1.58164058 21.1659178,1.43075817 21.6517251,1.43075817 C22.0229913,1.43075817 22.3251393,1.52481454 22.558169,1.71292728 C22.7951475,1.89712188 22.9136367,2.18908784 22.9136367,2.58882513 L22.9136367,4.60516742 Z M22.2500969,3.4412157 L22.2500969,3.17668122 L21.5036136,3.17668122 C21.0257059,3.17668122 20.7867521,3.32560657 20.7867521,3.62345728 C20.7867521,3.77629271 20.8459969,3.89386191 20.9644867,3.97616489 C21.0829754,4.05454771 21.2468854,4.09373913 21.4562165,4.09373913 C21.6694975,4.09373913 21.8551311,4.03495201 22.0131174,3.91737777 C22.1711037,3.7998136 22.2500969,3.64109292 22.2500969,3.4412157 Z M17.1936525,2.91214674 L17.1936525,4.60516742 L16.5301112,4.60516742 L16.5301112,0.249170319 L17.1936525,0.249170319 L17.1936525,2.04800479 C17.2884437,1.85597191 17.430631,1.7050895 17.6202144,1.59535758 C17.8137465,1.48562464 18.0211028,1.43075817 18.2422832,1.43075817 C18.5977514,1.43075817 18.8841009,1.53853154 19.1013316,1.75407826 C19.322512,1.96962398 19.4331022,2.28118413 19.4331022,2.6887587 L19.4331022,4.60516742 L18.7695609,4.60516742 L18.7695609,2.88864096 C18.7695609,2.31254028 18.5286327,2.02448995 18.0467762,2.02448995 C17.8176962,2.02448995 17.618239,2.10091119 17.4484044,2.25375367 C17.2785698,2.40267197 17.1936525,2.62213632 17.1936525,2.91214674 Z M14.648166,1.13095142 L14.648166,4.60516742 L13.9490799,4.60516742 L13.9490799,1.13095142 L12.6930913,1.13095142 L12.6930913,0.496068665 L15.9041545,0.496068665 L15.9041545,1.13095142 L14.648166,1.13095142 Z M10.3291352,4.65219409 C9.93022087,4.65219409 9.58265197,4.50327378 9.28642853,4.20543314 C8.99020499,3.90758243 8.84209322,3.51567838 8.84209322,3.02972098 C8.84209322,2.54376358 8.9941546,2.15577967 9.29827735,1.86576926 C9.60240021,1.57576187 9.96379291,1.43075817 10.3824554,1.43075817 C10.8050679,1.43075817 11.1447378,1.6071145 11.4014651,1.95982714 L11.4014651,0.243291607 L12.0650049,0.243291607 L12.0650049,4.60516742 L11.4014651,4.60516742 L11.4014651,4.13488558 C11.1565861,4.47975792 10.7991428,4.65219409 10.3291352,4.65219409 Z M9.50563379,3.05910698 C9.50563379,3.35695769 9.60240016,3.59994143 9.7959329,3.7880582 C9.98946564,3.97616489 10.2165703,4.07021823 10.4772469,4.07021823 C10.7379231,4.07021823 10.9591032,3.97616489 11.1407871,3.7880582 C11.3224709,3.59602128 11.4133128,3.3510825 11.4133128,3.05324187 C11.4133128,2.75539116 11.3224709,2.50653224 11.1407871,2.3066651 C10.9591032,2.10679191 10.7359483,2.00685532 10.4713224,2.00685532 C10.2066962,2.00685532 9.97959149,2.10679191 9.79000841,2.3066651 C9.60042533,2.50653224 9.50563379,2.7573462 9.50563379,3.05910698 Z M5.87698836,2.91214674 L5.87698836,4.60516742 L5.21344763,4.60516742 L5.21344763,1.47778636 L5.87698836,1.47778636 L5.87698836,2.04800479 C5.98362882,1.85597191 6.12976576,1.7050895 6.31539919,1.59535758 C6.50498216,1.48562464 6.70838894,1.43075817 6.92561953,1.43075817 C7.28108774,1.43075817 7.56743713,1.53853154 7.78466772,1.75407826 C8.00584796,1.96962398 8.11643808,2.28118413 8.11643808,2.6887587 L8.11643808,4.60516742 L7.45289736,4.60516742 L7.45289736,2.88864096 C7.45289736,2.31254028 7.21196892,2.02448995 6.73011206,2.02448995 C6.50103251,2.02448995 6.30157533,2.10091119 6.13174054,2.25375367 C5.96190575,2.40267197 5.87698836,2.62213632 5.87698836,2.91214674 Z M4.25701598,4.60516742 L3.59347541,4.60516742 L3.59347541,1.47778636 L4.25701598,1.47778636 L4.25701598,4.60516742 Z M3.63494667,0.854661026 C3.55200405,0.772361074 3.51053274,0.67438506 3.51053274,0.560732985 C3.51053274,0.44708091 3.55200405,0.3491054 3.63494667,0.266806455 C3.71788928,0.184506502 3.81663048,0.143356526 3.93117026,0.143356526 C4.04570994,0.143356526 4.14445108,0.184506502 4.2273937,0.266806455 C4.31033632,0.3491054 4.35180762,0.44708091 4.35180762,0.560732985 C4.35180762,0.67438506 4.31033632,0.772361074 4.2273937,0.854661026 C4.14445108,0.936959971 4.04570994,0.978109444 3.93117026,0.978109444 C3.81663048,0.978109444 3.71788928,0.936959971 3.63494667,0.854661026 Z M0.811843942,1.14270884 L0.811843942,2.27138376 L2.64842976,2.27138376 L2.64842976,2.91214674 L0.811843942,2.91214674 L0.811843942,4.60516742 L0.112756446,4.60516742 L0.112756446,0.496068665 L2.87355966,0.496068665 L2.86763502,1.14270884 L0.811843789,1.14270884 L0.811843942,1.14270884 Z" transform="translate(3.418 3.253)"/>
    <path stroke="#FFF" stroke-width=".5" d="M5.31555046,0.42822402 L41.434376,0.42822402 C44.519282,0.42822402 46.6981158,2.59015097 46.6981158,5.65116562 C46.6981158,8.71213189 44.519282,10.8740891 41.434376,10.8740891 L5.31555046,10.8740891 C2.23064236,10.8740891 0.0518112778,8.71213189 0.0518112778,5.65116562 C0.0518112778,2.59015097 2.23064236,0.42822402 5.31555046,0.42822402 Z"/>
  </g>
</svg>
