<svg xmlns="http://www.w3.org/2000/svg" width="60" height="60" viewBox="0 0 60 60">
  <g fill="#FFF" fill-rule="evenodd" transform="translate(15 22)">
    <path d="M25.6935484,11.744 C24.6612903,12.752 23.2741935,13.296 21.8225806,13.296 C20.3548387,13.296 18.983871,12.752 17.9516129,11.744 C16.9193548,10.736 16.3387097,9.408 16.3387097,8 C16.3387097,6.592 16.9032258,5.248 17.9516129,4.256 C18.983871,3.248 20.3709677,2.704 21.8225806,2.704 C23.2903226,2.704 24.6612903,3.248 25.6935484,4.256 C26.7258065,5.264 27.3064516,6.592 27.3064516,8 C27.2903226,9.408 26.7258065,10.752 25.6935484,11.744 Z"/>
    <path d="M27.5645161,2.432 C26.0322581,0.944 23.983871,0.128 21.8064516,0.128 L8.20967742,0.128 C3.70967742,0.128 0.064516129,3.664 0.064516129,8 C0.064516129,12.336 3.72580645,15.872 8.20967742,15.872 L21.8064516,15.872 C23.983871,15.872 26.0322581,15.056 27.5645161,13.568 C29.0967742,12.08 29.9516129,10.112 29.9516129,8 C29.9516129,5.904 29.1129032,3.92 27.5645161,2.432 Z M15.7741935,13.264 L8.20967742,13.264 C5.19354839,13.264 2.74193548,10.912 2.74193548,8 C2.74193548,5.088 5.19354839,2.736 8.19354839,2.736 L15.7580645,2.736 C12.983871,5.712 12.983871,10.288 15.7741935,13.264 Z M25.6612903,11.728 C24.6290323,12.72 23.2580645,13.28 21.8064516,13.28 C20.3548387,13.28 18.983871,12.736 17.9516129,11.728 C16.9193548,10.736 16.3548387,9.408 16.3548387,8 C16.3548387,6.592 16.9193548,5.264 17.9516129,4.272 C18.983871,3.28 20.3548387,2.72 21.8064516,2.72 C23.2580645,2.72 24.6290323,3.264 25.6612903,4.272 C26.6935484,5.264 27.2580645,6.592 27.2580645,8 C27.2741935,9.408 26.6935484,10.736 25.6612903,11.728 Z"/>
  </g>
</svg>
