<svg xmlns="http://www.w3.org/2000/svg" width="60" height="60" viewBox="0 0 60 60">
  <path fill="#FFF" fill-rule="evenodd" d="M26.8353308,38.1328168 C26.2390608,37.7331334 25.521756,37.5 24.75,37.5 C22.6789322,37.5 21,39.1789322 21,41.25 C21,43.3210678 22.6789322,45 24.75,45 C26.8210678,45 28.5,43.3210678 28.5,41.25 C28.5,41.0964572 28.4907721,40.9450697 28.4728406,40.7963618 L34.1781462,37.0284842 C34.7175449,37.3288699 35.3387876,37.5 36,37.5 C38.0710678,37.5 39.75,35.8210678 39.75,33.75 C39.75,31.6789322 38.0710678,30 36,30 C35.2403658,30 34.5334858,30.2258674 33.9428551,30.614107 L28.4174318,27.0362909 C28.4715301,26.7827377 28.5,26.5196936 28.5,26.25 C28.5,25.9726981 28.4699011,25.7024262 28.4127922,25.442273 L33.8849659,21.8470668 C34.4870515,22.2590331 35.2153853,22.5 36,22.5 C38.0710678,22.5 39.75,20.8210678 39.75,18.75 C39.75,16.6789322 38.0710678,15 36,15 C33.9289322,15 32.25,16.6789322 32.25,18.75 C32.25,18.8909733 32.2577789,19.0301298 32.2729309,19.1670635 L26.5229763,22.9447712 C25.9950594,22.6609936 25.3913307,22.5 24.75,22.5 C22.6789322,22.5 21,24.1789322 21,26.25 C21,28.3210678 22.6789322,30 24.75,30 C25.3990798,30 26.0096433,29.8350924 26.5420792,29.5448887 L32.2815538,33.261307 C32.2607373,33.4212581 32.25,33.5843751 32.25,33.75 C32.25,34.0091355 32.2762844,34.262132 32.3263326,34.5064688 L26.8353308,38.1328168 Z"/>
</svg>
