<svg xmlns="http://www.w3.org/2000/svg" width="360" height="360" viewBox="0 0 360 360">
  <g fill="#FFF" fill-rule="evenodd" transform="translate(82 91)">
    <polygon points="4.044 130.281 69.198 17.82 125.655 50.302 60.509 162.763" opacity=".73"/>
    <path d="M191.354728,129.888924 L126.160458,17.388343 C117.744413,1.52697633 98.0240688,-4.53296114 82.1065903,3.8534167 C66.1891117,12.2397946 60.1157593,31.8906208 68.5237822,47.7519875 C68.8928367,48.4475212 69.2859599,49.1270657 69.7031519,49.7986155 L134.897421,162.299196 C143.690544,177.952702 163.555301,183.540956 179.264183,174.77883 C194.973066,166.016704 200.581089,146.221974 191.787966,130.568468 C191.643553,130.31264 191.49914,130.064806 191.354728,129.816972 L191.354728,129.888924 Z"/>
    <ellipse cx="32.597" cy="146.27" rx="32.597" ry="32.482"/>
  </g>
</svg>
