<svg xmlns="http://www.w3.org/2000/svg" width="60" height="60" viewBox="0 0 60 60">
  <g fill="#FFF" transform="translate(15 15)">
    <path d="M22.9634483,26.0604167 C21.5937931,26.0604167 20.2857931,25.765 19.1011034,25.2341667 C15.669931,23.7016667 13.2761379,20.1895833 13.2761379,16.1025 C13.2761379,13.90625 13.9675862,11.8725 15.1427586,10.22375 C13.9597241,9.69625 12.6542069,9.4025 11.2787586,9.4025 C6.99848276,9.4025 2.70041379,12.6375 1.87241379,16.8470833 C0.980275862,21.3841667 3.32151724,25.24875 7.13875862,27.6829167 C8.12855172,28.3154167 9.24744828,28.8875 10.3638621,29.2675 C10.9547586,29.4675 11.5638621,29.62875 12.1874483,29.7491667 C12.3302069,29.7754167 12.4725517,29.8045833 12.6165517,29.8258333 C12.6273103,29.8283333 12.638069,29.8291667 12.6488276,29.83125 C13.3671724,29.9404167 14.102069,29.9983333 14.8502069,30 C17.6131034,29.9875 19.9721379,29.3433333 22.269931,28.03375 C22.3634483,27.98 22.6224828,27.8279167 22.6593103,27.8058333 C23.5431724,27.26125 24.3633103,26.625 25.1135172,25.91375 C24.4282759,26.0358333 23.2990345,26.0604167 22.9634483,26.0604167"/>
    <path d="M17.9230345,0.31 C17.9064828,0.3075 17.8903448,0.303333333 17.8746207,0.3 C17.6693793,0.25875 17.462069,0.222083333 17.253931,0.18875 C17.1691034,0.175 17.0826207,0.163333333 16.9969655,0.15125 C16.8355862,0.128333333 16.6737931,0.107083333 16.5111724,0.0895833333 C16.3646897,0.07375 16.2161379,0.0616666667 16.0688276,0.05125 C15.9525517,0.04125 15.8375172,0.0308333333 15.7216552,0.0241666667 C15.4481379,0.00958333333 15.1737931,0 14.8969655,0 C6.66951724,0.000833333333 0,6.71625 0,15.0008333 C0,15.6258333 0.0426206897,16.2408333 0.116275862,16.8454167 C0.232137931,16.3783333 0.335586207,15.9895833 0.444827586,15.6379167 C1.7937931,10.9666667 6.07324138,7.55125 11.1475862,7.55125 C13.1445517,7.55125 15.0161379,8.0825 16.6369655,9.00791667 C18.5958621,10.0395833 20.0126897,11.6291667 20.9284138,13.3891667 C21.7990345,14.9883333 22.2951724,16.8245833 22.2951724,18.7758333 C22.2951724,20.6525 21.7816552,22.4616667 20.9735172,24.0158333 C21.6041379,24.1720833 22.4557241,24.26 23.3623448,24.26 C24.1117241,24.26 25.4884138,24.2016667 27.1212414,23.5829167 C27.1348966,23.5625 27.1845517,23.4820833 27.1986207,23.4608333 C27.6910345,22.7170833 28.1147586,21.9629167 28.4697931,21.1833333 C28.5033103,21.1083333 28.538069,21.0333333 28.5703448,20.9579167 C28.6063448,20.87625 28.6398621,20.7925 28.6746207,20.7095833 C28.74,20.55 28.8037241,20.38875 28.8641379,20.22625 C28.8765517,20.1929167 28.8889655,20.16 28.9009655,20.1266667 C29.054069,19.7020833 29.1885517,19.2683333 29.304,18.8270833 C29.3292414,18.7279167 29.3532414,18.6279167 29.3764138,18.5275 C29.3971034,18.44125 29.4161379,18.3558333 29.4355862,18.2704167 C29.6296552,17.3679167 29.7471724,16.4158333 29.7844138,15.39375 C29.7864828,15.3279167 29.7889655,15.2620833 29.7893793,15.1958333 C29.7914483,15.1195833 29.7926897,15.0420833 29.7935172,14.9641667 C29.7765517,7.74 24.6885517,1.71625 17.9230345,0.31"/>
  </g>
</svg>
