<svg xmlns="http://www.w3.org/2000/svg" width="60" height="60" viewBox="0 0 60 60">
  <path fill="#FFF" fill-rule="evenodd" d="M16.6710119,4.36969565 C18.8980028,3.20752174 21.2539202,2.39730435 23.6267183,1.62273913 C26.0180853,0.842086957 28.4436358,0.282956522 30.9582321,0.187956522 C32.4118743,0.184478261 33.8655165,0.181 35.3193697,0.17773913 C37.8687826,0.257304348 40.2369385,0.959043478 42.3014523,2.52143478 C45.5771587,5.00143478 46.2551312,9.02665217 43.9608284,12.7927391 C43.3638835,13.772087 43.2765257,14.4181739 44.0635899,15.2751304 C44.778911,16.0540435 45.3477917,16.9755652 45.9812413,17.8340435 C45.3349202,18.3957826 44.5765532,17.932087 43.8846541,18.077087 C43.2699844,17.2564348 42.7798101,15.9744783 42.0035073,15.7516522 C41.3044339,15.551 40.5905899,16.9068696 39.7796817,17.4364348 C38.5471771,18.2414348 37.4695532,19.3081739 36.0467183,19.7931739 C36.6075807,18.7690435 37.6647367,18.3094783 38.4655165,17.5575217 C40.4641954,15.6816522 42.1263147,13.5805652 42.9684523,10.8894783 C43.835278,8.1186087 43.0767,5.56078261 40.8592046,3.73382609 C38.6611336,1.92296603 36.0560301,1.31644115 33.3350823,1.0631779 C32.3532982,1.05993478 31.3714725,1.05667391 30.3898578,1.05341304 C25.8096083,1.4683913 21.456278,2.79056522 17.2099294,4.54404348 C17.0510523,4.60947296 16.8733985,4.62643203 16.7043925,4.66599038 C16.2606413,5.00882609 15.7820725,5.25034783 15.2072835,5.21121739 L15.2266963,5.23469565 C15.5647185,4.6921103 16.1597277,4.60492054 16.6709882,4.369726 Z M0.21459633,6.74217391 C0.14306422,6.74108696 0.0715321101,6.74021739 0,6.73913043 L0,16.3045652 C0.0633027523,16.3041304 0.126183486,16.3084783 0.188642202,16.3180435 C0.466752294,17.683913 1.26014679,18.3613043 2.50510092,18.306087 C2.7943945,18.2932609 3.07566972,18.2976087 3.14973394,17.9147826 C3.21345872,17.5852174 3.25101835,17.1584783 2.94231193,17.0471739 C1.85624771,16.6554348 1.99762385,15.7317391 1.99023853,14.8880435 C1.96998165,12.65 1.98327523,10.4119565 1.98327523,8.17369565 C1.98348624,6.67391304 1.98348624,6.6723913 0.519293578,6.67282609 C0.417587156,6.67282609 0.316091743,6.71782609 0.21459633,6.74217391 Z M31.6509541,11.9570435 C31.6511651,13.6568261 31.6330183,15.3572609 31.6621376,17.0563913 C31.670789,17.5683478 31.5346881,17.8813913 31.0398716,18.0105217 C29.6261101,18.379 28.1939908,18.4676957 26.7673578,18.175087 C25.298945,17.874 24.2700642,16.9566087 23.9689541,15.4324783 C23.6412569,13.7748696 23.6406239,12.1216087 24.8433761,10.729 C25.9594037,9.4366087 27.4031284,9.1813913 28.956156,9.37965217 C29.6227339,9.46465217 29.8485138,9.29443478 29.7797248,8.6066087 C29.7295046,8.10573913 29.7698073,7.59508696 29.7698073,7.08856522 C29.7700183,6.0013913 30.3277156,5.60965217 31.3281101,5.94856522 C31.7836789,6.10291304 31.6435688,6.45552174 31.6454679,6.749 C31.6566514,8.48508696 31.6509541,10.2211739 31.6509541,11.9570435 Z M14.3637743,14.0220652 C14.3635633,12.8640217 14.3823431,11.7055435 14.3542789,10.5481522 C14.3430954,10.0948913 14.4173706,9.80706522 14.9012147,9.6801087 C16.6289578,9.22728261 18.3676734,9.08358696 20.1009028,9.55967391 C21.4007193,9.91663043 21.9303523,10.7144565 21.9328844,12.0951087 C21.9358385,13.8322826 21.8746459,15.5722826 21.9571505,17.3051087 C21.9995633,18.1927174 21.5414624,18.1116304 20.9962147,18.1081522 C20.4608844,18.1042391 19.9787284,18.2140217 20.0249394,17.3142391 C20.1084991,15.6903261 20.0348569,14.0583696 20.0551138,12.4301087 C20.0648202,11.6453261 19.8915817,10.9809783 19.1376459,10.6451087 C18.2596367,10.2538043 17.3514532,10.2859783 16.4690128,10.6116304 C16.082022,10.7542391 16.2506183,11.1788043 16.2487193,11.4792391 C16.2358477,13.3970652 16.1896367,15.3172826 16.2656,17.2322826 C16.3006275,18.1159783 15.9041413,18.1298913 15.2702697,18.1179348 C14.6851413,18.1068478 14.2751505,18.116413 14.3428844,17.2772826 C14.4300312,16.1990217 14.3639853,15.1077174 14.3637743,14.0220652 Z M9.41814128,18.3261522 C5.33532477,18.3850652 3.29001284,15.1878913 4.78564587,11.5878913 C5.53472844,9.78484783 7.38675596,8.93832609 9.67050826,9.35463043 C11.2708018,9.64636957 12.3174073,10.9631087 12.4752422,12.8226739 C12.5269394,13.4307174 12.4246,13.7052826 11.7301688,13.7602826 C10.1587835,13.8841957 8.60090275,14.1848478 7.02993945,14.3224565 C6.2262055,14.3928913 6.18104954,14.7337609 6.42054495,15.3746304 C6.87632477,16.5939783 8.1143156,17.3046304 9.60214128,17.1296304 C10.1205908,17.0687609 10.6400954,16.9474565 11.137655,16.7841957 C11.6358477,16.6207174 11.8413706,16.8422391 11.9966734,17.2759348 C12.1829945,17.796587 11.8432697,17.9072391 11.4910954,18.0078913 C10.7095174,18.2313696 9.91654495,18.3778913 9.41814128,18.3261522 Z M33.9394963,13.7248478 C33.9394963,12.5685435 33.9878174,11.409413 33.9234596,10.2568043 C33.8766156,9.42028261 34.3676339,9.52332609 34.8580193,9.54115217 C35.3180193,9.5578913 35.8495514,9.36245652 35.8339367,10.2283261 C35.7908908,12.6124565 35.7913128,14.9981087 35.8341477,17.3824565 C35.8489183,18.2102826 35.3686615,18.1124565 34.8772211,18.1041957 C34.4111018,18.0963696 33.8821018,18.2678913 33.9243037,17.4098478 C33.9846523,16.1841957 33.9397073,14.9533261 33.9394963,13.7248478 Z M37.7916587,9.5543913 C38.6504661,9.5146087 39.4841633,9.19504348 40.0182275,9.69873913 C40.7244752,10.3648261 41.3292275,11.2265652 41.7330991,12.1213478 C41.9706954,12.6478696 41.3615119,13.2213478 41.0040624,13.6915652 C40.9008789,13.8272174 40.6978881,13.6206957 40.5923835,13.4733043 C39.6869431,12.2072174 38.7819248,10.9402609 37.7916587,9.5543913 Z M34.8752376,8.29504348 C34.193256,8.23526087 33.7946596,7.87308696 33.7853752,7.13221739 C33.7758798,6.37417391 34.2088706,5.98613043 34.8870541,5.98091304 C35.5783202,5.97591304 36.0180633,6.43178261 36.0167972,7.13286957 C36.0157422,7.82873913 35.596256,8.24395652 34.8752376,8.29504348 Z M29.7702294,13.7042609 C29.7700183,13.0196957 29.7704404,12.3351304 29.7700183,11.6505652 C29.7693853,10.3586087 29.4781927,10.1427391 28.221844,10.3112174 C25.9176239,10.6203478 25.4523486,13.0077391 25.828789,14.9981739 C26.151211,16.7029565 27.3172477,17.4464348 28.9966697,17.192087 C29.5343211,17.1107826 29.808,16.9088261 29.7801468,16.2981739 C29.7408991,15.4353478 29.7702294,14.5692609 29.7702294,13.7042609 Z M8.49003853,10.3682391 C7.19591927,10.3747609 6.19594679,11.4549783 6.10563486,12.8836739 C6.07166239,13.4197609 6.21620367,13.5934565 6.74478165,13.5058478 C7.64346972,13.3565 8.55735046,13.2984565 9.45139633,13.1271522 C9.86687339,13.047587 10.5096073,13.2673696 10.6478183,12.6982391 C10.7824422,12.1423696 10.5279651,11.5669348 10.1616532,11.097587 C9.73224954,10.5471522 9.16294679,10.3306304 8.49003853,10.3682391 Z" transform="translate(7 20)"/>
</svg>
