<svg xmlns="http://www.w3.org/2000/svg" width="60" height="60" viewBox="0 0 60 60">
  <path fill="#FFF" d="M15.1248269,0.000155691061 C7.84861918,-0.0326554769 1.59013318,5.12402948 0.256518494,12.2509113 C-1.07709619,19.3777931 2.89585873,26.4350632 9.69508226,29.0168941 C9.57167897,27.7873713 9.44827568,26.0660394 9.69508226,24.7135643 L11.4227283,17.2134751 C11.1031521,16.5187775 10.9349208,15.7645036 10.9291151,15.000334 C10.9291151,12.9101452 12.163148,11.3117656 13.6439875,11.3117656 C15.1248269,11.3117656 15.4950368,12.2953838 15.4950368,13.4019544 C15.4950368,14.5085249 14.6312138,16.5987137 14.2610039,18.4429979 C13.890794,20.2872821 15.0014236,21.1479481 16.4822631,21.1479481 C17.9631025,21.1479481 21.171588,18.3200456 21.171588,14.2626203 C21.171588,10.2051951 18.580119,8.11500627 14.8780204,8.11500627 C11.1759217,8.11500627 8.2142428,11.4347179 8.2142428,14.7544295 C8.2142428,15.9839523 8.70785596,17.4593797 9.3248724,18.1970933 C9.41511078,18.2979383 9.45973746,18.4313291 9.44827568,18.5659502 L9.07806582,20.2872821 C8.95466253,20.5331867 8.83125924,20.656139 8.58445267,20.5331867 C6.73340335,19.6725207 5.49937047,16.9675705 5.49937047,14.7544295 C5.49937047,10.0822428 8.95466253,5.65596064 15.4950368,5.65596064 C22.035411,5.65596064 24.7502834,9.34452908 24.7502834,14.2626203 C24.7502834,19.1807116 21.4183946,23.6069937 16.9758762,23.6069937 C15.4950368,23.6069937 14.0141973,22.86928 13.5205842,21.8856618 L12.5333579,25.451278 C12.163148,26.803753 11.299325,28.4021327 10.6823086,29.385751 C16.3169446,31.0429288 22.4043806,29.2830282 26.2736016,24.8782497 C30.1428227,20.4734711 31.0869293,14.2285595 28.6916711,8.88362597 C26.2964128,3.53869244 20.999399,0.0702465646 15.1248269,0.000155691061 L15.1248269,0.000155691061 Z" transform="translate(15 15)"/>
</svg>
