<svg xmlns="http://www.w3.org/2000/svg" width="60" height="60" viewBox="0 0 60 60">
  <g fill="#FFF" fill-rule="evenodd" transform="translate(15 12)">
    <circle cx="16" cy="3" r="3"/>
    <circle cx="16" cy="19" r="3"/>
    <path fill-rule="nonzero" d="M14.0086087,2.38123124 L2.6962517,8.64109325 C1.58225339,9.25754089 0.890873295,10.4303024 0.890873295,11.7034874 L0.890873295,24.9178143 C0.890873295,26.1379691 1.5263084,27.270057 2.56788946,27.9055777 L14.2954279,35.0611353 C15.4298539,35.7533053 16.8584184,35.7433054 17.9830434,35.0353222 L29.3204505,27.8981031 C30.3382791,27.2573511 30.9558189,26.138874 30.9558189,24.9361529 L30.9558189,15.1346383 C30.9558189,13.2016416 29.3888156,11.6346383 27.4558189,11.6346383 C26.8540449,11.6346383 26.2624358,11.7897962 25.7381173,12.0851299 L15.1871883,18.0281693 L16.659504,20.6420336 L27.210433,14.6989942 C27.2853356,14.6568037 27.3698512,14.6346383 27.4558189,14.6346383 C27.7319613,14.6346383 27.9558189,14.8584959 27.9558189,15.1346383 L27.9558189,24.9361529 C27.9558189,25.1079702 27.867599,25.2677526 27.7221949,25.3592886 L16.3847877,32.4965077 C16.224127,32.5976482 16.0200464,32.5990767 15.8579855,32.5001953 L4.13044703,25.3446376 C3.98164974,25.253849 3.89087329,25.0921221 3.89087329,24.9178143 L3.89087329,11.7034874 C3.89087329,11.5216038 3.98964188,11.3540664 4.1487845,11.2660025 L15.4611415,5.00614048 L14.0086087,2.38123124 Z"/>
  </g>
</svg>
