<svg xmlns="http://www.w3.org/2000/svg" width="60" height="60" viewBox="0 0 60 60">
  <g fill="#FFF" transform="translate(15 15)">
    <path d="M29.85,7.45 L29.85,0 L22.4,0 C22.4,4.1 25.75,7.45 29.85,7.45 Z"/>
    <path d="M29.85 10.05C24.3 10.05 19.8 5.55 19.8 0L10.05 0C10.1 5.25 12.2 10.2 15.9 13.9 19.65 17.65 24.55 19.7 29.85 19.75L29.85 10.05zM22.4 29.85L29.85 29.85 29.85 22.4C26.4 22.4 23.15 21.6 20.2 20.2 21.6 23.1 22.4 26.35 22.4 29.85zM7.45 29.85C7.45 25.75 4.1 22.4 0 22.4L0 29.85 7.45 29.85z"/>
    <path d="M0 10.05L0 19.8C5.55 19.8 10.05 24.35 10.05 29.85L19.8 29.85C19.75 24.6 17.65 19.65 13.95 15.9 10.2 12.2 5.25 10.1 0 10.05zM7.45 0L0 0 0 7.45C3.45 7.45 6.7 8.25 9.65 9.65 8.25 6.75 7.45 3.45 7.45 0z"/>
  </g>
</svg>
