<svg xmlns="http://www.w3.org/2000/svg" width="60" height="60" viewBox="0 0 60 60">
  <g fill="#FFF" fill-rule="evenodd" transform="translate(15 15)">
    <path d="M15.158625,19.6645846 C14.5766719,19.7038154 14.1105,19.4395846 13.6780781,19.0899692 C11.9594063,17.6993538 10.2533906,16.2930462 8.51221875,14.9303538 C8.0420625,14.5625077 7.96940625,14.3038154 8.38635938,13.8554308 C9.09651563,13.0922769 9.65901563,11.7925846 10.4690156,11.6331231 C11.3240156,11.4651231 12.1251094,12.7244308 12.9393281,13.3682769 C14.8628437,14.8890462 14.8541719,14.9155846 16.4064375,13.0135846 C18.8268281,10.0477385 21.2509687,7.08466154 23.6359687,4.09181538 C24.1112812,3.49527692 24.4440937,3.42627692 24.9995625,3.96166154 C25.7188594,4.65512308 27.0815156,5.09196923 27.1504219,5.91950769 C27.20925,6.62450769 26.1013594,7.43196923 25.493625,8.18127692 C22.6682344,11.6633538 19.8351094,15.1396615 17.0106562,18.6224308 C16.5299531,19.2155077 15.9988594,19.6962 15.158625,19.6645846"/>
    <path d="M0,12.4857231 C0.461015625,11.2386462 0.809296875,9.93664615 1.4025,8.75372308 C3.93234375,3.71072308 8.0775,0.892338462 13.7603906,0.254492308 C14.6861719,0.150646154 15.0696094,0.363646154 15.0274219,1.39518462 C14.9449219,3.39756923 15.0110156,3.40033846 13.0010156,3.77672308 C7.36429688,4.83226154 3.39796875,9.52887692 3.43757813,15.1008 C3.47695313,20.6284154 7.46578125,25.2726462 13.0385156,26.2794923 C19.5642188,27.4587231 26.0102344,22.5980308 26.49375,16.0903385 C26.5551563,15.2660308 26.7691406,14.9157231 27.6567188,15.0080308 C28.4292188,15.0881077 29.2167188,15.0285692 29.9976563,15.0304154 C30.016875,22.4616462 24.6276563,28.6746462 16.9982813,29.6951077 C9.23039063,30.7344923 2.7009375,25.9257231 0.66234375,19.4775692 C0.459140625,18.8358 0.42890625,18.1301077 0,17.5626462 L0,12.4857231 Z"/>
  </g>
</svg>
