<svg xmlns="http://www.w3.org/2000/svg" width="60" height="60" viewBox="0 0 60 60">
  <g fill="#FFF" fill-rule="evenodd" transform="translate(15 24)">
    <path d="M17.8506949,9.30564949 C17.322661,9.30870253 16.7946271,9.31175556 16.2666271,9.31480859 C15.8502881,9.33726313 15.4335763,9.31779596 15.0171356,9.32508384 C14.9559492,9.32616717 14.8931356,9.31247778 14.8337458,9.33847778 C14.1226949,9.34077576 13.4116441,9.3389702 12.700661,9.34629091 C11.3007288,9.3606697 9.90083051,9.38013687 8.5009661,9.3974702 C8.46710169,9.39789697 8.43310169,9.39674798 8.39940678,9.3992101 C8.2789322,9.4079096 8.0970339,9.56138182 8.1150678,9.65838939 C8.14076271,9.79626818 8.27442373,9.80056869 8.38266102,9.80473788 C8.71537288,9.81750808 9.04849153,9.82157879 9.38147458,9.82492727 C11.2275085,9.84354091 13.0735424,9.86100556 14.9195763,9.87827323 C14.9587288,9.87866717 14.9979492,9.87269242 15.0371356,9.86970505 C15.3739831,9.90145 15.7117458,9.87413687 16.0489661,9.88395253 C16.189339,9.88802323 16.3302881,9.87095253 16.4701525,9.89399798 C16.9635763,9.89695253 17.457,9.89990707 17.9503559,9.90282879 C18.2650678,9.93411414 18.580661,9.90726061 18.8956441,9.91681364 C18.9911017,9.91970253 19.0872373,9.90506111 19.1819153,9.92662929 C19.5707627,9.99153081 19.9331695,10.1152278 20.2437119,10.3612101 C20.5249661,10.5839172 20.6846271,10.872051 20.7491695,11.2140889 C20.7730339,11.2695359 20.743339,11.3320737 20.773339,11.3867657 C20.7733051,11.4455611 20.7732373,11.5043566 20.7731695,11.563152 C20.7439492,11.6181394 20.7723898,11.6805788 20.7495763,11.7364197 C20.6552712,12.0948061 20.563,12.4537177 20.4652034,12.8111848 C20.4442542,12.8878061 20.3838136,12.9382631 20.3007288,12.9571722 C20.2402881,12.9784449 20.1775424,12.9679727 20.1159492,12.9679727 C13.5510678,12.9685308 6.98618644,12.968498 0.421271186,12.9680712 C0.359508475,12.9680712 0.296966102,12.9762126 0.235847458,12.9597 C-0.00086440678,12.9255586 0.0654067797,12.7295737 0.0254745763,12.590349 C-0.00293220339,12.5238061 0.0326271186,12.4499096 5.08474576e-05,12.3838919 C1.69491525e-05,12.2377404 1.69491525e-05,12.0916545 -1.69491525e-05,11.9455359 C0.033779661,11.8682909 -0.00310169492,11.7842833 0.0243559322,11.7064475 C0.0563559322,11.1558187 0.216491525,10.6317152 0.483237288,10.1553111 C1.18344068,8.90475051 2.25581356,8.12248535 3.7150339,7.86386414 C3.77571186,7.85309646 3.83581356,7.83924293 3.89618644,7.82680101 C3.95235593,7.79958636 4.01774576,7.83225051 4.07330508,7.80126061 C4.43140678,7.80122778 4.43089831,7.80129343 4.3729661,7.49388939 C4.30822034,7.15014444 4.32964407,6.80882879 4.39866102,6.46761162 C4.54052542,5.76662929 4.90113559,5.18520758 5.44377966,4.71254596 C5.94598305,4.27514192 6.54991525,4.05085909 7.21862712,3.98405354 C7.39845763,3.96859141 7.57832203,3.96786919 7.75818644,3.98444747 C8.32049153,4.05030101 8.85442373,4.1957303 9.33025424,4.50661414 C9.41255932,4.5604197 9.44950847,4.56869242 9.49879661,4.44364949 C9.78886441,3.70777071 10.1825932,3.03180354 10.7154746,2.42631869 C11.3404237,1.71611162 12.0752712,1.15389444 12.9334068,0.73989697 C13.640661,0.398712626 14.3861186,0.173346465 15.1727966,0.0824449495 C15.2451017,0.0740737374 15.316322,0.0574954545 15.3880847,0.0447252525 C15.4447288,0.0210888889 15.5091017,0.0511267677 15.5648305,0.0209575758 C15.6414407,0.0182656566 15.7180169,0.0155409091 15.7946271,0.0128489899 C16.042322,-0.00504242424 16.2900508,-0.00323686869 16.5378136,0.0119626263 C16.6252034,0.0151141414 16.7126271,0.0182328283 16.8000508,0.0213843434 C16.8564915,0.0507328283 16.921678,0.0204651515 16.9786949,0.0458414141 C17.866322,0.164876768 18.7185932,0.395068687 19.5116441,0.807884343 C20.0825593,1.10504596 20.6052712,1.46520505 21.0774746,1.89853838 C22.0728305,2.81188687 22.7296102,3.90963182 23.0606271,5.19764949 C23.1024915,5.36051061 23.0740847,5.48742475 23.0159831,5.62911162 C22.8161864,6.11651313 22.6412712,6.61438687 22.4207966,7.09269495 C22.0355085,7.92866717 21.3832373,8.52486162 20.5495085,8.9411899 C20.1524576,9.13947273 19.7306949,9.25535657 19.2837119,9.28135657 C18.8673729,9.30528838 18.4506271,9.28454091 18.0341525,9.29225556 C17.9729322,9.29337172 17.9101186,9.27964949 17.8506949,9.30564949"/>
    <path fill-opacity=".7" d="M26.4391458,9.3143851 C26.339722,9.3115947 26.2402983,9.30880429 26.1408746,9.30598106 C26.0392475,9.26960732 25.9311458,9.31133207 25.8289763,9.28155682 C25.7291119,9.2788649 25.6292136,9.27620581 25.5293492,9.27351389 C25.4167051,9.23707449 25.2980949,9.27827399 25.1849085,9.24872854 C25.0742983,9.24587247 24.963722,9.24304924 24.8531458,9.24019318 C24.7744,9.20657702 24.6885017,9.24285227 24.6090102,9.21678662 C24.0265017,9.15634975 23.5561627,8.90350631 23.2217898,8.4356048 C23.0873831,8.24759722 23.0471797,8.02406944 23.0409085,7.79666793 C23.0256203,7.71029672 23.0249763,7.62395833 23.0412475,7.53765278 C23.0618237,7.04989015 23.2848068,6.6101553 23.3947051,6.14350126 C23.4313831,5.98759975 23.5047051,5.84213763 23.5350102,5.6828548 C23.5625017,5.53854167 23.6593492,5.46513763 23.819722,5.46973359 C24.0220271,5.47554419 24.2247051,5.47098106 24.4272136,5.4709154 C24.495078,5.5021351 24.5706712,5.46878157 24.6391797,5.49465025 C25.4237898,5.58656944 26.1727729,5.79164773 26.8701627,6.15784722 C27.8768407,6.68648106 28.6646034,7.43138763 29.2364678,8.39368308 C29.6481627,9.08658965 29.8700949,9.83536995 29.9689085,10.6234129 C29.9957898,10.6897588 29.9613153,10.7629987 29.9935186,10.8287866 C29.9936542,10.9978194 29.9938237,11.1667866 29.9940271,11.3358194 C29.9604,11.4006881 29.9960271,11.4735013 29.9692814,11.5391907 C29.9056203,11.9244306 29.8275186,12.3065518 29.7324339,12.6860467 C29.7029763,12.8037361 29.6412136,12.8376806 29.5370102,12.8449356 C29.5032814,12.8472992 29.4692814,12.8458876 29.4353831,12.8458876 C26.764739,12.8458876 24.0940949,12.8459205 21.4234508,12.845822 C21.1879254,12.8457891 21.1847051,12.8320013 21.2224339,12.601875 C21.3630441,11.7438093 21.8799254,11.1311679 22.5630102,10.613072 C23.0248746,10.2627942 23.5363322,10.0319785 24.1068407,9.91996843 C24.2714847,9.88763258 24.4412475,9.87995076 24.6086373,9.86097601 C24.7218237,9.83143056 24.8404339,9.87256439 24.9531119,9.83619066 C25.0529424,9.83349874 25.1528407,9.83080682 25.2527051,9.82814773 C25.3658915,9.79860227 25.4845017,9.83973611 25.5971797,9.80336237 C25.6970102,9.80070328 25.7969085,9.79804419 25.896739,9.79541793 C26.0103661,9.7648548 26.1294847,9.80789268 26.2426034,9.7708952 C26.3420271,9.76817045 26.4413831,9.76541288 26.5408068,9.76268813 C26.6540271,9.73271591 26.7727729,9.77417803 26.8855186,9.73773864 C27.0444,9.73576894 27.0871119,9.60465278 27.1502983,9.50383712 C27.1745695,9.46513258 27.1272814,9.43046591 27.0849763,9.40640278 C26.9808068,9.3471149 26.8718915,9.319375 26.751722,9.33861237 C26.6498237,9.30276389 26.5415525,9.34399621 26.4391458,9.3143851"/>
  </g>
</svg>
