<svg width="60px" height="60px" viewBox="0 0 60 60" version="1.1" xmlns="http://www.w3.org/2000/svg" xmlns:xlink="http://www.w3.org/1999/xlink">
        <g id="freshteams-dew">
            <path d="M29,45 C20.72,45 14,38.28 14,30 C14,21.72 20.72,15 29,15 L40.25,15 C42.32,15 44,16.68 44,18.75 L44,30 C44,38.28 37.28,45 29,45 Z M29,37.5 C31.79,37.5 34.22,35.97 35.51,33.72 C34.22,31.5 31.79,30 29.03,30 C26.24,30 23.81,31.53 22.52,33.78 C23.81,36 26.24,37.5 29,37.5 Z M28.97,28.38 C30.5937172,28.38 31.91,27.0637172 31.91,25.44 C31.91,23.8162828 30.5937172,22.5 28.97,22.5 C27.3462828,22.5 26.03,23.8162828 26.03,25.44 C26.03,27.0637172 27.3462828,28.38 28.97,28.38 Z" id="Combined-Shape" fill="#FFFFFF"></path>
        </g>
</svg>