<svg width="60px" height="60px" viewBox="0 0 60 60" version="1.1" xmlns="http://www.w3.org/2000/svg" xmlns:xlink="http://www.w3.org/1999/xlink">
        <g id="freshchat-dew">
            <path d="M29,45 C20.72,45 14,38.28 14,30 C14,21.72 20.72,15 29,15 L40.25,15 C42.32,15 44,16.68 44,18.75 L44,30 C44,38.28 37.28,45 29,45 Z M33.59,23.88 L26.09,23.88 C24.02,23.88 22.34,25.56 22.34,27.63 L22.34,34.02 C22.34,34.47 22.7,34.86 23.18,34.86 L33.59,34.86 C35.66,34.86 37.34,33.18 37.34,31.11 L37.34,27.63 C37.34,25.56 35.66,23.88 33.59,23.88 Z M30.89,31.92 L25.46,31.92 C25.07,31.92 24.74,31.59 24.74,31.2 C24.74,30.81 25.07,30.48 25.46,30.48 L30.89,30.48 C31.28,30.48 31.61,30.81 31.61,31.2 C31.61,31.59 31.28,31.92 30.89,31.92 Z M34.22,28.35 L25.46,28.35 C25.07,28.35 24.74,28.02 24.74,27.63 C24.74,27.24 25.07,26.91 25.46,26.91 L34.22,26.91 C34.61,26.91 34.94,27.24 34.94,27.63 C34.94,28.02 34.64,28.35 34.22,28.35 Z" id="Combined-Shape" fill="#FFFFFF"></path>
        </g>
</svg>