<svg xmlns="http://www.w3.org/2000/svg" width="360" height="360" viewBox="0 0 360 360">
  <g fill="#FFF" transform="translate(78 93)">
    <path d="M140.66174,57.9823009 C121.92804,58.9618365 105.637699,64.6454643 92.412,77.486283 C79.0493554,90.4595131 72.9494715,106.356637 74.6168043,126.063496 C67.2944679,125.155973 60.6251379,124.15708 53.9178963,123.591814 C51.601426,123.396681 48.8524551,123.673894 46.8903413,124.781969 C40.3772996,128.460067 34.133507,132.612832 26.7330265,137.242589 C28.0908773,131.095907 28.9698053,125.713496 30.5257244,120.536283 C31.6700329,116.731194 31.1400455,114.613385 27.6374867,112.135509 C5.14900127,96.2453537 -4.33042225,72.4647123 2.7636713,47.9817478 C9.3270038,25.3324115 25.4448091,11.5964602 47.3452794,4.43617257 C77.2373399,-5.33595133 110.830802,4.63207964 129.007434,28.3840708 C135.572314,36.9637168 139.597897,46.5933628 140.66174,57.9823009 Z M54.4424678,50.3535398 C54.6150038,45.8755531 50.7379722,41.8412611 46.1328849,41.7065266 C41.4179317,41.5679203 37.5401264,45.1740044 37.4024071,49.8238938 C37.2631403,54.5365044 40.8647332,58.3129425 45.6137295,58.433739 C50.3217194,58.5529869 54.2683843,54.9422567 54.4424678,50.3535398 Z M99.4264019,41.7034292 C94.8042934,41.7886062 90.8986347,45.7284292 90.9806474,50.2242257 C91.064981,54.8841814 94.8963639,58.5297568 99.6492287,58.472456 C104.414473,58.4151546 108.028445,54.7308628 107.98357,49.9725664 C107.944111,45.3017699 104.12975,41.6174779 99.4264019,41.7034292 Z"/>
    <path d="M182.749699,174.868363 C176.817709,172.224779 171.376248,168.258628 165.582751,167.653098 C159.811692,167.049889 153.745077,170.381859 147.70709,170.999779 C129.315368,172.882964 112.838564,167.752987 99.2523188,155.17854 C73.4129205,131.259292 77.1050366,94.5836284 107.000192,74.9820797 C133.569967,57.561062 172.53603,63.3685838 191.268956,87.5410398 C207.616551,108.63396 205.695444,136.63396 185.738519,154.353872 C179.96359,159.482301 177.885421,163.702433 181.59069,170.463164 C182.274645,171.711394 182.352789,173.291814 182.749699,174.868363 Z M115.225441,109.437721 C119.001892,109.441593 122.111408,106.483628 122.254543,102.750553 C122.405416,98.7983407 119.22936,95.4834073 115.274958,95.4671462 C111.360015,95.4493365 108.080283,98.8107301 108.216455,102.704093 C108.34489,106.424004 111.476071,109.433076 115.225441,109.437721 Z M158.754811,95.4826326 C155.090549,95.4570797 151.977163,98.4591813 151.827838,102.164381 C151.669229,106.126659 154.74625,109.38042 158.664288,109.390487 C162.453892,109.402876 165.448127,106.534734 165.585846,102.76062 C165.732849,98.7890488 162.654281,95.5097343 158.754811,95.4826326 Z"/>
  </g>
</svg>
