<?xml version="1.0" encoding="UTF-8"?>
<svg width="30px" height="30px" viewBox="0 0 30 30" version="1.1" xmlns="http://www.w3.org/2000/svg" xmlns:xlink="http://www.w3.org/1999/xlink">
    <!-- Generator: Sketch 3.6.1 (26313) - http://www.bohemiancoding.com/sketch -->
    <title>Group</title>
    <desc>Created with Sketch.</desc>
    <defs></defs>
    <g id="Page-1" stroke="none" stroke-width="1" fill="none" fill-rule="evenodd">
        <g id="Group" transform="translate(-15.000000, -15.000000)" fill="#FFFFFF">
            <path d="M30,45 C21.72,45 15,38.28 15,30 C15,21.72 21.72,15 30,15 L41.25,15 C43.32,15 45,16.68 45,18.75 L45,30 C45,38.28 38.28,45 30,45 Z M30,21.66 C26.16,21.66 23.1,24.72 23.1,28.56 L23.1,33.15 C23.1,34.41 24.12,35.46 25.41,35.46 L27.33,35.46 L27.33,30.09 L24.66,30.09 L24.66,28.56 C24.66,25.59 27.06,23.19 30.03,23.19 C33,23.19 35.4,25.59 35.4,28.56 L35.4,30.09 L32.73,30.09 L32.73,35.46 L34.53,35.46 L34.53,35.58 C34.53,36.72 33.6,37.65 32.46,37.65 L30.39,37.65 C30.21,37.65 30.06,37.8 30.06,37.98 C30.06,38.16 30.21,38.31 30.39,38.31 L32.4,38.31 C33.93,38.31 35.16,37.08 35.16,35.55 L35.16,35.4 C36.15,35.13 36.87,34.23 36.87,33.18 L36.87,28.56 C36.9,24.72 33.81,21.66 30,21.66 Z" id="Combined-Shape"></path>
        </g>
    </g>
</svg>