<svg xmlns="http://www.w3.org/2000/svg" width="360" height="360" viewBox="0 0 360 360">
  <path fill="#FFF" d="M153.675,270.82125 C189.295295,270.82125 218.17125,241.945296 218.17125,206.325 C218.17125,170.704705 189.295295,141.82875 153.675,141.82875 C118.054704,141.82875 89.1787497,170.704705 89.1787497,206.325 C89.1787497,241.945296 118.054704,270.82125 153.675,270.82125 Z M153.675,239.23125 C135.50138,239.23125 120.76875,224.49862 120.76875,206.325 C120.76875,188.15138 135.50138,173.41875 153.675,173.41875 C171.84862,173.41875 186.58125,188.15138 186.58125,206.325 C186.58125,224.49862 171.84862,239.23125 153.675,239.23125 Z M239.23125,120.76875 L239.23125,268.18875 L270.82125,268.18875 L270.82125,89.1787497 L91.8112497,89.1787497 L91.8112497,120.76875 L239.23125,120.76875 Z"/>
</svg>
