<svg xmlns="http://www.w3.org/2000/svg" width="360" height="360" viewBox="0 0 360 360">
  <g fill="#FFF" fill-rule="evenodd" transform="matrix(1 0 0 -1 81.292 278.708)">
    <path fill-rule="nonzero" d="M64.7756195,196.920091 C57.7683761,196.644215 50.430082,196.092463 47.3954491,195.595887 C21.9597075,191.1267 6.17961617,175.346609 1.87595491,150.076393 C-0.606926588,135.620505 -0.606926588,61.7961617 1.87595491,47.3402739 C6.12444103,22.1804081 21.9597075,6.28996647 47.1195733,1.87595491 C61.1892351,-0.606926588 136.227432,-0.606926588 150.297094,1.87595491 C175.456959,6.28996647 191.292226,22.1252329 195.540711,47.3402739 C198.023593,61.8513368 198.023593,135.56533 195.540711,150.076393 C191.292226,175.236259 175.456959,191.1267 150.297094,195.540711 C140.806969,197.195966 96.3909775,197.913243 64.7756195,196.920091 Z M143.676076,178.160541 C150.407443,177.388089 158.352664,174.850033 162.601151,172.091276 C166.13236,169.829094 170.877422,164.918507 172.918903,161.442472 C175.346609,157.193986 177.553615,149.524642 178.270892,142.572573 C179.208869,133.358324 179.208869,64.0583426 178.270892,54.8992687 C176.394937,36.9121716 168.615241,26.2081936 153.773127,21.2424306 C149.414291,19.8078769 144.779579,19.2561254 130.709917,18.6491988 C114.819476,17.9319219 62.5686137,18.318148 54.3475172,19.2561254 C42.1538103,20.635504 34.5948156,24.0011878 28.3600242,30.953256 C24.9391653,34.7603409 23.5046115,37.3535727 21.5183063,43.2573132 C18.7595491,51.5335849 18.4284982,57.5476756 18.4284982,98.7083333 C18.4284982,139.868991 18.7595491,145.883082 21.5183063,154.159353 C23.5046115,160.173444 24.9943404,162.766676 28.6358999,166.739287 C32.3326346,170.767072 36.305245,173.415479 41.657234,175.346609 C47.781675,177.60879 51.6439351,178.215717 62.8444894,178.712292 C76.3072247,179.319219 136.834358,178.932993 143.676076,178.160541 Z"/>
    <path d="M146.434833,162.214925 C137.165409,157.911263 136.834358,145.000279 145.883082,140.531093 C154.380054,136.337782 164.146055,143.234675 163.097727,152.669625 C162.214925,160.33897 153.386901,165.415083 146.434833,162.214925 Z"/>
    <path fill-rule="nonzero" d="M88.7768073,148.365963 C79.7832588,146.490008 73.4381172,143.455375 66.6515744,137.882686 C43.4780137,118.957611 41.7124092,84.1972703 62.8444894,62.9548398 C82.5420161,43.1469629 114.7643,43.0366127 134.351476,62.7341392 C155.759433,84.2524455 154.049003,118.847261 130.709917,137.937861 C118.957611,147.593511 103.232695,151.510947 88.7768073,148.365963 Z M109.522661,129.330539 C119.012787,125.744154 125.633804,119.123137 129.385713,109.467487 C130.765092,105.991452 130.930617,104.88795 130.930617,98.7083333 C130.930617,92.528717 130.765092,91.4252145 129.385713,87.9491799 C125.633804,78.2935299 119.123137,71.7828628 109.467487,68.0309531 C105.991452,66.6515744 104.88795,66.486049 98.7083333,66.486049 C92.528717,66.486049 91.4252145,66.6515744 87.9491799,68.0309531 C78.2935299,71.7828628 71.7828628,78.2935299 68.0309531,87.9491799 C66.6515744,91.4252145 66.486049,92.528717 66.486049,98.7083333 C66.486049,104.88795 66.6515744,105.991452 68.0309531,109.467487 C71.6173375,118.736911 77.9624791,125.302753 86.790502,128.889138 C91.480389,130.820267 94.2943216,131.261669 100.418762,130.985793 C104.391373,130.820267 106.653554,130.378866 109.522661,129.330539 Z"/>
  </g>
</svg>
