<svg xmlns="http://www.w3.org/2000/svg" width="360" height="360" viewBox="0 0 360 360">
  <g fill="#FFF" fill-rule="evenodd" transform="translate(107 100)">
    <path d="M129.784854,43.0872727 C129.627184,44.0932231 129.44699,45.1216529 129.244272,46.1781818 C122.278641,81.8697521 98.4479612,94.1996694 68.0120388,94.1996694 L52.5153398,94.1996694 C48.7932039,94.1996694 45.656699,96.8971901 45.076699,100.561322 L37.1425243,150.780165 L34.8957282,165.015207 C34.7145965,166.157926 35.0437193,167.322514 35.7964475,168.202368 C36.5491758,169.082222 37.6500791,169.589172 38.8093204,169.589752 L66.2945631,169.589752 C69.5493204,169.589752 72.3141748,167.229421 72.8266019,164.026116 L73.0968932,162.632397 L78.2718447,129.857521 L78.6040777,128.059174 C79.1108738,124.844628 81.8813592,122.484298 85.1361165,122.484298 L89.2467961,122.484298 C115.876117,122.484298 136.72233,111.694215 142.815146,80.4704132 C145.360388,67.4267769 144.042718,56.5355372 137.307961,48.8757025 C135.173393,46.5061725 132.624053,44.5446584 129.784854,43.0872727 Z" opacity=".76"/>
    <path d="M122.498252,40.187438 C120.274129,39.5453224 118.01156,39.0441579 115.724078,38.6869421 C111.204132,37.9936898 106.636012,37.6610664 102.063107,37.6922314 L60.6634951,37.6922314 C57.4080499,37.6897227 54.6370696,40.0567019 54.1370874,43.2671074 L45.3300971,98.9371901 L45.076699,100.561322 C45.6436189,96.8994078 48.8025681,94.1978204 52.5153398,94.1996694 L68.0120388,94.1996694 C98.4479612,94.1996694 122.278641,81.8641322 129.244272,46.1781818 C129.452621,45.1216529 129.627184,44.0932231 129.784854,43.0872727 C127.946791,42.1253176 126.031149,41.3188566 124.058058,40.6763636 C123.540778,40.5050702 123.020775,40.342074 122.498252,40.187438 Z" opacity=".9"/>
    <path d="M54.1370874,43.2671074 C54.6328941,40.0552229 57.4072386,37.687759 60.6634951,37.6978512 L102.063107,37.6978512 C106.967767,37.6978512 111.545825,38.0181818 115.724078,38.692562 C118.551479,39.1360357 121.339836,39.7993217 124.063689,40.6763636 C126.119029,41.3563636 128.027961,42.16 129.790485,43.0872727 C131.862718,29.8975207 129.773592,20.9170248 122.627767,12.785124 C114.749903,3.83272727 100.531456,0 82.3374757,0 L29.5180583,0 C25.8015534,0 22.6312621,2.69752066 22.0568932,6.36727273 L0.0563106796,145.542479 C-0.151072737,146.850143 0.225183555,148.1829 1.08610504,149.190169 C1.94702653,150.197437 3.20642318,150.778374 4.53300971,150.780165 L37.1425243,150.780165 L45.3300971,98.9371901 L54.1370874,43.2671074 Z"/>
  </g>
</svg>
