<svg width="60" height="60" viewBox="0 0 60 60" xmlns="http://www.w3.org/2000/svg">
    <rect fill="transparent" x="0" y="0" width="60" height="60" rx="4.8"></rect>

    <g width="30" height="30" viewBox="0 0 30 30" transform="translate(15, 15)" fill="#FFFFFF">
        <path d="M 87.500 1.142 C 62.486 4.319, 38.107 17.870, 22.464 37.289 C 14.384 47.321, 6.024 64.027, 2.844 76.500 C -0.355 89.045, -0.410 110.588, 2.726 123 C 11.353 157.146, 35.841 183.847, 68.653 194.886 C 124.340 213.620, 185.234 178.566, 197.550 120.685 C 198.347 116.936, 199 112.522, 199 110.876 C 199 109.134, 199.418 108.141, 200 108.500 C 200.644 108.898, 200.975 105.444, 200.930 98.809 C 200.884 92.118, 200.558 89.202, 200 90.500 C 199.303 92.121, 199.127 91.814, 199.070 88.878 C 198.957 83.027, 194.463 66.871, 190.660 58.639 C 185.371 47.192, 178.752 38.007, 169.144 28.780 C 158.778 18.825, 151.368 13.781, 140 8.940 C 129.074 4.288, 121.671 2.305, 110.500 1.037 C 100.287 -0.121, 97.340 -0.108, 87.500 1.142 M 119.469 55.432 C 118.732 56.569, 111.760 70.775, 103.976 87 C 96.192 103.225, 89.510 116.830, 89.128 117.234 C 88.745 117.638, 86.504 112.125, 84.147 104.984 L 79.862 92 67.965 92 L 56.068 92 61.890 108.750 C 65.093 117.963, 69.389 130.563, 71.439 136.750 L 75.165 148 86.864 148 L 98.562 148 121.318 101.750 C 133.834 76.313, 144.170 55.050, 144.287 54.500 C 144.419 53.881, 139.991 53.474, 132.654 53.432 C 121.736 53.368, 120.703 53.525, 119.469 55.432 M 0.370 100 C 0.370 105.775, 0.535 108.138, 0.737 105.250 C 0.939 102.362, 0.939 97.638, 0.737 94.750 C 0.535 91.862, 0.370 94.225, 0.370 100 " stroke="none" fill="white" fill-rule="evenodd" transform="scale(0.15) translate(0 0)"></path>
    </g>
</svg>