<svg width="60" height="60" viewBox="0 0 60 60" xmlns="http://www.w3.org/2000/svg">
    <rect fill="transparent" x="0" y="0" width="60" height="60" rx="4.8"></rect>

    <g width="30" height="30" viewBox="0 0 30 30" transform="translate(15, 15)" fill="#FFFFFF">
        <path d="M 300.558 149.094 C 290.925 150.119, 274.521 154.591, 270.750 157.220 L 268 159.136 268 259.413 C 268 355.836, 268.071 359.755, 269.856 361.370 C 271.572 362.922, 278.779 363.029, 364.606 362.775 L 457.500 362.500 463.916 359.759 C 482.440 351.846, 495.155 338.321, 500.587 320.750 C 501.565 317.587, 502.733 315, 503.183 315 C 504.208 315, 504.274 291.288, 503.250 290.833 C 502.837 290.650, 501.389 287.155, 500.031 283.067 C 493.883 264.553, 478.501 249.741, 459.798 244.324 C 449.947 241.471, 437.678 241.231, 427.182 243.686 C 418.968 245.607, 418.044 245.185, 418.015 239.493 C 418.007 237.839, 416.913 232.664, 415.583 227.993 C 409.033 204.974, 398.666 188.965, 379.701 172.582 C 359.905 155.482, 328.393 146.130, 300.558 149.094 M 250.571 164.571 C 249.707 165.436, 248.933 166.223, 248.851 166.321 C 248.769 166.420, 248.124 195.075, 247.418 230 C 245.896 305.317, 246.874 355.614, 249.947 360 C 252.291 363.346, 256.953 363.814, 259.534 360.962 C 262.776 357.380, 264.919 315.980, 263.932 276 C 263.504 258.675, 262.829 227.266, 262.434 206.203 C 261.762 170.503, 261.583 167.739, 259.784 165.453 C 257.541 162.601, 252.979 162.164, 250.571 164.571 M 229.759 176.750 C 228.412 178.270, 228.076 187.441, 227.204 246.500 C 226.639 284.774, 226.566 320.839, 227.038 329 C 227.499 336.975, 227.958 347.100, 228.058 351.500 C 228.262 360.484, 229.581 363, 234.084 363 C 236.718 363, 240 360.802, 240 359.039 C 240 358.588, 240.720 346.808, 241.600 332.860 C 242.990 310.834, 243.053 300.730, 242.076 256 C 240.576 187.258, 240.153 178.296, 238.324 176.467 C 236.322 174.465, 231.647 174.619, 229.759 176.750 M 168.571 190.571 C 167.707 191.436, 167.001 193.348, 167.003 194.821 C 167.004 196.295, 166.292 222.114, 165.419 252.197 C 163.972 302.106, 163.972 309.085, 165.417 331.928 C 166.288 345.698, 167 357.614, 167 358.410 C 167 360.441, 169.788 363, 172 363 C 175.570 363, 176.693 360.454, 177.376 350.821 C 180.579 305.614, 180.535 309.581, 178.541 245.500 C 177.703 218.550, 177.013 195.520, 177.008 194.321 C 176.998 191.651, 174.503 189, 172 189 C 170.979 189, 169.436 189.707, 168.571 190.571 M 189.328 193.241 C 187.370 195.413, 187.240 197.551, 185.977 248.500 C 185.254 277.650, 184.626 302.850, 184.581 304.500 C 184.392 311.504, 187.199 358.624, 187.884 359.933 C 189.816 363.626, 196.316 363.841, 197.388 360.248 C 197.675 359.286, 198.659 346.800, 199.575 332.500 C 201.020 309.927, 201.090 301.623, 200.107 269.500 C 197.600 187.649, 198.068 193.109, 193.429 191.636 C 191.987 191.179, 190.753 191.662, 189.328 193.241 M 148.725 194.417 C 147.146 195.997, 146.825 202.123, 144.874 268 C 143.838 302.997, 143.901 310.448, 145.425 333.359 C 146.372 347.581, 147.388 359.848, 147.683 360.617 C 148.417 362.530, 152.719 363.478, 154.386 362.095 C 155.975 360.776, 156.409 357.150, 158.587 327 C 159.961 307.977, 160.045 300.250, 159.130 277 C 158.535 261.875, 157.771 240.950, 157.433 230.500 C 156.919 214.609, 156.592 206.666, 156.066 197.321 C 155.974 195.684, 153.138 193, 151.500 193 C 150.754 193, 149.505 193.638, 148.725 194.417 M 209.571 196.571 C 208.707 197.436, 207.964 198.223, 207.920 198.321 C 207.876 198.420, 207.243 221.900, 206.514 250.500 C 205.397 294.347, 205.405 306.498, 206.567 328 C 207.326 342.025, 207.958 355.197, 207.973 357.271 C 207.995 360.279, 208.491 361.267, 210.426 362.148 C 213.797 363.684, 217.856 362.467, 218.478 359.735 C 218.758 358.506, 219.654 346.025, 220.470 332 C 221.940 306.729, 221.714 281.724, 219.427 216.725 C 218.810 199.162, 218.631 197.855, 216.661 196.475 C 213.943 194.571, 211.539 194.604, 209.571 196.571 M 128.017 204.250 C 127.499 205.488, 126.383 229, 125.536 256.500 C 124.140 301.846, 124.143 308.920, 125.573 332.500 C 126.440 346.800, 127.557 359.512, 128.054 360.750 C 128.659 362.257, 129.797 363, 131.500 363 C 133.204 363, 134.340 362.258, 134.942 360.750 C 136.019 358.057, 140.191 303.367, 139.539 300.500 C 139.289 299.400, 138.335 277.575, 137.419 252 C 136.035 213.339, 135.496 205.205, 134.222 203.750 C 132.098 201.324, 129.140 201.563, 128.017 204.250 M 108.424 222.123 C 107.693 223.306, 106.819 238.616, 105.035 281.500 C 104.143 302.958, 104.219 311.081, 105.471 328 C 107.966 361.735, 107.983 361.860, 110.238 362.576 C 114.298 363.864, 114.895 361.518, 117.127 335.471 C 119.110 312.328, 119.181 308.560, 118.094 284 C 116.310 243.702, 114.907 223.631, 113.778 222.250 C 112.506 220.695, 109.353 220.621, 108.424 222.123 M 69.476 251.250 C 69.222 251.938, 67.999 264.669, 66.757 279.542 L 64.500 306.584 66.677 332.879 C 67.874 347.342, 69.097 359.811, 69.395 360.588 C 70.060 362.319, 72.611 362.439, 73.632 360.786 C 75.225 358.210, 79.559 306.685, 78.830 299 C 78.439 294.875, 77.402 283.625, 76.525 274 C 74.365 250.277, 74.312 250, 71.923 250 C 70.831 250, 69.730 250.563, 69.476 251.250 M 50.446 252.087 C 49.364 253.837, 44.955 307.111, 45.529 311.500 C 45.816 313.700, 46.949 325.162, 48.047 336.971 C 49.145 348.781, 50.486 358.886, 51.028 359.428 C 53.650 362.050, 54.778 356.991, 57.389 330.898 C 58.853 316.267, 59.840 303.667, 59.583 302.898 C 59.326 302.129, 58.140 290.925, 56.948 278 C 55.756 265.075, 54.364 253.713, 53.855 252.750 C 52.802 250.759, 51.432 250.493, 50.446 252.087 M 89.128 255.250 C 88.675 256.488, 87.382 268.975, 86.254 283 L 84.203 308.500 86.352 334.823 C 88.157 356.940, 88.767 361.295, 90.172 362.079 C 92.240 363.233, 95 360.801, 95 357.825 C 95 356.707, 95.921 344.944, 97.047 331.684 L 99.095 307.576 96.950 281.538 C 95.771 267.217, 94.344 254.938, 93.780 254.250 C 92.188 252.309, 90.034 252.772, 89.128 255.250 M 31.492 261.013 C 31.148 261.570, 29.754 271.981, 28.395 284.148 L 25.923 306.270 27.983 325.885 C 30.722 351.967, 30.764 352.192, 32.776 351.805 C 34.113 351.547, 34.773 348.945, 36.152 338.492 C 40.466 305.815, 40.401 308.312, 37.543 284.945 C 36.100 273.150, 34.682 262.712, 34.392 261.750 C 33.807 259.806, 32.451 259.461, 31.492 261.013 M 12.546 278.250 C 12.332 278.938, 11.415 285.675, 10.511 293.223 C 8.955 306.196, 8.964 307.692, 10.677 320.598 C 12.360 333.273, 13.598 336.736, 15.696 334.637 C 16.031 334.302, 17.272 327.834, 18.453 320.264 C 20.587 306.587, 20.589 306.421, 18.761 294 C 17.750 287.125, 16.499 280.488, 15.983 279.250 C 14.956 276.792, 13.165 276.271, 12.546 278.250 " stroke="none" fill="white" fill-rule="evenodd" transform="scale(0.05859375) translate(0 0)"></path>
    </g>
</svg>