<svg width="60" height="60" viewBox="0 0 60 60" xmlns="http://www.w3.org/2000/svg">
    <rect fill="transparent" x="0" y="0" width="60" height="60" rx="4.8"></rect>

    <g width="30" height="30" viewBox="0 0 30 30" transform="translate(15, 15)" fill="#FFFFFF">
        <path d="M 37.734 13.088 C 31.403 14.580, 26.540 17.628, 21.237 23.431 C 11.660 33.910, 12.500 15.828, 12.500 211.500 L 12.500 383.500 15.353 389 C 19.016 396.059, 24.202 401.481, 30.500 404.836 L 35.500 407.500 141.724 407.768 C 241.308 408.019, 248.004 408.144, 248.842 409.768 C 249.333 410.720, 255.926 430.850, 263.493 454.500 C 271.061 478.150, 277.556 498.073, 277.928 498.772 C 278.364 499.593, 292.528 484.791, 317.769 457.139 C 339.309 433.540, 358.060 412.893, 359.438 411.256 L 361.943 408.280 354.510 384.890 L 347.078 361.500 360.038 348.506 L 372.998 335.511 401.498 363.998 L 429.999 392.485 437.742 384.742 L 445.485 376.998 416.827 348.249 L 388.168 319.500 393.160 313.500 C 406.516 297.449, 419.226 274.742, 425.371 255.956 L 428.792 245.500 449.432 245.230 L 470.072 244.959 469.786 235.230 L 469.500 225.500 423.750 225.240 L 378 224.980 378 209.990 L 378 195 362.500 195 L 347 195 347 210.019 L 347 225.038 324.881 224.769 L 302.762 224.500 294.352 198.500 C 278.534 149.600, 265.171 108.494, 249.407 60.250 L 233.641 12 137.570 12.100 C 84.732 12.156, 39.806 12.600, 37.734 13.088 M 133.500 135.587 C 96.636 143.812, 71.090 177.075, 73.306 213.963 C 74.041 226.201, 75.939 233.312, 81.491 244.633 C 91.199 264.425, 110.440 279.420, 132.775 284.600 C 142.462 286.847, 159.485 286.578, 169.442 284.022 C 182.819 280.588, 191.331 275.741, 201.028 266.036 C 210.430 256.626, 215.172 248.769, 219.156 236 C 221.157 229.588, 221.497 226.396, 221.498 214 C 221.499 206.025, 221.174 198.707, 220.776 197.737 C 220.102 196.093, 217.673 195.992, 184.776 196.237 L 149.500 196.500 149.500 209.306 L 149.500 222.113 171.500 222.306 L 193.500 222.500 193.195 225.360 C 191.980 236.747, 182.007 249.396, 169.811 255.017 C 163.363 257.990, 161.347 258.417, 152.019 258.792 C 143.130 259.149, 140.510 258.879, 135.113 257.050 C 117.497 251.082, 104.954 236.433, 101.823 218.171 C 98.712 200.030, 107.371 179.586, 122.388 169.618 C 131.438 163.611, 137.936 161.709, 149.500 161.683 C 161.027 161.656, 167.908 163.757, 175.649 169.666 L 180.230 173.162 189.980 163.831 C 195.343 158.699, 199.791 154.185, 199.865 153.801 C 200.059 152.794, 188.387 144.684, 182.500 141.733 C 168.745 134.840, 148.325 132.279, 133.500 135.587 M 316.049 265.750 C 319.797 277.163, 326.534 297.926, 331.020 311.891 L 339.177 337.282 347.993 328.507 L 356.810 319.731 350.739 312.115 C 342.310 301.541, 334.266 289.103, 328.124 277.146 L 322.912 267 335.706 267.007 L 348.500 267.013 353.378 275.615 C 356.060 280.346, 361.455 288.491, 365.366 293.715 L 372.478 303.212 375.837 299.356 C 385.616 288.130, 399.110 264.712, 404.016 250.454 L 405.892 245 357.563 245 L 309.234 245 316.049 265.750 " stroke="none" fill="white" fill-rule="evenodd" transform="scale(0.05859375) translate(0 0)"></path>
    </g>
</svg>