<svg width="60" height="60" viewBox="0 0 60 60" xmlns="http://www.w3.org/2000/svg">
    <rect fill="transparent" x="0" y="0" width="60" height="60" rx="4.8"></rect>

    <g width="30" height="30" viewBox="0 0 30 30" transform="translate(15, 15)" fill="#FFFFFF">
        <path d="M 77.775 4.506 C 72.079 7.707, 71.828 13.183, 77.271 15.472 L 80.351 16.767 77.264 18.364 C 70.607 21.806, 67.638 29.666, 72.094 32.050 C 74.180 33.166, 74.180 33.180, 72.219 35.335 C 67.469 40.558, 66.516 47.347, 70.082 50.574 C 72.124 52.422, 72.237 52.418, 75.971 50.373 L 79.778 48.288 78.861 51.394 C 78.357 53.102, 77.294 62.600, 76.499 72.500 C 74.595 96.220, 74.138 99.558, 71.956 105.638 C 69.083 113.644, 66.402 126.422, 62.021 153 C 59.799 166.475, 57.396 179.750, 56.680 182.500 L 55.378 187.500 49.439 188.141 C 46.173 188.494, 35.843 188.832, 26.484 188.891 C 11.938 188.984, 8.963 189.270, 5.984 190.862 C -1.597 194.915, 0.128 203.320, 9.500 207.993 C 18.504 212.483, 31.696 211.008, 49.177 203.557 C 50.512 202.988, 50.743 203.266, 50.310 204.921 C 50.011 206.064, 50.176 207, 50.675 207 C 51.903 207, 67.756 197.204, 68.515 195.976 C 68.847 195.439, 71.390 195, 74.167 195 C 79.174 195, 79.211 195.023, 78.536 197.750 L 77.854 200.500 81.225 197.250 C 85.021 193.590, 86 193.263, 86 195.655 C 86 197.173, 86.157 197.168, 87.897 195.593 C 88.956 194.635, 92.157 193.641, 95.147 193.342 L 100.500 192.808 105.854 198.404 C 111.393 204.194, 114.613 205.377, 117 202.500 C 117.685 201.675, 119.485 201, 121.001 201 C 124.895 201, 126.784 196.389, 125.248 190.634 C 124.643 188.370, 124.228 186.514, 124.325 186.509 C 124.421 186.504, 127.185 185.150, 130.466 183.500 C 143.327 177.033, 153.853 163.049, 157.613 147.435 C 159.815 138.290, 159.813 117.775, 157.608 104.500 C 156.181 95.908, 155.582 94.230, 153.353 92.579 C 151.927 91.523, 150.185 89.292, 149.483 87.623 L 148.207 84.587 145.272 91.044 C 143.658 94.595, 141.649 98.066, 140.808 98.757 C 139.491 99.839, 139.057 99.281, 137.695 94.757 C 136.824 91.866, 135.973 88.635, 135.805 87.578 C 135.581 86.168, 134.389 87.367, 131.330 92.078 C 129.037 95.610, 125.554 100.046, 123.591 101.936 C 120.038 105.356, 120.024 105.404, 120.631 111.944 C 120.989 115.792, 120.733 120.967, 120.015 124.430 C 118.961 129.505, 118.031 131.100, 113.459 135.672 C 110.528 138.602, 107.742 141, 107.268 141 C 106.793 141, 106.591 138.085, 106.818 134.521 C 107.434 124.837, 106.740 123.886, 102.216 128.220 C 98.554 131.728, 92 135.683, 92 134.386 C 92 134.019, 94.021 127.909, 96.492 120.807 C 100.377 109.640, 102.811 101.165, 105.422 89.709 C 105.772 88.174, 106.445 87.157, 106.918 87.449 C 107.732 87.952, 113 81.895, 113 80.456 C 113 80.084, 111.432 76.566, 109.515 72.639 C 100.264 53.687, 100.978 40.594, 111.841 29.962 C 118.589 23.359, 125.750 20.331, 138.739 18.589 L 147.500 17.414 143 14.764 C 135.529 10.364, 123.920 8.729, 116.092 10.974 C 113.083 11.837, 111.731 11.468, 104.174 7.724 C 96.741 4.040, 94.682 3.466, 88.076 3.237 C 82.718 3.051, 79.702 3.423, 77.775 4.506 M 153.851 24.790 C 158.409 31.192, 162.613 50.818, 161.846 62.113 L 161.500 67.199 175.039 66.498 C 186.324 65.914, 189.217 66.064, 192.411 67.398 C 194.519 68.279, 196.475 69, 196.756 69 C 197.038 69, 197.043 65.846, 196.767 61.991 C 195.526 44.640, 180.825 28.538, 161.500 23.363 C 158.750 22.626, 155.457 22.018, 154.182 22.012 L 151.864 22 153.851 24.790 M 129.329 38.458 C 125.402 40.166, 124 42.671, 124 47.980 C 124 53.744, 127.346 57, 133.267 57 C 144.042 57, 147.299 42.530, 137.452 38.415 C 133.385 36.716, 133.332 36.716, 129.329 38.458 M 135.604 43.590 C 134.853 45.547, 135.661 47, 137.500 47 C 139.558 47, 140.338 45.112, 138.964 43.456 C 137.399 41.571, 136.363 41.613, 135.604 43.590 M 160.170 75.250 C 159.523 78.688, 158.718 82.513, 158.380 83.750 C 157.819 85.808, 158.105 86, 161.724 86 C 166.884 86, 174.063 83.803, 177.950 81.035 C 180.762 79.033, 185.685 71.352, 184.754 70.420 C 184.541 70.208, 182.825 70.477, 180.940 71.017 C 175.979 72.440, 169.473 72.224, 165.346 70.500 C 163.371 69.675, 161.663 69, 161.551 69 C 161.438 69, 160.817 71.813, 160.170 75.250 " stroke="none" fill="white" fill-rule="evenodd" transform="scale(0.15) translate(0 -7)"></path>
    </g>
</svg>