<svg width="60" height="60" viewBox="0 0 60 60" xmlns="http://www.w3.org/2000/svg">
    <rect fill="transparent" x="0" y="0" width="60" height="60" rx="4.8"></rect>

    <g width="30" height="30" viewBox="0 0 30 30" transform="translate(15, 15)" fill="#FFFFFF">
        <path d="M 242.028 30.562 C 226.657 33.894, 213.961 41.104, 202.869 52.799 C 194.169 61.971, 188.940 70.512, 185.296 81.500 C 182.901 88.719, 182.585 91.452, 182.052 109.500 C 181.685 121.906, 181.169 128.361, 180.691 126.500 C 180.268 124.850, 179.233 120.800, 178.392 117.500 C 175.621 106.631, 169.411 96.420, 159.460 86.370 C 151.497 78.328, 149.174 76.637, 139.960 72.170 C 126.262 65.529, 116.611 63.545, 101.552 64.273 C 84.068 65.119, 70.998 70.172, 56.883 81.541 C 45.131 91.008, 35.411 106.659, 31.631 122.206 C 29.283 131.858, 29.464 148.583, 32.023 158.590 C 38.841 185.249, 59.116 206.086, 85.500 213.547 C 89.839 214.773, 97.038 215.387, 111.500 215.761 L 131.500 216.280 123 218.110 C 105.893 221.793, 88.682 233.126, 78.602 247.345 C 68.310 261.863, 64.597 273.671, 64.558 292 C 64.526 306.994, 66.026 313.476, 72.641 326.945 C 80.949 343.858, 97.625 358.180, 116.500 364.610 C 127.939 368.507, 145.991 369.155, 158.084 366.101 C 184.822 359.351, 204.512 340.875, 213.076 314.500 C 215.036 308.461, 215.428 304.617, 215.924 286.500 L 216.500 265.500 218.210 274 C 219.317 279.501, 221.575 285.838, 224.609 291.962 C 228.548 299.911, 230.754 302.874, 238.399 310.480 C 248.701 320.731, 256.781 325.864, 268.500 329.604 C 296.379 338.501, 325.653 331.512, 346.083 311.083 C 366.555 290.610, 373.540 261.632, 364.703 233.833 C 360.799 221.555, 355.761 213.551, 345.519 203.353 C 337.753 195.621, 334.875 193.499, 326.916 189.637 C 313.807 183.276, 306.772 181.812, 285.500 181.018 C 275.600 180.648, 268.763 180.268, 270.307 180.173 C 279.653 179.597, 297.007 172.010, 306 164.568 C 323.031 150.475, 332.768 131.139, 333.757 109.448 C 334.444 94.395, 332.444 84.683, 325.865 71.110 C 321.535 62.179, 319.611 59.498, 312.164 52.012 C 300.306 40.094, 288.918 33.761, 273.500 30.510 C 264.824 28.681, 250.596 28.705, 242.028 30.562 M 247.734 65.025 C 235.240 68.178, 223.564 78.743, 219.024 91 C 218.311 92.925, 217.405 100.187, 217.011 107.138 C 216.379 118.268, 215.935 120.534, 213.284 126.138 C 209.533 134.066, 204.256 139.416, 196.500 143.155 L 190.500 146.047 230 145.774 L 269.500 145.500 275.037 142.778 C 291.127 134.869, 299.739 120.293, 298.807 102.546 C 298.014 87.427, 289.626 74.880, 275.744 68.046 C 270.021 65.228, 267.785 64.703, 260.277 64.413 C 255.450 64.227, 249.806 64.502, 247.734 65.025 M 97.251 99.475 C 80.380 103.253, 68.045 116.173, 64.873 133.388 C 61.733 150.426, 71.545 169.220, 87.744 177.195 C 93.524 180.040, 95.433 180.430, 106.833 181.087 C 121.439 181.930, 125.056 182.834, 131.605 187.277 C 137.678 191.397, 141.469 196.176, 144.548 203.593 L 147 209.500 146.750 169.500 L 146.500 129.500 143.723 123.570 C 135.020 104.987, 116.203 95.231, 97.251 99.475 M 182 198.500 L 182 216 199 216 L 216 216 216 198.500 L 216 181 199 181 L 182 181 182 198.500 M 251.304 227.500 L 251.500 267.500 254.685 274.223 C 260.805 287.142, 271.777 295.592, 285.824 298.205 C 312.562 303.177, 337.858 278.150, 333.255 251.277 C 330.826 237.099, 322.256 225.822, 309.302 219.760 C 303.318 216.960, 301.349 216.583, 289.501 215.965 C 278.003 215.365, 275.663 214.938, 270.923 212.572 C 261.841 208.038, 256.617 202.107, 252.806 192 C 251.168 187.657, 251.116 188.894, 251.304 227.500 M 128.500 252.402 C 116.897 256.081, 107.772 263.989, 102.753 274.714 C 96.986 287.038, 97.942 302.867, 105.136 314.173 C 122.254 341.075, 161.773 339.506, 176.730 311.331 C 180.364 304.486, 182 296.605, 182 285.942 C 182 270.262, 189.284 259.361, 203.730 253.420 L 209.500 251.047 171 251.091 C 142.776 251.122, 131.432 251.472, 128.500 252.402 " stroke="none" fill="white" fill-rule="evenodd" transform="scale(0.075) translate(0 0)"></path>
    </g>
</svg>