<svg xmlns="http://www.w3.org/2000/svg" width="360" height="360" viewBox="0 0 360 360">
  <g fill="#FFF" fill-rule="evenodd" transform="translate(92 83)">
    <path d="M175.991985,169.716084 C176.064117,183.03513 165.276503,193.880296 151.908197,193.952118 C150.91439,193.960099 149.912568,193.904237 148.926776,193.784533 C136.520219,191.957055 127.431694,181.207651 127.736248,168.726532 L127.736248,25.2255862 C127.439709,12.7285068 136.552277,1.97910325 148.966849,0.167585356 C162.246995,-1.38058412 174.276867,8.08399835 175.831694,21.307281 C175.943898,22.2808721 176,23.2544632 175.991985,24.2360346 L175.991985,169.716084 Z" opacity=".8"/>
    <path fill-rule="nonzero" d="M24.1318761,145.934924 C37.4601093,145.934924 48.2637523,156.692308 48.2637523,169.963472 C48.2637523,183.234636 37.4601093,193.99202 24.1318761,193.99202 C10.803643,193.99202 0,183.234636 0,169.963472 C0,156.692308 10.803643,145.934924 24.1318761,145.934924 Z"/>
    <path fill-rule="nonzero" d="M87.6233151,73.1150967 C74.2309654,73.8492801 63.8440801,85.0296174 64.1566485,98.3805841 L64.1566485,162.916907 C64.1566485,180.433566 71.898725,191.063266 83.2393443,193.329659 C96.3271403,195.971123 109.078324,187.551954 111.731148,174.520197 C112.059745,172.924146 112.220036,171.304155 112.212022,169.676183 L112.212022,97.2633484 C112.236066,83.9443028 101.416393,73.1310572 88.0400729,73.1071164 C87.9038251,73.1071164 87.7595628,73.1071164 87.6233151,73.1150967 Z" opacity=".9"/>
  </g>
</svg>
