<svg width="60" height="60" viewBox="0 0 60 60" xmlns="http://www.w3.org/2000/svg">
    <rect fill="transparent" x="0" y="0" width="60" height="60" rx="4.8"></rect>

    <g width="30" height="30" viewBox="0 0 30 30" transform="translate(15, 15)" fill="#FFFFFF">
        <path d="M 1198 3.083 C 1068.621 8.499, 942.427 33.329, 822.500 76.966 C 654.614 138.053, 504.214 233.371, 375.118 360.500 C 189.843 542.952, 68.563 770.972, 22.507 1023.445 C 8.343 1101.096, 2.555 1166.810, 2.555 1250 C 2.555 1298.134, 3.317 1318.416, 6.574 1357 C 27.752 1607.915, 123.708 1844.609, 283.055 2039 C 351.329 2122.288, 433.774 2200.041, 520 2262.461 C 701.575 2393.904, 913.931 2473.092, 1138 2492.914 C 1179.898 2496.621, 1199.832 2497.429, 1249.500 2497.433 C 1297.093 2497.438, 1319.545 2496.602, 1356.500 2493.451 C 1583.055 2474.134, 1795.090 2395.716, 1978.932 2263.255 C 2085.022 2186.816, 2185.373 2086.599, 2262.135 1980.430 C 2379.812 1817.674, 2455.506 1631.623, 2484.447 1434 C 2494.045 1368.461, 2497.448 1320.075, 2497.424 1249.500 C 2497.399 1178.951, 2494.046 1131.536, 2484.447 1066 C 2439.178 756.933, 2280.115 479.159, 2033.500 278.505 C 1934.174 197.690, 1818.706 130.931, 1698.103 84.593 C 1540.370 23.989, 1368.345 -4.049, 1198 3.083 M 1205 139.016 C 1007.647 147.776, 824.785 204.183, 660.500 306.977 C 519.918 394.940, 397.192 517.405, 308.230 658.500 C 174.648 870.362, 117.343 1121.674, 145.078 1374 C 172.624 1624.605, 284.021 1856.036, 463.490 2035.511 C 558.662 2130.686, 666.715 2206.119, 787 2261.355 C 1061.381 2387.354, 1382.773 2395.114, 1663.500 2282.518 C 1695.778 2269.571, 1713.109 2261.752, 1747 2244.845 C 1873.061 2181.958, 1986.172 2095.080, 2081.683 1987.784 C 2178.953 1878.511, 2253.424 1751.557, 2301.166 1613.620 C 2366.368 1425.239, 2379.243 1217.545, 2337.977 1019.774 C 2287.339 777.084, 2155.060 557.658, 1962 396.097 C 1821.191 278.262, 1654.195 197.566, 1475.500 161.012 C 1424.085 150.495, 1370.192 143.468, 1314.500 140.021 C 1290.777 138.553, 1228.352 137.980, 1205 139.016 M 1224.500 296.064 C 1183.056 298.727, 1136.334 308.656, 1102.500 321.990 C 1073.030 333.604, 1061.464 342.272, 1057.865 355.441 C 1057.082 358.304, 1056.808 387.641, 1056.935 455 C 1057.131 559.090, 1056.843 554.148, 1062.788 555.453 C 1064.439 555.816, 1072.151 554.816, 1081.072 553.084 C 1120.831 545.360, 1157.477 540.669, 1198.839 538.008 C 1219.881 536.654, 1278.876 536.656, 1300.624 538.012 C 1337.445 540.308, 1381.116 545.673, 1414.951 552.058 C 1423.503 553.672, 1432.087 554.994, 1434.027 554.996 C 1438.758 555.001, 1441.749 552.706, 1442.866 548.213 C 1444.325 542.341, 1443.499 363.804, 1441.981 357 C 1438.518 341.481, 1430.498 335.313, 1397.991 323.168 C 1340.393 301.650, 1281.284 292.416, 1224.500 296.064 M 1203 629.104 C 1165.579 630.930, 1126.104 635.219, 1088.500 641.545 C 1060.578 646.242, 1040.909 650.505, 1002.549 660.171 C 931.776 678.005, 902.107 687.626, 870.500 702.992 C 855.704 710.185, 850.876 713.920, 847.871 720.500 C 846.140 724.290, 846.043 729.883, 846.022 826.857 C 846.004 910.470, 846.238 929.123, 847.301 928.715 C 848.016 928.440, 859.393 921.061, 872.583 912.317 C 971.699 846.610, 1070.192 796.692, 1185.619 753.665 C 1244.206 731.827, 1246.083 731.696, 1289.616 746.414 C 1358.435 769.680, 1417.196 794.079, 1482.500 826.504 C 1538.537 854.328, 1582.051 879.289, 1627.867 909.892 C 1654.666 927.792, 1656.677 928.996, 1659.778 928.998 L 1662.055 929 1661.768 828.250 C 1661.501 734.151, 1661.363 727.147, 1659.674 722.155 C 1655.482 709.761, 1645.781 703.890, 1609 691.486 C 1467.940 643.918, 1330.916 622.864, 1203 629.104 M 1246 836.679 C 1237.234 837.559, 1217.784 844.212, 1176.729 860.373 C 1039.299 914.473, 915.570 984.712, 805 1071.398 C 785.736 1086.501, 753.754 1113.423, 749.250 1118.327 C 741.979 1126.244, 742.872 1128.312, 763.241 1150.731 C 801.277 1192.596, 835.982 1241.500, 866.800 1296.659 C 894.733 1346.655, 933.013 1436.357, 943.543 1476.493 C 946.218 1486.688, 949.999 1503.849, 950 1505.801 C 950 1505.967, 946.512 1503.349, 942.250 1499.983 C 886.743 1456.157, 845.222 1431.092, 796 1411.697 C 760.742 1397.805, 728.007 1389.469, 688.500 1384.323 C 677.119 1382.841, 667.671 1382.506, 638 1382.531 C 598.919 1382.564, 590.348 1383.246, 562 1388.584 C 482.926 1403.473, 405.795 1442.347, 330 1505.512 C 312.245 1520.309, 306 1526.924, 306 1530.934 C 306 1534.319, 323.444 1588.060, 330.970 1607.863 C 338.085 1626.583, 340.228 1631.283, 365.679 1684 C 423.418 1803.596, 502.620 1905.572, 608.040 1996.052 C 694.822 2070.535, 789.270 2128.421, 889 2168.249 C 987.880 2207.738, 1089.325 2229.664, 1202.500 2236.008 C 1240.807 2238.156, 1303.004 2237.237, 1341.500 2233.955 C 1479.567 2222.184, 1614.954 2178.317, 1740.500 2104.675 C 1939.009 1988.235, 2080.967 1824.838, 2165.490 1615.500 C 2185.543 1565.835, 2188.168 1555.791, 2183.185 1547.777 C 2181.373 1544.862, 2169.770 1536.600, 2129.685 1509.682 C 2018.826 1435.235, 1947.083 1394.792, 1877.185 1367.341 C 1846.817 1355.415, 1814.181 1345.356, 1796.500 1342.475 C 1761.052 1336.698, 1731.168 1348.245, 1687.144 1384.732 C 1666.277 1402.026, 1645.909 1421.413, 1596.500 1471.012 C 1570.650 1496.961, 1548.612 1518.824, 1547.527 1519.596 C 1544.471 1521.772, 1541.130 1521.370, 1540.480 1518.750 C 1539.836 1516.156, 1549.772 1483.974, 1559.660 1456.625 C 1602.895 1337.054, 1661.693 1236.916, 1740.877 1148 C 1746.999 1141.125, 1752.944 1133.594, 1754.087 1131.264 C 1757.967 1123.354, 1755.078 1119.633, 1727 1096.374 C 1635.018 1020.178, 1545.405 961.087, 1448 912.400 C 1404.219 890.516, 1364.886 873.511, 1317.654 856.045 C 1274.478 840.079, 1257.590 835.515, 1246 836.679 M 1249 923.376 C 1249 923.583, 1246.765 932.470, 1244.034 943.126 C 1241.303 953.782, 1236.130 976.016, 1232.538 992.536 C 1228.947 1009.055, 1223.523 1031.780, 1220.485 1043.036 C 1211.584 1076.013, 1205.363 1101.572, 1202.848 1115.500 C 1200.555 1128.197, 1200.500 1129.886, 1200.516 1188 C 1200.541 1283.650, 1203.049 1317.836, 1221.056 1468 C 1238.716 1615.264, 1243.071 1648.624, 1246.618 1663.819 C 1248.585 1672.245, 1250.331 1678.995, 1250.497 1678.819 C 1251.148 1678.134, 1254.998 1651.573, 1256.994 1634 C 1258.150 1623.825, 1262.885 1588.725, 1267.515 1556 C 1283.477 1443.177, 1285.009 1426.220, 1289.014 1318.069 C 1289.572 1302.982, 1291.449 1273.282, 1293.183 1252.069 C 1295.894 1218.914, 1296.348 1208.517, 1296.418 1178 C 1296.526 1131.009, 1295.496 1122.511, 1283.872 1074.500 C 1275.478 1039.831, 1263.322 985.417, 1255.892 949.254 C 1252.926 934.819, 1250.162 923.007, 1249.750 923.004 C 1249.338 923.002, 1249 923.169, 1249 923.376 " stroke="none" fill="white" fill-rule="evenodd" transform="scale(0.012) translate(0 0)"></path>
    </g>
</svg>