<svg width="60" height="60" viewBox="0 0 60 60" xmlns="http://www.w3.org/2000/svg">
    <rect fill="transparent" x="0" y="0" width="60" height="60" rx="4.8"></rect>

    <g width="30" height="30" viewBox="0 0 30 30" transform="translate(15, 15)" fill="#FFFFFF">
        <path d="M 40.518 15.250 C 40.287 15.938, 39.935 24.600, 39.737 34.500 C 39.308 55.817, 37.968 60.591, 29.950 69.365 C 24.699 75.110, 18.926 78.193, 9.830 80.110 C 6.898 80.728, 3.938 81.686, 3.250 82.239 C 2.328 82.981, 2 88.309, 2 102.551 C 2 125.839, 1.841 125.488, 11.886 124.440 C 37.494 121.771, 58.874 109.188, 71.809 89.174 L 75.657 83.221 84.078 100.251 C 88.710 109.618, 93.740 119.019, 95.256 121.141 L 98.013 125 117.306 125 C 136.666 125, 139 124.605, 139 121.333 C 139 119.131, 88.028 16.560, 86.283 15.250 C 83.894 13.457, 41.120 13.457, 40.518 15.250 " stroke="none" fill="white" fill-rule="evenodd" transform="scale(0.2127659574468085) translate(0 0)"></path>
    </g>
</svg>