<svg width="60" height="60" viewBox="0 0 60 60" xmlns="http://www.w3.org/2000/svg">
    <rect fill="transparent" x="0" y="0" width="60" height="60" rx="4.8"></rect>

    <g width="30" height="30" viewBox="0 0 30 30" transform="translate(15, 15)" fill="#FFFFFF">
        <path d="M 2805 336.607 C 2750.475 341.445, 2702.292 358.668, 2664.138 386.958 C 2650.995 396.702, 2681.727 365.790, 2331.562 721.489 C 2294.197 759.445, 2250.077 804.225, 2233.517 821 C 2216.958 837.775, 2174.855 880.520, 2139.955 915.990 C 2020.726 1037.163, 1942.623 1116.486, 1912.992 1146.500 C 1896.702 1163, 1855.070 1205.300, 1820.475 1240.500 C 1785.881 1275.700, 1741.809 1320.474, 1722.538 1339.998 C 1703.267 1359.523, 1672.839 1390.348, 1654.921 1408.498 C 1637.002 1426.649, 1579.406 1485.150, 1526.929 1538.500 C 1359.584 1708.628, 1220.619 1849.771, 1141.963 1929.500 C 1104.131 1967.848, 1011.638 2061.775, 882.487 2193 C 830.251 2246.075, 743.183 2334.500, 689.003 2389.500 C 485.916 2595.662, 462.363 2619.710, 456.865 2626.520 C 420.422 2671.655, 391.954 2738.391, 383.287 2799 C 381.595 2810.837, 381.500 2832.649, 381.500 3210.500 C 381.500 3595.635, 381.564 3609.778, 383.356 3617.500 C 386.919 3632.860, 393.277 3643.859, 409.781 3663.215 L 418.308 3673.216 453.453 3637.858 C 472.783 3618.411, 531.080 3559.525, 583.003 3507 C 634.925 3454.475, 698.800 3389.900, 724.948 3363.500 C 751.095 3337.100, 793.859 3293.900, 819.979 3267.500 C 846.098 3241.100, 888.624 3198.125, 914.479 3172 C 940.335 3145.875, 982.867 3102.898, 1008.995 3076.495 C 1035.123 3050.092, 1077.909 3006.892, 1104.075 2980.495 C 1130.242 2954.098, 1214.806 2868.600, 1291.996 2790.500 C 1369.187 2712.400, 1454.653 2625.998, 1481.921 2598.496 C 1509.190 2570.993, 1552.648 2527.118, 1578.495 2500.996 C 1629.671 2449.274, 1693.108 2385.161, 1766.489 2311 C 1812.567 2264.432, 1859.033 2217.480, 1957.985 2117.499 C 1985.202 2090, 2027.987 2046.800, 2053.061 2021.500 C 2078.136 1996.200, 2162.032 1911.375, 2239.496 1833 C 2316.960 1754.625, 2402.203 1668.450, 2428.924 1641.500 C 2455.645 1614.550, 2499.771 1570, 2526.980 1542.500 C 2554.190 1515, 2596.490 1472.250, 2620.981 1447.500 C 2645.472 1422.750, 2687.105 1380.675, 2713.499 1354 C 2739.893 1327.325, 2783.084 1283.675, 2809.479 1257 C 2835.874 1230.325, 2878.439 1187.350, 2904.069 1161.500 C 2929.699 1135.650, 3034.995 1029.225, 3138.061 925 C 3241.126 820.775, 3368.862 691.625, 3421.918 638 C 3474.973 584.375, 3524.034 534.728, 3530.941 527.673 L 3543.500 514.846 3536 507.827 C 3520.446 493.271, 3499.533 479.149, 3482.331 471.585 C 3464.718 463.841, 3461.226 462.997, 3374.500 445.507 C 3362.400 443.067, 3333.600 437.222, 3310.500 432.519 C 3222.231 414.546, 3213.305 412.738, 3206.500 411.453 C 3199.445 410.120, 3129.749 395.926, 3101 389.967 C 3092.475 388.200, 3082.350 386.163, 3078.500 385.440 C 3074.650 384.717, 3057.100 381.167, 3039.500 377.553 C 3021.900 373.938, 3005.925 370.730, 3004 370.424 C 3002.075 370.118, 2998.925 369.472, 2997 368.987 C 2995.075 368.502, 2982.250 365.866, 2968.500 363.129 C 2954.750 360.391, 2940.350 357.484, 2936.500 356.668 C 2932.650 355.853, 2923.875 354.048, 2917 352.657 C 2885.969 346.382, 2877.770 344.708, 2867 342.449 C 2843.325 337.483, 2819.949 335.281, 2805 336.607 M 2880.500 2955.167 C 2865.649 2956.406, 2845.200 2962.523, 2832.089 2969.650 C 2816.611 2978.063, 2825.068 2970.390, 2609.035 3172 C 2583.988 3195.375, 2530.199 3245.550, 2489.504 3283.500 C 2448.809 3321.450, 2381.749 3384, 2340.481 3422.500 C 2116.887 3631.097, 2133.102 3615.577, 2125.114 3628.632 C 2118.158 3639.999, 2116.078 3653.172, 2119.907 3661.602 C 2124.273 3671.217, 2136.322 3678.659, 2153.500 3682.351 L 2163.500 3684.500 2892.500 3684.500 L 3621.500 3684.500 3631.500 3682.351 C 3649.371 3678.510, 3661.693 3670.608, 3665.547 3660.516 C 3668.261 3653.410, 3667.200 3643.055, 3662.815 3633.845 C 3657.266 3622.192, 3649.277 3613.291, 3618.972 3585 C 3554.819 3525.110, 3509.994 3483.299, 3359 3342.507 C 3321.875 3307.891, 3274.845 3264.028, 3254.488 3245.034 C 3149.128 3146.726, 3127.424 3126.485, 3092 3093.499 C 3070.825 3073.781, 3047.425 3051.957, 3040 3045.001 C 2964.362 2974.138, 2964.274 2974.066, 2943.038 2964.911 C 2923.870 2956.647, 2902.564 2953.327, 2880.500 2955.167 " stroke="none" fill="white" fill-rule="evenodd" transform="scale(0.007466401194624191) translate(-20.5 0)"></path>
    </g>
</svg>