<svg width="60" height="60" viewBox="0 0 60 60" xmlns="http://www.w3.org/2000/svg">
    <rect fill="transparent" x="0" y="0" width="60" height="60" rx="4.8"></rect>

    <g width="30" height="30" viewBox="0 0 30 30" transform="translate(15, 15)" fill="#FFFFFF">
        <path d="M 588 213.031 C 575.483 216.029, 572.009 216.985, 570.216 217.924 C 569.272 218.418, 566.250 219.611, 563.500 220.575 C 554.412 223.761, 523.132 238.772, 517.044 242.869 C 515.645 243.811, 512.025 245.866, 509 247.436 C 505.975 249.006, 502.825 250.823, 502 251.474 C 500.493 252.662, 496.351 255.122, 488 259.788 C 485.525 261.171, 483.275 262.596, 483 262.954 C 482.725 263.312, 480.706 264.707, 478.514 266.053 C 476.322 267.399, 473.622 269.055, 472.514 269.734 C 471.406 270.413, 469.712 271.253, 468.750 271.601 C 467.788 271.949, 467 272.856, 467 273.617 C 467 274.377, 466.376 275, 465.614 275 C 464.128 275, 451.722 282.915, 451.167 284.218 C 450.983 284.648, 450.291 285, 449.629 285 C 448.966 285, 446.866 286.332, 444.962 287.959 C 443.058 289.587, 441.149 290.937, 440.721 290.959 C 439.415 291.027, 419 305.359, 419 306.208 C 419 306.643, 418.330 307, 417.511 307 C 416.045 307, 403.816 315.718, 403.167 317.226 C 402.983 317.652, 402.191 318, 401.407 318 C 400.622 318, 399.197 318.941, 398.240 320.091 C 397.283 321.242, 395.600 322.586, 394.500 323.078 C 393.400 323.571, 389.961 325.893, 386.858 328.237 C 380.127 333.322, 373.164 338.516, 370.758 340.247 C 363.042 345.799, 353.861 352.648, 322 376.623 C 301.925 391.730, 283.700 405.441, 281.500 407.092 C 277.534 410.068, 276.218 411.088, 264.540 420.227 C 261.218 422.827, 258.050 425.306, 257.500 425.736 C 256.950 426.166, 254.475 428.077, 252 429.983 C 249.525 431.889, 247.275 433.695, 247 433.996 C 246.604 434.430, 232.718 445.445, 226.202 450.494 C 225.488 451.047, 224.138 452.218, 223.202 453.097 C 222.266 453.975, 216.325 458.855, 210 463.942 C 203.675 469.029, 197.140 474.386, 195.479 475.846 C 193.817 477.306, 189.767 480.727, 186.479 483.448 C 183.190 486.169, 178.452 490.219, 175.950 492.448 C 173.447 494.677, 170.168 497.524, 168.662 498.776 C 149.137 515.011, 105.912 556.067, 89.710 573.767 C 87.075 576.645, 84.488 579, 83.960 579 C 83.432 579, 83 579.430, 83 579.955 C 83 580.480, 81.987 581.945, 80.750 583.211 C 79.513 584.477, 76.171 588.210, 73.324 591.507 C 70.477 594.803, 66.744 599.075, 65.027 601 C 63.310 602.925, 60.499 606.525, 58.781 609 C 57.062 611.475, 54.020 615.525, 52.021 618 C 48.217 622.708, 40.869 633.424, 39.677 636 C 39.295 636.825, 38.020 639.075, 36.844 641 C 33.009 647.274, 29.162 655.517, 26.304 663.586 C 22.578 674.104, 22.284 688.233, 25.661 694.500 C 28.211 699.232, 32.183 703.106, 36.958 705.519 C 41.188 707.657, 55.520 707.968, 64.500 706.118 C 72.949 704.376, 85.321 700.838, 86.450 699.840 C 86.972 699.378, 88.097 698.997, 88.950 698.994 C 89.802 698.990, 91.655 698.385, 93.067 697.648 C 94.478 696.912, 96.853 696.003, 98.343 695.629 C 100.918 694.982, 103.019 694.097, 119.500 686.707 C 132.503 680.877, 172.552 660.167, 177.137 656.903 C 178.606 655.856, 180.132 655, 180.528 655 C 180.923 655, 184.454 653.060, 188.373 650.689 C 192.293 648.319, 196.175 646.051, 197 645.650 C 197.825 645.249, 199.400 644.371, 200.500 643.698 C 201.600 643.025, 204.750 641.150, 207.500 639.532 C 210.250 637.914, 215.650 634.551, 219.500 632.060 C 223.350 629.569, 227.477 627.073, 228.671 626.515 C 234.092 623.980, 301.672 579.474, 314.614 569.916 C 319.764 566.112, 324.247 563, 324.575 563 C 324.904 563, 327.047 561.709, 329.337 560.132 C 333.394 557.336, 373.003 531.295, 388 521.563 C 392.125 518.886, 395.650 516.314, 395.833 515.848 C 396.017 515.381, 396.944 515, 397.895 515 C 398.845 515, 400.495 514.212, 401.561 513.250 C 402.628 512.288, 405.525 510.192, 408 508.594 C 416.557 503.067, 418.503 501.642, 419.300 500.324 C 419.740 499.596, 420.713 499, 421.462 499 C 422.954 499, 432.550 493.054, 435.084 490.559 C 435.955 489.702, 437.155 489, 437.751 489 C 438.346 489, 438.983 488.663, 439.167 488.250 C 439.568 487.347, 445.665 483, 446.529 483 C 446.865 483, 449.021 481.726, 451.320 480.168 C 453.619 478.611, 456.288 477.050, 457.250 476.700 C 458.212 476.349, 459 475.629, 459 475.099 C 459 474.569, 460.012 473.834, 461.250 473.466 C 462.488 473.098, 465.161 471.493, 467.191 469.899 C 469.222 468.304, 471.363 467, 471.950 467 C 472.537 467, 474.760 465.762, 476.891 464.250 C 484.960 458.521, 487.552 456.934, 492 454.998 C 493.375 454.400, 494.950 453.368, 495.500 452.705 C 496.050 452.042, 498.075 450.722, 500 449.772 C 501.925 448.821, 505.300 446.924, 507.500 445.556 C 509.700 444.188, 513.605 442.111, 516.179 440.942 C 518.752 439.772, 521.634 437.957, 522.584 436.908 C 523.533 435.858, 524.907 435, 525.637 435 C 526.367 435, 529.933 433.183, 533.561 430.963 C 555.829 417.333, 591.983 402.305, 609.207 399.519 C 622.237 397.412, 639.098 399.694, 658.408 406.180 C 683.447 414.589, 705.787 427.448, 726.990 445.655 C 728.371 446.841, 734.900 452.117, 741.500 457.380 C 748.100 462.644, 754.157 467.524, 754.961 468.225 C 756.433 469.510, 761.815 473.604, 776.500 484.607 C 780.900 487.904, 791.025 494.896, 799 500.144 C 823.297 516.133, 839.767 524.684, 857 530.257 C 865.002 532.844, 868.155 533.342, 877 533.414 C 882.775 533.461, 889.185 533.143, 891.245 532.706 C 896.230 531.648, 901.517 526.137, 905.354 518 C 908.266 511.825, 908.418 510.876, 908.410 499 C 908.401 485.223, 907.530 481.083, 901.420 465.781 C 892.251 442.813, 876.070 417.343, 849.148 383.500 C 843.898 376.900, 837.554 369.240, 835.051 366.478 C 832.548 363.716, 827.800 358.317, 824.500 354.479 C 821.200 350.642, 816.250 345.036, 813.500 342.022 C 810.750 339.008, 806.259 334.058, 803.520 331.021 C 793.693 320.127, 756.303 283.309, 746.500 274.873 C 718.334 250.635, 693.555 233.461, 672.500 223.582 C 670.300 222.550, 667.737 221.333, 666.805 220.879 C 662.391 218.725, 649.664 214.627, 642.051 212.908 C 630.423 210.282, 599.177 210.354, 588 213.031 " stroke="none" fill="white" fill-rule="evenodd" transform="scale(0.03264417845484222) translate(0 0)"></path>
    </g>
</svg>