<svg width="60" height="60" viewBox="0 0 60 60" xmlns="http://www.w3.org/2000/svg">
    <rect fill="transparent" x="0" y="0" width="60" height="60" rx="4.8"></rect>

    <g width="30" height="30" viewBox="0 0 30 30" transform="translate(15, 15)" fill="#FFFFFF">
        <path d="M 484.500 1.416 C 462.158 6.572, 444.033 21, 434.497 41.219 C 421.104 69.617, 426.493 101.251, 448.521 123.536 C 456.674 131.784, 466.214 137.748, 477.500 141.652 C 484.751 144.160, 486.811 144.419, 499.500 144.426 C 512.093 144.432, 514.304 144.161, 521.500 141.726 C 525.900 140.237, 531.923 137.621, 534.884 135.913 L 540.269 132.806 529.414 122.577 L 518.559 112.347 512.529 114.247 C 507.243 115.913, 505.330 116.025, 497 115.159 C 481.961 113.594, 471.615 107.916, 463.351 96.691 C 457.027 88.100, 454.602 79.391, 455.224 67.499 C 455.824 56.037, 459.351 47.681, 467.007 39.586 C 480.759 25.045, 501.923 21.273, 519.954 30.148 C 539.540 39.789, 549.832 64.527, 542.637 84.665 L 541.149 88.830 551.618 98.539 C 557.376 103.878, 562.237 108.079, 562.420 107.873 C 563.549 106.611, 567.045 98.523, 568.894 92.899 C 581.181 55.518, 559.582 15.290, 520.500 2.768 C 512.544 0.218, 492.887 -0.520, 484.500 1.416 M 649.520 108.115 C 629.935 110.967, 608.540 120.048, 593.791 131.769 L 590.135 134.674 599.318 143.591 C 604.368 148.495, 611.916 155.798, 616.090 159.820 L 623.680 167.132 629.590 163.549 C 639.425 157.586, 649.637 154.790, 663.577 154.244 C 673.538 153.853, 677.067 154.128, 683.723 155.811 C 710.843 162.669, 731.324 183.130, 738.171 210.203 C 741.066 221.653, 740.418 239.029, 736.667 250.500 C 730.276 270.046, 715.505 286.455, 696.576 295.038 C 676.973 303.927, 652.605 303.373, 633.195 293.598 L 626.161 290.056 610.157 306.778 L 594.153 323.500 596.827 325.684 C 601.133 329.202, 613.993 336.587, 620.687 339.385 C 630.968 343.684, 643.508 346.900, 654.951 348.172 C 664.162 349.197, 667.500 349.136, 677.146 347.767 C 704.875 343.834, 727.708 332.486, 747 313.050 C 763.904 296.019, 774.010 277.417, 780.168 252 C 781.031 248.435, 781.500 239.991, 781.500 228 C 781.500 216.009, 781.031 207.565, 780.168 204 C 776.138 187.366, 769.861 172.698, 761.128 159.511 C 754.710 149.817, 739.176 134.487, 728.883 127.686 C 704.755 111.744, 674.994 104.405, 649.520 108.115 M 564.058 165.901 C 545.283 198.048, 541.899 237.861, 555.039 272 C 557.825 279.237, 565.605 293.985, 568.555 297.620 L 570.892 300.500 586.981 284.462 L 603.069 268.424 599.110 259.962 C 589.567 239.565, 589.758 214.266, 599.601 194.809 L 601.974 190.117 595.757 184.309 C 592.337 181.114, 586.381 175.587, 582.520 172.026 C 578.659 168.465, 573.859 164.032, 571.854 162.174 L 568.207 158.796 564.058 165.901 M 402.500 284.075 C 363.211 287.994, 325.558 303.422, 295.712 327.832 C 286.387 335.459, 270.035 352.488, 262.887 362.018 C 224.209 413.581, 213.244 481.050, 233.554 542.500 C 257.062 613.624, 320.155 665.733, 394.576 675.489 C 422.329 679.127, 453.733 675.486, 480.500 665.528 C 491.536 661.422, 509.100 652.719, 508.786 651.511 C 508.629 650.908, 498.625 636.807, 486.556 620.175 C 469.814 597.103, 464.243 590.096, 463.056 590.616 C 456.351 593.553, 444.620 597.206, 437.290 598.640 C 425.805 600.885, 404.613 600.874, 392.790 598.615 C 362.766 592.878, 335.991 576.126, 317.486 551.500 C 311.407 543.411, 302.807 526.395, 299.543 516 C 291.873 491.575, 292.574 462.039, 301.378 438.710 C 315.498 401.293, 346.246 373.471, 384.687 363.327 C 397.934 359.832, 422.005 358.945, 435.500 361.455 C 452.108 364.545, 467.490 370.623, 480.427 379.208 L 486.354 383.141 512.927 356.515 L 539.500 329.888 535.500 326.403 C 524.260 316.610, 502.179 303.626, 485.488 296.995 C 459.746 286.770, 426.845 281.647, 402.500 284.075 M 535.292 379.250 L 509.098 405.500 513.068 411 C 521.671 422.918, 529.222 440.310, 532.603 456 C 535.040 467.305, 535.066 493.171, 532.652 503.838 C 527.974 524.502, 519.221 542.444, 506.438 557.569 L 502.154 562.639 524.662 592.819 C 537.041 609.419, 547.524 623, 547.958 623 C 549.457 623, 563.066 607.916, 569.858 598.727 C 586.942 575.611, 598.099 551.087, 604.379 522.848 C 608.456 504.516, 609.326 492.638, 608.076 472.375 C 605.441 429.664, 592.637 393.603, 568.629 361.279 C 565.258 356.740, 562.272 353.020, 561.993 353.013 C 561.714 353.006, 549.699 364.813, 535.292 379.250 M 702.500 619.110 C 665.453 621.899, 628.634 631.931, 594.547 648.523 C 581.109 655.064, 573 659.736, 573 660.937 C 573 661.431, 584.996 679.309, 599.657 700.667 C 614.319 722.025, 626.380 739.599, 626.460 739.720 C 626.540 739.840, 632.299 737.088, 639.257 733.603 C 707.524 699.408, 788.435 708.940, 847.500 758.137 C 868.415 775.557, 889.265 802.651, 903.365 830.730 C 924.887 873.590, 933.124 923.378, 926.405 970 C 916.146 1041.194, 870.228 1105.332, 807.500 1136.088 C 757.464 1160.622, 698.498 1161.964, 646.766 1139.747 C 602.502 1120.737, 566.592 1085.217, 543.396 1037.500 C 532.960 1016.031, 527.279 998.755, 522.845 975 C 520.286 961.291, 519.255 926.823, 520.927 910.846 C 526.135 861.066, 548.280 813.020, 583.411 775.280 L 590.132 768.060 562.417 727.568 L 534.703 687.076 531.945 689.039 C 526.631 692.823, 510.421 707.757, 502 716.628 C 446.786 774.788, 416.619 853.785, 419.391 932.954 C 422.343 1017.271, 444.447 1082.106, 489.471 1138.513 C 499.830 1151.491, 521.717 1173.344, 535 1183.973 C 576.492 1217.172, 626.094 1238.726, 680.500 1247.201 C 692.375 1249.050, 698.826 1249.389, 723 1249.430 C 753.397 1249.482, 763.068 1248.578, 786.500 1243.493 C 846.379 1230.501, 902.777 1198.782, 941.176 1156.500 C 997.039 1094.989, 1027 1017.664, 1027 935 C 1027 863.779, 1005.433 798.277, 962.652 739.568 C 937.187 704.621, 908.346 678.749, 870.656 657.042 C 821.209 628.564, 760.080 614.775, 702.500 619.110 " stroke="none" fill="white" fill-rule="evenodd" transform="scale(0.024) translate(0 0)"></path>
    </g>
</svg>