<svg width="60" height="60" viewBox="0 0 60 60" xmlns="http://www.w3.org/2000/svg">
    <rect fill="transparent" x="0" y="0" width="60" height="60" rx="4.8"></rect>

    <g width="30" height="30" viewBox="0 0 30 30" transform="translate(15, 15)" fill="#FFFFFF">
        <path d="M 193.768 36.088 C 182.991 48.325, 179 56.299, 179 65.592 C 179 74.498, 182.471 80.452, 192.115 88.091 L 195.730 90.954 196.372 85.496 C 196.724 82.494, 197.513 77.705, 198.125 74.854 C 199.562 68.151, 200.544 69.849, 202.133 81.786 L 203.346 90.890 206.231 88.835 C 215.414 82.296, 219.944 74.694, 219.978 65.761 C 220.015 56, 215.812 47.638, 204.812 35.588 L 199.415 29.676 193.768 36.088 M 133.487 63.250 C 129.720 74.435, 129.014 85.991, 131.725 92.091 C 134.601 98.564, 138.556 102.738, 144.357 105.422 C 152.455 109.170, 154.308 109.555, 153.624 107.349 C 152.450 103.560, 149.979 90.688, 150.354 90.313 C 150.820 89.846, 156.341 98.370, 158.085 102.250 C 158.765 103.763, 159.668 105, 160.092 105 C 160.517 105, 161.726 103.763, 162.779 102.250 C 168.947 93.393, 168.271 80.005, 161.222 71.454 C 156.514 65.742, 140.809 55, 137.166 55 C 136.670 55, 135.015 58.712, 133.487 63.250 M 255 58.212 C 238.838 67.519, 232 76.395, 232 88.066 C 232 92.632, 234.448 99.947, 237.375 104.125 C 238.665 105.967, 239.060 105.574, 243.472 98.047 C 246.067 93.621, 248.412 90, 248.683 90 C 249.366 90, 248.109 97.532, 246.476 103.228 C 245.712 105.894, 245.511 108.197, 246.015 108.509 C 246.506 108.813, 249.757 107.770, 253.239 106.191 C 268.514 99.265, 272.695 85.559, 265.953 64.512 C 264.277 59.280, 262.365 55.010, 261.703 55.022 C 261.041 55.034, 258.025 56.469, 255 58.212 M 81.428 80.634 C 80.288 88.232, 81.548 100.434, 83.992 105.484 C 88.003 113.768, 96.722 119, 106.518 119 L 108.938 119 105.474 112.250 C 103.569 108.537, 102.008 105.147, 102.005 104.715 C 101.994 102.996, 106.018 106.237, 109.815 111.005 L 113.829 116.047 115.115 112.273 C 117.051 106.593, 116.662 98.178, 114.247 93.500 C 110.546 86.328, 105.056 82.260, 94.001 78.500 C 83.257 74.846, 82.271 75.013, 81.428 80.634 M 307 77.932 C 294.396 82.113, 288.475 86.188, 284.941 93.115 C 282.729 97.452, 282.327 106.771, 284.129 111.941 L 285.259 115.181 291.236 109.341 C 297.712 103.011, 298.124 103.758, 293.370 113.217 C 292.067 115.811, 291 118.173, 291 118.467 C 291 119.365, 296.282 119.049, 300.409 117.904 C 311.225 114.900, 317.006 106.608, 317.796 92.961 C 318.045 88.661, 317.940 83.086, 317.563 80.572 C 316.763 75.237, 315.829 75.003, 307 77.932 M 195.329 106.620 C 181.329 123.387, 179.568 136.279, 189.785 147.201 C 192.254 149.840, 194.843 152, 195.539 152 C 196.346 152, 197.065 149.741, 197.528 145.750 C 198.675 135.851, 199.530 134.582, 200.864 140.801 C 201.489 143.715, 202 147.426, 202 149.049 C 202 153.035, 203.826 152.799, 208.199 148.250 C 215.778 140.365, 217.747 132.501, 214.327 123.770 C 212.330 118.671, 207.428 110.967, 202.778 105.620 L 199.404 101.740 195.329 106.620 M 125.700 116.676 C 124.781 118.163, 123 132.903, 123 139.023 C 123 156.473, 130.753 167.617, 145.580 171.479 C 152.246 173.215, 158 173.463, 158 172.015 C 158 171.473, 156.690 168.435, 155.088 165.265 C 152.097 159.343, 149.734 152.933, 150.324 152.343 C 150.691 151.976, 159.452 160.827, 163.250 165.403 L 165.660 168.306 167.454 163.903 C 169.732 158.311, 170.551 147.712, 169.114 142.404 C 167.512 136.483, 162.741 130.449, 156.510 126.463 C 148.482 121.328, 127.036 114.515, 125.700 116.676 M 266.500 117.109 C 234.459 124.557, 222.740 140.996, 232.177 165.258 L 233.249 168.016 241.186 159.758 C 248.017 152.651, 249.037 151.904, 248.506 154.396 C 248.166 155.988, 246.339 160.558, 244.444 164.550 C 242.550 168.542, 241 172.076, 241 172.404 C 241 174.170, 255.227 171.884, 260.500 169.270 C 262.150 168.452, 265.433 165.919, 267.796 163.641 C 274.326 157.345, 276.467 149.333, 275.686 134.108 C 275.023 121.179, 274.050 116.578, 271.928 116.340 C 271.143 116.252, 268.700 116.598, 266.500 117.109 M 62 124.583 C 57.875 125.355, 52.412 126.552, 49.859 127.244 L 45.219 128.500 48.027 136.756 C 54.068 154.517, 63.965 166.755, 74.036 168.914 C 76.820 169.511, 80.265 170, 81.691 170 C 85.131 170, 97.051 166.414, 99.455 164.656 C 101.298 163.309, 101.281 163.222, 98.930 161.995 C 96.376 160.663, 85.997 152.254, 84.804 150.551 C 84.422 150.005, 84.270 149.397, 84.467 149.200 C 84.786 148.881, 98.502 153.466, 103.409 155.532 C 105.184 156.280, 105.271 155.990, 104.656 151.418 C 102.573 135.938, 95.030 127.216, 81 124.061 C 75.181 122.752, 71.197 122.862, 62 124.583 M 316.407 124.348 C 303.775 127.560, 296.889 136.202, 294.456 151.900 C 293.831 155.931, 293.930 156.235, 295.637 155.521 C 301.130 153.222, 314.401 149.067, 314.842 149.509 C 315.521 150.187, 312.459 152.977, 304.551 158.889 L 298.049 163.749 304.275 166.574 C 313.063 170.562, 323.321 170.637, 330.500 166.766 C 336.883 163.325, 339.926 160.080, 344.348 152 C 348.344 144.698, 353 132.912, 353 130.100 C 353 126.034, 326.290 121.835, 316.407 124.348 M 195.500 166.729 C 186.106 178.407, 183.469 184.103, 183.581 192.468 C 183.627 195.903, 184.351 199.821, 185.263 201.569 C 186.825 204.563, 194.841 213, 196.123 213 C 196.477 213, 197.089 209.994, 197.482 206.320 C 198.593 195.946, 199.504 194.460, 200.864 200.801 C 201.489 203.715, 202 207.651, 202 209.549 C 202 211.447, 202.397 213, 202.882 213 C 204.602 213, 211.905 204.828, 213.937 200.629 C 216.831 194.651, 216.584 188.730, 213.139 181.500 C 209.862 174.624, 201.396 163, 199.665 163 C 199.024 163, 197.150 164.678, 195.500 166.729 M 48 180.313 C 44.975 181.559, 39.607 184.545, 36.070 186.949 L 29.640 191.319 36.769 198.117 C 45.940 206.862, 52.025 210.007, 59.717 209.978 C 66.502 209.952, 72.073 207.666, 76.774 202.980 C 78.575 201.184, 79.885 199.552, 79.685 199.352 C 79.486 199.152, 76.068 198.134, 72.090 197.090 C 68.112 196.046, 64.630 194.963, 64.350 194.684 C 64.071 194.404, 66.916 193.887, 70.671 193.535 C 74.427 193.182, 78.324 192.805, 79.332 192.697 C 80.941 192.524, 80.785 191.979, 78.040 188.202 C 76.323 185.838, 72.823 182.575, 70.263 180.952 C 64.272 177.152, 56.233 176.922, 48 180.313 M 333 178.630 C 329.230 180.119, 324.010 184.458, 321.081 188.537 L 317.876 193 323.688 193.118 C 326.885 193.183, 330.850 193.556, 332.500 193.946 C 335.392 194.630, 335.303 194.712, 330 196.241 C 326.975 197.112, 323.198 198.114, 321.607 198.468 L 318.714 199.110 322.107 202.666 C 326.433 207.200, 332.858 210, 338.934 210 C 347.652 210, 353.563 206.910, 363.296 197.266 L 369.092 191.523 365.796 188.789 C 363.983 187.284, 359.369 184.393, 355.543 182.363 C 349.779 179.306, 347.377 178.618, 341.543 178.355 C 337.669 178.180, 333.825 178.304, 333 178.630 M 94 185.938 C 94 186.344, 98.796 193.837, 104.657 202.588 C 110.518 211.340, 127.506 236.725, 142.407 259 L 169.500 299.500 169.500 334.749 L 169.500 369.999 199.750 369.999 L 230 370 230 334.758 L 230 299.516 257.750 258.179 C 273.012 235.444, 287.975 213.068, 291 208.455 C 294.025 203.842, 298.236 197.586, 300.358 194.554 C 307.135 184.869, 309.175 185.540, 272 185.222 L 239.500 184.944 220.089 217.222 C 209.414 234.975, 200.522 249.692, 200.329 249.927 C 199.729 250.659, 197.387 247.069, 186.352 228.500 C 180.468 218.600, 173.820 207.512, 171.577 203.861 C 169.335 200.209, 165.798 194.451, 163.718 191.065 L 159.936 184.909 126.968 185.054 C 108.836 185.134, 94 185.532, 94 185.938 M 74.500 216.929 C 68.539 218.367, 60.063 224.053, 53.941 230.721 C 48.356 236.804, 43.029 243.319, 43.013 244.087 C 42.988 245.221, 56.572 253.955, 63.004 256.940 C 77.607 263.717, 90.691 262.415, 99.149 253.342 C 102.014 250.268, 108 241.113, 108 239.804 C 108 239.362, 102.938 238.986, 96.750 238.968 C 86.575 238.939, 85.688 238.794, 87.467 237.449 C 88.548 236.632, 93.453 234.756, 98.365 233.282 L 107.297 230.602 101.699 225.392 C 93.299 217.572, 83.922 214.655, 74.500 216.929 M 309.212 217.922 C 304.469 219.676, 296.357 225.455, 293.060 229.428 C 292.024 230.676, 292.284 231.018, 294.662 231.535 C 300.264 232.753, 313 237.363, 313 238.173 C 313 238.628, 308.050 239, 302 239 C 295.950 239, 291 239.279, 291 239.619 C 291 241.332, 298.484 252.231, 301.288 254.601 C 313.463 264.892, 328.697 263.361, 348.750 249.831 C 352.738 247.140, 356 244.694, 356 244.394 C 356 243.037, 346.606 231.841, 341.748 227.408 C 330.595 217.232, 319.682 214.050, 309.212 217.922 M 113.340 258.958 C 107.458 260.359, 103.589 263.357, 101 268.517 C 98.849 272.804, 98.500 274.851, 98.500 283.167 C 98.500 288.483, 98.789 293.122, 99.143 293.476 C 100.039 294.372, 110.538 291.228, 116.259 288.350 C 118.999 286.972, 122.329 284.163, 124.107 281.728 C 127.055 277.692, 127.175 277.148, 126.763 269.749 C 126.525 265.485, 126.072 261.739, 125.756 261.423 C 125.440 261.107, 123.243 262.951, 120.873 265.522 C 115.857 270.963, 114.776 270.076, 118.436 263.522 C 119.846 260.996, 121 258.720, 121 258.465 C 121 257.813, 117.089 258.064, 113.340 258.958 M 280.976 263.953 C 282.711 267.390, 283.945 270.389, 283.717 270.617 C 283.489 270.844, 281.218 268.803, 278.671 266.079 C 275.929 263.148, 273.769 261.565, 273.376 262.200 C 273.012 262.790, 272.492 266.362, 272.222 270.138 C 271.771 276.448, 271.959 277.333, 274.545 281.065 C 276.093 283.299, 279.307 286.268, 281.687 287.663 C 286.619 290.553, 298.853 294.481, 299.842 293.491 C 300.204 293.129, 300.500 288.223, 300.500 282.588 C 300.500 272.945, 300.324 272.059, 297.500 267.512 C 294.098 262.034, 289.705 259.333, 282.617 258.361 L 277.822 257.704 280.976 263.953 " stroke="none" fill="white" fill-rule="evenodd" transform="scale(0.075) translate(0 0)"></path>
    </g>
</svg>