<svg width="60" height="60" viewBox="0 0 60 60" xmlns="http://www.w3.org/2000/svg">
    <rect fill="transparent" x="0" y="0" width="60" height="60" rx="4.8"></rect>

    <g width="30" height="30" viewBox="0 0 30 30" transform="translate(15, 15)" fill="#FFFFFF">
        <path d="M 141.223 20.557 C 136.040 24.187, 136.951 25.377, 171.130 59.615 C 188.802 77.318, 204.307 92.361, 205.585 93.045 C 207.519 94.081, 208.336 94.010, 210.455 92.622 L 213 90.954 212.985 57.227 C 212.976 38.677, 212.639 23.005, 212.235 22.400 C 210.175 19.314, 206.758 19, 175.288 19 C 148.086 19, 143.121 19.227, 141.223 20.557 M 38.441 64.419 C 36.551 65.801, 36.494 67.958, 36.255 146.669 C 36.062 210.531, 36.278 228.025, 37.284 230 C 38.554 232.495, 38.592 232.501, 54.921 232.775 C 69.097 233.014, 71.535 232.826, 73.143 231.370 C 74.863 229.814, 75 227.742, 75 203.295 C 75 180.781, 75.241 176.430, 76.643 173.700 C 79.559 168.019, 87.136 158, 88.517 158 C 89.804 158, 93.792 167.608, 110.519 211 C 114.229 220.625, 118.193 229.523, 119.327 230.772 C 121.343 232.992, 121.794 233.038, 138.932 232.772 C 154.626 232.529, 156.509 232.318, 156.806 230.773 C 156.988 229.824, 147.164 206.285, 134.975 178.465 C 117.518 138.625, 112.952 127.328, 113.469 125.266 C 113.831 123.826, 122.873 110.074, 133.563 94.706 C 144.253 79.338, 153 66.151, 153 65.401 C 153 63.244, 149.315 62.829, 133.238 63.176 C 120.312 63.455, 117.918 63.759, 116.167 65.346 C 115.048 66.361, 105.664 81.531, 95.316 99.058 C 84.967 116.585, 76.162 130.942, 75.750 130.963 C 75.338 130.983, 75 116.600, 75 99 C 75 68.333, 74.917 66.917, 73 65 C 71.174 63.174, 69.667 63, 55.691 63 C 44.049 63, 39.917 63.340, 38.441 64.419 " stroke="none" fill="white" fill-rule="evenodd" transform="scale(0.12) translate(0 0)"></path>
    </g>
</svg>