<svg width="60" height="60" viewBox="0 0 60 60" xmlns="http://www.w3.org/2000/svg">
    <rect fill="transparent" x="0" y="0" width="60" height="60" rx="4.8"></rect>

    <g width="30" height="30" viewBox="0 0 30 30" transform="translate(15, 15)" fill="#FFFFFF">
        <path d="M 109.654 18.103 C 107.366 22.550, 106 26.604, 106 28.946 C 106 32.754, 103.815 39.901, 100.174 48 C 99.062 50.475, 97.467 55.650, 96.630 59.500 C 95.148 66.323, 92.603 87.502, 93.025 89.500 C 93.609 92.259, 92.849 95, 91.500 95 C 90.675 95, 90 94.371, 90 93.602 C 90 92.833, 87.111 88.730, 83.580 84.483 C 77.861 77.603, 76.694 75.411, 72.880 64.381 C 68.318 51.190, 67.463 50.277, 63.314 54.174 C 62.042 55.370, 61 55.843, 61 55.224 C 61 54.605, 61.774 53.666, 62.719 53.137 C 64.280 52.264, 64.212 51.987, 61.969 50.121 C 59.309 47.908, 57 47.387, 57 49 C 57 49.550, 57.450 50, 58 50 C 59.729 50, 59.097 52.184, 56.313 55.834 C 54.587 58.097, 54.185 59.143, 55.191 58.757 C 57.342 57.931, 59 59.851, 59 63.169 C 59 65.363, 58.648 65.802, 57.301 65.285 C 56.238 64.877, 56.050 64.483, 56.801 64.233 C 58.949 63.517, 58.150 60.160, 55.750 59.820 C 54.301 59.614, 53.597 58.908, 53.774 57.837 C 53.975 56.613, 53.514 56.314, 52.024 56.704 C 49.884 57.264, 49.064 54.697, 51 53.500 C 51.550 53.160, 51.986 51.446, 51.970 49.691 C 51.927 45.214, 50.189 48.343, 49.360 54.390 C 48.785 58.583, 48.935 59.013, 51.353 60.115 C 53.144 60.931, 54.164 62.360, 54.595 64.653 C 54.940 66.494, 55.623 68, 56.111 68 C 57.330 68, 57.238 71.735, 56 72.500 C 54.351 73.519, 54.861 74.725, 57.250 75.451 C 59.458 76.122, 59.449 76.154, 56.750 77.151 C 55.238 77.709, 53.986 78.917, 53.968 79.833 C 53.939 81.349, 53.816 81.341, 52.608 79.750 C 50.966 77.587, 49.859 77.469, 50.655 79.543 C 50.980 80.391, 52.909 81.933, 54.940 82.970 C 56.972 84.006, 59.221 85.562, 59.939 86.427 C 61.660 88.500, 62.992 88.423, 63.032 86.250 C 63.061 84.667, 63.203 84.685, 64.532 86.441 C 65.661 87.934, 65.718 88.556, 64.779 89.137 C 64.107 89.552, 63.852 90.186, 64.212 90.546 C 65.566 91.899, 67 89.758, 67 86.382 C 67 84.266, 67.402 83.130, 68.016 83.510 C 68.575 83.856, 68.774 84.557, 68.457 85.069 C 68.141 85.581, 69.034 86, 70.441 86 C 72.618 86, 73 86.448, 73 89 C 73 90.650, 73.450 92, 74 92 C 74.550 92, 75 92.627, 75 93.393 C 75 94.159, 75.706 95.057, 76.569 95.388 C 77.612 95.788, 77.924 96.663, 77.502 97.995 C 77.049 99.420, 77.319 100, 78.433 100 C 79.483 100, 80 100.924, 80 102.800 C 80 104.340, 80.396 106.027, 80.879 106.550 C 81.363 107.072, 82.334 109.300, 83.037 111.500 C 83.740 113.700, 85.215 116.719, 86.315 118.208 C 88.056 120.567, 88.133 121.136, 86.907 122.614 C 85.864 123.873, 85.555 126.984, 85.712 134.656 C 85.828 140.345, 85.723 145, 85.478 145 C 85.234 145, 83.894 142.750, 82.500 140 C 81.106 137.250, 79.524 135, 78.983 135 C 77.114 135, 78.012 139.212, 81.082 144.845 L 84.164 150.500 80.332 146.866 C 75.666 142.442, 69.749 138.717, 64.812 137.097 C 62.784 136.431, 59.946 134.958, 58.504 133.825 C 53.935 130.230, 49.608 129.887, 41.636 132.486 C 35.673 134.430, 34.500 135.172, 34.500 136.999 C 34.500 138.606, 35.436 139.508, 38.028 140.399 C 39.968 141.066, 45.810 144.216, 51.010 147.399 C 58.893 152.224, 61.010 153.098, 63.743 152.654 C 65.811 152.319, 68.590 152.816, 71.267 154 C 73.602 155.033, 78.293 156.326, 81.691 156.873 C 85.089 157.420, 89.137 158.598, 90.685 159.491 C 93.371 161.040, 93.385 161.087, 91 160.499 C 89.625 160.160, 84.650 159.627, 79.945 159.314 C 66.074 158.391, 54.949 162.524, 43.989 172.671 C 35.823 180.231, 29.608 189.644, 25.082 201.303 C 24.443 202.951, 22.817 204.516, 21.135 205.103 C 19.562 205.651, 17.789 207.168, 17.194 208.473 C 16.600 209.778, 15.075 210.993, 13.807 211.173 C 12.257 211.393, 11.389 212.285, 11.162 213.890 C 10.837 216.187, 11.002 216.255, 15.412 215.640 C 17.935 215.288, 22.137 214.715, 24.750 214.367 C 27.412 214.012, 31.364 212.491, 33.740 210.907 C 41.335 205.845, 41.617 205.790, 64.404 204.955 C 76.557 204.509, 89.200 203.618, 92.500 202.973 C 103.256 200.873, 110.657 196.602, 124.742 184.366 L 129.500 180.232 129.704 183.366 C 129.816 185.090, 130.125 189.200, 130.392 192.500 C 130.658 195.800, 130.941 202.676, 131.020 207.780 L 131.165 217.060 134.583 216.419 C 136.622 216.036, 138 216.181, 138 216.778 C 138 217.328, 137.438 217.715, 136.750 217.639 C 134.406 217.378, 134.491 219.499, 136.838 219.831 C 138.472 220.062, 140.055 219.179, 142.088 216.901 C 143.690 215.107, 145 214.201, 145 214.886 C 145 215.656, 146.051 216.012, 147.745 215.816 C 149.897 215.568, 150.600 214.867, 150.995 212.571 C 151.468 209.828, 151.607 209.748, 153.179 211.321 C 155.074 213.217, 157 213.530, 157 211.941 C 157 211.359, 156.550 211.160, 156 211.500 C 154.581 212.377, 154.755 208.645, 156.200 207.200 C 156.860 206.540, 158.660 206, 160.200 206 C 162.022 206, 163 205.476, 163 204.500 C 163 203.567, 163.944 203, 165.500 203 C 166.875 203, 168.972 202.028, 170.159 200.841 C 171.979 199.021, 172.155 198.248, 171.277 195.923 C 170.601 194.131, 170.577 192.823, 171.211 192.189 C 171.844 191.556, 171.802 190.499, 171.093 189.173 C 169.235 185.701, 169.877 184.849, 172.751 186.974 C 174.964 188.610, 178.027 189.201, 188.414 189.993 C 195.516 190.536, 203.616 190.758, 206.413 190.488 C 211.196 190.026, 226.786 189.137, 231.750 189.043 C 233.863 189.003, 234 188.578, 234 182.065 C 234 178.251, 234.495 173.863, 235.100 172.315 C 235.705 170.767, 236.424 168.155, 236.698 166.512 C 236.971 164.868, 237.864 162.230, 238.681 160.649 C 240.095 157.916, 240.022 157.597, 237.201 154.138 L 234.234 150.500 226.274 150.598 C 221.895 150.651, 216.825 151.214, 215.007 151.848 C 211.121 153.202, 193 153.411, 193 152.101 C 193 150.961, 206.158 149.598, 208.868 150.458 C 212.357 151.566, 216.477 148.422, 226.007 137.383 L 235.220 126.712 232.110 125.404 C 228.886 124.049, 228.047 121.689, 230.294 120.300 C 231.005 119.860, 232.342 117.925, 233.264 116 C 234.730 112.938, 234.756 112.361, 233.470 111.390 C 231.432 109.851, 231.624 107.945, 233.750 108.613 C 235.244 109.083, 235.216 108.932, 233.559 107.582 C 232.491 106.712, 231.029 106, 230.309 106 C 228.744 106, 228.574 104.381, 230.044 103.473 C 231.460 102.598, 236 105.685, 236 107.523 C 236 108.335, 236.563 109.034, 237.250 109.077 C 237.938 109.119, 239.286 109.304, 240.246 109.487 C 243.393 110.090, 243.285 107.889, 240 104.500 C 236.817 101.216, 236.673 99, 239.642 99 C 240.481 99, 240.968 98.437, 240.726 97.750 C 240.483 97.063, 239.504 96.569, 238.551 96.654 C 237.239 96.771, 236.958 96.283, 237.395 94.654 C 237.713 93.469, 237.979 92.162, 237.986 91.750 C 237.994 91.338, 238.477 91, 239.059 91 C 239.641 91, 239.859 91.419, 239.543 91.931 C 239.226 92.443, 239.425 93.144, 239.984 93.490 C 240.546 93.838, 241 93.199, 241 92.059 C 241 89.311, 239.657 89.454, 232.160 93.001 C 224.613 96.571, 221.790 96.994, 224.345 94.171 C 225.255 93.165, 226 91.381, 226 90.206 C 226 89.031, 227.318 86.569, 228.928 84.735 C 231.855 81.401, 235.999 72.042, 235.999 68.761 C 236 66.263, 232.900 63, 230.528 63.002 C 229.412 63.003, 226.807 64.803, 224.738 67.002 C 222.419 69.466, 221.537 71, 222.440 71 C 224.389 71, 223.880 77.009, 221.642 80.424 C 219.683 83.413, 219.536 85.640, 221.250 86.354 C 222.131 86.720, 221.909 87.350, 220.500 88.484 C 219.400 89.369, 218.495 90.749, 218.490 91.551 C 218.475 93.769, 209.313 99.895, 206.940 99.274 C 205.553 98.911, 205.120 98.198, 205.520 96.937 C 205.905 95.724, 205.391 94.745, 203.970 93.984 C 202.641 93.273, 202.068 92.266, 202.440 91.296 C 202.776 90.421, 202.290 89.201, 201.324 88.495 C 199.716 87.319, 199.715 87.142, 201.307 85.551 C 202.774 84.083, 202.810 83.667, 201.571 82.429 C 199.919 80.776, 198 80.546, 198 82 C 198 82.550, 198.477 83, 199.059 83 C 199.641 83, 199.866 83.408, 199.558 83.906 C 198.918 84.941, 194.798 84.124, 193.909 82.785 C 193.583 82.296, 191.172 84.956, 188.550 88.698 C 184.063 95.100, 183.817 95.294, 184.365 92 C 184.685 90.075, 185.232 86.646, 185.580 84.379 C 186.402 79.039, 183.396 57.063, 180.971 50.680 C 179.371 46.471, 179.228 44.662, 180.014 38.614 C 181.205 29.451, 181.202 29, 179.949 29 C 179.371 29, 178.240 30.575, 177.436 32.500 C 176.631 34.425, 175.521 36, 174.969 36 C 173.544 36, 161.580 48.862, 154.616 57.880 C 148.200 66.188, 144.034 74.080, 143.994 78 C 143.975 79.983, 143.769 80.190, 143 79 C 142.467 78.175, 142.024 75.417, 142.015 72.871 C 141.994 66.420, 138.508 47.308, 136.486 42.551 C 134.184 37.137, 128.601 28.500, 123.524 22.500 C 121.198 19.750, 118.541 16.038, 117.621 14.250 C 116.701 12.462, 115.354 11, 114.628 11 C 113.902 11, 111.663 14.196, 109.654 18.103 M 232.444 39.634 C 223.365 48.832, 221.749 51.190, 225.707 49.466 C 226.693 49.036, 228.063 48.775, 228.750 48.886 C 229.438 48.997, 230 48.148, 230 47 C 230 45.852, 230.563 45.023, 231.250 45.159 C 231.938 45.295, 233.896 44.663, 235.601 43.754 C 237.936 42.511, 238.986 42.386, 239.851 43.251 C 240.716 44.116, 241.011 43.918, 241.044 42.450 C 241.083 40.705, 242.346 36.764, 244.472 31.750 C 246.328 27.372, 241.284 30.678, 232.444 39.634 M 116.607 43.582 C 115.671 46.020, 115.888 49, 117 49 C 117.550 49, 118 47.425, 118 45.500 C 118 41.705, 117.560 41.099, 116.607 43.582 M 237.606 47.416 C 238.087 48.669, 237.506 49, 234.826 49 C 231.978 49, 231.258 49.479, 230.303 52.009 C 229.321 54.609, 229.419 55.154, 231.018 56.009 C 234.034 57.623, 236.586 57.150, 237.804 54.750 C 239.463 51.480, 239.710 46.783, 238.249 46.271 C 237.452 45.992, 237.219 46.406, 237.606 47.416 M 63 57.378 C 63 59.235, 65.649 61.377, 66.414 60.139 C 67.302 58.703, 65.982 56, 64.393 56 C 63.627 56, 63 56.620, 63 57.378 M 176.632 62.090 C 176.284 63.828, 176 68.119, 176 71.625 C 176 76.760, 176.306 78, 177.575 78 C 178.946 78, 179.059 76.799, 178.448 68.750 C 178.062 63.663, 177.638 59.372, 177.505 59.215 C 177.372 59.059, 176.980 60.352, 176.632 62.090 M 59.208 69.676 C 58.221 70.072, 58.189 70.523, 59.072 71.586 C 60.399 73.185, 62 72.559, 62 70.441 C 62 68.950, 61.417 68.790, 59.208 69.676 M 125.583 84.597 C 123.429 86.469, 121.162 88, 120.545 88 C 119.928 88, 117.657 90.138, 115.498 92.750 C 113.338 95.362, 110.768 98.088, 109.786 98.807 C 108.804 99.525, 108 100.749, 108 101.527 C 108 102.304, 106.704 103.898, 105.120 105.070 C 103.264 106.441, 102.405 107.833, 102.705 108.979 C 103.135 110.623, 98.405 118.375, 93.776 123.613 C 92.749 124.775, 92.042 126.350, 92.204 127.113 C 92.367 127.876, 92.015 128.413, 91.422 128.307 C 90.128 128.076, 90.640 137.768, 92.199 143 C 93.952 148.880, 97.196 156, 98.123 156 C 99.498 156, 99.185 154.914, 95.987 148.609 C 90.957 138.689, 92.288 127.389, 99.497 118.822 C 100.873 117.185, 102 115.292, 102 114.614 C 102 112.540, 114.484 97.672, 116.902 96.866 C 117.645 96.618, 118.309 95.462, 118.377 94.297 C 118.526 91.732, 123.336 87.725, 125.716 88.184 C 130.068 89.022, 136.124 103.061, 136.780 113.834 C 137.276 121.974, 135.541 132.845, 133.488 134.456 C 132.201 135.467, 129.682 143, 130.632 143 C 130.890 143, 131.803 141.323, 132.659 139.273 C 133.516 137.222, 135.458 133.735, 136.974 131.523 C 138.490 129.310, 140.916 125.154, 142.364 122.286 C 146.401 114.293, 151 113.217, 151 120.266 C 151 121.842, 151.473 124.016, 152.052 125.096 C 152.922 126.722, 152.486 127.783, 149.524 131.243 C 143.204 138.626, 136.746 156.076, 137.955 162.500 C 138.824 167.115, 140.542 165.085, 140.168 159.886 C 139.948 156.823, 140.688 152.790, 142.370 147.886 C 144.559 141.508, 145.743 139.721, 151.049 134.787 C 158.104 128.227, 160.781 126.980, 162.567 129.423 C 165.867 133.935, 164.836 145.614, 160.378 154.237 C 158.837 157.216, 159.122 157.540, 161.949 156.027 C 162.955 155.489, 164.074 153.367, 164.453 151.277 C 164.831 149.200, 166.231 145.904, 167.565 143.953 L 169.991 140.405 167.996 136.491 C 165.409 131.418, 165.480 130.194, 168.439 128.846 C 170.385 127.959, 171.193 128.050, 172.439 129.296 C 173.297 130.155, 174.007 131.452, 174.015 132.179 C 174.023 132.905, 174.657 135.300, 175.422 137.500 L 176.815 141.500 178.041 138.809 C 179.096 136.493, 178.970 135.614, 177.134 132.502 C 175.960 130.513, 174.490 126.861, 173.867 124.387 C 173.097 121.327, 172.307 120.052, 171.399 120.400 C 170.665 120.682, 169.798 120.482, 169.473 119.956 C 168.532 118.433, 167.550 118.834, 166.487 121.174 C 165.234 123.935, 155.085 129.554, 154.606 127.753 C 154.422 127.064, 153.695 124.475, 152.990 122 C 152.285 119.525, 151.671 115.658, 151.626 113.407 C 151.562 110.236, 151.265 109.560, 150.307 110.407 C 144.868 115.213, 144.224 114.920, 145.733 108.323 C 146.982 102.866, 146.513 101, 143.893 101 C 142.852 101, 142.053 100.662, 142.118 100.250 C 142.458 98.098, 141.818 97, 140.223 97 C 136.192 97, 131.226 90.247, 129.815 82.847 C 129.561 81.517, 128.736 81.858, 125.583 84.597 M 234.577 97.217 C 233.772 99.023, 235.278 105.093, 236.123 103.451 C 236.393 102.928, 236.327 100.925, 235.978 99 C 235.488 96.304, 235.166 95.894, 234.577 97.217 M 247.213 97.983 C 247.690 99.583, 243.403 102.367, 241.896 101.436 C 240.865 100.799, 240.730 102.133, 241.597 104.393 C 242.110 105.728, 242.393 105.750, 243.597 104.546 C 244.369 103.774, 245.010 102.548, 245.022 101.821 C 245.034 101.095, 245.870 101.574, 246.880 102.887 L 248.715 105.273 249.193 102.772 C 249.456 101.396, 249.018 99.422, 248.221 98.385 C 247.322 97.217, 246.939 97.064, 247.213 97.983 M 180 100.500 C 179.293 101.352, 178.940 102.273, 179.215 102.548 C 179.490 102.823, 180.293 102.352, 181 101.500 C 181.707 100.648, 182.060 99.727, 181.785 99.452 C 181.510 99.177, 180.707 99.648, 180 100.500 M 163.997 103.750 C 165.305 105.537, 166.532 107, 166.723 107 C 167.483 107, 165.003 103.249, 163.363 101.918 C 162.283 101.040, 162.525 101.739, 163.997 103.750 M 177.212 106.434 C 175.464 110.270, 175.729 112.042, 177.534 108.583 C 178.370 106.978, 178.913 105.240, 178.740 104.719 C 178.566 104.199, 177.879 104.970, 177.212 106.434 M 189.250 109.956 C 186.754 114.326, 186.577 115, 187.918 115 C 188.991 115, 193 108.792, 193 107.132 C 193 104.918, 191.468 106.072, 189.250 109.956 M 220.556 112.568 C 216.259 115.500, 212.109 119.935, 214.657 118.873 C 218.162 117.411, 227.855 110.574, 227.420 109.871 C 226.635 108.600, 226.012 108.845, 220.556 112.568 M 234.336 120.567 C 234.005 121.429, 234.244 122.644, 234.867 123.267 C 235.711 124.111, 236 123.711, 236 121.700 C 236 118.691, 235.251 118.182, 234.336 120.567 M 230.500 122 C 230.160 122.550, 230.332 123, 230.882 123 C 231.432 123, 232.160 122.550, 232.500 122 C 232.840 121.450, 232.668 121, 232.118 121 C 231.568 121, 230.840 121.450, 230.500 122 M 173.941 147.250 C 173.320 148.488, 171.700 150.440, 170.342 151.588 L 167.873 153.677 176.186 153.263 C 187.141 152.718, 187.560 152.512, 180.664 151.055 C 175.213 149.904, 174.868 149.663, 175.433 147.411 C 176.194 144.379, 175.424 144.296, 173.941 147.250 M 128.079 147.583 C 128.127 148.748, 128.364 148.985, 128.683 148.188 C 128.972 147.466, 128.936 146.603, 128.604 146.271 C 128.272 145.939, 128.036 146.529, 128.079 147.583 M 126.620 154.390 C 126.188 157.080, 126.221 159.555, 126.692 159.890 C 127.163 160.226, 128.662 162.637, 130.023 165.250 C 131.383 167.863, 132.808 170, 133.189 170 C 134.460 170, 135.271 167.786, 134.237 167.138 C 132.413 165.995, 128.593 157.678, 127.991 153.539 L 127.404 149.500 126.620 154.390 M 208 158.371 C 208 159.752, 208.481 161.179, 209.068 161.542 C 209.656 161.905, 209.876 162.882, 209.557 163.712 C 209.154 164.763, 209.437 165.046, 210.489 164.643 C 212.195 163.988, 212.402 164.817, 211.061 166.936 C 210.354 168.053, 209.838 168.110, 208.734 167.194 C 207.954 166.547, 207.020 166.313, 206.658 166.675 C 206.296 167.037, 206 166.119, 206 164.635 C 206 161.869, 203.965 160.286, 201.983 161.511 C 201.218 161.983, 201.409 162.795, 202.595 164.105 C 203.545 165.154, 203.962 166.347, 203.524 166.756 C 203.085 167.165, 202.534 166.963, 202.298 166.306 C 202.063 165.650, 201.225 165.360, 200.435 165.663 C 199.569 165.996, 199 165.600, 199 164.664 C 199 163.622, 198.303 163.249, 196.873 163.525 C 195.703 163.750, 193.903 163.483, 192.873 162.932 C 191.453 162.172, 191 162.272, 191 163.342 C 191 165.007, 193.780 167.554, 194.648 166.685 C 195.429 165.904, 198.960 170.255, 198.349 171.245 C 197.456 172.688, 194 172.011, 194 170.393 C 194 169.338, 193.456 168.995, 192.418 169.393 C 191.548 169.727, 190.368 170, 189.796 170 C 189.152 170, 189.216 170.555, 189.964 171.456 C 191.570 173.391, 190.318 175.236, 187.916 174.473 C 186.584 174.051, 186 174.343, 186 175.433 C 186 177.133, 188.022 177.529, 189.550 176.129 C 191.539 174.306, 196.021 173.892, 196.629 175.475 C 196.951 176.314, 197.756 177, 198.419 177 C 199.082 177, 201.609 177.959, 204.036 179.131 C 209.418 181.732, 217 182.504, 217 180.451 C 217 179.662, 217.614 179.298, 218.422 179.608 C 219.204 179.908, 220.808 179.638, 221.986 179.007 C 223.737 178.070, 223.905 177.590, 222.903 176.383 C 221.976 175.266, 221.494 175.201, 220.929 176.115 C 220.368 177.023, 219.785 176.928, 218.591 175.734 C 216.295 173.438, 216.634 171.309, 219.407 170.613 C 221.234 170.154, 221.686 169.515, 221.280 167.963 C 220.986 166.838, 220.240 166.100, 219.623 166.322 C 219.005 166.544, 217.290 166.115, 215.811 165.369 C 213.728 164.317, 213.051 163.165, 212.811 160.256 C 212.561 157.238, 212.058 156.437, 210.250 156.180 C 208.429 155.922, 208 156.340, 208 158.371 M 97.705 160.849 C 96.260 161.420, 96.817 161.998, 100.564 163.819 L 105.219 166.080 102.859 163.095 C 100.273 159.823, 100.287 159.830, 97.705 160.849 M 234.500 161 C 234.840 161.550, 235.316 162, 235.559 162 C 235.802 162, 236 161.550, 236 161 C 236 160.450, 235.523 160, 234.941 160 C 234.359 160, 234.160 160.450, 234.500 161 M 152.500 165 C 152.840 165.550, 153.766 166, 154.559 166 C 155.352 166, 156 165.550, 156 165 C 156 164.450, 155.073 164, 153.941 164 C 152.809 164, 152.160 164.450, 152.500 165 M 199 181.800 C 199 182.240, 199.540 183.140, 200.200 183.800 C 201.963 185.563, 203 185.267, 203 183 C 203 181.667, 202.333 181, 201 181 C 199.900 181, 199 181.360, 199 181.800 M 72.500 184 C 72.160 184.550, 72.809 185, 73.941 185 C 75.073 185, 76 184.550, 76 184 C 76 183.450, 75.352 183, 74.559 183 C 73.766 183, 72.840 183.450, 72.500 184 M 150.731 185.080 C 151.085 186.432, 151.538 186.886, 151.788 186.137 C 152.028 185.415, 151.750 184.350, 151.168 183.768 C 150.426 183.026, 150.296 183.417, 150.731 185.080 M 209.588 183.858 C 209.321 184.290, 209.964 185.381, 211.017 186.282 C 212.069 187.184, 213.100 187.601, 213.307 187.211 C 213.839 186.205, 210.177 182.904, 209.588 183.858 M 64.601 184.837 C 64.316 185.297, 64.754 186.631, 65.573 187.801 C 66.848 189.622, 67.419 189.766, 69.532 188.804 C 72.808 187.311, 72.644 186.420, 68.851 185.098 C 65.079 183.783, 65.246 183.793, 64.601 184.837 M 150 188.882 C 150 189.432, 150.450 190.160, 151 190.500 C 151.550 190.840, 152 190.668, 152 190.118 C 152 189.568, 151.550 188.840, 151 188.500 C 150.450 188.160, 150 188.332, 150 188.882 M 152.210 194.766 C 152.425 196.049, 151.850 196.470, 150 196.383 C 147.433 196.263, 145.721 197.739, 146.661 199.261 C 146.952 199.732, 148.516 199.826, 150.136 199.470 C 152.074 199.044, 153.904 199.363, 155.488 200.401 C 157.091 201.450, 158.114 201.624, 158.549 200.921 C 158.908 200.339, 159.895 200.129, 160.741 200.454 C 161.642 200.800, 162.841 200.244, 163.633 199.114 C 164.547 197.809, 165.716 197.356, 167.243 197.717 C 169.469 198.243, 169.472 198.228, 167.500 196.657 C 166.400 195.781, 164.938 195.049, 164.250 195.032 C 163.563 195.014, 163 194.550, 163 194 C 163 193.450, 162.325 193, 161.500 193 C 160.667 193, 160 193.889, 160 195 C 160 197.355, 156.254 197.824, 155.391 195.577 C 154.546 193.374, 151.862 192.690, 152.210 194.766 " stroke="none" fill="white" fill-rule="evenodd" transform="scale(0.11952191235059761) translate(-10.5 0)"></path>
    </g>
</svg>