<svg width="60" height="60" viewBox="0 0 60 60" xmlns="http://www.w3.org/2000/svg">
    <rect fill="transparent" x="0" y="0" width="60" height="60" rx="4.8"></rect>

    <g width="30" height="30" viewBox="0 0 30 30" transform="translate(15, 15)" fill="#FFFFFF">
        <path d="M 217.410 32.369 C 205.088 35.045, 200.084 38.070, 196.494 45.012 C 193.123 51.531, 193.511 55.307, 199.779 77 C 203.037 88.275, 205.990 98.400, 206.340 99.500 C 206.966 101.469, 206.506 101.501, 176.238 101.569 C 144.077 101.640, 129.665 102.838, 111.119 106.978 C 71.225 115.884, 47.949 133.914, 42.352 160.248 C 40.022 171.212, 41.107 180.099, 47.059 198.783 C 59.046 236.410, 66.679 280.222, 70.148 331.317 L 71.416 350 184.129 350 L 296.841 350 297.371 347.250 C 300.437 331.326, 301.549 262.555, 299.170 236 C 294.642 185.452, 286.548 145.711, 270.963 97.500 C 267.763 87.600, 262.577 71.400, 259.439 61.500 C 253.023 41.258, 252.106 39.127, 248.241 35.473 C 241.889 29.467, 234.292 28.702, 217.410 32.369 M 223.314 154.950 C 219.154 157.486, 217.999 159.821, 218.004 165.684 C 218.012 176.884, 228.772 184.324, 236.970 178.799 C 245.937 172.756, 243.852 158.761, 233.329 154.364 C 228.957 152.537, 227.092 152.647, 223.314 154.950 M 99.030 181.279 C 92.957 184.352, 90.337 193.136, 93.362 200.282 C 97.460 209.963, 109.686 210.309, 114.562 200.881 C 116.697 196.752, 116.110 188.366, 113.433 184.749 C 110.016 180.131, 104.111 178.708, 99.030 181.279 M 243.958 220.609 C 237.886 226.887, 223.077 238.303, 215.624 242.452 C 188.865 257.346, 155.209 260.106, 123.644 249.995 C 118.501 248.348, 113.338 247, 112.170 247 C 109.404 247, 106.618 251.222, 107.516 254.052 C 109.673 260.847, 146.480 269.047, 168 267.526 C 199.712 265.285, 225.422 253.948, 248.250 232.139 C 254.885 225.800, 256 224.255, 256 221.403 C 256 219.132, 255.384 217.741, 254.066 217.035 C 250.599 215.180, 248.488 215.926, 243.958 220.609 " stroke="none" fill="white" fill-rule="evenodd" transform="scale(0.08571428571428572) translate(0 0)"></path>
    </g>
</svg>