<svg xmlns="http://www.w3.org/2000/svg" width="360" height="360" viewBox="0 0 360 360">
  <g fill="#FFF" fill-rule="evenodd" transform="translate(74 66)">
    <path d="M188.067233,22.8257924 C182.512833,17.6034329 160.062323,0.95078481 110.059364,0.724683544 C110.059364,0.724683544 51.098389,-2.91206835 22.3540932,24.0357241 C6.35535342,40.3880633 0.726027397,64.307838 0.13010411,93.9833392 C-0.458849315,123.658261 -1.23308493,179.249605 51.2151342,194.32998 L51.2627616,194.343314 L51.235463,217.347089 C51.235463,217.347089 50.9067178,226.66478 56.8996384,228.558233 C64.1593315,230.861567 68.4190795,223.779959 75.3500274,216.150491 C79.1578959,211.967038 84.4038795,205.814185 88.3627616,201.111278 C124.236647,204.181038 151.823364,197.139433 154.953414,196.100527 C162.199167,193.694577 203.182542,188.334818 209.846312,132.743473 C216.722663,75.4227443 206.511233,39.1781316 188.067233,22.8257924 M194.265184,128.600603 C188.628888,175.02499 155.398323,177.957349 149.275879,179.966752 C146.666247,180.821299 122.428548,186.981109 91.9650192,184.943878 L58.9406466,221.476046 L58.9063781,179.378889 L58.6461699,179.311058 C14.2795068,166.718957 15.7728,119.508433 16.2723068,94.7277342 C16.7723945,69.9470354 21.3272,49.6437215 34.8667397,35.9924228 C59.1735562,13.4878101 109.258411,16.8515013 109.258411,16.8515013 C151.556186,17.0428177 171.828614,30.051757 176.526882,34.4131924 C192.12834,48.0720278 200.079792,80.7413418 194.265184,128.600603"/>
    <path d="M156.077304 135.525678C156.056395 135.505387 149.351967 129.7972 146.077874 127.336175 142.989063 125.018927 138.064855 121.901628 135.311759 120.315441 130.373611 117.505987 125.326268 119.269577 123.244022 122.031491L118.915737 127.589524C116.696997 130.405934 113.279441 129.93402 112.382071 129.749661 105.985479 128.149559 99.1846356 124.157423 92.2258082 117.43062 85.1856658 110.642944 80.925337 103.5538 79.405326 96.184638L79.2955507 95.6988101C78.8843288 92.6702127 79.3913863 91.2689646 80.6308603 89.2050658L80.8637699 89.0131696C83.7882082 86.2993747 89.2061151 82.9977165 89.9315616 79.8525899 92.0614356 74.3907949 82.8159123 63.0022481 81.4939616 60.9922658 81.4939616 60.9922658 74.7686247 52.1053266 72.3785425 50.4095671 69.7962082 48.2633443 65.7966685 47.0394987 61.7628603 49.514438L61.5572493 49.6645924C49.9692712 57.4917544 45.7710904 61.9900101 46.9147288 68.7034785L47.5106521 71.4033595C53.3868274 89.8949646 64.734926 109.610415 81.6583342 127.165729 98.3964603 144.501899 116.504745 154.885744 134.352822 162.077504 138.989523 163.615572 143.796986 162.289111 148.728164 158.085367L148.810641 158.023334C152.591211 154.496154 155.584186 150.722582 157.816866 146.682327L157.837195 146.600582C160.008307 142.327848 159.27589 138.280635 156.077304 135.525678M128.293107 95.032681C127.587408 95.032681 126.998455 94.4656886 126.964186 93.7410051 126.731277 88.9488177 125.437205 85.2778608 123.115079 82.8237924 120.807474 80.3900152 117.348679 79.0299291 112.842082 78.7835367 112.109085 78.7423747 111.541041 78.1000152 111.582279 77.3480835 111.622937 76.5961519 112.246159 76.0222025 112.986126 76.0564076 118.190871 76.3433823 122.238619 77.9840658 125.032953 80.9303392 127.813348 83.8696557 129.361238 88.1284759 129.628416 93.6041848 129.662685 94.3561165 129.09406 94.9920987 128.361644 95.032681L128.293107 95.032681"/>
    <path d="M141.497512,99.5564456 L141.463244,99.5564456 C140.730247,99.5355747 140.148263,98.9135063 140.162203,98.1615747 C140.367233,88.9604127 137.675704,81.1807899 132.155573,75.0285165 C129.409447,71.958757 126.073786,69.5325165 122.231649,67.8164658 C118.383123,66.1004152 113.896855,65.0412177 108.911079,64.664962 C108.178082,64.6098861 107.623397,63.9541924 107.677995,63.2092177 C107.733173,62.4572861 108.369753,61.8897139 109.102751,61.9442101 C119.745732,62.7442608 128.163003,66.5242101 134.128044,73.1895595 C140.120964,79.8688228 143.052373,88.2971823 142.832822,98.2236076 C142.812493,98.9680025 142.21657,99.5564456 141.497512,99.5564456"/>
    <path d="M155.018466,104.959686 C154.285468,104.959686 153.690126,104.358489 153.683156,103.605977 C153.621589,95.4715494 152.395474,88.1151418 150.025721,81.7309696 C147.669326,75.393757 144.115277,69.8223899 139.458247,65.1739797 C134.794247,60.5319468 129.493085,56.9908532 123.698805,54.6457772 C117.891167,52.2943241 111.419068,51.0774354 104.460822,51.0298962 C103.727825,51.0229392 103.131901,50.4078278 103.138811,49.6558962 C103.145841,48.9039646 103.741764,48.3021873 104.474762,48.3021873 L104.481151,48.3021873 C119.089984,48.4117595 131.478915,53.4294684 141.320942,63.2254506 C146.25851,68.1475013 150.025721,74.0470051 152.518608,80.7668506 C154.997556,87.4455342 156.285819,95.1294987 156.353836,103.585686 C156.360745,104.337618 155.764822,104.952729 155.032405,104.959686 L155.018466,104.959686"/>
  </g>
</svg>
