<svg xmlns="http://www.w3.org/2000/svg" width="360" height="360" viewBox="0 0 360 360">
  <path fill="#FFF" fill-rule="evenodd" d="M157.641141,8.2196139 C154.062778,10.0165251 153.560781,16.1089575 156.804144,18.3756757 C159.866426,20.5169112 162.253679,20.3934363 164.683183,17.969112 C167.490946,15.1673359 167.23039,11.5072587 164.044369,9.00764479 C160.946877,6.57629344 160.919715,6.57227799 157.641141,8.2196139 M18.4793243,18.6507336 L7.58226727,29.3237838 L12.1787087,33.9104247 L16.7751502,38.4970656 L21.8182583,33.5410039 L26.8603604,28.5849421 L26.8603604,49.3779151 L26.8603604,70.1698842 L34.9084084,70.1698842 L42.9564565,70.1698842 L42.9564565,39.0501931 L42.9564565,7.93050193 L36.1659159,7.95459459 L29.3753754,7.97868726 L18.4793243,18.6507336 M49.9984985,26.3423166 L49.9984985,44.7541313 L55.4269069,45.9657915 C60.3643844,47.0690347 61.1601351,46.9927413 64.2294595,45.1255598 C68.3641441,42.610888 76.6908559,42.3468726 79.9543393,44.6286486 C82.6091892,46.4837838 82.9562613,51.1928958 80.6112613,53.5328958 C77.0771622,57.0594595 68.0864865,56.8737452 60.8794595,53.1253282 L56.5626877,50.880695 L53.1925676,54.7525869 C47.6645646,61.1050193 47.5438438,61.7083398 51.24997,64.4589189 C63.4196246,73.4916602 85.4451201,72.5088803 94.2154805,62.5415444 C102.902342,52.6685714 99.8772823,36.9501158 88.1402102,30.9751351 C83.1021321,28.4102703 74.8015766,28.3811583 69.8278829,30.910888 L66.0945946,32.8101931 L66.0945946,27.3973745 L66.0945946,21.984556 L80.6816817,21.984556 L95.2687688,21.984556 L95.2687688,14.957529 L95.2687688,7.93050193 L72.6336336,7.93050193 L49.9984985,7.93050193 L49.9984985,26.3423166 M107.578258,38.7992278 L107.843844,69.6679537 L113.125375,69.9711197 L118.406907,70.2752896 L118.406907,56.6699614 L118.406907,43.0656371 L134,43.0656371 L149.593093,43.0656371 L149.593093,38.046332 L149.593093,33.027027 L134,33.027027 L118.406907,33.027027 L118.406907,25.523166 L118.406907,18.0203089 L134.251502,17.7432432 L150.096096,17.4671815 L150.402928,12.6988417 L150.70976,7.93050193 L129.01021,7.93050193 L107.311667,7.93050193 L107.578258,38.7992278 M227.260781,26.1284942 C214.493559,32.434749 210.742162,51.9508108 220.224775,62.7272587 C225.201486,68.3830116 230.388453,70.5573745 238.823814,70.5242471 C244.511772,70.5011583 247.101231,69.9620849 250.893874,68.0155985 C256.372583,65.2017761 257.039565,63.6477992 254.211682,60.2868726 L252.230856,57.9318147 L247.876862,60.0359073 C240.148724,63.7682625 231.397477,62.3227027 227.707447,56.7040927 C224.173348,51.32139 224.568709,51.1688031 242.90015,50.8696525 L259.750751,50.5945946 L259.472087,46.0772201 C259.319174,43.5926641 258.699474,40.032973 258.093859,38.1657915 C256.669354,33.7738996 250.583018,27.069112 246.453363,25.3444788 C241.45955,23.2584556 232.314955,23.6318919 227.260781,26.1284942 M155.629129,47.6382239 L155.629129,70.2803089 L160.407658,69.9741313 L165.186186,69.6679537 L165.456802,47.3320463 L165.727417,24.996139 L160.678273,24.996139 L155.629129,24.996139 L155.629129,47.6382239 M170.140766,26.7528958 C170.451622,27.7196139 174.501802,37.7702703 179.142508,49.0888031 L187.580886,69.6679537 L192.928814,69.6679537 L198.275736,69.6679537 L207.132613,48.1712741 C212.003694,36.3477992 215.989489,26.2730502 215.989489,25.783166 C215.989489,25.292278 213.619339,25.0272587 210.723048,25.1949035 L205.456607,25.4980695 L199.499039,40.8069498 C196.222477,49.226332 193.23967,56.1158301 192.871471,56.1158301 C192.503273,56.1158301 189.518453,49.1149035 186.238874,40.5579923 L180.276276,25.0001544 L174.927342,24.9981467 C170.287643,24.996139 169.652853,25.2290347 170.140766,26.7528958 M232.588589,32.91861 C229.912613,34.0830888 227.432808,36.927027 226.144114,40.307027 L225.093844,43.0656371 L237.503934,43.0656371 L249.91503,43.0656371 L249.451261,40.6483398 C248.679655,36.6208494 243.862898,32.846332 238.952583,32.420695 C236.559294,32.2128958 233.695195,32.4367568 232.588589,32.91861" transform="translate(46 141)"/>
</svg>
