<svg width="60" height="60" viewBox="0 0 60 60" xmlns="http://www.w3.org/2000/svg">
    <rect fill="transparent" x="0" y="0" width="60" height="60" rx="4.8"></rect>

    <g width="30" height="30" viewBox="0 0 30 30" transform="translate(15, 15)" fill="#FFFFFF">
        <path d="M 47 100 L 47 146.163 50.250 144.209 C 52.038 143.134, 57.876 139.702, 63.225 136.584 L 72.950 130.913 73.225 115.437 L 73.500 99.962 86.305 107.481 C 93.348 111.616, 99.510 115, 100 115 C 100.490 115, 106.652 111.616, 113.695 107.480 L 126.500 99.960 127 115.682 L 127.500 131.405 140 138.582 L 152.500 145.758 152.768 122.879 C 152.916 110.296, 152.916 89.703, 152.768 77.118 L 152.500 54.236 139.500 61.762 C 132.350 65.902, 120.780 72.599, 113.789 76.644 C 106.798 80.690, 100.593 84, 100 84 C 99.407 84, 93.202 80.691, 86.211 76.647 C 79.220 72.604, 69 66.697, 63.500 63.523 C 58 60.348, 52.038 56.870, 50.250 55.794 L 47 53.837 47 100 " stroke="none" fill="white" fill-rule="evenodd" transform="scale(0.15) translate(0 0)"></path>
    </g>
</svg>