<svg xmlns="http://www.w3.org/2000/svg" width="60" height="60" viewBox="0 0 60 60">
  <path fill="#FFFFFF" d="M11.7691667,20.25 C12.5891667,20.7558333 13.5358333,21.0733333 14.5516667,21.1466667 L14.5516667,29.9925 C11.5966667,29.9058333 8.85666667,28.965 6.56916667,27.4075 L11.7691667,20.25 Z M14.5275,8.855 C13.5133333,8.9325 12.5675,9.25333333 11.7491667,9.7625 L6.55,2.60583333 C8.835,1.045 11.5733333,0.1 14.5275,0.00833333333 L14.5275,8.855 Z M23.43,2.5925 L18.23,9.75 C17.41,9.24416667 16.4633333,8.92666667 15.4483333,8.85333333 L15.4483333,0.0075 C18.4025,0.0941666667 21.1433333,1.03583333 23.43,2.5925 Z M9.29916667,17.3491667 C9.67916667,18.2683333 10.275,19.0766667 11.0233333,19.7091667 L5.82333333,26.8658333 C3.59,25.1366667 1.85916667,22.7908333 0.883333333,20.0833333 L9.29916667,17.3491667 Z M11.0058333,10.3058333 C10.26,10.9416667 9.6675,11.7516667 9.29083333,12.6725 L0.875833333,9.93833333 C1.84666667,7.22916667 3.575,4.88083333 5.805,3.14833333 L11.0058333,10.3058333 Z M8.835,15 C8.835,15.5075 8.89833333,16.0008333 9.01416667,16.4733333 L0.599166667,19.2075 C0.209166667,17.8725 0,16.4608333 0,15 C0,13.5475 0.2075,12.1441667 0.591666667,10.815 L9.00833333,13.55 C8.89583333,14.015 8.835,14.5 8.835,15 Z M18.9941667,19.6941667 C19.74,19.0583333 20.3325,18.2483333 20.7091667,17.3266667 L29.1241667,20.0608333 C28.1533333,22.77 26.4258333,25.1183333 24.195,26.8516667 L18.9941667,19.6941667 Z M15.4725,21.145 C16.4866667,21.0683333 17.4333333,20.7466667 18.25,20.2366667 L23.45,27.3933333 C21.165,28.955 18.4266667,29.9 15.4725,29.9916667 L15.4725,21.145 Z M29.4008333,10.7925 C29.7908333,12.1275 30,13.5391667 30,15 C30,16.4525 29.7925,17.8566667 29.4075,19.185 L20.9916667,16.45 C21.1033333,15.985 21.1641667,15.4991667 21.1641667,15 C21.1641667,14.4916667 21.1025,13.9983333 20.9858333,13.5266667 L29.4008333,10.7925 Z M20.7,12.6508333 C20.3208333,11.7316667 19.725,10.9233333 18.9766667,10.2908333 L24.1758333,3.13416667 C26.4091667,4.86416667 28.1408333,7.20916667 29.1158333,9.91666667 L20.7,12.6508333 Z" transform="translate(15 15)"/>
</svg>
