<svg width="60" height="60" viewBox="0 0 60 60" xmlns="http://www.w3.org/2000/svg">
    <rect fill="transparent" x="0" y="0" width="60" height="60" rx="4.8"></rect>

    <g width="30" height="30" viewBox="0 0 30 30" transform="translate(15, 15)" fill="#FFFFFF">
        <path d="M 178.388 62.985 C 170.835 64.052, 165.203 65.465, 157.750 68.163 L 152 70.244 152 82.570 L 152 94.896 141.792 89.024 C 134.201 84.657, 131.154 83.382, 129.903 84.052 C 127.305 85.442, 116.420 97.661, 112.448 103.644 C 100.354 121.865, 94.993 143.296, 97.102 164.995 C 100.871 203.774, 127.137 234.825, 165.777 246.180 C 172.444 248.139, 175.757 248.448, 190 248.437 C 202.698 248.427, 207.883 248.022, 212.500 246.680 C 221.073 244.190, 230.445 240.191, 238.322 235.665 C 242.074 233.508, 245.492 232.139, 245.917 232.622 C 246.688 233.498, 249.656 238.632, 270.132 274.500 C 276.097 284.950, 281.413 294.175, 281.944 295 C 285.332 300.260, 288.789 306.897, 289.363 309.242 C 290.184 312.597, 287.920 318.413, 284.770 321.040 C 281.413 323.840, 273.321 323.680, 269.829 320.745 C 267.673 318.933, 243.566 278.552, 230.828 255.414 L 228.028 250.329 221.514 252.360 C 217.931 253.477, 215 254.835, 215 255.377 C 215 255.919, 217.775 261.118, 221.167 266.931 C 224.558 272.744, 229.679 281.550, 232.546 286.500 C 259.684 333.359, 258.452 331.658, 268.480 336.094 C 272.452 337.851, 274.454 338.133, 279.340 337.622 C 295.193 335.965, 306.315 321.293, 302.985 306.432 C 302.326 303.491, 297.809 294.452, 291.776 284.003 C 286.219 274.376, 280.022 263.575, 278.005 260 C 275.989 256.425, 271.715 249, 268.509 243.500 C 265.302 238, 259.980 228.775, 256.681 223 C 253.382 217.225, 250.539 212.322, 250.362 212.104 C 250.185 211.886, 248.119 213.476, 245.770 215.638 C 236.298 224.357, 221.411 232.301, 208.794 235.369 C 198.825 237.794, 179.592 237.578, 169.438 234.928 C 146.675 228.987, 127.233 213.065, 116.792 191.812 C 110.034 178.057, 108.660 171.988, 108.682 156 C 108.703 140.611, 110.020 134.410, 116.052 121.298 C 119.900 112.934, 123.113 107.958, 128.283 102.358 L 131.184 99.215 141.592 105.239 L 152 111.262 152 156.181 C 152 205.076, 152.094 205.945, 157.613 208.043 C 162.058 209.733, 163.813 209.136, 177.210 201.378 C 184.449 197.187, 191.976 192.858, 193.936 191.759 C 195.896 190.661, 201.550 187.388, 206.500 184.487 C 215.909 178.973, 216.365 178.711, 232.500 169.548 C 244.098 162.961, 246.717 160.673, 247.575 156.377 C 248.562 151.436, 244.758 148.370, 220 134.150 C 207.625 127.042, 192.775 118.472, 187 115.106 L 176.500 108.986 176.203 116.149 C 176.040 120.089, 176.103 123.827, 176.345 124.456 C 176.586 125.085, 188.082 132.070, 201.892 139.978 C 215.701 147.886, 226.985 154.839, 226.967 155.428 C 226.949 156.018, 221.030 159.875, 213.813 164 C 206.596 168.125, 193.230 175.878, 184.110 181.230 C 168.857 190.181, 167.470 190.799, 166.789 188.958 C 166.382 187.857, 166.150 162.358, 166.274 132.294 L 166.500 77.631 171.500 76.186 C 179.015 74.015, 200.829 74.067, 208.879 76.275 C 225.109 80.727, 235.195 86.420, 246.479 97.500 C 260.909 111.669, 268.049 125.796, 270.815 145.650 C 272.233 155.826, 272.227 157.664, 270.746 166.683 C 269.854 172.118, 268.373 178.800, 267.456 181.533 C 265.539 187.244, 259.450 199.784, 257.519 202 C 256.423 203.257, 256.698 204.355, 259.218 208.779 C 262.702 214.894, 263.164 214.775, 268.545 206.362 C 276.471 193.971, 280.906 180.976, 283.081 163.762 C 285.431 145.171, 278.895 120.568, 266.889 102.809 C 248.148 75.087, 211.011 58.376, 178.388 62.985 " stroke="none" fill="white" fill-rule="evenodd" transform="scale(0.075) translate(0 0)"></path>
    </g>
</svg>