<svg xmlns="http://www.w3.org/2000/svg" width="360" height="360" viewBox="0 0 360 360">
  <path fill="#FFF" fill-rule="evenodd" d="M278.778708,198.931884 C284.694537,194.547074 288.290768,187.271242 288.171084,179.921573 C288.148287,172.867254 284.711635,165.93221 279.109264,161.626917 C274.065422,157.651053 267.317501,155.941431 260.979927,157.026274 C254.157915,158.133836 247.98562,162.473208 244.583163,168.459724 C240.84445,174.866545 240.445502,183.062506 243.545898,189.810115 C246.338534,196.074941 252.032092,200.993653 258.688825,202.765753 C265.505137,204.674168 273.15924,203.208778 278.778708,198.931884 Z M288.58713,165.040481 C292.491121,171.231469 293.813349,178.921927 292.519617,186.095522 C291.123299,193.564467 286.05096,199.869052 279.929958,204.168665 C275.279363,207.457273 269.55161,209.240732 263.835255,208.973781 C259.469623,208.860185 255.246474,207.582229 251.188602,206.060041 C240.958435,202.419285 230.141244,200.448392 219.295558,199.90881 C210.074159,199.852012 200.847061,199.93153 191.625663,199.874732 C199.388051,195.904547 208.153509,194.609551 216.12677,191.201668 C217.454697,190.497372 219.210069,189.776036 219.529227,188.140252 C219.232866,186.646463 217.517389,186.004645 216.160966,185.87401 C212.923788,185.646817 209.732204,186.504468 206.694499,187.504114 C199.182878,190.065706 191.973317,193.382713 184.712463,196.546365 C174.214431,201.039092 162.86151,203.697241 151.423101,203.861956 C143.97987,203.861956 135.898323,202.998625 129.874208,198.221908 C140.201263,201.135649 151.286318,199.465786 161.168831,195.700074 C163.152172,194.876502 165.334988,194.285802 166.964976,192.820412 C167.540601,192.451225 167.580495,191.570855 167.033367,191.161909 C165.728237,190.054347 163.984264,189.571563 162.291585,189.526125 C160.519115,189.565884 158.94612,190.486012 157.299035,191.014234 C147.707185,194.342601 136.867197,194.444837 127.491919,190.355377 C123.268769,188.708233 119.712432,185.754734 115.472185,184.130309 C109.151708,181.580076 102.221411,180.858741 95.4392947,181.148411 C90.0933912,181.443761 84.7588862,182.04014 79.418682,182.420687 C75.2411263,182.681959 70.9780817,182.420687 67,181.046174 C70.3910582,179.842055 73.8733045,178.956006 77.3042575,177.899562 C88.6913739,174.684792 100.112686,171.288267 111.910149,169.998951 C118.692265,169.294656 125.736547,169.294656 132.256498,171.51546 C129.748825,169.237857 127.235452,166.971615 124.779072,164.642894 C133.538831,165.881092 141.324016,170.282942 149.337172,173.724904 C166.355155,181.858387 185.641442,183.789521 204.289413,182.886432 C206.973763,182.619481 209.931678,182.687638 212.274072,181.154091 C214.3657,179.762538 214.855836,175.525403 212.023305,174.707511 C208.30169,173.55451 204.329307,174.094092 200.516504,174.366722 C189.733509,175.61628 178.933416,177.496296 168.036436,176.962394 C161.852742,176.655684 155.788732,174.42352 150.881671,170.657809 C146.943484,167.812226 143.204771,164.654254 138.856238,162.43913 C130.415638,158.02592 120.943472,156.066387 111.533998,155.072421 C118.675167,153.198085 126.232383,152.828898 133.476139,154.299967 C149.35427,157.281866 162.71333,167.675911 178.665551,170.453336 C185.008825,171.532499 191.574369,171.259868 197.815056,169.675203 C195.843113,168.334768 193.495019,167.789507 191.272309,167.034093 C181.714654,164.052194 172.031616,161.501962 162.371374,158.883571 C171.262216,157.685132 180.244246,158.451906 189.083794,159.610586 C186.576121,158.258792 184.028552,156.969476 181.51518,155.617682 C190.024171,153.800144 199.188577,153.845583 207.287222,157.298905 C212.427952,159.372034 216.662501,163.00143 221.073726,166.23892 C222.384555,167.136329 223.809369,168.153014 225.484951,168.022379 C226.72169,168.039418 228.56255,167.556635 228.425768,165.966289 C228.271888,163.626209 226.10617,162.115381 223.946152,161.780272 C219.563423,160.780626 215.1294,159.002847 212.308268,155.333692 C217.984728,156.605969 223.917655,156.799082 229.634011,155.68584 C240.114945,154.163652 250.533188,152.221158 261.048318,151 L265.573528,151 C267.893126,151.272631 270.218423,151.613419 272.46393,152.294996 C279.240347,154.265889 284.854116,159.173241 288.58713,165.040481 Z M266.525304,165.006402 C265.704611,165.801575 264.969407,166.681945 264.308293,167.613433 C270.503386,168.845951 275.627018,174.099771 276.544599,180.353238 C277.279803,184.516536 276.043064,188.80479 273.672173,192.252432 C278.476647,188.20841 280.585372,181.244968 278.436752,175.286851 C276.721276,170.015991 271.939599,166.057166 266.525304,165.006402 Z M260.427099,162.12674 C268.303472,160.059291 277.171517,163.984037 280.98432,171.129233 C283.52049,175.707157 283.999227,181.358564 282.260954,186.299995 C280.494184,191.474298 276.288132,195.762552 271.118906,197.59145 C267.118027,199.062519 262.604215,199.073879 258.597637,197.625528 C253.337222,195.796631 249.05708,191.411821 247.330205,186.135281 C245.797105,181.682313 246.070669,176.650004 248.031214,172.367431 C250.316616,167.318083 255.007105,163.404697 260.427099,162.12674 Z"/>
</svg>
