<svg width="60" height="60" viewBox="0 0 60 60" xmlns="http://www.w3.org/2000/svg">
    <rect fill="transparent" x="0" y="0" width="60" height="60" rx="4.8"></rect>

    <g width="30" height="30" viewBox="0 0 30 30" transform="translate(15, 15)" fill="#FFFFFF">
        <path d="M 370.500 75.124 C 319.801 79.934, 271.350 98.121, 238 124.862 C 229.494 131.683, 214.077 146.934, 208.042 154.500 C 195.776 169.875, 183.030 193.556, 177.093 212 C 166.614 244.552, 164.522 280.577, 171.118 314.848 C 178.132 351.286, 196.807 394.391, 222.523 433.500 C 232.897 449.278, 239.475 457.948, 265.423 490.049 C 278.115 505.751, 305.825 540.263, 327 566.743 L 365.500 614.888 401.143 614.944 L 436.787 615 487.143 552.253 C 514.840 517.742, 541.705 484.384, 546.845 478.125 C 591.711 423.482, 620.578 368.217, 630.990 317.033 C 634.410 300.220, 635.298 288.677, 634.719 268.557 C 634.134 248.231, 632.192 234.812, 627.462 218.434 C 604.474 138.835, 532.905 85.757, 434.778 75.534 C 418.948 73.884, 385.795 73.673, 370.500 75.124 M 346 249.624 C 322.684 254.140, 309.422 269.558, 308.249 293.511 C 307.407 310.720, 311.437 322.395, 321.510 331.921 C 335.160 344.831, 358.007 347.726, 377.655 339.035 C 382.727 336.791, 391.276 329.071, 394.739 323.606 C 398.649 317.437, 401.069 309.194, 401.695 299.916 C 403.232 277.145, 392.113 258.693, 372.866 252.072 C 366.602 249.917, 351.562 248.547, 346 249.624 M 414 296.500 L 414 344 428 344 L 442 344 442 323.500 C 442 312.225, 442.337 303.020, 442.750 303.043 C 443.163 303.067, 450.366 312.292, 458.758 323.543 L 474.017 344 490.627 344 L 507.237 344 504.780 340.750 C 503.428 338.962, 495.427 328.106, 486.999 316.625 C 472.941 297.474, 471.783 295.577, 472.980 293.660 C 474.005 292.020, 500.971 255.767, 505.271 250.250 C 506.041 249.261, 502.896 249, 490.236 249 L 474.228 249 458.364 270.184 L 442.500 291.367 442.230 270.184 L 441.960 249 427.980 249 L 414 249 414 296.500 M 535.739 253.250 C 533.871 255.588, 526.633 265.038, 519.653 274.250 L 506.962 291 523.231 290.960 L 539.500 290.921 554.500 270.817 C 562.750 259.760, 569.650 250.328, 569.833 249.857 C 570.017 249.385, 563.184 249, 554.650 249 L 539.134 249 535.739 253.250 M 269.500 255.576 C 256.300 258.521, 245.387 260.946, 245.250 260.965 C 245.113 260.984, 245 266.400, 245 273 C 245 281.937, 245.319 284.998, 246.250 284.993 C 246.938 284.989, 251.241 284.089, 255.813 282.993 C 260.386 281.897, 264.773 281, 265.563 281 C 266.782 281, 267 285.784, 267 312.500 L 267 344 282 344 L 297 344 297 297 C 297 252.863, 296.893 250.007, 295.250 250.110 C 294.288 250.171, 282.700 252.630, 269.500 255.576 M 347.316 272.943 C 339.423 276.527, 335.399 286.248, 336.208 299.782 C 337.027 313.496, 343.116 321.074, 353.848 321.735 C 361.962 322.234, 366.541 319.420, 370.498 311.500 C 373.123 306.245, 373.495 304.444, 373.493 297 C 373.490 286.942, 371.998 282.111, 367.281 276.889 C 361.935 270.972, 354.776 269.557, 347.316 272.943 M 356 662.849 C 356 663.897, 363.732 718.257, 364.521 722.750 L 365.091 726 401.377 726 L 437.663 726 441.909 695.750 C 444.244 679.112, 446.375 664.712, 446.645 663.750 C 447.106 662.102, 444.485 662, 401.567 662 C 376.505 662, 356 662.382, 356 662.849 " stroke="none" fill="white" fill-rule="evenodd" transform="scale(0.0375) translate(0 0)"></path>
    </g>
</svg>