<svg width="60" height="60" viewBox="0 0 60 60" xmlns="http://www.w3.org/2000/svg">
    <rect fill="transparent" x="0" y="0" width="60" height="60" rx="4.8"></rect>

    <g width="30" height="30" viewBox="0 0 30 30" transform="translate(15, 15)" fill="#FFFFFF">
        <path d="M 50.500 43.954 C 49.400 44.409, 47.375 45.992, 46 47.471 L 43.500 50.160 43.228 112.587 C 42.927 181.619, 42.703 179.019, 49.299 183.040 C 52.381 184.920, 54.762 184.993, 113.500 184.995 C 169.576 184.997, 174.783 184.856, 178 183.248 C 185.198 179.652, 184.997 181.643, 184.998 114.218 C 185 49.791, 185.011 49.942, 180.036 45.500 C 178.106 43.776, 176.119 43.458, 165.648 43.194 L 153.500 42.887 137.820 74.194 C 122.402 104.977, 116 118.707, 116 120.991 C 116 121.627, 115.273 122.001, 114.385 121.823 C 113.390 121.624, 111.334 117.858, 109.022 112 C 106.960 106.775, 103.898 99.350, 102.217 95.500 L 99.160 88.500 87.580 88.218 C 81.211 88.063, 76.025 88.288, 76.056 88.718 C 76.087 89.148, 81.850 102.550, 88.863 118.500 L 101.614 147.500 113.238 147.781 L 124.861 148.062 129.343 139.781 C 131.808 135.227, 140.619 118.007, 148.923 101.517 L 164.020 71.533 163.760 117.517 L 163.500 163.500 114 163.500 L 64.500 163.500 64.241 113.750 L 63.981 64 95.241 64 L 126.500 63.999 131.750 54.101 C 134.637 48.656, 137 43.931, 137 43.601 C 137 42.673, 52.766 43.017, 50.500 43.954 " stroke="none" fill="white" fill-rule="evenodd" transform="scale(0.13333333333333333) translate(0 0)"></path>
    </g>
</svg>