<svg width="60" height="60" viewBox="0 0 60 60" xmlns="http://www.w3.org/2000/svg">
    <rect fill="transparent" x="0" y="0" width="60" height="60" rx="4.8"></rect>

    <g width="30" height="30" viewBox="0 0 30 30" transform="translate(15, 15)" fill="#FFFFFF">
        <path d="M 63 21.647 C 44.385 24.938, 39.884 26.480, 37.861 30.260 C 36.693 32.443, 33.921 45.202, 34.485 45.801 C 34.641 45.966, 37.772 45.131, 41.444 43.944 C 45.116 42.758, 48.358 42.025, 48.648 42.315 C 48.939 42.605, 48.124 44.265, 46.838 46.004 C 44.508 49.153, 44.499 49.286, 44.213 83.582 C 44.023 106.252, 44.270 118, 44.934 118 C 47.561 118, 56.882 112.965, 58.822 110.499 C 60.702 108.109, 61 106.467, 61 98.494 L 61 89.258 65.718 90.140 C 68.638 90.685, 72.543 90.632, 75.968 89.999 C 90.935 87.234, 100 74.409, 100 56 C 100 40.806, 94.665 30.572, 84 25.308 C 77.574 22.136, 68.843 20.614, 63 21.647 M 62.250 38.609 C 61.326 39.021, 61 43.303, 61 55.027 C 61 70.282, 61.085 70.946, 63.223 72.443 C 64.445 73.299, 67.415 74, 69.823 74 C 73.441 74, 74.772 73.428, 77.497 70.703 C 84.680 63.520, 84.948 48.157, 78.007 41.507 C 75.523 39.127, 74.006 38.578, 69.251 38.339 C 66.088 38.181, 62.938 38.302, 62.250 38.609 " stroke="none" fill="white" fill-rule="evenodd" transform="scale(0.22556390977443608) translate(0 0)"></path>
    </g>
</svg>