<svg xmlns="http://www.w3.org/2000/svg" width="60" height="60" viewBox="0 0 60 60">
  <path fill="#FFFFFF" fill-rule="evenodd" d="M38.9082174,15.106698 L38.9082174,39.2642377 L35.196793,39.2642377 C35.1911622,39.1572717 35.1806043,39.0509511 35.1806043,38.9446304 C35.1800765,32.5531289 35.1793726,26.161466 35.1811322,19.7701258 C35.1813082,19.2288422 35.2515177,18.6983683 35.5951746,18.1948375 C34.2740398,18.5604257 32.97754,18.4140936 31.6840315,18.3329414 C30.3428369,18.2485625 29.0148396,18.2595333 27.7646182,18.7993648 C26.2458763,19.4548745 25.4343321,20.6114949 25.12534,22.0735251 C24.815996,23.5379753 24.9015143,24.9909706 25.5638413,26.374914 C26.3551497,28.0289344 27.7795751,28.893052 29.7146468,29.1034346 C31.1830631,29.2631576 32.5867248,29.0645526 33.9365416,28.5190743 C33.9842278,28.4998753 34.0400082,28.4977779 34.1170803,28.482935 C34.1170803,29.5229092 34.1227111,30.5469111 34.1063465,31.5705904 C34.1051148,31.6480318 33.9641679,31.7580632 33.8631648,31.7946866 C32.9731409,32.1163913 32.0412376,32.2835358 31.0906822,32.3356474 C29.6553471,32.4142182 28.2251149,32.3967939 26.8538305,31.9160115 C24.2903927,31.0175293 22.5854813,29.3373724 21.6854275,26.9926709 C20.6507615,24.2972242 20.7419106,21.6275914 22.2713863,19.0960624 C23.6440784,16.8241237 25.7924181,15.5213325 28.5900634,15.0955658 C29.7727148,14.9153531 30.9506152,15.0432929 32.1306272,15.0542637 C33.0176597,15.0624919 33.9045163,15.0979859 34.7917248,15.1044393 C36.0412423,15.1134742 37.2907599,15.106698 38.5402775,15.106698 L38.9082174,15.106698 Z M35.2159026,42.015523 L39,42.015523 L39,44.9747546 C38.8979411,44.9816921 38.7935947,44.994599 38.6892483,44.9947603 C37.6369859,44.9963737 36.5843716,44.9900816 35.5321092,44.9999231 C35.286816,45.0021818 35.1842292,44.9558783 35.190036,44.7032255 C35.2078083,43.8994477 35.1960188,43.0950246 35.1974265,42.2909241 C35.1974265,42.2028345 35.2088641,42.1145835 35.2159026,42.015523 Z"/>
</svg>
