<svg width="60" height="60" viewBox="0 0 60 60" xmlns="http://www.w3.org/2000/svg">
    <rect fill="transparent" x="0" y="0" width="60" height="60" rx="4.8"></rect>

    <g width="30" height="30" viewBox="0 0 30 30" transform="translate(15, 15)" fill="#FFFFFF">
        <path d="M 85.500 5.416 C 50.146 13.536, 24.175 43.903, 22.362 79.244 L 21.836 89.500 32.629 98.500 C 38.565 103.450, 47.939 111.349, 53.461 116.053 C 58.982 120.757, 75.322 134.639, 89.770 146.902 L 116.040 169.199 114.020 172.468 C 112.636 174.707, 112 177.463, 112 181.220 C 112 190.937, 118.337 196.997, 128.500 196.997 C 138.763 196.997, 145 190.950, 145 181 C 145 172.902, 140.910 167.489, 132.715 164.740 C 132.283 164.595, 138.505 147.832, 146.540 127.488 C 154.576 107.145, 162.428 87.125, 163.990 83 C 165.551 78.875, 169.096 69.897, 171.868 63.049 L 176.906 50.599 174.430 46.049 C 164.545 27.894, 146.695 13.337, 126.500 6.961 C 117.556 4.137, 94.802 3.280, 85.500 5.416 M 169.738 52.578 C 163.345 54.831, 152.751 60.803, 147.276 65.239 C 142.712 68.937, 141.978 70.042, 141.468 73.986 C 141.147 76.469, 140.237 83, 139.445 88.500 C 132.879 134.124, 128.850 164.184, 129.248 164.581 C 129.462 164.796, 133.294 155.640, 137.762 144.236 C 142.230 132.831, 152.245 107.371, 160.017 87.657 C 167.788 67.943, 174.001 51.687, 173.823 51.532 C 173.646 51.378, 171.807 51.848, 169.738 52.578 M 111.500 67.685 C 96.077 69.668, 81.472 75.377, 70.305 83.788 C 66.865 86.380, 64.039 88.824, 64.025 89.219 C 64.005 89.796, 95.798 133.646, 115.345 160 C 117.588 163.025, 119.507 165.642, 119.610 165.814 C 119.712 165.987, 121.343 165.839, 123.233 165.484 L 126.671 164.839 128.376 152.670 C 129.314 145.976, 130.979 134.200, 132.076 126.500 C 133.172 118.800, 134.721 107.775, 135.517 102 C 136.313 96.225, 137.656 86.820, 138.500 81.101 C 139.344 75.381, 139.847 70.514, 139.618 70.285 C 139.389 70.056, 135.669 69.239, 131.351 68.469 C 123.762 67.117, 117.766 66.880, 111.500 67.685 M 29.187 87.666 C 26.815 87.917, 25.015 88.459, 25.187 88.871 C 25.581 89.815, 32.030 95.369, 75.876 132.523 C 120.732 170.533, 118.366 168.573, 117.898 167.342 C 117.679 166.766, 104.939 149.129, 89.588 128.149 C 64.491 93.853, 61.313 89.902, 58.088 88.988 C 53.989 87.827, 35.626 86.987, 29.187 87.666 " stroke="none" fill="white" fill-rule="evenodd" transform="scale(0.15) translate(0 0)"></path>
    </g>
</svg>