<svg width="60" height="60" viewBox="0 0 60 60" xmlns="http://www.w3.org/2000/svg">
    <rect fill="transparent" x="0" y="0" width="60" height="60" rx="4.8"></rect>

    <g width="30" height="30" viewBox="0 0 30 30" transform="translate(15, 15)" fill="#FFFFFF">
        <path d="M 130.500 22.608 C 106.689 26.135, 85.762 34.490, 68.877 47.213 C 58.354 55.143, 43.581 71.042, 37.149 81.360 C 16.442 114.579, 11.667 154.403, 24.032 190.758 C 25.640 195.487, 27.304 199.687, 27.728 200.090 C 28.153 200.493, 31.947 198.045, 36.160 194.649 C 42.548 189.499, 54.216 181.790, 57.168 180.767 C 57.593 180.620, 56.830 177.447, 55.474 173.716 C 50.525 160.100, 49.506 153.602, 49.558 136 C 49.597 122.499, 49.992 118.029, 51.729 111.409 C 63.509 66.518, 96.998 35.089, 141.258 27.389 C 150.368 25.804, 172.734 25.863, 179 27.489 C 180.827 27.963, 181.096 27.874, 180 27.161 C 176.548 24.912, 162.763 22.888, 148.500 22.535 C 140.250 22.331, 132.150 22.364, 130.500 22.608 M 248.686 41.633 C 229.935 45.030, 210.250 53.220, 192.849 64.865 C 162.298 85.311, 124.861 125.335, 101.532 162.493 L 95.952 171.382 100.424 175.941 C 104.812 180.415, 108.935 187.792, 108.978 191.250 C 109.005 193.433, 110.752 193.452, 119.954 191.374 C 126.975 189.789, 127.136 189.683, 126.459 187.124 C 126.077 185.681, 125.705 183.852, 125.632 183.059 C 125.549 182.152, 131.057 178.820, 140.511 174.059 C 148.767 169.902, 158.830 164.339, 162.873 161.698 C 166.915 159.057, 170.932 157.033, 171.798 157.200 C 173.343 157.497, 174.159 159.746, 175.449 167.258 L 176.094 171.016 184.797 166.335 C 224.942 144.740, 255.679 117.535, 278.646 83.268 C 284.240 74.922, 300 45.144, 300 42.921 C 300 42.086, 286.599 39.634, 284.983 40.172 C 284.408 40.364, 282.435 43.977, 280.599 48.201 C 276.274 58.150, 269.969 66.900, 261.091 75.275 C 253.202 82.717, 250.843 83.421, 245.241 80.005 C 241.600 77.785, 238.009 72.561, 238.004 69.473 C 238.002 68.281, 240.918 64.574, 245.085 60.473 C 251.390 54.267, 261 42.281, 261 40.623 C 261 39.736, 257.642 40.011, 248.686 41.633 M 219.514 86.168 C 216.293 88.701, 213.769 94.109, 214.601 96.694 C 216.680 103.160, 220.229 106, 226.228 106 C 230.234 106, 233.487 103.892, 235.506 99.989 C 237.401 96.324, 237.395 93.664, 235.483 89.967 C 232.491 84.181, 224.466 82.272, 219.514 86.168 M 195.353 104.926 C 191.174 107.475, 189.402 112.657, 191.026 117.577 C 194.207 127.217, 208.793 127.217, 211.974 117.577 C 214.346 110.392, 209.038 103.007, 201.500 103.007 C 199.850 103.007, 197.084 103.871, 195.353 104.926 M 89.500 112.645 C 84.279 113.485, 74.609 115.816, 71.608 116.958 L 68.715 118.059 74.608 121.604 C 85.884 128.389, 93.945 135.494, 101.033 144.894 L 103.567 148.254 109.460 140.377 C 112.702 136.045, 117.975 129.273, 121.177 125.329 C 124.380 121.384, 127 117.915, 127 117.619 C 127 117.323, 123.963 116.133, 120.250 114.976 C 113.545 112.885, 96.189 111.570, 89.500 112.645 M 170.763 123.565 C 167.689 125.233, 164.998 129.735, 165.004 133.200 C 165.009 136.533, 168.589 141.893, 171.566 143.025 C 179.941 146.209, 187 141.328, 187 132.353 C 187 129.646, 186.191 127.991, 183.600 125.400 C 179.787 121.587, 175.531 120.978, 170.763 123.565 M 269.394 138.804 C 269.304 151.139, 268.879 155.038, 266.746 163.074 C 257.994 196.045, 237.314 221.564, 207.642 236.007 C 202.064 238.722, 193 242.189, 187.500 243.710 C 178.270 246.264, 176.115 246.475, 159.500 246.460 C 144.122 246.446, 140.335 246.125, 133.500 244.255 C 117.937 239.998, 104.691 233.711, 93.739 225.382 C 90.570 222.972, 87.602 221, 87.144 221 C 86.685 221, 85.476 221.922, 84.456 223.048 C 81.633 226.168, 71.805 231.837, 62.903 235.481 C 58.511 237.279, 54.695 238.972, 54.424 239.243 C 54.152 239.514, 56.473 242.060, 59.581 244.900 C 76.336 260.213, 97.005 270.546, 121.125 275.666 C 132.709 278.126, 157.286 278.120, 169 275.656 C 196.257 269.923, 218.464 257.728, 237.050 238.287 C 263.197 210.935, 275.871 174.679, 272.182 137.780 C 271.510 131.059, 270.631 125.233, 270.230 124.834 C 269.828 124.434, 269.452 130.721, 269.394 138.804 M 163 168.646 C 158.247 171.706, 136.316 183.061, 133.073 184.142 C 132.321 184.393, 132.763 186.534, 134.401 190.565 C 138.164 199.826, 141.056 212.352, 141.873 222.929 L 142.612 232.500 151.079 224 C 160.729 214.313, 165.056 207.010, 168.025 195.404 C 169.986 187.736, 170.607 172.224, 169.150 167.303 C 168.509 165.137, 168.423 165.156, 163 168.646 M 95.146 180.910 C 94.151 181.525, 94.384 182.501, 96.180 185.228 C 97.456 187.166, 98.950 189.481, 99.500 190.372 C 100.151 191.427, 100.967 191.691, 101.840 191.131 C 102.928 190.432, 102.801 189.531, 101.163 186.319 C 98.716 181.522, 96.858 179.852, 95.146 180.910 M 66.757 183.422 C 47.650 190.166, 27.061 207.703, 1.051 239.390 C -0.458 241.228, -0.226 241.260, 9.500 240.567 C 50.368 237.656, 81.565 224.528, 90.817 206.349 C 94.593 198.929, 95.126 195.168, 92.993 190.987 C 91.940 188.921, 89.675 185.829, 87.962 184.116 C 85.199 181.353, 84.204 181.002, 79.173 181.021 C 75.804 181.034, 70.762 182.009, 66.757 183.422 M 62 188.609 C 58.329 190.439, 53.068 194.816, 46.180 201.771 C 40.503 207.503, 36.073 212.407, 36.335 212.668 C 36.597 212.930, 39.589 210.905, 42.985 208.169 C 49.569 202.864, 60.758 196.425, 61.721 197.388 C 62.040 197.707, 61.136 201.125, 59.711 204.984 C 58.287 208.843, 57.333 212, 57.592 212 C 58.396 212, 84.714 192.271, 85.408 191.149 C 86.673 189.101, 80.837 186.555, 74.079 186.206 C 68.498 185.918, 66.666 186.282, 62 188.609 M 126.050 195.883 C 123.915 196.479, 123.427 197.509, 122.255 203.905 C 121.515 207.940, 121.141 211.474, 121.423 211.757 C 122.070 212.403, 126.663 209.518, 130.156 206.273 C 132.775 203.841, 132.791 203.743, 131.312 199.403 C 130.487 196.981, 129.517 195.045, 129.156 195.100 C 128.795 195.155, 127.397 195.507, 126.050 195.883 " stroke="none" fill="white" fill-rule="evenodd" transform="scale(0.1) translate(0 0)"></path>
    </g>
</svg>