<svg xmlns="http://www.w3.org/2000/svg" width="60" height="60" viewBox="0 0 60 60">
  <path fill="#FFFFFF" fill-rule="evenodd" d="M31,27.0016873 L39.222,27.0016873 C39.222,27.9986465 39.2368,28.979758 39.217,29.9600463 C39.2028,30.6649565 39.239,31.3130623 40.1442,31.3258227 C41.1114,31.3396122 41.148,30.650138 41.1352,29.9104453 C41.1188,28.9595883 41.1312,28.0085255 41.1312,27.0016873 L49.6296,27.0016873 C49.6296,27.9928837 49.644,28.973172 49.625,29.9524312 C49.6112,30.6575472 49.6536,31.3058588 50.5532,31.324382 C51.5244,31.3439343 51.5554,30.6470508 51.5448,29.9104453 C51.5308,28.9597941 51.5414,28.0087313 51.5414,27.0012757 L59.8516,27.0012757 C59.8516,28.8789095 59.8178,30.7497516 59.8674,32.6185354 C59.8884,33.4148267 60.0838,34.2063843 60.2,35 L61.4,35 C61.519,34.5511214 61.7334,34.1040951 61.7408,33.65357 C61.7768,31.4647466 61.757,29.2753058 61.757,27.0142419 L70.1996,27.0142419 C70.1996,28.0706811 70.218,29.1211517 70.1932,30.1703874 C70.177,30.8641837 70.3948,31.3120332 71.131,31.3254111 C71.8826,31.3387889 72.0874,30.8771499 72.0748,30.1893222 C72.0554,29.1343237 72.0698,28.0787078 72.0698,26.9428247 C74.308,26.9428247 76.404,26.9666991 78.4982,26.9255364 C79.001,26.9154516 79.4996,26.6886454 80,26.5616587 L80,25.5325927 C79.5198,25.3555933 79.0398,25.0238224 78.5594,25.0234108 C46.1492,24.9966551 13.7388,24.9950086 -18.6714,25.0075632 C-19.1144,25.007769 -19.5572,25.2158462 -20,25.3267795 L-20,26.5616587 C-19.5686,26.6894687 -19.1392,26.9181272 -18.7054,26.9273888 C-16.9448,26.9648468 -15.1828,26.9345922 -13.4212,26.9298585 C-13.0656,26.9288294 -12.7096,26.9298585 -12.2446,26.9298585 C-12.2446,28.0990833 -12.2232,29.1507888 -12.2522,30.2010536 C-12.2714,30.9055521 -12.0422,31.3319971 -11.3056,31.3235588 C-10.551,31.3149146 -10.3796,30.840721 -10.398,30.1594793 C-10.4256,29.1392632 -10.4052,28.1178123 -10.4052,27.0222686 L-2.0074,27.0222686 C-2.0074,29.2709837 -2.0292,31.483064 -1.989,33.6941152 C-1.981,34.1316741 -1.7358,34.5649109 -1.6,35 L-0.4,35 C-0.3144,34.5064599 -0.161,34.0137431 -0.1548,33.5189682 C-0.1274,31.3686319 -0.143,29.2176781 -0.143,27.0060094 L8.3412,27.0060094 C8.3412,28.0820008 8.361,29.135147 8.334,30.1868524 C8.3162,30.8876464 8.5442,31.3190309 9.2784,31.3289099 C10.0326,31.3392006 10.2308,30.8798255 10.2162,30.191792 C10.1944,29.1680771 10.2106,28.143539 10.2106,27.030707 L18.612,27.030707 C18.612,28.03878 18.6374,29.0557031 18.6034,30.0707738 C18.5792,30.7942072 18.756,31.2875415 19.5546,31.3159437 C20.4184,31.346404 20.5004,30.7466644 20.5006,30.079418 C20.5008,29.0896623 20.5006,28.1001124 20.5006,27.0270023 L28.9874,27.0270023 C28.9874,27.1361616 28.991741,27.2400259 29,27.3385891 L29,34.0024554 C29,34.5536886 29.4477153,35 30,35 C30.5561352,35 31,34.553384 31,34.0024554 L31,27.0016873 Z"/>
</svg>
