<svg width="60" height="60" viewBox="0 0 60 60" xmlns="http://www.w3.org/2000/svg">
    <rect fill="transparent" x="0" y="0" width="60" height="60" rx="4.8"></rect>

    <g width="30" height="30" viewBox="0 0 30 30" transform="translate(15, 15)" fill="#FFFFFF">
        <path d="M 24 350 L 24 700 36 700 L 48 700 48 350 L 48 0 36 0 L 24 0 24 350 M 72 350 L 72 700 84 700 L 96 700 96 350 L 96 0 84 0 L 72 0 72 350 M 120 350 L 120 700 132.494 700 L 144.989 700 144.989 350 L 144.989 0 132.494 0 L 120 0 120 350 M 169 64.084 L 169 128.168 175.250 122.501 C 178.688 119.385, 184.062 115.184, 187.194 113.167 L 192.889 109.500 192.944 54.750 L 193 0 181 0 L 169 0 169 64.084 M 217 49.613 L 217 99.227 220.250 98.581 C 222.037 98.226, 229.844 97.671, 237.598 97.347 C 248.722 96.882, 253.465 97.116, 260.082 98.457 C 308.915 108.351, 342.826 154.678, 336.997 203.532 C 335.117 219.288, 329.110 235.670, 320.738 247.869 C 312.532 259.828, 298.051 272.440, 285 278.995 C 264.720 289.182, 242.101 292.077, 219.750 287.349 L 217 286.767 217 350 L 217 413.233 219.750 412.651 C 242.101 407.923, 264.720 410.818, 285 421.005 C 298.051 427.560, 312.532 440.172, 320.738 452.131 C 351.802 497.398, 338.439 560.242, 291.623 589.053 C 274.242 599.749, 259.129 603.553, 237.598 602.653 C 229.844 602.329, 222.037 601.774, 220.250 601.419 L 217 600.773 217 650.387 L 217 700 229 700 L 241 700 241 688.214 L 241 676.428 254.750 675.202 C 285.146 672.490, 310.241 663.778, 334.499 647.516 C 372.773 621.859, 397.210 585.354, 407.142 539 C 409.057 530.060, 409.398 525.380, 409.438 507.500 C 409.477 489.503, 409.159 484.890, 407.211 475.245 C 395.447 416.997, 356.069 370.104, 301.126 348.914 C 285.606 342.928, 260.964 338.031, 246.250 338.008 L 241 338 241 326.146 L 241 314.293 252.250 313.147 C 267.055 311.639, 280.145 308.034, 292.862 301.963 C 317.708 290.101, 337.687 270.224, 349.614 245.500 C 368.434 206.487, 365.206 161.585, 340.982 125.414 C 330.654 109.993, 311.605 93.323, 294.500 84.736 C 282.239 78.582, 264.640 73.954, 247.750 72.444 L 241 71.841 241 59.791 L 241 47.742 249.250 48.423 C 263.110 49.567, 274.949 51.929, 287.121 55.979 C 309.786 63.519, 325.611 73.466, 343.532 91.436 C 364.794 112.756, 376.510 134.395, 383.221 164.741 C 386.349 178.885, 386.330 207.090, 383.183 221.688 C 374.074 263.948, 347.488 300.124, 311.041 319.853 C 304.013 323.658, 303.724 323.946, 306.041 324.843 C 315.260 328.415, 319.744 330.347, 325.135 333.068 L 331.273 336.167 337.886 331.623 C 373.070 307.450, 398.394 268.412, 407.211 224.755 C 409.159 215.110, 409.477 210.497, 409.438 192.500 C 409.398 174.620, 409.057 169.940, 407.142 161 C 397.210 114.646, 372.773 78.141, 334.499 52.484 C 310.241 36.222, 285.146 27.510, 254.750 24.798 L 241 23.572 241 11.786 L 241 0 229 0 L 217 0 217 49.613 M 266.500 1.557 C 348.646 12.651, 413.240 73.228, 430.652 155.500 C 433.195 167.514, 433.407 170.283, 433.452 192 C 433.502 216.560, 432.932 222.016, 428.420 240.143 C 423.118 261.441, 413.806 282.252, 401.152 301.082 C 389.855 317.893, 376.984 331.669, 358.486 346.750 L 354.500 350 358.486 353.250 C 376.984 368.331, 389.855 382.107, 401.152 398.918 C 413.806 417.748, 423.118 438.559, 428.420 459.857 C 432.932 477.984, 433.502 483.440, 433.452 508 C 433.407 529.717, 433.195 532.486, 430.652 544.500 C 420.435 592.775, 394.349 633.802, 355.694 662.389 C 329.597 681.688, 299.534 693.780, 266 698.466 C 257.642 699.634, 267.353 699.806, 346.750 699.897 L 437 700 437 350 L 437 0 346.750 0.103 C 266.408 0.195, 257.598 0.354, 266.500 1.557 M 223.224 123.017 C 190.957 131.471, 169 159.809, 169 193 C 169 221.232, 184.280 245.766, 209.500 258.030 C 220.208 263.237, 229.218 265.256, 241.500 265.200 C 261.513 265.109, 277.775 258.299, 292.037 244.037 C 306.469 229.604, 313.358 213.038, 313.260 193 C 313.094 159.286, 291.190 131.239, 258.590 122.999 C 248.209 120.375, 233.276 120.383, 223.224 123.017 M 229.585 146.119 C 212.732 150.072, 198.072 165.211, 193.982 182.886 C 192.287 190.210, 193.226 203.006, 195.995 210.324 C 200.974 223.480, 213.356 234.924, 227.143 239.112 C 232.977 240.884, 235.911 241.175, 244.007 240.786 C 252.674 240.368, 254.693 239.893, 261.462 236.678 C 271.804 231.767, 279.782 223.772, 284.723 213.369 C 287.905 206.668, 288.460 204.412, 288.830 196.675 C 289.074 191.571, 288.728 185.317, 288.025 182.114 C 284.353 165.389, 270.296 150.917, 253.465 146.533 C 247.050 144.862, 235.777 144.667, 229.585 146.119 M 233 170.247 C 227.599 172.043, 219.649 180.569, 218.058 186.273 C 212.549 206.029, 232.009 223.075, 250.828 214.979 C 268.254 207.482, 269.982 182.684, 253.777 172.666 C 248.428 169.359, 238.981 168.259, 233 170.247 M 169 350 L 169 442.215 175.063 436.602 C 178.397 433.515, 183.797 429.175, 187.063 426.957 L 193 422.925 193 350 L 193 277.075 187.063 273.043 C 183.797 270.825, 178.397 266.485, 175.063 263.398 L 169 257.785 169 350 M 241 373.668 L 241 385.631 252.250 386.812 C 267.111 388.372, 280.188 391.987, 292.862 398.037 C 317.708 409.899, 337.687 429.776, 349.614 454.500 C 368.434 493.513, 365.206 538.415, 340.982 574.586 C 330.654 590.007, 311.605 606.677, 294.500 615.264 C 282.239 621.418, 264.640 626.046, 247.750 627.556 L 241 628.159 241 640.209 L 241 652.258 249.250 651.577 C 263.110 650.433, 274.949 648.071, 287.121 644.021 C 309.786 636.481, 325.611 626.534, 343.532 608.564 C 364.794 587.244, 376.510 565.605, 383.221 535.259 C 386.349 521.115, 386.330 492.910, 383.183 478.312 C 369.213 413.500, 315.965 366.974, 250.494 362.372 L 241 361.705 241 373.668 M 232.388 435.034 C 223.230 436.255, 218.326 437.748, 209.500 442.003 C 168.051 461.987, 155.874 515.239, 184.414 551.714 C 212.607 587.746, 268.501 588.181, 297.172 552.592 C 315.718 529.571, 318.576 499.337, 304.737 472.557 C 298.921 461.303, 286.633 449.046, 275.287 443.182 C 261.976 436.302, 245.848 433.239, 232.388 435.034 M 226.270 461.025 C 213.077 465.335, 200.814 476.940, 195.995 489.676 C 193.226 496.994, 192.287 509.790, 193.982 517.114 C 197.206 531.047, 207.025 543.784, 219.137 549.746 C 226.987 553.610, 232.573 554.944, 241.040 554.976 C 254.130 555.024, 265.554 550.321, 274.985 541 C 285.260 530.845, 289.583 519.081, 288.830 503.325 C 288.460 495.588, 287.905 493.332, 284.723 486.631 C 279.772 476.207, 271.808 468.235, 261.410 463.297 C 254.290 459.916, 252.898 459.613, 243.102 459.313 C 234.520 459.051, 231.313 459.377, 226.270 461.025 M 230.168 485.603 C 219.527 490.906, 214.708 502.510, 218.216 514.384 C 219.969 520.315, 228.138 528.231, 234.273 529.942 C 257.321 536.369, 274.641 509.176, 259.193 490.818 C 252.733 483.141, 239.780 480.814, 230.168 485.603 M 169 635.916 L 169 700 181 700 L 193 700 192.944 645.250 L 192.889 590.500 187.194 586.833 C 184.062 584.816, 178.688 580.615, 175.250 577.499 L 169 571.832 169 635.916 " stroke="none" fill="white" fill-rule="evenodd" transform="scale(0.06864988558352403) translate(0 -131.5)"></path>
    </g>
</svg>