<svg width="60" height="60" viewBox="0 0 60 60" xmlns="http://www.w3.org/2000/svg">
    <rect fill="transparent" x="0" y="0" width="60" height="60" rx="4.8"></rect>

    <g width="30" height="30" viewBox="0 0 30 30" transform="translate(15, 15)" fill="#FFFFFF">
        <path d="M 93.500 8.997 C 90.200 10.556, 82.100 14.165, 75.500 17.018 C 47.454 29.141, 48.878 28.251, 38.078 40.434 C 15.533 65.869, 6.148 76.957, 5.537 78.882 C 5.181 80.006, 5.371 81.825, 5.961 82.926 C 6.828 84.547, 75.305 177.317, 84.996 190 C 86.467 191.925, 92.156 199.575, 97.640 207 C 103.123 214.425, 111.599 225.900, 116.475 232.500 C 137.059 260.364, 150.998 278.688, 152.962 280.465 C 157.491 284.564, 154.148 288.622, 224.185 194 C 230.495 185.475, 251.237 157.475, 270.278 131.779 C 289.320 106.082, 305.397 84.127, 306.005 82.991 C 308.093 79.089, 308.976 80.265, 274.540 41.073 C 263.471 28.476, 264.070 28.852, 235.500 16.528 C 229.450 13.918, 221.637 10.482, 218.138 8.891 L 211.775 6 155.638 6.082 L 99.500 6.163 93.500 8.997 M 102.371 22.289 C 88.463 27.672, 74 34.496, 74 35.674 C 74 36.486, 80.375 40.134, 89.250 44.402 C 116.288 57.402, 108.207 56, 156.113 56 L 197.973 56 213.236 48.971 C 231.270 40.667, 238.500 36.832, 238.500 35.572 C 238.500 35.067, 231.975 31.693, 224 28.076 L 209.500 21.500 157.500 21.289 C 118.742 21.132, 104.703 21.386, 102.371 22.289 M 50.309 49.750 C 48.644 51.813, 42.719 58.632, 37.141 64.905 C 31.564 71.178, 27 76.856, 27 77.523 C 27 78.992, 32.238 82.529, 45.500 90.017 C 51 93.122, 59.550 98.059, 64.500 100.986 C 80.177 110.259, 82.016 111.208, 83.336 110.701 C 84.518 110.248, 101 70.365, 101 67.959 C 101 67.384, 96.838 64.954, 91.750 62.559 C 86.662 60.165, 76.710 55.459, 69.633 52.103 C 62.555 48.746, 55.993 46, 55.050 46 C 54.107 46, 51.973 47.688, 50.309 49.750 M 242.891 51.818 C 236.507 54.943, 226.973 59.463, 221.705 61.862 C 216.438 64.261, 211.884 66.860, 211.585 67.638 C 210.556 70.322, 227.045 109.949, 229.502 110.697 C 230.053 110.864, 235.453 108.085, 241.502 104.520 C 247.551 100.956, 256.245 95.893, 260.823 93.270 C 279.224 82.724, 284.504 79.336, 284.782 77.894 C 284.942 77.064, 282.130 73.036, 278.535 68.942 C 274.939 64.849, 269.032 58.013, 265.409 53.750 C 260.822 48.354, 258.164 46.021, 256.660 46.068 C 255.472 46.106, 249.276 48.693, 242.891 51.818 M 116.728 72.750 C 115.858 73.713, 114.057 77.425, 112.725 81 C 111.393 84.575, 107.946 93.262, 105.066 100.305 C 102.185 107.348, 100.078 113.760, 100.383 114.555 C 101.230 116.763, 210.785 116.725, 211.632 114.516 C 212.284 112.817, 197.605 75.404, 195.246 72.750 C 193.816 71.142, 190.636 71, 156 71 C 121.374 71, 118.181 71.142, 116.728 72.750 M 46.218 111.321 C 46.923 112.598, 53.010 121.036, 59.745 130.071 C 66.480 139.107, 81.435 159.213, 92.979 174.750 C 104.524 190.287, 114.403 203, 114.933 203 C 116.063 203, 114.470 198.886, 108.543 186.500 C 106.175 181.550, 100.566 169.625, 96.080 160 C 82.023 129.838, 82.018 129.828, 76.769 126.500 C 67.250 120.464, 47.124 109, 46.046 109 C 45.283 109, 45.336 109.725, 46.218 111.321 M 257.440 113.338 C 253.557 115.700, 246.325 119.953, 241.370 122.788 C 236.415 125.624, 231.670 128.744, 230.826 129.722 C 229.451 131.314, 219.643 151.773, 202.171 189.493 C 192.531 210.306, 193.799 209.120, 222 170.953 C 232.725 156.438, 247.233 136.898, 254.239 127.531 C 261.246 118.164, 266.983 110.162, 266.989 109.750 C 267.012 108.161, 264.239 109.203, 257.440 113.338 M 101.137 130.894 C 99.767 131.762, 100.644 133.784, 121.132 177 C 123.870 182.775, 132.524 201.225, 140.363 218 C 149.136 236.773, 155.157 248.500, 156.022 248.500 C 156.879 248.500, 162 238.748, 169.151 223.500 C 175.598 209.750, 187.955 183.500, 196.610 165.166 C 209.322 138.236, 212.072 131.659, 210.923 130.931 C 209.095 129.774, 102.960 129.739, 101.137 130.894 " stroke="none" fill="white" fill-rule="evenodd" transform="scale(0.10380622837370242) translate(-11 0)"></path>
    </g>
</svg>