<svg xmlns="http://www.w3.org/2000/svg" width="60" height="60" viewBox="0 0 60 60">
  <path fill="#FFFFFF" d="M14.5412935,20.7296565 C11.3770591,20.7296565 8.8119403,18.1639566 8.8119403,14.9990054 C8.8119403,11.8340541 11.3770591,9.26835423 14.5412935,9.26835423 C17.7055279,9.26835423 20.2706468,11.8340541 20.2706468,14.9990054 C20.2706468,18.1639566 17.7055279,20.7296565 14.5412935,20.7296565 Z M14.9970149,5.72526323 L14.9970149,5.72526323 C9.87752763,5.72526323 5.72736318,9.87636783 5.72736318,14.9970149 L-3.55271368e-15,14.9970149 C0.00235495777,8.9309196 3.65671711,3.46317638 9.25992152,1.1421009 C14.8631259,-1.17897458 21.312407,0.103428113 25.60199,4.39162785 L21.5502488,8.4422965 C19.8144145,6.70035947 17.4558934,5.72249408 14.9970149,5.72526323 Z M24.2686567,14.9970149 L30,14.9970149 C30.0000583,21.064709 26.3459719,26.5350176 20.7415353,28.8572945 C15.1370986,31.1795713 8.68592911,29.8965171 4.3960199,25.6063829 L8.44378109,21.5537237 C11.0949035,24.2059244 15.0823633,24.9994072 18.5465069,23.5641112 C22.0106505,22.1288152 24.2691343,18.7474552 24.2686567,14.9970149 Z" transform="translate(15 15)"/>
</svg>
