<svg width="60" height="60" viewBox="0 0 60 60" xmlns="http://www.w3.org/2000/svg">
    <rect fill="transparent" x="0" y="0" width="60" height="60" rx="4.8"></rect>

    <g width="30" height="30" viewBox="0 0 30 30" transform="translate(15, 15)" fill="#FFFFFF">
        <path d="M 2.917 2.416 C 2.688 2.645, 2.619 29.870, 2.765 62.916 L 3.031 123 63.515 123 L 124 123 124 62.500 L 124 2 63.667 2 C 30.483 2, 3.146 2.187, 2.917 2.416 M 7.242 62.750 L 7.500 118.500 63.250 118.758 L 119 119.017 119 63.008 L 119 7 62.992 7 L 6.983 7 7.242 62.750 M 46.606 39.250 C 45.814 40.487, 41.737 51.115, 37.544 62.866 C 30.320 83.117, 30.003 84.356, 31.484 86.616 C 33.746 90.068, 36.595 89.630, 38.739 85.500 C 41.049 81.052, 54.225 43.335, 54.237 41.136 C 54.261 36.786, 49.013 35.488, 46.606 39.250 M 68.225 38.229 C 65.959 40.959, 50.930 83.514, 51.466 85.683 C 52.171 88.542, 55.747 89.682, 57.744 87.684 C 58.581 86.847, 62.988 76.114, 67.537 63.831 C 74.714 44.452, 75.640 41.236, 74.539 39.500 C 73.001 37.075, 69.729 36.416, 68.225 38.229 M 89.217 37.845 C 87.966 38.639, 73.466 77.422, 72.368 82.912 C 72.001 84.744, 72.375 86.232, 73.479 87.336 C 75.611 89.468, 77.304 89.443, 79.214 87.250 C 80.926 85.284, 96 43.892, 96 41.157 C 96 37.740, 92.261 35.913, 89.217 37.845 " stroke="none" fill="white" fill-rule="evenodd" transform="scale(0.23809523809523808) translate(0 0)"></path>
    </g>
</svg>