<svg width="60" height="60" viewBox="0 0 60 60" xmlns="http://www.w3.org/2000/svg">
    <rect fill="transparent" x="0" y="0" width="60" height="60" rx="4.8"></rect>

    <g width="30" height="30" viewBox="0 0 30 30" transform="translate(15, 15)" fill="#FFFFFF">
        <path d="M 177.500 24.023 C 168.141 25.207, 145.189 31.063, 136.500 34.485 C 106.834 46.169, 79.321 66.854, 60.109 91.920 C 44.577 112.184, 35.170 131.724, 28.843 156.860 C 20.289 190.847, 21.439 222.004, 32.558 257.500 C 36.150 268.966, 47.861 291.925, 55.743 302.954 C 75.744 330.939, 106.304 354.674, 137.554 366.498 C 148.541 370.654, 170.599 375.712, 183.588 377.053 C 226.957 381.530, 272.162 368.868, 307.024 342.479 C 321.348 331.636, 332.177 320.941, 341.856 308.079 C 357.648 287.093, 367.154 267.396, 372.908 243.737 C 377.518 224.779, 378.284 217.151, 377.775 195.240 C 377.280 173.930, 375.336 162.390, 368.950 142.847 C 351.592 89.731, 304.482 44.626, 251.008 29.924 C 232.279 24.775, 225.107 23.777, 204.500 23.453 C 193.500 23.280, 181.350 23.537, 177.500 24.023 M 188.500 45.646 C 147.352 50.264, 118.146 63.899, 90.357 91.463 C 76.385 105.324, 68.648 115.838, 60.465 132.091 C 42.537 167.699, 39.555 211.679, 52.540 249 C 60.939 273.141, 72.315 291.398, 89.937 309.016 C 151.322 370.387, 248.643 370.384, 310.063 309.010 C 339.610 279.485, 355.259 241.961, 355.314 200.500 C 355.356 168.649, 347.198 141.834, 328.997 114 C 320.740 101.373, 300.157 80.851, 287 72.128 C 267.994 59.528, 248.363 51.645, 226.852 47.975 C 214.841 45.925, 196.132 44.789, 188.500 45.646 M 117 136.412 C 115.075 137.141, 111.377 138.711, 108.782 139.901 C 106.186 141.092, 100.610 142.949, 96.390 144.028 C 88.015 146.170, 86 147.328, 86 150 C 86 153.019, 89.009 154.447, 96.690 155.076 C 101.697 155.485, 104.663 156.234, 105.806 157.379 C 107.342 158.916, 107.500 162.826, 107.500 199.287 C 107.500 236.693, 107.368 239.765, 105.612 243.300 C 103.529 247.495, 97.906 251, 93.262 251 C 87.043 251, 83.837 256.371, 88.223 259.443 C 90.099 260.757, 94.584 261, 117 261 C 139.416 261, 143.901 260.757, 145.777 259.443 C 147 258.587, 148 257.038, 148 256 C 148 253.685, 144.369 251, 141.238 251 C 137.185 251, 131.380 247.321, 129.638 243.649 C 127.224 238.562, 127.176 174.538, 129.583 169.467 C 131.306 165.836, 144.022 156.634, 152.105 153.169 C 167.556 146.546, 181.806 149.091, 187.718 159.530 C 189.942 163.455, 189.967 163.936, 189.980 202 C 189.992 238.669, 189.898 240.655, 188.005 243.759 C 185.785 247.401, 180.560 250.991, 177.473 250.996 C 174.590 251.002, 171 253.777, 171 256 C 171 257.038, 172 258.587, 173.223 259.443 C 176.532 261.761, 225.468 261.761, 228.777 259.443 C 230 258.587, 231 257.038, 231 256 C 231 253.667, 227.361 251, 224.179 251 C 219.889 251, 214.992 247.904, 212.950 243.902 C 211.130 240.335, 211 237.818, 211 206.274 C 211 166.106, 210.395 168.435, 223.069 159.806 C 240.689 147.809, 259.334 146.096, 268.091 155.668 C 273.368 161.437, 273.500 162.582, 273.500 202.500 C 273.500 236.757, 273.360 239.782, 271.612 243.300 C 269.715 247.119, 263.994 251, 260.262 251 C 257.564 251, 254 253.845, 254 256 C 254 257.038, 255 258.587, 256.223 259.443 C 259.534 261.763, 309.466 261.763, 312.777 259.443 C 317.163 256.371, 313.957 251, 307.738 251 C 304.038 251, 297.887 247.768, 296 244.833 C 294.750 242.889, 294.416 235.573, 293.999 201 C 293.505 160.076, 293.465 159.428, 291.141 154.286 C 284.483 139.555, 266.033 132.122, 246.764 136.409 C 238.382 138.274, 226.930 143.427, 220.069 148.421 C 211.827 154.420, 210.006 154.175, 201.500 145.917 C 193.940 138.577, 185.992 135.594, 174 135.596 C 165.657 135.596, 163.518 135.987, 156.433 138.800 C 151.996 140.563, 145.424 143.977, 141.829 146.388 C 133.435 152.018, 131.387 152.660, 128.928 150.435 C 127.582 149.216, 127 147.366, 127 144.300 C 127 140.971, 126.406 139.315, 124.545 137.455 C 121.734 134.643, 121.691 134.637, 117 136.412 " stroke="none" fill="white" fill-rule="evenodd" transform="scale(0.075) translate(0 0)"></path>
    </g>
</svg>