<svg width="60" height="60" viewBox="0 0 60 60" xmlns="http://www.w3.org/2000/svg">
    <rect fill="transparent" x="0" y="0" width="60" height="60" rx="4.8"></rect>

    <g width="30" height="30" viewBox="0 0 30 30" transform="translate(15, 15)" fill="#FFFFFF">
        <path d="M 93.500 128.368 C 87.620 131.130, 85.821 132.968, 83.077 139.018 C 81.152 143.262, 81.044 145.439, 81.044 180 C 81.044 214.561, 81.152 216.738, 83.077 220.982 C 85.821 227.032, 87.620 228.870, 93.500 231.632 L 98.500 233.980 148.500 233.980 L 198.500 233.980 203.500 231.632 C 209.380 228.870, 211.179 227.032, 213.923 220.982 C 215.847 216.740, 215.957 214.547, 215.968 180 C 215.980 143.768, 215.963 143.463, 213.632 138.500 C 210.870 132.620, 209.032 130.821, 202.982 128.077 C 198.668 126.120, 196.620 126.043, 148.500 126.032 L 98.500 126.020 93.500 128.368 M 253.090 147.780 C 243.453 152.306, 237.988 155.474, 236.590 157.344 C 234.672 159.910, 234.477 161.675, 234.219 178.820 C 233.845 203.739, 233.071 202.308, 252 211.675 C 267.997 219.590, 271.386 220.293, 275.694 216.587 L 278.500 214.173 278.500 180 L 278.500 145.827 275.694 143.413 C 274.151 142.086, 271.676 141.003, 270.194 141.006 C 268.712 141.009, 261.016 144.057, 253.090 147.780 " stroke="none" fill="white" fill-rule="evenodd" transform="scale(0.08333333333333333) translate(0 0)"></path>
    </g>
</svg>