<svg width="60" height="60" viewBox="0 0 60 60" xmlns="http://www.w3.org/2000/svg">
    <rect fill="transparent" x="0" y="0" width="60" height="60" rx="4.8"></rect>

    <g width="30" height="30" viewBox="0 0 30 30" transform="translate(15, 15)" fill="#FFFFFF">
        <path d="M 38 7.500 L 38 13 43 13 L 48 13 48 7.500 L 48 2 43 2 L 38 2 38 7.500 M 38 21.500 L 38 27 43 27 L 48 27 48 21.500 L 48 16 43 16 L 38 16 38 21.500 M 38 36.500 L 38 42 43 42 L 48 42 48 36.500 L 48 31 43 31 L 38 31 38 36.500 M 68 36.500 L 68 42 73 42 L 78 42 78 36.500 L 78 31 73 31 L 68 31 68 36.500 M 52 36.950 L 52 42 58.055 42 L 64.110 42 63.805 37.250 L 63.500 32.500 57.750 32.200 L 52 31.900 52 36.950 M 12 52.500 L 12 58 17 58 L 22 58 22 52.500 L 22 47 17 47 L 12 47 12 52.500 M 38 52.500 L 38 58 43 58 L 48 58 48 52.500 L 48 47 43 47 L 38 47 38 52.500 M 52 52.050 L 52 57.100 57.750 56.800 L 63.500 56.500 63.805 51.750 L 64.110 47 58.055 47 L 52 47 52 52.050 M 68 52 L 68 57 73 57 L 78 57 78 52 L 78 47 73 47 L 68 47 68 52 M 83 52.500 L 83 58 88 58 L 93 58 93 52.500 L 93 47 88 47 L 83 47 83 52.500 M 53 66.448 L 53 72 58.552 72 L 64.105 72 63.802 66.750 L 63.500 61.500 58.250 61.198 L 53 60.895 53 66.448 M 23 67 L 23 72 28 72 L 33 72 33 67 L 33 62 28 62 L 23 62 23 67 M 38 67 L 38 72 43 72 L 48 72 48 67 L 48 62 43 62 L 38 62 38 67 M 68 67 L 68 72 73.500 72 L 79 72 79 67 L 79 62 73.500 62 L 68 62 68 67 M 83 67.500 L 83 73 88 73 L 93 73 93 67.500 L 93 62 88 62 L 83 62 83 67.500 M 68.423 77.340 C 68.117 78.137, 68.009 80.524, 68.183 82.645 L 68.500 86.500 73.804 86.804 L 79.108 87.108 78.804 81.804 L 78.500 76.500 73.740 76.195 C 70.292 75.974, 68.826 76.289, 68.423 77.340 M 83 81.500 L 83 87 88 87 L 93 87 93 81.500 L 93 76 88 76 L 83 76 83 81.500 M 38 82 L 38 87 43 87 L 48 87 48 82 L 48 77 43 77 L 38 77 38 82 M 52 82 L 52 87 57.500 87 L 63 87 63 82 L 63 77 57.500 77 L 52 77 52 82 M 52 97 L 52 102 57.500 102 L 63 102 63 97 L 63 92 57.500 92 L 52 92 52 97 M 68.198 97.250 L 68.500 102.500 73.500 102.500 L 78.500 102.500 78.802 97.250 L 79.105 92 73.500 92 L 67.895 92 68.198 97.250 " stroke="none" fill="white" fill-rule="evenodd" transform="scale(0.2857142857142857) translate(0 0)"></path>
    </g>
</svg>