<svg width="60" height="60" viewBox="0 0 60 60" xmlns="http://www.w3.org/2000/svg">
    <rect fill="transparent" x="0" y="0" width="60" height="60" rx="4.8"></rect>

    <g width="30" height="30" viewBox="0 0 30 30" transform="translate(15, 15)" fill="#FFFFFF">
        <path d="M 48.500 6.988 C 24.148 7.715, 21.719 8.062, 14.242 11.876 C 6.504 15.824, 6.971 9.734, 7.048 105.721 C 7.122 198.116, 7.305 201.917, 12.399 216.764 C 18.007 233.113, 25.617 242.268, 40.765 250.893 C 66.083 265.307, 124.009 287.004, 133.300 285.554 C 148.535 283.175, 203.749 261.302, 223 250.020 C 236.410 242.160, 244.877 231.401, 249.966 215.755 C 254.617 201.453, 254.828 196.805, 254.937 105.740 C 255.028 30.259, 254.856 19.622, 253.497 16.995 C 251.589 13.305, 244.500 9.578, 236.460 8.036 C 229.354 6.674, 85.811 5.873, 48.500 6.988 M 120.500 59.036 C 104.324 60.761, 91.243 66.103, 81.812 74.834 C 71.859 84.049, 68.007 95.078, 70.119 108.317 C 71.965 119.894, 77.977 129.561, 88.024 137.110 C 95.297 142.575, 101.734 145.703, 118.500 151.920 C 144.924 161.717, 148.167 163.193, 152.583 167.432 C 159.843 174.399, 159.868 183.395, 152.647 190.617 C 147.595 195.668, 142.505 197.253, 131.836 197.097 C 117.940 196.894, 105.596 191.422, 92.418 179.623 C 88.751 176.339, 85.486 174.133, 85.018 174.623 C 84.559 175.105, 79.888 180.675, 74.639 187 L 65.095 198.500 68.297 201.881 C 73.135 206.988, 84.892 214.358, 92.994 217.361 C 103.608 221.295, 116.518 223.243, 132 223.246 C 156.405 223.250, 174.350 216.886, 186.472 203.927 C 192.519 197.461, 195.779 190.227, 196.594 181.462 C 197.881 167.616, 193.374 155.312, 183.367 145.352 C 175.518 137.539, 168.598 134.134, 141 124.504 C 117.867 116.433, 112.536 113.572, 109.644 107.682 C 105.561 99.364, 111.267 88.621, 121.189 85.949 C 126.949 84.398, 140.558 84.680, 146.604 86.475 C 153.223 88.441, 162.489 94.129, 168.227 99.749 C 170.827 102.296, 173.111 104.182, 173.303 103.940 C 175.670 100.962, 190 78.067, 190 77.263 C 190 75.946, 178.511 68.576, 172.319 65.922 C 159.351 60.364, 136.513 57.329, 120.500 59.036 " stroke="none" fill="white" fill-rule="evenodd" transform="scale(0.11494252873563218) translate(0 -15.5)"></path>
    </g>
</svg>