<svg width="60" height="60" viewBox="0 0 60 60" xmlns="http://www.w3.org/2000/svg">
    <rect fill="transparent" x="0" y="0" width="60" height="60" rx="4.8"></rect>

    <g width="30" height="30" viewBox="0 0 30 30" transform="translate(15, 15)" fill="#FFFFFF">
        <path d="M 110.472 9.986 C 88.219 13.101, 70.787 22.575, 61.465 36.619 C 54.713 46.791, 51.154 60.223, 54.478 62.982 C 55.291 63.657, 63.428 65.124, 72.561 66.244 C 91.589 68.576, 91.520 68.596, 93.898 60.188 C 94.569 57.816, 96.748 54.071, 98.741 51.865 C 103.999 46.044, 109.129 43.747, 118 43.239 C 124.778 42.851, 126.025 43.087, 130.956 45.684 C 135.302 47.974, 136.929 49.563, 138.956 53.500 C 141.207 57.872, 141.500 59.654, 141.500 68.953 L 141.500 79.464 129 80.655 C 103.667 83.071, 89.937 86.387, 76.500 93.337 C 56.480 103.692, 45.763 123.340, 47.418 146.657 C 49.579 177.090, 69.744 193.967, 101.116 191.599 C 117.981 190.326, 127.593 186.333, 140.582 175.205 C 147.304 169.447, 148.346 168.866, 149.203 170.398 C 151.062 173.721, 159.272 183.516, 162.877 186.712 C 168.591 191.779, 171.102 191.249, 181.043 182.878 C 194.714 171.366, 200 166.174, 200 164.257 C 200 163.267, 197.792 159.429, 195.093 155.727 C 186.434 143.850, 186.693 145.598, 185.974 94 C 185.317 46.796, 185.176 45.241, 180.751 36.500 C 174.755 24.654, 162.096 16.078, 144.597 12.006 C 134.964 9.764, 118.865 8.812, 110.472 9.986 M 117.949 106.826 C 104.878 110.238, 96.294 118.452, 93.938 129.799 C 91.083 143.551, 96.693 156.763, 106.804 160.100 C 114.364 162.595, 125.583 158.850, 131.455 151.871 C 135.537 147.020, 139.704 138.052, 140.912 131.520 C 141.510 128.282, 142 120.990, 142 115.316 L 142 105 133.250 105.058 C 128.409 105.090, 121.574 105.879, 117.949 106.826 M 222.265 174.428 C 213.164 176.159, 202.887 181.582, 201.549 185.359 C 200.776 187.542, 200.986 188.431, 202.674 190.118 C 204.614 192.058, 205.208 192.122, 211.816 191.097 C 219.528 189.900, 231.891 189.637, 234.442 190.616 C 236.560 191.429, 235.921 195.212, 231.205 209.784 C 227.172 222.248, 227.365 224.263, 232.647 224.798 C 239.037 225.445, 249.392 210.083, 252.521 195.315 C 255.179 182.774, 254.162 177.801, 248.454 175.416 C 243.358 173.287, 230.757 172.811, 222.265 174.428 M 3.536 184.960 C 0.626 188.176, 2.337 191.228, 11.240 198.697 C 48.464 229.924, 76.177 243.349, 108.876 245.994 C 141.580 248.640, 183.742 237.362, 213.309 218.061 C 225.054 210.394, 227.199 206.937, 223.242 202.051 C 220.624 198.818, 216.561 199.211, 205.427 203.775 C 173.488 216.867, 134.224 223.834, 107.907 221.079 C 94.504 219.675, 77.403 215.457, 64.874 210.465 C 54.384 206.285, 29.486 194.046, 17.902 187.375 C 9.541 182.561, 6.214 182.001, 3.536 184.960 " stroke="none" fill="white" fill-rule="evenodd" transform="scale(0.1171875) translate(0 0)"></path>
    </g>
</svg>