<svg width="60" height="60" viewBox="0 0 60 60" xmlns="http://www.w3.org/2000/svg">
    <rect fill="transparent" x="0" y="0" width="60" height="60" rx="4.8"></rect>

    <g width="30" height="30" viewBox="0 0 30 30" transform="translate(15, 15)" fill="#FFFFFF">
        <path d="M 117.679 7.576 C 114.477 8.352, 108.677 10.553, 104.789 12.468 C 98.147 15.740, 97.290 15.915, 90.610 15.364 C 70.339 13.691, 53.586 23.473, 45.389 41.767 C 40.541 52.589, 40.793 52.239, 35.909 54.924 C 33.484 56.257, 27.632 61.207, 22.904 65.924 C 16.343 72.470, 13.442 76.276, 10.653 82 C -4.119 112.311, 10.404 142.568, 46.821 157.352 C 61.743 163.409, 79.657 166.885, 100.154 167.701 L 114.807 168.284 117.363 165.728 C 121.666 161.425, 121.690 158.798, 117.507 149.884 C 113.432 141.202, 112.212 133.170, 113.724 125 L 114.558 120.500 123.029 120.426 C 133.495 120.335, 135.603 119.668, 137.592 115.821 C 139.406 112.313, 138.835 108.835, 135.975 105.975 C 134.411 104.411, 132.639 104, 127.460 104 C 118.008 104, 114.337 101.816, 102.718 89.281 C 100.638 87.037, 97.778 84.910, 96.362 84.555 C 91.434 83.318, 86.115 89.339, 87.447 94.646 C 87.754 95.869, 90.421 99.684, 93.373 103.123 C 98.626 109.241, 98.712 109.444, 97.416 112.546 C 95.048 118.215, 93.815 132.436, 94.972 140.750 C 95.550 144.908, 95.905 148.418, 95.762 148.549 C 95.221 149.044, 75.223 146.067, 68.500 144.492 C 47.568 139.586, 32.262 129.366, 26.279 116.299 C 22.861 108.833, 23.313 99.071, 27.461 90.746 C 30.045 85.561, 41.130 73, 43.121 73 C 43.562 73, 44.415 74.912, 45.016 77.250 C 47.981 88.784, 49.236 92.055, 52.832 97.619 C 58.580 106.512, 64.984 108.144, 69.399 101.841 C 71.649 98.628, 71.399 96.052, 68.410 91.652 C 63.969 85.118, 61.144 77.491, 59.919 68.733 C 58.876 61.281, 58.946 59.674, 60.523 54.901 C 63.928 44.591, 69.924 37.694, 77.414 35.470 C 84.333 33.415, 87.403 33.509, 86.543 35.748 C 86.174 36.709, 85.415 39.629, 84.856 42.237 C 83.927 46.567, 83.443 47.153, 79.274 48.997 C 73.896 51.376, 72.075 53.467, 72.032 57.316 C 71.987 61.275, 73.437 63.524, 76.979 64.991 C 79.709 66.122, 80.689 65.964, 86.159 63.509 C 90.692 61.475, 94.493 60.623, 100.792 60.230 C 110.907 59.599, 113 58.185, 113 51.985 C 113 48.529, 112.548 47.695, 109.750 45.989 C 107.963 44.899, 105.263 44.006, 103.750 44.004 C 100.240 43.999, 100.293 43.283, 104.250 37.363 C 110.987 27.282, 129.320 22.037, 141.948 26.579 C 144.744 27.584, 146.911 28.652, 146.765 28.953 C 146.618 29.254, 144.427 32.650, 141.895 36.500 C 139.363 40.350, 136.141 46.393, 134.735 49.930 L 132.178 56.359 127.390 56.561 C 123.582 56.721, 122.129 57.311, 120.300 59.437 C 117.620 62.553, 117.418 64.974, 119.502 69.005 C 121.070 72.035, 121.718 72.253, 132.948 73.511 C 135.944 73.847, 140.878 74.994, 143.913 76.061 C 151.056 78.571, 151.849 78.519, 155.195 75.313 C 159.971 70.738, 158.214 64.241, 151.435 61.408 C 148.355 60.121, 148.192 59.819, 149.020 56.930 C 150.203 52.805, 153.872 46.664, 158.985 40.250 C 162.839 35.415, 163.500 35.002, 167.335 35.020 C 184.619 35.104, 200.282 42.567, 207.642 54.225 C 208.939 56.279, 210 58.110, 210 58.294 C 210 58.477, 207.385 58.438, 204.190 58.207 C 195.865 57.605, 186.232 60.219, 182.750 64.025 C 179.324 67.770, 179.288 70, 182.589 73.923 C 185.575 77.472, 186.829 77.612, 195.090 75.315 C 200.329 73.859, 201.974 73.801, 207.243 74.889 C 219.447 77.410, 224.982 81.514, 229.645 91.500 C 231.519 95.511, 231.979 98.180, 231.975 105 C 231.969 116.012, 229.927 124.485, 224.754 134.966 C 219.004 146.616, 206.179 159.567, 189.121 170.948 C 177.527 178.683, 165.954 184.997, 163.367 184.999 C 161.568 185, 161.177 180.792, 161.045 160.015 C 160.910 138.694, 160.581 137.312, 155.097 135.040 C 151.556 133.573, 148.240 134.176, 144.876 136.897 C 142.504 138.817, 142.499 138.863, 142.183 164.160 C 141.802 194.567, 142.242 199.393, 145.683 202.582 C 153.583 209.904, 176.324 202.806, 202.795 184.757 C 235.204 162.660, 251 136.608, 251 105.252 C 251 90.015, 246.996 79.427, 237.493 69.537 C 234.230 66.141, 231.916 62.642, 231.093 59.859 C 229.151 53.286, 223.244 42.559, 218.767 37.473 C 207.366 24.520, 187.262 16, 168.101 16 C 164.260 16, 160.835 15.541, 160.488 14.981 C 159.501 13.384, 151.066 9.419, 144.846 7.628 C 137.997 5.656, 125.706 5.633, 117.679 7.576 M 165.339 101.935 C 156.924 107.066, 161.422 116.486, 172.300 116.511 C 176.542 116.521, 177.566 116.950, 180.092 119.777 C 181.948 121.855, 183 124.129, 183 126.065 C 183 129.747, 185.334 134.531, 187.545 135.379 C 196.409 138.780, 202.179 130.077, 198.468 118.902 C 193.852 105.007, 175.618 95.667, 165.339 101.935 " stroke="none" fill="white" fill-rule="evenodd" transform="scale(0.14285714285714285) translate(-23.5 0)"></path>
    </g>
</svg>