<svg xmlns="http://www.w3.org/2000/svg" width="60" height="60" viewBox="0 0 60 60">
  <path fill="#FFFFFF" d="M14.2822823,11.2442121 L14.5405405,11.1725168 C16.464444,10.5993153 18.3517679,9.91098074 20.1921922,9.11127707 C22.0590642,8.38289166 23.8107732,7.39088488 25.3933934,6.16579537 C27.0735577,4.83635278 28.3381429,3.05819484 29.039039,1.03958178 C29.1901841,0.707304991 29.3010727,0.358327606 29.3693694,0 C26.8408408,3.43539955 16.8168168,3.79387603 16.8168168,3.79387603 L19.1831832,1.63704257 C12.2965184,1.66063618 5.58945987,3.82475244 0,7.82673637 C3.78575326,8.23016778 7.34660317,9.81309078 10.1741742,12.3495146 C11.5315315,11.931292 12.9189189,11.6325616 14.2822823,11.2561613 L14.2822823,11.2442121 Z M30,10.9036594 C23.6220984,10.6097015 17.241264,11.4182973 11.1411411,13.2935026 C12.4225181,14.6235854 13.4919313,16.1407414 14.3123123,17.7923824 C19.3633634,14.9962659 26.3663664,11.4234503 30,10.9156087 L30,10.9036594 Z M14.9489489,19.2203137 C15.5480537,20.7538895 15.9320399,22.3622213 16.0900901,24 L24.9009009,14.9962659 L14.9489489,19.2203137 L14.9489489,19.2203137 Z M19.5735736,23.6355489 L19.5735736,23.5399552 C19.5720636,23.5014322 19.5595648,23.4641319 19.5375375,23.4324122 C19.5174387,23.4024882 19.4836253,23.3845487 19.4474474,23.3846154 L19.5255255,23.3846154 C19.5734143,23.3529171 19.6008389,23.2983545 19.5975976,23.2412248 C19.605927,23.164148 19.5617755,23.0909469 19.4894895,23.0619866 C19.4279919,23.0502105 19.3648009,23.0502105 19.3033033,23.0619866 L19.0570571,23.0619866 L19.0570571,23.7371173 L19.1891892,23.7371173 L19.1891892,23.4921583 L19.2852853,23.4921583 C19.3267111,23.4820317 19.3699856,23.4820317 19.4114114,23.4921583 C19.4525045,23.5252939 19.4730384,23.577495 19.4654655,23.6295743 L19.4654655,23.7311426 L19.5975976,23.7311426 L19.5735736,23.6355489 L19.5735736,23.6355489 Z M19.1831832,23.1097834 L19.2672673,23.1097834 C19.3127126,23.09932 19.35996,23.09932 19.4054054,23.1097834 C19.4318128,23.1290727 19.4456119,23.1611024 19.4414414,23.1934279 C19.4465962,23.2353966 19.4215631,23.2752402 19.3813814,23.2890217 C19.3455728,23.2947175 19.3090819,23.2947175 19.2732733,23.2890217 L19.1831832,23.2890217 L19.1831832,23.0619866 L19.1831832,23.1097834 L19.1831832,23.1097834 Z" transform="translate(15 18)"/>
</svg>
