<svg width="60" height="60" viewBox="0 0 60 60" xmlns="http://www.w3.org/2000/svg">
    <rect fill="transparent" x="0" y="0" width="60" height="60" rx="4.8"></rect>

    <g width="30" height="30" viewBox="0 0 30 30" transform="translate(15, 15)" fill="#FFFFFF">
        <path d="M 211.871 21.006 C 207.194 23.477, 203.348 28.086, 202.044 32.781 C 201.466 34.861, 201.009 47.078, 201.005 60.500 L 200.999 84.500 220.999 84.500 L 240.998 84.500 240.999 71.250 L 241 58 261.532 58 C 283.434 58, 286.732 57.424, 291.868 52.702 C 299.434 45.747, 299.934 31.801, 292.860 25.021 C 286.398 18.828, 287.662 19.004, 250 19.048 C 217.968 19.085, 215.240 19.226, 211.871 21.006 M 350.937 20.010 C 346.009 20.860, 342.410 23.730, 339.892 28.819 C 334.815 39.080, 342.396 51, 354 51 C 365.215 51, 372.599 40.094, 368.554 29.503 C 365.843 22.403, 358.864 18.643, 350.937 20.010 M 350.395 22.081 C 338.623 25.496, 337.209 41.920, 348.198 47.602 C 356.703 52.001, 367.340 45.367, 367.328 35.671 C 367.321 29.645, 364.650 25.198, 359.684 22.943 C 355.030 20.830, 354.785 20.808, 350.395 22.081 M 271.207 26.613 C 263.511 30.536, 262.351 41.752, 269.059 47.396 C 278.150 55.046, 290.716 48.506, 289.694 36.657 C 288.899 27.452, 279.538 22.366, 271.207 26.613 M 347.879 25.803 C 347.812 26.187, 347.699 30.662, 347.629 35.750 C 347.515 43.942, 347.700 45, 349.250 45 C 350.625 45, 351 44.143, 351 41 C 351 38.800, 351.454 37, 352.010 37 C 352.565 37, 354.252 38.783, 355.760 40.962 C 357.579 43.592, 359.272 44.937, 360.798 44.962 C 363.089 45, 363.087 44.987, 360.130 40.689 C 357.273 36.536, 357.234 36.335, 359.082 35.181 C 361.556 33.636, 361.666 28.419, 359.250 27.154 C 356.972 25.962, 348.036 24.900, 347.879 25.803 M 351 31.392 C 351 34.560, 351.300 35, 353.465 35 C 354.948 35, 356.379 34.161, 357.057 32.893 C 358.364 30.452, 357.585 29.410, 353.750 28.462 C 351.133 27.816, 351 27.957, 351 31.392 M 202.500 93.138 C 145.718 100.316, 95.157 144.052, 80.120 199 C 74.358 220.055, 73.132 246.465, 76.994 266.320 C 83.041 297.400, 97.626 324.024, 120.698 346.095 C 170.016 393.275, 244.960 400.339, 302.500 363.232 C 335.760 341.783, 358.268 308.938, 367.155 268.881 C 369.095 260.135, 369.461 255.586, 369.479 240 C 369.501 220.739, 368.705 214.275, 364.471 199.308 C 348.446 142.665, 298.986 100.083, 241.026 93.031 C 231.116 91.825, 212.476 91.877, 202.500 93.138 M 37.271 163.964 C 23.764 170.095, 25.323 192.545, 41.650 227.058 C 44.757 233.626, 47.612 239, 47.993 239 C 48.375 239, 50.981 234.162, 53.784 228.250 C 70.708 192.554, 72.382 170.165, 58.595 163.904 C 53.047 161.384, 42.891 161.412, 37.271 163.964 M 316.972 180.877 C 298.307 186.851, 284.156 201.259, 278.612 219.932 C 276.534 226.932, 276.520 241.351, 278.584 249.356 C 281.007 258.754, 285.762 266.772, 293.495 274.502 C 305.491 286.494, 319.006 291.652, 335.999 290.725 C 350.660 289.925, 351.230 289.566, 354.283 279.201 C 358.963 263.317, 359.485 259.327, 359.482 239.500 C 359.479 218.824, 358.385 211.374, 353.057 195.732 C 349.155 184.276, 347.044 180.247, 344.602 179.592 C 339.852 178.316, 322.441 179.126, 316.972 180.877 M 41.258 252.750 C 32.034 272.192, 28.752 283.288, 28.614 295.500 C 28.514 304.269, 28.779 305.949, 30.766 309.144 C 34.043 314.413, 38.931 316.500, 48 316.500 C 57.278 316.500, 61.792 314.495, 64.879 309.002 C 70.939 298.219, 67.540 279.919, 54.246 251.750 C 51.196 245.287, 48.387 240, 48.004 240 C 47.620 240, 44.585 245.738, 41.258 252.750 " stroke="none" fill="white" fill-rule="evenodd" transform="scale(0.075) translate(0 0)"></path>
    </g>
</svg>