<svg width="60" height="60" viewBox="0 0 60 60" xmlns="http://www.w3.org/2000/svg">
    <rect fill="transparent" x="0" y="0" width="60" height="60" rx="4.8"></rect>

    <g width="30" height="30" viewBox="0 0 30 30" transform="translate(15, 15)" fill="#FFFFFF">
        <path d="M 449 186.001 C 433.781 187.891, 422.604 197.745, 421.295 210.427 C 419.675 226.127, 429.479 236.210, 451.953 241.957 C 468.167 246.104, 474 249.928, 474 256.412 C 474 263.116, 468.219 267.007, 458.282 266.990 C 447.970 266.973, 437.877 260.219, 434.961 251.383 L 433.915 248.213 424.708 251.536 C 418.763 253.682, 415.605 255.328, 415.796 256.180 C 416.702 260.217, 421.896 268.949, 425.587 272.640 C 440.374 287.427, 468.924 289.211, 485.723 276.397 C 493.393 270.548, 497.422 258.094, 494.962 247.841 C 492.378 237.071, 483.111 230.576, 462.293 224.944 C 449.943 221.603, 445.029 219.252, 443.033 215.727 C 441.171 212.439, 442.414 208.513, 446.212 205.685 C 452.079 201.317, 466.161 204.109, 470.699 210.541 C 471.690 211.945, 473.223 214.054, 474.106 215.228 L 475.711 217.362 483.606 214.585 C 487.948 213.058, 491.887 211.442, 492.361 210.993 C 493.775 209.655, 487.902 200.085, 483.034 195.792 C 473.753 187.610, 462.383 184.339, 449 186.001 M 9 235.582 L 9 283.163 12.250 281.202 C 14.038 280.124, 22.024 275.513, 29.997 270.956 L 44.493 262.670 51.213 266.335 C 54.908 268.351, 58.172 270, 58.466 270 C 58.760 270, 59 268.398, 59 266.440 C 59 262.937, 59.061 262.884, 62.750 263.190 L 66.500 263.500 66.795 269.500 L 67.091 275.500 72.974 278.750 C 76.211 280.538, 79.340 282, 79.929 282 C 80.675 282, 81 267.737, 81 235 L 81 188 45 188 L 9 188 9 235.582 M 93 235.500 L 93 283 104 283 L 115 283 115.021 258.750 L 115.042 234.500 121.500 246 C 125.051 252.325, 131.004 263.227, 134.728 270.226 L 141.500 282.952 145.500 282.949 L 149.500 282.947 156.379 270.223 C 160.163 263.226, 166.013 252.448, 169.379 246.274 L 175.500 235.047 175.768 259.024 L 176.036 283 187.018 283 L 198 283 198 235.500 L 198 188 188.725 188 L 179.449 188 164.475 215.638 C 156.239 230.839, 148.581 244.802, 147.457 246.667 L 145.414 250.059 128.500 219.030 L 111.587 188 102.293 188 L 93 188 93 235.500 M 210 235.500 L 210 283 245.500 283 L 281 283 281 274 L 281 265 256.564 265 L 232.129 265 231.814 254.479 C 231.641 248.692, 231.650 243.517, 231.833 242.979 C 232.035 242.385, 239.811 242, 251.583 242 L 271 242 271 233.500 L 271 225 251.500 225 L 232 225 232 216.500 C 232 211.825, 231.999 207.662, 231.998 207.250 C 231.997 206.838, 242.909 206.275, 256.248 206 L 280.500 205.500 280.789 196.750 L 281.078 188 245.539 188 L 210 188 210 235.500 M 287 188.369 C 287 188.725, 289.080 194.632, 310.546 255.250 L 320.373 283 328.592 283 L 336.811 283 339.762 274.750 C 341.385 270.212, 345.087 259.848, 347.990 251.717 C 350.893 243.587, 353.436 237.103, 353.641 237.308 C 353.846 237.513, 356.945 245.965, 360.527 256.091 C 364.109 266.216, 367.743 276.413, 368.603 278.750 L 370.165 283 378.333 282.990 L 386.500 282.981 402.897 236.740 C 411.916 211.308, 419.501 189.938, 419.754 189.250 C 420.105 188.296, 417.520 188, 408.852 188 L 397.490 188 389.614 210.250 C 377.843 243.508, 377.878 243.421, 376.922 241.874 C 376.458 241.123, 371.898 228.700, 366.789 214.267 L 357.500 188.026 353.484 188.013 L 349.468 188 341.598 210.250 C 330.353 242.040, 329.868 243.278, 329.032 242.343 C 328.617 241.879, 324.053 229.467, 318.889 214.761 L 309.500 188.022 298.250 188.011 C 292.063 188.005, 287 188.166, 287 188.369 " stroke="none" fill="white" fill-rule="evenodd" transform="scale(0.059880239520958084) translate(0 0)"></path>
    </g>
</svg>