<svg width="60" height="60" viewBox="0 0 60 60" xmlns="http://www.w3.org/2000/svg">
    <rect fill="transparent" x="0" y="0" width="60" height="60" rx="4.8"></rect>

    <g width="30" height="30" viewBox="0 0 30 30" transform="translate(15, 15)" fill="#FFFFFF">
        <path d="M 234 12.615 C 225.755 13.356, 203.976 17.105, 196.188 19.124 C 144.639 32.487, 99.398 61.449, 65.841 102.566 C 45.323 127.708, 27.467 163.569, 19.069 196.500 C 17.050 204.419, 13.016 226.873, 13.005 230.250 C 13 231.891, 15.821 232, 58.250 232.004 C 101.137 232.007, 103.665 232.108, 106.655 233.931 C 110.236 236.115, 111.613 240.258, 110.089 244.265 C 108.113 249.464, 107.981 249.478, 58.095 249.797 L 11.691 250.094 12.328 266.297 C 13.559 297.613, 20.549 327.183, 33.568 356.151 C 51.346 395.707, 80.920 431.128, 117.122 456.225 C 122.280 459.801, 127.513 463.254, 128.750 463.898 L 131 465.070 130.939 425.285 L 130.878 385.500 117.939 373.553 L 105 361.606 105 339.303 L 105 317 126 317 L 147 317 147 242.062 L 147 167.124 128.578 166.812 C 110.662 166.509, 110.085 166.433, 107.578 164.076 C 105.882 162.481, 105 160.590, 105 158.548 C 105 152.501, 100.838 155.310, 173.500 112.308 C 239.625 73.174, 253.807 65, 255.580 65 C 256.653 65, 271.923 73.476, 289.515 83.836 C 339.580 113.318, 392.944 144.889, 399.188 148.719 C 407.427 153.773, 408.768 159.308, 403.012 164.500 C 400.996 166.318, 399.124 166.530, 382.397 166.829 L 364 167.159 364 242.079 L 364 317 385.500 317 L 407 317 407.035 338.750 L 407.071 360.500 393.498 373.500 L 379.925 386.500 380.212 425.852 L 380.500 465.204 391 458.271 C 405.231 448.873, 414.773 441.029, 427.831 427.991 C 441.259 414.584, 448.549 405.619, 459.548 388.985 C 484.242 351.638, 499 304.246, 499 262.292 L 499 250 453.901 250 C 414.859 250, 408.355 249.788, 405.471 248.419 C 399.630 245.647, 398.929 239.061, 403.990 234.500 C 406.133 232.569, 407.788 232.492, 451.855 232.267 C 492.155 232.062, 497.539 231.853, 497.830 230.484 C 498.422 227.699, 494.946 207.784, 491.549 194.500 C 471.516 116.169, 412.555 52.195, 335.757 25.463 C 309.699 16.393, 289.855 12.986, 260.500 12.543 C 248.400 12.360, 236.475 12.393, 234 12.615 M 253.500 85.182 C 245.315 89.769, 146.297 148.405, 145.550 149.107 C 144.992 149.631, 190.396 150, 255.500 150 C 323.750 150, 366.035 149.643, 365.450 149.072 C 364.928 148.561, 354.825 142.421, 343 135.428 C 331.175 128.435, 306.770 114.003, 288.766 103.357 C 270.762 92.711, 255.912 84.014, 255.766 84.030 C 255.620 84.047, 254.600 84.565, 253.500 85.182 M 203.750 166.761 L 164 167.023 164 242.011 L 164 317 205.500 317 L 247 317 247 304.207 L 247 291.415 242.376 290.178 C 229.301 286.681, 216.178 276.194, 210.594 264.781 C 205.064 253.478, 203.443 239.438, 206.390 228.368 C 210.817 211.743, 224.145 197.766, 240.250 192.861 L 247 190.805 247 179.019 C 247 168.601, 246.797 167.191, 245.250 166.867 C 244.287 166.665, 225.613 166.618, 203.750 166.761 M 264 178.868 L 264 190.736 269.803 192.365 C 299.997 200.837, 315.051 235.098, 301.060 263.500 C 294.718 276.375, 281.628 287.373, 269.385 290.113 L 264 291.318 264 304.159 L 264 317 305.500 317 L 347 317 347 242 L 347 167 305.500 167 L 264 167 264 178.868 M 62.046 177.800 C 58.803 181.043, 58.321 183.416, 60.110 187.343 C 61.533 190.465, 62.847 191.074, 78.500 195.871 C 85.650 198.061, 95.312 201.036, 99.970 202.480 C 104.654 203.933, 109.470 204.848, 110.745 204.528 C 114.618 203.556, 117 200.374, 117 196.174 C 117 190.891, 114.367 188.818, 103.500 185.544 C 98.550 184.053, 89.462 181.271, 83.306 179.363 C 66.743 174.228, 65.695 174.151, 62.046 177.800 M 439 175.939 C 437.625 176.411, 428.175 179.353, 418 182.478 C 407.825 185.603, 398.509 188.795, 397.297 189.572 C 394.247 191.527, 393.279 197.251, 395.440 200.549 C 398.344 204.981, 401.270 205.358, 410.894 202.539 C 439.751 194.085, 448.539 191.053, 450.228 188.967 C 452.492 186.171, 452.503 180.837, 450.250 178.080 C 448.286 175.677, 442.806 174.634, 439 175.939 M 247.410 208.134 C 236.946 210.488, 226.455 220.426, 223.360 230.915 C 220.930 239.150, 221.848 250.113, 225.535 256.887 C 233.802 272.077, 251.548 278.805, 267.712 272.878 C 272.012 271.301, 275.069 269.168, 279.603 264.579 C 286.991 257.102, 289.409 251.084, 289.357 240.300 C 289.257 218.987, 268.822 203.317, 247.410 208.134 M 73.500 284.186 C 56.450 289.121, 41.661 293.911, 40.635 294.830 C 35.924 299.050, 37.046 306.534, 42.744 308.894 C 45.454 310.017, 48.676 309.290, 77.117 301.139 C 94.378 296.192, 109.692 291.691, 111.149 291.136 C 120.154 287.704, 117.866 274.839, 108.298 275.106 C 106.209 275.164, 90.550 279.250, 73.500 284.186 M 397.249 277.235 C 395.037 279.589, 394.323 284.072, 395.621 287.455 C 396.638 290.105, 400.033 291.311, 433.534 300.923 C 468.224 310.876, 469.008 310.969, 472.560 305.549 C 474.719 302.254, 473.752 296.532, 470.703 294.559 C 467.624 292.567, 409.491 275.732, 403.999 275.242 C 400.244 274.907, 399.126 275.237, 397.249 277.235 M 121.508 334.987 C 121.173 335.530, 120.979 339.948, 121.077 344.806 L 121.256 353.638 132.337 363.819 L 143.419 374 255.295 374 L 367.171 374 378.585 363.794 L 390 353.589 390 343.794 L 390 334 256.059 334 C 169.029 334, 121.904 334.346, 121.508 334.987 M 150.250 390.820 L 148 391.139 148 413.937 L 148 436.735 173.250 427.011 C 187.137 421.663, 213.463 411.527, 231.750 404.488 C 250.037 397.448, 265 391.421, 265 391.094 C 265 390.493, 154.410 390.229, 150.250 390.820 M 311.555 391.865 C 309.325 392.616, 300.075 396.121, 291 399.655 C 281.925 403.188, 264.600 409.870, 252.500 414.502 C 240.400 419.135, 212.050 430.078, 189.500 438.821 L 148.500 454.717 148.216 464.751 L 147.932 474.784 159.134 479.512 C 165.295 482.113, 173.993 485.477, 178.464 486.988 L 186.592 489.735 219.546 475.832 C 255.414 460.698, 270.583 454.315, 326.234 430.933 L 362.967 415.500 362.983 403 L 362.999 390.500 339.305 390.500 C 321.932 390.500, 314.529 390.864, 311.555 391.865 M 318.500 452.334 C 294.850 462.342, 262.148 476.148, 245.829 483.015 C 229.509 489.882, 216.684 495.778, 217.329 496.119 C 220.217 497.645, 238.225 499, 255.609 499 C 275.438 499, 291.084 497.463, 308 493.854 C 319.727 491.352, 344.393 483.227, 355.050 478.356 L 363 474.722 363 454.361 C 363 443.162, 362.663 434.031, 362.250 434.069 C 361.837 434.107, 342.150 442.326, 318.500 452.334 " stroke="none" fill="white" fill-rule="evenodd" transform="scale(0.05859375) translate(0 0)"></path>
    </g>
</svg>