<svg width="60" height="60" viewBox="0 0 60 60" xmlns="http://www.w3.org/2000/svg">
    <rect fill="transparent" x="0" y="0" width="60" height="60" rx="4.8"></rect>

    <g width="30" height="30" viewBox="0 0 30 30" transform="translate(15, 15)" fill="#FFFFFF">
        <path d="M 187 71.516 C 170.984 74.789, 160.257 80.679, 147.943 92.965 C 139.779 101.110, 137.706 103.884, 133.719 112 C 127.481 124.694, 125.628 132.716, 125.632 147 C 125.634 155.853, 126.149 160.328, 127.867 166.443 C 135.569 193.845, 156.388 214.137, 183.951 221.107 C 196.003 224.155, 214.071 223.504, 225.500 219.610 C 237.424 215.547, 246.361 209.827, 256 200.088 C 265.780 190.206, 269.986 183.580, 274.296 171.261 C 276.928 163.736, 277.422 160.711, 277.796 149.820 C 278.122 140.344, 277.812 135.255, 276.571 129.674 C 273.586 116.258, 264.626 100.605, 254.346 90.850 C 236.895 74.287, 210.509 66.712, 187 71.516 M 191 86.691 C 181.143 88.341, 168.835 94.556, 160.698 101.993 C 140.893 120.094, 135.589 149.324, 147.633 174 C 152.441 183.853, 164.516 196.064, 174.072 200.736 C 187.390 207.249, 203.379 209.070, 216.876 205.611 C 237.292 200.379, 254.436 183.467, 260.578 162.500 C 262.913 154.530, 262.922 139.640, 260.597 131.071 C 254.754 109.538, 237.332 92.591, 215.824 87.520 C 209.978 86.142, 196.890 85.705, 191 86.691 M 173 258.474 C 128.429 264.981, 91.291 282.514, 58.918 312.333 L 51.500 319.165 57.487 324.566 L 63.475 329.967 68.987 324.614 C 90.845 303.386, 121.866 286.322, 152.829 278.495 C 168.113 274.631, 181.895 273.037, 200 273.037 C 218.105 273.037, 231.887 274.631, 247.171 278.495 C 278.162 286.329, 309.158 303.387, 331.057 324.658 L 336.615 330.056 342.557 324.598 L 348.500 319.140 341.580 312.820 C 309.979 283.957, 275.941 267.085, 234 259.493 C 221.082 257.155, 186.047 256.570, 173 258.474 " stroke="none" fill="white" fill-rule="evenodd" transform="scale(0.075) translate(0 0)"></path>
    </g>
</svg>