<svg width="60" height="60" viewBox="0 0 60 60" xmlns="http://www.w3.org/2000/svg">
    <rect fill="transparent" x="0" y="0" width="60" height="60" rx="4.8"></rect>

    <g width="30" height="30" viewBox="0 0 30 30" transform="translate(15, 15)" fill="#FFFFFF">
        <path d="M 177.500 43.606 C 158.023 47.078, 138.638 53.522, 126 60.726 C 107.749 71.129, 98.752 77.954, 85.319 91.587 C 62.494 114.752, 47.409 143.480, 40.789 176.386 C 37.594 192.266, 37.577 220.429, 40.753 237.096 C 46.027 264.784, 57.613 289.491, 76.095 312.461 L 82.500 320.423 83.013 261.461 L 83.527 202.500 86.316 195.234 C 94.363 174.269, 110.324 158.407, 131.294 150.535 C 152.058 142.740, 180.129 145.759, 198.186 157.731 C 209.697 165.362, 219.224 175.950, 224.975 187.500 C 234.505 206.643, 234.429 230.306, 224.773 250 C 221.307 257.069, 218.914 260.192, 210.553 268.553 C 202.155 276.951, 199.101 279.287, 192 282.745 C 179.353 288.903, 172.730 290.378, 157.500 290.430 C 148.208 290.462, 142.646 289.980, 138 288.740 C 129.192 286.390, 116.327 279.808, 110.023 274.427 C 107.171 271.992, 104.648 270, 104.418 270 C 104.188 270, 104.004 285.637, 104.008 304.750 L 104.016 339.500 111.758 344.659 C 127.131 354.903, 147.160 363.588, 165.404 367.921 C 179.777 371.335, 191.166 372.291, 210 371.667 C 234.724 370.847, 252.692 366.499, 274.759 355.997 C 324.319 332.410, 358.303 286.231, 367.115 230.500 C 368.720 220.350, 368.761 193.661, 367.185 184.500 C 366.524 180.650, 365.722 175.925, 365.405 174 C 364.401 167.908, 360.865 155.767, 357.832 148 C 347.159 120.668, 328.290 94.599, 307.468 78.416 C 298.133 71.162, 279.302 59, 277.404 59 C 277.182 59, 277 78.313, 277 101.918 L 277 144.837 289.398 145.168 C 303.134 145.536, 304.911 146.274, 307.651 152.750 C 308.819 155.508, 308.819 156.492, 307.651 159.250 C 304.911 165.726, 303.134 166.464, 289.398 166.832 L 277 167.163 277 208.544 C 277 247.769, 277.106 250.210, 279.043 255.386 C 282.898 265.689, 290.366 270.542, 304.630 272.013 C 311.923 272.766, 313.525 273.274, 315.578 275.490 C 320.035 280.299, 320.005 285.722, 315.496 290.231 C 312.200 293.527, 309.236 294.033, 299.596 292.945 C 285.042 291.302, 277.046 288.051, 269.202 280.589 C 263.871 275.518, 260.904 270.521, 257.865 261.500 L 255.507 254.500 255.003 152.137 L 254.500 49.774 248.500 47.880 C 245.200 46.839, 237.100 45.090, 230.500 43.994 C 216.009 41.587, 189.897 41.396, 177.500 43.606 M 142.500 168.867 C 123.314 174.380, 108.082 191.102, 104.920 210.123 C 102.166 226.691, 107.147 242.120, 119.146 254.180 C 130.100 265.191, 141.779 269.989, 157.645 269.996 C 181.708 270.006, 201.870 255.244, 208.753 232.573 C 210.846 225.680, 210.798 211.013, 208.660 204 C 203.597 187.399, 188.470 173.136, 170.992 168.485 C 163.657 166.533, 149.983 166.716, 142.500 168.867 " stroke="none" fill="white" fill-rule="evenodd" transform="scale(0.075) translate(0 0)"></path>
    </g>
</svg>