<svg width="60" height="60" viewBox="0 0 60 60" xmlns="http://www.w3.org/2000/svg">
    <rect fill="transparent" x="0" y="0" width="60" height="60" rx="4.8"></rect>

    <g width="30" height="30" viewBox="0 0 30 30" transform="translate(15, 15)" fill="#FFFFFF">
        <path d="M 7.061 10.962 C 5.151 12.143, 6.226 15.500, 8.514 15.500 C 9.776 15.500, 10.610 14.727, 10.803 13.377 C 11.133 11.062, 9.062 9.726, 7.061 10.962 M 14 12.950 C 14 14.609, 14.816 14.945, 19.459 15.200 L 24.917 15.500 19.459 22.706 C 16.456 26.669, 14 30.832, 14 31.956 C 14 33.844, 14.609 34, 22 34 C 29.265 34, 30 33.821, 30 32.050 C 30 30.394, 29.185 30.055, 24.597 29.800 L 19.193 29.500 24.597 22.132 C 32.180 11.791, 31.996 11, 22 11 C 14.735 11, 14 11.179, 14 12.950 M 71 22.500 C 71 33.333, 71.116 34, 73 34 C 74.884 34, 75 33.333, 75 22.500 C 75 11.667, 74.884 11, 73 11 C 71.116 11, 71 11.667, 71 22.500 M 52 15.500 C 52 17.056, 51.433 18, 50.500 18 C 49.675 18, 49 18.675, 49 19.500 C 49 20.325, 49.675 21, 50.500 21 C 51.679 21, 52 22.389, 52 27.500 C 52 33.333, 52.205 34, 54 34 C 55.795 34, 56 33.333, 56 27.500 L 56 21 59 21 L 62 21 62 27.500 C 62 33.333, 62.205 34, 64 34 C 65.795 34, 66 33.333, 66 27.500 C 66 21.864, 66.244 21, 67.833 21 C 68.842 21, 69.667 20.325, 69.667 19.500 C 69.667 18.675, 68.842 18, 67.833 18 C 66.544 18, 66 17.258, 66 15.500 C 66 13.667, 65.467 13, 64 13 C 62.533 13, 62 13.667, 62 15.500 C 62 17.611, 61.533 18, 59 18 C 56.467 18, 56 17.611, 56 15.500 C 56 13.667, 55.467 13, 54 13 C 52.533 13, 52 13.667, 52 15.500 M 36.315 17.985 C 31.551 19.952, 30.370 28.120, 34.314 31.826 C 36.951 34.303, 42.597 34.747, 45.399 32.697 C 46.970 31.549, 47.003 31.247, 45.679 30.149 C 44.664 29.306, 43.968 29.242, 43.530 29.951 C 42.130 32.217, 36 30.466, 36 27.800 C 36 27.360, 38.475 27, 41.500 27 C 46.632 27, 47 26.840, 47 24.611 C 47 19.646, 41.123 16.001, 36.315 17.985 M 80.923 19.923 C 75.146 25.700, 78.631 34, 86.832 34 C 90.546 34, 93.737 32.070, 92.337 30.671 C 91.983 30.316, 90.004 30.295, 87.942 30.625 C 84.799 31.128, 84.007 30.882, 83.060 29.113 C 81.968 27.071, 82.132 27, 87.965 27 C 93.408 27, 94 26.796, 94 24.923 C 94 22.202, 88.748 17, 86 17 C 84.815 17, 82.531 18.315, 80.923 19.923 M 6.667 18.667 C 6.300 19.033, 6 22.633, 6 26.667 C 6 33.333, 6.182 34, 8 34 C 9.833 34, 10 33.333, 10 26 C 10 20, 9.667 18, 8.667 18 C 7.933 18, 7.033 18.300, 6.667 18.667 M 36.713 21.621 C 35.163 23.170, 36.165 24, 39.583 24 C 42.002 24, 43.033 23.594, 42.756 22.750 C 42.297 21.352, 37.818 20.515, 36.713 21.621 M 83.040 22.452 C 81.919 23.802, 82.229 24, 85.461 24 C 87.978 24, 89.035 23.599, 88.755 22.750 C 88.138 20.877, 84.504 20.687, 83.040 22.452 " stroke="none" fill="white" fill-rule="evenodd" transform="scale(0.6382978723404256) translate(-25 0)"></path>
    </g>
</svg>