<svg xmlns="http://www.w3.org/2000/svg" width="60" height="60" viewBox="0 0 60 60">
  <path fill="#FFFFFF" fill-rule="evenodd" d="M14.8333333,0 C23.1333333,0 29.8333333,6.73333333 29.8333333,15 C29.8333333,23.2666667 23.1,30 14.8333333,30 C7.86666667,30 1.96666667,25.2333333 0.333333333,18.7333333 C0.3,18.7 0.3,18.6333333 0.3,18.5666667 C0.3,18.1666667 0.633333333,17.8333333 1.03333333,17.8333333 L7.03333333,17.8333333 C7.33333333,17.8333333 7.56666667,18.0333333 7.7,18.2666667 L7.7,18.3 C8.96666667,21 11.7,22.8666667 14.8333333,22.8666667 C19.2,22.8666667 22.7,19.3666667 22.7,15 C22.7,10.6333333 19.2,7.13333333 14.8666667,7.13333333 C11.7,7.13333333 9,9 7.76666667,11.7 L7.76666667,11.7333333 C7.63333333,12 7.4,12.1666667 7.1,12.1666667 L1.03333333,12.1666667 C0.633333333,12.1666667 0.3,11.8333333 0.3,11.4333333 C0.3,11.4 0.3,11.3333333 0.333333333,11.2666667 C1.96666667,4.76666667 7.86666667,0 14.8333333,0 Z M14.8333333,11.4333333 C16.8,11.4333333 18.4,13.0333333 18.4,15 C18.4,16.9666667 16.8,18.5666667 14.8333333,18.5666667 C12.8666667,18.5666667 11.2666667,16.9666667 11.2666667,15 C11.2666667,13.0333333 12.8666667,11.4333333 14.8333333,11.4333333 Z" transform="translate(15 15)"/>
</svg>
