<svg width="60" height="60" viewBox="0 0 60 60" xmlns="http://www.w3.org/2000/svg">
    <rect fill="transparent" x="0" y="0" width="60" height="60" rx="4.8"></rect>

    <g width="30" height="30" viewBox="0 0 30 30" transform="translate(15, 15)" fill="#FFFFFF">
        <path d="M 48.634 9.140 C 31.175 12.530, 15.888 26.914, 10.595 44.932 C 9.173 49.772, 9 63.558, 9 171.708 L 9 293.054 129.750 292.777 L 250.500 292.500 257 290.286 C 274.008 284.492, 286.525 270.796, 290.508 253.621 C 291.860 247.791, 292.020 234.357, 291.778 147.224 L 291.500 47.500 289.108 41.500 C 283.130 26.506, 273.571 16.951, 258.500 10.906 L 252.500 8.500 153 8.348 C 93.959 8.258, 51.521 8.580, 48.634 9.140 M 92.192 83.024 C 90.282 84.189, 88.072 86.829, 86.964 89.271 C 85.137 93.294, 85.043 96.527, 85.022 155.750 L 85 218 113.451 218 C 130.358 218, 144.052 217.552, 147.201 216.895 C 155.021 215.264, 164.241 210.560, 169.353 205.591 C 185.744 189.661, 184.042 160.594, 166.036 148.926 L 161.067 145.707 165.963 140.350 C 180.607 124.328, 177.322 97.891, 159.380 87.377 C 149.805 81.766, 144.972 81, 119.161 81.004 C 97.198 81.007, 95.263 81.152, 92.192 83.024 M 118.270 103.641 C 117.043 103.912, 115.131 105.289, 114.020 106.702 C 112.222 108.987, 112 110.740, 112 122.635 L 112 136 124.750 135.996 C 135.708 135.993, 137.958 135.713, 140.759 134.005 C 145.778 130.945, 147.993 126.505, 147.993 119.500 C 147.993 112.402, 145.725 107.943, 140.827 105.411 C 137.571 103.727, 123.038 102.586, 118.270 103.641 M 114.132 160.560 C 112.158 163.068, 112 164.456, 112 179.227 L 112 195.183 126.750 194.825 C 143.159 194.427, 146.039 193.559, 150.171 187.765 C 152.154 184.986, 152.500 183.284, 152.500 176.323 C 152.500 167.470, 151.357 164.852, 145.619 160.562 C 143.221 158.769, 141.129 158.458, 129.562 158.175 L 116.263 157.850 114.132 160.560 " stroke="none" fill="white" fill-rule="evenodd" transform="scale(0.1) translate(0 0)"></path>
    </g>
</svg>