<svg width="60" height="60" viewBox="0 0 60 60" xmlns="http://www.w3.org/2000/svg">
    <rect fill="transparent" x="0" y="0" width="60" height="60" rx="4.8"></rect>

    <g width="30" height="30" viewBox="0 0 30 30" transform="translate(15, 15)" fill="#FFFFFF">
        <path d="M 16.200 8.200 C 15.297 9.103, 15 22.467, 15 62.200 L 15 115 11.964 115 C 9.302 115, 8.682 115.575, 6.925 119.675 C 5.823 122.247, 5.151 124.951, 5.432 125.684 C 5.852 126.777, 16.158 126.970, 62.708 126.758 C 126.191 126.469, 121.912 127.040, 118.303 119.349 C 116.825 116.198, 115.908 115.443, 113.249 115.187 L 110 114.873 110 77.137 C 110 49.119, 109.691 39.091, 108.800 38.200 C 108.008 37.408, 103.756 37, 96.300 37 L 85 37 85 23.200 C 85 13.800, 84.617 9.017, 83.800 8.200 C 82.082 6.482, 17.918 6.482, 16.200 8.200 M 30 29.500 L 30 37 37.500 37 L 45 37 45 29.500 L 45 22 37.500 22 L 30 22 30 29.500 M 55 29.500 L 55 37 62.500 37 L 70 37 70 29.500 L 70 22 62.500 22 L 55 22 55 29.500 M 30 59.500 L 30 67 37.500 67 L 45 67 45 59.500 L 45 52 37.500 52 L 30 52 30 59.500 M 55 59.500 L 55 67 62.500 67 L 70 67 70 59.500 L 70 52 62.500 52 L 55 52 55 59.500 M 80 59.500 L 80 67 87.500 67 L 95 67 95 59.500 L 95 52 87.500 52 L 80 52 80 59.500 M 30 89.500 L 30 97 37.500 97 L 45 97 45 89.500 L 45 82 37.500 82 L 30 82 30 89.500 M 55 98 L 55 114 62.500 114 L 70 114 70 98 L 70 82 62.500 82 L 55 82 55 98 M 80 89.500 L 80 97 87.500 97 L 95 97 95 89.500 L 95 82 87.500 82 L 80 82 80 89.500 " stroke="none" fill="white" fill-rule="evenodd" transform="scale(0.24) translate(0 -5)"></path>
    </g>
</svg>