<svg width="60" height="60" viewBox="0 0 60 60" xmlns="http://www.w3.org/2000/svg">
    <rect fill="transparent" x="0" y="0" width="60" height="60" rx="4.8"></rect>

    <g width="30" height="30" viewBox="0 0 30 30" transform="translate(15, 15)" fill="#FFFFFF">
        <path d="M 19.500 11.502 C 14.503 13.269, 9.478 18.616, 8.079 23.656 C 7.436 25.971, 7.009 39.011, 7.006 56.434 C 7 83.882, 7.109 85.594, 9.121 89.750 C 12.265 96.245, 17.733 99.500, 25.500 99.500 C 33.330 99.500, 38.731 96.254, 41.944 89.615 C 44.072 85.221, 44.122 84.262, 43.815 54.299 C 43.541 27.486, 43.278 23.095, 41.786 20.369 C 39.460 16.121, 34.710 12.291, 30.219 11.044 C 25.486 9.730, 24.379 9.777, 19.500 11.502 M 60.590 14.627 C 59.889 16.452, 61.585 19, 63.500 19 C 65.415 19, 67.111 16.452, 66.410 14.627 C 65.601 12.518, 61.399 12.518, 60.590 14.627 M 75.389 14.430 C 74.393 17.025, 75.788 19.169, 78.246 18.820 C 79.898 18.585, 80.500 17.833, 80.500 16 C 80.500 14.167, 79.898 13.415, 78.246 13.180 C 76.893 12.988, 75.750 13.488, 75.389 14.430 M 89.389 14.430 C 88.393 17.025, 89.788 19.169, 92.246 18.820 C 93.898 18.585, 94.500 17.833, 94.500 16 C 94.500 14.167, 93.898 13.415, 92.246 13.180 C 90.893 12.988, 89.750 13.488, 89.389 14.430 M 61 28.500 C 60.007 29.697, 60.007 30.303, 61 31.500 C 61.685 32.325, 62.810 33, 63.500 33 C 64.190 33, 65.315 32.325, 66 31.500 C 66.993 30.303, 66.993 29.697, 66 28.500 C 65.315 27.675, 64.190 27, 63.500 27 C 62.810 27, 61.685 27.675, 61 28.500 M 75.389 28.430 C 74.393 31.025, 75.788 33.169, 78.246 32.820 C 79.898 32.585, 80.500 31.833, 80.500 30 C 80.500 28.167, 79.898 27.415, 78.246 27.180 C 76.893 26.988, 75.750 27.488, 75.389 28.430 M 89.389 28.430 C 88.393 31.025, 89.788 33.169, 92.246 32.820 C 93.898 32.585, 94.500 31.833, 94.500 30 C 94.500 28.167, 93.898 27.415, 92.246 27.180 C 90.893 26.988, 89.750 27.488, 89.389 28.430 M 61.105 42.373 C 60.478 43.129, 60.246 44.479, 60.590 45.373 C 61.399 47.482, 65.601 47.482, 66.410 45.373 C 67.111 43.548, 65.415 41, 63.500 41 C 62.810 41, 61.732 41.618, 61.105 42.373 M 75.389 42.430 C 74.393 45.025, 75.788 47.169, 78.246 46.820 C 79.898 46.585, 80.500 45.833, 80.500 44 C 80.500 42.167, 79.898 41.415, 78.246 41.180 C 76.893 40.988, 75.750 41.488, 75.389 42.430 M 89.389 42.430 C 88.393 45.025, 89.788 47.169, 92.246 46.820 C 93.898 46.585, 94.500 45.833, 94.500 44 C 94.500 42.167, 93.898 41.415, 92.246 41.180 C 90.893 40.988, 89.750 41.488, 89.389 42.430 M 59 78.500 L 59 97 78 97 L 97 97 97 78.500 L 97 60 78 60 L 59 60 59 78.500 M 66 72.500 L 66 75 77.500 75 L 89 75 89 72.500 L 89 70 77.500 70 L 66 70 66 72.500 M 19 82 L 19 88 25 88 L 31 88 31 82 L 31 76 25 76 L 19 76 19 82 M 66.667 82.667 C 66.300 83.033, 66 84.158, 66 85.167 C 66 86.838, 67.015 87, 77.500 87 L 89 87 89 84.500 L 89 82 78.167 82 C 72.208 82, 67.033 82.300, 66.667 82.667 " stroke="none" fill="white" fill-rule="evenodd" transform="scale(0.2857142857142857) translate(0 0)"></path>
    </g>
</svg>