<svg width="60" height="60" viewBox="0 0 60 60" xmlns="http://www.w3.org/2000/svg">
    <rect fill="transparent" x="0" y="0" width="60" height="60" rx="4.8"></rect>

    <g width="30" height="30" viewBox="0 0 30 30" transform="translate(15, 15)" fill="#FFFFFF">
        <path d="M 61.500 1 C 61.160 1.550, 59.784 2, 58.441 2 C 57.098 2, 56 2.450, 56 3 C 56 3.550, 54.875 4, 53.500 4 C 52.125 4, 51 4.450, 51 5 C 51 5.550, 50.100 6, 49 6 C 47.900 6, 47 6.366, 47 6.813 C 47 7.261, 45.425 8.245, 43.500 9 C 41.575 9.755, 40 10.739, 40 11.187 C 40 11.634, 39.325 12, 38.500 12 C 37.675 12, 37 12.450, 37 13 C 37 13.550, 36.544 14, 35.986 14 C 34.662 14, 18 30.662, 18 31.986 C 18 32.544, 17.550 33, 17 33 C 16.450 33, 16 33.675, 16 34.500 C 16 35.325, 15.634 36, 15.187 36 C 14.739 36, 13.755 37.575, 13 39.500 C 12.245 41.425, 11.261 43, 10.813 43 C 10.366 43, 10 43.873, 10 44.941 C 10 46.009, 9.550 47.160, 9 47.500 C 8.450 47.840, 8 48.991, 8 50.059 C 8 51.127, 7.550 52, 7 52 C 6.450 52, 6 53.323, 6 54.941 C 6 56.559, 5.600 58.129, 5.110 58.432 C 4.132 59.037, 3.166 63.689, 2.348 71.750 C 2.055 74.637, 1.407 77, 0.907 77 C 0.408 77, 0 80.150, 0 84 L 0 91 30.500 91 L 61 91 61 87.250 C 61 83.638, 63.047 72.638, 64.489 68.500 C 68 58.424, 76.058 49.219, 84.836 45.257 C 92.351 41.866, 104.407 41.047, 111.531 43.444 C 117.518 45.458, 122.650 48.866, 127.153 53.819 C 130.461 57.457, 131.563 59.342, 134.166 65.818 C 135.613 69.417, 134.850 69.332, 145.250 67.045 C 154.369 65.039, 158.532 64.102, 163 63.049 C 165.475 62.465, 169.525 61.565, 172 61.048 C 183.279 58.692, 186.197 57.996, 187.067 57.459 C 188.290 56.703, 188.257 53.483, 187 50.986 C 186.450 49.894, 185.550 48.106, 185 47.014 C 184.450 45.921, 184 44.346, 184 43.514 C 184 42.681, 183.550 42, 183 42 C 182.450 42, 182 41.100, 182 40 C 182 38.900, 181.550 38, 181 38 C 180.450 38, 180 37.410, 180 36.689 C 180 35.967, 179.100 34.411, 178 33.230 C 176.900 32.050, 176 30.630, 176 30.076 C 176 29.522, 172.288 25.300, 167.750 20.695 C 159.257 12.074, 151.329 6, 148.570 6 C 147.706 6, 147 5.550, 147 5 C 147 4.450, 146.127 4, 145.059 4 C 143.991 4, 142.840 3.550, 142.500 3 C 142.160 2.450, 140.784 2, 139.441 2 C 138.098 2, 137 1.550, 137 1 C 137 0.351, 123.853 0, 99.559 0 C 75.677 0, 61.894 0.362, 61.500 1 M 0 111.941 C 0 115.759, 0.450 119.160, 1 119.500 C 1.550 119.840, 2 122.315, 2 125 C 2 127.685, 2.450 130.160, 3 130.500 C 3.550 130.840, 4 132.441, 4 134.059 C 4 135.677, 4.450 137, 5 137 C 5.550 137, 6 138.350, 6 140 C 6 141.650, 6.450 143, 7 143 C 7.550 143, 8 143.873, 8 144.941 C 8 146.009, 8.450 147.160, 9 147.500 C 9.550 147.840, 10 148.991, 10 150.059 C 10 151.127, 10.450 152, 11 152 C 11.550 152, 12 152.675, 12 153.500 C 12 154.325, 12.340 155, 12.756 155 C 13.172 155, 14.072 156.265, 14.757 157.812 C 15.441 159.359, 16.801 161.496, 17.778 162.562 C 18.755 163.628, 20.655 166.075, 22 168 C 25.197 172.576, 33.255 180.447, 37.022 182.672 C 38.660 183.640, 40 184.700, 40 185.029 C 40 185.358, 41.575 186.245, 43.500 187 C 45.425 187.755, 47 188.739, 47 189.187 C 47 189.634, 47.900 190, 49 190 C 50.100 190, 51 190.450, 51 191 C 51 191.653, 67.667 192, 99 192 C 130.333 192, 147 191.653, 147 191 C 147 190.450, 147.900 190, 149 190 C 150.100 190, 151 189.550, 151 189 C 151 188.450, 151.675 188, 152.500 188 C 153.325 188, 154 187.550, 154 187 C 154 186.450, 154.563 185.998, 155.250 185.996 C 158.435 185.987, 173.582 171.114, 176.919 164.719 C 177.699 163.224, 178.712 162, 179.169 162 C 179.626 162, 180 161.100, 180 160 C 180 158.900, 180.338 157.996, 180.750 157.992 C 181.648 157.983, 184 153.140, 184 151.301 C 184 150.585, 184.450 150, 185 150 C 185.550 150, 186 148.875, 186 147.500 C 186 146.125, 186.450 145, 187 145 C 187.550 145, 188 143.902, 188 142.559 C 188 141.216, 188.450 139.840, 189 139.500 C 189.839 138.981, 190.530 131, 189.736 131 C 189.591 131, 187.009 130.100, 184 129 C 180.991 127.900, 177.728 127, 176.751 127 C 175.773 127, 174.191 126.602, 173.236 126.115 C 171.536 125.249, 162.946 122.531, 154 120.030 C 151.525 119.338, 148.600 118.436, 147.500 118.025 C 142.935 116.319, 137.835 114.839, 137.619 115.158 C 137.492 115.346, 136.289 119.090, 134.946 123.478 C 132.769 130.592, 127.160 140.983, 123.545 144.597 C 122.821 145.322, 119.365 147.384, 115.864 149.180 C 109.874 152.255, 108.878 152.448, 98.903 152.473 C 91.894 152.491, 87.323 152.031, 85.403 151.116 C 83.806 150.355, 81.375 149.239, 80 148.636 C 74.363 146.162, 67.326 137.005, 64.527 128.500 C 63.504 125.388, 61.039 110.814, 61.018 107.750 L 61 105 30.500 105 L 0 105 0 111.941 " stroke="none" fill="white" fill-rule="evenodd" transform="scale(0.15625) translate(0 0)"></path>
    </g>
</svg>