<svg width="60" height="60" viewBox="0 0 60 60" xmlns="http://www.w3.org/2000/svg">
    <rect fill="transparent" x="0" y="0" width="60" height="60" rx="4.8"></rect>

    <g width="30" height="30" viewBox="0 0 30 30" transform="translate(15, 15)" fill="#FFFFFF">
        <path d="M 127.500 14.474 C 97.559 19.248, 72.694 32.265, 51.204 54.414 C 32.920 73.260, 21.332 94.855, 15.473 121 C 12.928 132.357, 12.354 160.920, 14.428 173 C 19.314 201.454, 32.011 226.010, 52.473 246.581 C 76.448 270.683, 104.188 283.777, 138.175 287.031 C 145.358 287.719, 171.994 288.003, 211 287.808 L 272.500 287.500 277.223 284.723 C 280.286 282.923, 282.923 280.286, 284.723 277.223 L 287.500 272.500 287.489 204.500 C 287.478 137.786, 287.435 136.287, 285.206 125.237 C 273.502 67.203, 228.950 23.633, 172 14.527 C 160.630 12.709, 138.731 12.683, 127.500 14.474 M 134.159 84.950 C 121.884 87.964, 112.670 93.288, 102.956 102.977 C 96.105 109.812, 93.590 113.184, 90.265 120 C 76.350 148.518, 83.319 180.916, 107.702 201.065 C 130.858 220.200, 166.457 220.800, 190.483 202.461 L 195.268 198.809 204.003 207.503 C 217.222 220.660, 216.439 222.251, 216.805 181.487 C 217.003 159.335, 216.709 144.888, 215.958 140 C 210.019 101.301, 171.937 75.673, 134.159 84.950 " stroke="none" fill="white" fill-rule="evenodd" transform="scale(0.1) translate(0 0)"></path>
    </g>
</svg>