<svg xmlns="http://www.w3.org/2000/svg" width="60" height="60" viewBox="0 0 60 60">
  <path fill="#FFFFFF" fill-rule="evenodd" d="M15.9892791,0.173763921 C20.4470865,2.19756949 24.9779017,4.28755449 29.4294982,6.32397659 C29.667037,6.43270811 29.978521,6.50668683 29.9788726,6.83586348 C29.9793413,7.16561361 29.668326,7.23901886 29.4302013,7.34786507 C24.9612232,9.39446646 20.4905236,11.4374651 16.0181072,13.476859 C15.3367798,13.7873403 14.6371713,13.7833259 13.9550236,13.4721565 C9.47407753,11.4273732 4.99439431,9.37993996 0.515976413,7.32985785 C0.285468863,7.22433781 -0.00456986885,7.1445096 0.00445355838,6.82370574 C0.0128910488,6.5235471 0.290390733,6.44555402 0.51210923,6.34404833 C5.0094088,4.28732509 9.55229425,2.19825767 14.0554532,0.154150957 C14.5314683,-0.0615916494 15.4933422,-0.0469106001 15.9892791,0.173649225 L15.9892791,0.173763921 Z M14.9859209,30.0000358 C14.6616634,30.0000358 14.418734,29.8796054 13.9553752,29.7098557 C9.48057558,27.6783655 5.01128379,25.6351764 0.542343571,23.5912991 C0.304804779,23.4826823 -0.00281205835,23.4059508 4.38447801e-07,23.0747097 C0.00293012261,22.7451889 0.310781335,22.6724718 0.548437314,22.5619052 C1.28964741,22.2169005 2.03472468,21.8796952 2.7794504,21.5419164 C3.52359018,21.2043669 4.2626909,21.2090694 5.00894005,21.5514361 C7.97143667,22.9105801 10.9369802,24.2628424 13.9006487,25.619119 C14.6365853,25.9558656 15.3661939,25.9488691 16.101193,25.6118932 C19.0733263,24.250128 22.0462922,22.8901044 25.0200891,21.5318231 C25.7222758,21.2110193 26.4337203,21.202073 27.1391883,21.5149629 C27.9325468,21.8667346 28.7200459,22.2311228 29.5080137,22.5936759 C29.6248495,22.6474682 29.7433259,22.7081422 29.8411774,22.7886586 C30.0517631,22.9624226 30.0545756,23.1976634 29.839654,23.3661514 C29.70899,23.4685747 29.5526621,23.5439298 29.399381,23.6138941 C24.9665345,25.6410259 20.5342739,27.6693046 16.0954509,29.6838198 C15.7504513,29.8402647 15.3102955,30.0000358 14.9859209,30.0000358 L14.9859209,30.0000358 Z M14.9702178,21.8769425 C14.8219757,21.8769425 14.2459998,21.7230209 13.9181096,21.5740312 C9.46170841,19.5485051 5.01128379,17.5103626 0.560507613,15.4732523 C0.321445385,15.3638326 0.00972698987,15.2931801 0.00351605944,14.9672149 C-0.00304643308,14.6214074 0.323203195,14.5522459 0.569296665,14.4376649 C1.31882706,14.0884165 2.07046683,13.7430677 2.82480191,13.4037979 C3.54011359,13.0821911 4.25659715,13.0897611 4.9713229,13.4164144 C7.96370231,14.7845047 10.9560817,16.1528243 13.9505705,17.5163268 C14.6437338,17.8319693 15.3476783,17.829446 16.0414275,17.5134594 C19.0445881,16.1447956 22.0456394,14.7718881 25.0484485,13.4023068 C25.7426664,13.085632 26.44415,13.0857467 27.1388367,13.3961133 C27.9305546,13.7496054 28.7173506,14.1137642 29.5049668,14.4758586 C29.6131308,14.5256365 29.7241072,14.5781671 29.8166852,14.650196 C30.0557475,14.836003 30.0537553,15.0813371 29.8119977,15.2672589 C29.718951,15.3389437 29.6084433,15.3918184 29.5002793,15.4413669 C25.0038001,17.4986637 20.5082583,19.5577955 16.0063885,21.6033933 C15.6970138,21.7441249 15.1183426,21.8769425 14.9702178,21.8769425 L14.9702178,21.8769425 Z" transform="translate(15 15)"/>
</svg>
