<svg width="60" height="60" viewBox="0 0 60 60" xmlns="http://www.w3.org/2000/svg">
    <rect fill="transparent" x="0" y="0" width="60" height="60" rx="4.8"></rect>

    <g width="30" height="30" viewBox="0 0 30 30" transform="translate(15, 15)" fill="#FFFFFF">
        <path d="M 144.131 87.525 C 122.145 92.351, 104.365 108.186, 96.210 130.202 L 93.507 137.500 93.218 239.500 C 92.893 354.044, 92.605 348.924, 100.228 364.287 C 105.742 375.399, 117.236 386.952, 128 392.203 C 142.881 399.463, 141.204 399.296, 203.750 399.737 L 260 400.134 260.118 420.817 C 260.184 432.193, 260.164 442.063, 260.075 442.750 C 259.693 445.690, 260.930 444.705, 298.893 411.854 L 312.286 400.264 332.393 399.722 C 355.179 399.107, 362.561 397.608, 374 391.271 C 383.765 385.861, 394.745 374.359, 399.759 364.287 C 407.395 348.946, 407.107 354.066, 406.786 239.500 L 406.500 137.500 403.398 129.465 C 396.918 112.678, 386.801 101.105, 371.998 93.545 C 357.237 86.007, 366.224 86.550, 252.500 86.327 C 168.290 86.162, 149.389 86.371, 144.131 87.525 M 185 165 L 185 182 194 182 L 203 182 203 246.500 L 203 311 194 311 L 185 311 185 327.500 L 185 344 224.500 344 L 264 344 264 327.500 L 264 311 254 311 L 244 311 244 286.500 L 244 262 268 262 L 292 262 292 245.500 L 292 229 268 229 L 244 229 244 205.500 L 244 182 267 182 L 290 182 290 190.500 L 290 199 307.500 199 L 325 199 325 173.500 L 325 148 255 148 L 185 148 185 165 " stroke="none" fill="white" fill-rule="evenodd" transform="scale(0.06) translate(0 0)"></path>
    </g>
</svg>