<svg width="60" height="60" viewBox="0 0 60 60" xmlns="http://www.w3.org/2000/svg">
    <rect fill="transparent" x="0" y="0" width="60" height="60" rx="4.8"></rect>

    <g width="30" height="30" viewBox="0 0 30 30" transform="translate(15, 15)" fill="#FFFFFF">
        <path d="M 10.571 113.571 C 9.391 114.751, 9 117.242, 9 123.571 C 9 137.076, 4.881 136, 56.583 136 C 91.002 136, 100.081 135.737, 99.757 134.750 C 99.387 133.619, 17.985 112.096, 13.821 112.028 C 12.898 112.012, 11.436 112.707, 10.571 113.571 M 270.500 170.787 C 251.411 172.844, 82.382 197.446, 79.148 198.638 C 72.062 201.251, 72 201.632, 72 242.245 C 72 284.653, 71.453 282.580, 82.400 281.686 C 92.187 280.888, 100.085 278.613, 102.218 275.979 C 103.754 274.082, 104 271.663, 104 258.427 C 104 245.530, 104.319 242.221, 105.998 237.736 C 108.347 231.457, 112.724 226.887, 119.074 224.082 C 121.589 222.971, 156.963 212.168, 197.682 200.074 C 238.401 187.981, 272.881 177.556, 274.303 176.908 C 276.927 175.712, 278.407 173.467, 277.519 172.030 C 276.827 170.912, 273.997 170.411, 270.500 170.787 M 366.500 187.192 C 356.782 192.302, 194.156 286.483, 191.141 288.746 C 184.145 293.999, 184.047 294.710, 184.022 340.128 C 184.003 375.955, 184.187 380.910, 185.580 382.067 C 186.784 383.066, 187.840 383.121, 190.016 382.300 C 191.586 381.707, 207.707 371.942, 225.840 360.600 C 243.973 349.258, 260.412 339.308, 262.372 338.489 C 270.071 335.272, 274.564 336.657, 290.395 347.131 C 296.938 351.459, 302.890 355, 303.622 355 C 306.008 355, 307.775 350.781, 312.960 332.701 C 319.647 309.385, 321.544 304.511, 325.736 299.870 C 327.658 297.743, 337.616 290.774, 347.865 284.384 C 368.747 271.366, 371.463 269.204, 374.104 263.500 C 375.797 259.843, 375.958 256.405, 375.978 223.450 C 376.001 186.357, 375.855 184.936, 372.050 185.044 C 371.197 185.069, 368.700 186.035, 366.500 187.192 " stroke="none" fill="white" fill-rule="evenodd" transform="scale(0.05859375) translate(0 0)"></path>
    </g>
</svg>