<svg width="60" height="60" viewBox="0 0 60 60" xmlns="http://www.w3.org/2000/svg">
    <rect fill="transparent" x="0" y="0" width="60" height="60" rx="4.8"></rect>

    <g width="30" height="30" viewBox="0 0 30 30" transform="translate(15, 15)" fill="#FFFFFF">
        <path d="M 249.500 75.358 C 247.300 76.645, 235.150 83.671, 222.500 90.972 C 209.850 98.273, 197.025 105.716, 194 107.511 C 190.975 109.306, 184.900 112.789, 180.500 115.250 C 176.100 117.712, 166.875 122.999, 160 127 C 153.125 131.002, 140.075 138.557, 131 143.791 C 121.925 149.024, 110.900 155.417, 106.500 157.997 C 102.100 160.577, 93.473 165.496, 87.329 168.928 C 75.850 175.340, 72.334 178.114, 73.433 179.892 C 74.161 181.069, 87.024 188.795, 116 205.459 C 127.275 211.943, 141.675 220.284, 148 223.993 C 163.740 233.225, 173.312 238.744, 181 243.017 C 184.575 245.005, 202.442 255.264, 220.706 265.815 C 238.969 276.367, 254.865 285, 256.031 285 C 257.197 285, 261.154 283.255, 264.825 281.122 C 268.496 278.989, 276.450 274.418, 282.500 270.963 C 316.982 251.273, 348.493 233.107, 367 222.251 C 382.214 213.325, 388.299 209.794, 417.207 193.110 C 426.946 187.489, 435.946 182.015, 437.207 180.945 L 439.500 179 437.258 177.096 C 436.025 176.049, 427.025 170.597, 417.258 164.979 C 407.491 159.362, 394.325 151.740, 388 148.042 C 374.721 140.278, 298.203 96.029, 274.316 82.301 C 265.414 77.186, 257.089 73.004, 255.816 73.009 C 254.542 73.015, 251.700 74.072, 249.500 75.358 M 71.975 208.565 C 70.891 211.417, 70.797 409.439, 71.877 414.500 C 72.365 416.785, 73.349 417.784, 76.009 418.694 C 80.783 420.326, 426.395 420.538, 433.970 418.913 C 442.637 417.054, 442.002 425.544, 441.985 311.800 C 441.974 233.224, 441.698 210.959, 440.712 209 C 439.790 207.168, 438.525 206.425, 435.977 206.221 C 433.166 205.995, 429.818 207.498, 418.500 214.066 C 410.800 218.535, 401.125 224.092, 397 226.417 C 380.155 235.909, 340.695 258.627, 326.500 267.006 C 322.100 269.603, 304.224 279.906, 286.775 289.900 L 255.049 308.072 244.275 301.622 C 238.349 298.075, 229 292.726, 223.500 289.737 C 218 286.747, 206.525 280.135, 198 275.043 C 181.224 265.024, 166.691 256.602, 160.774 253.471 C 158.725 252.387, 151.300 248.059, 144.274 243.854 C 137.248 239.648, 129.250 234.974, 126.500 233.467 C 123.750 231.959, 118.575 229.041, 115 226.982 C 111.425 224.923, 104.374 221.174, 99.332 218.650 C 94.289 216.127, 87.357 212.248, 83.927 210.031 C 76.568 205.275, 73.375 204.883, 71.975 208.565 " stroke="none" fill="white" fill-rule="evenodd" transform="scale(0.05859375) translate(0 0)"></path>
    </g>
</svg>