<svg width="60" height="60" viewBox="0 0 60 60" xmlns="http://www.w3.org/2000/svg">
    <rect fill="transparent" x="0" y="0" width="60" height="60" rx="4.8"></rect>

    <g width="30" height="30" viewBox="0 0 30 30" transform="translate(15, 15)" fill="#FFFFFF">
        <path d="M -0 400.001 L -0 800.002 400.250 799.751 L 800.500 799.500 800.751 399.750 L 801.002 0 400.501 0 L 0 0 -0 400.001 M 0.495 400.500 C 0.495 620.500, 0.610 710.351, 0.750 600.169 C 0.890 489.986, 0.890 309.986, 0.750 200.169 C 0.610 90.351, 0.495 180.500, 0.495 400.500 M 375.501 87.142 C 359.587 88.280, 332.559 93.041, 319.500 97.005 C 304.422 101.583, 299.882 103.064, 291 106.298 C 277.878 111.078, 256.295 121.188, 246.582 127.106 C 244.887 128.139, 242.375 129.526, 241 130.189 C 239.625 130.852, 236.475 132.768, 234 134.447 C 231.525 136.126, 228.600 138.075, 227.500 138.779 C 219.219 144.072, 216 146.415, 216 147.149 C 216 147.617, 215.488 148, 214.861 148 C 213.767 148, 204.612 155.153, 195.060 163.471 C 189.586 168.238, 169.101 188.693, 163.485 195 C 156.227 203.150, 148 213.702, 148 214.861 C 148 215.488, 147.617 216, 147.149 216 C 146.430 216, 144.168 219.123, 138.500 227.944 C 137.950 228.800, 136.130 231.525, 134.457 234 C 132.783 236.475, 130.867 239.625, 130.199 241 C 129.530 242.375, 128.163 244.850, 127.160 246.500 C 117.809 261.883, 105.578 290.149, 100.116 309 C 98.921 313.125, 97.324 318.525, 96.568 321 C 93.760 330.185, 89.762 350.827, 87.947 365.500 C 85.323 386.723, 85.972 432.423, 89.125 448.480 C 89.667 451.241, 90.753 457.100, 91.538 461.500 C 93.877 474.609, 94.661 477.871, 98.867 492 C 102.890 505.515, 105.276 512.752, 106.944 516.500 C 107.434 517.600, 109.988 523.450, 112.620 529.500 C 131.973 573.980, 160.928 612.736, 198.461 644.400 C 212.857 656.545, 237.098 674, 239.567 674 C 239.858 674, 242.437 675.485, 245.298 677.299 C 251.772 681.405, 279.368 695, 281.229 695 C 281.983 695, 283.028 695.405, 283.550 695.900 C 284.670 696.960, 307.650 704.963, 317 707.549 C 320.575 708.538, 326.112 710.844, 329.304 712.673 C 332.496 714.503, 335.280 716, 335.492 716 C 335.704 716, 340.967 719.447, 347.188 723.660 C 358.098 731.047, 374.445 740.964, 375.829 741.034 C 376.198 741.053, 378.300 741.937, 380.500 743 C 387.756 746.505, 386.643 745.053, 378.766 740.737 C 369.111 735.448, 360.203 727.662, 354.942 719.915 C 340.149 698.130, 338.028 671.870, 349.256 649.500 C 356.964 634.142, 365.900 625.098, 380.751 617.624 C 390.541 612.696, 397.318 611.022, 411.333 610.068 C 424.203 609.192, 425.154 608.759, 426.862 603 C 432.753 583.143, 443.551 563.947, 456.889 549.622 C 464.202 541.768, 479.742 530.303, 490.608 524.745 C 522.553 508.405, 556.348 506.643, 591.978 519.461 C 608.679 525.470, 630.379 541.625, 644.211 558.350 L 646.568 561.199 655.222 558.501 C 662.645 556.187, 665.238 555.852, 673.446 556.151 C 678.709 556.343, 682.562 556.350, 682.008 556.167 C 680.294 555.600, 680.799 554.161, 687.454 540.626 C 691.003 533.407, 694.645 525.475, 695.546 523 C 696.447 520.525, 698.748 514.225, 700.659 509 C 708.725 486.943, 714.851 459.985, 717.474 435 C 720.247 408.580, 718.841 367.193, 714.517 348 C 713.711 344.425, 712.595 339.025, 712.036 336 C 709.608 322.856, 701.803 297.542, 695.540 282.500 C 690.628 270.700, 689.147 267.608, 682.138 254.516 C 674.355 239.980, 672.132 236.067, 669.682 232.598 C 668.479 230.894, 667.046 228.752, 666.497 227.839 C 654.761 208.293, 620.253 170.555, 599.499 154.568 C 589.010 146.488, 566.914 131.270, 564.300 130.325 C 563.310 129.967, 561.353 128.882, 559.951 127.912 C 557.112 125.949, 533.733 114.135, 527.500 111.513 C 479.032 91.125, 429.921 83.251, 375.501 87.142 M 736.924 729.750 L 734.500 732.500 737.250 730.076 C 739.820 727.810, 740.459 727, 739.674 727 C 739.495 727, 738.258 728.237, 736.924 729.750 M 731.405 734.250 L 729.500 736.500 731.750 734.595 C 733.864 732.805, 734.455 732, 733.655 732 C 733.465 732, 732.453 733.013, 731.405 734.250 M 725.441 738.555 C 723.577 740.049, 723.589 740.067, 725.750 739.020 C 726.987 738.420, 728 737.720, 728 737.465 C 728 736.700, 727.481 736.921, 725.441 738.555 M 718 742.500 C 715.525 743.825, 713.855 744.930, 714.290 744.955 C 715.352 745.016, 723 741.086, 723 740.480 C 723 739.817, 723.041 739.800, 718 742.500 M 396.750 748.662 C 397.438 748.940, 398.563 748.940, 399.250 748.662 C 399.938 748.385, 399.375 748.158, 398 748.158 C 396.625 748.158, 396.063 748.385, 396.750 748.662 M 700.750 748.662 C 701.438 748.940, 702.563 748.940, 703.250 748.662 C 703.938 748.385, 703.375 748.158, 702 748.158 C 700.625 748.158, 700.063 748.385, 700.750 748.662 M 407.762 749.707 C 409.006 749.946, 410.806 749.937, 411.762 749.687 C 412.718 749.437, 411.700 749.241, 409.500 749.252 C 407.300 749.263, 406.518 749.468, 407.762 749.707 M 689.250 749.689 C 690.212 749.941, 691.788 749.941, 692.750 749.689 C 693.712 749.438, 692.925 749.232, 691 749.232 C 689.075 749.232, 688.288 749.438, 689.250 749.689 M 416.750 750.706 C 417.988 750.944, 420.012 750.944, 421.250 750.706 C 422.488 750.467, 421.475 750.272, 419 750.272 C 416.525 750.272, 415.512 750.467, 416.750 750.706 " stroke="none" fill="white" fill-rule="evenodd" transform="scale(0.0375) translate(0 0)"></path>
    </g>
</svg>