<svg width="60" height="60" viewBox="0 0 60 60" xmlns="http://www.w3.org/2000/svg">
    <rect fill="transparent" x="0" y="0" width="60" height="60" rx="4.8"></rect>

    <g width="30" height="30" viewBox="0 0 30 30" transform="translate(15, 15)" fill="#FFFFFF">
        <path d="M 147.497 100.849 C 139.555 105.691, 139.362 109.374, 146.227 125.076 C 155.604 146.523, 164.536 173.644, 166.951 188 C 167.459 191.025, 168.532 196.875, 169.333 201 C 172.353 216.538, 173.200 230.210, 172.708 255.500 C 172.189 282.170, 171.431 289.963, 167.414 309.880 C 162.382 334.833, 154.299 359.475, 144.086 381 C 139.290 391.108, 140.407 398.067, 147.357 401.365 C 151.960 403.550, 154.073 403.428, 158.025 400.750 C 164.738 396.202, 177.780 365.278, 185.966 334.500 C 203.481 268.648, 199.858 200.469, 175.492 137.426 C 163.222 105.678, 155.698 95.848, 147.497 100.849 M 218.314 139.899 C 212.198 143.727, 211.549 148.762, 215.530 161.500 C 219.660 174.712, 223.888 193.926, 226.241 210.174 C 228.106 223.048, 228.450 229.659, 228.394 251.500 C 228.334 274.348, 228.012 279.503, 225.734 294.027 C 223.106 310.784, 218.933 328.966, 214.379 343.500 C 211.421 352.943, 211.770 356.447, 216.078 360.575 C 218.599 362.990, 219.981 363.500, 224 363.500 C 233.070 363.500, 235.349 359.276, 242.886 328.500 C 245.754 316.788, 248.771 300.129, 251.125 283 C 251.767 278.325, 252.300 263.475, 252.308 250 C 252.324 224.548, 251.064 212.016, 245.976 187 C 243.790 176.252, 238.225 156.311, 235.047 147.840 C 231.806 139.201, 224.766 135.860, 218.314 139.899 M 283.500 177.427 C 275.642 180.832, 274.651 184.976, 277.621 202.019 C 282.579 230.475, 282.573 269.942, 277.605 298.793 C 274.822 314.953, 275.175 318.286, 280.106 322.436 C 282.340 324.316, 284.298 325, 287.442 325 C 295.211 325, 299.134 319.987, 300.916 307.784 C 301.421 304.328, 302.642 296.550, 303.629 290.500 C 306.464 273.128, 306.189 227.545, 303.131 208 C 300.255 189.612, 299.242 185.041, 297.431 182.264 C 294.338 177.523, 288.198 175.391, 283.500 177.427 M 338.449 213.551 C 336.770 214.380, 334.571 216.456, 333.561 218.166 C 331.886 221.002, 331.730 223.889, 331.785 251.059 C 331.823 270.206, 332.228 281.557, 332.916 282.843 C 334.908 286.565, 339.059 289, 343.412 289 C 352.278 289, 354.700 284.669, 356.239 266.071 C 357.541 250.324, 356.219 224.309, 353.868 219.419 C 352.258 216.071, 346.594 211.990, 343.602 212.023 C 342.446 212.035, 340.127 212.723, 338.449 213.551 M 386.110 241.396 C 381.157 244.141, 379.500 251.652, 382.665 257.010 C 385.950 262.572, 393.791 263.729, 398.923 259.411 C 401.685 257.087, 402 256.249, 402 251.216 C 402 246.494, 401.576 245.167, 399.313 242.805 C 397.214 240.614, 395.736 240.008, 392.563 240.035 C 390.328 240.055, 387.425 240.667, 386.110 241.396 " stroke="none" fill="white" fill-rule="evenodd" transform="scale(0.05859375) translate(0 0)"></path>
    </g>
</svg>