<svg xmlns="http://www.w3.org/2000/svg" width="60" height="60" viewBox="0 0 60 60">
  <path fill="#FFFFFF" fill-rule="evenodd" d="M15,30 C15,21.7157288 21.7139073,15 30,15 C38.2842712,15 45,21.7139073 45,30 C45,38.2842712 38.2860927,45 30,45 C21.7157288,45 15,38.2860927 15,30 Z M19.5,30 C19.5,35.8002649 24.2010101,40.5 30,40.5 C35.8002649,40.5 40.5,35.7989899 40.5,30 C40.5,24.1997351 35.7989899,19.5 30,19.5 C24.1997351,19.5 19.5,24.2010101 19.5,30 Z M29.25,27 C29.25,25.5502525 30.4282025,24.375 31.875,24.375 C33.3247475,24.375 34.5,25.5532025 34.5,27 C34.5,28.4497475 33.3217975,29.625 31.875,29.625 C30.4252525,29.625 29.25,28.4467975 29.25,27 Z"/>
</svg>
