<svg width="60" height="60" viewBox="0 0 60 60" xmlns="http://www.w3.org/2000/svg">
    <rect fill="transparent" x="0" y="0" width="60" height="60" rx="4.8"></rect>

    <g width="30" height="30" viewBox="0 0 30 30" transform="translate(15, 15)" fill="#FFFFFF">
        <path d="M 89.149 88.640 C 81.583 92.495, 78.178 102.605, 81.875 110.241 C 84.777 116.237, 89.155 119.265, 95.705 119.809 C 104.923 120.573, 109.149 117.443, 116.963 104.063 C 119.221 100.197, 121.924 96.576, 122.969 96.017 C 128.582 93.013, 134 96.622, 134 103.365 C 134 111.563, 126.451 114.836, 121 109 C 119.459 107.350, 117.973 106, 117.698 106 C 117.423 106, 116.235 107.632, 115.058 109.626 C 112.998 113.118, 112.985 113.326, 114.707 115.229 C 122.063 123.357, 136.680 121.092, 141.750 111.038 C 144.472 105.641, 144.561 101.832, 142.095 96.401 C 139.412 90.494, 134.917 87.650, 127.543 87.197 C 119.397 86.695, 115.984 89.059, 109.743 99.524 C 102.344 111.928, 98.302 114.386, 92.635 109.927 C 87.543 105.922, 90.272 95, 96.364 95 C 98.903 95, 103.661 97.679, 105.314 100.039 C 106.712 102.034, 106.809 101.989, 108.976 98.316 C 111.431 94.156, 111.104 92.913, 106.686 89.615 C 103.011 86.871, 93.643 86.351, 89.149 88.640 M 27.999 90.250 C 22.896 93.734, 20.803 98.433, 21.430 105 C 22.020 111.175, 22.030 112.071, 21.602 120.500 C 21.435 123.800, 20.781 127.767, 20.149 129.315 C 15.264 141.285, 28.804 151.237, 44.168 146.970 C 46.225 146.399, 49.189 144.410, 50.918 142.441 C 54.967 137.830, 55.318 130.587, 51.660 127.150 C 48.775 124.440, 43.980 123, 37.838 123 C 32.303 123, 30 122.262, 30 120.489 C 30 119.561, 31.641 119.230, 35.766 119.325 C 46.380 119.569, 53 113.288, 53 102.975 C 53 99.101, 53.486 96.842, 54.500 96 C 58.408 92.756, 54.066 87.384, 48.972 89.160 C 47.050 89.830, 45.498 89.802, 44.137 89.073 C 40.487 87.120, 31.640 87.765, 27.999 90.250 M 59.571 89.571 C 58.318 90.825, 58 93.567, 58 103.137 C 58 116.056, 58.805 119, 62.335 119 C 66.134 119, 67 117.117, 67 108.856 C 67 99.447, 68.886 96.600, 76 95.275 C 80.134 94.505, 80.500 94.196, 80.500 91.468 C 80.500 88.749, 80.179 88.474, 76.674 88.185 C 74.333 87.992, 71.873 88.508, 70.339 89.514 C 68.052 91.012, 67.677 91.017, 66.087 89.578 C 63.870 87.573, 61.573 87.570, 59.571 89.571 M 145.250 88.662 C 143.032 89.557, 143.886 92.640, 149.966 105.693 C 154.934 116.358, 156.328 118.550, 158.301 118.801 C 161.365 119.189, 161.665 118.754, 168.366 104.211 C 172.949 94.265, 173.828 91.548, 172.979 89.961 C 172.394 88.868, 170.891 88, 169.582 88 C 167.252 88, 165.285 91.155, 160.296 102.894 L 158.853 106.287 155.163 98.394 C 153.133 94.052, 151.115 89.938, 150.677 89.250 C 149.874 87.987, 147.547 87.735, 145.250 88.662 M 181.241 89.937 C 173.989 94.487, 171.604 105.098, 176.258 112.102 C 179.586 117.110, 186.342 120.267, 191.987 119.453 C 200.208 118.268, 204.959 114.660, 203.034 111.064 C 201.738 108.641, 199.164 108.409, 196.441 110.468 C 193.630 112.595, 186.690 112.420, 184.655 110.171 C 181.340 106.509, 182.480 106, 194 106 L 205 106 205 101.629 C 205 97.978, 204.368 96.545, 201.166 92.937 C 197.503 88.809, 197.044 88.600, 190.916 88.254 C 185.758 87.962, 183.861 88.292, 181.241 89.937 M 184.494 97.006 C 183.496 98.110, 182.923 99.256, 183.221 99.555 C 183.519 99.853, 186.854 99.962, 190.632 99.798 L 197.500 99.500 195.250 97.250 C 192.357 94.357, 187.001 94.236, 184.494 97.006 M 31.455 98.455 C 26.553 103.356, 29.931 111, 37 111 C 41.385 111, 45 107.530, 45 103.320 C 45 99.878, 40.762 96, 37 96 C 35.052 96, 33.002 96.907, 31.455 98.455 M 29.660 132.443 C 28.836 134.590, 30.479 138.586, 32.505 139.364 C 37.647 141.337, 45 138.770, 45 135.002 C 45 132.521, 44.629 132.364, 36.882 131.558 C 31.360 130.983, 30.164 131.130, 29.660 132.443 " stroke="none" fill="white" fill-rule="evenodd" transform="scale(0.13333333333333333) translate(0 0)"></path>
    </g>
</svg>