<svg width="60" height="60" viewBox="0 0 60 60" xmlns="http://www.w3.org/2000/svg">
    <rect fill="transparent" x="0" y="0" width="60" height="60" rx="4.8"></rect>

    <g width="30" height="30" viewBox="0 0 30 30" transform="translate(15, 15)" fill="#FFFFFF">
        <path d="M 179.006 104.656 C 179.009 111.720, 179.509 119.295, 180.118 121.488 C 182.340 129.489, 190.340 134, 202.308 134 C 206.524 134, 209.315 134.792, 214.848 137.560 C 226.851 143.565, 232.686 152.835, 233.949 167.902 C 235.252 183.460, 240.019 188.028, 254.899 187.978 C 262.787 187.952, 268.747 185.569, 271.859 181.197 C 274.245 177.847, 275.995 170.224, 276.010 163.114 C 276.030 153.653, 283.870 142.634, 294.364 137.316 C 297.763 135.593, 301.968 134.561, 307.898 133.995 C 326.858 132.184, 329.942 128.226, 329.978 105.656 L 330 91.812 315.750 92.172 C 304.385 92.459, 300.734 92.909, 297.716 94.396 C 291.992 97.216, 289.212 102.790, 288.082 113.711 C 286.984 124.333, 284.061 131.002, 277.875 137.005 C 269.574 145.061, 257.042 148.413, 246.057 145.515 C 239.583 143.807, 235.245 141.074, 230.032 135.419 C 224.373 129.279, 221.827 123.117, 220.939 113.405 C 219.987 102.988, 217.418 97.791, 211.737 94.786 C 208.049 92.836, 205.654 92.498, 193.250 92.179 L 179 91.812 179.006 104.656 M 247.123 93.002 C 239.001 94.920, 233.950 102.454, 234.076 112.462 C 234.255 126.651, 241.066 133.500, 255 133.500 C 268.538 133.500, 275.294 127.042, 275.294 114.101 C 275.294 98.153, 263.313 89.180, 247.123 93.002 M 64.044 161.250 C 64.119 183.868, 67.401 188.349, 85.111 190.010 C 95.797 191.013, 102.705 193.942, 108.755 200.036 C 115.306 206.634, 118.028 213.154, 119.008 224.594 C 119.887 234.847, 121.001 237.418, 126.268 241.351 C 128.216 242.805, 131.038 243.449, 136.973 243.792 C 153.970 244.776, 161 237.782, 161 219.889 C 161 209.865, 169.223 198.210, 179.763 193.296 C 183.264 191.663, 187.992 190.564, 193.889 190.010 C 211.635 188.346, 215 183.807, 215 161.532 L 215 148 203.182 148 C 189.526 148, 182.711 149.599, 178.773 153.726 C 175.210 157.462, 173.997 161.004, 172.998 170.596 C 171.542 184.578, 165.625 193.598, 154.229 199.208 C 148.351 202.102, 146.571 202.500, 139.521 202.499 C 132.936 202.499, 130.489 202.024, 125.852 199.851 C 114.055 194.322, 107.371 184.111, 105.873 169.329 C 104.117 152.006, 98.309 148, 74.951 148 L 64 148 64.044 161.250 M 133.221 149.026 C 123.310 151.064, 119.521 156.584, 119.509 169 C 119.501 176.141, 119.868 178.092, 121.800 181.200 C 125.709 187.486, 130.126 189.500, 140 189.500 C 147.184 189.500, 149.085 189.136, 152.281 187.149 C 161.366 181.501, 163.298 167.337, 156.424 156.770 C 152.222 150.309, 142.597 147.097, 133.221 149.026 M 297 161.532 C 297 183.807, 300.365 188.346, 318.111 190.010 C 338.738 191.945, 350.133 203.536, 351.891 224.371 C 353.176 239.603, 357.721 244.020, 372.066 243.978 C 380.736 243.952, 386.629 241.746, 389.723 237.367 C 392.081 234.030, 393.996 225.915, 394.010 219.201 C 394.022 213.085, 397.645 205.355, 403.016 199.984 C 408.966 194.034, 416.196 191.013, 426.889 190.010 C 444.599 188.349, 447.881 183.868, 447.956 161.250 L 448 148 437.049 148 C 423.806 148, 416.936 149.341, 412.935 152.708 C 408.528 156.416, 407.077 159.958, 406.127 169.329 C 404.629 184.111, 397.945 194.322, 386.148 199.851 C 378.073 203.636, 366.908 203.627, 358.804 199.829 C 347.067 194.329, 340.458 184.572, 339.002 170.596 C 338.003 161.004, 336.790 157.462, 333.227 153.726 C 329.289 149.599, 322.474 148, 308.818 148 L 297 148 297 161.532 M 365.646 149.052 C 356.555 151.317, 352.044 157.933, 352.044 169 C 352.044 177.573, 354.508 182.984, 360.097 186.684 C 363.881 189.188, 365.246 189.500, 372.426 189.500 C 378.603 189.500, 381.440 189.018, 384.500 187.448 C 392.867 183.155, 395.941 169.245, 390.735 159.238 C 386.332 150.776, 375.833 146.513, 365.646 149.052 M 179.024 216.141 C 179.037 222.938, 179.457 230.265, 179.957 232.423 C 181.983 241.155, 187.653 244.839, 200.758 245.936 C 215.296 247.153, 224.353 252.878, 230.052 264.455 C 232.516 269.459, 233.348 272.747, 233.931 279.791 C 235.224 295.395, 239.508 299.500, 254.500 299.500 C 262.209 299.500, 264.043 299.163, 267.281 297.149 C 272.611 293.835, 274.804 288.877, 275.827 277.825 C 276.827 267.019, 279.016 261.913, 285.330 255.655 C 291.528 249.511, 297.845 246.795, 307.949 245.926 C 317.345 245.118, 319.125 244.628, 323.367 241.686 C 328.613 238.047, 329.953 233.175, 329.978 217.656 L 330 203.812 315.750 204.172 C 304.385 204.459, 300.734 204.909, 297.716 206.396 C 291.992 209.216, 289.212 214.790, 288.082 225.711 C 286.781 238.293, 282.820 245.729, 274 252.150 C 268.500 256.155, 262.531 258.009, 254.659 258.158 C 245.158 258.339, 237.025 254.873, 230.445 247.838 C 224.412 241.388, 221.846 235.320, 220.934 225.350 C 220.016 215.309, 217.882 210.612, 212.671 207.163 C 208.857 204.640, 207.903 204.487, 193.827 204.144 L 179 203.782 179.024 216.141 M 245.684 205.449 C 238.088 208.158, 234.059 214.601, 234.022 224.101 C 233.995 231.004, 235.472 235.631, 238.886 239.339 C 243.235 244.063, 246.774 245.399, 255 245.424 C 268.543 245.464, 275.257 239.082, 275.326 226.105 C 275.412 209.706, 261.307 199.877, 245.684 205.449 M 65.006 273.250 C 65.012 287.986, 66.074 292.310, 70.860 297.092 C 74.828 301.058, 81.084 303, 89.889 303 C 99.753 303, 112.563 312.278, 117.261 322.824 C 118.568 325.758, 119.603 330.870, 120.040 336.545 C 121.115 350.507, 123.929 354.178, 135.156 356.266 C 139.604 357.093, 142.559 357.086, 146.606 356.237 C 157.342 353.985, 160.531 349.502, 161.932 334.689 C 162.959 323.838, 164.843 319.403, 171.210 312.852 C 177.350 306.534, 183.402 303.906, 194.331 302.810 C 205.848 301.654, 210.614 299.256, 213.750 293.038 C 215.761 289.050, 216 287.102, 216 274.696 L 216 260.817 201.250 261.158 C 187.726 261.472, 186.178 261.700, 182.623 263.910 C 177.704 266.968, 175.356 272.195, 174.498 282 C 173.585 292.432, 170.144 299.728, 163.049 306.282 C 155.438 313.311, 149.520 315.383, 138.677 314.814 C 132.046 314.466, 129.462 313.832, 125.184 311.504 C 114.468 305.671, 108.477 295.819, 107.012 281.620 C 105.232 264.364, 100.695 261.118, 78.250 261.044 L 65 261 65.006 273.250 M 130.500 262.881 C 128.300 263.891, 125.670 265.651, 124.655 266.793 C 120.439 271.534, 118.890 281.461, 121.115 289.477 C 123.738 298.925, 134.814 304.492, 146.151 302.061 C 157.068 299.720, 161.444 294.110, 161.407 282.500 C 161.383 274.829, 159.987 271.218, 155.339 266.803 C 149.213 260.983, 138.363 259.270, 130.500 262.881 M 297.158 275.750 C 297.449 288.319, 297.798 291.018, 299.517 294 C 302.363 298.939, 308.656 301.791, 319.031 302.842 C 339.380 304.905, 349.933 315.994, 351.949 337.434 C 352.978 348.371, 354.263 351.059, 360.105 354.500 C 362.788 356.081, 365.282 356.497, 372 356.487 C 387.154 356.464, 392.465 351.168, 393.654 334.892 C 395.047 315.823, 406.811 304.253, 426.441 302.644 C 436.227 301.842, 442.096 299.195, 445.206 294.179 C 447.256 290.874, 447.525 289.002, 447.853 275.750 L 448.218 261 434.859 261.044 C 412.164 261.118, 407.874 264.333, 405.981 282.684 C 404.902 293.143, 401.766 300.117, 395.579 305.820 C 387.729 313.056, 383.890 314.500, 372.500 314.499 C 363.573 314.499, 361.952 314.209, 357.392 311.805 C 347.396 306.532, 339 293.845, 339 284.012 C 339 272.467, 334.330 264.295, 326.488 262.118 C 324.295 261.509, 316.721 261.009, 309.658 261.006 L 296.817 261 297.158 275.750 M 363.500 262.202 C 359.161 263.712, 354.134 268.857, 352.996 272.956 C 351.724 277.535, 351.737 285.514, 353.025 290.152 C 357.420 305.972, 386.949 306.804, 392.082 291.252 C 394.732 283.222, 392.822 272.701, 387.702 267.132 C 382.736 261.730, 371.459 259.433, 363.500 262.202 M 179.044 332.139 C 179.119 354.881, 182.377 359.347, 200.111 361.010 C 215.266 362.432, 225.332 368.931, 230.767 380.803 C 233.284 386.301, 233.327 386.778, 233.131 407.450 C 232.908 431.088, 233.426 433.406, 239.898 437.730 C 242.898 439.734, 244.536 440, 253.898 439.996 C 262.642 439.993, 265.060 439.651, 267.696 438.044 C 274.036 434.178, 274.352 432.928, 275.173 408.469 C 275.859 388.060, 276.117 385.798, 278.321 380.869 C 283.486 369.318, 294.105 362.397, 308.777 361.021 C 326.671 359.342, 330 354.857, 330 332.421 L 330 318.778 315.750 319.178 C 301.121 319.590, 298.826 320.142, 294.155 324.375 C 290.413 327.766, 289.222 330.999, 288.138 340.715 C 286.484 355.530, 280.008 365.292, 268.148 370.851 C 260.155 374.597, 248.899 374.623, 240.988 370.914 C 229.244 365.406, 222.349 354.899, 220.864 340.249 C 219.826 330.002, 217.389 325.158, 211.632 321.892 C 207.951 319.803, 205.946 319.506, 193.250 319.163 L 179 318.778 179.044 332.139 M 247 320.175 C 237.727 322.810, 233.389 330.222, 234.232 341.996 C 235.172 355.129, 241.350 360.500, 255.500 360.483 C 262.130 360.475, 264.148 360.073, 267.281 358.136 C 275.468 353.075, 278.148 339.047, 272.703 329.756 C 267.429 320.757, 257.706 317.133, 247 320.175 " stroke="none" fill="white" fill-rule="evenodd" transform="scale(0.05859375) translate(0 0)"></path>
    </g>
</svg>