<svg width="60" height="60" viewBox="0 0 60 60" xmlns="http://www.w3.org/2000/svg">
    <rect fill="transparent" x="0" y="0" width="60" height="60" rx="4.8"></rect>

    <g width="30" height="30" viewBox="0 0 30 30" transform="translate(15, 15)" fill="#FFFFFF">
        <path d="M 109.400 162.400 L 106 165.800 106 255.631 L 106 345.462 116.217 335.481 C 121.836 329.992, 141.749 310.385, 160.467 291.912 C 200.893 252.013, 204.134 249, 206.611 249 C 207.766 249, 218.160 258.655, 233.008 273.519 C 246.478 287.005, 258.064 297.917, 258.754 297.769 C 259.797 297.545, 398 160.080, 398 159.266 C 398 159.120, 333.830 159, 255.400 159 L 112.800 159 109.400 162.400 M 334.986 238.506 C 270.550 302.924, 261.104 312, 258.493 312 C 255.938 312, 252.086 308.573, 231.390 287.890 C 212.524 269.036, 206.855 263.912, 205.383 264.381 C 204.347 264.711, 183.702 284.786, 159.504 308.991 L 115.509 353 258.678 353 L 401.847 353 404.889 350.440 C 406.645 348.963, 408.173 346.530, 408.500 344.690 C 408.813 342.935, 408.941 301.790, 408.784 253.256 L 408.500 165.011 334.986 238.506 M 120 170.255 C 120 171.889, 193.121 245, 194.755 245 C 195.440 245, 196.014 244.213, 196.030 243.250 C 196.065 241.282, 123.286 169, 121.270 169 C 120.572 169, 120 169.565, 120 170.255 M 319.462 268.062 C 318.656 269.365, 391.648 343, 393.745 343 C 394.435 343, 395 342.419, 395 341.708 C 395 340.470, 322.927 267.821, 321.079 267.197 C 320.586 267.031, 319.859 267.420, 319.462 268.062 " stroke="none" fill="white" fill-rule="evenodd" transform="scale(0.05859375) translate(0 0)"></path>
    </g>
</svg>