<svg width="60" height="60" viewBox="0 0 60 60" xmlns="http://www.w3.org/2000/svg">
    <rect fill="transparent" x="0" y="0" width="60" height="60" rx="4.8"></rect>

    <g width="30" height="30" viewBox="0 0 30 30" transform="translate(15, 15)" fill="#FFFFFF">
        <path d="M 45.604 167.750 C 46.613 169.262, 52.303 178.815, 58.249 188.979 L 69.060 207.457 68.384 222.613 L 67.708 237.769 72.954 237.769 L 78.200 237.769 77.490 222.622 L 76.780 207.475 84.017 194.987 C 87.997 188.119, 93.674 178.563, 96.633 173.750 L 102.013 165 97.080 165 L 92.148 165 82.824 180.483 C 77.696 188.999, 73.275 195.972, 73 195.979 C 72.725 195.986, 68.292 189.018, 63.148 180.496 L 53.796 165 48.783 165 L 43.770 165 45.604 167.750 M 351.260 167.199 C 350.671 167.915, 349.670 174.575, 349.035 182 C 348.400 189.425, 347.236 201.125, 346.449 208 C 345.662 214.875, 345.014 220.838, 345.009 221.250 C 345.004 221.662, 345.880 222, 346.955 222 C 348.433 222, 349.066 221.086, 349.550 218.250 C 349.903 216.188, 352.465 204.418, 355.244 192.097 C 358.877 175.987, 360.016 169.245, 359.297 168.097 C 358.033 166.077, 352.675 165.478, 351.260 167.199 M 293.045 169.027 C 274.234 172.989, 263.142 189.827, 267.004 208.561 C 268.502 215.828, 270.048 218.940, 274.738 224.132 C 279.313 229.196, 284.314 231.753, 293.361 233.655 C 311.766 237.524, 329.767 229.968, 336.102 215.714 C 339.424 208.241, 339.411 194.730, 336.074 187.221 C 333.099 180.524, 325.705 173.782, 318.299 171.011 C 311.866 168.604, 299.623 167.642, 293.045 169.027 M 219.205 173.837 C 216.293 174.874, 212.300 177.026, 210.333 178.618 C 203.229 184.368, 199.359 196.214, 201.074 206.960 C 203.528 222.332, 214.679 231, 232 231 C 245.015 231, 254.366 226.183, 259.564 216.801 C 262.263 211.928, 262.500 210.693, 262.500 201.500 C 262.500 193.094, 262.147 190.841, 260.289 187.366 C 257.276 181.733, 252.415 177.077, 247.011 174.650 C 240.480 171.715, 226.324 171.302, 219.205 173.837 M 293 173.891 C 286.082 176.346, 279.891 182.820, 277.899 189.682 C 275.760 197.050, 276.279 209.453, 278.991 215.757 C 283.154 225.434, 291.075 230.384, 302.500 230.449 C 317.790 230.535, 327.080 221.324, 328.674 204.498 C 329.367 197.182, 327.023 187.096, 323.418 181.886 C 317.717 173.648, 303.909 170.018, 293 173.891 M 107.976 183.750 C 103.743 194.322, 95.768 212.949, 90.636 224.250 L 88.025 230 92.900 230 L 97.775 230 100.961 222.098 C 103.931 214.728, 104.379 214.151, 107.608 213.546 C 111.931 212.735, 123.886 213.041, 126.526 214.030 C 127.810 214.511, 129.507 217.430, 131.382 222.385 L 134.265 230 139.132 230 C 141.810 230, 144 229.838, 144 229.639 C 144 229.441, 141.832 224.603, 139.182 218.889 C 136.532 213.175, 131.064 200.512, 127.032 190.750 L 119.700 173 115.990 173 L 112.280 173 107.976 183.750 M 148 201.500 L 148 230 152.500 230 L 157 230 157 217 L 157 204 173.128 204 L 189.257 204 188.538 217 L 187.819 230 192.659 230 L 197.500 230 197.520 201.500 L 197.541 173 192.659 173 L 187.777 173 188.500 186 L 189.223 199 173.112 199 L 157 199 157 186 L 157 173 152.500 173 L 148 173 148 201.500 M 222.500 177.662 C 214.379 181.943, 210.885 189.090, 210.850 201.493 C 210.803 218.344, 218.074 227.021, 232.210 226.984 C 242.514 226.957, 249.403 221.631, 252.110 211.599 C 252.719 209.345, 253.031 203.600, 252.804 198.834 C 252.451 191.403, 251.971 189.480, 249.434 185.334 C 245.519 178.935, 239.839 175.985, 231.538 176.040 C 228.038 176.063, 224.239 176.745, 222.500 177.662 M 115.189 186 C 114.647 187.375, 112.407 193.113, 110.211 198.750 L 106.218 209 116.064 209 L 125.910 209 123.343 202.250 C 115.631 181.978, 116.272 183.255, 115.189 186 M 340.980 231.038 C 338.772 235.163, 342.328 238.983, 346.998 237.501 C 349.467 236.717, 350.663 232.504, 348.989 230.487 C 347.148 228.269, 342.283 228.603, 340.980 231.038 " stroke="none" fill="white" fill-rule="evenodd" transform="scale(0.07444168734491315) translate(0 0)"></path>
    </g>
</svg>