<svg xmlns="http://www.w3.org/2000/svg" width="60" height="60" viewBox="0 0 60 60">
  <g fill="#FFFFFF" transform="translate(16 16)">
    <path d="M25.4465409,14 C25.4465409,11.7084285 20.4935118,9.15630781 14,9.15630781 C7.50648824,9.15630781 2.55345912,11.7084285 2.55345912,14 C2.55345912,16.2915715 7.50648824,18.8436922 14,18.8436922 C20.4935118,18.8436922 25.4465409,16.2915715 25.4465409,14 Z M27.7945493,14 C27.7945493,17.9255534 21.6185192,21.1078431 14,21.1078431 C6.38148081,21.1078431 0.205450734,17.9255534 0.205450734,14 C0.205450734,10.0744466 6.38148081,6.89215686 14,6.89215686 C21.6185192,6.89215686 27.7945493,10.0744466 27.7945493,14 Z"/>
    <path d="M21.9514354,21.9398827 C23.6609066,20.3480233 22.1240796,15.1395072 17.6133073,10.6352887 C13.102535,6.13107013 7.75803572,4.46825794 6.04856456,6.0601173 C4.3390934,7.65197665 5.87592044,12.8604928 10.3866927,17.3647113 C14.897465,21.8689299 20.2419643,23.5317421 21.9514354,21.9398827 Z M23.5824991,23.5685766 C20.6541069,26.2954951 13.989945,24.2221017 8.69767685,18.9375227 C3.40540873,13.6529438 1.48910867,7.15834192 4.41750089,4.43142341 C7.3458931,1.7045049 14.010055,3.77789834 19.3023231,9.06247727 C24.5945913,14.3470562 26.5108913,20.8416581 23.5824991,23.5685766 Z"/>
    <path d="M14,25.0377358 C16.3764446,25.0377358 19.0230882,20.2616006 19.0230882,14 C19.0230882,7.73839937 16.3764446,2.96226415 14,2.96226415 C11.6235554,2.96226415 8.9769118,7.73839937 8.9769118,14 C8.9769118,20.2616006 11.6235554,25.0377358 14,25.0377358 Z M14,27.3018868 C9.92905577,27.3018868 6.62890341,21.3464292 6.62890341,14 C6.62890341,6.65357078 9.92905577,0.698113208 14,0.698113208 C18.0709442,0.698113208 21.3710966,6.65357078 21.3710966,14 C21.3710966,21.3464292 18.0709442,27.3018868 14,27.3018868 Z"/>
    <path d="M10.267118,10.7589373 C5.92211053,15.4122134 4.57472668,20.6692756 6.34076916,22.2026363 C8.10681164,23.7359969 13.3878745,21.8943388 17.732882,17.2410627 C22.0778895,12.5877866 23.4252733,7.33072438 21.6592308,5.79736372 C19.8931884,4.26400306 14.6121255,6.1056612 10.267118,10.7589373 Z M23.2303551,4.11477166 C26.2556563,6.74147957 24.5755767,13.2966145 19.4777923,18.7560754 C14.3800079,24.2155362 7.79494603,26.5119362 4.76964489,23.8852283 C1.74434374,21.2585204 3.42442335,14.7033855 8.52220771,9.24392461 C13.6199921,3.78446375 20.205054,1.48806376 23.2303551,4.11477166 Z"/>
  </g>
</svg>
