<svg width="60" height="60" viewBox="0 0 60 60" xmlns="http://www.w3.org/2000/svg">
    <rect fill="transparent" x="0" y="0" width="60" height="60" rx="4.8"></rect>

    <g width="30" height="30" viewBox="0 0 30 30" transform="translate(15, 15)" fill="#FFFFFF">
        <path d="M 183 110.500 L 183 120 186.869 120 C 194.199 120, 208.416 123.054, 212.657 125.539 C 215.827 127.397, 217.269 129.126, 218.664 132.742 C 220.408 137.261, 220.500 143.397, 220.500 255 C 220.500 319.625, 220.145 374.174, 219.710 376.221 C 218.712 380.923, 214.772 385.651, 210.291 387.523 C 206.766 388.996, 199.137 390.414, 188.750 391.528 L 183 392.144 183 401.572 L 183 411 256.500 411 L 330 411 330 401.594 L 330 392.188 324.750 391.546 C 299.952 388.513, 295.174 385.861, 292.984 373.914 C 292.312 370.252, 292.052 328.399, 292.230 252.414 C 292.487 142.137, 292.590 136.294, 294.351 132.269 C 297.446 125.195, 305.642 121.632, 321.750 120.357 L 330 119.705 330 110.352 L 330 101 256.500 101 L 183 101 183 110.500 " stroke="none" fill="white" fill-rule="evenodd" transform="scale(0.05859375) translate(0 0)"></path>
    </g>
</svg>