<svg width="60" height="60" viewBox="0 0 60 60" xmlns="http://www.w3.org/2000/svg">
    <rect fill="transparent" x="0" y="0" width="60" height="60" rx="4.8"></rect>

    <g width="30" height="30" viewBox="0 0 30 30" transform="translate(15, 15)" fill="#FFFFFF">
        <path d="M 324.216 148.972 C 304.294 154.319, 288.932 167.885, 278.127 189.673 C 273.907 198.183, 269.455 209.789, 270.146 210.480 C 270.384 210.717, 272.586 210.196, 275.039 209.323 C 277.493 208.449, 282.955 207.513, 287.178 207.243 C 301.725 206.312, 308 212.087, 308 226.405 C 308 238.720, 301.256 254.710, 287.082 276 C 264.672 309.664, 256.469 307.305, 245.349 264 C 243.443 256.575, 239.446 235.875, 236.469 218 C 233.491 200.125, 230.330 183.025, 229.444 180 C 225.284 165.789, 216.817 154.829, 207.563 151.676 C 201.038 149.453, 192.222 149.544, 186.024 151.899 C 176.622 155.472, 160.087 167.683, 142 184.413 C 136.600 189.407, 122.872 201.738, 116.029 207.740 L 112.558 210.784 118.394 218.404 C 121.604 222.595, 124.606 226.256, 125.064 226.540 C 125.523 226.823, 130.084 224.343, 135.199 221.029 C 146.555 213.671, 149.179 213.360, 155.066 218.678 C 163.556 226.349, 168.291 239.534, 184.989 302 C 195.312 340.617, 196.242 343.587, 201.428 354.500 C 208.774 369.955, 217.851 380.184, 227.316 383.674 C 232.504 385.587, 242.949 385.235, 250.085 382.908 C 274.709 374.876, 301.683 350.638, 333.872 307.620 C 376.044 251.261, 390.670 216.252, 385.682 183.615 C 382.993 166.022, 376.128 155.593, 363.420 149.792 C 356.349 146.565, 334.860 146.115, 324.216 148.972 " stroke="none" fill="white" fill-rule="evenodd" transform="scale(0.05859375) translate(0 0)"></path>
    </g>
</svg>