<svg width="60" height="60" viewBox="0 0 60 60" xmlns="http://www.w3.org/2000/svg">
    <rect fill="transparent" x="0" y="0" width="60" height="60" rx="4.8"></rect>

    <g width="30" height="30" viewBox="0 0 30 30" transform="translate(15, 15)" fill="#FFFFFF">
        <path d="M 194.598 114.134 C 177.596 119.891, 164.899 134.603, 162.048 151.847 C 161.280 156.493, 161.032 194.854, 161.224 279 L 161.500 399.500 240 399.500 L 318.500 399.500 324.238 397.183 C 336.578 392.199, 343.803 385.263, 348.090 374.282 C 349.892 369.666, 350.350 366.483, 350.361 358.500 C 350.370 352.486, 349.888 347.603, 349.152 346.250 L 347.930 344 286.087 344 C 234.918 344, 224.048 343.763, 223.107 342.629 C 222.300 341.657, 222.046 332.851, 222.234 312.379 L 222.500 283.500 275.908 283.241 C 313.324 283.060, 329.718 282.649, 330.658 281.869 C 332.620 280.241, 332.620 230.759, 330.658 229.131 C 329.718 228.351, 313.324 227.940, 275.908 227.759 L 222.500 227.500 222.500 198 L 222.500 168.500 282.407 168.242 C 325.057 168.058, 342.706 167.659, 343.673 166.856 C 344.769 165.947, 344.981 160.571, 344.766 139.114 L 344.500 112.500 272.500 112.318 C 202.897 112.142, 200.304 112.202, 194.598 114.134 " stroke="none" fill="white" fill-rule="evenodd" transform="scale(0.05859375) translate(0 0)"></path>
    </g>
</svg>