<svg xmlns="http://www.w3.org/2000/svg" width="360" height="360" viewBox="0 0 360 360">
  <g fill="none" fill-rule="evenodd">
    <path fill="#FFF" d="M129.864167,124.934159 L80,154.868318 L89.4325124,160.771589 C94.6216264,164.018464 98.866565,167.058749 98.866565,167.528975 C98.866565,167.999202 94.7155818,170.775851 89.6419869,173.700506 C84.5683919,176.623619 80.4174087,179.363267 80.4174087,179.787242 C80.4174087,180.211217 84.5683919,182.950864 89.6419869,185.873977 C94.7155818,188.798632 98.866565,191.6092 98.866565,192.121053 C98.866565,192.632906 94.7155818,195.443473 89.6419869,198.368128 C84.5683919,201.291241 80.4297307,204.030889 80.4466735,204.454864 C80.462076,204.878838 102.980582,218.674206 130.487969,235.112093 L180.5,265 L230.512031,235.112093 C258.019418,218.674206 280.537924,204.878838 280.553326,204.454864 C280.570269,204.030889 276.431608,201.291241 271.358013,198.368128 C266.284418,195.443473 262.133435,192.632906 262.133435,192.121053 C262.133435,191.6092 266.284418,188.798632 271.358013,185.873977 C276.431608,182.950864 280.582591,180.211217 280.582591,179.787242 C280.582591,179.363267 276.431608,176.623619 271.358013,173.700506 C266.284418,170.775851 262.133435,167.999202 262.133435,167.528975 C262.133435,167.058749 266.378374,164.018464 271.567488,160.771589 L281,154.868318 L231.135833,124.934159 C203.71008,108.470063 180.92357,95 180.5,95 C180.07643,95 157.28992,108.470063 129.864167,124.934159 M137.374443,128.970399 C114.925248,142.500589 96.3713544,154.131373 96.1433968,154.8159 C95.9154393,155.501968 98.4876626,157.612591 101.859278,159.510457 L107.987946,162.957757 L144.243973,141.247166 L180.5,119.536575 L216.756027,141.247166 L253.012054,162.957757 L259.112998,159.525874 C262.46767,157.638801 265.213942,155.625306 265.213942,155.051784 C265.213942,153.531642 182.662516,104.231858 180.239697,104.30586 C179.112232,104.339778 159.822097,115.438666 137.374443,128.970399 M147.045694,147.896632 C129.918075,158.229282 115.887906,167.029456 115.867883,167.453431 C115.8494,167.877406 118.615695,169.815356 122.016575,171.759473 L128.199152,175.293109 L154.349576,159.769467 L180.5,144.245824 L206.650424,159.769467 L232.800848,175.293109 L238.983425,171.759473 C242.384305,169.815356 245.153681,167.877406 245.138278,167.453431 C245.09053,166.179965 183.258594,129.704261 180.626301,129.395915 C179.28628,129.240201 164.174853,137.565523 147.045694,147.896632 M158.166324,166.031959 C147.153512,172.741552 138.143029,178.953168 138.143029,179.835035 C138.143029,182.374259 179.334028,206.180056 181.998667,205.181017 C186.768832,203.392614 223.627098,180.935828 223.627098,179.816535 C223.627098,178.273266 182.299016,153.542434 179.991716,153.705857 C179.001333,153.775234 169.179137,159.322366 158.166324,166.031959 M101.562009,175.501242 C98.3860059,177.343605 95.786058,179.281556 95.786058,179.805742 C95.786058,180.331471 98.4999847,182.287922 101.81615,184.153411 L107.846243,187.546751 L113.368052,184.285999 C116.405432,182.49143 118.88986,180.467143 118.88986,179.787242 C118.88986,178.811329 108.852028,171.969147 107.635228,172.11407 C107.471961,172.134112 104.739552,173.657338 101.562009,175.501242 M247.115963,175.431865 C244.36353,177.135472 242.11014,179.090381 242.11014,179.77645 C242.11014,180.462518 244.594568,182.49143 247.631948,184.285999 L253.153757,187.546751 L259.18385,184.153411 C262.500015,182.287922 265.213942,180.322221 265.213942,179.787242 C265.213942,178.845247 253.814526,171.949105 252.68244,172.206573 C252.374389,172.275951 249.868396,173.728257 247.115963,175.431865 M121.600707,187.949141 C118.432405,189.819255 115.85094,191.697078 115.864803,192.121053 C115.914091,193.576442 178.057158,229.893349 180.5,229.893349 C182.939762,229.893349 245.082829,193.579526 245.138278,192.121053 C245.153681,191.697078 242.388926,189.762211 238.994207,187.821178 L232.822411,184.293708 L206.661206,199.97769 L180.5,215.663214 L154.438911,200.037818 C140.103772,191.444235 128.148324,184.443255 127.869538,184.480257 C127.589212,184.5188 124.769008,186.079027 121.600707,187.949141 M101.562009,200.170406 C98.3860059,202.012769 95.786058,203.910634 95.786058,204.388569 C95.786058,205.922587 177.910834,254.560971 180.5,254.560971 C183.11073,254.560971 265.213942,205.91642 265.213942,204.370069 C265.213942,203.881341 262.509257,201.958809 259.202333,200.099487 L253.190723,196.716939 L216.859224,218.524659 L180.527725,240.330836 L144.863155,218.923966 C125.248027,207.149801 108.781177,197.359839 108.268272,197.168665 C107.756908,196.977491 104.739552,198.328043 101.562009,200.170406"/>
    <circle cx="180" cy="180" r="150" stroke="#FFF" stroke-width="7"/>
  </g>
</svg>
