<svg width="60" height="60" viewBox="0 0 60 60" xmlns="http://www.w3.org/2000/svg">
    <rect fill="transparent" x="0" y="0" width="60" height="60" rx="4.8"></rect>

    <g width="30" height="30" viewBox="0 0 30 30" transform="translate(15, 15)" fill="#FFFFFF">
        <path d="M 68 95.507 C 68 96.500, 113.460 175, 114.035 175 C 114.345 175, 119.379 166.673, 125.222 156.496 L 135.846 137.991 123.609 116.746 L 111.372 95.500 89.686 95.230 C 77.759 95.082, 68 95.207, 68 95.507 M 171.055 125.264 C 161.460 141.894, 148.152 164.950, 141.483 176.500 C 93.796 259.085, 68 304.015, 68 304.487 C 68 304.791, 77.752 304.918, 89.672 304.770 L 111.343 304.500 135.278 263 C 200.019 150.749, 208.342 136.340, 209.644 134.250 L 211.046 132 271.023 132 C 306.469 132, 331 131.627, 331 131.088 C 331 130.587, 326.447 122.262, 320.882 112.588 L 310.764 95 249.632 95.014 L 188.500 95.027 171.055 125.264 M 233.240 189.964 C 230.358 194.894, 228 199.410, 228 200 C 228 200.590, 230.358 205.106, 233.240 210.036 L 238.479 219 285.240 219 L 332 219 332 200 L 332 181 285.240 181 L 238.479 181 233.240 189.964 M 179.741 234.161 C 164.776 259.665, 163.776 261.707, 165.042 264.180 C 165.696 265.456, 171.241 275.156, 177.365 285.736 L 188.500 304.971 249.632 304.986 L 310.764 305 320.882 287.412 C 326.447 277.738, 331 269.417, 331 268.920 C 331 268.394, 305.812 267.908, 270.806 267.758 L 210.612 267.500 198.874 247.118 C 192.418 235.908, 186.706 226.306, 186.179 225.779 C 185.569 225.169, 183.232 228.212, 179.741 234.161 " stroke="none" fill="white" fill-rule="evenodd" transform="scale(0.075) translate(0 0)"></path>
    </g>
</svg>