<svg width="60" height="60" viewBox="0 0 60 60" xmlns="http://www.w3.org/2000/svg">
    <rect fill="transparent" x="0" y="0" width="60" height="60" rx="4.8"></rect>

    <g width="30" height="30" viewBox="0 0 30 30" transform="translate(15, 15)" fill="#FFFFFF">
        <path d="M 109 42 L 109 49 102.430 49 C 96.190 49, 95.877 49.113, 96.180 51.250 C 96.467 53.271, 97.136 53.530, 102.750 53.798 L 109 54.095 109 61.048 C 109 67.797, 109.073 68, 111.500 68 C 113.927 68, 114 67.797, 114 61.048 L 114 54.095 120.250 53.798 C 125.864 53.530, 126.533 53.271, 126.820 51.250 C 127.123 49.113, 126.810 49, 120.570 49 L 114 49 114 42 C 114 35.200, 113.929 35, 111.500 35 C 109.071 35, 109 35.200, 109 42 M 67 60.500 L 67 71 57.500 71 L 48 71 48 74 L 48 77 57.500 77 L 67 77 67 87.500 L 67 98 70.500 98 L 74 98 74 87.500 L 74 77 84 77 L 94 77 94 74.036 L 94 71.072 84.250 70.786 L 74.500 70.500 74.215 60.250 L 73.930 50 70.465 50 L 67 50 67 60.500 M 147.785 60.250 L 147.500 70.500 138.358 70.786 L 129.216 71.072 128.781 74.036 L 128.346 77 138.173 77 L 148 77 148 87.500 L 148 98 151.500 98 L 155 98 155 87.500 L 155 77 164.500 77 L 174 77 174 74.038 L 174 71.075 164.750 70.788 L 155.500 70.500 155.215 60.250 L 154.930 50 151.500 50 L 148.070 50 147.785 60.250 M 107 95.466 L 107 106.932 96.250 107.216 L 85.500 107.500 85.500 111.500 L 85.500 115.500 96 115.648 L 106.500 115.796 106.782 127.398 L 107.063 139 111.032 139 L 115 139 115 127.534 L 115 116.068 125.750 115.784 L 136.500 115.500 136.807 111.250 L 137.115 107 126.057 107 L 115 107 115 95.500 L 115 84 111 84 L 107 84 107 95.466 M 170 101 L 170 108 163.500 108 L 157 108 157 111 L 157 114 163.500 114 L 170 114 170 121.500 L 170 129 173 129 L 176 129 176 121.500 L 176 114 182.500 114 L 189 114 189 111 L 189 108 182.500 108 L 176 108 176 101 L 176 94 173 94 L 170 94 170 101 M 46 102 L 46 109 39.500 109 C 33.233 109, 33 109.090, 33 111.500 C 33 113.910, 33.233 114, 39.500 114 L 46 114 46 121 C 46 127.800, 46.071 128, 48.500 128 C 50.929 128, 51 127.800, 51 121 C 51 114.062, 51.024 113.999, 53.750 113.870 C 56.479 113.741, 61.811 113.313, 63.250 113.107 C 63.663 113.048, 64 112.100, 64 111 C 64 109.205, 63.333 109, 57.500 109 L 51 109 51 102 C 51 95.200, 50.929 95, 48.500 95 C 46.071 95, 46 95.200, 46 102 M 67 134.500 L 67 145 57.500 145 L 48 145 48 148.500 L 48 152 57.500 152 L 67 152 67 162 L 67 172 71 172 L 75 172 75 162 L 75 152 84.500 152 L 94 152 94 148.500 L 94 145 84.500 145 L 75 145 75 134.500 L 75 124 71 124 L 67 124 67 134.500 M 148 134.500 L 148 145 138.201 145 L 128.402 145 128.810 148.500 L 129.219 152 138.609 152 L 148 152 148 162 L 148 172 151.500 172 L 155 172 155 162 L 155 152 164.500 152 L 174 152 174 148.500 L 174 145 164.500 145 L 155 145 155 134.500 L 155 124 151.500 124 L 148 124 148 134.500 M 108 161 L 108 168 101.500 168 L 95 168 95 171 L 95 174 101.500 174 L 108 174 108 181.440 L 108 188.880 110.750 188.672 C 113.447 188.467, 113.506 188.325, 113.794 181.232 L 114.088 174 120.827 174 C 127.540 174, 127.566 173.990, 127.449 171.250 C 127.335 168.568, 127.167 168.493, 120.666 168.204 L 114 167.909 114 160.954 L 114 154 111 154 L 108 154 108 161 " stroke="none" fill="white" fill-rule="evenodd" transform="scale(0.13333333333333333) translate(0 0)"></path>
    </g>
</svg>