<svg width="60" height="60" viewBox="0 0 60 60" xmlns="http://www.w3.org/2000/svg">
    <rect fill="transparent" x="0" y="0" width="60" height="60" rx="4.8"></rect>

    <g width="30" height="30" viewBox="0 0 30 30" transform="translate(15, 15)" fill="#FFFFFF">
        <path d="M 236.338 82.094 C 176.773 89.037, 124.764 125.892, 98.882 179.500 C 75.007 228.951, 75.007 283.049, 98.882 332.500 C 125.028 386.655, 176.735 423.007, 237.500 429.955 C 293.913 436.404, 352.749 412.802, 389.448 369 C 412.185 341.863, 425.915 309.830, 429.955 274.500 C 431.421 261.673, 431.351 122.752, 429.875 115.799 C 426.346 99.181, 412.819 85.654, 396.201 82.125 C 389.912 80.790, 247.766 80.762, 236.338 82.094 M 253.382 169.445 C 252.247 170.240, 245.090 179.577, 237.478 190.195 C 229.865 200.813, 214.577 222.100, 203.503 237.500 C 192.429 252.900, 183.062 266.320, 182.688 267.322 C 181.987 269.198, 183.453 272.935, 185.400 274.235 C 186.005 274.639, 205.786 274.976, 229.357 274.985 C 263.220 274.997, 272.116 275.262, 271.747 276.250 C 268.739 284.308, 252 337.317, 252 338.787 C 252 341.390, 254.346 343.232, 257.145 342.827 C 258.828 342.583, 268.118 330.449, 293.762 295 C 312.661 268.875, 328.546 246.458, 329.062 245.185 C 330.023 242.812, 328.847 239.265, 326.600 237.765 C 325.995 237.361, 306.214 237.024, 282.643 237.015 C 248.780 237.003, 239.884 236.738, 240.253 235.750 C 243.894 225.997, 260 174.513, 260 172.626 C 260 171.123, 259.203 169.644, 258.066 169.035 C 255.644 167.739, 255.842 167.722, 253.382 169.445 " stroke="none" fill="white" fill-rule="evenodd" transform="scale(0.05859375) translate(0 0)"></path>
    </g>
</svg>