<svg width="60" height="60" viewBox="0 0 60 60" xmlns="http://www.w3.org/2000/svg">
    <rect fill="transparent" x="0" y="0" width="60" height="60" rx="4.8"></rect>

    <g width="30" height="30" viewBox="0 0 30 30" transform="translate(15, 15)" fill="#FFFFFF">
        <path d="M 32.785 32.730 L -0 65.459 -0 111.985 L -0 158.511 32.756 191.256 L 65.511 224 112.011 224 L 158.511 224 191.756 190.744 L 225 157.489 225 110.744 C 225 66.274, 224.915 64.079, 223.250 65.623 C 221.078 67.637, 113.599 112.105, 113.240 111.138 C 113.096 110.753, 123.109 85.972, 135.490 56.069 C 147.870 26.167, 158 1.318, 158 0.850 C 158 0.383, 137.203 0, 111.785 0 L 65.570 0 32.785 32.730 M 0.462 112 C 0.462 138.125, 0.591 148.813, 0.749 135.750 C 0.907 122.688, 0.907 101.313, 0.749 88.250 C 0.591 75.188, 0.462 85.875, 0.462 112 " stroke="none" fill="white" fill-rule="evenodd" transform="scale(0.13392857142857142) translate(0 -0.5)"></path>
    </g>
</svg>