<svg width="60" height="60" viewBox="0 0 60 60" xmlns="http://www.w3.org/2000/svg">
    <rect fill="transparent" x="0" y="0" width="60" height="60" rx="4.8"></rect>

    <g width="30" height="30" viewBox="0 0 30 30" transform="translate(15, 15)" fill="#FFFFFF">
        <path d="M 331 180.981 C 313.125 206.309, 295.087 231.862, 290.915 237.766 C 286.743 243.669, 277.222 257.161, 269.757 267.747 L 256.183 286.994 252.410 281.747 C 250.335 278.861, 238.217 261.650, 225.480 243.500 C 212.744 225.350, 190.956 194.300, 177.063 174.500 C 163.170 154.700, 151.171 137.839, 150.397 137.031 C 149.189 135.769, 149.027 151.648, 149.246 249.936 L 149.500 364.310 156.500 364.390 L 163.500 364.470 163.755 273.067 L 164.011 181.665 185.029 211.083 C 231.674 276.367, 246.707 297.441, 251 303.566 C 253.475 307.096, 255.819 309.876, 256.209 309.743 C 256.599 309.609, 266.174 296.450, 277.486 280.500 C 288.799 264.550, 300.309 248.350, 303.065 244.500 C 305.820 240.650, 317.171 224.691, 328.287 209.035 L 348.500 180.570 348.755 272.785 L 349.010 365 356.037 365 C 360.737 365, 363.220 364.586, 363.539 363.750 C 363.801 363.063, 363.899 311.297, 363.757 248.715 L 363.500 134.931 331 180.981 " stroke="none" fill="white" fill-rule="evenodd" transform="scale(0.05859375) translate(0 0)"></path>
    </g>
</svg>