<svg width="60" height="60" viewBox="0 0 60 60" xmlns="http://www.w3.org/2000/svg">
    <rect fill="transparent" x="0" y="0" width="60" height="60" rx="4.8"></rect>

    <g width="30" height="30" viewBox="0 0 30 30" transform="translate(15, 15)" fill="#FFFFFF">
        <path d="M 115.887 58.250 C 110.836 73.787, 105.273 91.667, 103.525 97.983 L 100.347 109.466 98.756 104.983 C 97.882 102.517, 93.034 88.800, 87.984 74.500 C 82.934 60.200, 78.353 47.263, 77.804 45.750 C 76.836 43.088, 76.568 43, 69.402 43 C 65.331 43, 62 43.392, 62 43.872 C 62 44.780, 84.215 103.630, 88.850 115 C 91.424 121.313, 91.514 122.247, 92 147.500 L 92.500 173.500 99.250 173.796 L 106 174.091 106 149.557 L 106 125.023 122.648 79.261 C 131.804 54.093, 139.507 32.712, 139.764 31.750 C 140.181 30.196, 139.384 30, 132.652 30 L 125.070 30 115.887 58.250 " stroke="none" fill="white" fill-rule="evenodd" transform="scale(0.15) translate(0 0)"></path>
    </g>
</svg>