<svg xmlns="http://www.w3.org/2000/svg" width="360" height="360" viewBox="0 0 360 360">
  <path fill="#FFF" fill-rule="evenodd" d="M145.347633,81.9228 L145.347633,119.9803 C124.638504,131.9689 110.694617,154.3692 110.694617,180.0013 C110.694617,218.2512 141.749211,249.3056 180.00065,249.3056 C218.252089,249.3056 249.306683,218.2512 249.306683,180.0013 C249.306683,154.3692 235.362796,131.9689 214.653667,119.9803 L214.653667,81.9228 C255.038419,96.2085 284,134.7496 284,180.0013 C284,237.3989 237.399909,284 180.00065,284 C122.601391,284 76,237.3989 76,180.0013 C76,134.7496 104.964181,96.2085 145.347633,81.9228 Z M162.674142,77.4404 C168.309677,76.494 174.097313,76 180.00065,76 C185.903987,76 191.691623,76.494 197.327158,77.4404 L197.327158,112.8823 C191.789124,111.4549 185.981987,110.6957 180.00065,110.6957 C174.019313,110.6957 168.212176,111.4549 162.674142,112.8823 L162.674142,77.4404 Z M162.674142,211.7681 L162.674142,130.9848 C168.095176,129.0647 173.927012,128.0221 180.00065,128.0221 C186.074288,128.0221 191.906124,129.0647 197.327158,130.9848 L197.327158,211.7681 C191.906124,213.6869 186.074288,214.7308 180.00065,214.7308 C173.927012,214.7308 168.095176,213.6869 162.674142,211.7681 Z"/>
</svg>
