<svg width="60" height="60" viewBox="0 0 60 60" xmlns="http://www.w3.org/2000/svg">
    <rect fill="transparent" x="0" y="0" width="60" height="60" rx="4.8"></rect>

    <g width="30" height="30" viewBox="0 0 30 30" transform="translate(15, 15)" fill="#FFFFFF">
        <path d="M 489.500 128.634 C 410.626 133.644, 336.765 161.492, 276.500 208.943 C 165.031 296.711, 111.491 437.099, 136.134 577 C 153.751 677.010, 212.457 767.586, 297 825.194 C 374.603 878.073, 468.904 900.218, 562 887.426 C 665.056 873.265, 757.459 817.234, 819.143 731.500 C 842.123 699.561, 863.206 656.437, 874.389 618.500 C 884.419 584.471, 889.948 546.790, 889.984 512.218 C 890.001 495.539, 889.179 491.908, 884.197 486.658 C 879.895 482.126, 874.796 480, 868.223 480 C 854.101 480, 844.096 483.876, 839.228 491.232 C 836.548 495.280, 836.488 495.719, 835.828 515.927 C 835.458 527.242, 834.449 542.174, 833.585 549.108 C 820.172 656.759, 755.863 749.838, 660.500 799.631 C 555.734 854.333, 429.414 847.835, 331 782.682 C 250.321 729.270, 198.001 643.795, 186.432 546.500 C 184.187 527.625, 184.202 491.393, 186.462 472.500 C 196.223 390.890, 233.800 318.752, 294.941 264.246 C 334.318 229.142, 385.129 202.912, 436.779 191.026 C 462.644 185.073, 474.809 183.761, 507.227 183.424 C 540.174 183.082, 540.673 182.994, 547.343 176.323 C 551.643 172.024, 553.937 165.826, 554.689 156.480 C 555.402 147.619, 552.738 140.644, 546.652 135.434 C 540.199 129.911, 535.087 128.828, 514 128.522 C 503.825 128.374, 492.800 128.425, 489.500 128.634 M 718.418 151.937 C 717.274 152.418, 715.136 154.238, 713.668 155.982 L 711 159.153 711 208.077 L 711 257 663.750 257.002 C 611.665 257.003, 612.256 256.937, 607.571 263.323 C 605.664 265.923, 605.500 267.524, 605.500 283.500 C 605.500 299.476, 605.664 301.077, 607.571 303.677 C 612.256 310.063, 611.665 309.997, 663.750 309.998 L 711 310 711 358.096 C 711 410.872, 710.874 409.722, 717.040 413.364 C 721.111 415.769, 752.889 415.769, 756.960 413.364 C 763.126 409.722, 763 410.872, 763 358.096 L 763 310 810.750 309.998 C 863.387 309.997, 862.739 310.069, 867.429 303.678 C 869.336 301.080, 869.500 299.479, 869.500 283.503 C 869.500 267.528, 869.336 265.926, 867.429 263.325 C 862.741 256.931, 863.388 257.003, 810.777 257.002 L 763.054 257 762.777 207.519 L 762.500 158.037 759.233 154.769 L 755.967 151.500 738.233 151.281 C 728.480 151.161, 719.563 151.456, 718.418 151.937 M 487.310 305.077 C 480.529 309.421, 481.108 305.186, 470.553 427.500 L 460.888 539.500 463.043 546.442 C 464.884 552.370, 466.098 554.270, 471.350 559.446 C 474.732 562.780, 478.850 566.164, 480.500 566.966 C 482.917 568.141, 563.546 622.208, 614.281 656.676 C 623.676 663.058, 625.633 664, 629.505 664 C 633.498 664, 634.660 663.388, 640.972 657.955 C 650.493 649.760, 652.827 644.804, 649.715 639.385 C 649.047 638.222, 624.455 611.478, 595.067 579.955 L 541.635 522.639 532.894 422.070 C 528.086 366.756, 523.897 319.550, 523.584 317.168 C 522.861 311.657, 520.348 307.387, 516.382 304.931 C 513.773 303.315, 511.404 303.003, 501.882 303.017 C 492.145 303.031, 490.039 303.329, 487.310 305.077 " stroke="none" fill="white" fill-rule="evenodd" transform="scale(0.029296875) translate(0 0)"></path>
    </g>
</svg>