<svg width="60" height="60" viewBox="0 0 60 60" xmlns="http://www.w3.org/2000/svg">
    <rect fill="transparent" x="0" y="0" width="60" height="60" rx="4.8"></rect>

    <g width="30" height="30" viewBox="0 0 30 30" transform="translate(15, 15)" fill="#FFFFFF">
        <path d="M 122.083 0.352 C 122.313 0.545, 126.775 2.187, 132 4 C 137.225 5.814, 145.629 9.209, 150.675 11.545 C 189.125 29.348, 186.965 45.860, 143.511 66.283 C 114.647 79.850, 86.483 94.503, 76.647 101.073 C 57.348 113.962, 42.538 129.759, 34.996 145.500 C 28.170 159.749, 26.514 167.370, 26.526 184.500 C 26.537 201.116, 27.478 205.621, 33.680 218.769 C 37.094 226.006, 44.408 236.560, 50.299 242.750 L 53.392 246 136.446 245.923 L 219.500 245.847 207 241.538 C 157.271 224.396, 129.911 202.599, 122.571 174.276 C 120.763 167.297, 120.507 152.360, 122.096 146.500 C 123.551 141.132, 129.521 129.436, 133.325 124.500 C 140.589 115.076, 148.728 106.613, 162.170 94.510 C 182.309 76.375, 195.911 62.335, 200 55.461 C 203.170 50.132, 203.500 48.867, 203.500 42.039 C 203.500 35.170, 203.213 34.087, 200.271 29.851 C 192.738 19.003, 173.109 9.245, 144.333 2.044 C 137.653 0.372, 120.567 -0.928, 122.083 0.352 " stroke="none" fill="white" fill-rule="evenodd" transform="scale(0.12195121951219512) translate(0 0)"></path>
    </g>
</svg>