<svg width="60" height="60" viewBox="0 0 60 60" xmlns="http://www.w3.org/2000/svg">
    <rect fill="transparent" x="0" y="0" width="60" height="60" rx="4.8"></rect>

    <g width="30" height="30" viewBox="0 0 30 30" transform="translate(15, 15)" fill="#FFFFFF">
        <path d="M 576.009 68.837 C 574.078 70.768, 572.987 73.085, 572.596 76.087 C 568.767 105.446, 565.713 122.142, 559.993 145 C 544.851 205.502, 519.771 257.235, 483.637 302.500 C 473.162 315.623, 447.291 341.361, 433.684 352.196 C 405.234 374.853, 371.565 394.206, 338.244 407.056 L 326.988 411.397 327.244 491.949 L 327.500 572.500 390.213 572.758 L 452.927 573.015 453.281 787.758 C 453.660 1017.415, 453.425 1006.105, 458.403 1034.500 C 472.231 1113.371, 515.560 1187.514, 576 1235.724 C 628.756 1277.805, 688.943 1301.480, 766.500 1310.658 C 788.377 1313.247, 846.750 1313.252, 866.500 1310.668 C 927.761 1302.650, 985.961 1283.676, 1021.966 1259.982 C 1032.213 1253.239, 1044.352 1241.915, 1043.826 1239.589 C 1043.647 1238.796, 1030.225 1198.717, 1014 1150.525 C 986.918 1070.086, 984.336 1062.945, 982.500 1063.417 C 981.400 1063.699, 974.650 1065.946, 967.500 1068.410 C 941.857 1077.247, 903.826 1083.958, 879.211 1083.989 C 861.759 1084.012, 839.032 1080.033, 826.650 1074.788 C 788.106 1058.460, 767.672 1024.475, 763.991 970.576 C 763.429 962.347, 763.023 876.843, 763.015 764.750 L 763 573 888.500 573 L 1014 573 1014 478.504 L 1014 384.008 889.250 383.754 L 764.500 383.500 764.247 224.750 L 763.994 66 671.420 66 L 578.846 66 576.009 68.837 " stroke="none" fill="white" fill-rule="evenodd" transform="scale(0.02142857142857143) translate(0 0)"></path>
    </g>
</svg>