<svg width="60" height="60" viewBox="0 0 60 60" xmlns="http://www.w3.org/2000/svg">
    <rect fill="transparent" x="0" y="0" width="60" height="60" rx="4.8"></rect>

    <g width="30" height="30" viewBox="0 0 30 30" transform="translate(15, 15)" fill="#FFFFFF">
        <path d="M 32.589 46.077 C 31.165 47.769, 30 49.973, 30 50.975 C 30 52.578, 39.434 76.138, 59.239 124 C 67.934 145.013, 67.834 144.496, 64.603 151.566 C 59.607 162.500, 54.369 165.983, 42.905 165.994 C 38.573 165.999, 36.899 166.454, 35.488 168.013 C 32.922 170.849, 33.183 175.498, 36.083 178.605 C 38.429 181.118, 38.792 181.182, 48.500 180.792 C 56.186 180.484, 59.440 179.901, 62.563 178.271 C 68.353 175.249, 73.655 169.445, 76.969 162.500 C 83.352 149.128, 121 53.725, 121 50.924 C 121 44.308, 112.289 40.501, 107.482 45.017 C 106.155 46.263, 100.018 61.158, 91.418 84.008 C 83.763 104.343, 77.238 120.985, 76.918 120.991 C 76.598 120.996, 69.649 104.090, 61.476 83.422 C 51.698 58.697, 45.922 45.358, 44.586 44.422 C 43.469 43.640, 40.895 43, 38.866 43 C 35.975 43, 34.618 43.665, 32.589 46.077 M 152 68.117 C 135.161 79.927, 123.464 90.324, 124.724 92.362 C 125.587 93.759, 132.875 92.308, 141.179 89.084 C 152.558 84.668, 171.246 75.202, 173.250 72.841 C 177.420 67.926, 173.656 59.981, 167.177 60.025 C 164.216 60.046, 161.260 61.622, 152 68.117 M 166.541 107.039 C 152.354 108.917, 140.639 111.369, 137.973 113.017 C 136.683 113.815, 136.692 114.120, 138.045 115.473 C 140.713 118.142, 152.853 120.047, 171.255 120.685 C 187.194 121.238, 189.205 121.124, 190.915 119.577 C 195.095 115.794, 194.247 108.345, 189.385 106.130 C 186.211 104.683, 183.523 104.790, 166.541 107.039 M 125.114 134.930 C 123.182 136.124, 128.325 141.503, 139.779 150.270 C 153.870 161.055, 164.533 168, 167.001 168 C 170.234 168, 175 162.737, 175 159.166 C 175 155.093, 171.618 152.451, 157.818 145.740 C 140.839 137.483, 127.902 133.207, 125.114 134.930 " stroke="none" fill="white" fill-rule="evenodd" transform="scale(0.13392857142857142) translate(0 0)"></path>
    </g>
</svg>