<svg width="60" height="60" viewBox="0 0 60 60" xmlns="http://www.w3.org/2000/svg">
    <rect fill="transparent" x="0" y="0" width="60" height="60" rx="4.8"></rect>

    <g width="30" height="30" viewBox="0 0 30 30" transform="translate(15, 15)" fill="#FFFFFF">
        <path d="M 108.137 107.863 L 104 112 104.004 151.250 C 104.009 201.886, 102.790 199.344, 127.500 200.263 C 150.583 201.121, 164.033 206.770, 179.020 221.899 C 185.677 228.620, 188.464 232.358, 191.768 239 C 197.652 250.830, 199.165 257.286, 199.738 273 C 200.283 287.973, 201.206 290.936, 206.299 294.040 C 209.327 295.887, 211.575 295.993, 248 295.993 C 284.425 295.993, 286.673 295.887, 289.701 294.040 C 295.766 290.343, 296.371 287.707, 295.675 268.015 C 294.728 241.209, 289.731 220.517, 278.801 198.144 C 262.797 165.383, 235.309 137.726, 202.851 121.725 C 179.114 110.023, 159.013 105.155, 130.887 104.295 L 112.273 103.727 108.137 107.863 " stroke="none" fill="white" fill-rule="evenodd" transform="scale(0.075) translate(0 0)"></path>
    </g>
</svg>