<svg xmlns="http://www.w3.org/2000/svg" width="60" height="60" viewBox="0 0 60 60">
  <path fill="#FFFFFF" d="M18.5376398,42 C16.6844404,42 15.1821255,40.5044063 15.1821255,38.659498 C15.1821255,36.8145897 16.6844404,35.3189961 18.5376398,35.3189961 C20.3908391,35.3189961 21.8931541,36.8145897 21.8931541,38.659498 C21.8931541,40.5044063 20.3908391,42 18.5376398,42 Z M30.6505666,41.0587469 C29.3397935,41.0587469 28.2772019,40.0009093 28.2772019,38.6960005 C28.2772019,37.3910917 29.3397935,36.3332541 30.6505666,36.3332541 C31.9613397,36.3332541 33.0239313,37.3910917 33.0239313,38.6960005 C33.0239313,40.0009093 31.9613397,41.0587469 30.6505666,41.0587469 Z M40.6353266,39.7686925 C40.0402328,39.7686925 39.5578139,39.2884319 39.5578139,38.6960005 C39.5578139,38.1035691 40.0402328,37.6233085 40.6353266,37.6233085 C41.2304204,37.6233085 41.7128393,38.1035691 41.7128393,38.6960005 C41.7128393,39.2884319 41.2304204,39.7686925 40.6353266,39.7686925 Z M30.0112414,31.6604869 C29.4212575,31.6604869 28.9842772,31.2038305 28.9842772,30.6381173 L28.9842772,26.2875634 C28.9842772,24.786756 28.2633199,23.6338487 26.6463718,23.6338487 C25.0294237,23.6338487 24.0462179,24.873731 24.0462179,26.3094949 L24.0462179,30.6381173 C24.0462179,31.2038305 23.6528451,31.6604869 23.0192537,31.6604869 C22.4073906,31.6604869 21.9922895,31.2038305 21.9922895,30.6381173 L21.9922895,26.2875634 C21.9922895,24.786756 21.2056946,23.6338487 19.5885957,23.6338487 C17.9280401,23.6338487 17.0540793,24.873731 17.0540793,26.3094949 L17.0540793,30.6381173 C17.0540793,31.2038305 16.6389782,31.6604869 16.0271151,31.6604869 C15.4371313,31.6604869 15,31.2038305 15,30.6381173 L15,22.9159667 C15,22.3069913 15.3933729,21.871966 16.0269642,21.871966 C16.7261932,21.871966 17.0539284,22.3504037 17.0539284,22.9159667 L17.0539284,23.6120673 C17.6439123,22.45916 18.8456083,21.7848407 20.1348211,21.7848407 C21.7080108,21.7848407 22.8879785,22.5679164 23.4779624,23.7208237 C24.3300439,22.4157476 25.5754983,21.7848407 27.1268088,21.7848407 C29.7707211,21.7848407 31.0380547,23.5904363 31.0380547,26.1353946 L31.0380547,30.6378169 C31.0380547,31.2036803 30.6231044,31.6603367 30.0112414,31.6603367 L30.0112414,31.6604869 Z M33.9224873,18 C34.5779578,18 35.1241833,18.5437817 35.1241833,19.1963197 C35.1241833,19.8488577 34.5779578,20.3926394 33.9224873,20.3926394 C33.2670167,20.3926394 32.7206404,19.8488577 32.7206404,19.1963197 C32.7206404,18.5437817 33.2668658,18 33.9224873,18 L33.9224873,18 Z M33.9224873,31.6606372 C33.3106242,31.6606372 32.8955231,31.2039807 32.8955231,30.6381173 L32.8955231,22.8941854 C32.8955231,22.3286224 33.3325034,21.8718157 33.9224873,21.8718157 C34.5124711,21.8718157 34.9494515,22.3286224 34.9494515,22.8941854 L34.9494515,30.6381173 C34.9491497,31.2038305 34.5341994,31.6604869 33.9224873,31.6604869 L33.9224873,31.6606372 Z M40.7392905,25.3957314 L43.3394444,22.1764537 C43.5141762,21.9805721 43.7328173,21.8718157 44.0169451,21.8718157 C44.5848988,21.8718157 44.9563925,22.2416474 44.9563925,22.763798 C44.9563925,22.9595293 44.8907549,23.1552607 44.7160231,23.3511423 L41.8536206,26.7445202 L44.7597815,30.1593791 C44.9126341,30.3334794 45,30.5074294 45,30.7685047 C45,31.2691744 44.5630196,31.6603367 44.0822809,31.6603367 C43.7764248,31.6603367 43.5360554,31.5515804 43.3613236,31.3337673 L40.7392905,28.0930087 L38.1172574,31.3337673 C37.9423747,31.5511297 37.7021562,31.6603367 37.3961493,31.6603367 C36.9154105,31.6603367 36.4784301,31.2685736 36.4784301,30.7685047 C36.4784301,30.5074294 36.5659469,30.3334794 36.7187995,30.1593791 L39.6249604,26.74437 L36.7625579,23.3511423 C36.5876752,23.1551105 36.5221885,22.9595293 36.5221885,22.763798 C36.5221885,22.2417976 36.8936822,21.871966 37.4617869,21.871966 C37.7457637,21.871966 37.9642539,21.9808725 38.1391366,22.1766039 L40.7392905,25.3957314 L40.7392905,25.3957314 Z"/>
</svg>
