<svg width="60" height="60" viewBox="0 0 60 60" xmlns="http://www.w3.org/2000/svg">
    <rect fill="transparent" x="0" y="0" width="60" height="60" rx="4.8"></rect>

    <g width="30" height="30" viewBox="0 0 30 30" transform="translate(15, 15)" fill="#FFFFFF">
        <path d="M 172.652 66.031 C 168.361 69.280, 166.213 71.537, 166.686 72.303 C 167.092 72.961, 178.607 88.470, 192.275 106.767 L 217.126 140.034 221.313 137.016 C 223.616 135.356, 226.732 132.986, 228.237 131.749 L 230.974 129.500 206.054 96.118 C 192.349 77.757, 180.735 62.335, 180.246 61.846 C 179.726 61.326, 176.566 63.068, 172.652 66.031 M 142.075 95.101 C 137.829 100.183, 137.122 101.544, 138.192 102.581 C 142.815 107.062, 202.619 155.960, 203.225 155.754 C 204.616 155.282, 213.837 143.545, 213.387 142.817 C 212.578 141.508, 150.144 89.992, 148.690 89.435 C 147.790 89.089, 145.358 91.172, 142.075 95.101 M 118.820 131.826 L 115.268 139.724 153.884 157.537 C 175.123 167.334, 192.726 175.454, 193.003 175.581 C 193.279 175.708, 195.137 172.300, 197.131 168.006 L 200.757 160.199 162.628 142.497 C 141.658 132.761, 124.021 124.600, 123.436 124.362 C 122.850 124.124, 120.773 127.483, 118.820 131.826 M 105.797 171.250 C 104.926 175.787, 104.300 179.597, 104.406 179.717 C 104.725 180.073, 186.032 197, 187.427 197 C 188.239 197, 189.321 193.980, 190.354 188.830 C 191.255 184.336, 191.882 180.585, 191.746 180.494 C 191.421 180.275, 108.662 163, 107.940 163 C 107.633 163, 106.669 166.713, 105.797 171.250 M 68 219 L 68 253 145.500 253 L 223 253 223 219 L 223 185 214.500 185 L 206 185 206 210.500 L 206 236 145.500 236 L 85 236 85 210.500 L 85 185 76.500 185 L 68 185 68 219 M 102 210.500 L 102 219 145.500 219 L 189 219 189 210.500 L 189 202 145.500 202 L 102 202 102 210.500 " stroke="none" fill="white" fill-rule="evenodd" transform="scale(0.0949367088607595) translate(0 0)"></path>
    </g>
</svg>