<svg xmlns="http://www.w3.org/2000/svg" width="360" height="360" viewBox="0 0 360 360">
  <g fill="none" fill-rule="evenodd">
    <g fill="#FFF" transform="translate(128.279 149.28)">
      <path d="M19.5468596 1.28781066C14.9521335 2.9365 12.5091033 8.44321639 14.3525395 12.9956377 15.5520875 15.9568443 19.3009001 18.5052459 22.4580412 18.5052459 25.8690645 18.5052459 29.8811222 15.5397016 30.7716903 12.3601639 32.4253452 6.45654754 28.3664723.824760656 22.4580412.824760656 21.566753.824760656 20.2566492 1.03297049 19.5468596 1.28781066M78.125807 1.28781066C73.5310808 2.9365 71.0880506 8.44321639 72.9314869 12.9956377 74.1310349 15.9568443 77.8798474 18.5052459 81.0369886 18.5052459 84.4480119 18.5052459 88.4600696 15.5397016 89.3506377 12.3601639 91.0042925 6.45654754 86.9454197.824760656 81.0369886.824760656 80.1457003.824760656 78.8355966 1.03297049 78.125807 1.28781066M16.6350949 25.1015429C10.4112018 26.3551396 4.60720449 29.3745437 2.61287942 32.3968396 1.29161206 34.3994134 1.07770287 35.440824 1.22030899 39.1853478L1.33014452 42.0771511 21.8567839 42.0771511 42.3834232 42.0771511 42.4864165 38.3543158C42.5811272 34.9195765 42.5163062 34.4966502 41.6480654 32.8956757 40.311313 30.4304134 35.5959478 27.3889593 30.8596959 25.9365511 26.3748052 24.5614986 20.9089573 24.2405084 16.6350949 25.1015429M75.2140423 25.1015429C68.9901492 26.3551396 63.1861519 29.3745437 61.1918268 32.3968396 59.8705594 34.3994134 59.6566502 35.440824 59.7992564 39.1853478L59.9090919 42.0771511 80.4357312 42.0771511 100.962371 42.0771511 101.065364 38.3543158C101.160075 34.9195765 101.095254 34.4966502 100.227013 32.8956757 98.8902604 30.4304134 94.1748952 27.3889593 89.4386432 25.9365511 84.9537526 24.5614986 79.4879047 24.2405084 75.2140423 25.1015429" opacity=".6" transform="translate(0 14)"/>
      <path d="M47.5610399,0.627909768 C41.2448392,2.86358225 37.8864956,10.3308558 40.4205995,16.5040764 C42.0695739,20.5195618 47.2229284,23.9752713 51.562934,23.9752713 C56.2519421,23.9752713 61.7671699,19.9539039 62.991401,15.6423548 C65.2646195,7.63687291 59.6850365,0 51.562934,0 C50.3377129,0 48.5367615,0.282338819 47.5610399,0.627909768 M43.5583443,32.920049 C35.0025877,34.619964 27.0240465,38.714367 24.2825213,42.8126914 C22.4662238,45.5282419 22.1721707,46.9404261 22.3682061,52.0181133 L22.5191929,55.9394858 L50.7364077,55.9394858 L78.9536224,55.9394858 L79.0952035,50.8912089 C79.2253987,46.2335988 79.1362917,45.660098 77.9427531,43.4891282 C76.1051688,40.1461581 69.6231301,36.0218546 63.112379,34.0523453 C56.9471651,32.1877327 49.4334654,31.7524604 43.5583443,32.920049 M67.6563407,80.1754014 C67.4716912,80.3587256 67.3202093,82.2390237 67.3202093,84.3541139 L67.3202093,88.2 L85.2653678,88.0710849 L103.210526,87.9426599 L103.210526,84.0212875 L103.210526,80.099915 L85.6014992,79.97149 C75.916559,79.9004151 67.8414852,79.9925674 67.6563407,80.1754014"/>
    </g>
    <rect width="165.6" height="134.6" x="97.7" y="112.7" stroke="#FFF" stroke-width="15.4" opacity=".9" rx="14"/>
  </g>
</svg>
