<svg width="60" height="60" viewBox="0 0 60 60" xmlns="http://www.w3.org/2000/svg">
    <rect fill="transparent" x="0" y="0" width="60" height="60" rx="4.8"></rect>

    <g width="30" height="30" viewBox="0 0 30 30" transform="translate(15, 15)" fill="#FFFFFF">
        <path d="M 91.892 51.354 C 76.996 57.482, 68.097 69.617, 67.205 85.017 C 66.781 92.342, 66.846 92.609, 69.330 93.741 C 73.234 95.519, 80.005 101.981, 83.168 106.946 L 86 111.392 86 98.562 C 86 91.324, 86.534 83.949, 87.226 81.640 C 89.492 74.077, 98.054 68, 106.443 68 C 110.548 68, 115 63.057, 115 58.500 C 115 55.795, 114.241 54.087, 112.077 51.923 C 109.507 49.353, 108.450 49.003, 103.327 49.024 C 99.576 49.039, 95.502 49.869, 91.892 51.354 M 40.031 95.815 C 36.633 99.213, 36.184 102.522, 38.510 107.020 C 40.328 110.536, 42.815 112, 46.966 112 C 50.864 112, 56.756 114.427, 59.831 117.298 C 65.016 122.139, 65.467 124.187, 66 145.339 L 66.500 165.178 69.306 167.589 C 71.118 169.146, 73.354 170, 75.622 170 C 84.330 170, 86.002 166.177, 85.994 146.282 C 85.991 138.152, 85.550 128.823, 85.014 125.551 C 82.081 107.637, 67.487 94.023, 50.281 93.151 C 43.359 92.800, 42.937 92.909, 40.031 95.815 M 127.079 94.587 C 117.037 98.230, 109.353 105.218, 104.635 115 C 101.764 120.953, 101.500 122.342, 101.500 131.500 C 101.500 140.400, 101.816 142.183, 104.369 147.712 C 107.783 155.101, 116.531 163.940, 123.683 167.227 C 127.710 169.078, 130.304 169.446, 139.500 169.470 C 148.966 169.496, 151.120 169.186, 154.943 167.248 L 159.386 164.995 161.998 167.498 C 165.687 171.032, 171.756 170.971, 175.364 167.364 L 178 164.727 178 131.500 L 178 98.273 175.364 95.636 C 171.756 92.029, 165.687 91.968, 161.998 95.502 L 159.386 98.005 154.943 95.814 C 149.008 92.887, 133.633 92.210, 127.079 94.587 M 133.211 113.073 C 128.461 114.524, 122.326 121.075, 120.957 126.161 C 118.787 134.219, 121.891 142.531, 128.925 147.500 C 132.563 150.070, 134.080 150.500, 139.500 150.500 C 144.920 150.500, 146.437 150.070, 150.075 147.500 C 164.767 137.122, 159.119 114.095, 141.494 112.516 C 138.747 112.270, 135.020 112.521, 133.211 113.073 " stroke="none" fill="white" fill-rule="evenodd" transform="scale(0.13333333333333333) translate(0 0)"></path>
    </g>
</svg>