<svg width="60" height="60" viewBox="0 0 60 60" xmlns="http://www.w3.org/2000/svg">
    <rect fill="transparent" x="0" y="0" width="60" height="60" rx="4.8"></rect>

    <g width="30" height="30" viewBox="0 0 30 30" transform="translate(15, 15)" fill="#FFFFFF">
        <path d="M 127.492 55.864 C 102.544 63.011, 81.591 82.072, 71.810 106.518 C 70.253 110.407, 69.968 110.590, 62.851 112.238 C 52.143 114.718, 40.216 121.100, 31.897 128.801 C 23.425 136.645, 18.060 144.302, 13.730 154.725 C 10.535 162.416, 10.500 162.677, 10.500 179 C 10.500 194.580, 10.656 195.923, 13.291 203.083 C 21.285 224.808, 40.635 241.850, 62.588 246.501 C 68.362 247.724, 84.404 247.968, 160.068 247.983 C 258.908 248.002, 254.683 248.229, 266.494 242.248 C 273.227 238.838, 284.009 227.823, 287.293 221 C 292.929 209.286, 294.273 198.028, 291.460 186.093 C 286.092 163.321, 266.193 147.716, 242.500 147.701 L 234.500 147.696 234.405 135.598 C 234.341 127.522, 233.730 121.339, 232.567 117 C 224.545 87.076, 201.596 63.422, 173.428 56.044 C 163.013 53.316, 136.744 53.213, 127.492 55.864 M 143.500 70.559 C 142.400 70.812, 139.025 71.501, 136 72.089 C 132.975 72.677, 126.225 75.210, 121 77.717 C 113.220 81.451, 110.132 83.654, 103.946 89.888 C 96.530 97.361, 91.737 104.216, 90.511 109.101 C 89.923 111.442, 90.288 111.681, 97.696 113.805 C 101.988 115.035, 113.695 120.151, 123.711 125.175 L 141.922 134.308 137.711 142.139 C 135.395 146.446, 133.267 149.864, 132.983 149.735 C 132.698 149.606, 124.139 145.319, 113.964 140.209 C 98.497 132.442, 94.071 130.669, 86.981 129.398 C 68.723 126.124, 52.924 131.531, 40.276 145.383 C 24.805 162.326, 22.572 186.302, 34.614 206.173 C 41.372 217.326, 55.548 227.311, 68.416 229.982 C 71.913 230.708, 102.025 230.964, 162.035 230.776 L 250.500 230.500 256.290 227.568 C 263.340 223.998, 269.328 217.708, 272.710 210.323 C 274.933 205.467, 275.186 203.807, 274.791 196.648 C 274.256 186.959, 271.492 180.753, 264.834 174.298 C 256.971 166.674, 244.974 163.470, 234.505 166.198 C 229.682 167.455, 229.370 167.760, 225.469 175.038 C 223.247 179.183, 219.904 184.700, 218.039 187.297 C 214.198 192.645, 215.649 193.004, 205.845 184.278 L 201.191 180.135 203.984 176.317 C 208.860 169.653, 212.937 160.765, 215.133 152.012 C 219.611 134.164, 215.410 112.630, 204.692 98.500 C 191.579 81.212, 174.127 71.538, 154.252 70.539 C 149.439 70.297, 144.600 70.306, 143.500 70.559 " stroke="none" fill="white" fill-rule="evenodd" transform="scale(0.1) translate(0 0)"></path>
    </g>
</svg>