<svg width="60" height="60" viewBox="0 0 60 60" xmlns="http://www.w3.org/2000/svg">
    <rect fill="transparent" x="0" y="0" width="60" height="60" rx="4.8"></rect>

    <g width="30" height="30" viewBox="0 0 30 30" transform="translate(15, 15)" fill="#FFFFFF">
        <path d="M 184.757 66.034 C 174.225 67.807, 159.560 73.834, 150 80.318 C 147.525 81.997, 142.325 86.428, 138.446 90.164 L 131.391 96.959 125.446 95.985 C 105.266 92.681, 82.081 97.734, 64.128 109.348 C 26.036 133.992, 12.527 183.108, 32.733 223.500 C 44.375 246.774, 63.830 262.541, 90.500 270.317 C 97.066 272.231, 100.741 272.381, 149.750 272.736 L 202 273.114 202 300.107 C 202 333.310, 202.212 334, 212.395 334 C 217.550 334, 230.955 327.447, 240.938 320.046 C 254.143 310.257, 271.334 289.982, 277.527 276.893 L 279.234 273.286 290.367 272.699 C 308.031 271.769, 322.622 267.060, 336.137 257.928 C 354.843 245.289, 368.095 226.200, 373.754 203.742 C 376.232 193.907, 375.931 172.668, 373.163 162.031 C 366.094 134.866, 346.082 112.051, 319.984 101.405 C 306.606 95.948, 286.786 93.575, 274.320 95.939 L 269.368 96.878 262.292 90.077 C 249.893 78.161, 234.460 70.014, 217.792 66.585 C 209.692 64.919, 193.029 64.641, 184.757 66.034 M 183.500 86.554 C 165.190 91.129, 147.024 105.653, 139.168 122 C 136.921 126.675, 134.431 133.306, 133.633 136.736 L 132.184 142.972 136.342 144.021 C 151.355 147.809, 165.649 158.051, 170.779 168.697 C 173.838 175.045, 168.851 182.400, 161.488 182.400 C 158.462 182.400, 157.077 181.451, 151.244 175.379 C 143.880 167.714, 138.416 164.564, 129.685 162.950 C 122.354 161.594, 114.464 162.976, 106.610 166.990 C 98.687 171.038, 94.035 171.019, 90.589 166.923 C 87.457 163.202, 87.193 158.296, 89.936 154.808 C 92.169 151.970, 101.555 146.767, 107.731 144.944 C 112.161 143.636, 112.428 143.228, 113.543 136.085 C 114.134 132.296, 117.125 122.590, 119.502 116.750 C 120.147 115.165, 119.416 115, 111.767 115 C 82.270 115, 55.854 134.572, 46.309 163.500 C 44.024 170.427, 43.669 173.177, 43.669 184 C 43.669 194.823, 44.024 197.573, 46.309 204.500 C 50.049 215.833, 55.338 224.341, 64.050 233.035 C 69.373 238.346, 73.946 241.784, 79.550 244.687 C 95.101 252.742, 91.473 252.356, 157.338 252.960 L 216.175 253.500 218.588 256.306 C 220.994 259.105, 221 259.170, 221 283.389 C 221 296.742, 221.286 307.953, 221.635 308.302 C 222.802 309.469, 233.916 300.800, 241.765 292.602 C 250.382 283.602, 256.718 274.494, 262.857 262.284 C 265.602 256.825, 267.694 253.899, 269.223 253.383 C 270.475 252.960, 278.025 252.576, 286 252.530 C 299.010 252.453, 301.281 252.171, 308.096 249.781 C 336.734 239.739, 355.911 213.570, 355.983 184.434 C 356.057 154.102, 335.981 126.801, 307 117.823 C 296.285 114.504, 278.417 114.492, 268.853 117.797 C 262.594 119.960, 253.755 124.841, 247.438 129.620 L 244.636 131.741 249.461 138.120 C 253.920 144.017, 259 153.605, 259 156.127 C 259 158.667, 255.703 163.814, 253.405 164.861 C 246.890 167.830, 242.310 165.533, 238.083 157.178 C 230.124 141.446, 212.362 133.555, 195.767 138.379 C 187.805 140.694, 185.305 140.459, 181.923 137.077 C 175.853 131.006, 179.450 122.450, 189.325 119.472 C 198.545 116.692, 209.438 116.463, 218.883 118.851 L 227.244 120.966 232.250 116.465 C 235.003 113.990, 239.950 110.302, 243.244 108.269 L 249.232 104.572 245.366 101.249 C 239.723 96.397, 231.153 91.521, 222.817 88.417 C 216.505 86.067, 213.714 85.649, 202.500 85.374 C 193.340 85.150, 187.728 85.498, 183.500 86.554 M 278.775 156.559 C 274.993 158.611, 274 160.939, 274 167.753 C 274 174.855, 276.164 182.703, 280.040 189.659 L 282.914 194.818 280.115 198.659 C 270.880 211.329, 255.991 219, 240.634 219 C 233.783 219, 222 216.467, 222 214.994 C 222 214.586, 223.113 212.260, 224.474 209.826 C 229.749 200.388, 232.787 186.556, 230.823 180.922 C 229.625 177.487, 225.489 175, 220.973 175 C 216.800 175, 212 179.717, 212 183.818 C 212 188.816, 208.181 199.243, 204.546 204.167 C 198.130 212.859, 189.107 217.534, 176.606 218.643 C 168.074 219.400, 166.511 220.111, 164.401 224.192 C 163.064 226.777, 162.980 227.990, 163.920 231.126 C 165.582 236.676, 168.105 238.002, 176.973 237.988 C 185.893 237.974, 193.365 236.160, 201.285 232.085 L 207.071 229.108 210.449 231.401 C 212.308 232.662, 217.129 234.774, 221.164 236.095 C 227.253 238.087, 230.540 238.496, 240.500 238.498 C 251.046 238.500, 253.573 238.148, 261.355 235.598 C 272.792 231.849, 282.678 225.342, 291.523 215.741 L 298.546 208.117 302.628 209.945 C 307.678 212.206, 315.821 214, 321.033 214 C 330.025 214, 334.980 203.526, 328.876 197.422 C 326.900 195.446, 324.786 194.656, 319.830 194.041 C 305.599 192.276, 296.096 183.411, 293.916 169.867 C 292.234 159.411, 292.075 159.016, 288.723 156.973 C 284.913 154.650, 282.479 154.549, 278.775 156.559 M 65.636 193.636 C 63.575 195.698, 63 197.247, 63 200.740 C 63 204.922, 63.431 205.638, 69.766 211.973 C 84.892 227.099, 105.926 232.282, 126.455 225.941 C 133.391 223.799, 144.294 217.188, 145.928 214.134 C 148.540 209.254, 146.399 202.892, 141.336 200.489 C 137.425 198.633, 135.346 199.061, 129 203.026 C 113.633 212.627, 95.164 210.078, 82.146 196.560 C 77.294 191.521, 76.393 191, 72.532 191 C 69.263 191, 67.660 191.613, 65.636 193.636 " stroke="none" fill="white" fill-rule="evenodd" transform="scale(0.075) translate(0 0)"></path>
    </g>
</svg>