<svg width="60" height="60" viewBox="0 0 60 60" xmlns="http://www.w3.org/2000/svg">
    <rect fill="transparent" x="0" y="0" width="60" height="60" rx="4.8"></rect>

    <g width="30" height="30" viewBox="0 0 30 30" transform="translate(15, 15)" fill="#FFFFFF">
        <path d="M 239 88.620 C 188.026 94.981, 144.438 121.717, 117.740 163 C 105.443 182.015, 97.692 202.067, 93.386 226 L 92.037 233.500 92.521 223.287 C 93.132 210.393, 96.223 194.252, 100.169 183.345 C 101.851 178.697, 103.010 174.676, 102.743 174.410 C 101.745 173.411, 83.589 178.063, 74.717 181.591 C 37.095 196.551, 11.116 227.917, 2.320 269 C 0.931 275.486, 0.524 281.529, 0.603 294.500 C 0.693 309.397, 1.025 312.702, 3.288 321.221 C 9.120 343.179, 17.866 359.213, 32.500 374.781 C 50.441 393.866, 69.829 405.019, 96.676 411.697 C 102.926 413.252, 117.421 413.425, 269 413.757 C 392.127 414.026, 436.419 413.819, 441.994 412.947 C 458.728 410.332, 474.056 402.789, 486.181 391.205 C 499.398 378.578, 507.313 364.321, 510.576 347.265 C 514.120 328.743, 510.429 307.450, 500.877 291.311 C 497.791 286.097, 483.604 270, 482.095 270 C 481.743 270, 480.565 271.670, 479.477 273.712 C 476.619 279.077, 466.484 289.597, 459.801 294.135 C 451.436 299.816, 449.465 300.117, 456.716 294.606 C 473.772 281.643, 484.049 259.098, 482.708 237.585 C 481.663 220.811, 475.711 207.032, 464.274 194.908 C 451.644 181.519, 435.750 174.196, 417.250 173.242 C 411.613 172.951, 407 172.991, 407 173.330 C 407 173.670, 408.332 177.300, 409.959 181.397 C 415.264 194.751, 420.182 218.436, 419.844 229 C 419.744 232.147, 419.587 232.598, 419.324 230.500 C 418.315 222.444, 414.507 206.777, 411.364 197.747 C 396.992 156.458, 366.847 123.011, 327 104.142 C 304.290 93.389, 285.832 89.094, 260 88.551 C 250.375 88.349, 240.925 88.380, 239 88.620 M 236 120.538 C 202.122 125.894, 171.045 144.548, 150.419 171.908 C 142.495 182.419, 132.934 201.403, 129.473 213.500 C 120.407 245.183, 122.900 277.998, 136.570 306.900 C 155.569 347.073, 192.949 374.855, 237 381.545 C 276.283 387.511, 317.259 374.507, 346.554 346.777 C 377.697 317.297, 392.881 273.719, 386.545 232 C 381.289 197.390, 362.832 166.331, 335.092 145.419 C 324.581 137.495, 305.597 127.934, 293.500 124.473 C 274.825 119.129, 253.947 117.700, 236 120.538 M 240.500 136.127 C 217.658 138.981, 194.101 150.355, 176.589 166.987 C 127.993 213.139, 127.993 288.861, 176.589 335.013 C 221.224 377.403, 290.776 377.403, 335.411 335.013 C 368.307 303.772, 380.166 257.123, 365.978 214.776 C 348.223 161.780, 296.196 129.170, 240.500 136.127 M 211.168 182.146 C 208.633 183.401, 205.730 185.962, 204.168 188.321 L 201.500 192.352 201.227 252.230 C 200.967 309.259, 201.045 312.313, 202.858 316.412 C 203.905 318.780, 206.468 322.018, 208.553 323.608 C 212.018 326.251, 213.047 326.500, 220.500 326.500 C 227.948 326.500, 228.984 326.250, 232.437 323.616 C 238.686 318.850, 239.953 314.672, 239.978 298.750 L 240 285 260.951 285 C 284.514 285, 289.375 284.290, 299.858 279.313 C 317.161 271.101, 329 252.082, 329 232.500 C 329 208.139, 311.020 186.028, 287.201 181.097 C 283.976 180.429, 268.907 180, 248.701 180.001 C 216.770 180.002, 215.334 180.084, 211.168 182.146 M 240 232.500 L 240 248.112 260.750 247.806 C 280.627 247.513, 281.637 247.402, 284.765 245.171 C 293.400 239.012, 293.357 226.079, 284.680 219.605 C 282.058 217.648, 280.383 217.478, 260.930 217.194 L 240 216.888 240 232.500 " stroke="none" fill="white" fill-rule="evenodd" transform="scale(0.05859375) translate(0 0)"></path>
    </g>
</svg>