<svg width="60" height="60" viewBox="0 0 60 60" xmlns="http://www.w3.org/2000/svg">
    <rect fill="transparent" x="0" y="0" width="60" height="60" rx="4.8"></rect>

    <g width="30" height="30" viewBox="0 0 30 30" transform="translate(15, 15)" fill="#FFFFFF">
        <path d="M 127 63.315 C 114.744 66.083, 104.985 73.530, 100.181 83.780 C 97.833 88.789, 97.500 90.742, 97.500 99.500 C 97.500 108.677, 97.740 109.933, 100.416 114.763 C 102.020 117.658, 105.770 122.720, 108.750 126.013 C 111.730 129.306, 113.658 132, 113.036 132 C 110.971 132, 101.319 138.745, 97.072 143.156 C 94.772 145.545, 91.499 150.321, 89.798 153.770 C 87.262 158.911, 86.706 161.260, 86.706 166.819 C 86.706 179.893, 91.663 188.731, 101.771 193.679 C 107.150 196.312, 108.295 196.484, 120.500 196.492 C 132.984 196.500, 133.761 196.376, 140.068 193.388 C 151.602 187.922, 157.395 179.844, 159.310 166.555 C 160.175 160.547, 160.066 158.102, 158.678 152.478 C 155.940 141.383, 151.289 135.607, 130.618 117.629 C 121.315 109.538, 118.714 105.373, 118.714 98.572 C 118.714 89.157, 123.984 83.092, 132.909 82.235 C 136.547 81.885, 138.663 82.204, 140.444 83.372 C 144.903 86.293, 145.694 95.097, 142.101 101.811 C 141.435 103.057, 141.170 104.959, 141.512 106.038 C 142.418 108.891, 148.258 113.005, 152.343 113.668 C 155.306 114.149, 156.279 113.802, 158.407 111.506 C 164.856 104.548, 167.213 87.203, 162.916 78.327 C 157.246 66.614, 141.510 60.037, 127 63.315 M 123.500 146.180 C 113.220 151.554, 107.863 158.138, 107.751 165.534 C 107.627 173.709, 110.853 176.931, 119.912 177.682 C 127.641 178.323, 133.614 175.256, 136.750 169.038 C 140.704 161.197, 139.297 154.288, 132.211 146.750 C 129.148 143.492, 128.697 143.463, 123.500 146.180 " stroke="none" fill="white" fill-rule="evenodd" transform="scale(0.1171875) translate(0 0)"></path>
    </g>
</svg>