<svg xmlns="http://www.w3.org/2000/svg" width="60" height="60" viewBox="0 0 60 60">
  <path fill="#FFFFFF" fill-rule="evenodd" d="M30.7183951,15 C31.6666193,15.1567105 32.632837,15.2413158 33.5599608,15.4821053 C38.9563596,16.8828947 42.19016,20.4884211 43.508224,25.8867105 C44.2946351,29.1075 44.1146991,32.3444737 43.1341123,35.5235526 C42.9133994,36.2386842 42.5179284,36.7944737 41.7693168,36.9498684 C41.0992815,37.0892105 40.4858161,36.9248684 40.021348,36.3625 C39.5585628,35.8019737 39.5294365,35.1632895 39.735651,34.5078947 C40.2784365,32.7825 40.5366901,31.0151316 40.4144889,29.2114474 C40.1548114,25.3728947 38.8231551,22.1057895 35.4050173,20.0602632 C33.2503155,18.7707895 30.8967777,18.4747368 28.4373496,18.7802632 C26.320965,19.0432895 24.4638696,19.8663158 22.9054163,21.3388158 C21.0645021,23.0782895 20.1169252,25.3018421 19.7463087,27.7793421 C19.3578281,30.3757895 19.5721979,32.9347368 20.6357624,35.3536842 C22.1096847,38.7056579 24.6634821,40.655 28.2456336,41.1894737 C28.6483538,41.2494737 29.0554753,41.3055263 29.4614317,41.3127632 C30.765515,41.3357895 31.5862306,41.8551316 31.7458429,42.7889474 C31.921766,43.8173684 31.4424112,44.5032895 30.2005935,45 L29.2944407,45 C28.7022051,44.9134211 28.1081572,44.8373684 27.5178634,44.7382895 C23.4388814,44.0534211 20.2692883,41.9544737 18.16792,38.3282895 C15.9150947,34.4409211 15.5157402,30.2094737 16.5196281,25.9068421 C17.7820284,20.4963158 21.0536283,16.89 26.4531339,15.4848684 C27.3801282,15.2435526 28.346346,15.1576316 29.2944407,15 L30.7183951,15 Z"/>
</svg>
