<svg width="60" height="60" viewBox="0 0 60 60" xmlns="http://www.w3.org/2000/svg">
    <rect fill="transparent" x="0" y="0" width="60" height="60" rx="4.8"></rect>

    <g width="30" height="30" viewBox="0 0 30 30" transform="translate(15, 15)" fill="#FFFFFF">
        <path d="M 100.500 34.117 C 81.650 36.859, 63.131 47.385, 50.963 62.275 C 44.766 69.859, 37.670 84.048, 35.348 93.500 C 32.731 104.156, 32.957 122.312, 35.832 132.415 C 40.118 147.477, 47.315 159.388, 58.387 169.745 C 90.557 199.839, 139.993 197.841, 170.051 165.231 C 177.931 156.682, 182.495 149.246, 186.050 139.165 C 193.276 118.671, 192.380 98.041, 183.441 79.089 C 168.311 47.010, 135.217 29.067, 100.500 34.117 M 89.914 71.936 C 84.492 73.621, 81.436 76.874, 69.420 93.750 C 56.572 111.795, 54.294 116.425, 55.390 122.266 C 56.939 130.524, 66.712 132.044, 74.338 125.212 C 77.214 122.635, 99.722 90.861, 100.940 87.659 C 104.655 77.888, 98.589 69.239, 89.914 71.936 M 124.914 82.936 C 119.537 84.607, 116.517 87.792, 104.941 104.002 C 92.645 121.218, 89.997 125.954, 90.004 130.718 C 90.009 134.901, 93.370 139.703, 96.824 140.461 C 100.046 141.169, 106.098 139.114, 109.338 136.212 C 112.214 133.635, 134.722 101.861, 135.940 98.659 C 139.655 88.888, 133.589 80.239, 124.914 82.936 M 157.500 95.896 C 152.408 98.253, 150.550 100.357, 138.019 117.957 C 126.637 133.942, 125 137.080, 125 142.912 C 125 151.512, 133.089 155.198, 141.099 150.248 C 145.570 147.485, 168.789 115.474, 170.839 109.247 C 172.772 103.375, 171.181 97.662, 167.011 95.506 C 163.317 93.595, 162.387 93.633, 157.500 95.896 " stroke="none" fill="white" fill-rule="evenodd" transform="scale(0.13333333333333333) translate(0 0)"></path>
    </g>
</svg>