<svg width="60" height="60" viewBox="0 0 60 60" xmlns="http://www.w3.org/2000/svg">
    <rect fill="transparent" x="0" y="0" width="60" height="60" rx="4.8"></rect>

    <g width="30" height="30" viewBox="0 0 30 30" transform="translate(15, 15)" fill="#FFFFFF">
        <path d="M 716.500 1.417 C 707.493 3.501, 699.926 6.608, 692.854 11.124 C 688.289 14.040, 660.258 41.395, 593.269 108.310 L 500.037 201.438 459.769 161.374 C 416.140 117.966, 413.661 115.935, 397.500 110.352 C 390.308 107.867, 388.136 107.587, 376 107.580 C 363.987 107.573, 361.619 107.869, 354.500 110.261 C 343.157 114.072, 334.668 119.352, 325.979 128 C 312.691 141.224, 305.988 157.670, 306.015 176.980 C 306.033 189.953, 307.836 197.975, 313.212 209 C 317.340 217.464, 317.646 217.790, 385.429 286 C 422.868 323.675, 455.677 356.184, 458.339 358.241 C 480.457 375.343, 514.150 376.301, 538.556 360.522 C 542.530 357.952, 583.069 318.197, 660.853 240.589 C 724.848 176.740, 780.034 121.229, 783.490 117.231 C 795.597 103.222, 801 88.804, 801 70.500 C 801 39.058, 782.074 12.858, 752.500 3.360 C 742.577 0.173, 725.790 -0.733, 716.500 1.417 M 127 132.945 C 103.462 136.323, 83.146 151.175, 73.077 172.365 C 68.324 182.369, 66.634 190.251, 66.619 202.500 C 66.601 215.614, 68.299 222.963, 74.124 235 L 78.238 243.500 173.113 338.511 L 267.988 433.522 230.930 470.511 C 210.547 490.855, 191.707 510.200, 189.063 513.500 C 178.359 526.857, 173.645 540.409, 173.584 558 C 173.539 571.133, 175.559 579.392, 181.780 591.500 C 186.972 601.604, 200.879 615.271, 211.058 620.271 C 232.076 630.595, 254.776 630.607, 275.942 620.305 C 283.182 616.781, 286.386 613.758, 352 548.563 C 389.675 511.128, 422.255 478.250, 424.401 475.500 C 432.844 464.678, 438.014 448.805, 437.983 433.803 C 437.958 422.145, 435.785 413.018, 430.409 402 L 425.774 392.500 304.637 271.171 C 238.012 204.440, 180.742 147.852, 177.371 145.420 C 163.389 135.331, 143.941 130.514, 127 132.945 M 745.870 240.006 C 737.476 241.336, 728.351 244.642, 720.500 249.196 C 714.619 252.607, 702.662 264.064, 645.691 320.878 C 599.507 366.935, 576.508 390.573, 573.574 395 C 558.723 417.410, 558.126 446.503, 572.029 470.278 C 575.685 476.530, 592.115 493.389, 694.376 595.818 C 759.344 660.894, 815.200 716.296, 818.500 718.935 C 826.523 725.351, 833.945 729.361, 843 732.172 C 849.334 734.138, 852.599 734.493, 864 734.456 C 876.097 734.417, 878.331 734.124, 885.500 731.640 C 908.089 723.813, 925.695 704.893, 931.693 682 C 934.009 673.159, 933.964 655.699, 931.603 647 C 929.222 638.230, 924.894 629.376, 919.548 622.335 C 917.111 619.126, 873.924 575.334, 823.576 525.020 L 732.035 433.539 773.334 392.020 C 813.564 351.575, 814.742 350.280, 818.820 342 C 824.709 330.040, 826.435 322.674, 826.435 309.500 C 826.435 296.893, 824.747 289.322, 819.529 278.532 C 810.892 260.671, 793.435 246.433, 774.137 241.510 C 766.281 239.506, 753.360 238.818, 745.870 240.006 M 483.500 497.427 C 474.704 499.898, 467.712 503.037, 461.020 507.518 C 456.524 510.529, 416.757 549.697, 332.916 633.692 C 218.963 747.855, 211.098 755.955, 207.613 762.746 C 201.140 775.362, 199.837 780.253, 199.292 794 C 198.689 809.174, 200.171 816.641, 206.235 829 C 209.612 835.882, 212.127 839.222, 219.453 846.547 C 234.006 861.101, 248.246 866.970, 269 866.970 C 281.921 866.970, 289.927 865.179, 301 859.812 L 309.500 855.692 404.739 760.624 L 499.979 665.556 541.239 706.533 C 584.559 749.554, 587.352 751.903, 600.665 756.503 C 619.559 763.031, 639.330 761.539, 657.500 752.215 C 668.160 746.745, 681.509 732.967, 686.844 721.928 C 692.172 710.903, 693.967 702.874, 693.985 689.980 C 694.003 677.331, 691.789 668.313, 685.771 656.527 C 681.815 648.781, 679.218 646.048, 611.586 578.466 C 537.356 504.292, 537.528 504.445, 522.835 499.280 C 516.650 497.106, 513.384 496.649, 502 496.362 C 492.520 496.123, 487.011 496.440, 483.500 497.427 " stroke="none" fill="white" fill-rule="evenodd" transform="scale(0.03) translate(0 0)"></path>
    </g>
</svg>