<svg xmlns="http://www.w3.org/2000/svg" width="360" height="360" viewBox="0 0 360 360">
  <g fill="none" fill-rule="evenodd" transform="translate(70 70)">
    <circle cx="110.985" cy="110.657" r="108.687" fill="#FFF"/>
    <g transform="translate(36.12 85.373)">
      <path fill="#666" fill-rule="nonzero" d="M8.20895522 38.7462687C4.92537313 35.4626866 2.95522388 29.880597 2.95522388 22.6567164 2.95522388 15.4328358 4.59701493 9.85074627 8.20895522 6.56716418 10.8358209 3.94029851 14.7761194 2.29850746 19.0447761 2.29850746 23.3134328 2.29850746 27.2537313 3.6119403 29.880597 6.56716418 33.1641791 10.1791045 35.1343284 15.4328358 35.1343284 22.6567164 35.1343284 29.880597 33.4925373 35.4626866 29.880597 38.7462687 27.2537313 41.3731343 23.3134328 43.0149254 19.0447761 43.0149254 14.7761194 43.0149254 10.8358209 41.7014925 8.20895522 38.7462687zM11.8208955 22.6567164C11.8208955 31.1940299 14.119403 35.7910448 19.0447761 35.7910448 23.9701493 35.7910448 26.2686567 31.5223881 26.2686567 22.6567164 26.2686567 14.119403 23.9701493 9.52238806 19.0447761 9.52238806 14.119403 9.52238806 11.8208955 14.119403 11.8208955 22.6567164zM123.791045 38.7462687C120.507463 35.4626866 118.537313 29.880597 118.537313 22.6567164 118.537313 15.4328358 120.179104 9.85074627 123.791045 6.56716418 126.41791 3.94029851 130.358209 2.29850746 134.626866 2.29850746 138.895522 2.29850746 142.835821 3.6119403 145.462687 6.56716418 148.746269 10.1791045 150.716418 15.4328358 150.716418 22.6567164 150.716418 29.880597 149.074627 35.4626866 145.462687 38.7462687 142.835821 41.3731343 138.895522 43.0149254 134.626866 43.0149254 130.029851 43.0149254 126.41791 41.7014925 123.791045 38.7462687zM127.402985 22.6567164C127.402985 31.1940299 129.701493 35.7910448 134.626866 35.7910448 139.552239 35.7910448 141.850746 31.5223881 141.850746 22.6567164 141.850746 14.119403 139.552239 9.52238806 134.626866 9.52238806 129.701493 9.52238806 127.402985 14.119403 127.402985 22.6567164z"/>
      <circle cx="77.493" cy="36.119" r="34.478" fill="#E79012"/>
      <path fill="#666" d="M102.119403,41.7014925 L53.1940299,41.7014925 C50.238806,41.7014925 47.6119403,39.0746269 47.6119403,36.119403 C47.6119403,33.1641791 50.238806,30.5373134 53.1940299,30.5373134 L102.119403,30.5373134 C105.074627,30.5373134 107.701493,33.1641791 107.701493,36.119403 C107.701493,39.0746269 105.074627,41.7014925 102.119403,41.7014925 Z" opacity=".5"/>
    </g>
  </g>
</svg>
