<svg width="60" height="60" viewBox="0 0 60 60" xmlns="http://www.w3.org/2000/svg">
    <rect fill="transparent" x="0" y="0" width="60" height="60" rx="4.8"></rect>

    <g width="30" height="30" viewBox="0 0 30 30" transform="translate(15, 15)" fill="#FFFFFF">
        <path d="M 182 53.017 C 171.539 54.474, 161.202 57, 150.566 60.701 C 115.061 73.054, 84.454 100.172, 67.200 134.566 C 62.839 143.259, 57.347 159.574, 54.816 171.352 C 51.885 184.991, 51.648 212.977, 54.349 226.464 C 56.926 239.332, 61.468 252.980, 67.044 264.620 L 71.893 274.740 61.954 305.620 C 56.487 322.604, 52.011 337.266, 52.007 338.203 C 51.988 342.791, 57.151 348, 61.718 348 C 62.768 348, 77.048 343.500, 93.450 338 C 109.853 332.500, 123.670 328, 124.156 328 C 124.641 328, 129.642 330.206, 135.269 332.902 C 180.533 354.591, 232.190 352.598, 274.980 327.512 L 283.191 322.698 263.809 303.315 L 244.426 283.932 237.751 286.959 C 223.913 293.233, 217.236 294.506, 198.500 294.441 C 182.896 294.386, 180.761 294.155, 172.500 291.630 C 141.126 282.040, 117.727 258.560, 108.391 227.297 C 104.830 215.371, 103.953 195.273, 106.455 182.926 C 113.573 147.798, 138.227 121.120, 173.500 110.379 C 181.753 107.866, 183.869 107.638, 199 107.638 C 214.058 107.638, 216.268 107.873, 224.282 110.324 C 257.112 120.364, 281.682 145.451, 290.075 177.500 C 292.697 187.512, 293.635 204.995, 292.084 214.937 C 289.871 229.124, 283.299 245.164, 274.750 257.247 C 273.662 258.785, 275.788 261.275, 292.507 278.045 L 311.500 297.097 314.732 293.403 C 323.824 283.010, 335.406 261.919, 340.431 246.604 C 345.922 229.869, 347.389 220.006, 347.367 200 C 347.350 184.852, 346.953 179.661, 345.175 171.352 C 332.360 111.459, 288.550 67.509, 229.159 54.964 C 218.083 52.624, 192.429 51.565, 182 53.017 M 184.124 146.578 C 165.070 151.702, 148.570 168.693, 143.897 188 C 141.797 196.677, 142.289 209.568, 145.049 218.162 C 153.293 243.836, 180.204 261.070, 205.838 257.093 C 220.390 254.835, 229.851 249.990, 239.664 239.771 C 250.042 228.963, 255 216.430, 255 201 C 255 184.898, 250.030 172.970, 238.530 161.470 C 226.943 149.882, 214.847 144.943, 198.356 145.066 C 193.485 145.102, 187.081 145.782, 184.124 146.578 " stroke="none" fill="white" fill-rule="evenodd" transform="scale(0.075) translate(0 0)"></path>
    </g>
</svg>