<svg width="60" height="60" viewBox="0 0 60 60" xmlns="http://www.w3.org/2000/svg">
    <rect fill="transparent" x="0" y="0" width="60" height="60" rx="4.8"></rect>

    <g width="30" height="30" viewBox="0 0 30 30" transform="translate(15, 15)" fill="#FFFFFF">
        <path d="M 23 4.722 C 19.498 6.037, 15.822 9.428, 13.977 13.044 C 12.052 16.819, 12 19.232, 12 105.574 L 12 194.228 14.212 198.163 C 18.036 204.968, 21.630 206.425, 36 207 L 48.500 207.500 49 230.405 L 49.500 253.311 77.294 230.155 L 105.088 207 167.594 207 C 219.453 207, 230.559 206.760, 232.800 205.589 C 235.874 203.983, 240.219 199.545, 241.878 196.316 C 242.683 194.749, 242.995 169.038, 242.984 105.316 L 242.967 16.500 240.713 12.520 C 239.449 10.289, 236.711 7.551, 234.480 6.287 L 230.500 4.033 127.500 4.095 C 70.850 4.130, 23.825 4.412, 23 4.722 M 45.535 22.351 C 43.841 23.589, 43.739 24.811, 44.310 37.101 C 46.621 86.875, 72.923 134.193, 113.411 161.412 C 129.903 172.499, 151.276 181.650, 171 186.068 C 183.536 188.876, 207.429 190.719, 209.459 189.034 C 210.831 187.896, 210.998 184.264, 210.766 160.614 L 210.500 133.500 182 133.500 L 153.500 133.500 146.387 142.954 C 142.475 148.154, 138.758 152.581, 138.128 152.791 C 136.538 153.321, 124.830 146.771, 116.930 140.933 C 108.734 134.876, 94.724 120.433, 89.347 112.498 C 84.433 105.245, 78.617 95.039, 79.129 94.566 C 79.333 94.377, 84.112 90.800, 89.750 86.616 L 100 79.009 100 51.205 C 100 30.912, 99.676 23.076, 98.800 22.200 C 96.972 20.372, 48.053 20.510, 45.535 22.351 " stroke="none" fill="white" fill-rule="evenodd" transform="scale(0.1171875) translate(0 0)"></path>
    </g>
</svg>