<svg width="60" height="60" viewBox="0 0 60 60" xmlns="http://www.w3.org/2000/svg">
    <rect fill="transparent" x="0" y="0" width="60" height="60" rx="4.8"></rect>

    <g width="30" height="30" viewBox="0 0 30 30" transform="translate(15, 15)" fill="#FFFFFF">
        <path d="M 18.625 47.750 L -0.047 95.500 -0.024 291.750 L 0 488 66.500 488 L 133 488 133 523 L 133 558 170.755 558 L 208.511 558 243.500 523 L 278.489 488 332.979 488 L 387.468 488 460.227 415.266 L 532.987 342.532 533.250 415.016 C 533.395 454.882, 533.622 409.200, 533.756 313.500 C 533.889 217.800, 533.700 108.112, 533.335 69.750 L 532.671 -0 284.985 -0 L 37.298 0 18.625 47.750 M 84 225 L 84 400 140 400 L 196 400 196 435.245 L 196 470.489 231.255 435.245 L 266.510 400 333.010 400 L 399.509 400 441.254 358.246 L 483 316.491 483 183.246 L 483 50 283.500 50 L 84 50 84 225 M 0.490 291 C 0.490 399.625, 0.607 444.062, 0.750 389.750 C 0.893 335.437, 0.893 246.562, 0.750 192.250 C 0.607 137.937, 0.490 182.375, 0.490 291 M 216.243 218.750 L 216.500 291.500 241.750 291.767 L 267 292.034 267 219.017 L 267 146 241.493 146 L 215.987 146 216.243 218.750 M 350 219 L 350 292 375 292 L 400 292 400 219 L 400 146 375 146 L 350 146 350 219 " stroke="none" fill="white" fill-rule="evenodd" transform="scale(0.05628517823639775) translate(0 -12.5)"></path>
    </g>
</svg>