<svg width="60" height="60" viewBox="0 0 60 60" xmlns="http://www.w3.org/2000/svg">
    <rect fill="transparent" x="0" y="0" width="60" height="60" rx="4.8"></rect>

    <g width="30" height="30" viewBox="0 0 30 30" transform="translate(15, 15)" fill="#FFFFFF">
        <path d="M 283.754 416 L 283.500 665 314.245 665 L 344.990 665 345.245 563.750 L 345.500 462.500 420 461.944 L 494.500 461.387 505.085 458.783 C 533.339 451.833, 551.755 442.999, 571.618 426.868 C 594.296 408.451, 611.487 379.163, 618.498 347 C 620.705 336.871, 621.613 307.222, 620.074 295.500 C 617.946 279.300, 611.961 259.917, 604.465 244.953 C 581.782 199.671, 542.201 173.748, 487 168.020 C 481.469 167.446, 437.086 167.027, 380.754 167.017 L 284.008 167 283.754 416 M 345 315 L 345 411 405.250 410.992 C 464.988 410.984, 477.370 410.459, 489.500 407.421 C 520.762 399.591, 544.664 376.894, 553.402 346.742 C 561.833 317.646, 558.150 286.315, 543.290 260.718 C 538.154 251.872, 523.295 237.337, 513.642 231.717 C 505.149 226.772, 490.401 221.648, 480 220.028 C 476.118 219.423, 447.625 219.012, 409.250 219.008 L 345 219 345 315 M 281 732.500 C 281 733.827, 300.167 734, 447.500 734 C 594.833 734, 614 733.827, 614 732.500 C 614 731.173, 594.833 731, 447.500 731 C 300.167 731, 281 731.173, 281 732.500 " stroke="none" fill="white" fill-rule="evenodd" transform="scale(0.03333333333333333) translate(0 0)"></path>
    </g>
</svg>