<svg width="60" height="60" viewBox="0 0 60 60" xmlns="http://www.w3.org/2000/svg">
    <rect fill="transparent" x="0" y="0" width="60" height="60" rx="4.8"></rect>

    <g width="30" height="30" viewBox="0 0 30 30" transform="translate(15, 15)" fill="#FFFFFF">
        <path d="M 116 59.091 C 101.975 67.878, 85.624 78.029, 79.665 81.649 C 73.706 85.269, 69.206 88.585, 69.665 89.019 C 70.124 89.453, 83.224 94.370, 98.775 99.945 C 114.326 105.520, 127.768 110.358, 128.647 110.695 C 129.997 111.213, 129.885 111.578, 127.924 113.058 L 125.604 114.808 129.301 116.352 C 131.335 117.202, 135.474 118.678, 138.499 119.631 C 141.525 120.585, 144.023 121.846, 144.051 122.433 C 144.080 123.020, 144.086 134.300, 144.065 147.500 C 144.035 166.311, 143.753 171.435, 142.763 171.198 C 142.068 171.032, 137.900 169.581, 133.500 167.972 C 129.100 166.364, 114.700 161.204, 101.500 156.505 C 88.300 151.807, 76.669 147.619, 75.654 147.199 C 74.208 146.601, 79.137 143.121, 98.385 131.153 C 111.902 122.747, 123.183 115.513, 123.453 115.076 C 123.912 114.334, 71.564 95, 69.097 95 C 68.280 95, 68.042 102.612, 68.234 122.622 L 68.500 150.244 77 153.220 C 85.123 156.065, 110.541 165.160, 136.734 174.594 C 143.463 177.017, 149.200 179, 149.484 179 C 149.768 179, 150 165.312, 150 148.582 L 150 118.163 143.250 115.922 C 139.537 114.690, 135.207 113.140, 133.626 112.479 L 130.751 111.276 136.876 107.496 L 143 103.716 143 73.358 C 143 56.661, 142.662 43.026, 142.250 43.057 C 141.838 43.089, 130.025 50.304, 116 59.091 " stroke="none" fill="white" fill-rule="evenodd" transform="scale(0.13333333333333333) translate(0 0)"></path>
    </g>
</svg>