<svg width="60" height="60" viewBox="0 0 60 60" xmlns="http://www.w3.org/2000/svg">
    <rect fill="transparent" x="0" y="0" width="60" height="60" rx="4.8"></rect>

    <g width="30" height="30" viewBox="0 0 30 30" transform="translate(15, 15)" fill="#FFFFFF">
        <path d="M 113.736 63.250 C 111.307 65.094, 109.901 69.610, 110.921 72.291 C 112.081 75.343, 114.042 76.858, 117.805 77.611 C 120.392 78.128, 121.435 77.718, 123.960 75.194 C 127.686 71.468, 127.886 67.795, 124.545 64.455 C 121.822 61.731, 116.515 61.140, 113.736 63.250 M 217.174 64.314 C 211.282 70.586, 218.068 80.286, 226.038 76.984 C 229.569 75.521, 231 73.289, 231 69.240 C 231 62.738, 221.751 59.443, 217.174 64.314 M 54 100.586 L 54 135.172 70.250 134.825 C 88.486 134.435, 91.759 133.455, 97.795 126.580 C 105.054 118.313, 102.783 103.972, 93.520 99.576 C 89.479 97.659, 89.229 96.963, 91.969 95.252 C 95.013 93.351, 97.231 88.137, 97.231 82.881 C 97.231 76.168, 94.063 71.403, 87.596 68.392 C 82.988 66.247, 81.136 66.019, 68.250 66.010 L 54 66 54 100.586 M 147 71.889 L 141.500 73.581 141 79.540 L 140.500 85.500 136.250 85.807 L 132 86.115 132 91.057 L 132 96 136.500 96 L 141 96 141.002 110.750 C 141.003 127.587, 142.030 131.030, 147.984 134.165 C 151.845 136.198, 159.469 136.568, 165 134.991 C 171.046 133.267, 171.320 132.841, 169.426 128.106 C 167.830 124.118, 167.578 123.935, 164.621 124.614 C 155.736 126.652, 155 125.487, 155 109.378 L 155 96 160.942 96 L 166.884 96 168.230 91.250 L 169.577 86.500 162.539 86 L 155.500 85.500 155.208 77.750 C 154.882 69.105, 155.232 69.355, 147 71.889 M 68 85.500 L 68 94 73.545 94 C 78.100 94, 79.530 93.561, 81.545 91.545 C 87.575 85.516, 82.527 77, 72.923 77 L 68 77 68 85.500 M 199.791 84.957 C 198.302 85.423, 195.717 86.777, 194.048 87.966 C 190.932 90.185, 189 89.984, 189 87.441 C 189 86.346, 187.557 86, 183 86 L 177 86 177 110.500 L 177 135 184 135 L 191 135 191 117.655 C 191 96.898, 191.186 96.514, 201.231 96.479 L 207.252 96.458 209.170 91.573 C 210.225 88.887, 210.731 86.344, 210.294 85.922 C 208.963 84.637, 202.663 84.058, 199.791 84.957 M 112 110.500 L 112 135 118.500 135 L 125 135 125 110.500 L 125 86 118.500 86 L 112 86 112 110.500 M 216 110.500 L 216 135 223 135 L 230 135 230 110.500 L 230 86 223 86 L 216 86 216 110.500 M 237 86.328 C 237 86.509, 240.825 91.761, 245.500 98 C 250.175 104.239, 254 109.725, 254 110.191 C 254 110.852, 244.784 123.424, 236.730 133.750 C 235.971 134.724, 237.302 135, 242.756 135 L 249.758 135 255.403 127.500 C 258.507 123.375, 261.390 120, 261.809 120 C 262.228 120, 264.984 123.375, 267.934 127.500 L 273.298 135 280.208 135 C 285.471 135, 286.939 134.702, 286.365 133.750 C 285.951 133.063, 281.840 127.465, 277.229 121.311 L 268.847 110.122 277.954 98.061 L 287.062 86 280.045 86 L 273.029 86 267.790 93 C 264.909 96.850, 262.209 100, 261.790 100 C 261.371 100, 258.671 96.850, 255.790 93 L 250.552 86 243.776 86 C 240.049 86, 237 86.148, 237 86.328 M 68.750 105.558 C 68.338 105.984, 68 110.358, 68 115.276 L 68 124.219 75.437 123.843 C 81.652 123.529, 83.302 123.065, 85.483 121.016 C 89.038 117.676, 88.776 110.650, 84.991 107.836 C 82.347 105.869, 70.110 104.153, 68.750 105.558 M 276.813 155.470 C 254.330 161.662, 240.081 183.213, 244.004 205.094 C 246.340 218.123, 255.758 231.265, 266.796 236.896 C 291.345 249.420, 320.797 236.822, 328.991 210.295 C 333.790 194.757, 329.260 178.155, 316.991 166.315 C 306.380 156.075, 290.338 151.745, 276.813 155.470 M 272.495 165.842 C 264.742 169.510, 256.934 177.905, 253.975 185.753 C 250.938 193.809, 251.504 206.275, 255.236 213.546 C 258.830 220.545, 265.364 226.777, 272.755 230.252 C 278.524 232.965, 279.726 233.166, 288.255 232.846 C 299.278 232.432, 305.019 230.067, 312.043 223.043 C 329.316 205.770, 324.706 177.495, 302.833 166.553 C 296.344 163.306, 294.988 163, 287.116 163.001 C 279.727 163.001, 277.645 163.406, 272.495 165.842 M 78 168.948 C 67.773 171.121, 52.975 176.685, 53.065 178.323 C 53.101 178.970, 54.566 183.550, 56.320 188.500 C 58.536 194.751, 59.967 197.440, 61.005 197.304 C 61.827 197.196, 66.325 195.651, 71 193.871 C 78.818 190.895, 80.468 190.630, 91.572 190.568 C 103.238 190.502, 103.766 190.592, 107.241 193.239 C 111.358 196.374, 113.484 201.605, 112.587 206.389 C 111.306 213.214, 106.692 218.376, 92.358 229.019 C 64.921 249.390, 54.873 263.216, 49.913 287.423 C 48.895 292.394, 48.412 296.812, 48.841 297.241 C 49.270 297.670, 70.518 297.903, 96.060 297.760 L 142.500 297.500 142.500 286 L 142.500 274.500 113.250 274.235 C 97.162 274.089, 84 273.578, 84 273.099 C 84 272.620, 85.843 269.468, 88.095 266.095 C 92.062 260.154, 97.713 255.050, 116.888 240.089 C 127.624 231.712, 133.594 224.994, 137.403 217 C 140.155 211.224, 140.500 209.497, 140.500 201.500 C 140.500 192.005, 139.525 188.433, 135.058 181.569 C 131.489 176.084, 122.418 170.483, 114.005 168.569 C 104.864 166.490, 88.765 166.659, 78 168.948 M 171.214 208.220 L 138.927 249.342 139.214 257.921 L 139.500 266.500 168.224 266.765 L 196.948 267.031 197.224 282.265 L 197.500 297.500 210 297.500 L 222.500 297.500 222.776 282.250 L 223.052 267 232.507 267 C 243.642 267, 243.263 267.480, 242.795 254 L 242.500 245.500 233 245 L 223.500 244.500 223.238 205.750 L 222.977 167 213.238 167.049 L 203.500 167.097 171.214 208.220 M 282 189.531 L 282 202.062 294.250 201.781 L 306.500 201.500 306.500 197.500 L 306.500 193.500 299 193 L 291.500 192.500 291.208 184.750 L 290.916 177 286.458 177 L 282 177 282 189.531 M 184.474 225.188 C 177.338 234.578, 171.140 242.877, 170.700 243.631 C 170.040 244.762, 172.243 245, 183.353 245 L 196.806 245 197.193 226.750 C 197.406 216.713, 197.550 208.413, 197.514 208.308 C 197.478 208.202, 191.610 215.798, 184.474 225.188 " stroke="none" fill="white" fill-rule="evenodd" transform="scale(0.08241758241758242) translate(0 0)"></path>
    </g>
</svg>