<svg width="60" height="60" viewBox="0 0 60 60" xmlns="http://www.w3.org/2000/svg">
    <rect fill="transparent" x="0" y="0" width="60" height="60" rx="4.8"></rect>

    <g width="30" height="30" viewBox="0 0 30 30" transform="translate(15, 15)" fill="#FFFFFF">
        <path d="M 114.276 73.511 C 95.531 77.584, 77.805 95.110, 74.051 113.281 C 73.337 116.735, 73.062 136.757, 73.236 172.500 L 73.500 226.500 76 226.782 C 78.045 227.014, 81.134 224.422, 92.987 212.532 L 107.474 198 128.053 198 C 151.882 198, 157.750 197.162, 167.916 192.307 C 177.138 187.903, 188.166 177.259, 192.242 168.829 C 197.756 157.427, 198 155.005, 198 111.790 L 198 72 159.250 72.079 C 130.677 72.138, 118.865 72.514, 114.276 73.511 " stroke="none" fill="white" fill-rule="evenodd" transform="scale(0.11070110701107011) translate(0 -14.5)"></path>
    </g>
</svg>