<svg width="60" height="60" viewBox="0 0 60 60" xmlns="http://www.w3.org/2000/svg">
    <rect fill="transparent" x="0" y="0" width="60" height="60" rx="4.8"></rect>

    <g width="30" height="30" viewBox="0 0 30 30" transform="translate(15, 15)" fill="#FFFFFF">
        <path d="M 191 98 C 191 116.184, 190.620 129, 190.081 129 C 189.575 129, 186.515 128.322, 183.279 127.493 C 168.108 123.606, 146.549 123.831, 131.056 128.036 C 117.487 131.720, 107.559 137.384, 97.876 146.966 C 90.772 153.997, 88.542 156.997, 85.217 164 C 75.221 185.051, 75.412 210.311, 85.724 231 C 91.385 242.358, 102.653 253.263, 115.022 259.353 C 127.236 265.367, 137.621 267.990, 152 268.695 C 165.324 269.347, 172.080 268.034, 183.750 262.523 L 191 259.099 191 263.067 L 191 267.036 214.750 266.768 L 238.500 266.500 238.755 166.750 L 239.010 67 215.005 67 L 191 67 191 98 M 147.385 159.558 C 134.121 164.452, 126.081 180.674, 127.342 200 C 128.016 210.336, 129.960 217.087, 134.035 223.239 C 144.086 238.413, 167.926 239.979, 180.004 226.258 C 186.732 218.615, 188.435 212.703, 188.435 197 C 188.435 185.169, 188.144 182.768, 186.083 177.581 C 183.352 170.710, 177.321 163.725, 171.545 160.743 C 166.247 158.008, 153.308 157.373, 147.385 159.558 " stroke="none" fill="white" fill-rule="evenodd" transform="scale(0.09009009009009009) translate(0 0)"></path>
    </g>
</svg>