<svg width="60" height="60" viewBox="0 0 60 60" xmlns="http://www.w3.org/2000/svg">
    <rect fill="transparent" x="0" y="0" width="60" height="60" rx="4.8"></rect>

    <g width="30" height="30" viewBox="0 0 30 30" transform="translate(15, 15)" fill="#FFFFFF">
        <path d="M 17 63.968 L 17 118 27.987 118 L 38.975 118 39.237 82.351 L 39.500 46.702 61.581 82.101 L 83.663 117.500 95.331 117.782 L 107 118.063 107.190 78.282 C 107.295 56.402, 107.408 32.200, 107.440 24.500 L 107.500 10.500 96.500 10.500 L 85.500 10.500 85.237 46.425 L 84.974 82.351 79.686 73.925 C 76.777 69.291, 69.945 58.300, 64.503 49.500 C 59.062 40.700, 51.392 28.325, 47.458 22 L 40.307 10.500 28.653 10.218 L 17 9.937 17 63.968 " stroke="none" fill="white" fill-rule="evenodd" transform="scale(0.23255813953488372) translate(0 0)"></path>
    </g>
</svg>