<svg width="60" height="60" viewBox="0 0 60 60" xmlns="http://www.w3.org/2000/svg">
    <rect fill="transparent" x="0" y="0" width="60" height="60" rx="4.8"></rect>

    <g width="30" height="30" viewBox="0 0 30 30" transform="translate(15, 15)" fill="#FFFFFF">
        <path d="M 77.035 28.934 C 76.466 29.998, 76 32.698, 76 34.934 L 76 39 68.200 39 C 63.467 39, 59.928 39.472, 59.200 40.200 C 58.540 40.860, 58 43.481, 58 46.024 L 58 50.649 51.750 51.574 L 45.500 52.500 44.700 57 C 44.260 59.475, 43.658 63.105, 43.363 65.066 C 42.877 68.290, 42.404 68.745, 38.444 69.804 C 29.962 72.072, 30.121 66.603, 36.184 147.489 C 40.720 208.009, 41.407 220.540, 40.634 228.689 C 39.872 236.724, 39.979 238.837, 41.279 241.412 C 42.137 243.110, 43.112 247.200, 43.445 250.500 C 45.492 270.747, 46.374 272.347, 55.383 272.139 C 58.441 272.068, 74.888 270.883, 91.933 269.505 C 108.978 268.127, 123.068 267, 123.245 267 C 124.013 267, 122.681 252.467, 121.885 252.167 C 121.398 251.983, 121 250.071, 121 247.917 L 121 244 116.450 244 C 108.266 244, 103.500 239.671, 103.705 232.423 C 103.834 227.856, 106.357 224.167, 110.546 222.416 C 115.718 220.255, 145.976 220.420, 150.643 222.635 C 155.127 224.762, 157.381 229.121, 156.685 234.315 C 155.877 240.334, 152.296 243.361, 145.238 243.989 L 139.500 244.500 139.200 250.819 C 138.988 255.305, 139.423 258.270, 140.700 261.043 C 142.878 265.770, 141.156 265.664, 174 263.078 L 197.500 261.228 229.500 264.610 C 247.100 266.470, 261.573 267.993, 261.662 267.996 C 261.751 267.998, 262.128 266.200, 262.500 264 C 263.013 260.964, 263.636 260, 265.088 260 C 266.811 260, 267 259.211, 267 252 L 267 244 262.250 243.996 C 255.673 243.991, 251.409 241.231, 250.022 236.082 C 248.615 230.857, 250.609 225.818, 255.190 223.026 C 258.173 221.207, 260.212 221.007, 275.849 221.004 C 295.268 221, 298.849 221.873, 301.654 227.298 C 303.794 231.436, 302.870 237.585, 299.619 240.836 C 297.617 242.837, 295.825 243.457, 291.044 243.803 L 285 244.240 285 249.504 C 285 253.786, 284.655 254.857, 283.148 255.251 C 281.645 255.644, 281.190 257.036, 280.739 262.618 C 280.433 266.403, 280.299 269.620, 280.441 269.767 C 280.759 270.094, 344.275 277, 346.965 277 C 348.023 277, 350.071 275.982, 351.517 274.739 C 353.700 272.861, 354.240 271.377, 354.697 265.989 C 355.027 262.101, 356.059 258.155, 357.271 256.145 C 359.076 253.150, 359.329 250.731, 359.630 233.645 C 359.889 218.894, 361.544 199.352, 366.839 148.500 C 370.803 110.434, 373.385 81.613, 372.940 80.405 C 371.610 76.798, 369.224 75.218, 364.026 74.504 L 359 73.812 359 67.962 C 359 60.483, 356.493 57.144, 350.248 56.306 C 346.726 55.834, 346 55.365, 346 53.559 C 346 51.315, 344.698 49.301, 341.884 47.190 C 340.602 46.228, 327.222 47.013, 277.142 50.989 C 242.423 53.745, 209.175 56.009, 203.258 56.020 C 197.341 56.030, 184.959 55.273, 175.742 54.338 L 158.984 52.636 159.617 45.044 C 160.103 39.211, 159.931 37.196, 158.875 36.348 C 157.829 35.507, 85.391 27, 79.280 27 C 78.615 27, 77.605 27.870, 77.035 28.934 M 226.882 84.381 C 222.363 85.996, 216.922 89.324, 214.591 91.900 C 212.864 93.808, 212.923 93.921, 216.657 95.844 C 233.150 104.343, 236.477 128.340, 222.987 141.513 L 219.098 145.310 223.299 147.987 C 233.709 154.621, 240.077 165.620, 240.807 178.230 L 241.257 186 257.234 186 L 273.211 186 272.780 174.250 C 272.447 165.168, 271.836 161.186, 270.090 156.715 C 267.533 150.171, 258.772 139.977, 254.007 138.003 C 250.274 136.457, 250.264 135.920, 253.925 133.214 C 255.533 132.025, 258.291 128.122, 260.054 124.542 C 263.030 118.497, 263.226 117.469, 262.802 110.149 C 262.444 103.955, 261.775 101.292, 259.680 97.717 C 252.752 85.896, 238.668 80.169, 226.882 84.381 M 168.493 100.351 C 150.851 108.566, 146.950 132.950, 161.025 147.025 L 164.704 150.704 161.331 152.521 C 156.296 155.233, 149.206 163.320, 146.200 169.782 C 143.875 174.778, 143.492 177.047, 143.167 187.750 L 142.794 200 180.500 200 L 218.206 200 217.833 187.750 C 217.510 177.105, 217.118 174.764, 214.845 169.880 C 211.757 163.244, 206.130 156.703, 200.333 153.009 L 196.166 150.353 199.930 146.809 C 211.015 136.369, 211.533 118.649, 201.100 106.766 C 193.530 98.145, 179.260 95.337, 168.493 100.351 " stroke="none" fill="white" fill-rule="evenodd" transform="scale(0.0967741935483871) translate(-39 0)"></path>
    </g>
</svg>