<svg width="60" height="60" viewBox="0 0 60 60" xmlns="http://www.w3.org/2000/svg">
    <rect fill="transparent" x="0" y="0" width="60" height="60" rx="4.8"></rect>

    <g width="30" height="30" viewBox="0 0 30 30" transform="translate(15, 15)" fill="#FFFFFF">
        <path d="M 193.500 27.353 C 190.091 28.736, 180.675 33.700, 174 37.632 C 167.010 41.749, 163.443 43.780, 150 51.298 C 143.125 55.142, 136.306 59.123, 134.846 60.144 C 133.386 61.165, 131.943 62, 131.640 62 C 131.336 62, 128.706 63.416, 125.794 65.147 C 122.882 66.877, 118.025 69.646, 115 71.299 C 111.975 72.953, 108.306 75.137, 106.846 76.153 C 105.386 77.169, 103.959 78, 103.674 78 C 103.229 78, 98.221 80.841, 82 90.297 C 77.155 93.122, 65.296 99.812, 60.596 102.373 C 54.392 105.753, 47.133 112.840, 44.721 117.869 L 42.500 122.500 42.233 205.128 C 41.971 286.255, 42.003 287.842, 43.997 292.493 C 48.296 302.522, 49.676 303.613, 80.323 321.223 C 90.871 327.283, 100.962 333.087, 102.750 334.120 C 104.537 335.154, 107.462 336.846, 109.250 337.880 C 111.037 338.913, 121.275 344.818, 132 351 C 142.725 357.182, 152.963 363.087, 154.750 364.120 C 156.537 365.154, 159.575 366.900, 161.500 368 C 169.642 372.653, 172.104 374.077, 183.977 381.007 C 190.840 385.013, 197.927 389.124, 199.727 390.145 C 204.400 392.794, 209.491 395.706, 213.250 397.880 C 215.037 398.913, 225.275 404.818, 236 411 C 246.725 417.182, 256.962 423.087, 258.750 424.120 C 260.538 425.154, 263.462 426.837, 265.250 427.860 C 267.038 428.883, 270.882 431.133, 273.794 432.860 C 276.706 434.587, 279.743 436, 280.544 436 C 281.797 436, 282.002 429.753, 282.015 391.250 C 282.024 366.637, 282.361 346.050, 282.765 345.500 C 283.169 344.950, 284.625 343.855, 286 343.067 C 288.089 341.869, 310.276 329.079, 323 321.737 C 324.925 320.626, 328.525 318.584, 331 317.200 C 333.475 315.815, 337.075 313.731, 339 312.568 C 340.925 311.406, 343.796 309.795, 345.381 308.988 C 350.704 306.279, 356.555 300.245, 359.305 294.630 L 362.034 289.057 361.767 205.279 C 361.509 124.215, 361.436 121.370, 359.529 117.500 C 356.924 112.215, 349.483 105.172, 342.848 101.711 C 337.269 98.801, 335.987 98.077, 324.500 91.354 C 320.650 89.101, 314.350 85.555, 310.500 83.475 C 306.650 81.395, 302.375 78.930, 301 77.999 C 299.625 77.067, 295.913 74.887, 292.750 73.153 C 278.148 65.147, 275.093 63.423, 269.148 59.834 C 265.654 57.725, 262.574 56, 262.302 56 C 262.031 56, 260.614 55.169, 259.154 54.153 C 257.694 53.137, 254.025 50.952, 251 49.298 C 240.348 43.474, 235.465 40.731, 232 38.626 C 226.360 35.200, 218.839 31.077, 214 28.760 C 208.730 26.236, 198.058 25.503, 193.500 27.353 M 143.435 119.890 C 137.650 122.518, 132.764 127.125, 129.940 132.618 C 127.947 136.492, 127.500 138.839, 127.500 145.430 C 127.500 152.405, 127.868 154.126, 130.212 158.113 C 133.446 163.614, 138.687 168.421, 143.787 170.564 C 150.897 173.551, 167.060 171.949, 169.491 168.015 C 169.836 167.457, 170.879 167.003, 171.809 167.006 C 173.777 167.013, 174.465 167.371, 191 176.990 C 197.875 180.990, 205.975 185.622, 209 187.284 C 212.025 188.946, 215.625 191.068, 217 192 C 218.375 192.932, 221.975 195.049, 225 196.705 C 238.524 204.105, 238 203.581, 238 209.704 C 238 215.829, 241.182 223.414, 245.822 228.349 C 252.914 235.893, 266.981 238.369, 276.724 233.790 C 294.218 225.566, 298.348 203.410, 284.918 189.825 C 279.050 183.890, 274.225 181.820, 265.955 181.690 C 259.305 181.586, 254.624 182.888, 249.847 186.174 L 247.194 187.998 230.347 178.364 C 221.081 173.064, 210.245 166.765, 206.267 164.364 C 202.289 161.964, 198.758 160, 198.421 160 C 198.084 160, 196.614 159.157, 195.154 158.126 C 193.694 157.096, 190.137 155.024, 187.250 153.522 L 182 150.790 181.985 145.645 C 181.951 133.980, 175.341 124.094, 164.564 119.591 C 159.307 117.395, 148.596 117.546, 143.435 119.890 M 212.500 228.903 C 209.750 230.465, 201.875 235.007, 195 238.996 C 188.125 242.985, 181.099 247.050, 179.387 248.030 C 177.675 249.010, 175.370 250.376, 174.266 251.066 C 172.577 252.121, 171.801 252.001, 169.379 250.313 C 162.193 245.303, 150.752 244.482, 142.500 248.383 C 131.241 253.706, 124.266 266.882, 126.935 277.789 C 129.351 287.665, 133.906 293.594, 142.443 297.976 C 148.534 301.102, 159.495 301.359, 165 298.505 C 175.658 292.979, 181.956 283.106, 181.989 271.872 C 182.002 267.675, 182.358 267.315, 191.585 262.183 C 195.388 260.068, 200.075 257.419, 202 256.297 C 218.578 246.633, 223.249 243.997, 223.829 243.978 C 224.198 243.966, 225.515 243.174, 226.756 242.219 L 229.012 240.482 226.431 236.684 C 225.012 234.595, 223.203 231.336, 222.412 229.443 C 220.658 225.245, 219.090 225.159, 212.500 228.903 " stroke="none" fill="white" fill-rule="evenodd" transform="scale(0.07281553398058252) translate(0 -19)"></path>
    </g>
</svg>