<svg width="60" height="60" viewBox="0 0 60 60" xmlns="http://www.w3.org/2000/svg">
    <rect fill="transparent" x="0" y="0" width="60" height="60" rx="4.8"></rect>

    <g width="30" height="30" viewBox="0 0 30 30" transform="translate(15, 15)" fill="#FFFFFF">
        <path d="M 109.272 43.502 C 100.067 45.617, 91.043 50.773, 83.908 57.994 C 80.283 61.663, 76.588 64.944, 75.696 65.286 C 74.667 65.681, 71.122 63.908, 65.983 60.429 C 61.532 57.415, 57.550 55.160, 57.133 55.418 C 56.168 56.014, 55.650 84.758, 56.540 88.304 C 57.018 90.208, 61.014 93.816, 70.625 101.021 C 78.005 106.553, 84.725 111.341, 85.559 111.661 C 87.973 112.587, 91 109.094, 91 105.383 C 91 95.017, 100.174 82.867, 110.974 78.929 C 114.271 77.727, 117.437 76.178, 118.011 75.487 C 118.662 74.702, 118.950 68.507, 118.777 58.979 C 118.458 41.393, 118.457 41.392, 109.272 43.502 M 127.096 43.385 C 126.313 44.328, 126.035 49.627, 126.223 60.027 C 126.447 72.369, 126.787 75.437, 128 76.082 C 128.825 76.521, 131.996 77.965, 135.046 79.291 C 142.644 82.595, 147.350 87.012, 150.953 94.222 C 157.063 106.449, 154.134 122.251, 144.076 131.320 C 137.755 137.019, 131.886 139.248, 123 139.323 C 117.198 139.372, 114.288 138.851, 110.145 137.025 C 107.200 135.726, 94.207 126.647, 81.272 116.848 C 68.338 107.050, 57.360 99.278, 56.877 99.576 C 56.393 99.875, 56 122.531, 56 150.136 L 56 200.154 59.007 203.161 L 62.013 206.167 74.096 205.834 C 85.914 205.507, 86.230 205.439, 88.589 202.694 C 90.924 199.977, 91 199.375, 91 183.551 L 91 167.214 98.274 170.038 C 129.264 182.072, 162.371 170.837, 179.887 142.344 C 188.106 128.973, 191.134 109.691, 187.548 93.570 C 182.254 69.777, 162.422 49.397, 138.936 43.616 C 130.906 41.639, 128.582 41.594, 127.096 43.385 " stroke="none" fill="white" fill-rule="evenodd" transform="scale(0.12195121951219512) translate(0 0)"></path>
    </g>
</svg>