<svg width="60" height="60" viewBox="0 0 60 60" xmlns="http://www.w3.org/2000/svg">
    <rect fill="transparent" x="0" y="0" width="60" height="60" rx="4.8"></rect>

    <g width="30" height="30" viewBox="0 0 30 30" transform="translate(15, 15)" fill="#FFFFFF">
        <path d="M 86.250 18.277 L 75 20.331 75 41.233 C 75 60.682, 74.878 62.097, 73.250 61.584 C 64.351 58.785, 51.835 58.328, 41.878 60.438 C 26.662 63.664, 15.426 72.495, 9.042 86.247 C 4.085 96.925, 3 102.465, 3 117.102 C 3 149.926, 16.076 169.010, 42.274 174.422 C 48.680 175.745, 58.454 175.997, 102.708 175.980 C 131.761 175.969, 158.545 175.520, 162.272 174.981 C 177.832 172.731, 187.609 166.949, 193.050 156.778 C 196.171 150.946, 196.413 149.825, 196.455 141 C 196.493 133.061, 196.107 130.630, 194.108 126.206 C 189.591 116.210, 180.624 110.867, 159.098 105.346 C 144.773 101.671, 142.757 100.895, 139.250 97.701 C 134.646 93.507, 137.587 86.339, 144.798 84.179 C 146.962 83.530, 154.417 83, 161.366 83 L 174 83 174 88.500 C 174 91.525, 174.411 94, 174.912 94 C 175.940 94, 197 71.915, 197 70.837 C 197 69.783, 175.911 48, 174.891 48 C 174.401 48, 174 50.415, 174 53.366 L 174 58.732 158.750 59.275 C 141.654 59.883, 133.031 61.792, 125.631 66.605 C 116.406 72.606, 112 81.463, 112 94.003 C 112 102.575, 114.168 108.773, 119.144 114.426 C 124.358 120.350, 132.169 123.972, 148.500 128.039 C 167.462 132.762, 171.400 135.115, 171.400 141.723 C 171.400 145.932, 168.012 149.347, 162.248 150.948 C 156.972 152.413, 49.873 152.365, 44.500 150.895 C 38.877 149.356, 31.789 141.838, 29.934 135.445 C 28.067 129.009, 27.984 104.025, 29.812 98.829 C 33.722 87.713, 41.640 82.985, 56.288 83.019 C 60.804 83.030, 66.750 83.622, 69.500 84.334 L 74.500 85.630 74.766 113.815 L 75.031 142 87.516 142 L 100 142 100 79 C 100 29.207, 99.738 16.023, 98.750 16.111 C 98.063 16.172, 92.438 17.147, 86.250 18.277 " stroke="none" fill="white" fill-rule="evenodd" transform="scale(0.15) translate(0 0)"></path>
    </g>
</svg>