<svg width="60" height="60" viewBox="0 0 60 60" xmlns="http://www.w3.org/2000/svg">
    <rect fill="transparent" x="0" y="0" width="60" height="60" rx="4.8"></rect>

    <g width="30" height="30" viewBox="0 0 30 30" transform="translate(15, 15)" fill="#FFFFFF">
        <path d="M 0 115.004 L 0 230.009 113.250 229.754 L 226.500 229.500 226.754 114.750 L 227.008 0 113.504 0 L 0 0 0 115.004 M 0.483 115.500 C 0.483 178.750, 0.603 204.478, 0.750 172.673 C 0.896 140.868, 0.896 89.118, 0.750 57.673 C 0.603 26.228, 0.483 52.250, 0.483 115.500 M 37.668 20.750 C 37.420 21.163, 36.902 58.400, 36.516 103.500 C 35.816 185.266, 36.194 199.758, 39.175 205.328 C 42.731 211.971, 51.280 216.007, 61.761 215.988 C 68.844 215.976, 97.717 213.439, 102 212.453 C 103.375 212.136, 106.525 211.403, 109 210.825 C 129.728 205.978, 146.803 195.550, 160.275 179.509 C 180.048 155.967, 182.191 124.403, 165.764 98.684 C 155.153 82.070, 134.765 67.287, 112 59.700 C 101.722 56.275, 83.081 52, 78.424 52 L 76 52 76 36 L 76 20 57.059 20 C 46.641 20, 37.916 20.337, 37.668 20.750 M 76 134 L 76 176 79.481 176 C 87.967 176, 105.790 172.062, 113.647 168.450 C 118.104 166.402, 126.009 160.211, 130.284 155.420 C 142.123 142.154, 140.314 124.702, 125.731 111.487 C 119.595 105.927, 104.831 97.739, 97.786 95.989 C 95.979 95.541, 91.891 94.459, 88.701 93.587 C 85.512 92.714, 81.349 92, 79.451 92 L 76 92 76 134 " stroke="none" fill="white" fill-rule="evenodd" transform="scale(0.13274336283185842) translate(0 -2)"></path>
    </g>
</svg>