<svg width="60" height="60" viewBox="0 0 60 60" xmlns="http://www.w3.org/2000/svg">
    <rect fill="transparent" x="0" y="0" width="60" height="60" rx="4.8"></rect>

    <g width="30" height="30" viewBox="0 0 30 30" transform="translate(15, 15)" fill="#FFFFFF">
        <path d="M 188 30.535 C 182.775 31.325, 177.375 32.405, 176 32.934 C 174.625 33.463, 170.125 34.871, 166 36.063 C 133.838 45.356, 101.667 68.898, 80.387 98.712 C 69.578 113.856, 58.879 138.356, 55.588 155.500 C 54.638 160.450, 53.329 166.300, 52.680 168.500 C 51.105 173.837, 51.097 214.360, 52.670 218.500 C 53.297 220.150, 54.589 225.775, 55.542 231 C 64.188 278.409, 104.458 327.022, 150.750 345.931 C 162.872 350.882, 181.643 355.746, 193.500 357.008 C 206.028 358.341, 228.769 358.119, 239.500 356.558 C 250.284 354.990, 267.468 350.721, 273.295 348.162 C 275.608 347.147, 279.075 345.710, 281 344.970 C 291.414 340.967, 311.077 328.204, 322.332 318.143 C 341.661 300.863, 358.185 277.663, 365.524 257.500 C 366.525 254.750, 367.704 252.019, 368.144 251.432 C 369.298 249.890, 374.014 230.869, 375.566 221.500 C 377.318 210.923, 377.305 177.960, 375.545 167.500 C 367.745 121.149, 344.563 84.355, 305.788 56.786 C 288.386 44.413, 269.945 36.419, 247 31.303 C 237.431 29.170, 200.227 28.685, 188 30.535 M 199.928 80.002 C 190.955 81.035, 179.967 83.484, 175.616 85.420 C 173.902 86.182, 169.866 87.971, 166.646 89.395 C 159.622 92.502, 149.571 99.105, 141.849 105.685 C 132.819 113.381, 118.840 131.089, 116.031 138.393 C 115.586 139.552, 114.085 142.975, 112.696 146 C 111.307 149.025, 109.241 155.325, 108.105 160 C 106.969 164.675, 105.498 170.750, 104.836 173.500 C 104.163 176.295, 103.634 185.337, 103.636 194 C 103.642 214.293, 106.888 230.158, 114.068 244.980 C 115.681 248.309, 117 251.218, 117 251.445 C 117 253.028, 126.438 265.511, 132.351 271.748 C 144.589 284.658, 157.986 294.279, 170.500 299.146 C 173.250 300.216, 176.850 301.702, 178.500 302.449 C 189.946 307.632, 224.341 309.400, 240.500 305.637 C 277.064 297.119, 308.028 268.007, 320.120 230.776 C 321.678 225.978, 323.469 219.003, 324.099 215.276 C 326.414 201.589, 325.065 168.814, 321.951 163.087 C 321.476 162.214, 320.357 158.832, 319.464 155.570 C 317.124 147.027, 310.052 133.514, 303.149 124.395 C 289.041 105.759, 276.267 95.924, 252.635 85.501 C 242.298 80.943, 215.785 78.176, 199.928 80.002 M 190.460 111.250 C 190.198 111.938, 190.100 149.400, 190.242 194.500 L 190.500 276.500 214.250 276.768 L 238 277.036 238 193.518 L 238 110 214.469 110 C 196.565 110, 190.823 110.299, 190.460 111.250 M 36.510 303.461 C 30.613 305.431, 28.655 306.718, 23.981 311.690 C 20.613 315.273, 17.963 319.181, 17.221 321.658 C 15.634 326.953, 15.731 338.500, 17.400 343.175 C 19.360 348.663, 24.695 354.830, 30.940 358.826 C 35.888 361.992, 37.397 362.430, 44.648 362.812 C 51.798 363.188, 53.478 362.928, 58.368 360.689 C 64.641 357.817, 71.835 350.974, 74.511 345.335 C 77.133 339.811, 77.599 329.572, 75.550 322.523 C 74.195 317.862, 72.704 315.544, 68.102 310.942 C 63.216 306.056, 61.288 304.873, 55.316 303.094 C 46.653 300.514, 45.252 300.542, 36.510 303.461 " stroke="none" fill="white" fill-rule="evenodd" transform="scale(0.075) translate(0 0)"></path>
    </g>
</svg>