<svg width="60" height="60" viewBox="0 0 60 60" xmlns="http://www.w3.org/2000/svg">
    <rect fill="transparent" x="0" y="0" width="60" height="60" rx="4.8"></rect>

    <g width="30" height="30" viewBox="0 0 30 30" transform="translate(15, 15)" fill="#FFFFFF">
        <path d="M 187.500 83.152 C 159.556 85.176, 134.483 96.678, 114.162 116.796 C 98.713 132.090, 89.949 147.299, 83.214 170.500 C 80.796 178.832, 80.598 180.985, 80.551 199.500 C 80.503 218.510, 80.640 219.995, 83.329 229.500 C 89.179 250.183, 98.987 266.977, 114 282.017 C 133.635 301.688, 157.208 312.909, 185.613 316.105 C 203.315 318.097, 224.284 314.800, 242 307.239 C 249.457 304.056, 262 297.302, 262 296.469 C 262 296.305, 254.688 296.162, 245.750 296.152 C 201.017 296.097, 168.319 285.140, 145.544 262.571 C 129.285 246.460, 119.133 225.379, 117.409 204.148 C 115.799 184.330, 123.962 161.851, 138.397 146.351 C 152.044 131.696, 169.003 123.025, 188.257 120.857 C 211.717 118.215, 234.336 126.194, 251.861 143.293 C 269.922 160.916, 278.482 185.311, 275.093 209.500 C 273.978 217.454, 271.462 226.726, 269.977 228.350 C 269.025 229.391, 231.691 211.103, 220.091 203.913 C 215.466 201.047, 208.853 195.915, 205.397 192.509 L 199.112 186.316 197.889 189.267 C 197.217 190.891, 196.667 195.450, 196.667 199.398 C 196.667 205.450, 197.167 207.592, 199.853 213.039 C 208.399 230.366, 226.920 248.497, 256 268 C 290.263 290.980, 309.576 311.256, 316.345 331.352 L 318.571 337.963 321.289 331.725 C 328.025 316.262, 328.699 298.342, 323.118 283.120 C 319.586 273.490, 313.102 262.700, 306.543 255.542 C 304.044 252.815, 302 250.508, 302 250.416 C 302 250.324, 303.156 247.636, 304.568 244.442 C 311.368 229.066, 314.902 205.864, 313.010 189.023 C 311.156 172.522, 308.924 164.333, 302.482 150.396 C 294.836 133.856, 285.109 121.342, 270.366 109.076 C 247.631 90.161, 218.135 80.933, 187.500 83.152 " stroke="none" fill="white" fill-rule="evenodd" transform="scale(0.075) translate(0 0)"></path>
    </g>
</svg>