<svg width="60" height="60" viewBox="0 0 60 60" xmlns="http://www.w3.org/2000/svg">
    <rect fill="transparent" x="0" y="0" width="60" height="60" rx="4.8"></rect>

    <g width="30" height="30" viewBox="0 0 30 30" transform="translate(15, 15)" fill="#FFFFFF">
        <path d="M 388.500 71.682 C 344.233 75.513, 308.323 85.313, 268.500 104.431 C 172.157 150.683, 102.699 242.030, 84.057 347 C 80.944 364.525, 79 383.268, 79 395.744 L 79 407 144 407 L 209 407 209 400.551 C 209 386.529, 213.718 359.775, 219.148 343 C 222.159 333.698, 228.579 318.722, 233.296 310 C 269.771 242.541, 339.021 201, 415 201 C 469.776 201, 521.525 222.512, 560.512 261.491 C 597.894 298.864, 618.566 346.275, 620.684 399.500 C 623.909 480.504, 578.560 556.289, 505.500 591.991 C 480.649 604.135, 454.179 611.036, 426.250 612.653 L 415 613.305 415 548.652 L 415 484 350 484 L 285 484 285 548.500 L 285 613 234.500 613 L 184 613 184 571.489 L 184 529.978 142.750 530.239 L 101.500 530.500 101.239 571.750 L 100.978 613 142.480 613 L 183.982 613 184.241 663.250 L 184.500 713.500 234.500 713.500 L 284.500 713.500 284.759 663.250 L 285.018 613 350.009 613 L 415 613 414.999 678.250 L 414.998 743.500 430.249 742.848 C 512.898 739.316, 590.269 705.740, 649.850 647.548 C 677.964 620.090, 697.135 593.912, 715.063 558.500 C 727.333 534.263, 735.266 513.059, 741.469 487.918 C 748.377 459.923, 750.997 437.368, 750.986 406 C 750.973 368.920, 746.115 337.877, 734.916 303.308 C 707.251 217.908, 646.110 146.639, 566.140 106.576 C 517.667 82.292, 468.285 70.761, 414.500 71.169 C 402.400 71.261, 390.700 71.492, 388.500 71.682 " stroke="none" fill="white" fill-rule="evenodd" transform="scale(0.036855036855036855) translate(0 0)"></path>
    </g>
</svg>