<svg width="60" height="60" viewBox="0 0 60 60" xmlns="http://www.w3.org/2000/svg">
    <rect fill="transparent" x="0" y="0" width="60" height="60" rx="4.8"></rect>

    <g width="30" height="30" viewBox="0 0 30 30" transform="translate(15, 15)" fill="#FFFFFF">
        <path d="M 190 110.688 C 175.866 113.035, 159.754 119.586, 149.855 127.009 C 132.133 140.300, 119.011 160.518, 114.424 181.601 C 112.185 191.890, 112.139 209.253, 114.325 218.237 C 120.994 245.633, 138.344 268.432, 161.496 280.223 C 186.819 293.120, 217.507 293.318, 242.500 280.745 C 250.388 276.776, 258.692 271.046, 262.848 266.702 L 266.196 263.203 258.576 255.608 L 250.956 248.013 245.246 252.664 C 234.100 261.742, 216.717 268.002, 202.662 267.999 C 196.747 267.997, 185.473 265.948, 179.259 263.744 C 163.906 258.299, 146.317 241.590, 140.581 227 C 135.712 214.619, 135.548 213.732, 135.576 200 C 135.604 186.346, 135.846 185.042, 140.581 173 C 146.665 157.525, 164.402 141.176, 181.172 135.587 C 187.324 133.536, 196.499 132, 202.596 132 C 216.723 132, 234.079 138.241, 245.246 147.336 L 250.956 151.987 258.576 144.392 L 266.196 136.797 262.848 133.298 C 254.252 124.313, 236.851 115.330, 221.767 112.090 C 212.672 110.137, 197.381 109.462, 190 110.688 M 191.500 152.424 C 184.214 154.251, 179.808 156.340, 173.665 160.878 C 146.381 181.034, 147.512 221.885, 175.880 240.861 C 192.485 251.969, 217.676 251.106, 232.250 238.930 L 235.500 236.215 233.507 233.858 L 231.514 231.500 234.082 233.760 L 236.650 236.019 239.604 232.260 C 246.241 223.814, 250.311 214.258, 251.445 204.455 C 252.600 194.476, 247.949 177.714, 242.161 171 C 240.976 169.625, 239.105 167.419, 238.003 166.097 C 236.901 164.775, 236 163.928, 236 164.215 C 236 164.502, 234.377 163.205, 232.393 161.335 C 229.760 158.851, 228.208 158.095, 226.643 158.532 C 225.172 158.943, 224.914 158.843, 225.821 158.213 C 228.891 156.078, 211.415 150.968, 201.500 151.102 C 198.750 151.140, 194.250 151.734, 191.500 152.424 M 184 169.059 C 184 169.641, 184.450 169.840, 185 169.500 C 185.550 169.160, 186 168.684, 186 168.441 C 186 168.198, 185.550 168, 185 168 C 184.450 168, 184 168.477, 184 169.059 M 197 172.889 C 195.075 173.303, 192.066 174.395, 190.313 175.314 C 188.561 176.234, 186.423 176.716, 185.563 176.386 C 184.696 176.053, 184 176.305, 184 176.952 C 184 177.628, 184.526 177.795, 185.250 177.350 C 185.938 176.928, 184.919 178.432, 182.988 180.693 C 176.903 187.815, 174.997 192.398, 175.022 199.845 C 175.105 224.950, 205.171 236.951, 222.836 218.930 C 224.882 216.842, 227.391 212.815, 228.410 209.981 C 230.171 205.083, 231.409 191.629, 230.019 192.488 C 229.659 192.711, 228.781 191.230, 228.070 189.197 C 226.350 184.283, 219.522 177.235, 214.246 174.928 C 209.184 172.714, 201.844 171.847, 197 172.889 M 240 217.059 C 240 217.641, 240.450 217.840, 241 217.500 C 241.550 217.160, 242 216.684, 242 216.441 C 242 216.198, 241.550 216, 241 216 C 240.450 216, 240 216.477, 240 217.059 M 184 241.059 C 184 241.641, 184.450 241.840, 185 241.500 C 185.550 241.160, 186 240.684, 186 240.441 C 186 240.198, 185.550 240, 185 240 C 184.450 240, 184 240.477, 184 241.059 " stroke="none" fill="white" fill-rule="evenodd" transform="scale(0.075) translate(0 0)"></path>
    </g>
</svg>