<svg xmlns="http://www.w3.org/2000/svg" width="200" height="200" viewBox="0 0 200 200">
  <g fill="none" fill-rule="evenodd" transform="translate(43 40)">
    <path stroke="#FFF" stroke-width="2.5" d="M94.2341146,109.113248 C86.9747396,116.042594 78.3449479,119.720515 68.4525521,120.573505 C60.2971354,121.26596 52.3525521,120.307545 44.5133854,117.961822 C36.5136979,115.616099 29.2519271,111.938178 22.9389063,106.34103 C17.7303646,101.650782 13.7317188,96.0536337 10.6267188,89.7640297 C5.83864583,80.1163762 2.62942708,69.9883168 1.15598958,59.2744257 C0.209635417,52.3450792 0.156927083,45.4684455 1.94661458,38.6984356 C3.6296875,32.1955842 7.04973958,26.7589703 11.7851042,22.1214356 C16.4665625,17.5366139 21.8859375,14.0192277 27.6730729,11.0876733 C36.5676042,6.66338614 45.8802083,3.3580495 55.6671875,1.59935644 C62.6654167,0.319871287 69.6636458,-1.11022302e-15 76.7145833,1.43762376 C83.3426563,2.82493069 89.0255729,5.96973267 93.9717708,10.6072673 C99.3384375,15.6185842 103.337083,21.6410297 106.597813,28.1977921 C110.335313,35.7668812 112.965938,43.7097525 114.175833,52.1318317 C115.333021,60.5 114.807135,68.7603465 112.546667,76.9188614 C111.4925,80.4362475 110.282604,83.795495 109.755521,85.5529901 C105.441823,95.4126931 100.760365,102.930267 94.2341146,109.113248 Z"/>
    <polygon fill="#FFF" fill-rule="nonzero" points="40.729 46.515 40.729 39.535 76.667 39.535 76.667 46.515 62.339 46.515 62.339 86.257 55.173 86.257 55.173 46.515"/>
  </g>
</svg>
