<svg width="60" height="60" viewBox="0 0 60 60" xmlns="http://www.w3.org/2000/svg">
    <rect fill="transparent" x="0" y="0" width="60" height="60" rx="4.8"></rect>

    <g width="30" height="30" viewBox="0 0 30 30" transform="translate(15, 15)" fill="#FFFFFF">
        <path d="M 1.200 1.200 C -0.537 2.937, -0.537 157.063, 1.200 158.800 C 2.113 159.713, 20.988 160, 80.045 160 C 153.996 160, 157.769 159.913, 159.345 158.171 C 160.855 156.503, 161 149.538, 161 78.612 C 161 30.893, 160.641 1.104, 160.069 1.457 C 159.557 1.774, 158.856 1.575, 158.510 1.016 C 157.539 -0.555, 2.775 -0.375, 1.200 1.200 M 0.476 80 C 0.476 123.175, 0.599 140.838, 0.750 119.250 C 0.900 97.663, 0.900 62.338, 0.750 40.750 C 0.599 19.163, 0.476 36.825, 0.476 80 M 16.420 17.348 C 16.132 18.097, 16.033 21.588, 16.199 25.105 L 16.500 31.500 80 31.500 L 143.500 31.500 143.500 24 L 143.500 16.500 80.221 16.243 C 27.552 16.028, 16.855 16.214, 16.420 17.348 M 16.443 49.289 C 16.168 50.005, 16.068 57.096, 16.221 65.046 L 16.500 79.500 80 79.500 L 143.500 79.500 143.500 64 L 143.500 48.500 80.221 48.243 C 28.954 48.034, 16.848 48.232, 16.443 49.289 M 16.452 97.265 C 16.182 97.969, 16.082 108.660, 16.230 121.023 L 16.500 143.500 80 143.500 L 143.500 143.500 143.500 120 L 143.500 96.500 80.221 96.243 C 29.541 96.036, 16.845 96.240, 16.452 97.265 " stroke="none" fill="white" fill-rule="evenodd" transform="scale(0.1875) translate(0 0)"></path>
    </g>
</svg>