<svg width="60" height="60" viewBox="0 0 60 60" xmlns="http://www.w3.org/2000/svg">
    <rect fill="transparent" x="0" y="0" width="60" height="60" rx="4.8"></rect>

    <g width="30" height="30" viewBox="0 0 30 30" transform="translate(15, 15)" fill="#FFFFFF">
        <path d="M 187.500 56.002 C 181.033 56.974, 181.128 56.948, 129.632 72.075 C 105.505 79.162, 83.447 86.022, 80.613 87.319 C 69.043 92.617, 57.805 106.929, 55.110 119.799 C 53.362 128.147, 53.599 275.925, 55.371 282.500 C 57.581 290.701, 61.017 296.904, 66.819 303.172 C 75.773 312.843, 78.238 313.944, 114.500 324.478 C 126.600 327.993, 145.681 333.583, 156.903 336.900 C 185.300 345.294, 191.182 346.387, 204 345.652 C 215.879 344.972, 215.380 345.095, 265 330.564 C 324.617 313.106, 323.433 313.578, 332.819 303.519 C 339.116 296.771, 343.194 289.228, 344.884 281.201 C 346.436 273.830, 346.442 127.209, 344.890 119.799 C 342.031 106.145, 330.454 91.932, 317.903 86.671 C 308.997 82.937, 219.952 57.133, 212 55.981 C 204.551 54.902, 194.755 54.910, 187.500 56.002 M 226.168 146.193 L 199.835 154.280 172.751 146.521 C 149.389 139.827, 144.969 138.844, 140.590 139.362 C 134.156 140.124, 128.324 144.120, 125 150.044 L 122.500 154.500 122.244 211.500 C 122.045 255.743, 122.269 269.060, 123.246 271 C 124.237 272.968, 126.616 274.196, 134.416 276.766 C 144.810 280.191, 146.817 280.187, 150.034 276.733 C 151.784 274.855, 152 273.165, 152 261.370 C 152 253.235, 152.403 247.869, 153.045 247.472 C 153.620 247.117, 162.732 249.435, 173.295 252.623 C 200.184 260.738, 199.750 260.755, 235.426 250.161 C 270.050 239.880, 271.138 239.372, 275.356 231.500 C 277.407 227.674, 277.514 226.029, 277.811 193.701 C 278.011 171.922, 277.733 158.031, 277.029 154.641 C 275.013 144.930, 266.644 138.008, 257 138.075 C 254.285 138.094, 242.053 141.315, 226.168 146.193 M 226.500 176.301 C 201.917 184.463, 198.649 184.488, 173.192 176.705 C 163.122 173.626, 154.234 171.357, 153.442 171.661 C 152.247 172.119, 152 175.948, 152 193.986 L 152 215.757 154.750 216.831 C 158.112 218.143, 189.769 227.488, 196 229.008 C 200.254 230.046, 201.783 229.704, 224 222.758 L 247.500 215.410 247.769 193.751 C 248.017 173.874, 247.893 172.018, 246.269 171.208 C 245.018 170.584, 239.228 172.075, 226.500 176.301 " stroke="none" fill="white" fill-rule="evenodd" transform="scale(0.075) translate(0 0)"></path>
    </g>
</svg>