<svg width="60" height="60" viewBox="0 0 60 60" xmlns="http://www.w3.org/2000/svg">
    <rect fill="transparent" x="0" y="0" width="60" height="60" rx="4.8"></rect>

    <g width="30" height="30" viewBox="0 0 30 30" transform="translate(15, 15)" fill="#FFFFFF">
        <path d="M 85 6.607 C 75.341 8.201, 71 9.701, 71 11.443 C 71 15.627, 74.844 22.975, 79.435 27.565 C 85.534 33.664, 91.532 36, 101.095 36 C 112.688 36, 122.912 29.646, 127.647 19.500 C 132.163 9.823, 131.268 8.896, 115.036 6.449 C 103.515 4.712, 96.244 4.751, 85 6.607 M 54 17.691 C 39.320 26.406, 27.692 38.048, 19.618 52.115 C 16.605 57.362, 16.735 57.619, 24.058 60.941 C 29.735 63.516, 39.694 63.657, 46.391 61.257 C 52.755 58.976, 58.835 53.544, 62.511 46.855 C 65.088 42.168, 65.452 40.502, 65.430 33.500 C 65.410 26.778, 64.971 24.662, 62.686 20.250 C 61.190 17.362, 59.636 15.004, 59.233 15.009 C 58.830 15.015, 56.475 16.221, 54 17.691 M 138.773 19.250 C 136.875 22.808, 136.505 25.046, 136.503 33 C 136.500 41.652, 136.763 42.975, 139.449 47.824 C 142.757 53.795, 147.574 58.039, 154.542 61.121 C 160.928 63.946, 172.406 63.493, 179.250 60.145 C 181.863 58.867, 184 57.349, 184 56.772 C 184 54.334, 172.528 38.763, 165.792 32.059 C 158.739 25.038, 144.925 15, 142.317 15 C 141.615 15, 140.020 16.913, 138.773 19.250 M 97.030 45.255 C 91.004 48.363, 90.377 57.592, 95.995 60.498 C 100.235 62.690, 103.381 62.346, 106.364 59.364 C 111.407 54.321, 109.013 46.202, 102 44.565 C 100.625 44.244, 98.389 44.554, 97.030 45.255 M 62.635 59.073 C 60.509 60.745, 60 61.986, 60 65.501 C 60 74.389, 68.705 77.526, 74.904 70.873 C 77.909 67.647, 77.591 63.437, 74.077 59.923 C 70.561 56.407, 66.415 56.099, 62.635 59.073 M 127.712 59.012 C 123.204 62.558, 123.301 69.177, 127.913 72.718 C 128.786 73.388, 131.147 73.951, 133.161 73.968 C 136.043 73.993, 137.373 73.345, 139.411 70.923 C 142.804 66.891, 142.702 63.548, 139.077 59.923 C 135.584 56.430, 131.419 56.096, 127.712 59.012 M 11.228 71.279 C 9.429 76.308, 6.998 91.672, 7.020 97.881 C 7.045 105.023, 8.600 115.991, 10.545 122.750 C 12.357 129.048, 13.240 129.220, 21.800 124.942 C 28.537 121.575, 31.862 118.179, 35.555 110.891 C 38.986 104.121, 39.008 92.707, 35.605 85.398 C 31.734 77.086, 24.042 70.860, 14.940 68.673 C 12.732 68.142, 12.223 68.499, 11.228 71.279 M 182.617 69.859 C 173.023 72.953, 165.183 82.488, 163.070 93.633 C 160.260 108.448, 172.361 126.116, 186.084 127.236 C 189.291 127.497, 189.342 127.432, 191.282 120.500 C 194.095 110.446, 194.264 87.311, 191.597 77.500 C 189.092 68.286, 188.653 67.912, 182.617 69.859 M 49.174 92.314 C 46.007 95.686, 46.226 101.378, 49.646 104.548 C 55.457 109.934, 64 105.684, 64 97.407 C 64 90.890, 53.803 87.387, 49.174 92.314 M 139.174 92.314 C 137.036 94.590, 136.342 99.122, 137.621 102.455 C 138.409 104.509, 143.168 107, 146.304 107 C 152.762 107, 156.239 98.116, 151.927 92.635 C 149.114 89.058, 142.393 88.889, 139.174 92.314 M 62.388 124.343 C 60.235 126.195, 59.694 127.486, 59.808 130.502 C 60.121 138.835, 69.143 142.184, 74.411 135.923 C 77.804 131.891, 77.702 128.548, 74.077 124.923 C 70.443 121.289, 66.184 121.077, 62.388 124.343 M 127.747 123.984 C 124.657 126.415, 123.656 129.965, 125.038 133.599 C 126.423 137.242, 128.821 138.930, 132.668 138.968 C 137.218 139.014, 138.873 138.145, 140.600 134.806 C 144.858 126.573, 135.003 118.277, 127.747 123.984 M 26.373 134.752 C 23.554 135.713, 20.222 137.201, 18.969 138.058 L 16.691 139.617 19.546 144.558 C 21.116 147.276, 24.051 151.762, 26.067 154.526 C 34.490 166.076, 56.633 183.239, 59.823 180.691 C 65.923 175.817, 67.500 159.541, 62.758 150.392 C 55.780 136.930, 39.948 130.124, 26.373 134.752 M 158.274 134.386 C 151.404 136.117, 145.791 139.938, 141.557 145.765 C 134.535 155.430, 133.957 170.257, 140.250 179.291 L 142.194 182.081 147.847 178.898 C 162.695 170.537, 177.291 155.385, 182.857 142.555 C 184.021 139.873, 183.928 139.450, 181.817 137.811 C 176.937 134.023, 166.017 132.434, 158.274 134.386 M 94.455 137.455 C 89.062 142.847, 92.866 152, 100.500 152 C 102.979 152, 104.851 151.240, 106.545 149.545 C 108.240 147.851, 109 145.979, 109 143.500 C 109 141.021, 108.240 139.149, 106.545 137.455 C 104.851 135.760, 102.979 135, 100.500 135 C 98.021 135, 96.149 135.760, 94.455 137.455 M 95.195 161.069 C 88.634 162.357, 82.157 166.015, 77.927 170.820 C 74.145 175.117, 70.373 183.923, 71.290 186.314 C 71.552 186.996, 75.081 188.438, 79.133 189.520 C 89.556 192.301, 113.586 192.187, 123 189.313 C 130.827 186.923, 131.409 185.399, 127.523 177.459 C 121.741 165.640, 107.833 158.589, 95.195 161.069 " stroke="none" fill="white" fill-rule="evenodd" transform="scale(0.15) translate(0 -1)"></path>
    </g>
</svg>