<svg width="60" height="60" viewBox="0 0 60 60" xmlns="http://www.w3.org/2000/svg">
    <rect fill="transparent" x="0" y="0" width="60" height="60" rx="4.8"></rect>

    <g width="30" height="30" viewBox="0 0 30 30" transform="translate(15, 15)" fill="#FFFFFF">
        <path d="M 22.224 34.980 C 13.301 44.318, 6 52.470, 6 53.095 C 6 53.719, 9.474 57.890, 13.720 62.365 C 32.139 81.773, 38.565 88, 40.174 88 C 41.644 88, 50.088 80.129, 50.716 78.173 C 50.835 77.803, 49.854 76.715, 48.536 75.756 C 46.209 74.062, 46.046 74.090, 42.908 76.731 L 39.677 79.449 27.859 66.975 C 21.359 60.114, 16.031 53.892, 16.020 53.148 C 15.996 51.517, 37.616 28.637, 39.619 28.174 C 40.395 27.994, 42.430 29.025, 44.141 30.465 C 47.085 32.943, 47.351 32.992, 49.126 31.386 C 50.157 30.453, 51 29.180, 51 28.557 C 51 26.893, 41.684 18, 39.939 18 C 39.119 18, 31.147 25.641, 22.224 34.980 M 64.049 18.949 C 63.251 19.453, 55.488 26.978, 46.799 35.670 C 36.635 45.837, 31 52.207, 31 53.532 C 31 55.994, 62.373 88, 64.787 88 C 67.238 88, 100 54.970, 100 52.499 C 100 51.142, 94.337 44.795, 83.681 34.210 C 74.706 25.295, 66.944 18.007, 66.431 18.015 C 65.919 18.024, 64.847 18.444, 64.049 18.949 " stroke="none" fill="white" fill-rule="evenodd" transform="scale(0.2830188679245283) translate(0 0)"></path>
    </g>
</svg>