<svg width="60" height="60" viewBox="0 0 60 60" xmlns="http://www.w3.org/2000/svg">
    <rect fill="transparent" x="0" y="0" width="60" height="60" rx="4.8"></rect>

    <g width="30" height="30" viewBox="0 0 30 30" transform="translate(15, 15)" fill="#FFFFFF">
        <path d="M 77 2.502 C 67.948 4.332, 61.827 6.493, 52.269 11.229 C 28.727 22.897, 10.668 45.549, 3.400 72.527 C 0.742 82.396, 0.722 108.536, 3.366 118.336 C 10.847 146.068, 28.928 168.437, 53.655 180.549 C 66.709 186.943, 75.801 189.115, 92.090 189.732 C 113.283 190.534, 128.448 186.622, 145.983 175.831 C 165.446 163.853, 180.384 143.885, 187.051 120.933 C 190.136 110.312, 190.878 88.438, 188.543 76.918 C 181.027 39.820, 152.028 10.423, 115.518 2.888 C 104.893 0.695, 86.834 0.514, 77 2.502 M 115.413 27.890 C 113.715 28.926, 110.565 32.010, 108.413 34.746 L 104.500 39.718 94.960 40.305 C 83.752 40.993, 72.298 44.317, 65.004 48.998 C 54.026 56.042, 45.555 69.170, 42.395 84.035 C 37.728 105.987, 48.099 129.163, 67.750 140.696 C 72.536 143.504, 72.543 143.541, 70.627 155.230 C 69.379 162.843, 69.787 165.024, 72.450 164.985 C 75.106 164.946, 76.336 162.044, 82.420 141.464 C 93.212 104.956, 111.778 51.799, 118.970 36.816 C 121.902 30.708, 122.637 28.267, 121.834 27.300 C 120.377 25.545, 119.061 25.666, 115.413 27.890 M 119.183 52.250 C 114.442 64.946, 114.392 65.509, 117.600 70.085 C 124.746 80.280, 125.982 82.594, 127.063 87.802 C 130.649 105.079, 120.774 120.495, 102.307 126.449 C 95.113 128.768, 92.454 131.170, 90.093 137.482 C 85.969 148.503, 85.800 148.002, 93.642 147.985 C 129.214 147.909, 155.785 117.046, 148.903 83.799 C 146.346 71.445, 136.818 57.099, 126.418 49.943 C 124.065 48.325, 121.916 47, 121.642 47 C 121.368 47, 120.261 49.362, 119.183 52.250 M 84.730 64.420 C 74.986 68.427, 70.175 72.989, 66.006 82.177 C 63.256 88.237, 63.281 100.819, 66.056 106.936 C 68.129 111.505, 74.894 121, 76.077 121 C 76.443 121, 77.048 118.695, 77.422 115.879 C 78.543 107.425, 85.499 81.139, 89.231 71.250 C 91.235 65.938, 92.249 62.010, 91.611 62.024 C 91 62.037, 87.904 63.115, 84.730 64.420 " stroke="none" fill="white" fill-rule="evenodd" transform="scale(0.15706806282722513) translate(0 0)"></path>
    </g>
</svg>