<svg width="60" height="60" viewBox="0 0 60 60" xmlns="http://www.w3.org/2000/svg">
    <rect fill="transparent" x="0" y="0" width="60" height="60" rx="4.8"></rect>

    <g width="30" height="30" viewBox="0 0 30 30" transform="translate(15, 15)" fill="#FFFFFF">
        <path d="M 104.500 27.656 C 73.469 34.273, 47.827 58.335, 38.936 89.179 C 35.899 99.715, 35.215 118.012, 37.446 129.066 C 45.641 169.671, 81.007 199, 121.774 199 C 135.213 199, 145.678 196.773, 158.316 191.222 L 164.132 188.668 154.427 178.927 L 144.723 169.186 140.790 170.574 C 134.717 172.717, 123.236 173.788, 115.463 172.937 C 82.157 169.292, 57.412 137.677, 62.034 104.672 C 64.103 89.896, 69.330 79.426, 79.885 68.919 C 88.757 60.087, 97.827 55.065, 109.662 52.432 C 118.587 50.446, 131.229 50.906, 139.898 53.531 L 145.296 55.165 154.644 45.856 L 163.992 36.547 160.746 34.817 C 156.056 32.318, 143.456 28.271, 136.566 27.051 C 128.301 25.587, 112.832 25.879, 104.500 27.656 M 157.729 65.770 L 137.978 85.541 143.758 91.261 L 149.538 96.980 169.497 77.003 L 189.456 57.025 184.012 51.512 C 181.018 48.481, 178.324 46, 178.025 46 C 177.726 46, 168.593 54.897, 157.729 65.770 M 114.299 99.960 C 105.423 105.371, 106.014 119.462, 115.327 124.477 C 119.846 126.911, 127.148 126.143, 130.657 122.866 C 137.990 116.016, 137.712 107.143, 129.959 100.619 C 126.045 97.325, 119.099 97.033, 114.299 99.960 M 143.227 133.270 L 138.022 138.541 158.010 158.510 L 177.999 178.480 183.739 172.739 L 189.480 166.999 169.999 147.499 C 159.285 136.775, 150.050 128, 149.475 128 C 148.901 128, 146.089 130.372, 143.227 133.270 " stroke="none" fill="white" fill-rule="evenodd" transform="scale(0.13333333333333333) translate(0 0)"></path>
    </g>
</svg>