<svg xmlns="http://www.w3.org/2000/svg" width="360" height="360" viewBox="0 0 360 360">
  <path fill="#FFF" fill-rule="evenodd" d="M272.891392,200.494911 C270.054329,215.026401 247.481565,230.929686 221.556719,234.011787 C208.038031,235.617765 194.727803,237.093888 180.534686,236.445726 C157.323165,235.386912 139.007667,230.929686 139.007667,230.929686 C139.007667,233.179387 139.147012,235.32143 139.425702,237.32474 C142.443355,260.131399 162.14004,261.497646 180.797769,262.134709 C199.629401,262.776213 216.397612,257.512113 216.397612,257.512113 L217.171255,274.462003 C217.171255,274.462003 203.999258,281.50411 180.534686,282.799325 C167.595673,283.50742 151.52976,282.475243 132.817408,277.544104 C92.2334751,266.849425 85.2539661,223.778813 84.1860266,180.076686 C83.8605168,167.10123 84.0611735,154.866055 84.0611735,144.633081 C84.0611735,99.9453922 113.469643,86.8467408 113.469643,86.8467408 C128.298173,80.0665628 153.742557,77.2153142 180.194684,77 L180.844589,77 C207.296716,77.2153142 232.757822,80.0665628 247.585237,86.8467408 C247.585237,86.8467408 276.992592,99.9453922 276.992592,144.633081 C276.992592,144.633081 277.361577,177.603902 272.891392,200.494911 Z M242.304622,202.209212 L242.304622,148.099861 C242.304622,137.041146 239.476477,128.253218 233.796778,121.751617 C227.937602,115.250015 220.265828,111.917085 210.743552,111.917085 C199.724155,111.917085 191.380181,116.13347 185.864351,124.56735 L180.500128,133.518428 L175.137021,124.56735 C169.620076,116.13347 161.276102,111.917085 150.257819,111.917085 C140.734429,111.917085 133.062655,115.250015 127.204594,121.751617 C121.52378,128.253218 118.695635,137.041146 118.695635,148.099861 L118.695635,202.209212 L140.227214,202.209212 L140.227214,149.690301 C140.227214,138.619377 144.905859,133.00012 154.264265,133.00012 C164.611462,133.00012 169.798438,139.665981 169.798438,152.846763 L169.798438,181.59343 L191.202934,181.59343 L191.202934,152.846763 C191.202934,139.665981 196.388795,133.00012 206.735992,133.00012 C216.094398,133.00012 220.773043,138.619377 220.773043,149.690301 L220.773043,202.209212 L242.304622,202.209212 Z"/>
</svg>
