<svg xmlns="http://www.w3.org/2000/svg" width="60" height="60" viewBox="0 0 60 60">
  <path fill="#FEFEFE" fill-rule="evenodd" d="M18.8501473,20.6556034 C16.5096032,20.6556034 14.6119397,18.8611882 14.6119397,16.6475845 C14.6119397,14.4336531 16.5096032,12.6392379 18.8501473,12.6392379 C21.1910379,12.6392379 23.0880083,14.4336531 23.0880083,16.6475845 C23.0880083,18.8611882 21.1910379,20.6556034 18.8501473,20.6556034 Z M19.6125395,9.82487382 L19.6125395,6.64081106 C20.7765738,6.33600629 21.6321857,5.3291673 21.6321857,4.13125178 C21.6321857,2.69145891 20.39815,1.52467935 18.8761379,1.52467935 C17.3537793,1.52467935 16.1200901,2.69145891 16.1200901,4.13125178 C16.1200901,5.23805362 16.8506005,6.18130968 17.8798299,6.55920205 L17.8798299,9.82487382 C16.9303051,9.93204711 16.03692,10.2099766 15.2360617,10.6294929 L5.80908206,3.92640986 C5.95185733,3.59472983 6.03190851,3.23289707 6.03190851,2.85238272 C6.03190851,1.27723032 4.68178123,0 3.01595426,0 C1.35047383,0 0,1.27723032 0,2.85238272 C0,4.42786287 1.35047383,5.70509319 3.01595426,5.70509319 C3.64943287,5.70509319 4.23716795,5.5192606 4.72232663,5.20364018 L13.7778133,11.642559 C12.3736255,12.8938973 11.4920229,14.6637315 11.4920229,16.6321804 C11.4920229,19.0935609 12.8671012,21.2455481 14.9255601,22.455918 L12.6813547,25.8343348 C12.5981847,25.8254856 12.5136284,25.8195862 12.427686,25.8195862 C11.207512,25.8195862 10.2177883,26.7556318 10.2177883,27.9096292 C10.2177883,29.0642821 11.207512,30 12.427686,30 C13.6485532,30 14.6379303,29.0642821 14.6379303,27.9096292 C14.6379303,27.4353792 14.4688179,26.9991479 14.1870793,26.6481307 L16.5071774,23.1559858 C17.2127367,23.3722988 17.9643862,23.4929097 18.7461847,23.4929097 C22.7522092,23.4929097 26,20.4209365 26,16.6321804 C26,13.1210261 23.2096445,10.2306247 19.6125395,9.82487382 L19.6125395,9.82487382 Z" transform="translate(17 15)"/>
</svg>
