<svg xmlns="http://www.w3.org/2000/svg" width="60" height="60" viewBox="0 0 60 60">
  <path fill="#FFFFFF" fill-rule="evenodd" d="M14.8705882,1.68155844 C16.3247059,0.850909091 18.0094118,0.375194805 19.8058824,0.37987013 L19.8058824,29.9018182 C8.87058824,29.8706494 -0.0305882353,21.0946753 -2.51885779e-14,10.2206494 L-2.51885779e-14,0.37987013 C1.7972549,0.375194805 3.48235294,0.850909091 4.93647059,1.68155844 C6.40509804,0.834155844 8.11098039,0.348701299 9.93254902,0.352987013 C11.7321569,0.358831169 13.4168627,0.843506494 14.8705882,1.68155844 Z M14.1678431,3.93857143 C11.9513725,3.93194805 10.1270588,5.61779221 9.92941176,7.77116883 L9.91019608,7.74506494 L9.89176471,7.77116883 C9.70588235,5.61623377 7.89176471,3.92064935 5.67411765,3.91441558 C3.32823529,3.90701299 1.42196078,5.79155844 1.41568627,8.12181818 C1.40823529,10.4532468 3.30392157,12.3475325 5.64980392,12.3537662 C6.48392157,12.3564935 7.26078431,12.1161039 7.91803922,11.7046753 L9.89294118,13.6780519 L11.8792157,11.7163636 C12.534902,12.1309091 13.3090196,12.3751948 14.1439216,12.3779221 C16.4905882,12.3849351 18.3968627,10.5003896 18.4039216,8.17051948 C18.4101961,5.83987013 16.514902,3.94480519 14.1678431,3.93857143 Z M14.1482353,10.971039 C12.5843137,10.9671429 11.32,9.70402597 11.3247059,8.14987013 C11.3254902,7.86077922 11.3705882,7.58103896 11.4533333,7.31883117 C11.6729412,7.80857143 12.1654902,8.15220779 12.7411765,8.15376623 C13.5223529,8.1561039 14.1580392,7.52844156 14.16,6.75194805 C14.1619608,6.18038961 13.8188235,5.68948052 13.3262745,5.46818182 C13.5909804,5.38714286 13.872549,5.34428571 14.1643137,5.34506494 C15.7278431,5.34974026 16.9929412,6.61246753 16.9882353,8.16662338 C16.9831373,9.72038961 15.7113725,10.9761039 14.1482353,10.971039 Z M5.65333333,10.9472727 C4.09019608,10.942987 2.82470588,9.68025974 2.82980392,8.12649351 C2.83372549,6.57272727 4.10705882,5.31623377 5.67058824,5.32090909 C5.96156863,5.32207792 6.24235294,5.3661039 6.50705882,5.4487013 C6.01333333,5.66688312 5.66862745,6.15545455 5.66666667,6.7274026 C5.66470588,7.5038961 6.29568627,8.13584416 7.0772549,8.13818182 C7.65215686,8.13974026 8.14666667,7.79922078 8.37019608,7.30987013 C8.45058824,7.57285714 8.49411765,7.8525974 8.49333333,8.14246753 C8.48862745,9.69584416 7.2172549,10.9523377 5.65333333,10.9472727 Z" transform="translate(20 15)"/>
</svg>
