<svg width="60" height="60" viewBox="0 0 60 60" xmlns="http://www.w3.org/2000/svg">
    <rect fill="transparent" x="0" y="0" width="60" height="60" rx="4.8"></rect>

    <g width="30" height="30" viewBox="0 0 30 30" transform="translate(15, 15)" fill="#FFFFFF">
        <path d="M 101.500 7.674 C 61.813 12.627, 31.675 38.498, 20.612 77.112 C 17.275 88.758, 16 98.793, 16 113.396 C 16 147.493, 27.857 175.501, 50.500 194.894 C 58.357 201.623, 76.056 210.391, 87 212.976 C 118.667 220.455, 151.985 212.906, 176.180 192.771 C 192.934 178.828, 205.431 154.708, 208.928 129.566 C 210.472 118.464, 210.247 98.685, 208.459 88.381 C 202.996 56.889, 187.267 32.959, 163 19.222 C 146.319 9.778, 121.692 5.154, 101.500 7.674 M 101 35.560 C 79.468 40.201, 62.901 57.698, 56.081 83 C 53.090 94.100, 51.676 108.114, 52.460 118.904 C 55.221 156.913, 76.351 184.197, 106.102 188.172 C 137.307 192.340, 164.398 168.453, 171.539 130.475 C 173.849 118.185, 173.170 96.919, 170.087 85 C 160.559 48.173, 133.227 28.614, 101 35.560 " stroke="none" fill="white" fill-rule="evenodd" transform="scale(0.13452914798206278) translate(-1.5 0)"></path>
    </g>
</svg>