<svg xmlns="http://www.w3.org/2000/svg" width="60" height="60" viewBox="0 0 60 60">
  <g fill="#FFFFFF" transform="translate(15 15)">
    <path d="M14.9835938,26.05125 C8.88925781,26.05125 3.94875,21.1107422 3.94875,15.0165234 C3.94875,8.9221875 8.88925781,3.98179687 14.9835938,3.98179687 C21.0778125,3.98179687 26.0182031,8.9221875 26.0182031,15.0165234 C26.0182031,21.1107422 21.0778125,26.05125 14.9835937,26.05125 L14.9835938,26.05125 Z M14.9835938,0.0329296875 C6.70839844,0.0329296875 0,6.74144531 0,15.0165234 C0,23.2917187 6.70839844,30 14.9835938,30 C23.2586719,30 29.9670703,23.2917187 29.9670703,15.0165234 C29.9670703,6.74144531 23.2586719,0.0329296875 14.9834766,0.0329296875 L14.9835938,0.0329296875 Z"/>
    <path d="M18.7150781,8.169375 C20.4357422,8.169375 21.8305078,9.56425781 21.8305078,11.2848047 C21.8305078,13.0055859 20.4357422,14.4003516 18.7150781,14.4003516 C16.9944141,14.4003516 15.5995313,13.0055859 15.5995313,11.2848047 C15.5995313,9.56425781 16.9944141,8.169375 18.7150781,8.169375 Z M18.7150781,15.6324609 C20.4357422,15.6324609 21.8305078,17.0274609 21.8305078,18.7480078 C21.8305078,20.4686719 20.4357422,21.8635547 18.7150781,21.8635547 C16.9944141,21.8635547 15.5995313,20.4686719 15.5995313,18.7480078 C15.5995313,17.0274609 16.9944141,15.6324609 18.7150781,15.6324609 Z M11.2519922,15.6324609 C12.9726563,15.6324609 14.3675391,17.0274609 14.3675391,18.7480078 C14.3675391,20.4686719 12.9726563,21.8635547 11.2519922,21.8635547 C9.53144531,21.8635547 8.13644531,20.4686719 8.13644531,18.7480078 C8.13644531,17.0274609 9.53144531,15.6324609 11.2519922,15.6324609 Z M11.2519922,8.16949219 C12.9726563,8.16949219 14.3675391,9.56425781 14.3675391,11.2849219 C14.3675391,13.0057031 12.9726563,14.4004688 11.2519922,14.4004688 C9.53144531,14.4004688 8.13644531,13.0057031 8.13644531,11.2849219 C8.13644531,9.56425781 9.53144531,8.16949219 11.2519922,8.16949219 Z"/>
  </g>
</svg>
