<svg width="60" height="60" viewBox="0 0 60 60" xmlns="http://www.w3.org/2000/svg">
    <rect fill="transparent" x="0" y="0" width="60" height="60" rx="4.8"></rect>

    <g width="30" height="30" viewBox="0 0 30 30" transform="translate(15, 15)" fill="#FFFFFF">
        <path d="M 113 31.627 C 100.555 34.022, 87.625 40.613, 78.350 49.290 C 72.389 54.865, 64.506 64.979, 63.786 67.974 C 63.622 68.655, 66.917 70.399, 71.500 72.056 L 79.500 74.949 80.991 72.724 C 84.205 67.931, 92.751 59.543, 97.613 56.409 C 117.142 43.823, 143.699 46.399, 160.462 62.506 C 168.844 70.560, 173.604 79.414, 176.414 92.183 C 177.239 95.931, 179.868 96.397, 185.587 93.808 C 193.140 90.390, 204.482 90.654, 212.791 94.442 C 220.766 98.077, 228.007 105.746, 231.025 113.753 C 232.805 118.473, 233.117 121.020, 232.773 128 C 232.283 137.954, 229.463 144.537, 222.864 151.136 C 208.133 165.867, 181.608 163.495, 170.357 146.442 C 168.563 143.724, 166.219 140.375, 165.146 139 L 163.196 136.501 158.848 139.766 C 144.412 150.609, 127.812 154.446, 112.542 150.469 C 94.064 145.656, 78.727 130.070, 74.905 112.221 C 74.232 109.074, 72.776 105.490, 71.671 104.255 C 69.282 101.587, 60.421 97, 57.656 97 C 55.824 97, 55.740 97.537, 56.296 105.750 C 57.561 124.440, 66.992 142.551, 81.300 153.768 C 89.275 160.019, 93.296 162.292, 101.827 165.370 C 118.700 171.456, 137.178 170.761, 153.789 163.415 L 159.279 160.987 164.159 165.552 C 174.739 175.448, 192.121 180.562, 206.699 178.068 C 223.069 175.268, 237.626 164.492, 245.033 149.694 C 247.215 145.335, 249 140.947, 249 139.943 C 249 138.939, 249.450 137.840, 250 137.500 C 250.572 137.146, 251 131.990, 251 125.441 C 251 118.480, 250.608 114, 250 114 C 249.450 114, 249 113.160, 249 112.134 C 249 107.737, 241.578 95.413, 235.068 89 C 224.467 78.558, 213.287 74.036, 198 74.008 L 189.500 73.993 186.223 67.655 C 180.428 56.446, 169.165 45.016, 158.178 39.192 C 147.628 33.600, 140.600 31.832, 127.500 31.474 C 120.900 31.294, 114.375 31.363, 113 31.627 M 143.081 41.373 C 141.272 44.193, 139.951 46.935, 140.146 47.466 C 140.341 47.998, 144.069 50.158, 148.431 52.268 C 162.458 59.051, 173.408 72.670, 176.963 87.753 C 177.644 90.642, 178.612 93.260, 179.113 93.570 C 179.615 93.880, 182.512 93.204, 185.550 92.067 C 192.854 89.334, 204.062 89.272, 211.043 91.924 C 217.790 94.488, 223.976 99.353, 228.625 105.750 C 230.723 108.638, 232.549 111, 232.683 111 C 232.816 111, 234.777 108.274, 237.039 104.942 L 241.153 98.884 237.137 93.565 C 232.244 87.085, 223.329 80.961, 214.266 77.855 C 209.025 76.059, 205.335 75.537, 197.895 75.540 L 188.290 75.543 184.469 68.022 C 177.953 55.197, 161.190 40.496, 149.140 37.040 C 146.590 36.309, 146.112 36.650, 143.081 41.373 M 35.942 76.287 C 21.710 81.139, 10.924 90.353, 4.696 102.979 L 1.500 109.458 1.500 126 L 1.500 142.542 4.921 149.521 C 9.737 159.346, 19.515 168.982, 29.222 173.467 C 37.848 177.452, 48.152 179.493, 55.370 178.644 L 60.500 178.041 63.733 184.271 C 79.409 214.472, 114.804 228.731, 147.286 217.931 C 161.398 213.239, 177.898 200.017, 184.242 188.317 L 186.983 183.260 180.242 180.777 C 176.534 179.411, 172.825 177.999, 172 177.640 C 170.952 177.184, 169.649 178.337, 167.673 181.470 C 163.891 187.467, 155.877 194.528, 148.797 198.103 C 133.052 206.051, 116.059 205.946, 100.787 197.806 C 86.608 190.248, 78.700 179.451, 74.017 161.250 C 72.718 156.202, 71.308 155.927, 63 159.104 C 55.345 162.030, 44.445 161.431, 36.737 157.660 C 30.233 154.478, 22.716 146.790, 19.680 140.217 C 16.475 133.278, 16.569 118.448, 19.860 111.784 C 25.332 100.701, 36.358 92.725, 48.036 91.402 C 61.652 89.860, 77.222 98.295, 82.544 110.098 C 84.587 114.628, 87.237 115.811, 90.306 113.561 C 102.001 104.986, 110.090 101.542, 121.086 100.455 C 129.370 99.636, 140.410 101.920, 148.884 106.206 C 156.084 109.848, 165.492 118.571, 169.387 125.216 C 172.385 130.333, 176 140.310, 176 143.469 C 176 147.292, 186.669 155, 191.960 155 C 196.777 155, 193.292 133.151, 186.330 119.700 C 183.678 114.576, 179.994 109.872, 173.552 103.384 C 166.040 95.819, 163.032 93.560, 155.872 90.107 C 137.198 81.102, 117.367 80.589, 97.361 88.593 L 90.963 91.152 86.151 86.826 C 76.286 77.959, 65.380 73.982, 51.040 74.026 C 44.876 74.044, 40.675 74.674, 35.942 76.287 " stroke="none" fill="white" fill-rule="evenodd" transform="scale(0.12) translate(0 0)"></path>
    </g>
</svg>