<svg width="60" height="60" viewBox="0 0 60 60" xmlns="http://www.w3.org/2000/svg">
    <rect fill="transparent" x="0" y="0" width="60" height="60" rx="4.8"></rect>

    <g width="30" height="30" viewBox="0 0 30 30" transform="translate(15, 15)" fill="#FFFFFF">
        <path d="M 149.500 77.914 C 144.739 79.107, 140.781 81.538, 136.876 85.668 C 133.322 89.427, 48.346 208.935, 47.313 211.628 C 46.888 212.734, 48.719 213, 56.771 213 L 66.755 213 83.197 189.750 C 92.239 176.963, 107.289 155.700, 116.640 142.500 C 153.163 90.944, 151.520 92.913, 156.227 95.058 C 158.768 96.215, 180 124.729, 180 126.983 C 180 127.594, 171.029 140.779, 160.064 156.283 C 147.338 174.277, 139.696 186.016, 138.933 188.740 C 136.486 197.479, 140.255 206.917, 147.661 210.594 C 151.179 212.341, 154.467 212.526, 187 212.816 C 206.525 212.990, 224.840 212.848, 227.700 212.501 C 233.317 211.818, 238.139 209.089, 241.322 204.791 C 243.802 201.444, 244.680 192.592, 243.029 187.589 C 242.370 185.590, 233.069 171.562, 222.360 156.417 C 211.652 141.272, 202.684 128.340, 202.431 127.680 C 202.177 127.020, 209.627 115.738, 218.985 102.609 C 228.343 89.480, 236 78.347, 236 77.869 C 236 77.391, 231.542 77, 226.094 77 L 216.187 77 203.858 94.500 C 197.077 104.125, 191.297 111.979, 191.014 111.953 C 190.731 111.928, 187.350 107.338, 183.500 101.754 C 172.678 86.057, 169.584 82.494, 164.852 80.280 C 159.603 77.824, 153.568 76.894, 149.500 77.914 M 188.750 145.178 C 187.396 147.005, 179.454 158.098, 171.101 169.828 C 159.868 185.604, 156.075 191.659, 156.529 193.091 C 157.123 194.962, 158.281 195.017, 191.322 194.763 C 224.652 194.507, 225.506 194.450, 225.747 192.500 C 225.958 190.800, 218.063 179.200, 192.521 143.678 C 191.296 141.974, 191.053 142.071, 188.750 145.178 " stroke="none" fill="white" fill-rule="evenodd" transform="scale(0.10204081632653061) translate(0 0)"></path>
    </g>
</svg>