<svg width="60" height="60" viewBox="0 0 60 60" xmlns="http://www.w3.org/2000/svg">
    <rect fill="transparent" x="0" y="0" width="60" height="60" rx="4.8"></rect>

    <g width="30" height="30" viewBox="0 0 30 30" transform="translate(15, 15)" fill="#FFFFFF">
        <path d="M 256 88.313 L 256 143.841 262.750 144.493 C 286.657 146.805, 305.794 153.834, 322.500 166.440 C 340.388 179.937, 352.647 196.329, 360.313 217 C 365.151 230.044, 367.057 241.060, 367.061 256 C 367.068 279.451, 361.068 299.415, 348.130 318.993 C 344.905 323.873, 330.024 340.516, 326.022 343.718 C 325.166 344.403, 324.994 344.950, 325.628 344.968 C 326.248 344.986, 327.328 344.310, 328.028 343.467 C 328.728 342.623, 329.596 342.061, 329.958 342.217 C 330.319 342.373, 334.608 347, 339.487 352.500 C 344.367 358, 349.741 364.055, 351.430 365.956 C 353.118 367.858, 353.600 368.758, 352.500 367.956 C 350.664 366.619, 350.610 366.640, 351.836 368.206 C 352.581 369.157, 352.828 370.485, 352.394 371.206 C 351.841 372.126, 352.118 372.093, 353.352 371.091 C 354.887 369.845, 355.286 369.962, 356.787 372.091 C 357.720 373.416, 358.375 374.837, 358.242 375.250 C 358.109 375.662, 358.563 375.887, 359.250 375.750 C 359.938 375.612, 360.443 376.252, 360.374 377.171 C 360.297 378.205, 360.773 378.641, 361.624 378.314 C 363.038 377.772, 363.596 379.500, 362.250 380.253 C 361.837 380.483, 362.038 380.544, 362.696 380.388 C 363.354 380.232, 366.252 382.893, 369.135 386.302 C 372.019 389.711, 374.976 393.005, 375.706 393.623 C 376.443 394.245, 376.762 395.583, 376.423 396.623 C 376.002 397.915, 376.097 398.104, 376.727 397.230 C 377.727 395.843, 378.944 397.017, 390.185 410.206 C 393.604 414.218, 397.513 418.562, 398.872 419.861 C 400.992 421.887, 401.167 422.503, 400.104 424.205 C 397.666 428.109, 407.301 420.456, 415 412.373 C 449.168 376.505, 469.083 336.171, 476.657 287.500 C 479.041 272.184, 479.042 240.563, 476.659 225 C 469.365 177.346, 449.414 136.418, 417.014 102.641 C 376.738 60.652, 325.888 37.315, 266.250 33.449 L 256 32.784 256 88.313 M 264.531 180.250 C 262.855 181.711, 261.691 184.048, 261.212 186.916 L 260.473 191.332 251.022 193.650 C 239.505 196.475, 231.775 200.982, 227.265 207.499 C 222.715 214.075, 221.473 219.204, 222.830 225.814 C 224.995 236.358, 232.463 243.119, 254.981 254.919 C 275.088 265.456, 280.004 270.228, 279.996 279.200 C 279.986 291.126, 265.299 299.808, 246.908 298.759 C 236.774 298.181, 231.034 295.632, 227.186 290 C 224.934 286.704, 224.833 285.935, 225.439 276.808 C 226.048 267.646, 225.969 267.054, 223.983 265.991 C 220.924 264.354, 216.741 265.638, 213.213 269.296 C 209.314 273.338, 208 276.818, 208 283.097 C 208 295.394, 216.653 305.819, 231.147 310.984 L 236.500 312.892 236.203 318.125 C 236.039 321.003, 236.431 324.627, 237.074 326.179 C 238.097 328.649, 238.772 329, 242.499 329 C 244.840 329, 247.218 328.438, 247.784 327.750 C 248.349 327.063, 249.352 323.745, 250.011 320.377 L 251.210 314.255 257.355 313.615 C 269.074 312.396, 279.396 308.147, 286.792 301.497 C 293.373 295.580, 296.348 289.279, 296.832 280.235 C 297.610 265.677, 290.299 257.123, 266.742 245.030 C 258.909 241.009, 250.207 236.020, 247.404 233.943 C 238.010 226.983, 236.718 219.198, 243.882 212.726 C 248.817 208.267, 255.753 206.551, 265.890 207.282 C 283.869 208.578, 289.297 216.132, 282.136 229.892 C 276.845 240.059, 278.683 245.580, 286.499 243 C 293.781 240.597, 300 229.946, 300 219.877 C 300 212.558, 297.814 207.927, 291.699 202.290 C 286.616 197.604, 283.262 195.684, 277.420 194.112 L 273.341 193.015 274.306 187.023 C 275.035 182.496, 274.963 180.661, 274.013 179.516 C 272.175 177.302, 267.497 177.664, 264.531 180.250 M 44.967 185.341 C 42.267 191.445, 37.410 211.917, 35.628 224.703 C 29.462 268.954, 36.291 313.430, 55.329 353.002 C 88.973 422.933, 155.917 469.668, 234.500 478.083 C 245.394 479.249, 280.734 478.843, 284.139 477.512 C 285.430 477.007, 285.588 476.302, 284.882 474.186 C 284.132 471.935, 275.003 401.605, 273.475 386.302 C 273.211 383.661, 272.579 379.025, 272.071 376 C 271.562 372.975, 271.113 369.770, 271.073 368.877 C 271.009 367.461, 269.187 367.251, 256.750 367.225 C 247.483 367.205, 239.877 366.629, 235 365.577 C 194.019 356.734, 164.133 330.396, 150.166 290.813 C 146.945 281.685, 143.996 264.957, 144.006 255.872 C 144.013 249.047, 146.474 232.619, 148.566 225.422 C 150.504 218.754, 150.105 217.414, 145.805 216.162 C 141.607 214.939, 122.616 208.335, 118 206.492 C 116.075 205.724, 103.475 201.210, 90 196.461 C 60.970 186.231, 53.456 183.553, 49.692 182.094 C 46.996 181.049, 46.809 181.177, 44.967 185.341 M 330 346 C 330 346.550, 330.477 347, 331.059 347 C 331.641 347, 331.840 346.550, 331.500 346 C 331.160 345.450, 330.684 345, 330.441 345 C 330.198 345, 330 345.450, 330 346 M 336.429 353 C 336.429 354.295, 336.767 354.633, 337.414 353.986 C 338.062 353.338, 338.062 352.662, 337.414 352.014 C 336.767 351.367, 336.429 351.705, 336.429 353 M 294.500 365 C 294.160 365.550, 294.359 366, 294.941 366 C 295.523 366, 296 365.550, 296 365 C 296 364.450, 295.802 364, 295.559 364 C 295.316 364, 294.840 364.450, 294.500 365 M 275.550 366.904 C 274.241 367.416, 275.210 367.667, 278.500 367.667 C 281.790 367.667, 282.759 367.416, 281.450 366.904 C 280.378 366.484, 279.050 366.141, 278.500 366.141 C 277.950 366.141, 276.622 366.484, 275.550 366.904 M 352.890 374.250 C 351.715 376.488, 351.720 376.490, 353.854 374.595 C 356.238 372.479, 356.456 372, 355.035 372 C 354.505 372, 353.539 373.012, 352.890 374.250 M 368.429 389.791 C 368.429 390.881, 369.283 391.557, 370.779 391.650 C 372.072 391.731, 372.988 391.725, 372.815 391.638 C 372.642 391.550, 371.584 390.714, 370.464 389.778 C 368.547 388.177, 368.429 388.178, 368.429 389.791 M 383.603 406.833 C 383.320 407.292, 383.723 407.667, 384.500 407.667 C 385.277 407.667, 385.680 407.292, 385.397 406.833 C 385.114 406.375, 384.710 406, 384.500 406 C 384.290 406, 383.886 406.375, 383.603 406.833 M 386 410 C 386 410.550, 386.477 411, 387.059 411 C 387.641 411, 387.840 410.550, 387.500 410 C 387.160 409.450, 386.684 409, 386.441 409 C 386.198 409, 386 409.450, 386 410 M 390.406 414.501 C 394.144 417.716, 395.021 417.716, 392 414.500 C 390.708 413.125, 389.167 412.001, 388.576 412.001 C 387.984 412.002, 388.807 413.127, 390.406 414.501 M 394.500 420 C 394.160 420.550, 394.359 421, 394.941 421 C 395.523 421, 396 420.550, 396 420 C 396 419.450, 395.802 419, 395.559 419 C 395.316 419, 394.840 419.450, 394.500 420 M 396 426 C 396 426.550, 396.477 427, 397.059 427 C 397.641 427, 397.840 426.550, 397.500 426 C 397.160 425.450, 396.684 425, 396.441 425 C 396.198 425, 396 425.450, 396 426 M 386.872 434.750 C 385.603 436.369, 385.650 436.390, 387.500 435.033 C 388.600 434.226, 389.688 433.439, 389.917 433.283 C 390.146 433.127, 389.863 433, 389.289 433 C 388.715 433, 387.627 433.788, 386.872 434.750 M 380.500 435 C 380.160 435.550, 380.359 436, 380.941 436 C 381.523 436, 382 435.550, 382 435 C 382 434.450, 381.802 434, 381.559 434 C 381.316 434, 380.840 434.450, 380.500 435 M 379.500 439.584 C 376.515 442.083, 376.513 442.089, 379.195 440.912 C 380.677 440.261, 382.126 439.115, 382.414 438.365 C 383.091 436.599, 383.038 436.621, 379.500 439.584 M 371.033 444.728 C 369.722 446.204, 369.758 446.307, 371.365 445.690 C 372.354 445.311, 373.352 445, 373.582 445 C 373.812 445, 374 444.550, 374 444 C 374 442.529, 372.703 442.847, 371.033 444.728 M 283.158 446 C 283.158 447.375, 283.385 447.938, 283.662 447.250 C 283.940 446.563, 283.940 445.438, 283.662 444.750 C 283.385 444.063, 283.158 444.625, 283.158 446 M 285.613 447.404 C 285.222 448.962, 285.150 450.483, 285.451 450.785 C 285.753 451.086, 286.032 450.471, 286.070 449.417 C 286.137 447.585, 286.179 447.589, 287 449.500 C 288.089 452.034, 288.173 449.303, 287.092 446.536 C 286.405 444.779, 286.249 444.870, 285.613 447.404 M 357.813 449.683 C 358.534 449.972, 359.397 449.936, 359.729 449.604 C 360.061 449.272, 359.471 449.036, 358.417 449.079 C 357.252 449.127, 357.015 449.364, 357.813 449.683 M 362.507 449.989 C 362.157 450.555, 362.558 450.723, 363.448 450.382 C 365.180 449.717, 365.497 449, 364.059 449 C 363.541 449, 362.843 449.445, 362.507 449.989 M 356.500 453 C 355.181 453.567, 355.011 453.878, 356 453.914 C 356.825 453.945, 358.175 453.533, 359 453 C 360.828 451.819, 359.249 451.819, 356.500 453 M 285.459 456.067 C 285.096 456.653, 285.014 457.348, 285.276 457.610 C 285.538 457.872, 286.019 457.392, 286.345 456.543 C 287.021 454.781, 286.445 454.471, 285.459 456.067 M 340.750 457.162 C 339.238 457.715, 338 458.552, 338 459.024 C 338 459.496, 339.205 459.256, 340.678 458.492 C 342.151 457.728, 343.796 457.374, 344.333 457.706 C 344.874 458.040, 344.991 457.795, 344.595 457.155 C 344.203 456.520, 343.796 456.036, 343.691 456.079 C 343.586 456.122, 342.262 456.610, 340.750 457.162 M 339.750 460.303 C 337.688 460.880, 336 461.723, 336 462.176 C 336 462.629, 336.170 463, 336.378 463 C 337.319 463, 344 459.921, 344 459.487 C 344 459.219, 343.887 459.057, 343.750 459.126 C 343.613 459.196, 341.813 459.725, 339.750 460.303 M 284.158 462 C 284.158 463.375, 284.385 463.938, 284.662 463.250 C 284.940 462.563, 284.940 461.438, 284.662 460.750 C 284.385 460.063, 284.158 460.625, 284.158 462 M 286.079 462.583 C 286.127 463.748, 286.364 463.985, 286.683 463.188 C 286.972 462.466, 286.936 461.603, 286.604 461.271 C 286.272 460.939, 286.036 461.529, 286.079 462.583 M 315.813 464.683 C 316.534 464.972, 317.397 464.936, 317.729 464.604 C 318.061 464.272, 317.471 464.036, 316.417 464.079 C 315.252 464.127, 315.015 464.364, 315.813 464.683 M 319.333 465.500 C 319.333 466.220, 319.933 466.579, 320.667 466.298 C 321.400 466.016, 322 465.657, 322 465.500 C 322 465.343, 321.400 464.984, 320.667 464.702 C 319.933 464.421, 319.333 464.780, 319.333 465.500 M 322.500 467 C 322.160 467.550, 322.557 468, 323.382 468 C 324.207 468, 325.160 467.550, 325.500 467 C 325.840 466.450, 325.443 466, 324.618 466 C 323.793 466, 322.840 466.450, 322.500 467 M 316.500 469 C 315.239 469.542, 315.055 469.859, 316 469.859 C 316.825 469.859, 318.400 469.473, 319.500 469 C 320.761 468.458, 320.945 468.141, 320 468.141 C 319.175 468.141, 317.600 468.527, 316.500 469 M 298.750 473.662 C 299.438 473.940, 300.563 473.940, 301.250 473.662 C 301.938 473.385, 301.375 473.158, 300 473.158 C 298.625 473.158, 298.063 473.385, 298.750 473.662 M 292.269 474.693 C 293.242 474.947, 294.592 474.930, 295.269 474.656 C 295.946 474.382, 295.150 474.175, 293.500 474.195 C 291.850 474.215, 291.296 474.439, 292.269 474.693 " stroke="none" fill="white" fill-rule="evenodd" transform="scale(0.05859375) translate(0 0)"></path>
    </g>
</svg>