<svg width="60" height="60" viewBox="0 0 60 60" xmlns="http://www.w3.org/2000/svg">
    <rect fill="transparent" x="0" y="0" width="60" height="60" rx="4.8"></rect>

    <g width="30" height="30" viewBox="0 0 30 30" transform="translate(15, 15)" fill="#FFFFFF">
        <path d="M 73.237 25.997 C 71.442 27.091, 69.230 29.546, 68.321 31.453 C 67.331 33.529, 65.549 35.310, 63.879 35.892 C 61.273 36.801, 60.858 36.541, 57.547 31.932 C 55.598 29.220, 53.383 27, 52.624 27 C 50.304 27, 44.725 29.671, 40.250 32.923 C 35.149 36.631, 34.886 38.779, 38.426 47.811 L 40.852 54.001 38.176 53.250 C 36.704 52.838, 33.079 52.500, 30.119 52.500 C 25.174 52.500, 24.509 52.784, 21.911 56 C 20.357 57.925, 18.801 61.304, 18.453 63.508 C 17.902 67.005, 18.274 68.174, 21.368 72.672 L 24.915 77.828 21.598 80.357 C 17.593 83.412, 14.604 89.285, 15.413 92.508 C 16.356 96.267, 20.599 100.587, 28.608 105.944 C 45.489 117.234, 67.172 118.977, 84.924 110.469 C 95.369 105.464, 104 95.783, 104 89.074 C 104 88.149, 105.592 85.849, 107.539 83.962 C 113.082 78.589, 122.313 57.933, 120.489 54.982 C 120.157 54.445, 116.874 52.570, 113.193 50.816 C 109.512 49.062, 105.090 46.024, 103.366 44.064 C 101.642 42.104, 97.938 39.150, 95.136 37.500 C 91.348 35.270, 90.035 33.903, 90.020 32.173 C 90.009 30.893, 88.685 28.531, 87.077 26.923 C 83.517 23.363, 78.147 23.003, 73.237 25.997 " stroke="none" fill="white" fill-rule="evenodd" transform="scale(0.23076923076923078) translate(-2 0)"></path>
    </g>
</svg>