<svg width="60" height="60" viewBox="0 0 60 60" xmlns="http://www.w3.org/2000/svg">
    <rect fill="transparent" x="0" y="0" width="60" height="60" rx="4.8"></rect>

    <g width="30" height="30" viewBox="0 0 30 30" transform="translate(15, 15)" fill="#FFFFFF">
        <path d="M 81.714 3.781 C 79.671 5.873, 78 8.003, 78 8.515 C 78 9.027, 80.720 12.190, 84.043 15.544 L 90.087 21.641 55.884 56.384 L 21.681 91.127 15.564 85.063 C 12.199 81.728, 8.987 79, 8.426 79 C 7.865 79, 5.675 80.772, 3.560 82.938 L -0.285 86.876 6.016 93.438 L 12.317 100 6.016 106.562 L -0.285 113.124 3.560 117.062 C 5.675 119.228, 7.865 121, 8.426 121 C 8.987 121, 12.199 118.272, 15.564 114.937 L 21.681 108.873 55.884 143.616 L 90.087 178.359 84.043 184.456 C 80.720 187.810, 78 191.013, 78 191.574 C 78 192.135, 79.703 194.257, 81.785 196.290 L 85.571 199.987 92.008 193.492 L 98.446 186.996 105.007 193.506 L 111.567 200.017 115.727 195.758 L 119.886 191.500 113.972 185 C 110.719 181.425, 108.157 178.226, 108.279 177.891 C 108.400 177.556, 123.683 161.814, 142.240 142.910 L 175.980 108.538 182.497 114.997 L 189.014 121.456 193.235 117.235 L 197.456 113.014 191.007 106.507 L 184.558 100 191.007 93.493 L 197.456 86.986 193.235 82.765 L 189.014 78.544 182.497 85.003 L 175.980 91.462 142.240 57.090 C 123.683 38.186, 108.400 22.444, 108.279 22.109 C 108.157 21.774, 110.719 18.575, 113.972 15 L 119.886 8.500 115.719 4.234 L 111.551 -0.033 105.043 6.476 L 98.534 12.984 91.981 6.481 L 85.428 -0.022 81.714 3.781 M 64.682 64.920 C 46.157 83.602, 31 99.387, 31 100 C 31 101.366, 98.085 169.155, 99.058 168.773 C 99.441 168.623, 114.932 153.088, 133.482 134.250 L 167.211 100 133.482 65.750 C 114.932 46.913, 99.441 31.377, 99.058 31.227 C 98.676 31.077, 83.206 46.239, 64.682 64.920 M 74.997 76.503 L 51.511 100.005 75.336 123.753 L 99.161 147.500 122.078 124 C 134.682 111.075, 144.883 100.170, 144.747 99.768 C 144.350 98.591, 99.914 53, 99.164 53 C 98.790 53, 87.915 63.576, 74.997 76.503 " stroke="none" fill="white" fill-rule="evenodd" transform="scale(0.15) translate(0 0)"></path>
    </g>
</svg>