<svg xmlns="http://www.w3.org/2000/svg" width="60" height="60" viewBox="0 0 60 60">
  <g fill="#FFFFFF" fill-rule="evenodd" transform="translate(15 18)">
    <path d="M27.4009659 15.5649861C27.3658938 15.3070851 27.3368375 14.8168673 27.2283578 14.3452238 26.8063132 12.5101347 25.8166278 11.0961941 24.1029318 10.2671644 23.0238755 9.74514455 21.8783709 9.61924356 20.6952385 9.78352079 19.251464 9.98399604 18.0361298 10.6165505 17.115055 11.7565109 15.9626304 13.1828475 15.5458545 14.8458574 15.7739803 16.6489069 16.005055 18.4751248 16.9308087 19.8947683 18.489983 20.8650653 19.8508349 21.7119564 21.3339672 21.9125505 22.8907431 21.6049465 24.1540066 21.355402 25.2248453 20.7585703 26.0532464 19.7549267 26.9996029 18.6083525 27.3701796 17.2597188 27.4009659 15.5649861M16.0387117 9.79722376C16.1136527 9.72696634 16.1928008 9.66070891 16.262945 9.58589703 17.267768 8.51350099 18.4946619 7.85500594 19.931713 7.59088713 22.6606514 7.08934257 25.109249 7.66680792 27.1972569 9.55290693 28.6284102 10.845699 29.5555793 12.4489465 29.8557759 14.3670851 30.1925387 16.519204 29.7550026 18.5336594 28.5399436 20.3419366 27.2105072 22.3204317 25.3390262 23.4731842 23.0013853 23.8475604 21.0939279 24.1530653 19.2641638 23.8798376 17.5604548 22.9573426 15.3842163 21.7790059 14.0915819 19.9346495 13.6767326 17.4828475 13.5882661 16.9600752 13.5581874 16.4216198 13.5573224 15.8902931 13.5487903 10.7027683 13.5521324 5.51516436 13.5521717.3276 13.5521717.044629703 13.5524469.0443920792 13.8297602.0443524752 14.4587772.0441940594 15.0879515.0521544554 15.7167326.0397980198 15.9209921.0357584158 15.9694718.106213861 15.9691573.30150099 15.9638493 3.36387723 15.9653041 6.42629307 15.9661691 9.48866931 15.9662084 9.58415446 15.9766671 9.6796396 15.9822503 9.77512475 16.0010446 9.78249109 16.0198781 9.78985743 16.0387117 9.79722376M12.1873447 10.590804C11.8301363 10.5312 11.5016304 10.4809426 11.1749725 10.420903 10.4747104 10.2921901 9.76092267 10.2096554 9.07925819 10.0142099 8.15492005 9.7491802 7.24509043 9.41987327 6.45242988 8.84050693 5.72645347 8.30985347 5.09582438 7.67579406 4.51815727 6.99060594 3.72069987 6.04478416 2.92921887 5.09337822 2.0320498 4.24094257 1.41286239 3.65262574.768393185 3.09139802.135522936 2.51773465.0837798165 2.47080396.0345137615 2.42114059-.00000786369594 2.32795248.29963827 2.37476436.604395806 2.40030891.898144168 2.47171485 3.20720052 3.03302178 5.39952031 3.88640792 7.37059502 5.23860594 7.96174836 5.6441901 8.48999214 6.15171485 9.00950721 6.65207129 9.62413368 7.24399208 10.1979869 7.87884356 10.7900052 8.49456634 10.8116697 8.51706139 10.8388388 8.5342099 10.8820105 8.5402297 9.56739712 5.53904158 8.06838008 2.65246733 5.8648152.181576238 5.90381913.194883168 5.9482097.200229703 5.98104063.222685149 6.67933683.700467327 7.42249541 1.12529901 8.06338663 1.67171485 9.18455308 2.62755644 10.0351298 3.80997228 10.5049463 5.22609109 11.0815125 6.96399208 11.6175413 8.71551683 12.1702805 10.4614178 12.1798349 10.4915168 12.1790485 10.5249426 12.1873447 10.590804"/>
  </g>
</svg>
