<svg width="60" height="60" viewBox="0 0 60 60" xmlns="http://www.w3.org/2000/svg">
    <rect fill="transparent" x="0" y="0" width="60" height="60" rx="4.8"></rect>

    <g width="30" height="30" viewBox="0 0 30 30" transform="translate(15, 15)" fill="#FFFFFF">
        <path d="M 64.744 38.756 L 26.998 76.511 55.500 105 L 84.002 133.488 122 95.500 L 159.998 57.511 131.756 29.256 C 116.222 13.715, 103.283 1, 103.002 1 C 102.720 1, 85.504 17.990, 64.744 38.756 M 148.500 81.571 L 130.500 99.052 154.500 122.644 L 178.500 146.236 178.769 123.618 L 179.038 101 191.769 100.979 L 204.500 100.958 185.826 82.479 C 175.555 72.316, 167.005 64.020, 166.826 64.045 C 166.647 64.069, 158.400 71.956, 148.500 81.571 M 89.894 138.732 C 70.977 157.249, 48.750 179.056, 40.500 187.192 L 25.500 201.985 102.250 201.992 L 179 202 179 180.134 L 179 158.269 151.644 131.667 L 124.287 105.065 89.894 138.732 " stroke="none" fill="white" fill-rule="evenodd" transform="scale(0.1485148514851485) translate(-1.5 0)"></path>
    </g>
</svg>