<svg width="60" height="60" viewBox="0 0 60 60" xmlns="http://www.w3.org/2000/svg">
    <rect fill="transparent" x="0" y="0" width="60" height="60" rx="4.8"></rect>

    <g width="30" height="30" viewBox="0 0 30 30" transform="translate(15, 15)" fill="#FFFFFF">
        <path d="M 6.808 5.749 C 7.292 6.712, 39.578 77.812, 78.556 163.750 L 149.423 320 435.295 320 C 621.148 320, 721.050 320.342, 720.833 320.978 C 720.650 321.516, 709.905 332.653, 696.957 345.728 C 649.612 393.533, 486.201 558.801, 269.543 778 C 147.499 901.475, 37.363 1012.875, 24.796 1025.555 L 1.946 1048.609 8.074 1061.555 C 11.444 1068.675, 47.501 1145.600, 88.199 1232.500 C 128.897 1319.400, 162.512 1390.838, 162.899 1391.251 C 163.285 1391.664, 396.275 1391.889, 680.654 1391.751 L 1197.705 1391.500 1115.589 1220.500 L 1033.473 1049.500 759.678 1049 L 485.883 1048.500 702.192 822.448 C 821.161 698.119, 977.900 534.338, 1050.500 458.489 C 1123.100 382.640, 1183.305 319.571, 1184.289 318.334 C 1186.058 316.110, 1185.236 314.347, 1110.603 160.293 L 1035.128 4.500 520.528 4.249 C 30.610 4.010, 5.971 4.082, 6.808 5.749 " stroke="none" fill="white" fill-rule="evenodd" transform="scale(0.025) translate(0 -98.5)"></path>
    </g>
</svg>