<svg width="60" height="60" viewBox="0 0 60 60" xmlns="http://www.w3.org/2000/svg">
    <rect fill="transparent" x="0" y="0" width="60" height="60" rx="4.8"></rect>

    <g width="30" height="30" viewBox="0 0 30 30" transform="translate(15, 15)" fill="#FFFFFF">
        <path d="M 21.762 3.707 C 23.006 3.946, 24.806 3.937, 25.762 3.687 C 26.718 3.437, 25.700 3.241, 23.500 3.252 C 21.300 3.263, 20.518 3.468, 21.762 3.707 M 13.500 5.871 C 4.950 11.181, 0.932 21.302, 4.046 29.685 C 5.956 34.828, 11.440 41.939, 14.491 43.228 C 18.345 44.857, 29.779 44.760, 32.895 43.072 C 42.307 37.973, 46.627 24.058, 41.856 14.202 C 39.859 10.078, 32.503 3.983, 29.554 4.009 C 28.974 4.015, 30.355 5.131, 32.622 6.490 C 34.889 7.849, 37.542 10.207, 38.516 11.730 L 40.288 14.500 37.765 12.189 L 35.241 9.878 33.227 12.438 C 31.578 14.535, 31.105 14.716, 30.614 13.436 C 29.590 10.767, 28 12.926, 28 16.986 C 28 19.860, 28.449 20.949, 29.750 21.227 C 31.098 21.515, 30.764 21.991, 28.300 23.300 C 24.289 25.430, 22.711 25.430, 18.700 23.300 C 16.236 21.991, 15.902 21.515, 17.250 21.227 C 18.551 20.949, 19 19.860, 19 16.986 C 19 12.711, 17.628 11.055, 16.201 13.605 C 15.420 15.002, 15.076 14.793, 13.943 12.233 C 13.159 10.463, 12.067 9.421, 11.303 9.714 C 8.528 10.779, 10.199 8.994, 14.250 6.566 C 16.587 5.165, 18.050 4.016, 17.500 4.013 C 16.950 4.010, 15.150 4.846, 13.500 5.871 M 22.269 31.693 C 23.242 31.947, 24.592 31.930, 25.269 31.656 C 25.946 31.382, 25.150 31.175, 23.500 31.195 C 21.850 31.215, 21.296 31.439, 22.269 31.693 " stroke="none" fill="white" fill-rule="evenodd" transform="scale(0.625) translate(0 0)"></path>
    </g>
</svg>