<svg width="60" height="60" viewBox="0 0 60 60" xmlns="http://www.w3.org/2000/svg">
    <rect fill="transparent" x="0" y="0" width="60" height="60" rx="4.8"></rect>

    <g width="30" height="30" viewBox="0 0 30 30" transform="translate(15, 15)" fill="#FFFFFF">
        <path d="M 971.500 3.602 C 909.106 5.958, 855.169 12.226, 799 23.646 C 648.018 54.344, 502.960 122.079, 381 218.831 C 348.968 244.243, 326.781 264.127, 294.947 295.953 C 257.866 333.024, 232.821 361.791, 202.511 402.125 C 148.535 473.951, 102.703 556.177, 70.757 638.500 C 13.673 785.602, -7.442 941.044, 8.068 1100 C 38.141 1408.191, 212.888 1686.561, 479 1850.189 C 671.167 1968.349, 897.834 2017.276, 1124 1989.413 C 1259.949 1972.665, 1393.461 1926.727, 1511 1856.257 C 1698.721 1743.710, 1844.603 1572.936, 1925.526 1371 C 1987.302 1216.842, 2009.462 1048.997, 1989.985 882.770 C 1968.951 703.246, 1898.733 532.077, 1787.430 389 C 1739.517 327.409, 1681.184 268.324, 1620.960 220.384 C 1459.253 91.663, 1264.857 17.303, 1058 5.044 C 1039.849 3.968, 985.704 3.065, 971.500 3.602 M 773 532.077 C 677.585 535.844, 579.986 547, 497 563.626 C 438.800 575.286, 378.056 591.433, 362 599.512 C 338.494 611.339, 320.363 634.332, 313.810 660.623 C 310.702 673.094, 310.702 691.906, 313.810 704.377 C 323.397 742.837, 354.960 770.438, 394.718 775.127 C 407.990 776.693, 419.513 775.146, 441.140 768.894 C 564.585 733.211, 715.563 715.314, 876 717.344 C 922.269 717.929, 942.756 718.662, 978.500 721.009 C 1211.995 736.338, 1422.378 791.934, 1575 878.640 C 1607.654 897.191, 1614.569 899.486, 1637.500 899.383 C 1654.935 899.304, 1663.114 897.554, 1676.928 890.950 C 1687.762 885.771, 1695.846 879.942, 1704.120 871.343 C 1721.369 853.418, 1730.068 832.047, 1730.107 807.500 C 1730.165 771.642, 1713.657 743.764, 1680.874 724.359 C 1581.632 665.613, 1453.877 616.116, 1317.462 583.559 C 1194.566 554.228, 1069.527 537.545, 931 531.995 C 903.025 530.874, 802.145 530.927, 773 532.077 M 769 875.001 C 653.433 880.427, 549.710 896.947, 448 926.125 C 425.297 932.638, 414.481 937.872, 404.541 947.155 C 386.960 963.574, 378.938 981.541, 378.938 1004.500 C 378.938 1040.974, 402.473 1071.135, 437.930 1080.102 C 445.018 1081.894, 448.299 1082.150, 458.916 1081.742 C 470.502 1081.296, 473.047 1080.809, 491 1075.600 C 653.108 1028.565, 842.541 1017.452, 1029.032 1044.036 C 1133.913 1058.987, 1233.430 1085.092, 1323.515 1121.285 C 1354.019 1133.540, 1372.170 1141.711, 1402 1156.617 C 1424.971 1168.095, 1437.623 1175.039, 1474.700 1196.515 C 1505.375 1214.283, 1544.626 1208.352, 1569.159 1182.242 C 1591.874 1158.068, 1596.993 1123.898, 1582.303 1094.502 C 1574.408 1078.703, 1564.780 1069.393, 1542.865 1056.368 C 1417.187 981.676, 1270.670 928.379, 1110.500 899.093 C 1048.392 887.737, 993.219 881.030, 924 876.422 C 896.852 874.615, 796.771 873.698, 769 875.001 M 800 1199.600 C 697.664 1204.274, 618.376 1213.753, 524.500 1232.535 C 457.492 1245.942, 452.221 1247.715, 438.468 1261.468 C 422.935 1277.001, 416.961 1296.992, 421.479 1318.315 C 423.946 1329.960, 429.137 1339.225, 438.364 1348.454 C 447.650 1357.743, 455.006 1362.060, 466.596 1365.025 C 476.881 1367.655, 486.669 1367.517, 500.814 1364.542 C 507.241 1363.190, 522.175 1360.046, 534 1357.554 C 687.551 1325.204, 838.771 1315.720, 972.500 1330.052 C 1075.953 1341.139, 1168.597 1364.928, 1259.500 1403.747 C 1281.687 1413.222, 1327.531 1436.021, 1347 1447.262 C 1354.975 1451.867, 1365.550 1457.981, 1370.500 1460.849 C 1391.631 1473.090, 1410.873 1474.063, 1431.946 1463.955 C 1438.667 1460.731, 1441.958 1458.315, 1448.055 1452.127 C 1460.195 1439.807, 1466 1425.889, 1466 1409.104 C 1466 1398.296, 1463.835 1389.573, 1458.653 1379.500 C 1452.513 1367.566, 1444.873 1360.511, 1425.987 1349.336 C 1322.750 1288.253, 1213.401 1246.631, 1093 1222.591 C 1037.922 1211.593, 987.629 1205.208, 922.500 1200.944 C 906.917 1199.924, 814.994 1198.915, 800 1199.600 " stroke="none" fill="white" fill-rule="evenodd" transform="scale(0.015) translate(0 0)"></path>
    </g>
</svg>