<svg width="60" height="60" viewBox="0 0 60 60" xmlns="http://www.w3.org/2000/svg">
    <rect fill="transparent" x="0" y="0" width="60" height="60" rx="4.8"></rect>

    <g width="30" height="30" viewBox="0 0 30 30" transform="translate(15, 15)" fill="#FFFFFF">
        <path d="M 135.500 19.096 C 120.459 21.719, 108.833 25.148, 98 30.157 C 72.307 42.038, 50.381 62.923, 37.229 88.044 C 16.975 126.727, 16.975 171.273, 37.229 209.956 C 69.463 271.523, 144.808 297.063, 208 267.843 C 233.693 255.962, 255.619 235.077, 268.771 209.956 C 289.025 171.273, 289.025 126.727, 268.771 88.044 C 246.145 44.829, 200.773 17.641, 152.066 18.112 C 145.705 18.173, 138.250 18.616, 135.500 19.096 M 154 46.500 L 154 59 157.750 59.006 C 161.253 59.011, 168.505 60.037, 175.521 61.520 L 178.543 62.159 181.265 53.235 C 182.763 48.327, 184.259 42.957, 184.590 41.302 C 185.273 37.883, 186.120 38.180, 168 35.463 C 152.506 33.140, 154 31.962, 154 46.500 M 136.500 35.626 C 135.400 35.842, 132.025 36.495, 129 37.076 C 102.188 42.227, 74.471 60.550, 59.176 83.233 C 47.142 101.081, 41.457 116.552, 38.946 138.289 C 37.627 149.704, 38.512 162.363, 41.546 175.500 C 51.143 217.056, 85.069 250.975, 126.500 260.439 C 159.146 267.896, 190.966 261.873, 218.230 243.076 C 227.341 236.794, 229 235.474, 229 234.504 C 229 233.512, 214.036 217, 213.136 217 C 212.765 217, 209.770 219.043, 206.480 221.540 C 199.246 227.031, 187.156 233.024, 177 236.153 C 170.451 238.171, 167.409 238.464, 153 238.464 C 135.093 238.464, 129.334 237.322, 115.363 231.003 C 97.064 222.727, 79.273 204.936, 70.997 186.637 C 64.678 172.666, 63.536 166.907, 63.536 149 C 63.536 131.093, 64.678 125.334, 70.997 111.363 C 79.273 93.064, 97.064 75.273, 115.363 66.997 C 122.870 63.601, 133.717 60.393, 140.750 59.488 C 143.637 59.116, 146.035 58.292, 146.079 57.656 C 146.310 54.258, 145.868 42.941, 145.359 39.250 C 144.807 35.245, 144.592 35.007, 141.636 35.116 C 139.911 35.180, 137.600 35.409, 136.500 35.626 M 191.537 44.566 C 190.692 46.589, 190 48.577, 190 48.985 C 190 49.392, 188.700 52.878, 187.110 56.732 C 185.521 60.586, 184.509 64.136, 184.860 64.620 C 185.212 65.104, 189.335 67.400, 194.021 69.722 C 198.708 72.044, 205.559 76.432, 209.245 79.472 C 212.931 82.512, 216.306 85, 216.745 85 C 217.952 85, 234 68.618, 234 67.386 C 234 64.834, 216.788 52.175, 205.180 46.191 C 193.667 40.255, 193.354 40.218, 191.537 44.566 M 146.710 106.623 C 146.320 107.014, 146 108.997, 146 111.031 C 146 114.459, 145.690 114.847, 141.750 116.358 C 136.861 118.232, 133.432 121.034, 129.970 125.982 C 128.102 128.651, 127.533 130.754, 127.533 134.990 C 127.533 145.018, 133.481 151.164, 147.807 155.940 C 151.825 157.279, 156.256 159.434, 157.652 160.728 C 159.964 162.871, 160.062 163.274, 158.755 165.243 C 156.042 169.329, 147.240 169.819, 137.215 166.443 C 134.858 165.649, 132.366 165, 131.677 165 C 129.765 165, 126.744 177.182, 128.287 178.669 C 129.694 180.025, 141.488 184, 144.105 184 C 145.433 184, 145.957 184.942, 146.190 187.750 L 146.500 191.500 152.500 191.500 L 158.500 191.500 158.552 188.009 C 158.606 184.357, 159.496 183.584, 166.636 180.991 C 168.361 180.364, 171.240 178.423, 173.034 176.676 C 181.152 168.772, 181.082 157.100, 172.869 149.300 C 169.789 146.375, 153.675 138, 151.126 138 C 149.485 138, 146.877 133.483, 147.532 131.776 C 148.245 129.918, 152.285 128, 155.485 128 C 156.800 128, 160.894 128.700, 164.583 129.555 C 168.271 130.411, 171.648 130.748, 172.087 130.305 C 172.526 129.862, 173.309 127.700, 173.827 125.500 C 174.345 123.300, 175.081 120.747, 175.462 119.827 C 176.368 117.639, 174.256 116.590, 165.804 115.030 L 159.108 113.794 158.804 110.147 L 158.500 106.500 152.960 106.206 C 149.913 106.045, 147.101 106.232, 146.710 106.623 " stroke="none" fill="white" fill-rule="evenodd" transform="scale(0.10135135135135136) translate(-10 0)"></path>
    </g>
</svg>