<svg xmlns="http://www.w3.org/2000/svg" width="60" height="60" viewBox="0 0 60 60">
  <path fill="#FFFFFF" fill-rule="evenodd" d="M23.8248857,16.0000287 L29.9997429,21.1718874 L21.1020286,26.685211 L15.0000286,21.7819942 L23.8248857,16.0000287 Z M15,31.5889439 L21.102,26.6851536 L30,32.1987639 L23.8248571,37.3709093 L15,31.5889439 Z M29.9998857,32.1986779 L38.8981714,26.6853543 L44.9998857,31.5888579 L36.1750286,37.3708233 L29.9998857,32.1986779 Z M45,21.7819655 L38.898,26.6851823 L30,21.1718587 L36.1751429,16 L45,21.7819655 Z M30.0181429,33.3113772 L36.2112857,38.4683274 L38.8615714,36.7320462 L38.8615714,38.6784816 L30.0181429,44 L21.1747143,38.6784816 L21.1747143,36.7320462 L23.825,38.4683274 L30.0181429,33.3113772 Z"/>
</svg>
