<svg width="60" height="60" viewBox="0 0 60 60" xmlns="http://www.w3.org/2000/svg">
    <rect fill="transparent" x="0" y="0" width="60" height="60" rx="4.8"></rect>

    <g width="30" height="30" viewBox="0 0 30 30" transform="translate(15, 15)" fill="#FFFFFF">
        <path d="M 323.617 73.519 L 309.734 102.958 304.315 98.005 C 301.335 95.281, 295.882 91.578, 292.198 89.776 C 285.718 86.607, 285.094 86.500, 273 86.500 C 261.010 86.500, 260.224 86.631, 253.741 89.701 C 246.201 93.273, 237.082 101.298, 233.375 107.622 C 232.038 109.905, 218.835 138.711, 204.036 171.636 L 177.129 231.500 179.814 232.914 C 191.347 238.988, 261.528 270.854, 262.058 270.258 C 262.428 269.841, 268.683 256.900, 275.957 241.500 C 283.231 226.100, 289.346 213.332, 289.548 213.127 C 289.749 212.922, 292.070 214.671, 294.707 217.015 C 297.343 219.359, 302.778 222.847, 306.785 224.766 C 319.979 231.085, 337.257 230.262, 349.867 222.713 C 356.512 218.734, 364.631 209.928, 368.182 202.848 C 373.289 192.664, 422.009 83.676, 421.626 83.292 C 421.271 82.938, 337.806 43.950, 337.594 44.040 C 337.542 44.062, 331.253 57.327, 323.617 73.519 " stroke="none" fill="white" fill-rule="evenodd" transform="scale(0.09523809523809523) translate(-142.5 0)"></path>
    </g>
</svg>