<svg width="60" height="60" viewBox="0 0 60 60" xmlns="http://www.w3.org/2000/svg">
    <rect fill="transparent" x="0" y="0" width="60" height="60" rx="4.8"></rect>

    <g width="30" height="30" viewBox="0 0 30 30" transform="translate(15, 15)" fill="#FFFFFF">
        <path d="M 108.500 1.391 C 60.336 9.350, 20.772 42.739, 6.055 87.846 C 3.239 96.477, -0.776 116.558, 0.133 117.466 C 0.396 117.730, 15.852 124.253, 34.479 131.962 L 68.345 145.978 73.523 143.445 C 76.371 142.051, 81.552 140.594, 85.036 140.206 L 91.371 139.500 106.564 117.557 C 121.342 96.214, 121.771 95.449, 122.269 89.557 C 122.967 81.312, 126.288 73.052, 131.850 65.728 C 147.061 45.699, 175.790 40.995, 196.883 55.081 C 204.638 60.259, 209.192 65.602, 213.815 74.948 C 217.473 82.341, 217.500 82.490, 217.500 95 C 217.500 107.510, 217.473 107.659, 213.815 115.052 C 211.789 119.148, 208.519 124.380, 206.549 126.678 C 199.029 135.450, 183.769 143, 173.557 143 C 169.710 143, 167.474 144.321, 148.960 157.529 C 137.758 165.520, 127.846 172.734, 126.933 173.561 C 125.908 174.488, 125.071 177.278, 124.748 180.844 C 123.742 191.934, 116.496 202.320, 105.768 208.050 C 100.390 210.922, 98.293 211.454, 91 211.795 C 81.229 212.251, 74.509 210.291, 67.054 204.808 C 62.121 201.180, 55.346 191.363, 54.439 186.528 C 53.844 183.354, 53.391 183.112, 29.666 173.295 C 16.375 167.795, 5.349 163.682, 5.165 164.153 C 4.980 164.625, 6.060 168.271, 7.564 172.256 C 19.277 203.291, 41.867 228.145, 71.448 242.546 C 90.641 251.889, 106.352 255.423, 128.500 255.379 C 150.089 255.337, 166.346 251.502, 185.565 241.921 C 225.794 221.865, 253.034 180.702, 255.502 136.236 C 256.711 114.467, 256.801 110.525, 256.022 113.500 L 255.237 116.500 255.118 113.208 C 254.736 102.581, 248.966 83.800, 241.728 69.625 C 224.073 35.049, 192.185 10.896, 153 2.419 C 142.950 0.244, 118.811 -0.313, 108.500 1.391 M 159.332 64.790 C 145.362 69.782, 137.063 82.738, 138.263 97.683 C 140.812 129.440, 182.970 137.954, 198.534 109.855 C 201.239 104.971, 201.500 103.664, 201.497 95 C 201.494 84.359, 200.008 80.336, 193.367 72.985 C 185.566 64.349, 170.630 60.753, 159.332 64.790 M 160.478 72.871 C 152.374 76.552, 147.195 83.709, 146.290 92.476 C 145.485 100.281, 147.983 106.775, 153.933 112.340 C 159.595 117.636, 165.082 119.468, 172.889 118.668 C 196.420 116.257, 201.978 83.349, 180.541 73.367 C 174.316 70.468, 166.208 70.268, 160.478 72.871 M 0.232 115 C 0.232 116.925, 0.438 117.713, 0.689 116.750 C 0.941 115.787, 0.941 114.213, 0.689 113.250 C 0.438 112.287, 0.232 113.075, 0.232 115 M 81.651 149.807 C 80.217 150.418, 82.072 151.565, 89.890 154.904 C 104.182 161.006, 108.828 167.033, 107.765 178.092 C 107.112 184.887, 103.369 190.139, 96.871 193.377 C 89.229 197.185, 87.157 196.932, 70.188 190.114 L 64.875 187.980 66.688 191.106 C 70.403 197.514, 80.409 202.943, 88.572 202.978 C 104.047 203.045, 116.013 191.295, 115.990 176.054 C 115.974 165.261, 110.525 156.438, 100.737 151.357 C 97.220 149.532, 84.684 148.514, 81.651 149.807 " stroke="none" fill="white" fill-rule="evenodd" transform="scale(0.1171875) translate(0 0)"></path>
    </g>
</svg>