<svg xmlns="http://www.w3.org/2000/svg" width="360" height="360" viewBox="0 0 360 360">
  <g fill="#FFF" fill-rule="evenodd" transform="translate(106 83)">
    <path d="M59.81124 151.128148L58.451934 151.672593C50.295876 154.394074 38.061752 158.476296 27.458884 163.646667 26.915132 163.919259 26.371454 164.735556 26.371454 164.735556 26.099578 165.28 25.827702 165.823704 25.555826 166.368148 24.468322 169.08963 22.565264 173.171852 22.021512 175.077037L21.47776 176.437778C21.47776 176.70963 21.47776 176.981481 21.47776 176.981481L21.749636 177.254074 22.021512 177.254074 23.380892 176.70963C26.371454 175.348889 30.17757 173.171852 33.98376 171.266667L34.255636 171.266667C41.867942 167.728889 50.295876 163.646667 55.189496 161.197778 55.189496 161.197778 56.005124 160.653333 56.548802 159.837037L60.354992 152.217037C60.354992 151.944444 60.354992 151.672593 60.354992 151.672593 60.354992 151.128148 60.083116 150.856296 59.81124 151.128148zM29.361794 139.155556C29.905546 138.066667 32.352356 133.440741 32.896108 132.351852L32.896108 132.08C49.480026 100.783704 69.598332 71.3925926 92.7072 44.4504444L93.2511 43.6340741C93.52268 43.3619259 93.52268 43.0897778 93.2511 42.8176296 92.97878 42.5454815 92.7072 42.2733333 92.43562 42.5454815L91.34782 42.5454815C76.12306 44.7225926 60.626646 47.444 45.402034 51.254 43.770852 51.7982963 42.955224 52.6146667 42.683348 52.8868148 31.264852 66.4938519 20.661984 80.917037 10.602868 95.6125926 10.874744 96.4296296 10.874744 98.0622222 10.874744 98.0622222 10.874744 98.0622222 13.321554 117.111852 16.855868 131.263704 8.156058 157.117037 0 191.406667 0 191.406667 0 191.678519 0 191.95037 0 191.95037 0 192.222963.2718686 192.222963.5437372 192.222963L5.7092332 192.222963C5.9811018 192.222963 6.2529778 191.95037 6.5248464 191.678519L6.7967076 190.58963C11.962174 176.438519 17.943298 162.287407 24.468174 148.68 26.099356 145.686667 29.361794 139.155556 29.361794 139.155556z"/>
    <path d="M100.59116,50.1659259 L100.59116,49.0774074 C100.59116,48.8052593 100.31958,48.5331111 100.04726,48.260963 C99.77568,48.260963 99.50336,48.260963 99.23178,48.5331111 L98.68788,49.3495556 C71.501242,80.6459259 48.9362,115.48 30.992828,152.762963 L30.44915,153.579259 C30.44915,153.851852 30.44915,154.123704 30.44915,154.395556 C30.721026,154.668148 30.721026,154.668148 30.992828,154.668148 L31.264704,154.668148 L32.080332,154.395556 C47.304944,148.136296 62.801432,142.694074 78.29792,138.067407 C79.1134,137.795556 79.92888,137.251111 80.47278,136.434815 C87.26968,123.371852 103.03834,97.7903704 103.03834,97.7903704 C103.5815,96.9740741 103.30992,96.1577778 103.30992,96.1577778 C103.30992,96.1577778 100.59116,65.678 100.59116,50.1659259 Z"/>
    <path d="M135.3904,6.07718519 C131.58458,2.8115037 125.87474,1.17865926 117.1753,0.906518519 C109.56292,0.634377778 100.31958,2.53936296 89.71686,5.80503704 C88.08516,6.34933333 86.9981,7.16577778 85.63872,8.2542963 C74.76368,18.3234815 64.432836,29.2091111 54.645596,40.0947407 L53.829968,40.9111852 C53.558092,41.1833333 53.558092,41.4554815 53.829968,41.7276296 C54.101844,41.9997778 54.37372,42.2718519 54.645596,41.9997778 L55.733026,41.7276296 C71.773266,38.1897778 87.81358,35.7405185 103.58224,34.1077037 C104.6693,34.1077037 105.7571,34.3797778 106.57258,34.9240741 C107.38806,35.7405185 107.65964,36.556963 107.65964,37.6454815 C107.38806,53.4296296 107.93196,69.2137778 109.29134,84.4533333 L109.29134,85.5422222 C109.29134,85.8140741 109.56292,86.0866667 109.83524,86.0866667 C109.83524,86.0866667 109.8345,86.0866667 110.10682,86.0866667 C110.3784,86.0866667 110.65072,86.0866667 110.65072,85.8140741 L111.19388,84.9977778 C120.16564,72.2074074 129.6813,59.961037 140.01244,48.258963 C141.0995,46.8982963 141.37182,46.0818519 141.6434,44.9932593 C144.90606,25.127037 140.01244,9.88718519 135.3904,6.07718519 Z"/>
  </g>
</svg>
