<svg width="60" height="60" viewBox="0 0 60 60" xmlns="http://www.w3.org/2000/svg">
    <rect fill="transparent" x="0" y="0" width="60" height="60" rx="4.8"></rect>

    <g width="30" height="30" viewBox="0 0 30 30" transform="translate(15, 15)" fill="#FFFFFF">
        <path d="M 20.500 1.548 C 14.124 4.072, 13.265 4.238, 12.554 3.087 C 12.184 2.489, 10.141 2, 8.014 2 C 1.154 2, -2.521 9.917, 2.058 14.832 C 3.755 16.654, 4.001 17.810, 3.459 21.424 C 0.293 42.538, 26.836 55.781, 45.876 42.586 C 51.898 38.413, 54.430 32.910, 54.427 24 C 54.425 18.184, 54.826 16.065, 56.212 14.561 C 60.361 10.062, 56.640 2, 50.414 2 C 48.521 2, 46.164 2.505, 45.175 3.123 C 43.779 3.995, 42.617 3.853, 39.983 2.491 C 35.245 0.041, 25.500 -0.431, 20.500 1.548 M 20.519 4.598 C 16.063 6.229, 10.585 11.057, 8.352 15.321 C 6.242 19.352, 5.878 27.770, 7.632 31.977 C 12.506 43.663, 28.344 48.619, 40.871 42.377 C 48.508 38.571, 51.522 33.631, 51.428 25.072 C 51.348 17.676, 49.863 14.126, 44.832 9.293 C 38.729 3.430, 28.896 1.532, 20.519 4.598 M 14.656 14.133 C 11.853 15.762, 9.821 21.399, 10.959 24.391 C 12.962 29.662, 18.628 30.420, 22.411 25.923 C 25.540 22.205, 25.693 19.151, 22.927 15.635 C 20.754 12.872, 17.760 12.328, 14.656 14.133 M 35.073 15.635 C 32.307 19.151, 32.460 22.205, 35.589 25.923 C 41.278 32.685, 50.032 26.798, 46.578 18.533 C 44.114 12.634, 38.538 11.230, 35.073 15.635 M 17.133 17.340 C 15.610 19.175, 16.791 22.187, 18.876 21.785 C 19.837 21.600, 20.500 20.492, 20.500 19.070 C 20.500 16.235, 18.782 15.352, 17.133 17.340 M 37.362 17.500 C 36.567 19.572, 37.646 22, 39.362 22 C 41.312 22, 42.289 19.053, 40.895 17.373 C 39.409 15.583, 38.079 15.631, 37.362 17.500 M 25.314 29.624 C 24.939 30.601, 25.350 31.616, 26.346 32.173 C 28.453 33.353, 28.592 36.454, 26.500 35.607 C 25.675 35.273, 24.264 34.703, 23.364 34.341 C 20.764 33.293, 22.261 36.291, 25.079 37.776 C 27.675 39.144, 32.461 38.692, 34.655 36.872 C 36.349 35.465, 36.418 33.615, 34.750 34.297 C 34.063 34.578, 32.712 35.124, 31.750 35.511 C 29.440 36.439, 29.355 33.460, 31.654 32.173 C 34.271 30.709, 32.547 28, 29 28 C 27.096 28, 25.701 28.614, 25.314 29.624 " stroke="none" fill="white" fill-rule="evenodd" transform="scale(0.625) translate(-7 0)"></path>
    </g>
</svg>