<svg xmlns="http://www.w3.org/2000/svg" width="60" height="60" viewBox="0 0 60 60">
  <path fill="#FFFFFF" d="M11.9318415,3.77604414e-15 C9.12248604,3.77604414e-15 7.49771303,1.29908535 6.71399899,2.19656871 C6.62088175,1.42319641 6.12580385,0.419895005 4.194372,0.419895005 L0,0.419895005 L0,4.94474211 L1.71898254,4.94474211 C2.00980325,4.94474211 2.10346664,5.04042864 2.10346664,5.33958976 L2.10346664,26 L7.10339837,26 L7.10339837,18.2457325 C7.10339837,18.0363479 7.0993023,17.8407534 7.09411395,17.6657033 C7.87509728,18.4050225 9.3666116,19.4226768 11.6964542,19.4226768 C16.5833345,19.4226768 20,15.4302971 20,9.71218271 C20,3.90344753 16.7559154,1.77635684e-15 11.9318415,1.77635684e-15 M10.916017,14.9344158 C8.22435521,14.9344158 7.00154285,12.2782703 7.00154285,9.8174379 C7.00154285,5.94128917 9.05831433,4.55974455 10.9829194,4.55974455 C13.3430729,4.55974455 14.9304351,6.65696812 14.9304351,9.7811333 C14.9304351,13.3437679 12.9124398,14.9344158 10.9162901,14.9344158" transform="translate(20 17)"/>
</svg>
