<svg xmlns="http://www.w3.org/2000/svg" width="60" height="60" viewBox="0 0 60 60">
  <g fill="#FFFFFF" transform="translate(15 21)">
    <path d="M16.1149213,5.2997561 C13.8847416,5.2997561 11.9482247,6.66073171 10.969618,8.65858537 C9.99101124,6.66065854 8.0545618,5.29990244 5.82444944,5.29990244 C4.51368539,5.29990244 3.30411236,5.76995122 2.33089888,6.56326829 L2.33089888,1.23841463 L2.33035955,1.23841463 C2.31674157,0.552219512 1.8008764,0 1.16534831,0 C0.529752809,0 0.0140224719,0.552219512 0.000539325843,1.23841463 L0,1.23841463 L0,11.7261951 L0.00242696629,11.7261951 C0.0542022472,15.1689512 2.64006742,17.9432927 5.82438202,17.9432927 C8.05449438,17.9432927 9.99101124,16.5820976 10.9695506,14.5841707 C11.9482247,16.5822439 13.8846742,17.9431463 16.1147865,17.9431463 C19.3315281,17.9431463 21.939236,15.1126098 21.939236,11.6214878 C21.9393034,8.12992683 19.3314607,5.2997561 16.1149213,5.2997561 L16.1149213,5.2997561 Z M5.82438202,15.4132683 C3.8948764,15.4132683 2.33083146,13.7156341 2.33083146,11.621561 C2.33083146,9.52719512 3.89494382,7.82963415 5.82438202,7.82963415 C7.75388764,7.82963415 9.318,9.52719512 9.318,11.621561 C9.318,13.7156341 7.75388764,15.4132683 5.82438202,15.4132683 L5.82438202,15.4132683 Z M16.1149213,15.4132683 C14.1853483,15.4132683 12.6213708,13.7156341 12.6213708,11.6214146 C12.6213708,9.52704878 14.1854157,7.82963415 16.1149213,7.82963415 C18.0442921,7.82963415 19.6085393,9.52704878 19.6085393,11.6214146 C19.6084719,13.7156341 18.0442921,15.4132683 16.1149213,15.4132683 Z"/>
    <path d="M29.7742247,15.9536341 L26.7913483,11.6260976 L29.7742247,7.2984878 L29.7736854,7.29797561 C30.1426517,6.74041463 30.0357303,5.96268293 29.5274831,5.5482439 C29.0193708,5.1342439 28.3013933,5.23939024 27.9108539,5.7792439 L27.9105843,5.77909756 L25.3361124,9.5142439 L22.7616404,5.77909756 L22.761236,5.7797561 C22.3706966,5.23939024 21.6528539,5.1342439 21.1445393,5.54853659 C20.6362921,5.96297561 20.5293708,6.74070732 20.8985393,7.29812195 L20.898,7.2984878 L23.880809,11.6260976 L20.898,15.9536341 L20.8985393,15.954 C20.5293034,16.511561 20.6362921,17.2891463 21.1445393,17.703439 C21.6528539,18.117878 22.3706966,18.0125854 22.761236,17.4725854 L22.7616404,17.4730976 L25.3361124,13.7378049 L27.9105843,17.4730976 L27.9108539,17.4729512 C28.3014607,18.0127317 29.0193708,18.117878 29.5274831,17.7037317 C30.0357303,17.289439 30.1426517,16.5117073 29.7736854,15.9542195 L29.7742247,15.9536341 L29.7742247,15.9536341 Z"/>
  </g>
</svg>
