<svg xmlns="http://www.w3.org/2000/svg" width="60" height="60" viewBox="0 0 60 60">
  <path fill="#FFFFFF" fill-rule="evenodd" d="M37.2982958,34.9968642 C37.2982958,32.7948393 39.0224299,31.0086148 41.1497251,31.0086148 C43.2759483,31.0086148 45,32.7948393 45,34.9968642 C45,37.201452 43.2759483,38.9869076 41.1497251,38.9869076 C39.0224299,38.9869076 37.2982958,37.201452 37.2982958,34.9968642 Z M35.8884277,42.2925506 C34.1586036,43.3866857 31.3938703,43.982578 29.1228422,43.9995791 C21.1791094,44.0598945 15,37.6292984 15,30.0397239 C15,21.7672867 21.2810335,15.7338667 28.8578065,16.009045 C31.9598955,16.009045 34.8519516,17.1488866 36.8648708,18.4951333 C37.3954371,18.8499348 37.385624,19.0215688 37.2727323,19.1843179 C36.8268554,19.826771 35.6124244,21.6886887 35.0005498,22.9950384 C35.0005498,22.9950384 34.8369434,23.333864 34.5046179,23.1084928 C33.2054975,22.2278538 31.4517592,21.3712212 28.5510445,21.3712212 C24.0694338,21.3712212 20.6575316,25.0014226 20.6575316,29.9408784 C20.6575316,34.8825554 24.6363661,38.5659813 29.1170698,38.5580361 C30.6619296,38.554875 32.2682243,37.9881153 32.8161902,37.7801724 C33.0826278,37.6797036 33.1961792,37.9325841 33.1961792,37.9325841 C34.2720726,40.3043635 35.7032985,41.3986695 36.0350467,41.8764939 C36.203271,42.1188662 35.8884277,42.2925506 35.8884277,42.2925506 Z"/>
</svg>
