<svg xmlns="http://www.w3.org/2000/svg" width="360" height="360" viewBox="0 0 360 360">
  <g fill="#FFF" fill-rule="evenodd" transform="translate(84 59)">
    <path fill-rule="nonzero" d="M16.4210526,124.515722 C16.4210526,94.9379444 32.9263158,68.3918889 59.4694737,55.2196944 C66.2164211,51.8854722 72.1448421,50.1948333 77.0997895,50.1948333 C77.7397895,50.1948333 78.2955789,50.2755 78.8715789,50.3292778 C86.7098947,51.3577778 93.9216842,58.7522222 93.9216842,58.7522222 C93.9216842,58.7522222 100.16,51.4586111 108.624842,50.3494444 C109.298526,50.2822222 109.972211,50.1981944 110.746947,50.1981944 C115.698526,50.1981944 121.626947,51.8888333 128.350316,55.20625 C129.569684,55.8179722 130.741895,56.4733889 131.920842,57.1388889 L154.371368,52.8635556 C148.665263,48.0638889 142.413474,43.8893889 135.663158,40.5383611 C127.504842,36.51175 120.646737,34.6328889 114.906947,34.0346111 L114.805895,34.0581389 C110.864842,33.9136111 108.129684,35.3353611 105.872842,37.2915278 C113.812211,25.1646389 126.588632,9.83125 147.304421,0.0235277778 C119.309474,6.15755556 105.414737,17.545 93.2042105,31.339 C78.1002105,16.7652222 62.4168421,19.6759444 62.4168421,19.6759444 C72.8353684,22.8353889 78.6762105,30.2399167 80.6501053,37.0663333 C78.1574737,35.2950278 75.2673684,34.03125 71.8416842,34.1623333 L71.8349474,34.1724167 L71.8113684,34.1724167 C66.3107368,34.8849722 59.8197895,36.7604722 52.1869474,40.5417222 C21.2614737,55.8751111 0.00673684237,87.7182778 0.00673684237,124.519083 C0.00673684237,136.21575 2.17936842,147.40825 6.10357895,157.750389 L18.4084211,141.818722 C17.1284211,136.252722 16.4311579,130.46825 16.4311579,124.519083 M171.250526,129.369167 C168.737684,169.756278 135.023158,201.851528 93.9250526,201.851528 C92.2947368,201.851528 90.6846316,201.784306 89.0812632,201.683472 L76.7292632,214.254028 L75.7591579,216.465639 C81.6336842,217.621861 87.7035789,218.236944 93.9216842,218.236944 C145.795368,218.236944 187.843368,176.283556 187.843368,124.519083 C187.843368,115.296194 186.502737,106.382528 184.020211,97.9663056 L171.253895,129.369167"/>
    <polyline fill-opacity=".8" points="11.2 168.708 53.676 240.276 65.869 212.294 43.311 127.124 11.2 168.708"/>
    <polyline fill-opacity=".9" points="102.444 79.678 59.469 106.648 72.573 203.169 101.15 174.079 102.44 79.678"/>
    <polyline points="111.259 169.044 147.891 158.322 189.016 57.172 121.95 69.945 111.259 169.044"/>
  </g>
</svg>
