<svg xmlns="http://www.w3.org/2000/svg" width="60" height="60" viewBox="0 0 60 60">
  <g fill="#FFFFFF" transform="translate(15 18)">
    <path d="M29.7,8.71111111 L29.7,8.71111111 C31.11,15.0222222 25.68,21.5407407 17.61,23.2888889 C9.57,25.0074074 1.89,21.3037037 0.51,14.9925926 C-0.87,8.68148148 4.53,2.16296296 12.6,0.444444444 C20.64,-1.3037037 28.32,2.4 29.7,8.71111111 Z M16.41,3.73333333 C11.73,3.73333333 7.95,7.46666667 7.95,12.0888889 C7.95,16.7111111 11.73,20.4444444 16.41,20.4444444 C21.09,20.4444444 24.87,16.7111111 24.87,12.0888889 C24.87,7.46666667 21.09,3.73333333 16.41,3.73333333 L16.41,3.73333333 Z"/>
    <path d="M16.41,3.73333333 C11.73,3.73333333 7.95,7.46666667 7.95,12.0888889 C7.95,16.7111111 11.73,20.4444444 16.41,20.4444444 C21.09,20.4444444 24.87,16.7111111 24.87,12.0888889 C24.87,7.46666667 21.09,3.73333333 16.41,3.73333333 L16.41,3.73333333 Z M15.09,16.9185185 C12.24,16.9185185 9.96,14.637037 9.96,11.8518519 C9.96,9.06666667 12.27,6.78518519 15.09,6.78518519 C17.91,6.78518519 20.25,9.06666667 20.25,11.8518519 C20.25,14.637037 17.94,16.9185185 15.09,16.9185185 L15.09,16.9185185 Z" opacity=".6"/>
  </g>
</svg>
