<svg xmlns="http://www.w3.org/2000/svg" width="60" height="60" viewBox="0 0 60 60">
  <path fill="#FFFFFF" fill-rule="evenodd" d="M35.7351941,25.5050718 L35.9009528,25.4758596 C35.4071745,26.7397603 34.9867536,28.031166 34.6469773,29.3189675 C34.093347,29.3729342 33.5460322,29.4392306 33.0168868,29.5144425 C31.7800118,29.6913279 30.5369184,29.9346046 29.3208361,30.2369695 C29.7158977,29.0774929 30.1798473,27.9169729 30.7036488,26.7867085 C32.3608475,26.2436276 34.0534133,25.8118945 35.7351941,25.5050718 Z M23.8118357,27.1350731 C24.7550864,26.5160216 25.7263199,25.9269411 26.7040633,25.3812995 C26.0634728,26.3966121 25.4681599,27.4483452 24.9326018,28.5105112 C23.872562,29.0500828 22.8214612,29.6470354 21.8047558,30.289229 C22.4136714,29.2153971 23.08788,28.1557919 23.8118357,27.1350731 Z M33.0812082,22.4447174 C34.7204319,21.841505 36.3821001,21.3426218 38.0230728,20.9605873 C37.3299175,22.2121581 36.7082737,23.5026153 36.1728127,24.7992374 C35.9961718,24.8284496 35.8167132,24.859369 35.6363801,24.8920904 C34.1114192,25.1697958 32.575576,25.548321 31.0696588,26.0171384 C31.6685667,24.8010395 32.3445243,23.6007796 33.0812082,22.4447174 Z M18.1378538,33.7139768 C18.7658132,33.194702 19.4235042,32.6861446 20.0977128,32.1988325 C19.7035257,33.0214207 19.3429567,33.8553903 19.0239732,34.6815826 C18.1731236,35.2361396 17.3458845,35.8358428 16.5576075,36.4673189 C17.0351598,35.5377458 17.5661513,34.6134841 18.1378538,33.7139768 Z M25.4065591,28.9686111 C26.8481549,28.2460841 28.3531976,27.604839 29.8835997,27.066121 C29.3942907,28.1700186 28.9593927,29.2995244 28.5914394,30.4280816 C27.039273,30.8490973 25.5225708,31.372735 24.0782544,31.9874236 C24.4696239,30.9720161 24.9154041,29.957557 25.4065591,28.9686111 Z M21.177768,31.4434891 C22.2479126,30.7217209 23.3560477,30.0539192 24.4741905,29.4533625 C24.0284102,30.4041808 23.6243126,31.3753906 23.2718081,32.34385 C22.1282088,32.8657805 21.0055965,33.4600775 19.9318569,34.110238 C20.3034052,33.216042 20.72198,32.3208976 21.177768,31.4434891 Z M36.6294751,25.3528461 C38.578452,25.0442213 40.5212105,24.8867791 42.4041171,24.8867791 C42.4919517,24.8867791 42.5798835,24.8876327 42.6649976,24.8876327 C42.1421678,26.2480853 41.6701537,27.6949415 41.2234018,29.2251661 C39.350503,29.0801485 37.3289459,29.0916247 35.3183682,29.2569391 C35.6726216,27.9479872 36.1139324,26.6362847 36.6294751,25.3528461 Z M38.8512835,20.7764937 C41.4362843,20.2335077 43.5937713,20.0530182 45,20 C44.2317384,21.3019334 43.5285754,22.737503 42.9079032,24.2719957 C42.7456423,24.2694349 42.577163,24.2667792 42.4013965,24.2667792 C40.6071991,24.2667792 38.7597567,24.4074339 36.9067761,24.68163 C37.4731346,23.3539937 38.1263562,22.0414377 38.8512835,20.7764937 Z M33.0929648,30.1309331 C33.5533194,30.0645418 34.0207668,30.0062123 34.4847164,29.957557 L34.4847164,29.9579364 C34.1549478,31.3154488 33.9175805,32.6525696 33.7798045,33.9359134 C32.637274,33.9553566 31.5000874,34.0226015 30.3972963,34.1376481 C29.6697456,34.21286 28.9294667,34.3136799 28.1973494,34.4357451 C28.4202395,33.2876498 28.7201793,32.1121444 29.0916304,30.9367338 C30.4028345,30.5952929 31.750183,30.3237524 33.0929648,30.1309331 Z M15.8843705,37.8507239 C16.7642715,37.076791 17.6955713,36.348763 18.6552425,35.6828582 C18.3797877,36.4699745 18.1405743,37.2536764 17.942169,38.0151846 C16.9055454,38.6148878 15.9169198,39.281741 15,40 C15.2555366,39.2977697 15.5536303,38.5759066 15.8843705,37.8507239 Z M23.7791891,32.7993892 C25.2461443,32.1430638 26.7892746,31.5823418 28.3685492,31.1348644 C28.0197369,32.2863741 27.7378693,33.4361766 27.5305251,34.5524989 C25.9266684,34.8531567 24.3627454,35.2626962 22.8803415,35.7730556 C23.1222754,34.7974828 23.4240613,33.7971556 23.7791891,32.7993892 Z"/>
</svg>
