<svg xmlns="http://www.w3.org/2000/svg" width="360" height="360" viewBox="0 0 360 360">
  <g fill="#FFF" fill-rule="evenodd" transform="translate(35 35)">
    <g fill-rule="nonzero" transform="translate(47.875 47.904)">
      <path d="M32.0494164,97.5477764 C31.5769943,133.39523 62.2139132,163.302015 98.0583015,163.302015 C133.90269,163.302015 163.251472,133.398328 163.251472,97.5477764 C163.251472,61.6972252 133.911556,32.657299 98.0583015,32.657299 C50.5958789,32.657299 32.3943091,71.3775571 32.0494164,97.5477764 Z M98.0583015,39.6927141 C130.009554,39.6927141 155.079108,65.591033 155.079108,97.5477764 C155.079108,129.50452 130.009554,154.868578 98.0583015,154.868578 C66.1070488,154.868578 40.2217804,129.50452 40.2217804,97.5477764 C40.2217804,65.591033 66.1070488,39.6927141 98.0583015,39.6927141 Z"/>
      <path d="M15.9753664,97.5453015 C15.9753664,143.911637 54.8311706,178.53866 98.0549888,178.53866 C141.278807,178.53866 179.042626,142.898665 179.042626,97.5453015 C179.042626,52.1919383 140.953686,16.1601149 98.0549888,16.1601149 C55.1562913,16.1601149 15.9753664,49.20715 15.9753664,97.5453015 Z M98.0549888,23.5079783 C135.10677,23.5079783 171.253714,55.2831939 171.253714,97.5453015 C171.253714,140.089664 138.475473,170.767411 98.0549888,170.767411 C55.7956507,170.767411 24.4635453,138.396119 24.4635453,97.5453015 C24.4635453,55.1420705 57.634497,23.5079783 98.0549888,23.5079783 Z"/>
      <path d="M0.0782156892,97.5857297 C0.0782156892,153.519838 45.937783,194.733008 98.080914,194.733008 C150.224045,194.733008 195.500256,152.297843 195.500256,97.5857297 C195.500256,42.8736159 150.152215,-0.000311354539 98.080914,-0.000311354539 C46.0096133,-0.000311354539 0.0782156892,39.7788555 0.0782156892,97.5857297 Z M98.080914,8.0617035 C145.256968,8.0617035 187.263767,46.6027571 187.263767,97.5857297 C187.263767,148.909196 145.721276,186.954837 96.9599547,186.954837 C48.5024779,186.954837 7.70342264,146.866184 7.70342264,97.5857297 C7.70342264,46.43251 49.3195767,8.0617035 98.080914,8.0617035 Z"/>
    </g>
    <g transform="translate(98.424 98.2)">
      <polygon points="42.43 .126 52.755 .126 52.755 94.117 42.43 94.117"/>
      <path d="M20.8752224 7.51026268C25.0208882 4.22269405 31.2010313 2.61372556 31.2010313 2.61372556L31.2010313 91.365329C25.3443126 89.9718498 20.9459485 86.5899487 20.9459485 86.5899487L20.8752224 7.51026268zM74.4353797 7.31067644C70.2897138 4.0231078 64.1095707 2.41413931 64.1095707 2.41413931L64.1095707 91.1657428C69.9662894 89.7722636 74.3646536 86.3903625 74.3646536 86.3903625L74.4353797 7.31067644zM9.50189279 18.2621413L9.50189279 75.4435999C9.50189279 75.4435999 0 66.1628396 0 47.0025603 0 27.8422809 9.50189279 18.2621413 9.50189279 18.2621413zM85.0290739 17.8629688L85.0290739 75.0444274C85.0290739 75.0444274 94.5309667 65.7636671 94.5309667 46.6033878 94.5309667 27.4431084 85.0290739 17.8629688 85.0290739 17.8629688z"/>
    </g>
    <g transform="rotate(-2.947 281.834 1.473)">
      <polygon points="191.991 44.484 206.968 19.113 194.612 12.374 182.349 39.374"/>
      <polygon points="171.167 35.365 180.506 7.433 167.013 3.416 160.668 32.376"/>
      <polygon points="149.346 30.828 152.76 1.581 138.729 .404 138.457 30.045"/>
      <polygon points="126.514 30.9 123.71 1.588 109.742 3.37 115.702 32.411"/>
      <polygon points="104.258 35.725 95.375 7.646 82.089 12.301 94.001 39.458"/>
      <polygon points="83.533 45.068 68.972 19.457 56.953 26.776 74.283 50.854"/>
      <polygon points="65.556 58.216 46.051 36.119 35.787 45.737 57.688 65.768"/>
      <polygon points="50.335 75.196 26.623 57.667 18.607 69.218 44.228 84.226"/>
      <polygon points="39.219 94.528 12.408 82.223 6.936 95.168 35.097 104.615"/>
      <polygon points="32.228 116.12 3.433 109.668 .789 123.468 30.307 126.843"/>
      <polygon points="29.907 138.237 .398 137.801 .64 151.848 30.225 149.126"/>
      <polygon points="32.282 160.894 3.338 166.637 6.524 180.321 34.881 171.475"/>
      <polygon points="39.341 182.5 12.238 194.151 18.221 206.869 44.098 192.305"/>
      <polygon points="50.749 202.129 26.681 219.167 35.192 230.359 57.452 210.727"/>
      <polygon points="65.673 218.646 45.608 240.238 56.235 249.455 73.998 225.694"/>
      <polygon points="84.142 232.041 69.057 257.348 81.383 264.139 93.762 237.192"/>
      <polygon points="105.123 241.312 95.716 269.221 109.2 273.27 115.614 244.326"/>
      <polygon points="127.385 245.947 124.024 275.2 138.058 276.353 138.276 246.711"/>
      <polygon points="149.674 245.894 152.383 275.214 166.356 273.477 160.491 244.417"/>
      <polygon points="172 241.122 180.807 269.225 194.105 264.606 182.267 237.418"/>
      <polygon points="192.779 231.818 207.279 257.464 219.316 250.174 202.044 226.054"/>
      <polygon points="211.125 218.409 230.67 240.471 240.917 230.834 218.98 210.843"/>
      <polygon points="225.996 201.843 249.651 219.448 257.705 207.924 232.132 192.834"/>
      <polygon points="237.377 182.094 264.204 194.363 269.659 181.411 241.485 172.002"/>
      <polygon points="244.372 160.335 273.185 166.704 275.789 152.897 246.263 149.606"/>
      <polygon points="246.628 137.665 276.139 137.869 275.786 123.825 246.223 126.78"/>
      <polygon points="244.085 115.083 272.987 109.129 269.699 95.468 241.409 104.522"/>
      <polygon points="236.882 93.561 263.901 81.719 257.829 69.044 232.055 83.79"/>
      <polygon points="225.605 74.379 249.625 57.271 241.081 46.104 218.877 65.799"/>
      <polygon points="210.226 57.541 230.12 35.792 219.42 26.658 201.846 50.559"/>
    </g>
  </g>
</svg>
