<svg xmlns="http://www.w3.org/2000/svg" width="60" height="60" viewBox="0 0 60 60">
  <path fill="#FFFFFF" d="M21.4522883,12.2510974 L24.4334278,16.2628337 L24.305949,16.62423 L23.6260623,22 L24.6384578,17.067026 L28.3427762,22 L23.6260623,22 L22.4111653,17.8831332 L23.8385269,17.3921971 L22.266289,17.3921971 L17.592068,17.3470226 L11.3031161,14.3655031 L9.7733711,11.1581109 L7.73371105,6.59548255 L9.25177967,10.9887955 L4.20679887,9.35112936 L0,8.67351129 L5.05665722,8.71868583 L7.69121813,6.45995893 L13.9303131,8.28398675 L11.3031161,14.3655031 L14.490085,8.4476386 L22.9886686,0.496919918 L30,0 L21.8013664,9.7364416 L21.9263456,9.57700205 L22.9036827,0.813141684 L21.2984754,10.3336593 L21.2889518,10.3449692 L21.0764873,11.7453799 L17.6770538,17.2566735 L21.4522883,12.2510974 Z M4.33427762,9.26078029 L5.05665722,8.71868583 L4.63172805,8.76386037 L4.33427762,9.26078029 Z" transform="translate(15 19)"/>
</svg>
