<svg xmlns="http://www.w3.org/2000/svg" width="360" height="360" viewBox="0 0 360 360">
  <path fill="#FFF" d="M154,43.2 C150.9,43.3 148,44.5 145.8,46.7 L84,108.5 L70.8,95.3 C131.6,34.6 142.7,34 154,43.2 Z M86.5,110.7 L148.1,49.5 C151.5,46.2 156.9,46.2 160.3,49.5 C162,51.2 162.9,53.5 162.8,55.8 C162.7,58.2 161.7,60.4 159.9,62 L94.8,119.4 L86.5,110.7 Z M91.1,120 L75.8,123.9 C75.5,124.1 75.2,124.1 74.9,123.9 C74.7,123.6 74.7,123.2 74.9,122.9 L84.2,113.6 L91.1,120 Z M52.1,113.6 L68.4,97.3 L80.7,109.9 L52.8,115.9 C52.2,116 51.6,115.6 51.5,115 C51.4,114.6 51.5,114.3 51.8,114 L52.1,113.6 Z M1.6,198.3 C1.2,198.2 0.8,197.9 0.7,197.6 C0.6,197.2 0.6,196.8 0.7,196.5 L13.8,183.3 L30.8,200.2 L1.6,198.3 Z M35.2,180.8 C33.9,181.5 33.2,182.9 33.5,184.3 L36.3,196.3 C36.5,197.1 36.1,197.9 35.5,198.3 C34.9,198.8 34,198.8 33.5,198.3 L16.5,180.8 L68.7,128.5 L94,123.1 L106.1,135.2 C84.5,153.2 60.7,168.5 35.3,180.6 L35.3,180.8 L35.2,180.8 Z M108.6,133.2 L97,121.6 L162.1,64.3 C162.7,63.8 163.3,63.2 163.8,62.5 C161.7,81.1 135.5,107.5 108.6,133.2 Z M159.4,43.5 C149.7,33.4 150.1,17.4 160.2,7.7 C169.4,-1.1 183.6,-1.7 193.5,6.3 L171.1,28.6 C170.5,29.3 170.5,30.3 171.1,31 L188.5,48.3 C178.7,53.1 166.9,51.1 159.3,43.3 L159.4,43.5 Z M195.1,43.5 C193.9,44.6 192.7,45.7 191.3,46.6 L174.6,29.9 L195.9,8.6 C205.1,18.5 204.8,33.9 195.1,43.5 Z M193.8,21.7 C192.9,22.1 192.4,23.2 192.8,24.1 C192.8,24.2 192.9,24.2 192.9,24.3 C193.9,26.3 193.7,28.8 192.2,30.5 C191.5,31.2 191.4,32.4 192.1,33.1 C192.1,33.1 192.1,33.1 192.2,33.2 C192.6,33.3 193.1,33.3 193.5,33.2 C194,33.2 194.6,32.9 194.9,32.5 C197.4,29.6 197.9,25.5 196.1,22.1 C195.6,21.4 194.6,21.2 193.8,21.7 Z" transform="translate(79 80)"/>
</svg>
