<svg xmlns="http://www.w3.org/2000/svg" width="60" height="60" viewBox="0 0 60 60">
  <g fill="#FFFFFF" transform="translate(10 23)">
    <path d="M10.0953045,10.4193637 L13.46875,2.73672316 L13.453125,2.57062147 L12.71875,0.102824859 L12.65625,0 L9.83368951,6.78782077 L9.015625,1.24180791 L9.015625,1.24180791 L8.9375,1.38418079 L8.40625,4.2079096 L8.40625,4.36610169 L9.609375,12.4497175 L9.6875,12.5525424 L10.0953045,10.4193637 Z M40,2.9819209 L40,12.5841808 L38.6875,13.8813559 L38.6875,4.48474576 L40,2.9819209 Z M29.1875,2.19887006 L29.1875,2.24632768 L30.296875,10.8757062 L29.6484375,12.6949153 L29.5625,12.6316384 L28.421875,4.35819209 L28.4453125,4.24745763 L29.15625,2.24632768 L29.1875,2.19887006 L29.1875,2.19887006 Z" opacity=".6"/>
    <path d="M20.8425392,5.50004835 L28.3671875,4.3819209 L28.46875,4.27118644 L29.1875,2.19887006 L20.6484375,3.40112994 L20.4605263,3.97187035 L20.359375,3.56723164 L12.65625,0 L13.4453125,2.68135593 L13.4609375,2.73672316 L20.9765625,6.14576271 L21,6.1299435 L20.8425392,5.50004835 Z M31.3984375,2.98983051 L31.3984375,2.98983051 L40,2.9819209 L38.7109375,4.48474576 L38.6328125,4.5480226 L30.109375,4.57966102 L30.0390625,4.48474576 L31.3984375,2.98983051 Z M0,5.56836158 L0.5859375,2.61016949 L9.015625,1.24180791 L8.4453125,4.25536723 L8.4453125,4.45310734 L0.1015625,5.64745763 L0,5.56836158 Z" opacity=".4"/>
    <path d="M20.3591815,7.60121228 L21.234375,13.8892655 L29.6484375,12.6949153 L28.46875,4.27118644 L20.59375,5.36271186 L20.1260499,5.731 L13.4453125,2.68135593 L13.4453125,2.68135593 L10.03125,10.519774 L17.5859375,13.9683616 L20.3591815,7.60121228 Z M30.0390625,4.48474576 L38.7109375,4.48474576 L38.7109375,13.8892655 L30.0390625,13.8892655 L30.0390625,4.48474576 Z M8.4453125,4.25536723 L9.6875,12.5525424 L1.34375,13.8734463 L0,5.56836158 L8.4453125,4.25536723 Z"/>
  </g>
</svg>
