<svg xmlns="http://www.w3.org/2000/svg" width="60" height="60" viewBox="0 0 60 60">
  <path fill="#FFFFFF" d="M38.2009485,31.364391 C36.8212073,31.364391 35.5283528,30.8152051 34.3537239,29.9211997 L34.6397537,28.6591478 L34.6521898,28.612382 C34.9068806,27.2686459 35.7148939,25.0131334 38.2009485,25.0131334 C40.065365,25.0131334 41.581903,26.4388655 41.581903,28.1916461 C41.5756021,29.9386589 40.0592299,31.364391 38.2009485,31.364391 L38.2009485,31.364391 Z M38.2009485,21.7937786 C35.0249404,21.7937786 32.5639239,23.7336222 31.5634001,26.9238264 C30.034426,24.767769 28.8783683,22.1794402 28.2010167,20 L24.7827539,20 L24.7827539,28.361094 C24.7827539,30.0088076 23.3532684,31.3525437 21.6006108,31.3525437 C19.8479531,31.3525437 18.4186334,30.0088076 18.4186334,28.361094 L18.4186334,20 L15.000039,20 L15.000039,28.361094 C14.9876029,31.7851269 17.9521976,34.5954372 21.594144,34.5954372 C25.2362562,34.5954372 28.2008509,31.7851269 28.2008509,28.361094 L28.2008509,26.9589007 C28.8657664,28.2617947 29.6799149,29.5763802 30.6681684,30.7450565 L28.5736016,40 L32.0727818,40 L33.589154,33.2866195 C34.9191509,34.0870934 36.448125,34.5896694 38.2007826,34.5896694 C41.9483527,34.5896694 45,31.7032869 45,28.1799546 C45,24.6625461 41.9483527,21.7937786 38.2007826,21.7937786 L38.2009485,21.7937786 Z"/>
</svg>
