<svg xmlns="http://www.w3.org/2000/svg" width="60" height="60" viewBox="0 0 60 60">
  <path fill="#FFFFFF" d="M10,14.9999421 C10,12.2385526 12.2385526,10 14.9999421,10 L15,10 C17.7614211,10 20,12.2385737 20,15 C20,17.7614211 17.7614211,20 15,20 L14.9999421,20 C12.2385526,20 10,17.7614737 10,15.0000579 L10,14.9999421 Z M0,25 C0,22.2385737 2.23857368,20 5,20 L10,20 L10,25 C10,27.7614211 7.76142105,30 5,30 C2.23857368,30 0,27.7614211 0,25 Z M0,15 C0,12.2385737 2.23857368,10 5,10 L10,10 L10,20 L5,20 C2.23857368,20 0,17.7614211 0,15 Z M10,10 L10,0 L15,0 C17.7614211,0 20,2.23857895 20,5 C20,7.76142632 17.7614211,10 15,10 L10,10 Z M0,5 C0,2.23857368 2.23857368,0 5,0 L10,0 L10,10 L5,10 C2.23857368,10 0,7.76142105 0,5 Z" transform="translate(20 15)"/>
</svg>
