<svg xmlns="http://www.w3.org/2000/svg" width="60" height="60" viewBox="0 0 60 60">
  <path fill="#FFFFFF" d="M22.7722903,5.84110734 L22.772392,5.84110734 C22.7925449,5.9918829 26,27.9944784 26,27.9944784 L16.8630328,30 L-4.61852778e-14,26.7942636 C-4.61852778e-14,26.7942636 2.16408819,9.81352712 2.24581911,9.21486551 C2.35442047,8.42411996 2.38057843,8.3976826 3.2076587,8.13444499 C3.34211268,8.09158755 4.39474179,7.76039766 5.87648367,7.29454248 C6.44768407,4.83669423 8.2694795,5.32907052e-15 12.0827409,5.32907052e-15 C12.5808619,5.32907052e-15 13.1575585,0.271396016 13.6231092,0.896081901 C13.6696236,0.893396856 13.7161379,0.89153798 13.7613291,0.89153798 C15.3982885,0.89153798 16.3287792,2.30614324 16.8560098,3.8454998 C17.3944364,3.67644528 17.7199352,3.57451686 17.7392737,3.56873369 C17.8706743,3.52949074 18.2092011,3.47599639 18.3825358,3.65186679 C18.5557687,3.82784047 20.1341017,5.41769651 20.1341017,5.41769651 C20.1341017,5.41769651 22.4066894,5.5886099 22.5140694,5.59769775 C22.6216529,5.60688886 22.7518321,5.69033178 22.7722903,5.84110734 Z M15.9239924,4.13796308 C15.5624628,3.01737017 15.0007281,2.04362853 14.157261,1.93622676 C14.3672372,2.54686779 14.4981288,3.31716569 14.4981288,4.27386763 C14.4981288,4.38364464 14.4976199,4.48402399 14.497111,4.58605567 L15.9239924,4.13796308 Z M13.1109423,2.12593546 L13.1109423,2.12593546 C12.1810623,2.53075753 11.1174407,3.60394908 10.5500063,5.82592651 C11.5605994,5.50826512 12.5689534,5.19163643 13.4968996,4.89999931 C13.4974085,4.84536899 13.4979174,4.79135829 13.4979174,4.73228731 C13.4979174,3.57771826 13.345448,2.72211857 13.1109423,2.12593546 Z M11.9780073,1.03776962 L11.9779055,1.03776962 C9.23895274,1.03776962 7.70041652,4.68653829 7.05247252,6.9249358 L9.38185462,6.19295141 C9.93503962,3.25830126 11.2449735,1.78875586 12.4670696,1.20527508 C12.3083915,1.09446537 12.1425887,1.03776962 11.9780073,1.03776962 Z M13.7613291,10.7201427 C13.7613291,10.7201427 12.9997964,10.2721533 11.4583085,10.2721533 C7.45766653,10.2721533 5.47576806,12.9833252 5.47576806,15.7849624 C5.47576806,19.1136944 8.74907613,19.2040565 8.74907613,21.2298191 C8.74907613,21.7195299 8.4078012,22.3897583 7.56881244,22.3897583 C6.28483292,22.3897583 4.76319251,21.0642758 4.76319251,21.0642758 L3.98812283,23.6625725 C3.98812283,23.6625725 5.46843976,25.4904681 8.36311891,25.4904681 C10.7753515,25.4904681 12.5643732,23.6475983 12.5643732,20.7856508 C12.5643732,17.1480354 8.57452006,16.5529883 8.57452006,15 C8.57452006,14.7153853 8.66378284,13.5859111 10.437639,13.5859111 C11.647623,13.5859111 12.6347045,14.1204414 12.6347045,14.1204414 L13.7613291,10.7201427 Z" transform="translate(17 15)"/>
</svg>
