<svg xmlns="http://www.w3.org/2000/svg" width="60" height="60" viewBox="0 0 60 60">
  <g fill="#FEFEFE" transform="translate(20 16)">
    <path d="M10.5185882,28.9530435 C4.74941176,28.9530435 0.0724705882,24.1595652 0.0724705882,18.2482609 C0.0724705882,12.3343478 4.74941176,7.54217391 10.5185882,7.54217391 C16.2877647,7.54217391 20.966,12.3343478 20.966,18.2482609 C20.966,24.1595652 16.2877647,28.9530435 10.5185882,28.9530435 Z M3.75294118,18.2482609 C3.75294118,22.07 6.78764706,25.1808696 10.5185882,25.1808696 C14.2482353,25.1808696 17.2842353,22.07 17.2842353,18.2482609 C17.2842353,14.4252174 14.2482353,11.3156522 10.5185882,11.3156522 C6.78764706,11.3156522 3.75294118,14.4252174 3.75294118,18.2482609 Z M10.7230588,3.71 C7.9179264,3.70203128 5.19711812,4.67622682 3.02564706,6.46608696 C2.73261924,6.70701359 2.36592304,6.83835346 1.98776471,6.83782609 C1.49988235,6.83782609 1.01458824,6.6173913 0.683294118,6.1973913 C0.110562288,5.45747867 0.228327427,4.3921089 0.948588235,3.7973913 C3.71418353,1.53908494 7.16374281,0.303574848 10.7230588,0.296521739 C14.1278824,0.296521739 17.3722353,1.39869565 20.0950588,3.48173913 C20.8327059,4.04652174 20.9841176,5.11478261 20.4328235,5.87130435 C20.1727451,6.23337079 19.7787204,6.47434795 19.3399885,6.53965902 C18.9012565,6.60497009 18.4549387,6.48908909 18.1021176,6.21826087 C15.9834954,4.58615191 13.3896463,3.70446085 10.7230588,3.71 Z"/>
    <path d="M6.67247059,18.2482609 C6.67247059,16.07 8.39364706,14.303913 10.5185882,14.303913 C10.5354118,14.303913 10.5509412,14.3104348 10.5690588,14.3104348 C10.359695,14.6267333 10.2480138,14.9984671 10.2481176,15.3786957 C10.2481176,16.43 11.0789412,17.2830435 12.1051765,17.2830435 C12.8492941,17.2830435 13.486,16.8304348 13.7823529,16.1834783 C14.1472941,16.7847826 14.3672941,17.4878261 14.3672941,18.2482609 C14.3672941,20.4252174 12.6461176,22.193913 10.5185882,22.193913 C8.39364706,22.193913 6.67247059,20.4252174 6.67247059,18.2482609 Z"/>
  </g>
</svg>
