<svg xmlns="http://www.w3.org/2000/svg" width="60" height="60" viewBox="0 0 60 60">
  <path fill="#FFFFFF" d="M18.7498828,15.0065625 C18.7503972,16.0882802 18.5552644,17.161173 18.1739063,18.1734375 C17.1612718,18.5547415 16.0881387,18.7501778 15.0060938,18.7503516 L14.9934375,18.7503516 C13.8792188,18.7489453 12.8116406,18.5452734 11.8265625,18.1739062 C11.4449662,17.1615266 11.2496344,16.088472 11.25,15.0065625 L11.25,14.9934375 C11.2494784,13.9119243 11.4444076,12.8392185 11.8253906,11.8270313 C12.8379536,11.4450154 13.9113257,11.2495175 14.9935547,11.25 L15.0062109,11.25 C16.0883186,11.2494786 17.1615754,11.4449374 18.1740234,11.8269141 C18.5554258,12.8390035 18.750561,13.9117509 18.75,14.9933203 L18.75,15.0064453 L18.7498828,15.0065625 Z M29.7916406,12.5000391 L21.0358594,12.5000391 L27.2267578,6.30867188 C26.7408367,5.62607423 26.1987996,4.98521767 25.6062891,4.39277344 L25.6062891,4.39230469 C25.0137607,3.80049381 24.3730798,3.25894304 23.6908594,2.77324219 L17.4994922,8.96460938 L17.4994922,0.208828125 C16.6760476,0.0703040931 15.8425148,0.000454324095 15.0075,0 L14.9920313,0 C14.1426562,0.00046875 13.3107422,0.07265625 12.5000391,0.208828125 L12.5000391,8.96460937 L6.30867188,2.77324219 C5.62633959,3.25881211 4.98593132,3.80075031 4.39417969,4.39335937 L4.39089844,4.39570312 C3.79939957,4.98740855 3.25812106,5.62726881 2.77265625,6.30867187 L8.96449219,12.5000391 L0.208828125,12.5000391 C0.208828125,12.5000391 0,14.1445312 0,14.9948438 L0,15.0051563 C0,15.8554688 0.0720703125,16.6887891 0.208828125,17.4999609 L8.96460938,17.4999609 L2.77277344,23.6913281 C3.74679559,25.0582037 4.94179629,26.2532044 6.30867187,27.2272266 L12.5000391,21.0353906 L12.5000391,29.7916406 C13.3225785,29.9294763 14.1550938,29.9991661 14.9891016,30 L15.0103125,30 C15.8443237,29.9992462 16.6768456,29.9295559 17.499375,29.7916406 L17.499375,21.0353906 L23.6913281,27.2272266 C24.3734066,26.7413581 25.0139308,26.1996504 25.6062891,25.6076953 L25.6076953,25.6062891 C26.1993885,25.0138204 26.7409317,24.3733053 27.2267578,23.6913281 L21.0349219,17.4999609 L29.7916406,17.4999609 C29.9279297,16.6901953 29.9990625,15.8593359 30,15.0108984 L30,14.9891016 C29.9990625,14.1406641 29.9279297,13.3098047 29.7916406,12.5000391 L29.7916406,12.5000391 Z" transform="translate(15 15)"/>
</svg>
