<svg xmlns="http://www.w3.org/2000/svg" width="10" height="10" viewBox="0 0 10 10">
  <path fill="#FFFFFF" fill-rule="evenodd" d="M257.539596,14.583856 L256.346511,13.4321088 C255.987911,13.085933 255.79047,12.6257229 255.79047,12.1361896 C255.79047,11.6474709 255.987911,11.1864462 256.346511,10.8402704 L258.73268,8.53596155 C259.09128,8.18978578 259.568007,8 260.07511,8 C260.582213,8 261.058941,8.18978578 261.417541,8.53596155 L262.611469,9.68852325 C262.970069,10.034699 263.166667,10.4940946 263.166667,10.9844425 C263.166667,11.4739757 262.760816,12.1353751 262.402215,12.4815509 L262.162586,12.7128777 C261.985395,12.4261627 261.766016,12.1557384 261.507824,11.9056773 L261.357634,11.7615053 L262.16343,10.9844425 L260.07511,8.96847764 L256.793707,12.1361896 L258.583333,13.8638104 L257.694005,14.7231408 C257.64591,14.6824143 257.589378,14.6319133 257.539596,14.583856 M257.0924,18 C256.585297,18 256.10857,17.8102142 255.749969,17.4640384 L254.556041,16.3114767 C254.198285,15.965301 254,15.5059054 254,15.0155575 C254,14.5268388 254.198285,14.0658141 254.556041,13.7196383 L255.0218,13.2716462 C255.183803,13.567321 255.397275,13.8442616 255.658843,14.0959518 L255.807345,14.2401238 L255.004081,15.0155575 L257.0924,17.0323369 L260.37296,13.8638104 L258.584177,12.1361896 L259.470131,11.2801173 C259.524975,11.3224729 259.577289,11.3680867 259.627915,11.416144 L260.820999,12.5678912 C261.560981,13.2822351 261.560981,14.4453857 260.820999,15.1597296 L258.434831,17.4640384 C258.07623,17.8102142 257.598659,18 257.0924,18" transform="translate(-254 -8)"/>
</svg>
