<svg xmlns="http://www.w3.org/2000/svg" width="22" height="22" viewBox="0 0 22 22">
  <path fill="#FFFFFF" fill-rule="evenodd" d="M11.7692308,11.7692308 L11.7692308,14.0804634 C11.7692308,14.5033426 11.4277963,14.8461538 11,14.8461538 C10.5751656,14.8461538 10.2307692,14.4956428 10.2307692,14.0804634 L10.2307692,11.7692308 L7.91953659,11.7692308 C7.49665744,11.7692308 7.15384615,11.4277963 7.15384615,11 C7.15384615,10.5751656 7.50435723,10.2307692 7.91953659,10.2307692 L10.2307692,10.2307692 L10.2307692,7.91953659 C10.2307692,7.49665744 10.5722037,7.15384615 11,7.15384615 C11.4248344,7.15384615 11.7692308,7.50435723 11.7692308,7.91953659 L11.7692308,10.2307692 L14.0804634,10.2307692 C14.5033426,10.2307692 14.8461538,10.5722037 14.8461538,11 C14.8461538,11.4248344 14.4956428,11.7692308 14.0804634,11.7692308 L11.7692308,11.7692308 Z M11,21 C5.4771525,21 1,16.5228475 1,11 C1,5.4771525 5.4771525,1 11,1 C16.5228475,1 21,5.4771525 21,11 C21,16.5228475 16.5228475,21 11,21 Z M11,20 C15.9705627,20 20,15.9705627 20,11 C20,6.02943725 15.9705627,2 11,2 C6.02943725,2 2,6.02943725 2,11 C2,15.9705627 6.02943725,20 11,20 Z"/>
</svg>
