<svg xmlns="http://www.w3.org/2000/svg" width="15" height="10" viewBox="0 0 15 10">
  <path fill="#FFFFFF" fill-rule="evenodd" d="M1,8 L9,8 C9.55228475,8 10,8.44771525 10,9 C10,9.55228475 9.55228475,10 9,10 L1,10 C0.44771525,10 6.76353751e-17,9.55228475 0,9 C-6.76353751e-17,8.44771525 0.44771525,8 1,8 L1,8 Z M1,4 L12,4 L12,6 L1,6 C0.44771525,6 6.76353751e-17,5.55228475 0,5 C-6.76353751e-17,4.44771525 0.44771525,4 1,4 L1,4 Z M12,2 L14.6338262,4.2379455 C14.6750414,4.27296577 14.7133476,4.31127195 14.7483678,4.35248711 C15.1059793,4.77335819 15.0546973,5.404443 14.6338262,5.7620545 L14.6338262,5.7620545 L12,8 L12,2 Z M1,0 L9,0 C9.55228475,-1.01453063e-16 10,0.44771525 10,1 L10,1 C10,1.55228475 9.55228475,2 9,2 L1,2 C0.44771525,2 6.76353751e-17,1.55228475 0,1 L0,1 L0,1 C-6.76353751e-17,0.44771525 0.44771525,1.01453063e-16 1,0 L1,0 Z"/>
</svg>
