<svg xmlns="http://www.w3.org/2000/svg" width="24" height="24" viewBox="0 0 24 24">
  <path fill="#000000" d="M12,10.5 C12.8284271,10.5 13.5,9.82842712 13.5,9 C13.5,8.17157288 12.8284271,7.5 12,7.5 C11.1715729,7.5 10.5,8.17157288 10.5,9 C10.5,9.82842712 11.1715729,10.5 12,10.5 Z M12,12 C10.3431458,12 9,10.6568542 9,9 C9,7.34314575 10.3431458,6 12,6 C13.6568542,6 15,7.34314575 15,9 C15,10.6568542 13.6568542,12 12,12 Z M9.5,13 L14.5,13 C15.8807119,13 17,14.1192881 17,15.5 L17,17 C17,17.5522847 16.5522847,18 16,18 L8,18 C7.44771525,18 7,17.5522847 7,17 L7,15.5 C7,14.1192881 8.11928813,13 9.5,13 Z M15.5,16.5 L15.5,15.5 C15.5,14.9477153 15.0522847,14.5 14.5,14.5 L9.5,14.5 C8.94771525,14.5 8.5,14.9477153 8.5,15.5 L8.5,16.5 L15.5,16.5 Z"/>
</svg>
