<svg xmlns="http://www.w3.org/2000/svg" width="20" height="20" viewBox="0 0 20 20">
  <path fill="#FFFFFF" d="M9,2 L9,4 C5.14187327,4 2,7.13400675 2,11 C2,14.8581267 5.13400675,18 9,18 C12.8581267,18 16,14.8659932 16,11 L18,11 C18,15.9705627 13.9716556,20 9,20 C4.02943725,20 0,15.9716556 0,11 C0,6.02943725 4.02834436,2 9,2 Z M9,2 L10,2 C10.5522847,2 11,2.44386482 11,3 C11,3.55228475 10.5561352,4 10,4 L9,4 L9,2 Z M16,10 C16,9.44771525 16.4438648,9 17,9 C17.5522847,9 18,9.44386482 18,10 L18,11 L16,11 L16,10 Z"/>
  <path fill="#FFFFFF" d="M17,4.72792206 L10.1261608,11.6017612 C9.73237538,11.9955467 9.09763107,11.997126 8.70710678,11.6066017 C8.31385983,11.2133548 8.31874965,10.5807453 8.71194726,10.1875477 L15.8994949,3 L13.990778,3 C13.4435864,3 13,2.55613518 13,2 C13,1.44771525 13.4509752,1 13.990778,1 L18.009222,1 C18.2813055,1 18.5277733,1.10974288 18.7068284,1.28846285 C18.8893106,1.47593315 19,1.72237506 19,1.99077797 L19,6.00922203 C19,6.55641359 18.5561352,7 18,7 C17.4477153,7 17,6.54902482 17,6.00922203 L17,4.72792206 Z"/>
</svg>
