<svg xmlns="http://www.w3.org/2000/svg" width="20" height="20" viewBox="0 0 20 20">
  <g fill="#FFFFFF" fill-rule="evenodd">
    <path d="M0,10 C0,4.4771525 4.47593818,0 10,0 C15.5228475,0 20,4.47593818 20,10 C20,15.5228475 15.5240618,20 10,20 C4.4771525,20 0,15.5240618 0,10 Z M2,10 C2,14.4092877 5.581722,18 10,18 C14.4092877,18 18,14.418278 18,10 C18,5.59071231 14.418278,2 10,2 C5.59071231,2 2,5.581722 2,10 Z" style="mix-blend-mode:overlay"/>
    <path d="M9.13737928,13.6492853 C9.46262072,13.6634506 9.79236895,13.5457587 10.0275823,13.300631 L15.3180843,7.78713255 C15.7344066,7.35326212 15.7252626,6.65575122 15.2981743,6.22866294 L15.4305842,6.36107283 C14.9996141,5.93010276 14.3124472,5.93258641 13.8870836,6.35794998 L8.82884535,11.4161882 L6.68841173,9.27575461 C6.31034828,8.89769116 5.69125503,8.8969243 5.30988291,9.27829642 L5.27673998,9.31143935 C4.88612298,9.70205635 4.9141544,10.28766 5.31870089,10.6400706 L8.27460904,13.2150369 C8.31712018,13.2678798 8.36570306,13.3177915 8.42030232,13.363948 L8.44008288,13.3806698 C8.48795438,13.4211388 8.53856611,13.4570134 8.59129799,13.4883211 C8.7701186,13.6256452 8.96181582,13.67669 9.13737928,13.6492853 Z"/>
  </g>
</svg>
