<svg xmlns="http://www.w3.org/2000/svg" width="24" height="24" viewBox="0 0 24 24">
  <path fill="#000000" d="M14.736607,13.3223934 L17.7781746,16.363961 C18.1686989,16.7544853 18.1686989,17.3876503 17.7781746,17.7781746 C17.3876503,18.1686989 16.7544853,18.1686989 16.363961,17.7781746 L13.1168732,14.5310867 C12.4740342,14.8319303 11.7566445,15 11,15 C8.23857625,15 6,12.7614237 6,10 C6,7.23857625 8.23857625,5 11,5 C13.7614237,5 16,7.23857625 16,10 C16,11.2753186 15.5225332,12.4391188 14.736607,13.3223934 Z M11,13 C12.6568542,13 14,11.6568542 14,10 C14,8.34314575 12.6568542,7 11,7 C9.34314575,7 8,8.34314575 8,10 C8,11.6568542 9.34314575,13 11,13 Z"/>
</svg>
