<svg xmlns="http://www.w3.org/2000/svg" width="24" height="24" viewBox="0 0 24 24">
  <path fill="#000000" fill-rule="evenodd" d="M7,10 L11,10 C11.5522847,10 12,10.4477153 12,11 C12,11.5522847 11.5522847,12 11,12 L7,12 C6.44771525,12 6,11.5522847 6,11 C6,10.4477153 6.44771525,10 7,10 L7,10 Z M7,6 L15,6 C15.5522847,6 16,6.44771525 16,7 L16,7 C16,7.55228475 15.5522847,8 15,8 L7,8 C6.44771525,8 6,7.55228475 6,7 L6,7 L6,7 C6,6.44771525 6.44771525,6 7,6 L7,6 Z M17.0716556,9.00053126 L17.0716556,9.00053126 C17.442894,8.98778595 17.7836166,9.20534518 17.9286882,9.54776637 C18.0737598,9.89018755 17.993203,10.2867132 17.7260606,10.5451626 L10.5463025,17.7346658 C10.2102094,18.0734282 9.66824245,18.0898738 9.3122816,17.7721112 L6.32071573,15.076043 C6.06978816,14.8652491 5.95345027,14.5343216 6.01717515,14.2126105 C6.08090002,13.8908993 6.31456858,13.62949 6.62684662,13.5305599 C6.93912466,13.4316297 7.28042452,13.5108881 7.51734208,13.7373553 L9.8732002,15.8623962 L16.4546451,9.27201035 C16.6172914,9.10469724 16.8385775,9.00733333 17.0716556,9.00053126 Z"/>
</svg>
