<svg xmlns="http://www.w3.org/2000/svg" width="20" height="20" viewBox="0 0 20 20">
  <g fill="#FFFFFF" fill-rule="evenodd">
    <path d="M0,10 C0,4.4771525 4.47593818,0 10,0 C15.5228475,0 20,4.47593818 20,10 C20,15.5228475 15.5240618,20 10,20 C4.4771525,20 0,15.5240618 0,10 Z M2,10 C2,14.4092877 5.581722,18 10,18 C14.4092877,18 18,14.418278 18,10 C18,5.59071231 14.418278,2 10,2 C5.59071231,2 2,5.581722 2,10 Z" style="mix-blend-mode:overlay"/>
    <path d="M8.86117703,11.583856 L7.55963063,10.4321088 C7.16843034,10.085933 6.95304006,9.6257229 6.95304006,9.13618962 C6.95304006,8.64747088 7.16843034,8.1864462 7.55963063,7.84027042 L10.1627234,5.53596155 C10.5539237,5.18978578 11.07399,5 11.6271932,5 C12.1803965,5 12.7004627,5.18978578 13.091663,5.53596155 L14.3941299,6.68852325 C14.7853302,7.03469903 14.9998,7.49409465 14.9998,7.98444245 C14.9998,8.47397573 14.5570533,9.13537509 14.165853,9.48155087 L13.9044392,9.71287774 C13.7111402,9.42616274 13.4718177,9.15573837 13.1901535,8.90567728 L13.0263096,8.76150525 L13.9053596,7.98444245 L11.6271932,5.96847764 L8.04748041,9.13618962 L9.9998,10.8638104 L9.02962327,11.7231408 C8.97715641,11.6824143 8.91548483,11.6319133 8.86117703,11.583856 M8.37332725,15 C7.82012401,15 7.30005773,14.8102142 6.90885744,14.4640384 L5.60639057,13.3114767 C5.21611075,12.965301 4.9998,12.5059054 4.9998,12.0155575 C4.9998,11.5268388 5.21611075,11.0658141 5.60639057,10.7196383 L6.11449072,10.2716462 C6.29122121,10.567321 6.52410044,10.8442616 6.80944654,11.0959518 L6.97144948,11.2401238 L6.09516082,12.0155575 L8.37332725,14.0323369 L11.9521196,10.8638104 L10.0007205,9.13618962 L10.9672153,8.28011729 C11.0270459,8.32247292 11.0841152,8.36808667 11.1393434,8.41614401 L12.4408898,9.56789118 C13.2481432,10.2822351 13.2481432,11.4453857 12.4408898,12.1597296 L9.83779705,14.4640384 C9.44659676,14.8102142 8.92561001,15 8.37332725,15"/>
  </g>
</svg>
