<svg xmlns="http://www.w3.org/2000/svg" width="24" height="24" viewBox="0 0 24 24">
  <path fill="#000000" d="M9.16728799,12.4991356 C9.16728799,14.9840503 11.1814122,16.9985411 13.666188,16.9991355 C12.7128631,15.7285325 12.167288,14.1610609 12.167288,12.4991356 C12.167288,10.8372103 12.7128631,9.26973872 13.666188,7.99913573 C11.1814122,7.99973009 9.16728799,10.0142209 9.16728799,12.4991356 Z M13.667288,12.4991356 C13.667288,14.7199827 14.8738839,16.6590142 16.667288,17.6964424 C15.7847679,18.2069527 14.7601494,18.4991356 13.667288,18.4991356 C10.3535795,18.4991356 7.66728799,15.8128441 7.66728799,12.4991356 C7.66728799,9.1854271 10.3535795,6.4991356 13.667288,6.4991356 C14.3958623,6.4991356 15.3958623,6.76669999 16.667288,7.30182877 C14.667288,9.28613528 13.667288,11.0185709 13.667288,12.4991356 Z" transform="rotate(-36 12.167 12.5)"/>
</svg>
