<svg xmlns="http://www.w3.org/2000/svg" width="16" height="16" viewBox="0 0 16 16">
  <path fill="#FFFFFF" fill-rule="evenodd" d="M424.637559,327 L426.993642,327 C427.166637,327 419.296005,319.094898 419.296005,319.094898 C419.174407,318.969067 418.973832,318.969067 418.85098,319.092304 C418.85098,319.092304 410.827003,327 410.999999,327 L413.355235,327 L413.355235,333.702971 L413.355235,334.675891 C413.355235,334.854909 413.495637,335.000198 413.668633,335.000198 L416.802612,335.000198 C416.975607,335.000198 417.11601,334.854909 417.11601,334.675891 L417.11601,330.135597 L417.11601,329.81129 L420.876785,329.81129 L420.876785,330.135597 L420.876785,334.675891 C420.876785,334.854909 421.017187,335.000198 421.190182,335.000198 L424.324161,335.000198 C424.497157,335.000198 424.637559,334.854909 424.637559,334.675891 L424.637559,333.702971 L424.637559,327 Z" transform="translate(-411 -319)"/>
</svg>
