<svg xmlns="http://www.w3.org/2000/svg" width="16" height="16" viewBox="0 0 16 16">
  <path fill="#FFFFFF" fill-rule="evenodd" d="M2,0 L14,0 C15.1045695,-2.02906125e-16 16,0.8954305 16,2 L16,14 C16,15.1045695 15.1045695,16 14,16 L2,16 C0.8954305,16 1.3527075e-16,15.1045695 0,14 L0,2 L0,2 C-1.3527075e-16,0.8954305 0.8954305,2.02906125e-16 2,0 L2,0 Z M8,10 L10.9389263,12.045085 L9.90211306,8.618034 L12.7552826,6.45491503 L9.17557052,6.38196599 L8,3 L6.82442948,6.38196599 L3.24471742,6.45491503 L6.09788694,8.618034 L5.06107374,12.045085 L8,10 Z"/>
</svg>
