<svg xmlns="http://www.w3.org/2000/svg" width="20" height="20" viewBox="0 0 20 20">
  <g fill="#FFFFFF" fill-rule="evenodd">
    <path d="M0,10 C0,4.4771525 4.47593818,0 10,0 C15.5228475,0 20,4.47593818 20,10 C20,15.5228475 15.5240618,20 10,20 C4.4771525,20 0,15.5240618 0,10 Z M2,10 C2,14.4092877 5.581722,18 10,18 C14.4092877,18 18,14.418278 18,10 C18,5.59071231 14.418278,2 10,2 C5.59071231,2 2,5.581722 2,10 Z"/>
    <rect width="10" height="2" x="5" y="9" transform="rotate(45 10 10)" rx="1"/>
    <rect width="10" height="2" x="5" y="9" transform="scale(-1 1) rotate(45 0 -14.142)" rx="1"/>
  </g>
</svg>
