<svg xmlns="http://www.w3.org/2000/svg" width="8" height="8" viewBox="0 0 8 8">
  <path fill="#FFFFFF" fill-rule="evenodd" d="M277.476831,13 L279.695475,10.7813557 C280.094022,10.3828085 280.099892,9.7157392 279.692076,9.30792371 C279.281418,8.89726501 278.624583,8.89858667 278.218644,9.30452521 L276,11.5231695 L273.781356,9.30452521 C273.382809,8.905978 272.715739,8.90010823 272.307924,9.30792371 C271.897265,9.71858241 271.898587,10.3754172 272.304525,10.7813557 L274.523169,13 L272.304525,15.2186443 C271.905978,15.6171915 271.900108,16.2842608 272.307924,16.6920763 C272.718582,17.102735 273.375417,17.1014133 273.781356,16.6954748 L276,14.4768305 L278.218644,16.6954748 C278.617191,17.094022 279.284261,17.0998918 279.692076,16.6920763 C280.102735,16.2814176 280.101413,15.6245828 279.695475,15.2186443 L277.476831,13 Z" transform="translate(-272 -9)"/>
</svg>
