<svg xmlns="http://www.w3.org/2000/svg" width="24" height="24" viewBox="0 0 24 24">
  <path fill="#020303" fill-rule="evenodd" d="M15.9607379,12.3980713 C16.0398982,12.3980713 16.1185638,12.4197691 16.1903029,12.4614957 L17.0932254,12.9933701 L16.9205569,12.2845751 C16.8681132,12.0664843 16.9373785,11.8344847 17.0961939,11.6970652 C17.6854437,11.1868886 18.0104958,10.5481942 18.0104958,9.89892902 C18.0104958,8.38842784 16.2803477,7.11270805 14.2335583,7.11270805 C12.1867689,7.11270805 10.4576103,8.38842784 10.4576103,9.89892902 C10.4576103,11.4088738 12.1867689,12.6845936 14.2335583,12.6845936 C14.7817436,12.6845936 15.3136021,12.5961333 15.8152808,12.4225509 C15.862777,12.4064166 15.9117574,12.3980713 15.9607379,12.3980713 L15.9607379,12.3980713 Z M17.3312012,13.9736659 L17.3316959,13.9742223 L17.3312012,13.9736659 Z M17.7492667,14.5428161 C17.6458635,14.5428161 17.5385023,14.512773 17.4346044,14.4510177 L15.9073047,13.5508368 C15.3709934,13.7144049 14.808955,13.7973017 14.2335583,13.7973017 C11.60593,13.7973017 9.46810616,12.048681 9.46810616,9.89892902 C9.46810616,7.74917706 11.60593,6 14.2335583,6 C16.8616815,6 19,7.74917706 19,9.89892902 C19,10.7929899 18.6323992,11.646437 17.9590416,12.3352033 L18.2860727,13.6821364 L18.2860727,13.6832491 C18.355338,13.967546 18.285578,14.2379341 18.1010354,14.4042839 C17.9986218,14.4966387 17.8769127,14.5428161 17.7492667,14.5428161 L17.7492667,14.5428161 Z M7.58112167,11.0133061 C6.60448104,11.5429552 5.98950419,12.397515 5.98950419,13.2988085 C5.98950419,13.9608698 6.31950383,14.6106913 6.91815387,15.1281005 C7.07696929,15.2660763 7.14672934,15.4980759 7.09379086,15.7156104 L6.91518536,16.4522231 L7.84531929,15.9047707 C7.96158603,15.8363392 8.0961586,15.8224303 8.22083613,15.8652696 C9.3355126,16.252492 10.6510584,16.2024201 11.6786585,15.7734712 C9.29197441,15.2477166 7.57716366,13.4228754 7.57716366,11.1913394 C7.57716366,11.1323659 7.57864791,11.072836 7.58112167,11.0133061 L7.58112167,11.0133061 Z M6.26112309,18 C6.13347705,18 6.01127328,17.9538226 5.9088596,17.8614678 C5.72382231,17.6945616 5.65406227,17.4236172 5.72382231,17.1382076 L6.05580097,15.7673513 C5.37254833,15.0702397 5,14.2056655 5,13.2988085 C5,11.6442116 6.21610065,10.1976911 8.09813761,9.6135194 C8.27525886,9.55844035 8.46375941,9.61797024 8.58942644,9.76707311 C8.71509347,9.91673235 8.7571474,10.1320414 8.69876665,10.3273216 C8.61119553,10.6205202 8.56666784,10.9114933 8.56666784,11.1913394 C8.56666784,13.222588 10.560024,14.8143168 13.1055236,14.8143168 L13.2400961,14.809866 L13.2499912,14.809866 C13.4523448,14.809866 13.6349083,14.9489545 13.7096159,15.1614818 C13.7858077,15.3773471 13.7343535,15.623812 13.5809803,15.7790347 C12.6627204,16.7103714 11.2937414,17.2444712 9.82581192,17.2444712 C9.24200445,17.2444712 8.67254479,17.1604618 8.12831749,16.9941119 L6.57578542,17.9082016 C6.47188748,17.9699569 6.36452627,18 6.26112309,18 L6.26112309,18 Z"/>
</svg>
