<svg xmlns="http://www.w3.org/2000/svg" width="50" height="50" viewBox="0 0 50 50">
  <g fill="none" fill-rule="evenodd">
    <rect class="l-dock__app__bkg" width="50" height="50" fill="#2AC39D" rx="4"/>
    <rect class="l-dock__app__bdr" width="50" height="50" fill="none" rx="4"/>
    <path class="l-dock__app__glyph" d="M37.8263406,21.1498594 C40.7139461,30.775211 38.4754922,34.9387351 28.8501406,37.8263406 C19.224789,40.7139461 15.0612649,38.4754922 12.1736594,28.8501406 C9.28605392,19.224789 11.5245078,15.0612649 21.1498594,12.1736594 C30.775211,9.28605392 34.9387351,11.5245078 37.8263406,21.1498594 Z M32.9688957,27.3951456 C33.72997,27.1489157 34.1328917,26.3206878 33.8866618,25.5596135 C33.6404319,24.7985392 32.812204,24.3956175 32.0511297,24.6418474 L30.237982,25.2462299 L29.0292169,21.6423192 L30.8423646,21.0379367 C31.6034389,20.7917067 32.0063606,19.9634788 31.7601307,19.2024045 C31.5139007,18.4413302 30.6856728,18.0384085 29.9245985,18.2846384 L28.1114509,18.889021 L27.4846838,17.0087197 C27.2384539,16.2476454 26.4102259,15.8447237 25.6491516,16.0909536 C24.8880773,16.3371836 24.4851556,17.1654115 24.7313855,17.9264858 L25.3581526,19.806787 L21.6199347,21.0603212 L20.9931676,19.18002 C20.7469377,18.4189457 19.9187097,18.016024 19.1576354,18.2622539 C18.3965611,18.5084838 17.9936394,19.3367117 18.2398693,20.0977861 L18.8666364,21.9780873 L17.0534888,22.5824698 C16.2924145,22.8286998 15.8894928,23.6569277 16.1357227,24.418002 C16.3371836,25 16.896797,25.3805372 17.478795,25.4029217 C17.6354868,25.4253062 17.8145631,25.3805372 17.9712549,25.3357681 L19.7844025,24.7313855 L20.9931676,28.3352962 L19.18002,28.9396788 C18.4189457,29.1859087 18.016024,30.0141366 18.2622539,30.775211 C18.4637147,31.357209 19.0233282,31.7377461 19.6053262,31.7601307 C19.762018,31.7825152 19.9410943,31.7377461 20.0977861,31.692977 L21.9109337,31.0885945 L22.5377008,32.9688957 C22.7391616,33.5508937 23.2987751,33.9314309 23.8807731,33.9538154 C24.0374648,33.9762 24.2165411,33.9314309 24.3732329,33.8866618 C25.1343072,33.6404319 25.5372289,32.812204 25.290999,32.0511297 L24.6642319,30.1708284 L28.4024499,28.9172943 L29.0292169,30.7975955 C29.2306778,31.3795935 29.7902913,31.7601307 30.3722893,31.7825152 C30.528981,31.8048997 30.7080573,31.7601307 30.8647491,31.7153616 C31.6258234,31.4691316 32.0287451,30.6409037 31.7825152,29.8798294 L31.1557481,27.9995282 L32.9688957,27.3951456 Z M22.375279,23.7716694 L26.3408853,22.4433879 L27.6238845,26.273803 L23.6582782,27.6020846 L22.375279,23.7716694 Z"/>
  </g>
</svg>
