<svg xmlns="http://www.w3.org/2000/svg" width="60" height="60" viewBox="0 0 60 60">
  <path fill="#FFFFFF" fill-rule="evenodd" d="M32,28 L32,18.9970047 C32,17.8949789 31.1045695,17 30,17 C28.8877296,17 28,17.8940894 28,18.9970047 L28,28 L18.9970047,28 C17.8949789,28 17,28.8954305 17,30 C17,31.1122704 17.8940894,32 18.9970047,32 L28,32 L28,41.0029953 C28,42.1050211 28.8954305,43 30,43 C31.1122704,43 32,42.1059106 32,41.0029953 L32,32 L41.0029953,32 C42.1050211,32 43,31.1045695 43,30 C43,28.8877296 42.1059106,28 41.0029953,28 L32,28 Z"/>
</svg>
