<svg xmlns="http://www.w3.org/2000/svg" width="60" height="68" viewBox="0 0 60 68">
  <g fill="none" fill-rule="evenodd" transform="translate(-40 -36)">
    <rect width="140" height="140"/>
    <g fill="#FFF" transform="translate(40 36)">
      <path fill-rule="nonzero" d="M24,7.20759352 C23.8006096,7.20254125 23.6005996,7.2 23.4,7.2 C10.4765369,7.2 0,17.7474022 0,30.7582822 C0,43.7691622 10.4765369,54.3165644 23.4,54.3165644 C35.3681359,54.3165644 45.2377373,45.270895 46.6314979,33.6 L39.5377098,33.6 C38.200053,41.3534291 31.4839021,47.2490797 23.4,47.2490797 C14.3535758,47.2490797 7.02,39.8658982 7.02,30.7582822 C7.02,21.6506662 14.3535758,14.2674847 23.4,14.2674847 C23.600865,14.2674847 23.8008855,14.2711246 24,14.2783426 L24,7.20759352 Z M5.85,61.3104295 L40.95,61.3104295 L40.95,67.2 L5.85,67.2 L5.85,61.3104295 Z" opacity="1"/>
      <g fill-opacity="1" transform="translate(27.6)">
        <path d="M32.4 17.0666667C25.8388572 17.0666667 20.52 11.8134744 20.52 5.33333333 20.52 11.8134744 15.2011428 17.0666667 8.64 17.0666667 15.2011428 17.0666667 20.52 22.3198589 20.52 28.8 20.52 22.3198589 25.8388572 17.0666667 32.4 17.0666667zM15.12 5.86666667C11.8394286 5.86666667 9.18 3.24007053 9.18-7.36314005e-15 9.18 3.24007053 6.52057141 5.86666667 3.24 5.86666667 6.52057141 5.86666667 9.18 8.4932628 9.18 11.7333333 9.18 8.4932628 11.8394286 5.86666667 15.12 5.86666667zM8.64 21.3333333C6.25412988 21.3333333 4.32 19.4230816 4.32 17.0666667 4.32 19.4230816 2.38587012 21.3333333 3.03803153e-16 21.3333333 2.38587012 21.3333333 4.32 23.2435851 4.32 25.6 4.32 23.2435851 6.25412988 21.3333333 8.64 21.3333333z"/>
      </g>
    </g>
  </g>
</svg>
