<svg xmlns="http://www.w3.org/2000/svg" width="140" height="144" viewBox="0 0 140 144">
  <g fill="none" fill-rule="evenodd">
    <rect width="140" height="140" y="2"/>
    <g fill="#FFF">
      <path fill-opacity=".3" fill-rule="nonzero" d="M32.6903553,75.5403151 L32.6903553,9.25016502 C32.6903553,5.71058944 35.5547129,2.84263959 39.0862944,2.84263959 L101.624365,2.84263959 C105.155947,2.84263959 108.020305,5.71058944 108.020305,9.25016502 L108.020305,75.2523238 L110.862944,73.9656499 L110.862944,9.25016502 C110.862944,4.14143994 106.726692,0 101.624365,0 L39.0862944,0 C33.9839683,0 29.8477157,4.14143994 29.8477157,9.25016502 L29.8477157,74.2738113 L32.6903553,75.5403151 Z"/>
      <path fill-rule="nonzero" d="M54.1538217,42.3869475 C53.5878378,41.8601664 52.7019767,41.8919464 52.1751955,42.4579303 C51.6484144,43.0239142 51.6801944,43.9097753 52.2461783,44.4365565 L63.798197,55.188428 C64.3536881,55.7054432 65.2199587,55.6857626 65.7513969,55.1440537 L91.4189631,28.9804301 C91.9604397,28.4284888 91.9519564,27.5420985 91.4000151,27.0006218 C90.8480738,26.4591452 89.9616834,26.4676285 89.4202068,27.0195699 L64.707629,52.2097485 L54.1538217,42.3869475 Z"/>
      <path fill-opacity=".3" d="M110.874708,43.8126441 L138.457988,58.3287451 C139.404851,58.8165758 140,59.7933578 140,60.8595556 L140,140.240033 C140,141.811948 138.727307,143.086237 137.15736,143.086237 L2.84263959,143.086237 C1.2726931,143.086237 0,141.811948 0,140.240033 L0,60.8809133 C0,59.8035486 0.607552189,58.8185259 1.56964158,58.3360578 L29.8497975,43.7655158 L29.8497975,46.8938645 L27.827082,47.9647113 L2.84263959,60.8809133 L2.84263959,140.240033 L137.15736,140.240033 L137.15736,60.8809133 L110.874708,47.4643869 L110.874708,43.8126441 Z"/>
      <path fill-opacity=".2" fill-rule="nonzero" d="M70.0449292,92.7502316 L12.6759547,66.3050203 C11.9629195,65.9763345 11.1187716,66.2886362 10.7904975,67.0025656 C10.4622235,67.7164949 10.7741339,68.5617015 11.4871691,68.8903873 L69.1397921,95.4663512 C69.4343332,95.602125 69.7512468,95.6285234 70.0449292,95.562418 C70.3386116,95.6285234 70.6555253,95.602125 70.9500663,95.4663512 L128.602689,68.8903873 C129.315725,68.5617015 129.627635,67.7164949 129.299361,67.0025656 C128.971087,66.2886362 128.126939,65.9763345 127.413904,66.3050203 L70.0449292,92.7502316 Z"/>
      <path fill-opacity=".2" fill-rule="nonzero" d="M63.4864937,104.339507 L12.6759547,133.890114 C11.9629195,134.218799 11.1187716,133.906498 10.7904975,133.192568 C10.4622235,132.478639 10.7741339,131.633432 11.4871691,131.304747 L62.2977081,101.75414 C63.0107433,101.425454 63.8548912,101.737756 64.1831653,102.451685 C64.5114393,103.165614 64.1995288,104.010821 63.4864937,104.339507 Z" transform="rotate(180 37.487 117.822)"/>
      <path fill-opacity=".2" fill-rule="nonzero" d="M127.445885,104.339507 L76.6353455,133.890114 C75.9223104,134.218799 75.0781625,133.906498 74.7498884,133.192568 C74.4216143,132.478639 74.7335248,131.633432 75.44656,131.304747 L126.257099,101.75414 C126.970134,101.425454 127.814282,101.737756 128.142556,102.451685 C128.47083,103.165614 128.15892,104.010821 127.445885,104.339507 Z" transform="matrix(-1 0 0 1 202.892 0)"/>
    </g>
  </g>
</svg>
