<svg xmlns="http://www.w3.org/2000/svg" width="18" height="19" viewBox="0 0 18 19">
  <path fill="#FFF" fill-rule="evenodd" d="M223.298,720.166 L223.298,716.874 L232.218073,716.874 L232.321099,717.450947 C232.40153,717.901357 232.442,718.338437 232.442,718.762 C232.442,721.139406 231.722558,723.071392 230.290783,724.502878 C228.673375,726.200356 226.560333,727.052 223.998,727.052 C221.540893,727.052 219.431284,726.191344 217.708322,724.484261 C215.98278,722.774622 215.114,720.640707 215.114,718.124 C215.114,715.607293 215.98278,713.473378 217.708322,711.763739 C219.431284,710.056656 221.540893,709.196 223.998,709.196 C225.221865,709.196 226.393694,709.435149 227.507743,709.912598 C228.631386,710.39416 229.542531,711.044978 230.231993,711.865765 L230.644776,712.357173 L228.26359,714.73836 L227.772763,714.15075 C226.869342,713.069189 225.630647,712.532 223.998,712.532 C222.522534,712.532 221.262773,713.044282 220.182725,714.085055 C219.113822,715.115089 218.582,716.446255 218.582,718.124 C218.582,719.801745 219.113822,721.132911 220.182725,722.162945 C221.262773,723.203718 222.522534,723.716 223.998,723.716 C225.575325,723.716 226.863201,723.20085 227.903025,722.161025 C228.399327,721.664724 228.737063,721.004386 228.911443,720.166 L223.298,720.166 Z" transform="translate(-215 -709)"/>
</svg>
