<svg xmlns="http://www.w3.org/2000/svg" width="60" height="60" viewBox="0 0 60 60">
  <g fill="none" fill-rule="evenodd">
    <rect width="60" height="60" fill="#092F47" rx="4.8"/>
    <g fill="#FFF" fill-rule="nonzero" transform="translate(14 20.588)">
      <path d="M4.70588235,9.41176471 C4.70588235,8.37216988 5.55014235,7.52941176 6.59289092,7.52941176 L25.4071091,7.52941176 C26.4492752,7.52941176 27.2941176,8.37428527 27.2941176,9.41176471 C27.2941176,10.4513595 26.4498576,11.2941176 25.4071091,11.2941176 L6.59289092,11.2941176 C5.55072485,11.2941176 4.70588235,10.4492441 4.70588235,9.41176471 Z M9.41176471,16.9411765 C9.41176471,15.9015816 10.2560566,15.0588235 11.2926301,15.0588235 L20.7073699,15.0588235 C21.7461432,15.0588235 22.5882353,15.903697 22.5882353,16.9411765 C22.5882353,17.9807713 21.7439434,18.8235294 20.7073699,18.8235294 L11.2926301,18.8235294 C10.2538568,18.8235294 9.41176471,17.9786559 9.41176471,16.9411765 Z M0,1.88235294 C0,0.842758118 0.839474024,0 1.88227802,0 L30.117722,0 C31.1572754,0 32,0.844873506 32,1.88235294 C32,2.92194776 31.160526,3.76470588 30.117722,3.76470588 L1.88227802,3.76470588 C0.842724579,3.76470588 0,2.91983238 0,1.88235294 Z" opacity=".4"/>
      <path d="M4.70588235,9.41176471 C4.70588235,8.37216988 5.54440038,7.52941176 6.58580885,7.52941176 L20.7083088,7.52941176 C21.7465635,7.52941176 22.5882353,8.37428527 22.5882353,9.41176471 C22.5882353,10.4513595 21.7497173,11.2941176 20.7083088,11.2941176 L6.58580885,11.2941176 C5.54755412,11.2941176 4.70588235,10.4492441 4.70588235,9.41176471 Z M9.41176471,16.9411765 C9.41176471,15.9015816 10.254925,15.0588235 11.2916628,15.0588235 L16.0024549,15.0588235 C17.0406939,15.0588235 17.8823529,15.903697 17.8823529,16.9411765 C17.8823529,17.9807713 17.0391927,18.8235294 16.0024549,18.8235294 L11.2916628,18.8235294 C10.2534238,18.8235294 9.41176471,17.9786559 9.41176471,16.9411765 Z M0,1.88235294 C0,0.842758118 0.846788405,0 1.88680406,0 L25.4073136,0 C26.4493667,0 27.2941176,0.844873506 27.2941176,1.88235294 C27.2941176,2.92194776 26.4473292,3.76470588 25.4073136,3.76470588 L1.88680406,3.76470588 C0.844750951,3.76470588 0,2.91983238 0,1.88235294 Z"/>
    </g>
    <g transform="translate(33.5 10)">
      <rect width="16" height="16" fill="#FFF" rx="8"/>
      <path fill="#233CEA" fill-rule="nonzero" d="M3.67417447,12 C3.72694295,12 3.77999137,11.9860146 3.82814086,11.9576242 C4.90058671,11.3222662 6.42135467,10.9579458 8.00020995,10.9579458 C9.57864533,10.9579458 11.0995533,11.3222662 12.172559,11.9576242 C12.2990914,12.0321665 12.4607561,12.0054543 12.5563552,11.8942702 C13.487152,10.8087213 14,9.42388431 14,7.99527293 C14,4.6895375 11.3085276,2 8.00020995,2 C4.69189227,2 2,4.6895375 2,7.99527293 C2,9.42444373 2.51284803,10.8092807 3.44448462,11.8945499 C3.50355172,11.9636379 3.58823324,12 3.67417447,12 Z M11.1058519,5.87060683 L11.7959012,5.46992434 C11.9402097,5.38601178 12.1251094,5.43496077 12.209231,5.57915053 C12.2932126,5.72334028 12.2442233,5.90836748 12.0999149,5.99214019 L11.4098655,6.39296253 C11.361996,6.42079353 11.3095074,6.43421954 11.2581386,6.43421954 C11.1540014,6.43421954 11.0525235,6.38009594 10.9965358,6.28373635 C10.9125541,6.13940674 10.9615434,5.9547991 11.1058519,5.87060683 Z M9.62357552,4.62338643 L10.0191292,3.93040851 C10.1019911,3.78565934 10.2864708,3.73489224 10.4316191,3.81754612 C10.5767674,3.90061955 10.6270164,4.08494748 10.5445744,4.22969666 L10.1490208,4.92267457 C10.093313,5.02043271 9.9909953,5.07511573 9.88601822,5.07511573 C9.83520931,5.07511573 9.78384053,5.06224914 9.73653086,5.03553697 C9.59166249,4.9528831 9.54113352,4.7681356 9.62357552,4.62338643 Z M8.00006998,3.13799421 C8.16677359,3.13799421 8.30240398,3.273513 8.30240398,3.44007944 L8.30240398,4.23766835 C8.30240398,4.40423479 8.16677359,4.53975358 8.00006998,4.53975358 C7.83336638,4.53975358 7.69773599,4.40423479 7.69773599,4.23766835 L7.69773599,3.44007944 C7.69773599,3.273513 7.83336638,3.13799421 8.00006998,3.13799421 Z M7.25291311,7.37278156 C7.6005972,7.06272464 10.1624579,5.84109758 10.2712141,5.78921164 C10.3154445,5.76795379 10.3693327,5.77830301 10.4029254,5.8156441 C10.4356782,5.85284534 10.4407171,5.90710879 10.4144029,5.94920493 C10.3504368,6.05157826 8.84772491,8.45763115 8.50018079,8.76768807 C8.32843829,8.92096835 8.10728658,9.00530048 7.87689688,9.00530048 C7.610675,9.00530048 7.35607059,8.89159895 7.17872931,8.69286603 C6.83496437,8.30854649 6.86827709,7.7161238 7.25291311,7.37278156 Z M5.64018523,3.83125184 C5.78477366,3.74761898 5.96981326,3.79712739 6.05323504,3.94159686 L6.45242789,4.63191754 C6.53612961,4.77666671 6.48658043,4.96127435 6.341992,5.0446275 C6.29440239,5.07217879 6.24219379,5.08532509 6.190825,5.08532509 C6.08668774,5.08532509 5.98492996,5.03120149 5.92894218,4.93428248 L5.52974934,4.24396179 C5.44618758,4.09949233 5.49559679,3.91488469 5.64018523,3.83125184 Z M3.87265114,5.60264604 C3.95607292,5.45789687 4.14083258,5.40810875 4.28542102,5.49090248 L4.9775699,5.88808861 C5.12243827,5.97116205 5.17254733,6.15590954 5.08940548,6.30037901 C5.0334177,6.39757772 4.93165992,6.45226074 4.82696278,6.45226074 C4.77587393,6.45226074 4.72422521,6.43911444 4.6766356,6.41212257 L3.98448672,6.01493644 C3.83975832,5.931863 3.78950929,5.74711551 3.87265114,5.60264604 Z"/>
    </g>
  </g>
</svg>
