<svg xmlns="http://www.w3.org/2000/svg" width="50" height="50" viewBox="0 0 50 50">
  <g fill="none" fill-rule="evenodd">
    <rect width="50" height="50" fill="#EB5757" rx="4"/>
    <path fill="#FEFEFE" fill-rule="nonzero" d="M15.173175,15.2596474 C16.1459,16.0176995 16.5108,15.9598545 18.3373,15.8429655 L35.557,14.8510873 C35.92225,14.8510873 35.6185,14.5015713 35.49675,14.4434865 L32.636925,12.4602338 C32.08895,12.052151 31.3589,11.5847843 29.959675,11.7016853 L13.285825,12.8683143 C12.67775,12.9261592 12.556275,13.2178063 12.798475,13.4516084 L15.173175,15.2596474 Z M16.207025,19.1092637 L16.207025,36.4897345 C16.207025,37.4238396 16.693625,37.7732597 17.788825,37.7154627 L36.71325,36.6650441 C37.809,36.6072471 37.931,35.964765 37.931,35.2059695 L37.931,17.9421479 C37.931,17.1845754 37.62725,16.7760154 36.9565,16.83434 L17.18025,17.9421479 C16.45045,18.0009761 16.207025,18.3511876 16.207025,19.1092637 Z M34.889175,20.0415941 C35.0105,20.5670672 34.889175,21.0920367 34.34045,21.1510808 L33.428575,21.3253591 L33.428575,34.15675 C32.636925,34.5649263 31.906875,34.7982727 31.29855,34.7982727 C30.324575,34.7982727 30.08065,34.5064098 29.3511,33.6320203 L23.386775,24.649982 L23.386775,33.3403733 L25.2741,33.7489333 C25.2741,33.7489333 25.2741,34.7982727 23.751425,34.7982727 L19.5537,35.031859 C19.43175,34.7982727 19.5537,34.2155062 19.979475,34.0987131 L21.0749,33.8074978 L21.0749,22.3172373 L19.55395,22.2003243 C19.432,21.6748751 19.735775,20.9172787 20.5883,20.8584745 L25.091525,20.5672831 L31.29855,29.6662344 L31.29855,21.6170062 L29.716,21.4427518 C29.594525,20.8003897 30.08065,20.3339606 30.689225,20.2761157 L34.889175,20.0415941 Z M11.88585,11.2936073 L29.229375,10.0684153 C31.35915,9.89318298 31.907125,10.0105624 33.24575,10.9433814 L38.782,14.6760895 C39.6955,15.317972 40,15.49273 40,16.1924575 L40,36.6650441 C40,37.9480896 39.51275,38.7068851 37.80925,38.8229588 L17.66835,39.9896909 C16.3896,40.0482073 15.781,39.8733774 15.111325,39.0563052 L11.0343375,33.9820159 C10.30379,33.0480067 10,32.3492146 10,31.5316388 L10,13.3342397 C10,12.2849962 10.4873625,11.4097913 11.88585,11.2936073 Z"/>
  </g>
</svg>
