<svg xmlns="http://www.w3.org/2000/svg" width="115" height="103" viewBox="0 0 115 103">
  <g fill="none" fill-rule="evenodd" transform="translate(-20 -12)">
    <rect width="140" height="140"/>
    <g transform="translate(6 12)">
      <path stroke="#FFF" stroke-opacity=".3" stroke-width="3" d="M58.1578274,66.3298829 C58.1578274,81.2394502 66.2512982,94.2570601 78.2808965,101.221793 C72.3612255,104.649083 65.4884028,106.610641 58.1578274,106.610641 C35.9304992,106.610641 17.9116894,88.5763314 17.9116894,66.3298829 C17.9116894,44.0834343 35.9304992,26.0491245 58.1578274,26.0491245 C63.0448777,26.0491245 69.7525673,27.8454073 78.2808965,31.4379728 C64.8655171,44.7595346 58.1578274,56.3901713 58.1578274,66.3298829 Z" transform="rotate(-36 48.096 66.33)"/>
      <path fill="#FFF" fill-opacity=".2" d="M129 30C117.40202 30 108 20.5979797 108 9 108 20.5979797 98.5979797 30 87 30 98.5979797 30 108 39.4020203 108 51 108 39.4020202 117.40202 30 129 30zM99 10.5C93.2010101 10.5 88.5 5.79898987 88.5 0 88.5 5.79898987 83.7989899 10.5 78 10.5 83.7989899 10.5 88.5 15.2010101 88.5 21 88.5 15.2010101 93.2010101 10.5 99 10.5zM87 37.5C82.8578644 37.5 79.5 34.1421356 79.5 30 79.5 34.1421356 76.1421356 37.5 72 37.5 76.1421356 37.5 79.5 40.8578644 79.5 45 79.5 40.8578644 82.8578644 37.5 87 37.5z"/>
    </g>
  </g>
</svg>
