<svg xmlns="http://www.w3.org/2000/svg" xmlns:xlink="http://www.w3.org/1999/xlink"><defs><svg viewBox="0 0 36 29" id="i--bank"><g fill-rule="nonzero" fill="none"><path fill="#4CAF50" d="M9.293 9.457h17.414v14.25H9.293z"/><path d="M.582 26.875h34.836v1.582H.582v-1.582zm25.336-15.832h3.957v12.664h-3.957V11.043zm-19.793 0h3.957v12.664H6.125V11.043zm26.918-1.586H2.957V7.082L18-.043l15.043 7.125v2.375zM3.75 23.707h28.5v1.586H3.75v-1.586z" fill="#D7CCC8"/><path d="M24.332 9.457h7.125v1.586h-7.125V9.457zm-19.789 0h7.125v1.586H4.543V9.457zM2.168 25.293h31.664v1.582H2.168v-1.582zM18 3.918A1.58 1.58 0 0 0 16.418 5.5 1.58 1.58 0 0 0 18 7.082 1.58 1.58 0 0 0 19.582 5.5 1.58 1.58 0 0 0 18 3.918z" fill="#BCAAA4"/><path fill="#43A047" d="M11.668 9.457h12.664v1.586H11.668z"/><path d="M20.469 17.824a3.571 3.571 0 0 0-.836-.617c-.328-.184-.75-.379-1.262-.582-.512-.207-.86-.406-1.047-.605-.191-.196-.285-.457-.285-.782 0-.351.098-.625.29-.824.19-.2.464-.3.816-.3.351 0 .636.128.847.382.211.258.32.781.32 1.297h1.856c0-.836-.215-1.656-.645-2.18-.418-.511-.996-.824-1.73-.937v-1.633h-1.586v1.691a2.77 2.77 0 0 0-1.328.72c-.461.464-.691 1.054-.691 1.78 0 .418.066.778.199 1.082.136.305.324.567.566.793.242.223.531.422.871.598.336.172.738.348 1.203.52.47.175.797.367.993.578.195.207.293.484.293.836 0 .336-.11.605-.329.804-.218.2-.515.297-.89.297-.453 0-.801-.133-1.043-.406-.242-.27-.363-.867-.363-1.379h-1.856c0 .879.242 1.79.723 2.316.406.446.965.73 1.652.864v1.57h1.586v-1.539c.707-.102 1.277-.352 1.695-.77.453-.453.68-1.043.68-1.77 0-.39-.063-.73-.18-1.023a2.378 2.378 0 0 0-.52-.78z" fill="#E8F5E9"/></g></svg><svg viewBox="0 0 36 36" id="i--categorize"><g fill-rule="nonzero" fill="none"><path d="M36 33a3 3 0 0 1-3 3H22a3 3 0 0 1-3-3V22a3 3 0 0 1 3-3h11a3 3 0 0 1 3 3v11z" fill="#2196F3"/><path d="M33 2.001c.552 0 1 .449 1 1V14c0 .551-.448 1-1 1H22c-.552 0-1-.449-1-1V3.001c0-.551.448-1 1-1h11zm0-2H22a3 3 0 0 0-3 3V14a3 3 0 0 0 3 3h11a3 3 0 0 0 3-3V3.001a3 3 0 0 0-3-3z" fill="#90CAF9"/><g fill="#9C27B0"><path d="M16 14a3 3 0 0 1-3 3H3a3 3 0 0 1-3-3V3.001a3 3 0 0 1 3-3h10a3 3 0 0 1 3 3V14zM17 33a3 3 0 0 1-3 3H3a3 3 0 0 1-3-3V22a3 3 0 0 1 3-3h11a3 3 0 0 1 3 3v11z"/></g><g transform="translate(3 22)" fill="#E1BEE7"><circle cx="5.5" cy="5.5" r="1.5"/><circle cx="1.5" cy="9.5" r="1.5"/><circle cx="9.5" cy="9.5" r="1.5"/><circle cx="1.5" cy="1.5" r="1.5"/><circle cx="9.5" cy="1.5" r="1.5"/></g><g fill="#0D47A1"><path d="M36 32.586L32.586 36H33a3 3 0 0 0 3-3v-.414zM19 29.586v2.828L32.414 19h-2.828zM34.286 19.3L19.3 34.286a3.004 3.004 0 0 0 1.414 1.414L35.7 20.714a3.004 3.004 0 0 0-1.414-1.414zM22.414 19H22a3 3 0 0 0-3 3v.414L22.414 19zM19 24.586v2.828L27.414 19h-2.828zM36 30.414v-2.828L27.586 36h2.828zM36 25.414v-2.828L22.586 36h2.828z"/></g></g></svg><svg viewBox="0 0 38 36" id="i--chart"><g fill-rule="nonzero" fill="none"><g fill="#00BCD4"><path d="M32 12h6v24h-6zM24 20h6v16h-6zM16 16h6v20h-6zM8 26h6v10H8zM0 22h6v14H0z"/></g><g fill="#3F51B5"><circle cx="3" cy="10" r="3"/><circle cx="11" cy="12" r="3"/><circle cx="19" cy="5" r="3"/><circle cx="27" cy="7" r="3"/><circle cx="35" cy="3" r="3"/><path d="M34.1 1.2l-7.3 3.7-8.3-2.1-8 7-7-1.7-1 3.8 9 2.3 8-7 7.7 1.9 8.7-4.3z"/></g></g></svg><svg viewBox="0 0 36 36" id="i--chat"><g fill-rule="nonzero" fill="none"><path d="M14 30h16l6 6V14a4 4 0 0 0-4-4H14a4 4 0 0 0-4 4v12a4 4 0 0 0 4 4" fill="#1565C0"/><path d="M23 20H6l-6 6V4a4 4 0 0 1 4-4h19a4 4 0 0 1 4 4v12a4 4 0 0 1-4 4" fill="#2196F3"/></g></svg><svg viewBox="0 0 41 30" id="i--code"><g fill-rule="nonzero" fill="none"><g fill="#3F51B5"><path d="M32 25l-3-2.5 6.8-7.5L29 7.5 32 5l9 10zM9 25L0 15 9 5l3 2.5L5.1 15l6.9 7.5z"/></g><path fill="#2196F3" d="M17 30l-3.8-1.3L23 0l3.8 1.3z"/></g></svg><svg viewBox="0 0 40 40" id="i--design"><g fill-rule="nonzero" fill="none"><path fill="#42A5F5" d="M0 9l9-9 31 31-9 9z"/><g fill="#1565C0"><path d="M12.177 12.179l-1.414-1.415 4.5-4.5 1.415 1.414zM29.323 20.323l1.415 1.415-2.5 2.5-1.415-1.415zM12.293 3.293l1.414 1.414-2.5 2.5-1.414-1.414zM35.353 26.352l1.414 1.415-2.5 2.5-1.414-1.414zM18.293 9.293l1.414 1.414-2.5 2.5-1.414-1.414zM27.823 27.825l4.501-4.5 1.414 1.415-4.501 4.5z"/></g><path d="M38.583 5.067l-3.651-3.65a1.426 1.426 0 0 0-2.015 0l-1.718 1.72 5.665 5.664 1.719-1.718a1.427 1.427 0 0 0 0-2.016" fill="#E57373"/><path fill="#FF9800" d="M2.907 31.427l25.46-25.46 5.666 5.665-25.461 25.46z"/><path fill="#B0BEC5" d="M36.863 8.8l-2.832 2.834-5.667-5.663 2.832-2.834z"/><path fill="#FFC107" d="M2.905 31.429L1 39l7.571-1.906z"/><path fill="#37474F" d="M1.965 35.172L1 39l3.827-.965z"/></g></svg><svg viewBox="0 0 12 8" id="i--dropdown-arrow"><path d="M5.293 7.157l-4.95-4.95A1 1 0 0 1 1.757.793L6 5.036 10.243.793a1 1 0 1 1 1.414 1.414l-4.95 4.95a1 1 0 0 1-1.414 0z" fill="#000" fill-rule="evenodd"/></svg><svg viewBox="0 0 38 38" id="i--filled-filter"><g fill-rule="nonzero" fill="none"><path fill="#F57C00" d="M24 17H14L2 3h34z"/><g fill="#FF9800"><path d="M24 32l-10 6V17h10zM36.5 3h-35C.7 3 0 2.3 0 1.5S.7 0 1.5 0h35c.8 0 1.5.7 1.5 1.5S37.3 3 36.5 3z"/></g></g></svg><svg viewBox="0 0 36 39" id="i--google-search"><g fill-rule="nonzero" fill="none"><path d="M33 3H3a3 3 0 0 0-3 3v23a3 3 0 0 0 3 3h3v7l8.556-7H33c1.656 0 3-1.344 3-3V6a3 3 0 0 0-3-3z" fill="#CFD8DC"/><path d="M36 27.002a4.502 4.502 0 0 1-4.499 4.499H14.997L10.499 24H36v3.002z" fill="#B0BEC5"/><path fill="#FFF" d="M10 24l-4-7v-3h8v3z"/><path fill="#4CAF50" d="M14 17l-4-1-3.997 1V0H14z"/><path fill="#37474F" d="M8.286 21L10 24l1.714-3z"/><path fill="#388E3C" d="M10 0v16l4 1V0z"/><path d="M10 24l5 8h18c1.656 0 3-1.344 3-3v-5H10z" fill="#90A4AE"/></g></svg><svg viewBox="0 0 36 40" id="i--headset"><g fill-rule="nonzero" fill="none"><path d="M29.2 39.1L19 39v-2l10.2.1c1 0 1.8-.8 1.8-1.8V32h2v3.3c0 2.1-1.7 3.8-3.8 3.8z" fill="#90A4AE"/><path d="M18 0C8.1 0 0 8.1 0 18v11h4V18c0-7.7 6.3-14 14-14s14 6.3 14 14v11h4V18c0-9.9-8.1-18-18-18" fill="#0097A7"/><path d="M32 34h-4V22h4c2.2 0 4 1.8 4 4v4c0 2.2-1.8 4-4 4zM4 34h4V22H4c-2.2 0-4 1.8-4 4v4c0 2.2 1.8 4 4 4zm18 4c0-1.1-.9-2-2-2h-3c-1.1 0-2 .9-2 2s.9 2 2 2h3c1.1 0 2-.9 2-2z" fill="#37474F"/></g></svg><svg viewBox="0 0 36 36" id="i--law"><g fill-rule="nonzero" fill="none"><g fill="#5D4037" transform="translate(-1 -1)"><path d="M22 35v-3a2 2 0 0 0-2-2H5a2 2 0 0 0-2 2v3h19zM4.62 10.273a.998.998 0 0 1 0 1.413c-.39.391-1.023.501-1.413.111l6.36 6.361c-.39-.391-.39-1.134 0-1.524a.999.999 0 0 1 1.414 0L4.62 10.273zM11.743 3.151c.391.391.335 1.077-.055 1.468a.998.998 0 0 1-1.414 0l6.361 6.361a.999.999 0 0 1 0-1.413c.39-.391 1.078-.446 1.469-.056l-6.361-6.36z"/><ellipse transform="rotate(135.016 16.634 4.618)" cx="16.634" cy="4.618" rx="1.499" ry="4.498"/><ellipse transform="rotate(135.016 4.62 16.634)" cx="4.62" cy="16.634" rx="1.499" ry="4.498"/></g><g fill="#795548"><path d="M23 36v-3.001A2 2 0 0 0 21 31H2a2 2 0 0 0-2 1.999V36h23zM14.928 12.102a.999.999 0 0 1 0 1.413l-1.414 1.414a1 1 0 0 1-1.413 0l-.707-.707a.999.999 0 0 1 0-1.414l1.413-1.414a1 1 0 0 1 1.414 0l.707.708zM18.815 6.094a1.5 1.5 0 0 1-2.12 2.12L11.041 2.56a1.498 1.498 0 1 1 2.12-2.12l5.654 5.654zM8.214 16.694a1.5 1.5 0 0 1-2.12 2.121L.439 13.161a1.501 1.501 0 0 1 0-2.121 1.502 1.502 0 0 1 2.121 0l5.654 5.654zM34.954 32.127c.78.78 1.487 2.753.706 3.533-.78.781-2.753.074-3.533-.706 0 0-18.686-18.538-17.906-19.319l1.414-1.413c.781-.782 19.319 17.905 19.319 17.905z"/></g><g fill="#FFC107"><path d="M3.62 9.273L9.272 3.62l6.361 6.362-5.654 5.654zM13.514 14.928l1.414-1.413.707.707-1.414 1.413z"/></g></g></svg><svg viewBox="0 0 42 32" id="i--megaphone"><g fill-rule="nonzero" fill="none"><path d="M17.7 31c-.4 0-.8-.1-1.2-.2L10.8 29c-1-.3-1.9-1-2.4-2s-.6-2-.3-3l2.1-6.7c.3-1 1-1.9 2-2.4.9-.5 2-.6 3-.3l5.7 1.8c1 .3 1.9 1 2.4 2s.6 2 .3 3l-2.1 6.7c-.5 1.8-2.1 2.9-3.8 2.9zm-3.6-14.5c-.3 0-.6.1-.9.2-.5.2-.8.7-1 1.2l-2.1 6.7c-.2.5-.1 1 .1 1.5s.7.8 1.2 1l5.7 1.8c1.1.3 2.2-.3 2.5-1.3l2.1-6.7c.2-.5.1-1-.1-1.5s-.7-.8-1.2-1l-5.7-1.8c-.2 0-.4-.1-.6-.1zM0 11h3v10H0zM39 0h3v32h-3z" fill="#B0BEC5"/><path fill="#F44336" d="M3 11.7v8.6l36 10.4V1.3z"/><path fill="#FF8A80" d="M5 13.3v2.2l32-5.1V4z"/></g></svg><svg viewBox="0 0 42 32" id="i--nas"><g fill-rule="nonzero" fill="none"><path d="M42 30a2 2 0 0 1-2 2H2a2 2 0 0 1-2-2V2a2 2 0 0 1 2-2h38a2 2 0 0 1 2 2v28z" fill="#78909C"/><path d="M40 0H11v32h29a2 2 0 0 0 2-2V2a2 2 0 0 0-2-2z" fill="#37474F"/><g fill="#546E7A"><path d="M13 14h6v16h-6zM20 14h6v16h-6zM27 14h6v16h-6zM34 14h6v16h-6z"/></g><g transform="translate(14 16)" fill="#CFD8DC"><circle cx="2" cy="2" r="2"/><circle cx="9" cy="2" r="2"/><circle cx="16" cy="2" r="2"/><circle cx="23" cy="2" r="2"/></g><path fill="#448AFF" d="M17 3h19v5H17z"/><circle fill="#37474F" cx="5.5" cy="11.5" r="2.5"/><g transform="translate(4 10)" fill="#76FF03"><circle cx="12" cy="2" r="1"/><circle cx="1.5" cy="1.5" r="1"/><circle cx="26" cy="2" r="1"/><circle cx="33" cy="2" r="1"/><circle cx="19" cy="2" r="1"/><circle cx="12" cy="2" r="1"/><circle cx="26" cy="2" r="1"/><circle cx="33" cy="2" r="1"/><circle cx="19" cy="2" r="1"/></g></g></svg><svg viewBox="0 0 38 37" id="i--network-drive"><g fill-rule="nonzero" fill="none"><path d="M0 27v8a2 2 0 0 0 2 2h34a2 2 0 0 0 2-2v-8a2 2 0 0 0-2-2H2a2 2 0 0 0-2 2z" fill="#78909C"/><circle fill="#76FF03" cx="6" cy="31" r="2"/><path fill="#455A64" d="M11 30h22v2H11z"/><path d="M29.5 8c-.187 0-.371.01-.553.028.021-.175.053-.347.053-.528A4.5 4.5 0 0 0 24.5 3a4.474 4.474 0 0 0-3.073 1.228A7 7 0 0 0 8 7c0 .405.042.799.108 1.185a5.496 5.496 0 0 0 .237 10.691c.245.074.498.124.763.124h19.735c.066 0 .128-.019.194-.023.153.012.306.023.463.023a5.5 5.5 0 0 0 0-11zm-8.332 2.5h-.112l.047-.078c.023.026.042.053.065.078z" fill="#BBDEFB"/></g></svg><svg viewBox="0 0 40 40" id="i--pie-chart"><g fill-rule="nonzero" fill="none"><path d="M20 0C9.002 0 0 9.002 0 20s9.002 20 20 20c5.777 0 10.998-2.444 14.557-6.332L20 20V0z" fill="#00BCD4"/><path d="M40 20C40 9.002 30.998 0 20 0v20h20z" fill="#448AFF"/><path d="M20 20l14.557 13.668C37.891 30.113 40 25.334 40 20H20z" fill="#3F51B5"/></g></svg><svg viewBox="0 0 12 12" id="i--scroll-to-top"><path d="M5.266 5.175v6.075a.75.75 0 1 0 1.5 0V5.178l1.515 1.276a.74.74 0 0 0 1-.042.64.64 0 0 0-.028-.932L6.631 3.156a.88.88 0 0 0-.617-.222.88.88 0 0 0-.617.222L2.775 5.48a.64.64 0 0 0-.028.932.74.74 0 0 0 1 .042l1.52-1.28-.001.001zM.75 1.5h10.5a.75.75 0 1 0 0-1.5H.75a.75.75 0 0 0 0 1.5z" fill="#3070CD" fill-rule="evenodd"/></svg><svg viewBox="0 0 32 44" id="i--survey"><g fill-rule="nonzero" fill="none"><path d="M28 4H18c0 1.1-.9 2-2 2s-2-.9-2-2H4C1.8 4 0 5.8 0 8v32c0 2.2 1.8 4 4 4h24c2.2 0 4-1.8 4-4V8c0-2.2-1.8-4-4-4z" fill="#455A64"/><path d="M28 41H4c-.6 0-1-.4-1-1V8c0-.6.4-1 1-1h24c.6 0 1 .4 1 1v32c0 .6-.4 1-1 1z" fill="#FFF"/><g fill="#90A4AE"><path d="M18 4c0 1.1-.9 2-2 2s-2-.9-2-2H7v4c0 1.1.9 2 2 2h14c1.1 0 2-.9 2-2V4h-7z"/><path d="M16 0c-2.2 0-4 1.8-4 4s1.8 4 4 4 4-1.8 4-4-1.8-4-4-4zm0 6c-1.1 0-2-.9-2-2s.9-2 2-2 2 .9 2 2-.9 2-2 2z"/></g><g fill="#CFD8DC"><path d="M13 20h12v2H13zM7 19h4v4H7z"/></g><g fill="#03A9F4"><path d="M13 29h12v2H13zM7 28h4v4H7z"/></g></g></svg></defs></svg>