<svg xmlns="http://www.w3.org/2000/svg" width="25" height="25" viewBox="0 0 25 25">
  <g fill="none" fill-rule="evenodd">
    <rect width="25" height="25" fill="#FFF"/>
    <g transform="rotate(-45 11.793 14.207)">
      <g opacity=".641" transform="rotate(13 2.474 21.718)">
        <path fill="#83D9FF" fill-rule="nonzero" d="M0,11 C0,4.92478942 4.92478942,0 11,0 C17.0752106,0 22,4.92478942 22,11 C22,17.0752106 17.0752106,22 11,22 C4.92478942,22 0,17.0752106 0,11 Z M11,17.5779114 C14.6328735,17.5779114 17.5779114,14.6328735 17.5779114,11 C17.5779114,7.36712646 14.6328735,4.4220886 11,4.4220886 C7.36712646,4.4220886 4.4220886,7.36712646 4.4220886,11 C4.4220886,14.6328735 7.36712646,17.5779114 11,17.5779114 Z"/>
        <path fill="#3FEFEF" d="M11,22 L11,17.5779114 C11.8397369,17.5779114 12.6422119,17.4208069 13.3805695,17.1339569 L14.8935394,21.2908478 C13.6828613,21.7490692 12.3709717,22 11,22 Z"/>
        <path fill="#1DD1D9" d="M13.3805695,17.1339569 C14.1405792,16.8387146 14.8324432,16.4061737 15.4256134,15.8665466 L18.2697754,19.2555389 C17.2848511,20.1231384 16.1436615,20.817688 14.8935394,21.2908478 L13.3805695,17.1339569 Z"/>
        <path fill="#17B5BA" d="M15.4256134,15.8665466 C16.0125732,15.3322907 16.5026855,14.6934662 16.8664093,13.9791107 L20.6993561,16.192337 C20.0766449,17.3538361 19.2506714,18.3909607 18.2696076,19.2555389 L15.4256134,15.8665466 Z"/>
        <path fill="#9BE058" d="M17.397644,9.46437074 L21.7577972,8.69546511 C21.916748,9.43869016 22,10.2094421 22,11 C22,11.513443 21.9645843,12.0184937 21.8964386,12.5134735 L17.5362854,11.7450714 C17.5636444,11.5006867 17.5779114,11.2519379 17.5779114,11 C17.5779114,10.4709473 17.5154724,9.95716859 17.397644,9.46437074 Z"/>
        <path fill="#C0FF66" d="M16.5129242,7.40959166 L20.3462067,5.19636537 C21.0053406,6.25614928 21.4895783,7.43577575 21.7577972,8.69546511 L17.397644,9.46437074 C17.2202301,8.72248841 16.9174347,8.02978516 16.5129242,7.40959166 Z"/>
        <path fill="#FFDF46" d="M15.0241242,5.79658509 L17.8682861,2.40708922 C18.843811,3.18791198 19.683548,4.1313782 20.3462067,5.19636537 L16.5129242,7.40959166 C16.1095886,6.79208372 15.6053772,6.24674987 15.0241242,5.79658509 Z"/>
        <path fill="#FC3E81" d="M7.36846924,0.613983133 C8.5056305,0.216018687 9.72738645,0 11,0 L11,4.4220886 C10.2584534,4.4220886 9.5459442,4.54478454 8.88093568,4.77087402 L7.36846924,0.613983133 Z"/>
        <path fill="#F01054" d="M4.13171387,2.40708922 C5.09196471,1.63868714 6.18380735,1.02789307 7.36796569,0.613983133 L7.36846924,0.613983133 L8.88093568,4.77087402 C8.1863861,5.00686648 7.54420472,5.35615541 6.97587584,5.79658509 L4.13171387,2.40708922 Z"/>
        <path fill="#7884EA" d="M1.65379332,5.19636537 C2.31645202,4.1313782 3.15618896,3.18807981 4.13171387,2.40708922 L6.97587584,5.79658509 C6.39462278,6.24674987 5.8904114,6.79208372 5.48724365,7.40959166 L1.65379332,5.19636537 Z"/>
        <path fill="#1685FB" d="M0.103561391,12.5134735 L4.46371458,11.7450714 C4.5536804,12.5413361 4.7854767,13.2947998 5.13359069,13.9791107 L1.30047607,16.192337 C0.697570801,15.0684357 0.284164418,13.8280487 0.103561391,12.5134735 Z"/>
        <path fill="#43A3F9" d="M1.30047607,16.192337 L5.13342285,13.9791107 C5.49731445,14.6934662 5.98742676,15.3322907 6.57438659,15.8665466 L3.73022461,19.2555389 C2.74932861,18.3909607 1.92335511,17.3538361 1.30047607,16.192337 Z"/>
        <path fill="#64BDFF" d="M3.73022461,19.2555389 L6.57438659,15.8665466 C7.16738894,16.4061737 7.85925293,16.8387146 8.61943053,17.1339569 L7.1062927,21.2908478 C5.85633851,20.817688 4.71514893,20.1231384 3.73022461,19.2555389 Z"/>
        <path fill="#4A5BE5" d="M0.24220277,8.69546511 C0.510421742,7.43577575 0.994659445,6.25614928 1.65379332,5.19636537 L5.48707582,7.40959166 C5.0825653,8.02978516 4.77976989,8.72248841 4.60235596,9.46437074 L0.24220277,8.69546511 Z"/>
        <path fill="#1CC939" d="M16.8665771,13.9791107 C17.2145233,13.294632 17.4463196,12.5413361 17.5362854,11.7450714 L21.8964386,12.5134735 C21.7158356,13.8280487 21.3024292,15.0684357 20.6995239,16.192337 L16.8665771,13.9791107 Z"/>
        <path fill="#364EC6" d="M0,11 C0,10.2094421 0.0832519531,9.43869016 0.24220277,8.69546511 L4.60235596,9.46437074 C4.48452761,9.95716859 4.4220886,10.4709473 4.4220886,11 C4.4220886,11.2519379 4.4363556,11.5006867 4.46371458,11.7450714 L0.103561391,12.5134735 C0.0354156602,12.0184937 1.90819582e-17,11.513443 1.90819582e-17,11 Z"/>
        <path fill="#F9B200" d="M13.1190643,4.77087402 L14.6320343,0.613983133 C15.8161926,1.02789307 16.9082031,1.63868714 17.8682861,2.4072571 L15.024292,5.79658509 C14.4557953,5.35615541 13.813446,5.00686648 13.1190643,4.77087402 Z"/>
        <path fill="#FD6096" d="M11,4.4220886 L11,0 C12.2726135,0 13.494873,0.216018688 14.6320343,0.613983133 L13.1188965,4.77087402 C12.4540558,4.54478454 11.7415466,4.4220886 11,4.4220886 Z"/>
      </g>
      <rect width="12" height="7" y="10" fill="#FFF"/>
      <rect width="12" height="9" x="14" y="9" fill="#FFF"/>
      <g fill-rule="nonzero" transform="rotate(90 10.5 15.5)">
        <path fill="#2F4859" d="M11.9191901,4.10277597 C11.7591901,2.96277597 11.1191901,2.38277597 10.5991901,2.00277597 C10.0191901,1.58277597 9.27919012,1.48277597 8.61919012,1.74277597 C7.91919012,2.00277597 7.41919012,2.52277597 6.89919012,3.04277597 C6.29919012,3.68277597 5.65919012,4.28277597 5.03919012,4.90277597 C4.60327792,5.33868817 7.93177811,9.23018799 8.67919012,8.46277597 C9.15919012,7.98277597 9.63919012,7.52277597 10.1191901,7.04277597 C10.7791901,6.36277597 11.5591901,5.78277597 11.8591901,4.82277597 C11.9391901,4.58277597 11.9591901,4.34277597 11.9191901,4.10277597 Z" transform="rotate(-45 8.47 5.081)"/>
        <path fill="#D5D6DA" d="M11.4787677,10.601625 C9.21876766,12.861625 6.93876766,15.141625 4.65876766,17.401625 C4.13876766,17.921625 3.71876766,18.481625 3.51876766,19.221625 C3.41876766,19.621625 3.17876766,20.001625 2.95876766,20.341625 C2.91876766,20.401625 2.87876766,20.441625 2.83876766,20.501625 C2.49876766,20.961625 2.51876766,21.581625 2.91876766,21.981625 C2.93876766,22.001625 2.95876766,22.021625 2.95876766,22.021625 C3.35876766,22.421625 3.95876766,22.441625 4.41876766,22.121625 C4.41876766,22.121625 4.41876766,22.121625 4.43876766,22.121625 C4.77876766,21.881625 5.09876766,21.561625 5.47876766,21.501625 C6.31876766,21.321625 6.97876766,20.901625 7.55876766,20.301625 C9.87876766,18.061625 12.1387677,15.781625 14.4187677,13.521625 C14.5187677,13.421625 11.5587677,10.521625 11.4787677,10.601625 Z" transform="rotate(-45 8.51 16.472)"/>
        <path fill="#64798A" d="M7.78599706,6.07272727 C7.16599706,5.67272727 6.82599706,5.71272727 6.32599706,6.19272727 C6.02599706,6.49272727 5.72599706,6.77272727 5.44599706,7.07272727 C5.14599706,7.39272727 5.10599706,7.91272727 5.40599706,8.23272727 C5.54599706,8.39272727 5.74599706,8.49272727 5.94599706,8.63272727 C6.58663648,9.03739576 8.52516434,10.9759236 8.84599706,11.5527273 C8.94599706,11.6927273 9.00599706,11.8127273 9.10599706,11.9127273 C9.54599706,12.3727273 10.0259971,12.3527273 10.4859971,11.9127273 C10.7259971,11.6727273 10.9659971,11.4327273 11.2059971,11.1927273 C11.7859971,10.6127273 11.9459971,10.3327273 11.4259971,9.63272727 C10.343917,8.21904515 8.98857381,6.86370191 7.78599706,6.07272727 Z" transform="rotate(-45 8.47 9.025)"/>
      </g>
    </g>
  </g>
</svg>
