<svg xmlns="http://www.w3.org/2000/svg" xmlns:xlink="http://www.w3.org/1999/xlink"><defs><svg viewBox="0 0 36 38" id="i--cherry"><g fill-rule="nonzero" fill="none"><path d="M35.4 24.5c-4.1-12.4-13.5-3.3-13.5-3.3s-1.3.1-2.8.6c-3.2-3.1-9.2-1.2-9.2-1.2S-1.2 16.9.1 29.3C.7 34.6 4.8 38 10.5 38c2.9 0 5.4-.9 7.2-2.4 3 2.7 7.4 3.2 11.8 1.2 5.4-2.4 7.6-7.2 5.9-12.3z" fill="#FF1744"/><path d="M23.7 30.3c-.4-3.9 2.7-11 5.3-12.3-3.6-.1-7.1 3.2-7.1 3.2s-1.2.1-2.7.6c-.1-.1-.2-.1-.3-.1 1.4 1.3 2.3 3.7 1.9 7.6-.3 2.6-1.4 4.7-3.1 6.2 1.5 1.4 5.1 4 11.8 1.3-3.1-.6-5.4-2.6-5.8-6.5z" fill="#D50000"/><path d="M4.1 29.9c-.4 0-.9-.3-1-.8-1-4.1 1.4-5.8 2.4-6.4.5-.3 1.1-.1 1.3.4.3.5.1 1.1-.4 1.3-1 .5-2 1.6-1.4 4.1.1.5-.2 1.1-.7 1.2-.1.2-.1.2-.2.2z" fill="#FFCDD2"/><path d="M22.8 19.3c-.1-.3-.2-.5-.3-.8 0-.1-.1-.2-.1-.3-.1-.2-.1-.4-.2-.5-.1-.2-.1-.3-.2-.5s-.1-.3-.1-.5c-.1-.2-.1-.4-.2-.5-.1-.2-.1-.4-.2-.6 0-.1-.1-.2-.1-.3-.1-.2-.1-.4-.1-.6 0-.1 0-.2-.1-.3 0-.2-.1-.4-.1-.6 0-.1 0-.2-.1-.3 0-.2-.1-.4-.1-.6v-.2-.6-.3-.6-.2-.6-.2-.5-.3V9v-.3-.3c0-.1 0-.2.1-.4v-.2c0-.1.1-.3.1-.4v-.2c0-.2.1-.3.1-.5v-.1c0-.2.1-.3.1-.5.6-2.1 1.6-3.5 2-4 .1 0 .2-.1.2-.1.5-.2.7-.8.5-1.3-.2-.5-.5-.9-1-.7 0 0-.1 0-.1.1-.1 0-.2 0-.3.1-.1 0-.1.1-.2.2C8.5 6.7 9 21.9 9 22c0 .5.5 1 1 1 .6 0 1-.5 1-1 0-.1-.4-11.7 9.2-18.2-1.5 3.7-2.7 10.1 1.9 18.7.2.3.5.5.9.5.2 0 .3 0 .5-.1.4-.2.6-.6.5-1 0-.1-.1-.3-.1-.4-.2-.4-.4-.8-.6-1.1v-.1c-.2-.3-.4-.7-.5-1z" fill="#795548"/><path d="M32 13c-1.8-1.9 2.9-13-9-13-6.8 13.2 9 13 9 13z" fill="#4CAF50"/></g></svg><svg viewBox="0 0 38 36" id="i--like"><g fill-rule="nonzero" fill="none"><g fill="#FFCC80"><path d="M17.959 12H33v24H17.959c-3.247 0-5.878-2.686-5.878-5.996V18c0-3.316 2.631-6 5.878-6z"/><path d="M29 15a3 3 0 0 0 3 3h3a3 3 0 0 0 0-6h-3a3 3 0 0 0-3 3zM26 21a3 3 0 0 0 3 3h6a3 3 0 0 0 0-6h-6a3 3 0 0 0-3 3zM25 27a3 3 0 0 0 3 3h6a3 3 0 0 0 0-6h-6a3 3 0 0 0-3 3zM24 33a3 3 0 0 0 3 3h6a3 3 0 0 0 0-6h-6a3 3 0 0 0-3 3zM19.526 7.566a8.458 8.458 0 0 0 1.916-3.631L22.166.98A1.27 1.27 0 0 1 23.397 0h.675c1.781 0 2.968 2 2.968 3.293v1.393c0 2.828-.453 5.609-1.813 8.072l-2.626 4.762-8.193-4.266 5.118-5.688z"/></g><g fill="#F2A25A"><path d="M36 18h-4a1 1 0 1 0 0 2l4-2zM35 24h-4a1 1 0 1 0 0 2l4-2zM34 30h-4a1 1 0 1 0 0 2l4-2z"/></g><path fill="#BA68C8" d="M13 35H3L0 13h13z"/><circle fill="#F3E5F5" cx="8" cy="30" r="2"/></g></svg><svg viewBox="0 0 38 37" id="i--trainers"><g fill-rule="nonzero" fill="none"><path d="M14 8H7s.5 3.4 3.2 4.8S14 8 14 8z" fill="#1A237E"/><path d="M6.8 31.6s-1.6.1-3.5-3.4S.1 21.9.1 21.9s-.4-2.6.5-3.5c1.4-1.4 4.2 2.8 7.6-.7 0 0 2.8-2.8 2.1-6.2-.3-1.4-.7-2.1.7-3.5s9-.7 14.6-3.5c0 0 3.5-2.1 4.2-2.8.7-.7 3.5-3.5 6.9 0 2.9 2.9-2.1 9-4.2 11.1L17.9 27.4s-7 5.5-11.1 4.2z" fill="#3F51B5"/><path d="M7.6 31.7H8l9.1-7.8L15.8 10l7.6-2.1-.4-2.5c-4 1.3-8.4 1.4-10.7 1.9.5 9-3.9 21.8-4.7 24.4z" fill="#263238"/><path d="M38 1.7v1.4s-.7 7.6-5.6 12.5L17.8 30.2c-2.8 2.8-6.9 5.6-6.9 5.6-.4.4-1 .4-1.4 0l-2.8-4.2c2.1-.7 4.2-2.8 9-7.6 0 0 12.5-9.7 14.6-11.8 0 0 6.2-6.2 6.2-10.4H38v-.1z" fill="#B0BEC5"/><path d="M22.4 10.9c.4.9 2 .8 2.8 0 0 0 8.3-7.5 6.9-10.7-.3.1-.6.2-.8.3-.3.1-.5.3-.7.4-.4.3-.7.6-.9.8-.7.7-4.2 2.8-4.2 2.8-1.1.6-2.3 1-3.5 1.3 0 1.9.1 4.3.4 5.1zM9.9 24c-2.2.3-6-2.1-8-1.5-.6.2-.7 1.1-.7 1.7.5 1.1 1.2 2.4 2 4 1.9 3.5 3.5 3.4 3.5 3.4.3-.1.7-.3 1-.5.6-1.4 1.4-4 2.2-7.1zM15 9c-.6 0-1-.4-1-1V6.6c0-.6.4-1 1-1s1 .4 1 1V8c0 .6-.4 1-1 1zM19 8.4c-.6 0-1-.4-1-1V6c0-.6.4-1 1-1s1 .4 1 1v1.4c0 .5-.4 1-1 1z" fill="#2196F3"/><path d="M22.7 21.1c.4.4.4 1 0 1.4l-7.6 7.6c-.4.4-1 .4-1.4 0-.4-.4-.4-1 0-1.4l7.6-7.6c.4-.3 1.1-.3 1.4 0z" fill="#607D8B"/></g></svg></defs></svg>