<?xml version="1.0" encoding="utf-8"?><svg xmlns="http://www.w3.org/2000/svg" xmlns:xlink="http://www.w3.org/1999/xlink"><defs><svg viewBox="0 0 10 14" id="i--boosted" xmlns="http://www.w3.org/2000/svg"><path d="M9.218 4.3H6.309L7.285.92A.723.723 0 0 0 6.598 0H2.624a.723.723 0 0 0-.704.523L.095 6.991a.723.723 0 0 0 .705.921h2.51l-.505 5.311a.723.723 0 0 0 .47.74l.252.037a.723.723 0 0 0 .596-.307l5.69-8.274a.723.723 0 0 0-.595-1.12V4.3zm-4.715 6.304l.307-3.36a.723.723 0 0 0-.723-.795h-2.33l1.409-5.022h2.475l-.994 3.396a.723.723 0 0 0 .705.922h2.493l-3.342 4.859z" fill="#3C505D" fill-rule="evenodd" opacity=".7"/></svg><svg viewBox="0 0 14 16" id="i--building-copy" xmlns="http://www.w3.org/2000/svg"><path d="M6.507.694c.966 0 1.75.784 1.75 1.75V6.02c.13-.03.264-.046.403-.046h3.5c.966 0 1.75.783 1.75 1.75v7.583H.09V2.444c0-.966.784-1.75 1.75-1.75h4.667zm0 1.633H1.84a.117.117 0 0 0-.116.117v11.229h4.9V2.444a.117.117 0 0 0-.117-.117zm5.653 5.279h-3.5a.117.117 0 0 0-.117.117v5.95h3.733v-5.95a.117.117 0 0 0-.116-.117zm-6.793 3.208a.583.583 0 1 1 0 1.167H2.8a.583.583 0 1 1 0-1.167h2.567zm5.221-1.75a.7.7 0 0 1 .694.605l.006.095v1.459a.7.7 0 0 1-1.393.095l-.007-.095V9.764a.7.7 0 0 1 .7-.7zm-5.221-1.75a.584.584 0 0 1 0 1.167H2.8a.584.584 0 0 1 0-1.167h2.567zm-.117-3.5a.584.584 0 0 1 0 1.167H2.8a.584.584 0 0 1 0-1.167h2.45z" fill="#3C505D" fill-rule="evenodd" opacity=".7"/></svg><svg viewBox="0 0 14 14" id="i--categories" xmlns="http://www.w3.org/2000/svg"><path d="M10.792 7.583a3.209 3.209 0 1 1 0 6.417 3.209 3.209 0 0 1 0-6.417zm-7.584 0a3.208 3.208 0 1 1 0 6.417 3.208 3.208 0 0 1 0-6.417zm7.584 1.634a1.575 1.575 0 1 0 0 3.15 1.575 1.575 0 0 0 0-3.15zm-7.584 0a1.575 1.575 0 1 0 0 3.15 1.575 1.575 0 0 0 0-3.15zM10.792 0a3.208 3.208 0 1 1 0 6.417 3.208 3.208 0 0 1 0-6.417zM3.208 0a3.209 3.209 0 1 1 0 6.417 3.209 3.209 0 0 1 0-6.417zm7.584 1.633a1.575 1.575 0 1 0 0 3.15 1.575 1.575 0 0 0 0-3.15zm-7.584 0a1.575 1.575 0 1 0 0 3.15 1.575 1.575 0 0 0 0-3.15z" fill="#3C505D" fill-rule="evenodd" opacity=".7"/></svg><svg viewBox="0 0 14 14" id="i--edit" xmlns="http://www.w3.org/2000/svg"><path d="M6.173 4.765l-5.54 5.54a2.169 2.169 0 0 0 0 3.062 2.169 2.169 0 0 0 3.062 0l5.54-5.54a3.935 3.935 0 0 0 3.606-1.054 3.96 3.96 0 0 0 .929-4.132.81.81 0 0 0-1.342-.3L10.54 4.226l-.594-.169-.17-.599 1.89-1.89A.81.81 0 0 0 11.36.23a3.981 3.981 0 0 0-4.133.93 3.935 3.935 0 0 0-1.054 3.606v-.001zm2.67-1.815l-.212.211.489 1.723 1.718.49 2.065-2.066a2.937 2.937 0 0 1-.783 2.743c-.759.758-1.864 1.02-2.9.721l-.29-.083-5.957 5.956a1.148 1.148 0 0 1-1.619 0 1.148 1.148 0 0 1 0-1.619L7.311 5.07l-.084-.29c-.299-1.037-.037-2.142.722-2.9a2.933 2.933 0 0 1 2.747-.783L8.843 2.95z" fill="#3C505D" fill-rule="evenodd" opacity=".7"/></svg><svg viewBox="0 0 14 14" id="i--extensions" xmlns="http://www.w3.org/2000/svg"><path d="M11.776 5.97a2.224 2.224 0 0 1 0 4.448h-.164v1.657A1.925 1.925 0 0 1 9.687 14H7.299a.731.731 0 0 1-.732-.731v-.896a.761.761 0 1 0-1.522 0v.896a.731.731 0 0 1-.732.731H1.925A1.925 1.925 0 0 1 0 12.075V9.687c0-.404.327-.732.731-.732h.896a.761.761 0 1 0 0-1.522H.73A.731.731 0 0 1 0 6.7V4.313C0 3.25.862 2.388 1.925 2.388h1.657v-.164a2.224 2.224 0 0 1 4.448 0v.164h1.657c1.063 0 1.925.862 1.925 1.925V5.97h.164zm-2.09 6.567a.463.463 0 0 0 .463-.462V9.687c0-.404.328-.732.732-.732h.895a.761.761 0 0 0 0-1.522h-.895a.731.731 0 0 1-.732-.732V4.313a.463.463 0 0 0-.462-.462H7.299a.731.731 0 0 1-.732-.732v-.895a.761.761 0 0 0-1.522 0v.895a.731.731 0 0 1-.732.732H1.925a.463.463 0 0 0-.462.462V5.97h.164a2.224 2.224 0 0 1 0 4.448h-.164v1.657c0 .255.207.462.462.462h1.657v-.164a2.224 2.224 0 1 1 4.448 0v.164h1.657-.001z" fill="#3C505D" fill-rule="evenodd" opacity=".7"/></svg><svg viewBox="0 0 12 14" id="i--hot" xmlns="http://www.w3.org/2000/svg"><g fill="none" fill-rule="evenodd" opacity=".7"><path d="M-1 0h14v14H-1z"/><path d="M5.18 1.68c-.15.192-.29.39-.418.595-.937 1.49-1.155 3.158-.26 4.682.299.506.316.592.255.692-.056.093-.004.073-.205.073a.346.346 0 0 1-.27-.125c-.198-.268-.247-.427-.235-1.091A1.138 1.138 0 0 0 2.509 5.42c-.243.098-.54.278-.832.576a2.727 2.727 0 0 0-.188.212c-.526.66-.721 1.173-.721 2.213 0 3.008 2.345 5.403 5.337 5.403a5.305 5.305 0 0 0 4.544-2.575c.324-.534.528-1.242.575-2.003.054-.894-.123-1.763-.575-2.509a5.163 5.163 0 0 0-.894-1.091c-.14-.134-.28-.259-.53-.477-.5-.445-.728-.71-.958-1.168a2.148 2.148 0 0 1-.191-.746 5.15 5.15 0 0 1 .056-1.286c.028-.174.055-.303.071-.367A1.138 1.138 0 0 0 6.397.42c-.453.372-.86.794-1.216 1.26H5.18zm1.502 1.713c.045.457.151.873.334 1.237.324.645.658 1.033 1.28 1.586.254.224.374.33.494.445.278.265.485.51.662.802.293.484.412 1.072.374 1.699-.033.544-.173 1.032-.374 1.362a3.906 3.906 0 0 1-3.347 1.901c-2.212 0-3.937-1.762-3.937-4.003 0-.709.08-.919.416-1.34.023-.029.047-.056.072-.083.04.634.192 1.014.501 1.431.334.45.865.692 1.395.692.639 0 1.04-.153 1.4-.745.406-.665.291-1.223-.242-2.13-.594-1.01-.447-2.14.238-3.227.102-.164.216-.324.338-.481a6.89 6.89 0 0 1 .422-.493 6.21 6.21 0 0 0-.026 1.347z" fill="#3C505D" fill-rule="nonzero"/></g></svg><svg viewBox="0 0 14 14" id="i--launch" xmlns="http://www.w3.org/2000/svg"><path d="M13.101.525c1.193 1.193.022 4.687-2.902 7.778.28 1.32-.237 2.807-1.349 3.888-.053.052-.383.395-.474.487l-.126.125c-.268.264-.477.443-.678.558a1.253 1.253 0 0 1-1.729-1.681.817.817 0 0 1-.874-.174C1.384 8.012 1.753 8.395 1.968 7.757a.817.817 0 0 1 .107-.21.586.586 0 0 0-.193.014A1.253 1.253 0 0 1 .168 5.852c.126-.22.324-.435.614-.703l.176-.159c.134-.118.517-.443.532-.456C2.579 3.491 4.016 3.02 5.288 3.289 8.478.265 11.857-.719 13.1.525h.001zM7.708 11.023c.82-.797 1.122-1.866.813-2.648a.817.817 0 0 1 .182-.877c1.5-1.5 2.471-2.987 2.934-4.302.3-.855.311-1.514.31-1.516-.043-.043-.665-.077-1.493.178-1.292.399-2.786 1.352-4.362 2.927a.817.817 0 0 1-.879.182c-.75-.299-1.786-.027-2.616.768l-.224.191c.115.01.234.025.359.043.18.027.361.062.578.107.043.01.42.092.501.108.59.116.857.809.497 1.29a9.61 9.61 0 0 1-.385.492l-.068.078a8.535 8.535 0 0 1-.019.021l.17.179c.373.387.906.92 1.597 1.598a6.83 6.83 0 0 1 .094-.057l.297-.175c.11-.066.204-.126.3-.193a.817.817 0 0 1 1.251.454c.102.368.145.782.122 1.193l.041-.04v-.001zm-3.81.507a.413.413 0 0 1 0 .585l-.585.584a.413.413 0 1 1-.584-.584l.584-.585a.413.413 0 0 1 .585 0zm-1.17-1.168a.413.413 0 0 1 0 .584l-.584.584a.413.413 0 1 1-.584-.584l.584-.584a.413.413 0 0 1 .585 0h-.001zM1.56 9.193a.413.413 0 0 1 0 .584l-.584.585a.414.414 0 1 1-.585-.585l.585-.584a.413.413 0 0 1 .584 0z" fill="#3C505D" fill-rule="nonzero" opacity=".7"/></svg><svg viewBox="0 0 14 14" id="i--time" xmlns="http://www.w3.org/2000/svg"><path d="M7 12.25a5.25 5.25 0 1 0 0-10.5 5.25 5.25 0 0 0 0 10.5zM7 14A7 7 0 1 1 7 0a7 7 0 0 1 0 14zm.058-11.667c.484 0 .875.392.875.875v4.084a.875.875 0 1 1-1.75 0V3.208c0-.483.392-.875.875-.875zm3.792 4.959a.875.875 0 0 1-.875.875H7.058a.875.875 0 1 1 0-1.75h2.917c.483 0 .875.391.875.875z" fill="#3C505D" fill-rule="nonzero" opacity=".7"/></svg><svg viewBox="0 0 14 16" id="i--company"><path d="M8.257 6.02c.13-.031.264-.047.403-.047h3.5c.966 0 1.75.783 1.75 1.75v7.583H.09V2.444c0-.966.784-1.75 1.75-1.75h4.667c.966 0 1.75.784 1.75 1.75V6.02zM6.624 2.443a.117.117 0 0 0-.117-.117H1.84a.117.117 0 0 0-.116.117v11.229h4.9V2.444zm5.652 5.279a.117.117 0 0 0-.116-.117h-3.5a.117.117 0 0 0-.117.117v5.95h3.733v-5.95zM9.888 9.764a.7.7 0 1 1 1.4 0v1.459a.7.7 0 0 1-1.4 0V9.764zM2.8 4.981a.583.583 0 0 1 0-1.167h2.45a.583.583 0 0 1 0 1.167H2.8zm0 3.5a.583.583 0 0 1 0-1.167h2.567a.583.583 0 0 1 0 1.167H2.8zm0 3.5a.583.583 0 0 1 0-1.167h2.567a.583.583 0 1 1 0 1.167H2.8z" fill="#3C505D" fill-rule="evenodd" opacity=".7"/></svg><svg viewBox="0 0 14 16" id="i--company"><path d="M8.257 6.02c.13-.031.264-.047.403-.047h3.5c.966 0 1.75.783 1.75 1.75v7.583H.09V2.444c0-.966.784-1.75 1.75-1.75h4.667c.966 0 1.75.784 1.75 1.75V6.02zM6.624 2.443a.117.117 0 0 0-.117-.117H1.84a.117.117 0 0 0-.116.117v11.229h4.9V2.444zm5.652 5.279a.117.117 0 0 0-.116-.117h-3.5a.117.117 0 0 0-.117.117v5.95h3.733v-5.95zM9.888 9.764a.7.7 0 1 1 1.4 0v1.459a.7.7 0 0 1-1.4 0V9.764zM2.8 4.981a.583.583 0 0 1 0-1.167h2.45a.583.583 0 0 1 0 1.167H2.8zm0 3.5a.583.583 0 0 1 0-1.167h2.567a.583.583 0 0 1 0 1.167H2.8zm0 3.5a.583.583 0 0 1 0-1.167h2.567a.583.583 0 1 1 0 1.167H2.8z" fill="#3C505D" fill-rule="evenodd" opacity=".7"/></svg></defs></svg>
