<svg xmlns="http://www.w3.org/2000/svg" width="94" height="25" viewBox="0 0 94 25">
  <g fill-rule="evenodd">
    <path d="M12.5705153,8.93666529 C12.5705153,5.99811693 10.0746745,4.04907975 6.66572117,4.04907975 C2.98283413,4.04907975 0.426119162,5.81820581 0.426119162,8.72676898 C0.426119162,11.605347 2.8610858,12.5948581 5.93523118,13.1046063 C9.73986656,13.7342953 10.5007936,14.2440434 10.5312307,15.4434509 C10.5616678,16.9726955 8.7658799,17.7822955 6.39178743,17.7822955 C3.37851621,17.7822955 2.46540372,16.3130214 2.37409247,15.0536435 L0,15.0536435 C0.273933747,17.5124289 1.6131654,19.8812587 6.45266159,19.8812587 C11.2008465,19.8812587 12.9053232,17.5124289 12.9053232,15.3235102 C12.9053232,12.5948581 10.6834161,11.6653173 6.78746951,11.0356284 C3.95682079,10.5858506 2.80021163,9.92617647 2.80021163,8.48688748 C2.80021163,7.04759849 4.2916287,6.14804287 6.45266159,6.14804287 C9.1311249,6.14804287 10.0746745,7.55734667 10.1964228,8.93666529 L12.5705153,8.93666529 Z M15.350608,5.9469622 L18.2463616,5.9469622 L18.2463616,16.1349693 C18.2463616,19.202454 19.24275,20 21.3289381,20 C22.0762294,20 22.916932,19.9693252 23.7887718,19.9079755 L23.7887718,17.7607362 C23.3217148,17.8220859 22.7301092,17.8527607 22.1696408,17.8527607 C21.079841,17.8527607 20.6750582,17.2392638 20.6750582,15.8588957 L20.6750582,5.9469622 L23.819909,5.9469622 L23.819909,3.98377202 L20.6750582,3.98377202 L20.6750582,7.10542736e-15 L18.2463616,7.10542736e-15 L18.2463616,3.98377202 L15.350608,3.98377202 L15.350608,5.9469622 Z M37.2088774,19.8159509 L37.2088774,17.791411 L37.1466031,17.791411 C36.0568034,19.6932515 33.6498258,19.8159509 31.843872,19.8159509 C28.1385528,19.8159509 26.2797427,18.0981595 26.2797427,15.6748466 C26.2797427,12.8527607 27.8365995,11.196319 32.1023871,10.9815951 C33.8149296,10.8895706 35.4963349,10.797546 37.2088774,10.7361963 L37.2088774,9.57055215 C37.2088774,7.60736196 36.3681747,6.01226994 33.2544611,6.01226994 C30.3898446,6.01226994 29.4557306,7.20858896 29.1443592,8.92638037 L26.7467997,8.92638037 C27.2449939,5.49079755 29.6114162,4.04907975 33.2855983,4.04907975 C37.4579745,4.04907975 39.637574,5.9202454 39.637574,9.20245399 L39.637574,16.809816 C39.637574,17.7607362 39.7621225,18.9570552 39.8555339,19.8159509 L37.2088774,19.8159509 Z M37.2088774,14.4478528 L37.2088774,12.5460123 L33.0987755,12.7300613 C30.4521189,12.8527607 28.8952621,13.5582822 28.8952621,15.5521472 C28.8952621,17.0858896 30.2543857,18.0091488 32.4651223,18.0091488 C34.5824476,18.0091488 37.2088774,17.1165644 37.2088774,14.4478528 Z M43.0626589,5.93922638 L45.9584126,5.93922638 L45.9584126,16.1349693 C45.9584126,19.202454 46.9092225,19.8159509 48.9954106,19.8159509 C49.7427019,19.8159509 50.628983,19.8773006 51.5008228,19.8159509 L51.5008228,17.7607362 C51.0337657,17.8220859 50.4421602,17.8527607 49.8816917,17.8527607 C48.7918919,17.8527607 48.3871092,17.2392638 48.3871092,15.8588957 L48.3871092,5.93922638 L51.5319599,5.93922638 L51.5319599,3.97603619 L48.3871092,3.97603619 L48.3871092,7.10542736e-15 L45.9584126,7.10542736e-15 L45.9584126,3.97603619 L43.0626589,3.97603619 L43.0626589,5.93922638 Z M91.5713034,19.5408668 L91.5713034,10.2770631 C91.5713034,7.08687908 89.8898981,6.10528399 88.1462185,6.10528399 C85.8732075,6.10528399 83.7870194,7.8230754 83.7870194,11.0132594 L83.7870194,19.5408668 L81.3583228,19.5408668 L81.3583228,4.2034435 L83.7870194,4.2034435 L83.7870194,6.81080546 L83.8492937,6.81080546 C84.9079563,4.84761528 86.5893617,3.95804473 88.8000983,3.95804473 C90.6683265,3.95804473 94,4.90896497 94,9.23411835 L94,19.5408668 L91.5713034,19.5408668 Z M56.0689419,3.98377202 L58.5800013,3.98377202 L58.5800013,19.8159509 L56.0689419,19.8159509 L56.0689419,3.98377202 Z"/>
    <g fill-rule="nonzero" transform="translate(62 4)">
      <path d="M8,13.6 C11.0927946,13.6 13.6,11.0927946 13.6,8 C13.6,4.9072054 11.0927946,2.4 8,2.4 C4.9072054,2.4 2.4,4.9072054 2.4,8 C2.4,11.0927946 4.9072054,13.6 8,13.6 Z M8,16 C3.581722,16 0,12.418278 0,8 C0,3.581722 3.581722,0 8,0 C12.418278,0 16,3.581722 16,8 C16,12.418278 12.418278,16 8,16 Z"/>
      <rect width="12" height="2" x="2" y="19"/>
    </g>
  </g>
</svg>
