<svg xmlns="http://www.w3.org/2000/svg" width="50" height="50" viewBox="0 0 50 50" xmlns:xlink="http://www.w3.org/1999/xlink">
  <defs>
    <rect id="a" width="50" height="50" rx="4"/>
    <mask id="b" width="50" height="50" x="0" y="0" fill="white">
      <use xlink:href="#a"/>
    </mask>
  </defs>
  <g fill="none" fill-rule="evenodd">
    <rect width="50" height="50" fill="#42C299" rx="4"/>
    <use stroke="#FFFFFF" stroke-opacity=".2" stroke-width="4" mask="url(#b)" opacity="0" xlink:href="#a"/>
    <path fill="#FFFFFF" d="M38.7425078,20.8748493 C41.8363708,31.187726 39.4380274,35.6486448 29.1251507,38.7425078 C18.812274,41.8363708 14.3513552,39.4380274 11.2574922,29.1251507 C8.1636292,18.812274 10.5619726,14.3513552 20.8748493,11.2574922 C31.187726,8.1636292 35.6486448,10.5619726 38.7425078,20.8748493 Z M33.5381026,27.5662275 C34.3535393,27.3024097 34.7852412,26.4150226 34.5214234,25.5995859 C34.2576056,24.7841491 33.3702185,24.3524473 32.5547818,24.6162651 L30.6121236,25.2638178 L29.3170182,21.4024849 L31.2596763,20.7549321 C32.0751131,20.4911144 32.5068149,19.6037273 32.2429971,18.7882905 C31.9791793,17.9728538 31.0917923,17.541152 30.2763555,17.8049697 L28.3336974,18.4525225 L27.6621612,16.437914 C27.3983434,15.6224772 26.5109564,15.1907754 25.6955196,15.4545932 C24.8800828,15.718411 24.448381,16.605798 24.7121988,17.4212348 L25.3837349,19.4358433 L21.3785014,20.7789156 L20.7069653,18.7643071 C20.4431475,17.9488703 19.5557604,17.5171685 18.7403237,17.7809863 C17.9248869,18.0448041 17.4931851,18.9321911 17.7570029,19.7476279 L18.428539,21.7622364 L16.4858809,22.4097891 C15.6704441,22.6736069 15.2387423,23.5609939 15.5025601,24.3764307 C15.718411,25 16.3179968,25.4077184 16.9415661,25.4317018 C17.1094502,25.4556852 17.3013176,25.4077184 17.4692017,25.3597515 L19.4118598,24.7121988 L20.7069653,28.5735317 L18.7643071,29.2210844 C17.9488703,29.4849022 17.5171685,30.3722893 17.7809863,31.187726 C17.9968372,31.8112953 18.5964231,32.2190137 19.2199924,32.2429971 C19.3878764,32.2669806 19.5797439,32.2190137 19.7476279,32.1710468 L21.6902861,31.5234941 L22.3618222,33.5381026 C22.5776731,34.1616719 23.177259,34.5693902 23.8008283,34.5933737 C23.9687123,34.6173571 24.1605798,34.5693902 24.3284638,34.5214234 C25.1439006,34.2576056 25.5756024,33.3702185 25.3117846,32.5547818 L24.6402485,30.5401733 L28.645482,29.197101 L29.3170182,31.2117095 C29.5328691,31.8352787 30.1324549,32.2429971 30.7560242,32.2669806 C30.9239082,32.290964 31.1157757,32.2429971 31.2836598,32.1950303 C32.0990965,31.9312125 32.5307983,31.0438254 32.2669806,30.2283887 L31.5954444,28.2137802 L33.5381026,27.5662275 Z M22.4415429,23.6978238 L26.4149524,22.3669286 L27.7004762,26.204881 L23.7270667,27.5357762 L22.4415429,23.6978238 Z"/>
  </g>
</svg>
