<svg xmlns="http://www.w3.org/2000/svg" xmlns:xlink="http://www.w3.org/1999/xlink"><defs><svg viewBox="0 0 42 42" id="i--badge"><g transform="translate(0 1)" fill-rule="nonzero" fill="none"><circle fill="#CFD6DB" cx="18" cy="23" r="17.75"/><ellipse stroke="#FFF" stroke-width="2" fill="#E7635D" cx="29.282" cy="11.889" rx="11.282" ry="11.111"/></g></svg><svg viewBox="0 0 40 41" id="i--magnifier"><g fill="none" fill-rule="evenodd"><g transform="rotate(-45 15.034 13.298)"><path fill="#7A8999" fill-rule="nonzero" d="M11.611 27.017h3.246v6.566h-3.246z"/><ellipse cx="12.984" cy="13.132" rx="12.984" ry="13.132" transform="translate(1 1)" fill="#A9D9FD" fill-opacity=".2" fill-rule="nonzero"/><ellipse stroke="#33475C" stroke-width="1.404" cx="13.984" cy="14.132" rx="13.686" ry="13.834"/><ellipse stroke="#7A8999" stroke-width="1.404" cx="13.984" cy="14.132" rx="12.282" ry="12.43"/><path d="M9.988 35.225h6.492v9.894a3.238 3.238 0 0 1-3.238 3.238h-.016a3.238 3.238 0 0 1-3.238-3.238v-9.894z" fill="#3070CD" fill-rule="nonzero"/><path fill="#FFF" fill-rule="nonzero" opacity=".484" d="M14.857 36.866h1.623v8.208h-1.623z"/><path d="M11.607 33.583h3.254c.894 0 1.619.725 1.619 1.62v.022H9.988v-.023c0-.894.725-1.619 1.62-1.619z" fill="#33475C" fill-rule="nonzero"/></g><path d="M14.312 6.58c-4.481 0-8.114 3.675-8.114 8.208" stroke="#FFF" stroke-width="2.429" opacity=".713" stroke-linecap="round" stroke-linejoin="round"/></g></svg><svg viewBox="0 0 34 39" id="i--mute"><g fill="none" fill-rule="evenodd"><g transform="translate(.294 .675)"><ellipse cx="4.146" cy="4.012" rx="4.146" ry="4.012" fill="#DA910B" fill-rule="nonzero" transform="translate(13.161 28.086)"/><ellipse stroke="#DA910B" stroke-width="1.351" cx="16.967" cy="2.675" rx="2.764" ry="2.675"/><path d="M32.818 27.466c-2.683-2.629-3.267-6.518-3.833-10.28-.838-5.574-1.783-11.84-10.208-12.659l-3.89.001c-8.356.826-9.293 7.089-10.124 12.66-.561 3.763-1.141 7.653-3.802 10.283a1.757 1.757 0 0 0-.381 1.988c.306.675 1.01 1.113 1.788 1.113h29.05c.779 0 1.484-.44 1.789-1.117a1.757 1.757 0 0 0-.389-1.99z" fill="#FFD429" fill-rule="nonzero"/><path d="M14.141 8.98c-4.134 1.596-4.747 5.718-5.3 9.45-.444 2.99-.902 6.08-3.005 8.17" stroke="#FFF" stroke-width="2.703" opacity=".406" stroke-linecap="round" stroke-linejoin="round"/></g><path d="M31 4L5.663 35.797" stroke="#E7635D" stroke-width="4" stroke-linecap="square"/></g></svg></defs></svg>