<svg xmlns="http://www.w3.org/2000/svg" xmlns:xlink="http://www.w3.org/1999/xlink"><defs><svg viewBox="0 0 30 32" id="i--company"><g fill-rule="nonzero" fill="none"><path d="M29.25 29.457H18.168V9.668h7.914a3.177 3.177 0 0 1 3.168 3.164v16.625z" fill="#1E88E5"/><path fill="#1976D2" d="M18.168 29.457H29.25v1.586H18.168z"/><path d="M22.918 13.625h3.164v3.168h-3.164v-3.168zm0 5.543h3.164v3.164h-3.164v-3.164zm0 5.539h3.164v3.168h-3.164v-3.168z" fill="#0D47A1"/><path fill="#64B5F6" d="M3.125.957h15.832v3.168H3.125z"/><path d="M21.332 29.457H.75V4.918c0-.871.71-1.586 1.582-1.586H19.75c.871 0 1.582.715 1.582 1.586v24.539z" fill="#90CAF9"/><path fill="#64B5F6" d="M.75 29.457h20.582v1.586H.75z"/><path d="M9.457 23.125h3.168v4.75H9.457v-4.75zm-5.539 0h3.164v4.75H3.918v-4.75zm11.082 0h3.168v4.75H15v-4.75zM9.457 12.043h3.168v3.164H9.457v-3.164zm-5.539 0h3.164v3.164H3.918v-3.164zm11.082 0h3.168v3.164H15v-3.164zm-5.543 5.539h3.168v3.168H9.457v-3.168zm-5.539 0h3.164v3.168H3.918v-3.168zm11.082 0h3.168v3.168H15v-3.168zM9.457 6.5h3.168v3.168H9.457V6.5zm-5.539 0h3.164v3.168H3.918V6.5zM15 6.5h3.168v3.168H15V6.5z" fill="#1565C0"/></g></svg><svg viewBox="0 0 30 42" id="i--lock"><g fill-rule="nonzero" fill="none"><path d="M15 0C9.486 0 5 4.486 5 10v6h4v-6c0-3.309 2.691-6 6-6s6 2.691 6 6v6h4v-6c0-5.514-4.486-10-10-10z" fill="#424242"/><circle fill="#B0BEC5" cx="15" cy="27" r="15"/><circle fill="#2196F3" cx="15" cy="27" r="9"/><circle fill="#42A5F5" cx="15" cy="27" r="4"/></g></svg></defs></svg>