<svg xmlns="http://www.w3.org/2000/svg" xmlns:xlink="http://www.w3.org/1999/xlink" width="81" height="608" viewBox="0 0 81 608"><defs><rect id="dock-grey-a" width="175" height="609" x="0" y="0"/><path id="dock-grey-d" d="M16.2,0 L1208.8,0 C1217.74701,-1.64353962e-15 1225,7.25298705 1225,16.2 L1225,566.8 C1225,575.747013 1217.74701,583 1208.8,583 L16.2,583 C7.25298705,583 4.72809709e-14,575.747013 0,566.8 L0,16.2 C-1.09569308e-15,7.25298705 7.25298705,-9.01460142e-15 16.2,0 Z"/><filter id="dock-grey-c" width="103.7%" height="107.7%" x="-2.1%" y="-3.9%" filterUnits="objectBoundingBox"><feOffset dx="-3" in="SourceAlpha" result="shadowOffsetOuter1"/><feGaussianBlur in="shadowOffsetOuter1" result="shadowBlurOuter1" stdDeviation="7"/><feColorMatrix in="shadowBlurOuter1" values="0 0 0 0 0.235294118   0 0 0 0 0.31372549   0 0 0 0 0.364705882  0 0 0 0.0799825175 0"/></filter><rect id="dock-grey-e" width="13" height="13" x="0" y="0"/></defs><g fill="none" fill-rule="evenodd" transform="translate(-94)"><mask id="dock-grey-b" fill="#fff"><use xlink:href="#dock-grey-a"/></mask><g mask="url(#dock-grey-b)"><g transform="translate(111 11)"><use fill="#000" filter="url(#dock-grey-c)" xlink:href="#dock-grey-d"/><use fill="#E7ECF0" xlink:href="#dock-grey-d"/><path fill="#F0F3F5" d="M0,64.5330098 C0,45.3478965 0,54.5702266 0,16.2 C0,7.25298705 7.25298705,0 16.2,0 L62.231608,0 L62.2358842,65.385007 L0,64.5330098 Z"/><path fill="#FBFBFB" d="M62.2556275,510 L62.2615125,583 L16.2,583 C7.25298705,583 0,577.647477 0,571.044805 C0,528.938285 0,530.013762 0,510.271235 L62.2556275,510 Z" opacity=".449"/><circle cx="30.5" cy="563.5" r="5.5" fill="#3C505D" opacity=".303"/><path fill="#3C505D" d="M5.44253646,1.725625 L5.49606979,1.67209167 C6.08796146,1.09541667 6.79828646,0.597116667 7.71174479,0.597116667 C8.62529479,0.597116667 9.33039479,0.895766667 9.94318646,1.524325 C10.5560698,2.13711667 10.8546281,2.93855833 10.8546281,3.74 C10.8546281,4.54144167 10.5560698,5.34288333 9.94318646,5.95576667 C9.42801979,6.47093333 7.95997813,7.886175 7.73016979,8.11598333 L6.70194479,9.19700833 L5.49606979,10.4028833 L1.06462812,5.95576667 C-0.161046875,4.73 -0.161046875,2.734325 1.06462812,1.50855833 C1.67751146,0.895858333 2.23209479,0.597116667 3.28048646,0.597116667 C4.32869479,0.597116667 4.77905312,1.09413333 5.38386979,1.66833333 L5.44262812,1.725625 L5.44253646,1.725625 Z" opacity=".303" transform="translate(25 540)"/><g opacity=".303" transform="translate(25 520)"><mask id="dock-grey-f" fill="#fff"><use xlink:href="#dock-grey-e"/></mask><path fill="#3C505D" d="M5.59722222,5.59722222 L5.59722222,1.98611111 C5.59722222,1.48750694 6.00139583,1.08333333 6.5,1.08333333 C6.99860417,1.08333333 7.40277778,1.48750694 7.40277778,1.98611111 L7.40277778,5.59722222 L11.0138889,5.59722222 C11.5124931,5.59722222 11.9166667,6.00139583 11.9166667,6.5 C11.9166667,6.99860417 11.5124931,7.40277778 11.0138889,7.40277778 L7.40277778,7.40277778 L7.40277778,11.0138889 C7.40277778,11.5124931 6.99860417,11.9166667 6.5,11.9166667 C6.00139583,11.9166667 5.59722222,11.5124931 5.59722222,11.0138889 L5.59722222,7.40277778 L1.98611111,7.40277778 C1.48750694,7.40277778 1.08333333,6.99860417 1.08333333,6.5 C1.08333333,6.00139583 1.48750694,5.59722222 1.98611111,5.59722222 L5.59722222,5.59722222 Z" mask="url(#dock-grey-f)"/></g><line x1="62.4" x2="62.5" y1="2.8" y2="580.8" stroke="#DAE0E4" stroke-linecap="square" stroke-width="4.8"/><circle cx="15" cy="15" r="5" fill="#3C505D" fill-opacity=".348" opacity=".298"/><circle cx="30" cy="15" r="5" fill="#3C505D" fill-opacity=".348" opacity=".298"/><circle cx="45" cy="15" r="5" fill="#3C505D" fill-opacity=".348" opacity=".298"/><path fill="#9EA8AD" d="M35.5802114,45.4606641 L39.6117993,49.6492102 C40.1294002,50.1869624 40.1294002,51.0589336 39.6117993,51.5966858 C39.0941983,52.1344381 38.2549027,52.1344381 37.7373018,51.5966858 L33.4333272,47.1250108 C32.5550176,47.5517439 31.5970187,47.7722521 30.6274131,47.7708643 C26.9672254,47.7708643 24,44.6881186 24,40.8854321 C24,37.0827457 26.9672254,34 30.6274131,34 C34.2876007,34 37.2548261,37.0827457 37.2548261,40.8854321 C37.2548261,42.6416305 36.6219082,44.2442837 35.5802114,45.4606641 Z M30.6274131,45.0166914 C32.8236052,45.0166914 34.6038609,43.1671267 34.6038609,40.8854321 C34.6038609,38.6037376 32.8236052,36.7541729 30.6274131,36.7541729 C28.4312209,36.7541729 26.6509652,38.6037376 26.6509652,40.8854321 C26.6509652,43.1671267 28.4312209,45.0166914 30.6274131,45.0166914 Z" opacity=".298"/></g></g></g></svg>