<svg xmlns="http://www.w3.org/2000/svg" width="20" height="23" viewBox="0 0 20 23">
    <defs>
        <linearGradient id="a" x1="50%" x2="50%" y1="100%" y2="0%">
            <stop offset="0%" stop-color="#1410B8"/>
            <stop offset="100%" stop-color="#4ED8E4"/>
        </linearGradient>
    </defs>
    <path fill="url(#a)" fill-rule="nonzero" d="M13.383 5.9h-7.69c.344 1.747 1.935 3.068 3.845 3.068 1.91 0 3.501-1.321 3.845-3.068zm0-1.416c-.344-1.747-1.934-3.068-3.845-3.068-1.91 0-3.5 1.32-3.844 3.068h7.689zM4.207 5.9h-2.74V19.35c0 .782.657 1.416 1.468 1.416h13.207c.81 0 1.467-.634 1.467-1.416V5.9h-2.74c-.357 2.532-2.608 4.484-5.33 4.484-2.723 0-4.974-1.952-5.332-4.484zm0-1.416C4.565 1.95 6.816 0 9.538 0c2.723 0 4.974 1.951 5.331 4.484h3.719c.27 0 .489.211.489.472V19.35c0 1.564-1.314 2.832-2.935 2.832H2.935C1.314 22.183 0 20.915 0 19.351V4.956a.48.48 0 0 1 .49-.472h3.717zm1.94 9.375v-1.416h7.109v1.416H6.147zm0-1.416h7.109v1.416H6.147v-1.416zm-.458-7.96a4.01 4.01 0 0 0 0 1.417h7.703a4.275 4.275 0 0 0 0-1.416H5.69z"/>
</svg>
