<svg xmlns="http://www.w3.org/2000/svg" width="22" height="22" viewBox="0 0 22 22">
  <path fill="#FFFFFF" fill-rule="evenodd" d="M9.8709485,12.7553696 L8.23414749,11.1185686 C7.94053348,10.8249546 7.45171033,10.8231814 7.15130703,11.1235847 C6.84880937,11.4260824 6.84865794,11.9087922 7.14629091,12.2064252 L9.33203633,14.3921706 C9.47845356,14.5385879 9.67341427,14.6124318 9.86934579,14.6124207 C10.069358,14.6132888 10.2637604,14.5382709 10.4124713,14.38956 L15.312637,9.48939434 C15.6122003,9.18983099 15.6106347,8.70434658 15.3102314,8.40394328 C15.0077338,8.10144562 14.5238551,8.10246299 14.2247804,8.40153776 L9.8709485,12.7553696 Z M11,21 C5.4771525,21 1,16.5228475 1,11 C1,5.4771525 5.4771525,1 11,1 C16.5228475,1 21,5.4771525 21,11 C21,16.5228475 16.5228475,21 11,21 Z"/>
</svg>
