<svg xmlns="http://www.w3.org/2000/svg" width="24" height="24" viewBox="0 0 24 24">
  <path fill="#000000" d="M12,16.5 C14.4852814,16.5 16.5,14.4852814 16.5,12 C16.5,9.51471863 14.4852814,7.5 12,7.5 C9.51471863,7.5 7.5,9.51471863 7.5,12 C7.5,14.4852814 9.51471863,16.5 12,16.5 Z M12,18 C8.6862915,18 6,15.3137085 6,12 C6,8.6862915 8.6862915,6 12,6 C15.3137085,6 18,8.6862915 18,12 C18,15.3137085 15.3137085,18 12,18 Z M12.0500002,8 L12.0500002,8 L12.0500002,8 C12.4642138,8 12.8000002,8.33578644 12.8000002,8.75 L12.8000002,12.25 L12.8000002,12.25 C12.8000002,12.6642136 12.4642138,13 12.0500002,13 L12.0500002,13 L12.0500002,13 C11.6357866,13 11.3000002,12.6642136 11.3000002,12.25 L11.3000002,8.75 L11.3000002,8.75 C11.3000002,8.33578644 11.6357866,8 12.0500002,8 Z M15.3000002,12.25 L15.3000002,12.25 L15.3000002,12.25 C15.3000002,12.6642136 14.9642138,13 14.5500002,13 L12.0500002,13 L12.0500002,13 C11.6357866,13 11.3000002,12.6642136 11.3000002,12.25 L11.3000002,12.25 L11.3000002,12.25 C11.3000002,11.8357864 11.6357866,11.5 12.0500002,11.5 L14.5500002,11.5 L14.5500002,11.5 C14.9642138,11.5 15.3000002,11.8357864 15.3000002,12.25 Z"/>
</svg>
