<svg xmlns="http://www.w3.org/2000/svg" width="24" height="24" viewBox="0 0 24 24">
  <path fill="#000000" d="M13.9010936,13.5203675 C13.8723566,13.0200376 14.032505,12.5271518 14.3498402,12.1392676 L15.3441068,10.9239587 L13.8253876,10.5251684 C13.3406654,10.3978885 12.9213916,10.0932683 12.6505538,9.67160174 L11.8019717,8.35044691 L10.9533895,9.67160174 C10.6825517,10.0932683 10.263278,10.3978885 9.77855578,10.5251684 L8.25983656,10.9239587 L9.25410317,12.1392676 C9.5714384,12.5271518 9.73158671,13.0200376 9.70284974,13.5203675 L9.61281179,15.0879883 L11.0758845,14.5179356 C11.5428463,14.3359947 12.0610971,14.3359947 12.5280589,14.5179356 L13.9911316,15.0879883 L13.9010936,13.5203675 Z M8.70670409,17.0508679 C8.44940231,17.1511196 8.15954793,17.0238054 8.05929621,16.7665037 C8.03324441,16.6996402 8.02189018,16.6279525 8.02600498,16.5563111 L8.20531781,13.4343552 C8.21250205,13.3092727 8.17246497,13.1860512 8.09313117,13.0890802 L6.1130244,10.6687623 C5.93816873,10.4550332 5.96968182,10.1400231 6.18341087,9.96516738 C6.23895134,9.91972869 6.30362179,9.88677745 6.37302833,9.86855245 L9.39759554,9.07435166 C9.5187761,9.04253167 9.62359453,8.96637662 9.69130398,8.86095999 L11.3812765,6.22984717 C11.5305115,5.99750363 11.8398421,5.93013088 12.0721856,6.0793659 C12.1325633,6.1181467 12.1838861,6.16946946 12.2226669,6.22984717 L13.9126394,8.86095999 C13.9803488,8.96637662 14.0851673,9.04253167 14.2063478,9.07435166 L17.230915,9.86855245 C17.498003,9.9386853 17.6576667,10.2120568 17.5875339,10.4791448 C17.5693089,10.5485513 17.5363576,10.6132218 17.490919,10.6687623 L15.5108122,13.0890802 C15.4314784,13.1860512 15.3914413,13.3092727 15.3986256,13.4343552 L15.5779384,16.5563111 C15.5937728,16.8319991 15.3831199,17.0683247 15.1074318,17.0841592 C15.0357905,17.088274 14.9641027,17.0769197 14.8972393,17.0508679 L11.9834935,15.9155939 C11.866753,15.8701086 11.7371903,15.8701086 11.6204499,15.9155939 L8.70670409,17.0508679 Z"/>
</svg>
