<svg xmlns="http://www.w3.org/2000/svg" width="24" height="24" viewBox="0 0 24 24">
  <path fill="#000000" fill-rule="evenodd" d="M11.266171,12.8255386 L11.266171,6.75 L11.266171,6.75 C11.266171,6.33578644 11.6019575,6 12.016171,6 C12.4303846,6 12.766171,6.33578644 12.766171,6.75 L12.766171,12.8223304 L14.2807304,11.5457667 C14.5746377,11.2980435 15.0092606,11.3165398 15.2810586,11.5883378 L15.2810586,11.5883378 C15.5310282,11.8383074 15.5310282,12.2435883 15.2810586,12.4935579 C15.2720054,12.5026111 15.2626825,12.5113907 15.2531027,12.5198847 L12.6314501,14.8443994 L12.6314501,14.8443994 C12.4563236,14.9996771 12.2342419,15.0737331 12.0142679,15.0656298 C11.7942938,15.0737331 11.5722121,14.9996771 11.3970857,14.8443994 L11.3970857,14.8443994 L8.77543301,12.5198847 C8.7658532,12.5113907 8.75653038,12.5026111 8.74747716,12.4935579 C8.49750754,12.2435883 8.49750754,11.8383074 8.74747716,11.5883378 L8.74747716,11.5883378 C9.01927516,11.3165398 9.45389804,11.2980435 9.74780539,11.5457667 L11.266171,12.8255386 Z M6.75,16.5 L17.25,16.5 C17.6642136,16.5 18,16.8357864 18,17.25 C18,17.6642136 17.6642136,18 17.25,18 L6.75,18 C6.33578644,18 6,17.6642136 6,17.25 C6,16.8357864 6.33578644,16.5 6.75,16.5 L6.75,16.5 Z"/>
</svg>
