<svg xmlns="http://www.w3.org/2000/svg" width="36" height="18" viewBox="0 0 36 18">
  <g fill="#FFFFFF" fill-rule="evenodd">
    <path d="M12.6838993,11.2751149 L17.7131669,16.3043825 C18.1004016,16.6916171 18.1016623,17.3181877 17.709925,17.709925 C17.3208999,18.0989501 16.6845663,18.0933508 16.3043825,17.7131669 L11.2749921,12.6837766 C10.0962757,13.5696795 8.63180917,14.0947044 7.0473522,14.0947044 C3.15520705,14.0947044 0,10.9315776 0,7.0473522 C0,3.15520705 3.16312679,0 7.0473522,0 C10.9394973,0 14.0947044,3.16312679 14.0947044,7.0473522 C14.0947044,8.63356924 13.5693362,10.0973872 12.6838993,11.2751149 Z M1.99232209,6.97312733 C1.99232209,9.71835273 4.22230455,11.9539326 6.97312733,11.9539326 C9.71835273,11.9539326 11.9539326,9.7239501 11.9539326,6.97312733 C11.9539326,4.22790193 9.7239501,1.99232209 6.97312733,1.99232209 C4.22790193,1.99232209 1.99232209,4.22230455 1.99232209,6.97312733 Z"/>
    <rect width="16" height="2" x="20" y="9" rx="1"/>
    <rect width="12" height="2" x="18" y="5" rx="1"/>
    <rect width="8" height="2" x="16" y="1" rx="1"/>
  </g>
</svg>
