<svg xmlns="http://www.w3.org/2000/svg" width="24" height="24" viewBox="0 0 24 24">
  <path fill="#000000" fill-rule="evenodd" d="M13.2352814,11.7352814 L13.2352814,7.23528137 C13.2352814,6.82106781 12.8994949,6.48528137 12.4852814,6.48528137 C12.0710678,6.48528137 11.7352814,6.82106781 11.7352814,7.23528137 L11.7352814,7.23528137 L11.7352814,11.7352814 L7.23528137,11.7352814 C6.82106781,11.7352814 6.48528137,12.0710678 6.48528137,12.4852814 C6.48528137,12.8994949 6.82106781,13.2352814 7.23528137,13.2352814 L11.7352814,13.2352814 L11.7352814,17.7352814 C11.7352814,18.1494949 12.0710678,18.4852814 12.4852814,18.4852814 C12.8994949,18.4852814 13.2352814,18.1494949 13.2352814,17.7352814 L13.2352814,13.2352814 L17.7352814,13.2352814 C18.1494949,13.2352814 18.4852814,12.8994949 18.4852814,12.4852814 C18.4852814,12.0710678 18.1494949,11.7352814 17.7352814,11.7352814 L13.2352814,11.7352814 Z" transform="rotate(45 12.485 12.485)"/>
</svg>
