<svg xmlns="http://www.w3.org/2000/svg" width="24" height="24" viewBox="0 0 24 24">
  <path fill="#000000" d="M9.19108442,13.5530255 C11.5177388,14.9401577 14.455954,14.4059897 16.1609488,12.4172187 C15.7846464,11.9773076 15.3396397,11.5983182 14.8413771,11.2958596 C12.5137971,9.88295635 9.5516958,10.4099523 7.83937666,12.4160705 C8.22427427,12.8640753 8.68033461,13.2485207 9.19108442,13.5530255 Z M6,12.4186009 L6.03751852,12.3567939 C7.3693407,10.1627846 9.71813508,8.96485394 12.111508,9.00078551 C13.3104788,9.01878559 14.5206368,9.34643 15.6197355,10.0136122 C16.5985226,10.6077621 17.4159958,11.4337266 18,12.4186009 C16.0244154,15.7322741 11.7366247,16.8170091 8.42295157,14.8414245 C7.43809797,14.2542629 6.61292295,13.4336963 6.02025505,12.4521464 L6,12.4186009 Z M12,15.1686009 C10.4812169,15.1686009 9.25,13.937384 9.25,12.4186009 C9.25,10.8998178 10.4812169,9.66860089 12,9.66860089 C13.5187831,9.66860089 14.75,10.8998178 14.75,12.4186009 C14.75,13.937384 13.5187831,15.1686009 12,15.1686009 Z M12,13.6686009 C12.6903559,13.6686009 13.25,13.1089568 13.25,12.4186009 C13.25,11.728245 12.6903559,11.1686009 12,11.1686009 C11.3096441,11.1686009 10.75,11.728245 10.75,12.4186009 C10.75,13.1089568 11.3096441,13.6686009 12,13.6686009 Z"/>
</svg>
