<svg xmlns="http://www.w3.org/2000/svg" width="15" height="10" viewBox="0 0 15 10">
  <path fill="#FFFFFF" fill-rule="evenodd" d="M6,8 L14,8 C14.5522847,8 15,8.44771525 15,9 C15,9.55228475 14.5522847,10 14,10 L6,10 C5.44771525,10 5,9.55228475 5,9 C5,8.44771525 5.44771525,8 6,8 Z M3,4 L14,4 C14.5522847,4 15,4.44771525 15,5 C15,5.55228475 14.5522847,6 14,6 L3,6 L3,4 Z M3,2 L3,8 L0.366173765,5.7620545 L0.366173765,5.7620545 C-0.0546973132,5.404443 -0.105979338,4.77335819 0.251632156,4.35248711 C0.286652421,4.31127195 0.3249586,4.27296577 0.366173765,4.2379455 L3,2 Z M6,0 L14,0 C14.5522847,-1.01453063e-16 15,0.44771525 15,1 L15,1 C15,1.55228475 14.5522847,2 14,2 L6,2 C5.44771525,2 5,1.55228475 5,1 L5,1 L5,1 C5,0.44771525 5.44771525,1.01453063e-16 6,0 Z"/>
</svg>
