<svg xmlns="http://www.w3.org/2000/svg" width="24" height="24" viewBox="0 0 24 24">
  <path fill="#000000" fill-rule="evenodd" d="M12.001336,18 L9.89504279,18 C9.38549358,18 8.95742936,17.6168642 8.90115906,17.1104315 L8.16666667,10.5 L6.75,10.5 C6.33578644,10.5 6,10.1642136 6,9.75 C6,9.33578644 6.33578644,9 6.75,9 L6.75,9 L17.25,9 C17.6642136,9 18,9.33578644 18,9.75 C18,10.1642136 17.6642136,10.5 17.25,10.5 L9.67589752,10.5 L10.3425642,16.5 L12.002004,16.5 L13.6614438,16.5 L14.0746563,12.8791341 L15.5829596,12.8791341 L15.4130724,14.3803621 L15.1011805,17.1133839 C15.0435344,17.6185198 14.6160438,18 14.1076292,18 L12.001336,18 Z M9.75,6 L14.25,6 C14.6642136,6 15,6.33578644 15,6.75 L15,6.75 C15,7.16421356 14.6642136,7.5 14.25,7.5 L9.75,7.5 C9.33578644,7.5 9,7.16421356 9,6.75 L9,6.75 L9,6.75 C9,6.33578644 9.33578644,6 9.75,6 Z"/>
</svg>
