<svg xmlns="http://www.w3.org/2000/svg" width="24" height="24" viewBox="0 0 24 24">
  <path fill="#000000" fill-rule="evenodd" d="M14,14 L14,17 C14,17.5522847 13.5522847,18 13,18 L7,18 C6.44771525,18 6,17.5522847 6,17 L6,11 C6,10.4477153 6.44771525,10 7,10 L7,10 L10,10 L10,7 L10,7 C10,6.44771525 10.4477153,6 11,6 L17,6 C17.5522847,6 18,6.44771525 18,7 L18,13 C18,13.5522847 17.5522847,14 17,14 L14,14 Z M14,12 L16,12 L16,8 L12,8 L12,10 L13,10 C13.5522847,10 14,10.4477153 14,11 L14,12 Z M8,12 L8,16 L12,16 L12,12 L8,12 Z"/>
</svg>
