<?xml version="1.0" encoding="UTF-8"?>
<svg width="284px" height="71px" viewBox="0 0 284 71" version="1.1" xmlns="http://www.w3.org/2000/svg" xmlns:xlink="http://www.w3.org/1999/xlink">
    <!-- Generator: Sketch 60 (88103) - https://sketch.com -->
    <title>img notif</title>
    <desc>Created with Sketch.</desc>
    <defs>
        <path d="M1.35969904,15.6784696 C1.14649929,15.5744115 0.972322023,15.3990744 0.874604711,15.1763985 C0.712651158,14.8075929 0.79208552,14.3804098 1.07614691,14.0902761 C2.48308627,12.6533877 2.78976975,10.5277448 3.08642751,8.47200464 C3.52575865,5.42760503 4.02138795,2.00563072 8.43963511,1.55464567 L8.43963511,1.00218899 C8.43963511,0.448730122 8.90004593,0 9.46791163,0 C10.0357773,0 10.4961882,0.448730122 10.4961882,1.00218899 L10.4961882,1.55389403 C12.1807447,1.72328656 13.2997787,2.31807904 14.0640718,3.15701668 L15.4923002,1.7493521 C16.1164161,1.13422245 17.1199215,1.13786076 17.7395606,1.75749976 C17.742247,1.76018632 17.7449238,1.76288259 17.7475909,1.76558855 C18.3569862,2.38388628 18.3497695,3.3791282 17.7314716,3.98852357 L15.4958128,6.19199309 C15.6713931,6.94091771 15.7844899,7.71750564 15.8941257,8.47100245 C16.1930972,10.525991 16.5020942,12.6511327 17.9208587,14.0872696 C18.2067198,14.3769022 18.2876965,14.8048369 18.126257,15.1743941 C17.9648176,15.5444524 17.5923245,15.7844766 17.1799856,15.7844766 L12.8077538,15.7844766 C12.7843605,17.5611072 11.2964444,19 9.46791163,19 C7.63937891,19 6.1512057,17.5611072 6.12806948,15.7844766 L5.76319731,15.7844766 L3.05017933,18.4584321 C2.42606356,19.0735617 1.42255807,19.0699235 0.802919065,18.4502844 C0.800232514,18.4475978 0.797555712,18.4449015 0.79488871,18.4421956 C0.185493338,17.8238979 0.192710127,16.8286559 0.811007861,16.2192605 L1.35969904,15.6784696 Z M9.47082876,16.9435499 C10.1018166,16.9435499 10.6145527,16.4486148 10.6353519,15.8333333 L9.47082876,15.8333333 L8.30630559,15.8333333 C8.32710482,16.4486148 8.83984088,16.9435499 9.47082876,16.9435499 Z M4.74725868,12.4181593 C4.74725868,12.4181593 12.2564761,4.9164185 12.2564761,4.9164185 C11.701573,4.30662591 10.854205,4.00702302 9.47082876,4.00702302 C6.34720511,4.00702302 5.98543874,5.56738952 5.52107841,8.81352142 C5.35407766,9.97982679 5.17469626,11.2336523 4.74725868,12.4181593 Z M9.47082876,13.4234237 L14.6830222,13.4234237 C13.9162551,11.9654893 13.3718285,8.29933473 13.3718285,8.29933473 C13.3718285,8.29933473 8.25253551,13.4234237 8.25253551,13.4234237 C8.25253551,13.4234237 8.65863326,13.4234237 9.47082876,13.4234237 Z" id="path-1"></path>
        <path d="M15.4747391,15.274375 C15.6125037,15.274375 15.7494554,15.3120833 15.8744189,15.3845833 L17.4471293,16.3079167 L17.1464043,15.0772917 C17.0549677,14.69875 17.1754608,14.2960417 17.4522091,14.0575 C18.4783315,13.1716667 19.0446292,12.0629167 19.0446292,10.935625 C19.0446292,8.31333333 16.0312835,6.09854167 12.4664732,6.09854167 C8.90166293,6.09854167 5.89014597,8.313125 5.89014597,10.9354167 C5.89014597,13.556875 8.90145974,15.7716667 12.4664732,15.7716667 C13.4212751,15.7716667 14.3474268,15.618125 15.2211548,15.3166667 C15.3028639,15.2887353 15.3884054,15.2743873 15.4745359,15.2741667 L15.4747391,15.274375 Z M18.0414675,18.8385417 L15.3816769,17.2758333 C14.4473975,17.5597917 13.4686189,17.70375 12.4664732,17.70375 C7.88996716,17.70375 4.16666667,14.6679167 4.16666667,10.935625 C4.16666667,7.20333333 7.88996716,4.16666667 12.4664732,4.16666667 C17.0437921,4.16666667 20.7679053,7.20333333 20.7679053,10.935625 C20.7679053,12.4877083 20.1278488,13.9695833 18.9548181,15.1652083 L19.52457,17.50375 C19.6450632,17.9991667 19.5235541,18.4685417 19.2023066,18.7575 C19.0239036,18.9179167 18.8119737,18.9979167 18.5894779,18.9979167 C18.4094493,18.9979167 18.2225121,18.9458333 18.0414675,18.8385417 L18.0414675,18.8385417 Z" id="path-3"></path>
    </defs>
    <g id="🎬-Onboarding" stroke="none" stroke-width="1" fill="none" fill-rule="evenodd">
        <g id="template/popup/first-notification" transform="translate(-76.000000, -269.000000)">
            <g id="img-notif" transform="translate(80.000000, 269.000000)">
                <circle id="Oval" stroke="#E8E8E8" stroke-width="4" fill="#B9C0C5" cx="20.5" cy="39.5" r="22.5"></circle>
                <path d="M65,9 L253,9 C255.209139,9 257,10.790861 257,13 L257,67 C257,69.209139 255.209139,71 253,71 L65,71 C62.790861,71 61,69.209139 61,67 L61,13 C61,10.790861 62.790861,9 65,9 Z" id="Rectangle" fill="#3C505D" opacity="0.356050037"></path>
                <rect id="Rectangle" fill="#FFFFFF" x="81" y="29" width="65" height="9" rx="4.5"></rect>
                <rect id="Rectangle" fill="#FFFFFF" opacity="0.680385045" x="81" y="44" width="86" height="7" rx="3.5"></rect>
                <g id="icon/i--bell-off" transform="translate(218.000000, 28.000000)">
                    <mask id="mask-2" fill="white">
                        <use xlink:href="#path-1"></use>
                    </mask>
                    <use id="icon--bell-off" fill="#000000" fill-rule="nonzero" xlink:href="#path-1"></use>
                    <g id="colors/plain/c--greydark" mask="url(#mask-2)" fill="#3070CD" fill-rule="evenodd">
                        <rect id="Rectangle" x="0" y="0" width="19" height="19"></rect>
                    </g>
                </g>
                <rect id="Rectangle" fill="#3070CD" x="155" y="0" width="125" height="19" rx="9.5"></rect>
                <path d="M171.641602,14 L171.641602,12.7226562 L167.680664,12.7226562 L167.680664,10.3085938 L171.424805,10.3085938 L171.424805,9.10742188 L167.680664,9.10742188 L167.680664,6.82226562 L171.641602,6.82226562 L171.641602,5.54492188 L166.168945,5.54492188 L166.168945,14 L171.641602,14 Z M174.266602,14 L174.266602,10.4023438 C174.266602,9.51171875 174.799805,8.90820312 175.637695,8.90820312 C176.469727,8.90820312 176.879883,9.40039062 176.879883,10.2792969 L176.879883,14 L178.338867,14 L178.338867,9.98632812 C178.338867,8.55078125 177.55957,7.671875 176.188477,7.671875 C175.233398,7.671875 174.571289,8.1171875 174.237305,8.85546875 L174.208008,8.85546875 L174.208008,7.7890625 L172.807617,7.7890625 L172.807617,14 L174.266602,14 Z M181.333008,14.0996094 C182.129883,14.0996094 182.90918,13.6835938 183.266602,13.0097656 L183.295898,13.0097656 L183.295898,14 L184.702148,14 L184.702148,9.72265625 C184.702148,8.47460938 183.700195,7.66015625 182.15918,7.66015625 C180.577148,7.66015625 179.586914,8.4921875 179.522461,9.65234375 L180.875977,9.65234375 C180.969727,9.13671875 181.40918,8.80273438 182.100586,8.80273438 C182.821289,8.80273438 183.260742,9.17773438 183.260742,9.828125 L183.260742,10.2734375 L181.620117,10.3671875 C180.108398,10.4609375 179.258789,11.1230469 179.258789,12.2246094 C179.258789,13.34375 180.131836,14.0996094 181.333008,14.0996094 Z M181.772461,12.9980469 C181.139648,12.9980469 180.717773,12.6757812 180.717773,12.1660156 C180.717773,11.6738281 181.12207,11.3574219 181.825195,11.3105469 L183.260742,11.2226562 L183.260742,11.6972656 C183.260742,12.4472656 182.598633,12.9980469 181.772461,12.9980469 Z M189.348633,14.0996094 C190.918945,14.0996094 191.90918,12.8808594 191.90918,10.8945312 C191.90918,8.90820312 190.913086,7.68359375 189.348633,7.68359375 C188.469727,7.68359375 187.760742,8.12890625 187.40918,8.85546875 L187.374023,8.85546875 L187.374023,5.54492188 L185.915039,5.54492188 L185.915039,14 L187.344727,14 L187.344727,12.9394531 L187.374023,12.9394531 C187.737305,13.6601562 188.43457,14.0996094 189.348633,14.0996094 Z M188.897461,12.9042969 C187.995117,12.9042969 187.368164,12.1132812 187.368164,10.8945312 C187.368164,9.6875 187.995117,8.88476562 188.897461,8.88476562 C189.829102,8.88476562 190.415039,9.6640625 190.415039,10.8945312 C190.415039,12.1308594 189.834961,12.9042969 188.897461,12.9042969 Z M194.352539,14 L194.352539,5.54492188 L192.893555,5.54492188 L192.893555,14 L194.352539,14 Z M198.325195,14.1230469 C199.795898,14.1230469 200.885742,13.3144531 201.073242,12.1425781 L199.708008,12.1425781 C199.549805,12.6582031 199.03418,12.9980469 198.354492,12.9980469 C197.399414,12.9980469 196.790039,12.3300781 196.790039,11.3339844 L196.790039,11.2460938 L201.131836,11.2460938 L201.131836,10.7714844 C201.131836,8.88476562 200.030273,7.66015625 198.266602,7.66015625 C196.473633,7.66015625 195.336914,8.95507812 195.336914,10.9179688 C195.336914,12.8984375 196.461914,14.1230469 198.325195,14.1230469 Z M199.702148,10.2851562 L196.801758,10.2851562 C196.860352,9.41796875 197.452148,8.79101562 198.272461,8.79101562 C199.110352,8.79101562 199.672852,9.40625 199.702148,10.2851562 Z M205.930664,14 L205.930664,10.4023438 C205.930664,9.51171875 206.463867,8.90820312 207.301758,8.90820312 C208.133789,8.90820312 208.543945,9.40039062 208.543945,10.2792969 L208.543945,14 L210.00293,14 L210.00293,9.98632812 C210.00293,8.55078125 209.223633,7.671875 207.852539,7.671875 C206.897461,7.671875 206.235352,8.1171875 205.901367,8.85546875 L205.87207,8.85546875 L205.87207,7.7890625 L204.47168,7.7890625 L204.47168,14 L205.930664,14 Z M213.916992,14.1230469 C215.739258,14.1230469 216.922852,12.9101562 216.922852,10.8945312 C216.922852,8.88476562 215.727539,7.66015625 213.916992,7.66015625 C212.106445,7.66015625 210.911133,8.890625 210.911133,10.8945312 C210.911133,12.9101562 212.094727,14.1230469 213.916992,14.1230469 Z M213.916992,12.96875 C212.991211,12.96875 212.393555,12.21875 212.393555,10.8945312 C212.393555,9.57617188 212.99707,8.8203125 213.916992,8.8203125 C214.842773,8.8203125 215.44043,9.57617188 215.44043,10.8945312 C215.44043,12.21875 214.842773,12.96875 213.916992,12.96875 Z M220.133789,14.0292969 C220.444336,14.0292969 220.731445,14.0058594 220.889648,13.9707031 L220.889648,12.8574219 C220.795898,12.875 220.608398,12.8867188 220.473633,12.8867188 C219.958008,12.8867188 219.723633,12.6523438 219.723633,12.1425781 L219.723633,8.9140625 L220.895508,8.9140625 L220.895508,7.7890625 L219.723633,7.7890625 L219.723633,6.3359375 L218.264648,6.3359375 L218.264648,7.7890625 L217.374023,7.7890625 L217.374023,8.9140625 L218.264648,8.9140625 L218.264648,12.3476562 C218.264648,13.5546875 218.791992,14.0292969 220.133789,14.0292969 Z M222.641602,6.8515625 C223.092773,6.8515625 223.444336,6.49414062 223.444336,6.06054688 C223.444336,5.62109375 223.092773,5.26953125 222.641602,5.26953125 C222.202148,5.26953125 221.844727,5.62109375 221.844727,6.06054688 C221.844727,6.49414062 222.202148,6.8515625 222.641602,6.8515625 Z M223.379883,14 L223.379883,7.7890625 L221.920898,7.7890625 L221.920898,14 L223.379883,14 Z M226.467773,14 L226.467773,8.9140625 L227.686523,8.9140625 L227.686523,7.80664062 L226.444336,7.80664062 L226.444336,7.296875 C226.444336,6.79296875 226.696289,6.52929688 227.25293,6.52929688 C227.422852,6.52929688 227.592773,6.546875 227.71582,6.56445312 L227.71582,5.54492188 C227.53418,5.50976562 227.217773,5.48046875 226.930664,5.48046875 C225.583008,5.48046875 225.008789,6.04882812 225.008789,7.25585938 L225.008789,7.80664062 L224.15918,7.80664062 L224.15918,8.9140625 L225.008789,8.9140625 L225.008789,14 L226.467773,14 Z M229.40332,6.8515625 C229.854492,6.8515625 230.206055,6.49414062 230.206055,6.06054688 C230.206055,5.62109375 229.854492,5.26953125 229.40332,5.26953125 C228.963867,5.26953125 228.606445,5.62109375 228.606445,6.06054688 C228.606445,6.49414062 228.963867,6.8515625 229.40332,6.8515625 Z M230.141602,14 L230.141602,7.7890625 L228.682617,7.7890625 L228.682617,14 L230.141602,14 Z M234.09668,14.1230469 C235.655273,14.1230469 236.727539,13.2089844 236.844727,11.8203125 L235.467773,11.8203125 C235.333008,12.5234375 234.852539,12.9453125 234.114258,12.9453125 C233.188477,12.9453125 232.59082,12.1953125 232.59082,10.8945312 C232.59082,9.6171875 233.182617,8.84375 234.102539,8.84375 C234.881836,8.84375 235.344727,9.34179688 235.461914,10.0039062 L236.838867,10.0039062 C236.739258,8.69726562 235.725586,7.66015625 234.084961,7.66015625 C232.280273,7.66015625 231.108398,8.90820312 231.108398,10.8945312 C231.108398,12.9101562 232.280273,14.1230469 234.09668,14.1230469 Z M239.540039,14.0996094 C240.336914,14.0996094 241.116211,13.6835938 241.473633,13.0097656 L241.50293,13.0097656 L241.50293,14 L242.90918,14 L242.90918,9.72265625 C242.90918,8.47460938 241.907227,7.66015625 240.366211,7.66015625 C238.78418,7.66015625 237.793945,8.4921875 237.729492,9.65234375 L239.083008,9.65234375 C239.176758,9.13671875 239.616211,8.80273438 240.307617,8.80273438 C241.02832,8.80273438 241.467773,9.17773438 241.467773,9.828125 L241.467773,10.2734375 L239.827148,10.3671875 C238.31543,10.4609375 237.46582,11.1230469 237.46582,12.2246094 C237.46582,13.34375 238.338867,14.0996094 239.540039,14.0996094 Z M239.979492,12.9980469 C239.34668,12.9980469 238.924805,12.6757812 238.924805,12.1660156 C238.924805,11.6738281 239.329102,11.3574219 240.032227,11.3105469 L241.467773,11.2226562 L241.467773,11.6972656 C241.467773,12.4472656 240.805664,12.9980469 239.979492,12.9980469 Z M246.354492,14.0292969 C246.665039,14.0292969 246.952148,14.0058594 247.110352,13.9707031 L247.110352,12.8574219 C247.016602,12.875 246.829102,12.8867188 246.694336,12.8867188 C246.178711,12.8867188 245.944336,12.6523438 245.944336,12.1425781 L245.944336,8.9140625 L247.116211,8.9140625 L247.116211,7.7890625 L245.944336,7.7890625 L245.944336,6.3359375 L244.485352,6.3359375 L244.485352,7.7890625 L243.594727,7.7890625 L243.594727,8.9140625 L244.485352,8.9140625 L244.485352,12.3476562 C244.485352,13.5546875 245.012695,14.0292969 246.354492,14.0292969 Z M248.862305,6.8515625 C249.313477,6.8515625 249.665039,6.49414062 249.665039,6.06054688 C249.665039,5.62109375 249.313477,5.26953125 248.862305,5.26953125 C248.422852,5.26953125 248.06543,5.62109375 248.06543,6.06054688 C248.06543,6.49414062 248.422852,6.8515625 248.862305,6.8515625 Z M249.600586,14 L249.600586,7.7890625 L248.141602,7.7890625 L248.141602,14 L249.600586,14 Z M253.573242,14.1230469 C255.395508,14.1230469 256.579102,12.9101562 256.579102,10.8945312 C256.579102,8.88476562 255.383789,7.66015625 253.573242,7.66015625 C251.762695,7.66015625 250.567383,8.890625 250.567383,10.8945312 C250.567383,12.9101562 251.750977,14.1230469 253.573242,14.1230469 Z M253.573242,12.96875 C252.647461,12.96875 252.049805,12.21875 252.049805,10.8945312 C252.049805,9.57617188 252.65332,8.8203125 253.573242,8.8203125 C254.499023,8.8203125 255.09668,9.57617188 255.09668,10.8945312 C255.09668,12.21875 254.499023,12.96875 253.573242,12.96875 Z M258.975586,14 L258.975586,10.4023438 C258.975586,9.51171875 259.508789,8.90820312 260.34668,8.90820312 C261.178711,8.90820312 261.588867,9.40039062 261.588867,10.2792969 L261.588867,14 L263.047852,14 L263.047852,9.98632812 C263.047852,8.55078125 262.268555,7.671875 260.897461,7.671875 C259.942383,7.671875 259.280273,8.1171875 258.946289,8.85546875 L258.916992,8.85546875 L258.916992,7.7890625 L257.516602,7.7890625 L257.516602,14 L258.975586,14 Z M266.645508,14.1230469 C268.168945,14.1230469 269.24707,13.3320312 269.24707,12.1601562 C269.24707,11.2578125 268.749023,10.7597656 267.459961,10.4726562 L266.428711,10.2441406 C265.77832,10.0976562 265.520508,9.8515625 265.520508,9.49414062 C265.520508,9.03710938 265.948242,8.73242188 266.592773,8.73242188 C267.266602,8.73242188 267.682617,9.08984375 267.741211,9.65234375 L269.100586,9.65234375 C269.06543,8.47460938 268.104492,7.66015625 266.592773,7.66015625 C265.092773,7.66015625 264.102539,8.43359375 264.102539,9.5703125 C264.102539,10.4902344 264.700195,11.0761719 265.889648,11.3398438 L266.920898,11.5683594 C267.571289,11.7148438 267.793945,11.9257812 267.793945,12.3007812 C267.793945,12.7636719 267.354492,13.0566406 266.645508,13.0566406 C265.907227,13.0566406 265.491211,12.7519531 265.379883,12.1484375 L263.944336,12.1484375 C264.061523,13.3496094 265.022461,14.1230469 266.645508,14.1230469 Z" id="Enablenotifications" fill="#FFFFFF" fill-rule="nonzero"></path>
                <g id="icon/i--bubble" transform="translate(8.000000, 28.000000)">
                    <mask id="mask-4" fill="white">
                        <use xlink:href="#path-3"></use>
                    </mask>
                    <use id="icon--chat" fill="#FFFFFF" fill-rule="evenodd" xlink:href="#path-3"></use>
                </g>
            </g>
        </g>
    </g>
</svg>