<svg xmlns="http://www.w3.org/2000/svg" width="140" height="144" viewBox="0 0 140 144">
  <g fill="none" fill-rule="evenodd">
    <rect width="140" height="140" y="2"/>
    <g fill="#FFF">
      <path fill-opacity=".3" fill-rule="nonzero" d="M32.6903553,75.5403151 L32.6903553,9.25016502 C32.6903553,5.71058944 35.5547129,2.84263959 39.0862944,2.84263959 L101.624365,2.84263959 C105.155947,2.84263959 108.020305,5.71058944 108.020305,9.25016502 L108.020305,75.2523238 L110.862944,73.9656499 L110.862944,9.25016502 C110.862944,4.14143994 106.726692,0 101.624365,0 L39.0862944,0 C33.9839683,0 29.8477157,4.14143994 29.8477157,9.25016502 L29.8477157,74.2738113 L32.6903553,75.5403151 Z"/>
      <path fill-rule="nonzero" d="M86.8395762,41.150301 L79.174926,31.6916863 L71.414555,38.1272504 C70.4951661,38.8896864 69.1644388,38.8905955 68.2440117,38.1294163 L60.470933,31.7011987 L52.9727809,41.1446434 L69.8340951,57.6668648 L86.8395762,41.150301 Z M77.7376877,28.2639712 C78.7956375,27.3866287 80.363611,27.5341154 81.2398545,28.5933919 C81.2451875,28.599861 84.2364123,32.2911355 90.2135289,39.6672152 C91.0253203,40.6690121 90.938667,42.1256726 90.0138473,43.0239032 L71.5626403,60.9446275 C70.5946989,61.88474 69.0548512,61.8813276 68.0910756,60.9369341 L49.8002469,43.0139468 C48.8891908,42.1212127 48.799683,40.6833467 49.5929718,39.6842501 L58.3653841,28.6359558 C59.2202486,27.5593086 60.7849549,27.3803872 61.8602536,28.2363237 C61.872346,28.2460109 64.5279387,30.4419578 69.8270319,34.8241645 L77.7376877,28.2639712 Z"/>
      <path fill-opacity=".3" d="M110.874708,43.8126441 L138.457988,58.3287451 C139.404851,58.8165758 140,59.7933578 140,60.8595556 L140,140.240033 C140,141.811948 138.727307,143.086237 137.15736,143.086237 L2.84263959,143.086237 C1.2726931,143.086237 0,141.811948 0,140.240033 L0,60.8809133 C0,59.8035486 0.607552189,58.8185259 1.56964158,58.3360578 L29.8497975,43.7655158 L29.8497975,46.8938645 L27.827082,47.9647113 L2.84263959,60.8809133 L2.84263959,140.240033 L137.15736,140.240033 L137.15736,60.8809133 L110.874708,47.4643869 L110.874708,43.8126441 Z"/>
      <path fill-opacity=".2" fill-rule="nonzero" d="M70.0449292,92.7502316 L12.6759547,66.3050203 C11.9629195,65.9763345 11.1187716,66.2886362 10.7904975,67.0025656 C10.4622235,67.7164949 10.7741339,68.5617015 11.4871691,68.8903873 L69.1397921,95.4663512 C69.4343332,95.602125 69.7512468,95.6285234 70.0449292,95.562418 C70.3386116,95.6285234 70.6555253,95.602125 70.9500663,95.4663512 L128.602689,68.8903873 C129.315725,68.5617015 129.627635,67.7164949 129.299361,67.0025656 C128.971087,66.2886362 128.126939,65.9763345 127.413904,66.3050203 L70.0449292,92.7502316 Z"/>
      <path fill-opacity=".2" fill-rule="nonzero" d="M63.4864937,104.339507 L12.6759547,133.890114 C11.9629195,134.218799 11.1187716,133.906498 10.7904975,133.192568 C10.4622235,132.478639 10.7741339,131.633432 11.4871691,131.304747 L62.2977081,101.75414 C63.0107433,101.425454 63.8548912,101.737756 64.1831653,102.451685 C64.5114393,103.165614 64.1995288,104.010821 63.4864937,104.339507 Z" transform="rotate(180 37.487 117.822)"/>
      <path fill-opacity=".2" fill-rule="nonzero" d="M127.445885,104.339507 L76.6353455,133.890114 C75.9223104,134.218799 75.0781625,133.906498 74.7498884,133.192568 C74.4216143,132.478639 74.7335248,131.633432 75.44656,131.304747 L126.257099,101.75414 C126.970134,101.425454 127.814282,101.737756 128.142556,102.451685 C128.47083,103.165614 128.15892,104.010821 127.445885,104.339507 Z" transform="matrix(-1 0 0 1 202.892 0)"/>
    </g>
  </g>
</svg>
