<svg xmlns="http://www.w3.org/2000/svg" width="100" height="100" viewBox="0 0 100 100">
  <path fill="#FFFFFF" fill-rule="evenodd" d="M66.6691667,91.6666667 C64.1313433,96.5290381 57.6566402,100 50.010634,100 C42.3646279,100 35.8736567,96.5290381 33.3358333,91.6666667 C38.6229653,91.961585 44.1703868,92.1355112 50.010634,92.1355112 C55.8508813,92.1355112 61.3983028,91.976709 66.6691667,91.6666667 Z M93.8604828,66.6666667 L82.7124121,52.2416667 L76.7059494,25 C74.8907052,16.6666667 66.5367801,8.60833333 55.7973769,6.40833333 C55.8163847,6.36666667 57.5080783,3.3 57.5080783,3.3 C58.2873978,1.13333333 56.9188367,0 54.4573275,0 L45.5426725,0 C43.0906672,0 41.7126022,1.60833333 42.4919217,3.775 C42.4919217,3.775 44.1836153,6.40833333 44.2026231,6.45 C33.4632199,8.65 25.1092948,16.6666667 23.2940506,25 L17.2875879,52.2416667 L6.1395172,66.6666667 L4.4573275,66.6666667 C2.01482608,66.6666667 0,68.5333333 0,70.8083333 C0,73.1 1.88177153,75.65 4.16270671,76.4666667 C4.16270671,76.4666667 23.2370272,83.2916667 50,83.2916667 C76.7629728,83.2916667 95.8372933,76.4583333 95.8372933,76.4583333 C98.1277324,75.6416667 100,73.1 100,70.8166667 C100,68.5333333 97.9851739,66.6666667 95.5426725,66.6666667 L93.8604828,66.6666667 Z" opacity=".1"/>
</svg>
